<?xml version="1.0" encoding="UTF-8" ?>
<!DOCTYPE svg PUBLIC "-//W3C//DTD SVG 1.1//EN" "http://www.w3.org/Graphics/SVG/1.1/DTD/svg11.dtd">
<svg width="464pt" height="188pt" viewBox="0 0 464 188" version="1.1" xmlns="http://www.w3.org/2000/svg">
<path fill="#ffffff" d=" M 0.00 0.00 L 464.00 0.00 L 464.00 188.00 L 0.00 188.00 L 0.00 0.00 Z" />
<path fill="#bbbdc2" d=" M 82.99 16.91 C 102.28 13.92 122.62 18.32 138.83 29.23 C 157.87 41.76 170.69 62.85 173.55 85.42 C 171.48 85.53 169.41 85.65 167.35 85.77 C 165.46 69.41 157.46 53.90 145.56 42.56 C 132.25 29.46 113.68 21.83 94.97 22.15 C 76.30 21.85 57.77 29.46 44.48 42.52 C 32.09 54.32 23.90 70.61 22.46 87.71 C 20.39 87.64 18.31 87.57 16.24 87.51 C 17.93 71.78 24.08 56.48 34.33 44.37 C 46.49 29.71 64.13 19.69 82.99 16.91 Z" />
<path fill="#bbbdc2" d=" M 70.42 43.42 C 75.62 38.92 79.44 33.05 84.90 28.82 C 81.45 32.41 77.99 36.00 74.66 39.71 C 70.09 44.36 65.12 48.59 60.50 53.21 C 77.56 61.20 95.16 67.99 112.39 75.62 C 120.32 94.13 128.13 112.69 136.06 131.20 C 144.40 122.92 152.59 114.49 161.03 106.31 C 153.26 115.25 144.31 123.06 136.23 131.70 C 137.04 133.41 137.85 135.13 138.66 136.84 C 137.78 136.82 136.03 136.78 135.15 136.76 C 127.08 144.43 119.68 152.81 111.30 160.15 C 119.09 151.74 127.88 144.26 135.26 135.48 C 133.44 135.61 131.63 136.08 130.37 137.47 C 122.18 145.20 114.78 153.75 106.25 161.11 C 114.77 152.30 123.56 143.75 132.21 135.06 C 113.69 127.14 95.13 119.33 76.62 111.38 C 70.89 98.07 65.28 84.71 59.58 71.39 C 58.00 67.83 56.45 64.24 55.39 60.49 C 53.77 60.98 52.42 61.97 51.19 63.11 C 43.40 69.92 36.90 78.07 29.04 84.81 C 32.94 80.41 37.52 76.68 41.41 72.27 C 45.21 67.97 49.90 64.36 52.63 59.21 C 53.14 59.14 54.15 59.01 54.66 58.94 L 52.99 56.90 C 45.61 64.27 38.04 71.47 31.01 79.17 C 30.62 79.50 30.16 79.69 29.63 79.73 C 36.37 73.08 42.81 66.14 49.71 59.66 C 51.15 58.21 52.81 56.62 52.75 54.37 C 44.71 59.64 38.92 67.53 31.77 73.84 C 35.96 69.01 40.53 64.53 45.11 60.07 C 46.83 58.26 49.39 56.82 49.60 54.06 C 50.15 54.05 51.24 54.04 51.79 54.03 C 51.24 52.37 50.68 50.72 50.12 49.07 C 51.54 49.65 52.96 50.23 54.38 50.81 C 60.72 44.41 66.99 37.90 73.71 31.88 C 67.62 38.77 60.20 44.46 54.72 51.87 C 58.83 51.92 60.88 47.98 63.62 45.60 C 69.13 40.41 74.14 34.69 79.88 29.75 C 73.17 37.15 65.56 43.71 58.92 51.16 C 58.78 51.83 58.48 53.18 58.34 53.86 C 62.93 51.07 66.37 46.87 70.42 43.42 Z" />
<path fill="#ffffff" d=" M 79.05 64.88 C 89.54 68.85 99.72 73.61 110.10 77.88 C 114.66 88.72 119.38 99.49 123.87 110.36 C 113.41 106.21 103.13 101.62 92.78 97.22 C 88.17 86.45 83.49 75.71 79.05 64.88 Z" />
<path fill="#ffffff" d=" M 338.63 86.69 C 342.58 81.96 349.33 81.29 355.07 81.99 C 359.09 82.36 363.05 84.41 365.14 87.96 C 367.55 92.52 367.83 97.79 368.05 102.83 C 356.77 102.88 345.48 102.93 334.20 102.81 C 334.42 97.25 334.99 91.16 338.63 86.69 Z" />
<path fill="#ffffff" d=" M 226.30 86.40 C 229.19 83.20 233.75 82.11 237.92 82.35 C 243.32 82.62 248.73 83.04 254.05 84.08 C 253.96 99.88 254.01 115.70 254.05 131.50 C 247.45 134.22 240.25 136.21 233.06 135.37 C 228.19 134.85 223.84 131.39 222.33 126.72 C 219.75 119.10 219.85 110.91 220.28 102.98 C 220.98 97.14 222.09 90.82 226.30 86.40 Z" />
<path fill="#bbbdc2" d=" M 168.36 89.22 C 171.29 87.01 175.73 89.55 175.97 93.02 C 176.49 96.88 171.54 100.24 168.31 97.73 C 165.20 95.91 165.22 90.99 168.36 89.22 Z" />
<path fill="#bbbdc2" d=" M 16.30 91.33 C 18.89 89.22 22.96 91.01 23.82 94.04 C 25.24 97.80 20.73 102.05 17.09 100.16 C 13.52 98.74 12.96 93.31 16.30 91.33 Z" />
<path fill="#bbbdc2" d=" M 167.62 101.32 C 169.70 101.37 171.77 101.42 173.85 101.46 C 172.35 117.32 166.34 132.81 156.11 145.10 C 144.16 159.78 126.74 169.91 108.05 172.93 C 88.69 176.19 68.17 172.00 51.77 161.17 C 32.12 148.50 18.91 126.73 16.35 103.52 C 18.42 103.44 20.49 103.36 22.56 103.26 C 24.20 119.99 32.32 135.87 44.44 147.44 C 57.74 160.52 76.28 168.17 94.97 167.86 C 113.42 168.18 131.74 160.74 145.01 147.97 C 157.91 135.91 166.38 119.00 167.62 101.32 Z" />
</svg>
