<?xml version="1.0" encoding="UTF-8" standalone="no"?>
<!-- Created with Inkscape (http://www.inkscape.org/) -->

<svg
   xmlns:dc="http://purl.org/dc/elements/1.1/"
   xmlns:cc="http://creativecommons.org/ns#"
   xmlns:rdf="http://www.w3.org/1999/02/22-rdf-syntax-ns#"
   xmlns:svg="http://www.w3.org/2000/svg"
   xmlns="http://www.w3.org/2000/svg"
   xmlns:sodipodi="http://sodipodi.sourceforge.net/DTD/sodipodi-0.dtd"
   xmlns:inkscape="http://www.inkscape.org/namespaces/inkscape"
   width="128"
   height="128"
   viewBox="0 0 128 128"
   id="svg4173"
   version="1.1"
   inkscape:version="0.91 r13725"
   sodipodi:docname="ampl.svg">
  <defs
     id="defs4175" />
  <sodipodi:namedview
     id="base"
     pagecolor="#ffffff"
     bordercolor="#666666"
     borderopacity="1.0"
     inkscape:pageopacity="0.0"
     inkscape:pageshadow="2"
     inkscape:zoom="1.979899"
     inkscape:cx="-25.795951"
     inkscape:cy="176.65371"
     inkscape:document-units="px"
     inkscape:current-layer="layer1"
     showgrid="false"
     units="px"
     inkscape:window-width="1920"
     inkscape:window-height="1017"
     inkscape:window-x="-8"
     inkscape:window-y="-8"
     inkscape:window-maximized="1" />
  <metadata
     id="metadata4178">
    <rdf:RDF>
      <cc:Work
         rdf:about="">
        <dc:format>image/svg+xml</dc:format>
        <dc:type
           rdf:resource="http://purl.org/dc/dcmitype/StillImage" />
        <dc:title></dc:title>
      </cc:Work>
    </rdf:RDF>
  </metadata>
  <g
     inkscape:label="Capa 1"
     inkscape:groupmode="layer"
     id="layer1"
     transform="translate(0,-924.36216)">
    <g
       id="g4781"
       transform="matrix(0.6280638,0,0,0.60627627,1.5315957,929.03588)">
      <path
         id="path4723"
         d="M 0,0 200,0 200,200 0,200 0,0 Z"
         inkscape:connector-curvature="0"
         style="fill:#fefefe" />
      <path
         id="path4725"
         d="m 157.26,19.66 c 10.37,5.59 8.26,19.05 6.33,28.77 2.42,6.86 -2.8,4.77 -4.29,2.45 3.57,-10.24 5.48,-22.08 -2.04,-31.22 z"
         inkscape:connector-curvature="0"
         style="fill:#b4b6b8" />
      <path
         id="path4727"
         d="m 63.98,26.96 c -0.92,-5.64 6.05,-6.45 10.03,-5.53 1.16,0.62 2.48,0.76 3.77,0.65 6.93,1.47 12.06,6.51 16.26,11.91 12.04,1.37 25.95,2.14 38.18,0.19 6.95,-3.98 12.68,-11.9 21.57,-11.09 2.47,2.72 4.65,6.3 4.26,10.12 -0.09,1.19 -0.09,2.39 0,3.58 0.46,5.55 -3.15,10.54 -2.98,16.02 5.94,3.99 10.72,9.36 16.61,13.36 -0.92,3.36 -2.58,7.35 -0.37,10.53 5,8.62 10.26,17.1 14.9,25.93 -6.55,3.72 -17.15,-3.25 -23.12,1.9 6.27,2.98 11.42,8.05 14.37,14.35 1.65,-1.53 2.91,-3.42 4.42,-5.1 0.27,0.55 0.83,1.65 1.11,2.2 0.01,2.68 0.02,5.37 0.01,8.06 -1.13,6.09 -9.29,8.41 -8.7,15.29 -3.71,11.65 -18.69,9.68 -27.17,4.53 -7.26,-5.05 -15.85,-5.25 -24.36,-4.82 -1.87,-0.09 -3.74,-0.04 -5.6,0.12 -4.11,-0.5 -8.26,-2.94 -12.35,-1.39 l -0.77,0.21 c -2.5,-0.63 -4.96,-1.41 -7.45,-2.11 -3.57,-1.87 -7.36,-3.27 -11.15,-4.63 -3.35,-3.88 -8.08,-7.01 -9.51,-12.2 -4.1,-11.73 4.12,-23.39 1.08,-35.12 -0.42,-1.81 -0.94,-3.61 -1.73,-5.3 -0.8,-1.73 -1.81,-3.36 -2.86,-4.94 L 72.05,73.01 C 69.72,67.65 65.86,62.77 61.09,59.36 65.94,58.24 63.51,52.67 64.02,49 64.06,41.65 63.99,34.3 63.98,26.96 Z"
         inkscape:connector-curvature="0"
         style="fill:#231e1f" />
      <path
         id="path4729"
         d="m 74.01,21.43 c 0.84,-1.16 4.02,-1.21 3.77,0.65 -1.29,0.11 -2.61,-0.03 -3.77,-0.65 z"
         inkscape:connector-curvature="0"
         style="fill:#838181" />
      <path
         id="path4731"
         d="M 64.02,49 C 62.87,44.41 61.39,31.67 63.98,26.96 63.99,34.3 64.06,41.65 64.02,49 Z"
         inkscape:connector-curvature="0"
         style="fill:#918f8f" />
      <path
         id="path4733"
         d="m 158.05,33.21 c 1.79,-0.26 1.78,3.84 0,3.58 -0.09,-1.19 -0.09,-2.39 0,-3.58 z"
         inkscape:connector-curvature="0"
         style="fill:#adabab" />
      <path
         id="path4735"
         d="m 94.04,33.99 c 12.73,0.08 25.46,-0.21 38.18,0.19 -12.23,1.95 -26.14,1.18 -38.18,-0.19 z"
         inkscape:connector-curvature="0"
         style="fill:#918f8f" />
      <path
         id="path4737"
         d="m 48.67,71.67 c 3.89,-4.09 7.99,-9.59 12.42,-12.31 4.77,3.41 8.63,8.29 10.96,13.65 -7.79,-9.6 -17.77,2.78 -22.09,9.96 -15.57,23.37 -1.74,57.98 25.13,64.93 12.3,3.55 26.39,1.86 36.63,-6.11 -0.42,-2.25 -4.82,-2.74 -6.9,-4.02 4.09,-1.55 8.24,0.89 12.35,1.39 l -0.06,0.57 c -1.79,9.49 -8.07,17.18 -13.58,24.8 -3.99,4.42 -10.4,3.93 -15.25,1.23 -13.92,-7.42 -27.62,-15.95 -43.27,-19.24 -1.19,-0.64 -2.54,-0.71 -3.84,-0.53 -2.47,0.01 -4.82,-0.85 -7.17,-1.5 -1.19,-0.58 -2.53,-0.71 -3.83,-0.49 -7.59,-0.66 -18.49,-3.64 -20.25,-12.21 0.11,-1.86 0.11,-3.72 0.02,-5.58 0.52,-5.98 5.85,-9.63 8.89,-14.4 C 28.72,98.4 40.31,86.16 48.67,71.67 Z"
         inkscape:connector-curvature="0"
         style="fill:#282526" />
      <path
         id="path4739"
         d="m 176.36,63.78 c 6.64,1.48 0.89,7.79 2.01,11.86 4.86,10.72 11.47,20.5 17.25,30.72 0.96,1.42 0.14,3.01 -1.3,3.64 -0.31,-1.14 -0.68,-2.26 -1.11,-3.35 -5.12,-10.84 -11.83,-20.83 -17.57,-31.32 -2.95,-4.14 2.1,-7.54 0.72,-11.55 z"
         inkscape:connector-curvature="0"
         style="fill:#bfc1c2" />
      <path
         id="path4741"
         d="m 49.96,82.97 c 4.32,-7.18 14.3,-19.56 22.09,-9.96 l 0.38,0.67 c -10.91,-2.09 -17.11,11.83 -20.7,20.13 -10.11,25.96 15.85,55.79 42.83,49.7 3.36,-1.03 9.73,-0.75 9.49,-5.53 l 0.77,-0.21 c 2.08,1.28 6.48,1.77 6.9,4.02 -10.24,7.97 -24.33,9.66 -36.63,6.11 -26.87,-6.95 -40.7,-41.56 -25.13,-64.93 z"
         inkscape:connector-curvature="0"
         style="fill:#2d2c2d" />
      <path
         id="path4743"
         d="m 51.73,93.81 c 3.59,-8.3 9.79,-22.22 20.7,-20.13 1.05,1.58 2.06,3.21 2.86,4.94 -7.75,-2.72 -13.15,6.93 -16.07,12.58 -9.09,16.9 0.62,40.15 18.82,45.76 5.63,1.1 14.71,5.34 18.56,-1.09 2.49,0.7 4.95,1.48 7.45,2.11 0.24,4.78 -6.13,4.5 -9.49,5.53 -26.98,6.09 -52.94,-23.74 -42.83,-49.7 z"
         inkscape:connector-curvature="0"
         style="fill:#353538" />
      <path
         id="path4745"
         d="m 120.84,73.08 c 3.43,-0.09 6.89,-0.19 10.32,-0.01 l -0.46,0.62 c -3.71,1.48 -0.05,6.58 2.37,7.29 4.14,1.19 4.77,-4 5.2,-6.88 5.54,-1.02 1.53,9.77 -2.45,10.5 -6.46,-0.58 -12.21,-6.07 -14.98,-11.52 z"
         inkscape:connector-curvature="0"
         style="fill:#e6991d" />
      <path
         id="path4747"
         d="m 131.16,73.07 c 4.91,-1.84 1.55,5.05 -0.46,0.62 l 0.46,-0.62 z"
         inkscape:connector-curvature="0"
         style="fill:#edecec" />
      <path
         id="path4749"
         d="m 59.22,91.2 c 2.92,-5.65 8.32,-15.3 16.07,-12.58 0.79,1.69 1.31,3.49 1.73,5.3 -6.55,-1.52 -10.55,8.3 -12.96,13.15 -5.35,14.36 5.28,34.47 21.39,34.17 3.79,1.36 7.58,2.76 11.15,4.63 -3.85,6.43 -12.93,2.19 -18.56,1.09 C 59.84,131.35 50.13,108.1 59.22,91.2 Z"
         inkscape:connector-curvature="0"
         style="fill:#3e4145" />
      <path
         id="path4751"
         d="m 64.06,97.07 c 2.41,-4.85 6.41,-14.67 12.96,-13.15 3.04,11.73 -5.18,23.39 -1.08,35.12 1.43,5.19 6.16,8.32 9.51,12.2 -16.11,0.3 -26.74,-19.81 -21.39,-34.17 z"
         inkscape:connector-curvature="0"
         style="fill:#484f55" />
      <path
         id="path4753"
         d="m 186.21,102.63 c 6.05,2.57 -1.62,7.74 -4.33,11.15 -1.51,1.68 -2.77,3.57 -4.42,5.1 -2.95,-6.3 -8.1,-11.37 -14.37,-14.35 5.97,-5.15 16.57,1.82 23.12,-1.9 z"
         inkscape:connector-curvature="0"
         style="fill:#306a7d" />
      <path
         id="path4755"
         d="m 187.01,114.08 c 1.58,-2.81 4.03,-5.07 6.2,-7.43 0.43,1.09 0.8,2.21 1.11,3.35 -8.23,5.23 -0.7,16.64 -7.41,22.93 -4.83,3.8 -5.25,9.88 -8.15,14.87 -5.66,7.63 -16.78,7.93 -25.03,4.84 1.06,-0.22 2.12,-0.43 3.19,-0.62 5.74,0.33 11.72,-0.43 16.79,-3.3 3.79,-4.04 4.86,-9.73 7.65,-14.39 5.63,-4.97 7.35,-13.15 5.65,-20.25 z"
         inkscape:connector-curvature="0"
         style="fill:#a6a8aa" />
      <path
         id="path4757"
         d="m 182.99,115.98 c 1.73,0.74 1.71,7.23 0.01,8.06 0.01,-2.69 0,-5.38 -0.01,-8.06 z"
         inkscape:connector-curvature="0"
         style="fill:#989696" />
      <path
         id="path4759"
         d="m 176.39,121.43 c 1.28,0.98 -2.31,8.28 -1.61,11.37 -7.1,0.14 -13.99,1.99 -20.96,3.11 7.37,-4.78 16.19,-7.89 22.57,-14.48 z"
         inkscape:connector-curvature="0"
         style="fill:#2e6679" />
      <path
         id="path4761"
         d="m 9.92,131.79 c -1.8,-0.5 -1.8,-5.09 0.02,-5.58 0.09,1.86 0.09,3.72 -0.02,5.58 z"
         inkscape:connector-curvature="0"
         style="fill:#918f8f" />
      <path
         id="path4763"
         d="m 117.17,139.16 c 1.86,-0.16 3.73,-0.21 5.6,-0.12 -0.69,1.79 -4.13,1.49 -5.66,0.69 l 0.06,-0.57 z"
         inkscape:connector-curvature="0"
         style="fill:#918f8f" />
      <path
         id="path4765"
         d="m 9.88,140.92 c 16.19,9.89 36.37,7.31 53.15,16 10.1,4.51 20.14,12.2 29.99,15.25 -0.58,0.13 -1.74,0.39 -2.32,0.51 C 79.83,169.95 71.03,161.17 60.11,157.83 44.04,150.5 22.91,154.7 9.88,140.92 Z"
         inkscape:connector-curvature="0"
         style="fill:#c1c3c5" />
      <path
         id="path4767"
         d="m 118.26,149.31 c 0.6,-9.18 14.15,-8.15 19.9,-4.4 -4.73,0.87 -11.19,-1.55 -15.21,1.04 -4.24,9.43 -8.84,19.35 -16.95,26.04 -4.34,3.6 -10.7,3.87 -15.3,0.69 0.58,-0.12 1.74,-0.38 2.32,-0.51 13.43,0.87 19.65,-12.79 25.24,-22.86 z"
         inkscape:connector-curvature="0"
         style="fill:#adafb1" />
      <path
         id="path4769"
         d="m 30.17,144 c 1.3,-0.22 2.64,-0.09 3.83,0.49 -0.81,1.14 -3.97,1.36 -3.83,-0.49 z"
         inkscape:connector-curvature="0"
         style="fill:#838181" />
      <path
         id="path4771"
         d="m 122.95,145.95 c 4.02,-2.59 10.48,-0.17 15.21,-1.04 6.01,2.68 13.56,5.25 18.76,7.11 -1.07,0.19 -2.13,0.4 -3.19,0.62 -10.33,-1.6 -19.1,-10.62 -30.78,-6.69 z"
         inkscape:connector-curvature="0"
         style="fill:#cecfd1" />
      <path
         id="path4773"
         d="m 41.17,145.99 c 1.3,-0.18 2.65,-0.11 3.84,0.53 -0.84,1.12 -3.98,1.31 -3.84,-0.53 z"
         inkscape:connector-curvature="0"
         style="fill:#9f9d9d" />
    </g>
  </g>
</svg>
