<?xml version="1.0" encoding="UTF-8" standalone="no"?>
<!-- Created with Inkscape (http://www.inkscape.org/) -->

<svg
   xmlns:dc="http://purl.org/dc/elements/1.1/"
   xmlns:cc="http://creativecommons.org/ns#"
   xmlns:rdf="http://www.w3.org/1999/02/22-rdf-syntax-ns#"
   xmlns:svg="http://www.w3.org/2000/svg"
   xmlns="http://www.w3.org/2000/svg"
   xmlns:sodipodi="http://sodipodi.sourceforge.net/DTD/sodipodi-0.dtd"
   xmlns:inkscape="http://www.inkscape.org/namespaces/inkscape"
   width="128"
   height="128"
   id="svg2"
   version="1.1"
   inkscape:version="0.48.5 r10040"
   sodipodi:docname="Documento nuevo 1">
  <defs
     id="defs4" />
  <sodipodi:namedview
     id="base"
     pagecolor="#ffffff"
     bordercolor="#666666"
     borderopacity="1.0"
     inkscape:pageopacity="0.0"
     inkscape:pageshadow="2"
     inkscape:zoom="1.4"
     inkscape:cx="159.39564"
     inkscape:cy="90.864461"
     inkscape:document-units="px"
     inkscape:current-layer="layer1"
     showgrid="false"
     inkscape:window-width="1366"
     inkscape:window-height="705"
     inkscape:window-x="-8"
     inkscape:window-y="-8"
     inkscape:window-maximized="1" />
  <metadata
     id="metadata7">
    <rdf:RDF>
      <cc:Work
         rdf:about="">
        <dc:format>image/svg+xml</dc:format>
        <dc:type
           rdf:resource="http://purl.org/dc/dcmitype/StillImage" />
        <dc:title></dc:title>
      </cc:Work>
    </rdf:RDF>
  </metadata>
  <g
     inkscape:label="Capa 1"
     inkscape:groupmode="layer"
     id="layer1"
     transform="translate(0,-924.36217)">
    <g
       id="g3043"
       transform="matrix(0.18962941,0,0,0.27116402,3.1249986,939.86219)">
      <path
         id="path2987"
         d="m 0,0 220.91,0 c -9.85,0.61 -19.61,4.27 -26.85,11.09 -9.61,8.68 -14.62,22.06 -13.16,34.93 1.08,11.9 7.81,22.97 17.54,29.82 -9.3,16.19 -18.67,32.33 -27.97,48.51 -11.64,-5.44 -25.81,-5.23 -37.14,0.91 -12.36,6.4 -20.91,19.4 -21.98,33.27 -9.42,-0.02 -18.83,-0.01 -28.25,0 C 82.09,147.5 76.69,136.87 68.04,129.9 59.51,122.81 48.08,119.41 37.07,120.7 23.47,122.06 10.93,130.75 4.75,142.91 2.01,148.06 0.73,153.82 0,159.57 L 0,0 z"
         inkscape:connector-curvature="0"
         style="fill:#fffffe" />
      <path
         id="path2989"
         d="m 220.91,0 1.76,0 c 11.94,0.36 23.72,5.7 31.33,15 10.37,12.02 12.62,30.12 5.79,44.41 -1.07,2.07 -2.21,4.1 -3.51,6.04 -6.33,9.04 -16.3,15.49 -27.24,17.21 -8.3,1.42 -16.96,0.15 -24.6,-3.34 -2.05,-1.06 -4.08,-2.19 -6,-3.48 C 188.71,68.99 181.98,57.92 180.9,46.02 179.44,33.15 184.45,19.77 194.06,11.09 201.3,4.27 211.06,0.61 220.91,0 z"
         inkscape:connector-curvature="0"
         style="fill:#f4b503" />
      <path
         id="path2991"
         d="m 222.67,0 137.78,0 c -11.93,0.41 -23.7,5.75 -31.29,15.06 -10.3,12.01 -12.55,30.05 -5.74,44.31 -10.47,6.2 -21.13,12.07 -31.53,18.37 C 281.02,71.94 270.53,65.45 259.79,59.41 266.62,45.12 264.37,27.02 254,15 246.39,5.7 234.61,0.36 222.67,0 z"
         inkscape:connector-curvature="0"
         style="fill:#fffffe" />
      <path
         id="path2993"
         d="m 360.45,0 1.92,0 c 10.24,0.64 20.37,4.63 27.68,11.94 9.28,8.9 13.89,22.3 12.16,35.03 -1.32,11.54 -7.96,22.2 -17.43,28.86 -1.99,1.31 -4.06,2.51 -6.2,3.56 -9.3,4.25 -20.15,5.07 -29.91,1.95 -8.78,-2.65 -16.46,-8.44 -21.74,-15.9 -1.3,-1.95 -2.47,-3.98 -3.51,-6.07 -6.81,-14.26 -4.56,-32.3 5.74,-44.31 C 336.75,5.75 348.52,0.41 360.45,0 z"
         inkscape:connector-curvature="0"
         style="fill:#db4538" />
      <path
         id="path2995"
         d="m 362.37,0 832.63,0 0,324 -832.8,0 c 10.31,-0.59 20.52,-4.6 27.88,-11.97 9.25,-8.89 13.85,-22.25 12.14,-34.96 -1.32,-11.56 -7.96,-22.24 -17.44,-28.91 9.35,-16.15 18.63,-32.36 28.01,-48.49 11.59,5.39 25.66,5.2 36.96,-0.85 12.42,-6.39 21.1,-19.4 22.11,-33.35 9.43,0.05 18.86,-0.04 28.29,0.04 0.96,11.21 6.61,21.94 15.45,28.93 8.68,7.04 20.29,10.28 31.36,8.77 13.71,-1.66 26.22,-10.76 32.07,-23.25 4.94,-10.23 5.41,-22.51 1.22,-33.07 -3.71,-9.8 -11.4,-17.94 -20.84,-22.43 -11.15,-5.37 -24.73,-5.36 -35.84,0.07 -13.07,6.16 -22.29,19.54 -23.41,33.94 -9.43,0.12 -18.86,0 -28.3,0.07 -0.98,-13.45 -9.06,-26.04 -20.79,-32.65 -11.52,-6.71 -26.24,-7.19 -38.28,-1.55 -9.38,-16.15 -18.67,-32.35 -28.01,-48.51 9.47,-6.66 16.11,-17.32 17.43,-28.86 C 403.94,34.24 399.33,20.84 390.05,11.94 382.74,4.63 372.61,0.64 362.37,0 z"
         inkscape:connector-curvature="0"
         style="fill:#fffffe" />
      <path
         id="path2997"
         d="m 323.42,59.37 c 1.04,2.09 2.21,4.12 3.51,6.07 -9.46,5.41 -18.9,10.87 -28.32,16.36 32.55,18.86 65.16,37.63 97.73,56.47 -1.29,1.92 -2.44,3.93 -3.47,5.99 -33.45,-19.23 -66.82,-38.63 -100.27,-57.85 -1.12,-0.88 -2.33,0.38 -3.38,0.75 -32.93,19.08 -65.89,38.1 -98.86,57.11 -1.05,-2.06 -2.19,-4.08 -3.48,-6.01 32.53,-18.89 65.25,-37.47 97.67,-56.56 -9.45,-5.38 -18.81,-10.9 -28.27,-16.25 1.3,-1.94 2.44,-3.97 3.51,-6.04 10.74,6.04 21.23,12.53 32.1,18.33 10.4,-6.3 21.06,-12.17 31.53,-18.37 z"
         inkscape:connector-curvature="0"
         style="fill:#9c9b9b" />
      <path
         id="path2999"
         d="m 298.61,81.8 c 9.42,-5.49 18.86,-10.95 28.32,-16.36 5.28,7.46 12.96,13.25 21.74,15.9 9.76,3.12 20.61,2.3 29.91,-1.95 9.69,15.96 18.69,32.35 28.19,48.43 -4.02,2.89 -7.55,6.43 -10.43,10.45 -32.57,-18.84 -65.18,-37.61 -97.73,-56.47 z"
         inkscape:connector-curvature="0"
         style="fill:#fffffe" />
      <path
         id="path3001"
         d="m 198.44,75.84 c 1.92,1.29 3.95,2.42 6,3.48 -9.25,16.21 -18.68,32.33 -27.94,48.55 -1.93,-1.3 -3.95,-2.47 -6.03,-3.52 9.3,-16.18 18.67,-32.32 27.97,-48.51 z"
         inkscape:connector-curvature="0"
         style="fill:#9c9b9b" />
      <path
         id="path3003"
         d="m 378.58,79.39 c 2.14,-1.05 4.21,-2.25 6.2,-3.56 9.34,16.16 18.63,32.36 28.01,48.51 -2.08,1.03 -4.08,2.22 -6.02,3.48 -9.5,-16.08 -18.5,-32.47 -28.19,-48.43 z"
         inkscape:connector-curvature="0"
         style="fill:#9c9b9b" />
      <path
         id="path3005"
         d="m 289.22,87.16 c 1.05,-0.37 2.26,-1.63 3.38,-0.75 33.45,19.22 66.82,38.62 100.27,57.85 -5.22,11.08 -5.22,24.4 0,35.48 -33.46,19.23 -66.82,38.63 -100.28,57.85 -1.12,0.88 -2.33,-0.39 -3.38,-0.75 -32.92,-19.08 -65.88,-38.1 -98.84,-57.11 5.2,-11.07 5.2,-24.39 -0.01,-35.46 32.97,-19.01 65.93,-38.03 98.86,-57.11 z"
         inkscape:connector-curvature="0"
         style="fill:#fffffe" />
      <path
         id="path3007"
         d="m 1025.18,126.23 c 7.39,-7.46 18.62,-9.95 28.78,-8.4 7.2,1.03 13.78,5.36 17.75,11.44 5.42,7.98 6.86,17.88 6.96,27.34 -21.87,0.01 -43.74,0 -65.62,0 1.02,-10.94 3.97,-22.5 12.13,-30.38 z"
         inkscape:connector-curvature="0"
         style="fill:#fffffe" />
      <path
         id="path3009"
         d="m 4.75,142.91 c 6.18,-12.16 18.72,-20.85 32.32,-22.21 11.01,-1.29 22.44,2.11 30.97,9.2 8.65,6.97 14.05,17.6 15.06,28.63 9.42,-0.01 18.83,-0.02 28.25,0 -0.15,2.31 -0.14,4.63 0,6.94 -9.41,0.02 -18.82,0.02 -28.23,-0.01 C 82.1,176 77.2,186.19 69.16,193.15 60.77,200.62 49.27,204.45 38.08,203.4 24.36,202.38 11.55,193.88 5.11,181.75 2.06,176.29 0.64,170.1 0,163.92 l 0,-4.35 c 0.73,-5.75 2.01,-11.51 4.75,-16.66 z"
         inkscape:connector-curvature="0"
         style="fill:#9c9b9b" />
      <path
         id="path3011"
         d="m 133.33,125.26 c 11.33,-6.14 25.5,-6.35 37.14,-0.91 2.08,1.05 4.1,2.22 6.03,3.52 4.01,2.86 7.54,6.37 10.38,10.39 1.29,1.93 2.43,3.95 3.48,6.01 5.21,11.07 5.21,24.39 0.01,35.46 -1.06,2.06 -2.2,4.08 -3.49,6 -2.84,4.03 -6.37,7.54 -10.38,10.4 -1.93,1.3 -3.96,2.47 -6.03,3.52 -11.67,5.45 -25.88,5.23 -37.22,-0.95 -12.32,-6.41 -20.83,-19.39 -21.9,-33.23 -0.14,-2.31 -0.15,-4.63 0,-6.94 1.07,-13.87 9.62,-26.87 21.98,-33.27 z"
         inkscape:connector-curvature="0"
         style="fill:#4587f4" />
      <path
         id="path3013"
         d="m 412.79,124.34 c 12.04,-5.64 26.76,-5.16 38.28,1.55 11.73,6.61 19.81,19.2 20.79,32.65 0.14,2.3 0.14,4.62 0,6.93 -1.01,13.95 -9.69,26.96 -22.11,33.35 -11.3,6.05 -25.37,6.24 -36.96,0.85 -2.08,-1.04 -4.08,-2.23 -6.02,-3.49 -4.01,-2.9 -7.55,-6.43 -10.43,-10.45 -1.29,-1.92 -2.44,-3.93 -3.47,-5.99 -5.22,-11.08 -5.22,-24.4 0,-35.48 1.03,-2.06 2.18,-4.07 3.47,-5.99 2.88,-4.02 6.41,-7.56 10.43,-10.45 1.94,-1.26 3.94,-2.45 6.02,-3.48 z"
         inkscape:connector-curvature="0"
         style="fill:#4587f4" />
      <path
         id="path3015"
         d="m 523.57,124.53 c 11.11,-5.43 24.69,-5.44 35.84,-0.07 9.44,4.49 17.13,12.63 20.84,22.43 4.19,10.56 3.72,22.84 -1.22,33.07 -5.85,12.49 -18.36,21.59 -32.07,23.25 -11.07,1.51 -22.68,-1.73 -31.36,-8.77 -8.84,-6.99 -14.49,-17.72 -15.45,-28.93 -9.43,-0.08 -18.86,0.01 -28.29,-0.04 0.14,-2.31 0.14,-4.63 0,-6.93 9.44,-0.07 18.87,0.05 28.3,-0.07 1.12,-14.4 10.34,-27.78 23.41,-33.94 z"
         inkscape:connector-curvature="0"
         style="fill:#9c9b9b" />
      <path
         id="path3017"
         d="m 783,168.02 c 14.31,-4.87 29.66,-4.15 44.55,-5.04 0.04,10.11 0.66,20.88 -4.36,30.06 -4.81,9.37 -14.71,15.33 -25.01,16.6 -8.15,0.98 -17.47,0.83 -24.06,-4.76 -6.49,-5.5 -7.6,-15.08 -5.54,-22.9 1.77,-6.93 7.83,-11.82 14.42,-13.96 z"
         inkscape:connector-curvature="0"
         style="fill:#fffffe" />
      <path
         id="path3019"
         d="m 0,163.92 c 0.64,6.18 2.06,12.37 5.11,17.83 6.44,12.13 19.25,20.63 32.97,21.65 11.19,1.05 22.69,-2.78 31.08,-10.25 8.04,-6.96 12.94,-17.15 13.96,-27.69 9.41,0.03 18.82,0.03 28.23,0.01 1.07,13.84 9.58,26.82 21.9,33.23 11.34,6.18 25.55,6.4 37.22,0.95 9.3,16.18 18.67,32.32 27.97,48.51 -9.73,6.85 -16.47,17.93 -17.54,29.83 -1.37,12.17 3.02,24.81 11.67,33.48 7.52,7.78 18.14,12.08 28.88,12.53 L 0,324 0,163.92 z"
         inkscape:connector-curvature="0"
         style="fill:#fffffe" />
      <path
         id="path3021"
         d="m 190.37,179.73 c 32.96,19.01 65.92,38.03 98.84,57.11 1.05,0.36 2.26,1.63 3.38,0.75 33.46,-19.22 66.82,-38.62 100.28,-57.85 1.03,2.06 2.18,4.07 3.47,5.99 -32.54,18.88 -65.22,37.51 -97.67,56.53 9.42,5.44 18.82,10.91 28.26,16.3 -1.3,1.93 -2.45,3.96 -3.49,6.03 -10.2,-5.84 -20.36,-11.78 -30.56,-17.63 -1.1,-0.96 -2.37,-0.1 -3.41,0.46 -9.88,5.76 -19.77,11.47 -29.68,17.16 -1.06,-2.07 -2.22,-4.1 -3.52,-6.03 9.49,-5.38 18.91,-10.87 28.35,-16.34 -32.56,-18.86 -65.17,-37.64 -97.74,-56.48 1.29,-1.92 2.43,-3.94 3.49,-6 z"
         inkscape:connector-curvature="0"
         style="fill:#9c9b9b" />
      <path
         id="path3023"
         d="m 176.5,196.13 c 4.01,-2.86 7.54,-6.37 10.38,-10.4 32.57,18.84 65.18,37.62 97.74,56.48 -9.44,5.47 -18.86,10.96 -28.35,16.34 -6.5,-9.29 -16.85,-15.83 -28.13,-17.34 -8,-1.21 -16.28,0.1 -23.63,3.46 -9.39,-16.15 -18.71,-32.34 -28.01,-48.54 z"
         inkscape:connector-curvature="0"
         style="fill:#fffffe" />
      <path
         id="path3025"
         d="m 298.67,242.26 c 32.45,-19.02 65.13,-37.65 97.67,-56.53 2.88,4.02 6.42,7.55 10.43,10.45 -9.4,16.13 -18.69,32.33 -28.02,48.5 -9.11,-4.2 -19.73,-5.13 -29.37,-2.24 -9.06,2.56 -17.03,8.45 -22.45,16.12 -9.44,-5.39 -18.84,-10.86 -28.26,-16.3 z"
         inkscape:connector-curvature="0"
         style="fill:#fffffe" />
      <path
         id="path3027"
         d="m 170.47,199.65 c 2.07,-1.05 4.1,-2.22 6.03,-3.52 9.3,16.2 18.62,32.39 28.01,48.54 -2.09,1.03 -4.12,2.2 -6.07,3.49 -9.3,-16.19 -18.67,-32.33 -27.97,-48.51 z"
         inkscape:connector-curvature="0"
         style="fill:#9c9b9b" />
      <path
         id="path3029"
         d="m 378.75,244.68 c 9.33,-16.17 18.62,-32.37 28.02,-48.5 1.94,1.26 3.94,2.45 6.02,3.49 -9.38,16.13 -18.66,32.34 -28.01,48.49 -1.93,-1.29 -3.96,-2.44 -6.03,-3.48 z"
         inkscape:connector-curvature="0"
         style="fill:#9c9b9b" />
      <path
         id="path3031"
         d="m 204.51,244.67 c 7.35,-3.36 15.63,-4.67 23.63,-3.46 11.28,1.51 21.63,8.05 28.13,17.34 1.3,1.93 2.46,3.96 3.52,6.03 5.34,11.42 5.24,25.25 -0.54,36.49 -6.73,13.68 -21.41,22.64 -36.6,22.93 l -1.2,0 c -10.74,-0.45 -21.36,-4.75 -28.88,-12.53 -8.65,-8.67 -13.04,-21.31 -11.67,-33.48 1.07,-11.9 7.81,-22.98 17.54,-29.83 1.95,-1.29 3.98,-2.46 6.07,-3.49 z"
         inkscape:connector-curvature="0"
         style="fill:#db4538" />
      <path
         id="path3033"
         d="m 349.38,242.44 c 9.64,-2.89 20.26,-1.96 29.37,2.24 2.07,1.04 4.1,2.19 6.03,3.48 9.48,6.67 16.12,17.35 17.44,28.91 1.71,12.71 -2.89,26.07 -12.14,34.96 -7.36,7.37 -17.57,11.38 -27.88,11.97 l -1.83,0 c -11.93,-0.43 -23.69,-5.8 -31.26,-15.12 -10.27,-12.02 -12.49,-30.05 -5.67,-44.29 1.04,-2.07 2.19,-4.1 3.49,-6.03 5.42,-7.67 13.39,-13.56 22.45,-16.12 z"
         inkscape:connector-curvature="0"
         style="fill:#f4b503" />
      <path
         id="path3035"
         d="m 289.47,247.42 c 1.04,-0.56 2.31,-1.42 3.41,-0.46 10.2,5.85 20.36,11.79 30.56,17.63 -6.82,14.24 -4.6,32.27 5.67,44.29 7.57,9.32 19.33,14.69 31.26,15.12 l -137.72,0 c 15.19,-0.29 29.87,-9.25 36.6,-22.93 5.78,-11.24 5.88,-25.07 0.54,-36.49 9.91,-5.69 19.8,-11.4 29.68,-17.16 z"
         inkscape:connector-curvature="0"
         style="fill:#fffffe" />
    </g>
  </g>
</svg>
