<?xml version="1.0" encoding="UTF-8" standalone="no"?>
<!-- Created with Inkscape (http://www.inkscape.org/) -->

<svg
   xmlns:dc="http://purl.org/dc/elements/1.1/"
   xmlns:cc="http://creativecommons.org/ns#"
   xmlns:rdf="http://www.w3.org/1999/02/22-rdf-syntax-ns#"
   xmlns:svg="http://www.w3.org/2000/svg"
   xmlns="http://www.w3.org/2000/svg"
   xmlns:sodipodi="http://sodipodi.sourceforge.net/DTD/sodipodi-0.dtd"
   xmlns:inkscape="http://www.inkscape.org/namespaces/inkscape"
   width="128"
   height="128"
   viewBox="0 0 128 128"
   id="svg2"
   version="1.1"
   inkscape:version="0.91 r13725"
   sodipodi:docname="code.svg">
  <defs
     id="defs4" />
  <sodipodi:namedview
     id="base"
     pagecolor="#ffffff"
     bordercolor="#666666"
     borderopacity="1.0"
     inkscape:pageopacity="0.0"
     inkscape:pageshadow="2"
     inkscape:zoom="0.98994949"
     inkscape:cx="-43.641942"
     inkscape:cy="249.9078"
     inkscape:document-units="px"
     inkscape:current-layer="layer1"
     showgrid="false"
     units="px"
     inkscape:window-width="1920"
     inkscape:window-height="1017"
     inkscape:window-x="-8"
     inkscape:window-y="-8"
     inkscape:window-maximized="1" />
  <metadata
     id="metadata7">
    <rdf:RDF>
      <cc:Work
         rdf:about="">
        <dc:format>image/svg+xml</dc:format>
        <dc:type
           rdf:resource="http://purl.org/dc/dcmitype/StillImage" />
        <dc:title></dc:title>
      </cc:Work>
    </rdf:RDF>
  </metadata>
  <g
     inkscape:label="Capa 1"
     inkscape:groupmode="layer"
     id="layer1"
     transform="translate(0,-924.36211)">
    <g
       id="g4818"
       transform="matrix(3.5406867,0,0,4.0610684,5.6182227,920.76007)">
      <rect
         id="rect4138"
         style="fill:#ffffff"
         height="33"
         width="33"
         y="0"
         x="0" />
      <rect
         id="rect4140"
         style="fill:#000000"
         height="1"
         width="1"
         y="4"
         x="4" />
      <rect
         id="rect4142"
         style="fill:#000000"
         height="1"
         width="1"
         y="4"
         x="5" />
      <rect
         id="rect4144"
         style="fill:#000000"
         height="1"
         width="1"
         y="4"
         x="6" />
      <rect
         id="rect4146"
         style="fill:#000000"
         height="1"
         width="1"
         y="4"
         x="7" />
      <rect
         id="rect4148"
         style="fill:#000000"
         height="1"
         width="1"
         y="4"
         x="8" />
      <rect
         id="rect4150"
         style="fill:#000000"
         height="1"
         width="1"
         y="4"
         x="9" />
      <rect
         id="rect4152"
         style="fill:#000000"
         height="1"
         width="1"
         y="4"
         x="10" />
      <rect
         id="rect4154"
         style="fill:#000000"
         height="1"
         width="1"
         y="4"
         x="13" />
      <rect
         id="rect4156"
         style="fill:#000000"
         height="1"
         width="1"
         y="4"
         x="17" />
      <rect
         id="rect4158"
         style="fill:#000000"
         height="1"
         width="1"
         y="4"
         x="20" />
      <rect
         id="rect4160"
         style="fill:#000000"
         height="1"
         width="1"
         y="4"
         x="22" />
      <rect
         id="rect4162"
         style="fill:#000000"
         height="1"
         width="1"
         y="4"
         x="23" />
      <rect
         id="rect4164"
         style="fill:#000000"
         height="1"
         width="1"
         y="4"
         x="24" />
      <rect
         id="rect4166"
         style="fill:#000000"
         height="1"
         width="1"
         y="4"
         x="25" />
      <rect
         id="rect4168"
         style="fill:#000000"
         height="1"
         width="1"
         y="4"
         x="26" />
      <rect
         id="rect4170"
         style="fill:#000000"
         height="1"
         width="1"
         y="4"
         x="27" />
      <rect
         id="rect4172"
         style="fill:#000000"
         height="1"
         width="1"
         y="4"
         x="28" />
      <rect
         id="rect4174"
         style="fill:#000000"
         height="1"
         width="1"
         y="5"
         x="4" />
      <rect
         id="rect4176"
         style="fill:#000000"
         height="1"
         width="1"
         y="5"
         x="10" />
      <rect
         id="rect4178"
         style="fill:#000000"
         height="1"
         width="1"
         y="5"
         x="12" />
      <rect
         id="rect4180"
         style="fill:#000000"
         height="1"
         width="1"
         y="5"
         x="13" />
      <rect
         id="rect4182"
         style="fill:#000000"
         height="1"
         width="1"
         y="5"
         x="15" />
      <rect
         id="rect4184"
         style="fill:#000000"
         height="1"
         width="1"
         y="5"
         x="16" />
      <rect
         id="rect4186"
         style="fill:#000000"
         height="1"
         width="1"
         y="5"
         x="18" />
      <rect
         id="rect4188"
         style="fill:#000000"
         height="1"
         width="1"
         y="5"
         x="19" />
      <rect
         id="rect4190"
         style="fill:#000000"
         height="1"
         width="1"
         y="5"
         x="20" />
      <rect
         id="rect4192"
         style="fill:#000000"
         height="1"
         width="1"
         y="5"
         x="22" />
      <rect
         id="rect4194"
         style="fill:#000000"
         height="1"
         width="1"
         y="5"
         x="28" />
      <rect
         id="rect4196"
         style="fill:#000000"
         height="1"
         width="1"
         y="6"
         x="4" />
      <rect
         id="rect4198"
         style="fill:#000000"
         height="1"
         width="1"
         y="6"
         x="6" />
      <rect
         id="rect4200"
         style="fill:#000000"
         height="1"
         width="1"
         y="6"
         x="7" />
      <rect
         id="rect4202"
         style="fill:#000000"
         height="1"
         width="1"
         y="6"
         x="8" />
      <rect
         id="rect4204"
         style="fill:#000000"
         height="1"
         width="1"
         y="6"
         x="10" />
      <rect
         id="rect4206"
         style="fill:#000000"
         height="1"
         width="1"
         y="6"
         x="13" />
      <rect
         id="rect4208"
         style="fill:#000000"
         height="1"
         width="1"
         y="6"
         x="14" />
      <rect
         id="rect4210"
         style="fill:#000000"
         height="1"
         width="1"
         y="6"
         x="15" />
      <rect
         id="rect4212"
         style="fill:#000000"
         height="1"
         width="1"
         y="6"
         x="18" />
      <rect
         id="rect4214"
         style="fill:#000000"
         height="1"
         width="1"
         y="6"
         x="19" />
      <rect
         id="rect4216"
         style="fill:#000000"
         height="1"
         width="1"
         y="6"
         x="20" />
      <rect
         id="rect4218"
         style="fill:#000000"
         height="1"
         width="1"
         y="6"
         x="22" />
      <rect
         id="rect4220"
         style="fill:#000000"
         height="1"
         width="1"
         y="6"
         x="24" />
      <rect
         id="rect4222"
         style="fill:#000000"
         height="1"
         width="1"
         y="6"
         x="25" />
      <rect
         id="rect4224"
         style="fill:#000000"
         height="1"
         width="1"
         y="6"
         x="26" />
      <rect
         id="rect4226"
         style="fill:#000000"
         height="1"
         width="1"
         y="6"
         x="28" />
      <rect
         id="rect4228"
         style="fill:#000000"
         height="1"
         width="1"
         y="7"
         x="4" />
      <rect
         id="rect4230"
         style="fill:#000000"
         height="1"
         width="1"
         y="7"
         x="6" />
      <rect
         id="rect4232"
         style="fill:#000000"
         height="1"
         width="1"
         y="7"
         x="7" />
      <rect
         id="rect4234"
         style="fill:#000000"
         height="1"
         width="1"
         y="7"
         x="8" />
      <rect
         id="rect4236"
         style="fill:#000000"
         height="1"
         width="1"
         y="7"
         x="10" />
      <rect
         id="rect4238"
         style="fill:#000000"
         height="1"
         width="1"
         y="7"
         x="12" />
      <rect
         id="rect4240"
         style="fill:#000000"
         height="1"
         width="1"
         y="7"
         x="13" />
      <rect
         id="rect4242"
         style="fill:#000000"
         height="1"
         width="1"
         y="7"
         x="15" />
      <rect
         id="rect4244"
         style="fill:#000000"
         height="1"
         width="1"
         y="7"
         x="17" />
      <rect
         id="rect4246"
         style="fill:#000000"
         height="1"
         width="1"
         y="7"
         x="18" />
      <rect
         id="rect4248"
         style="fill:#000000"
         height="1"
         width="1"
         y="7"
         x="19" />
      <rect
         id="rect4250"
         style="fill:#000000"
         height="1"
         width="1"
         y="7"
         x="22" />
      <rect
         id="rect4252"
         style="fill:#000000"
         height="1"
         width="1"
         y="7"
         x="24" />
      <rect
         id="rect4254"
         style="fill:#000000"
         height="1"
         width="1"
         y="7"
         x="25" />
      <rect
         id="rect4256"
         style="fill:#000000"
         height="1"
         width="1"
         y="7"
         x="26" />
      <rect
         id="rect4258"
         style="fill:#000000"
         height="1"
         width="1"
         y="7"
         x="28" />
      <rect
         id="rect4260"
         style="fill:#000000"
         height="1"
         width="1"
         y="8"
         x="4" />
      <rect
         id="rect4262"
         style="fill:#000000"
         height="1"
         width="1"
         y="8"
         x="6" />
      <rect
         id="rect4264"
         style="fill:#000000"
         height="1"
         width="1"
         y="8"
         x="7" />
      <rect
         id="rect4266"
         style="fill:#000000"
         height="1"
         width="1"
         y="8"
         x="8" />
      <rect
         id="rect4268"
         style="fill:#000000"
         height="1"
         width="1"
         y="8"
         x="10" />
      <rect
         id="rect4270"
         style="fill:#000000"
         height="1"
         width="1"
         y="8"
         x="14" />
      <rect
         id="rect4272"
         style="fill:#000000"
         height="1"
         width="1"
         y="8"
         x="16" />
      <rect
         id="rect4274"
         style="fill:#000000"
         height="1"
         width="1"
         y="8"
         x="17" />
      <rect
         id="rect4276"
         style="fill:#000000"
         height="1"
         width="1"
         y="8"
         x="18" />
      <rect
         id="rect4278"
         style="fill:#000000"
         height="1"
         width="1"
         y="8"
         x="20" />
      <rect
         id="rect4280"
         style="fill:#000000"
         height="1"
         width="1"
         y="8"
         x="22" />
      <rect
         id="rect4282"
         style="fill:#000000"
         height="1"
         width="1"
         y="8"
         x="24" />
      <rect
         id="rect4284"
         style="fill:#000000"
         height="1"
         width="1"
         y="8"
         x="25" />
      <rect
         id="rect4286"
         style="fill:#000000"
         height="1"
         width="1"
         y="8"
         x="26" />
      <rect
         id="rect4288"
         style="fill:#000000"
         height="1"
         width="1"
         y="8"
         x="28" />
      <rect
         id="rect4290"
         style="fill:#000000"
         height="1"
         width="1"
         y="9"
         x="4" />
      <rect
         id="rect4292"
         style="fill:#000000"
         height="1"
         width="1"
         y="9"
         x="10" />
      <rect
         id="rect4294"
         style="fill:#000000"
         height="1"
         width="1"
         y="9"
         x="12" />
      <rect
         id="rect4296"
         style="fill:#000000"
         height="1"
         width="1"
         y="9"
         x="14" />
      <rect
         id="rect4298"
         style="fill:#000000"
         height="1"
         width="1"
         y="9"
         x="17" />
      <rect
         id="rect4300"
         style="fill:#000000"
         height="1"
         width="1"
         y="9"
         x="19" />
      <rect
         id="rect4302"
         style="fill:#000000"
         height="1"
         width="1"
         y="9"
         x="20" />
      <rect
         id="rect4304"
         style="fill:#000000"
         height="1"
         width="1"
         y="9"
         x="22" />
      <rect
         id="rect4306"
         style="fill:#000000"
         height="1"
         width="1"
         y="9"
         x="28" />
      <rect
         id="rect4308"
         style="fill:#000000"
         height="1"
         width="1"
         y="10"
         x="4" />
      <rect
         id="rect4310"
         style="fill:#000000"
         height="1"
         width="1"
         y="10"
         x="5" />
      <rect
         id="rect4312"
         style="fill:#000000"
         height="1"
         width="1"
         y="10"
         x="6" />
      <rect
         id="rect4314"
         style="fill:#000000"
         height="1"
         width="1"
         y="10"
         x="7" />
      <rect
         id="rect4316"
         style="fill:#000000"
         height="1"
         width="1"
         y="10"
         x="8" />
      <rect
         id="rect4318"
         style="fill:#000000"
         height="1"
         width="1"
         y="10"
         x="9" />
      <rect
         id="rect4320"
         style="fill:#000000"
         height="1"
         width="1"
         y="10"
         x="10" />
      <rect
         id="rect4322"
         style="fill:#000000"
         height="1"
         width="1"
         y="10"
         x="12" />
      <rect
         id="rect4324"
         style="fill:#000000"
         height="1"
         width="1"
         y="10"
         x="14" />
      <rect
         id="rect4326"
         style="fill:#000000"
         height="1"
         width="1"
         y="10"
         x="16" />
      <rect
         id="rect4328"
         style="fill:#000000"
         height="1"
         width="1"
         y="10"
         x="18" />
      <rect
         id="rect4330"
         style="fill:#000000"
         height="1"
         width="1"
         y="10"
         x="20" />
      <rect
         id="rect4332"
         style="fill:#000000"
         height="1"
         width="1"
         y="10"
         x="22" />
      <rect
         id="rect4334"
         style="fill:#000000"
         height="1"
         width="1"
         y="10"
         x="23" />
      <rect
         id="rect4336"
         style="fill:#000000"
         height="1"
         width="1"
         y="10"
         x="24" />
      <rect
         id="rect4338"
         style="fill:#000000"
         height="1"
         width="1"
         y="10"
         x="25" />
      <rect
         id="rect4340"
         style="fill:#000000"
         height="1"
         width="1"
         y="10"
         x="26" />
      <rect
         id="rect4342"
         style="fill:#000000"
         height="1"
         width="1"
         y="10"
         x="27" />
      <rect
         id="rect4344"
         style="fill:#000000"
         height="1"
         width="1"
         y="10"
         x="28" />
      <rect
         id="rect4346"
         style="fill:#000000"
         height="1"
         width="1"
         y="11"
         x="16" />
      <rect
         id="rect4348"
         style="fill:#000000"
         height="1"
         width="1"
         y="11"
         x="19" />
      <rect
         id="rect4350"
         style="fill:#000000"
         height="1"
         width="1"
         y="12"
         x="4" />
      <rect
         id="rect4352"
         style="fill:#000000"
         height="1"
         width="1"
         y="12"
         x="5" />
      <rect
         id="rect4354"
         style="fill:#000000"
         height="1"
         width="1"
         y="12"
         x="6" />
      <rect
         id="rect4356"
         style="fill:#000000"
         height="1"
         width="1"
         y="12"
         x="7" />
      <rect
         id="rect4358"
         style="fill:#000000"
         height="1"
         width="1"
         y="12"
         x="8" />
      <rect
         id="rect4360"
         style="fill:#000000"
         height="1"
         width="1"
         y="12"
         x="10" />
      <rect
         id="rect4362"
         style="fill:#000000"
         height="1"
         width="1"
         y="12"
         x="11" />
      <rect
         id="rect4364"
         style="fill:#000000"
         height="1"
         width="1"
         y="12"
         x="12" />
      <rect
         id="rect4366"
         style="fill:#000000"
         height="1"
         width="1"
         y="12"
         x="13" />
      <rect
         id="rect4368"
         style="fill:#000000"
         height="1"
         width="1"
         y="12"
         x="14" />
      <rect
         id="rect4370"
         style="fill:#000000"
         height="1"
         width="1"
         y="12"
         x="16" />
      <rect
         id="rect4372"
         style="fill:#000000"
         height="1"
         width="1"
         y="12"
         x="18" />
      <rect
         id="rect4374"
         style="fill:#000000"
         height="1"
         width="1"
         y="12"
         x="19" />
      <rect
         id="rect4376"
         style="fill:#000000"
         height="1"
         width="1"
         y="12"
         x="21" />
      <rect
         id="rect4378"
         style="fill:#000000"
         height="1"
         width="1"
         y="12"
         x="23" />
      <rect
         id="rect4380"
         style="fill:#000000"
         height="1"
         width="1"
         y="12"
         x="25" />
      <rect
         id="rect4382"
         style="fill:#000000"
         height="1"
         width="1"
         y="12"
         x="27" />
      <rect
         id="rect4384"
         style="fill:#000000"
         height="1"
         width="1"
         y="13"
         x="5" />
      <rect
         id="rect4386"
         style="fill:#000000"
         height="1"
         width="1"
         y="13"
         x="6" />
      <rect
         id="rect4388"
         style="fill:#000000"
         height="1"
         width="1"
         y="13"
         x="7" />
      <rect
         id="rect4390"
         style="fill:#000000"
         height="1"
         width="1"
         y="13"
         x="8" />
      <rect
         id="rect4392"
         style="fill:#000000"
         height="1"
         width="1"
         y="13"
         x="9" />
      <rect
         id="rect4394"
         style="fill:#000000"
         height="1"
         width="1"
         y="13"
         x="12" />
      <rect
         id="rect4396"
         style="fill:#000000"
         height="1"
         width="1"
         y="13"
         x="13" />
      <rect
         id="rect4398"
         style="fill:#000000"
         height="1"
         width="1"
         y="13"
         x="17" />
      <rect
         id="rect4400"
         style="fill:#000000"
         height="1"
         width="1"
         y="13"
         x="20" />
      <rect
         id="rect4402"
         style="fill:#000000"
         height="1"
         width="1"
         y="13"
         x="21" />
      <rect
         id="rect4404"
         style="fill:#000000"
         height="1"
         width="1"
         y="13"
         x="23" />
      <rect
         id="rect4406"
         style="fill:#000000"
         height="1"
         width="1"
         y="13"
         x="27" />
      <rect
         id="rect4408"
         style="fill:#000000"
         height="1"
         width="1"
         y="14"
         x="4" />
      <rect
         id="rect4410"
         style="fill:#000000"
         height="1"
         width="1"
         y="14"
         x="8" />
      <rect
         id="rect4412"
         style="fill:#000000"
         height="1"
         width="1"
         y="14"
         x="9" />
      <rect
         id="rect4414"
         style="fill:#000000"
         height="1"
         width="1"
         y="14"
         x="10" />
      <rect
         id="rect4416"
         style="fill:#000000"
         height="1"
         width="1"
         y="14"
         x="11" />
      <rect
         id="rect4418"
         style="fill:#000000"
         height="1"
         width="1"
         y="14"
         x="12" />
      <rect
         id="rect4420"
         style="fill:#000000"
         height="1"
         width="1"
         y="14"
         x="13" />
      <rect
         id="rect4422"
         style="fill:#000000"
         height="1"
         width="1"
         y="14"
         x="15" />
      <rect
         id="rect4424"
         style="fill:#000000"
         height="1"
         width="1"
         y="14"
         x="16" />
      <rect
         id="rect4426"
         style="fill:#000000"
         height="1"
         width="1"
         y="14"
         x="19" />
      <rect
         id="rect4428"
         style="fill:#000000"
         height="1"
         width="1"
         y="14"
         x="22" />
      <rect
         id="rect4430"
         style="fill:#000000"
         height="1"
         width="1"
         y="14"
         x="23" />
      <rect
         id="rect4432"
         style="fill:#000000"
         height="1"
         width="1"
         y="14"
         x="25" />
      <rect
         id="rect4434"
         style="fill:#000000"
         height="1"
         width="1"
         y="14"
         x="27" />
      <rect
         id="rect4436"
         style="fill:#000000"
         height="1"
         width="1"
         y="14"
         x="28" />
      <rect
         id="rect4438"
         style="fill:#000000"
         height="1"
         width="1"
         y="15"
         x="4" />
      <rect
         id="rect4440"
         style="fill:#000000"
         height="1"
         width="1"
         y="15"
         x="12" />
      <rect
         id="rect4442"
         style="fill:#000000"
         height="1"
         width="1"
         y="15"
         x="13" />
      <rect
         id="rect4444"
         style="fill:#000000"
         height="1"
         width="1"
         y="15"
         x="14" />
      <rect
         id="rect4446"
         style="fill:#000000"
         height="1"
         width="1"
         y="15"
         x="15" />
      <rect
         id="rect4448"
         style="fill:#000000"
         height="1"
         width="1"
         y="15"
         x="23" />
      <rect
         id="rect4450"
         style="fill:#000000"
         height="1"
         width="1"
         y="15"
         x="24" />
      <rect
         id="rect4452"
         style="fill:#000000"
         height="1"
         width="1"
         y="15"
         x="28" />
      <rect
         id="rect4454"
         style="fill:#000000"
         height="1"
         width="1"
         y="16"
         x="4" />
      <rect
         id="rect4456"
         style="fill:#000000"
         height="1"
         width="1"
         y="16"
         x="5" />
      <rect
         id="rect4458"
         style="fill:#000000"
         height="1"
         width="1"
         y="16"
         x="6" />
      <rect
         id="rect4460"
         style="fill:#000000"
         height="1"
         width="1"
         y="16"
         x="9" />
      <rect
         id="rect4462"
         style="fill:#000000"
         height="1"
         width="1"
         y="16"
         x="10" />
      <rect
         id="rect4464"
         style="fill:#000000"
         height="1"
         width="1"
         y="16"
         x="13" />
      <rect
         id="rect4466"
         style="fill:#000000"
         height="1"
         width="1"
         y="16"
         x="15" />
      <rect
         id="rect4468"
         style="fill:#000000"
         height="1"
         width="1"
         y="16"
         x="19" />
      <rect
         id="rect4470"
         style="fill:#000000"
         height="1"
         width="1"
         y="16"
         x="22" />
      <rect
         id="rect4472"
         style="fill:#000000"
         height="1"
         width="1"
         y="16"
         x="24" />
      <rect
         id="rect4474"
         style="fill:#000000"
         height="1"
         width="1"
         y="16"
         x="26" />
      <rect
         id="rect4476"
         style="fill:#000000"
         height="1"
         width="1"
         y="16"
         x="27" />
      <rect
         id="rect4478"
         style="fill:#000000"
         height="1"
         width="1"
         y="16"
         x="28" />
      <rect
         id="rect4480"
         style="fill:#000000"
         height="1"
         width="1"
         y="17"
         x="4" />
      <rect
         id="rect4482"
         style="fill:#000000"
         height="1"
         width="1"
         y="17"
         x="5" />
      <rect
         id="rect4484"
         style="fill:#000000"
         height="1"
         width="1"
         y="17"
         x="6" />
      <rect
         id="rect4486"
         style="fill:#000000"
         height="1"
         width="1"
         y="17"
         x="7" />
      <rect
         id="rect4488"
         style="fill:#000000"
         height="1"
         width="1"
         y="17"
         x="9" />
      <rect
         id="rect4490"
         style="fill:#000000"
         height="1"
         width="1"
         y="17"
         x="12" />
      <rect
         id="rect4492"
         style="fill:#000000"
         height="1"
         width="1"
         y="17"
         x="13" />
      <rect
         id="rect4494"
         style="fill:#000000"
         height="1"
         width="1"
         y="17"
         x="14" />
      <rect
         id="rect4496"
         style="fill:#000000"
         height="1"
         width="1"
         y="17"
         x="16" />
      <rect
         id="rect4498"
         style="fill:#000000"
         height="1"
         width="1"
         y="17"
         x="17" />
      <rect
         id="rect4500"
         style="fill:#000000"
         height="1"
         width="1"
         y="17"
         x="20" />
      <rect
         id="rect4502"
         style="fill:#000000"
         height="1"
         width="1"
         y="17"
         x="25" />
      <rect
         id="rect4504"
         style="fill:#000000"
         height="1"
         width="1"
         y="17"
         x="27" />
      <rect
         id="rect4506"
         style="fill:#000000"
         height="1"
         width="1"
         y="18"
         x="4" />
      <rect
         id="rect4508"
         style="fill:#000000"
         height="1"
         width="1"
         y="18"
         x="8" />
      <rect
         id="rect4510"
         style="fill:#000000"
         height="1"
         width="1"
         y="18"
         x="10" />
      <rect
         id="rect4512"
         style="fill:#000000"
         height="1"
         width="1"
         y="18"
         x="17" />
      <rect
         id="rect4514"
         style="fill:#000000"
         height="1"
         width="1"
         y="18"
         x="18" />
      <rect
         id="rect4516"
         style="fill:#000000"
         height="1"
         width="1"
         y="18"
         x="19" />
      <rect
         id="rect4518"
         style="fill:#000000"
         height="1"
         width="1"
         y="18"
         x="20" />
      <rect
         id="rect4520"
         style="fill:#000000"
         height="1"
         width="1"
         y="18"
         x="21" />
      <rect
         id="rect4522"
         style="fill:#000000"
         height="1"
         width="1"
         y="18"
         x="23" />
      <rect
         id="rect4524"
         style="fill:#000000"
         height="1"
         width="1"
         y="18"
         x="25" />
      <rect
         id="rect4526"
         style="fill:#000000"
         height="1"
         width="1"
         y="18"
         x="27" />
      <rect
         id="rect4528"
         style="fill:#000000"
         height="1"
         width="1"
         y="18"
         x="28" />
      <rect
         id="rect4530"
         style="fill:#000000"
         height="1"
         width="1"
         y="19"
         x="4" />
      <rect
         id="rect4532"
         style="fill:#000000"
         height="1"
         width="1"
         y="19"
         x="6" />
      <rect
         id="rect4534"
         style="fill:#000000"
         height="1"
         width="1"
         y="19"
         x="9" />
      <rect
         id="rect4536"
         style="fill:#000000"
         height="1"
         width="1"
         y="19"
         x="14" />
      <rect
         id="rect4538"
         style="fill:#000000"
         height="1"
         width="1"
         y="19"
         x="16" />
      <rect
         id="rect4540"
         style="fill:#000000"
         height="1"
         width="1"
         y="19"
         x="17" />
      <rect
         id="rect4542"
         style="fill:#000000"
         height="1"
         width="1"
         y="19"
         x="20" />
      <rect
         id="rect4544"
         style="fill:#000000"
         height="1"
         width="1"
         y="19"
         x="25" />
      <rect
         id="rect4546"
         style="fill:#000000"
         height="1"
         width="1"
         y="19"
         x="28" />
      <rect
         id="rect4548"
         style="fill:#000000"
         height="1"
         width="1"
         y="20"
         x="4" />
      <rect
         id="rect4550"
         style="fill:#000000"
         height="1"
         width="1"
         y="20"
         x="6" />
      <rect
         id="rect4552"
         style="fill:#000000"
         height="1"
         width="1"
         y="20"
         x="7" />
      <rect
         id="rect4554"
         style="fill:#000000"
         height="1"
         width="1"
         y="20"
         x="8" />
      <rect
         id="rect4556"
         style="fill:#000000"
         height="1"
         width="1"
         y="20"
         x="9" />
      <rect
         id="rect4558"
         style="fill:#000000"
         height="1"
         width="1"
         y="20"
         x="10" />
      <rect
         id="rect4560"
         style="fill:#000000"
         height="1"
         width="1"
         y="20"
         x="11" />
      <rect
         id="rect4562"
         style="fill:#000000"
         height="1"
         width="1"
         y="20"
         x="13" />
      <rect
         id="rect4564"
         style="fill:#000000"
         height="1"
         width="1"
         y="20"
         x="14" />
      <rect
         id="rect4566"
         style="fill:#000000"
         height="1"
         width="1"
         y="20"
         x="16" />
      <rect
         id="rect4568"
         style="fill:#000000"
         height="1"
         width="1"
         y="20"
         x="18" />
      <rect
         id="rect4570"
         style="fill:#000000"
         height="1"
         width="1"
         y="20"
         x="20" />
      <rect
         id="rect4572"
         style="fill:#000000"
         height="1"
         width="1"
         y="20"
         x="21" />
      <rect
         id="rect4574"
         style="fill:#000000"
         height="1"
         width="1"
         y="20"
         x="22" />
      <rect
         id="rect4576"
         style="fill:#000000"
         height="1"
         width="1"
         y="20"
         x="23" />
      <rect
         id="rect4578"
         style="fill:#000000"
         height="1"
         width="1"
         y="20"
         x="24" />
      <rect
         id="rect4580"
         style="fill:#000000"
         height="1"
         width="1"
         y="20"
         x="26" />
      <rect
         id="rect4582"
         style="fill:#000000"
         height="1"
         width="1"
         y="21"
         x="12" />
      <rect
         id="rect4584"
         style="fill:#000000"
         height="1"
         width="1"
         y="21"
         x="19" />
      <rect
         id="rect4586"
         style="fill:#000000"
         height="1"
         width="1"
         y="21"
         x="20" />
      <rect
         id="rect4588"
         style="fill:#000000"
         height="1"
         width="1"
         y="21"
         x="24" />
      <rect
         id="rect4590"
         style="fill:#000000"
         height="1"
         width="1"
         y="21"
         x="25" />
      <rect
         id="rect4592"
         style="fill:#000000"
         height="1"
         width="1"
         y="21"
         x="26" />
      <rect
         id="rect4594"
         style="fill:#000000"
         height="1"
         width="1"
         y="22"
         x="4" />
      <rect
         id="rect4596"
         style="fill:#000000"
         height="1"
         width="1"
         y="22"
         x="5" />
      <rect
         id="rect4598"
         style="fill:#000000"
         height="1"
         width="1"
         y="22"
         x="6" />
      <rect
         id="rect4600"
         style="fill:#000000"
         height="1"
         width="1"
         y="22"
         x="7" />
      <rect
         id="rect4602"
         style="fill:#000000"
         height="1"
         width="1"
         y="22"
         x="8" />
      <rect
         id="rect4604"
         style="fill:#000000"
         height="1"
         width="1"
         y="22"
         x="9" />
      <rect
         id="rect4606"
         style="fill:#000000"
         height="1"
         width="1"
         y="22"
         x="10" />
      <rect
         id="rect4608"
         style="fill:#000000"
         height="1"
         width="1"
         y="22"
         x="12" />
      <rect
         id="rect4610"
         style="fill:#000000"
         height="1"
         width="1"
         y="22"
         x="13" />
      <rect
         id="rect4612"
         style="fill:#000000"
         height="1"
         width="1"
         y="22"
         x="15" />
      <rect
         id="rect4614"
         style="fill:#000000"
         height="1"
         width="1"
         y="22"
         x="16" />
      <rect
         id="rect4616"
         style="fill:#000000"
         height="1"
         width="1"
         y="22"
         x="20" />
      <rect
         id="rect4618"
         style="fill:#000000"
         height="1"
         width="1"
         y="22"
         x="22" />
      <rect
         id="rect4620"
         style="fill:#000000"
         height="1"
         width="1"
         y="22"
         x="24" />
      <rect
         id="rect4622"
         style="fill:#000000"
         height="1"
         width="1"
         y="22"
         x="25" />
      <rect
         id="rect4624"
         style="fill:#000000"
         height="1"
         width="1"
         y="22"
         x="26" />
      <rect
         id="rect4626"
         style="fill:#000000"
         height="1"
         width="1"
         y="22"
         x="27" />
      <rect
         id="rect4628"
         style="fill:#000000"
         height="1"
         width="1"
         y="22"
         x="28" />
      <rect
         id="rect4630"
         style="fill:#000000"
         height="1"
         width="1"
         y="23"
         x="4" />
      <rect
         id="rect4632"
         style="fill:#000000"
         height="1"
         width="1"
         y="23"
         x="10" />
      <rect
         id="rect4634"
         style="fill:#000000"
         height="1"
         width="1"
         y="23"
         x="14" />
      <rect
         id="rect4636"
         style="fill:#000000"
         height="1"
         width="1"
         y="23"
         x="15" />
      <rect
         id="rect4638"
         style="fill:#000000"
         height="1"
         width="1"
         y="23"
         x="18" />
      <rect
         id="rect4640"
         style="fill:#000000"
         height="1"
         width="1"
         y="23"
         x="19" />
      <rect
         id="rect4642"
         style="fill:#000000"
         height="1"
         width="1"
         y="23"
         x="20" />
      <rect
         id="rect4644"
         style="fill:#000000"
         height="1"
         width="1"
         y="23"
         x="24" />
      <rect
         id="rect4646"
         style="fill:#000000"
         height="1"
         width="1"
         y="23"
         x="25" />
      <rect
         id="rect4648"
         style="fill:#000000"
         height="1"
         width="1"
         y="23"
         x="28" />
      <rect
         id="rect4650"
         style="fill:#000000"
         height="1"
         width="1"
         y="24"
         x="4" />
      <rect
         id="rect4652"
         style="fill:#000000"
         height="1"
         width="1"
         y="24"
         x="6" />
      <rect
         id="rect4654"
         style="fill:#000000"
         height="1"
         width="1"
         y="24"
         x="7" />
      <rect
         id="rect4656"
         style="fill:#000000"
         height="1"
         width="1"
         y="24"
         x="8" />
      <rect
         id="rect4658"
         style="fill:#000000"
         height="1"
         width="1"
         y="24"
         x="10" />
      <rect
         id="rect4660"
         style="fill:#000000"
         height="1"
         width="1"
         y="24"
         x="12" />
      <rect
         id="rect4662"
         style="fill:#000000"
         height="1"
         width="1"
         y="24"
         x="13" />
      <rect
         id="rect4664"
         style="fill:#000000"
         height="1"
         width="1"
         y="24"
         x="15" />
      <rect
         id="rect4666"
         style="fill:#000000"
         height="1"
         width="1"
         y="24"
         x="19" />
      <rect
         id="rect4668"
         style="fill:#000000"
         height="1"
         width="1"
         y="24"
         x="20" />
      <rect
         id="rect4670"
         style="fill:#000000"
         height="1"
         width="1"
         y="24"
         x="21" />
      <rect
         id="rect4672"
         style="fill:#000000"
         height="1"
         width="1"
         y="24"
         x="22" />
      <rect
         id="rect4674"
         style="fill:#000000"
         height="1"
         width="1"
         y="24"
         x="23" />
      <rect
         id="rect4676"
         style="fill:#000000"
         height="1"
         width="1"
         y="24"
         x="24" />
      <rect
         id="rect4678"
         style="fill:#000000"
         height="1"
         width="1"
         y="24"
         x="25" />
      <rect
         id="rect4680"
         style="fill:#000000"
         height="1"
         width="1"
         y="24"
         x="26" />
      <rect
         id="rect4682"
         style="fill:#000000"
         height="1"
         width="1"
         y="24"
         x="27" />
      <rect
         id="rect4684"
         style="fill:#000000"
         height="1"
         width="1"
         y="24"
         x="28" />
      <rect
         id="rect4686"
         style="fill:#000000"
         height="1"
         width="1"
         y="25"
         x="4" />
      <rect
         id="rect4688"
         style="fill:#000000"
         height="1"
         width="1"
         y="25"
         x="6" />
      <rect
         id="rect4690"
         style="fill:#000000"
         height="1"
         width="1"
         y="25"
         x="7" />
      <rect
         id="rect4692"
         style="fill:#000000"
         height="1"
         width="1"
         y="25"
         x="8" />
      <rect
         id="rect4694"
         style="fill:#000000"
         height="1"
         width="1"
         y="25"
         x="10" />
      <rect
         id="rect4696"
         style="fill:#000000"
         height="1"
         width="1"
         y="25"
         x="12" />
      <rect
         id="rect4698"
         style="fill:#000000"
         height="1"
         width="1"
         y="25"
         x="16" />
      <rect
         id="rect4700"
         style="fill:#000000"
         height="1"
         width="1"
         y="25"
         x="17" />
      <rect
         id="rect4702"
         style="fill:#000000"
         height="1"
         width="1"
         y="25"
         x="18" />
      <rect
         id="rect4704"
         style="fill:#000000"
         height="1"
         width="1"
         y="25"
         x="20" />
      <rect
         id="rect4706"
         style="fill:#000000"
         height="1"
         width="1"
         y="25"
         x="21" />
      <rect
         id="rect4708"
         style="fill:#000000"
         height="1"
         width="1"
         y="25"
         x="22" />
      <rect
         id="rect4710"
         style="fill:#000000"
         height="1"
         width="1"
         y="25"
         x="23" />
      <rect
         id="rect4712"
         style="fill:#000000"
         height="1"
         width="1"
         y="25"
         x="24" />
      <rect
         id="rect4714"
         style="fill:#000000"
         height="1"
         width="1"
         y="25"
         x="26" />
      <rect
         id="rect4716"
         style="fill:#000000"
         height="1"
         width="1"
         y="25"
         x="27" />
      <rect
         id="rect4718"
         style="fill:#000000"
         height="1"
         width="1"
         y="25"
         x="28" />
      <rect
         id="rect4720"
         style="fill:#000000"
         height="1"
         width="1"
         y="26"
         x="4" />
      <rect
         id="rect4722"
         style="fill:#000000"
         height="1"
         width="1"
         y="26"
         x="6" />
      <rect
         id="rect4724"
         style="fill:#000000"
         height="1"
         width="1"
         y="26"
         x="7" />
      <rect
         id="rect4726"
         style="fill:#000000"
         height="1"
         width="1"
         y="26"
         x="8" />
      <rect
         id="rect4728"
         style="fill:#000000"
         height="1"
         width="1"
         y="26"
         x="10" />
      <rect
         id="rect4730"
         style="fill:#000000"
         height="1"
         width="1"
         y="26"
         x="12" />
      <rect
         id="rect4732"
         style="fill:#000000"
         height="1"
         width="1"
         y="26"
         x="14" />
      <rect
         id="rect4734"
         style="fill:#000000"
         height="1"
         width="1"
         y="26"
         x="17" />
      <rect
         id="rect4736"
         style="fill:#000000"
         height="1"
         width="1"
         y="26"
         x="18" />
      <rect
         id="rect4738"
         style="fill:#000000"
         height="1"
         width="1"
         y="26"
         x="20" />
      <rect
         id="rect4740"
         style="fill:#000000"
         height="1"
         width="1"
         y="26"
         x="21" />
      <rect
         id="rect4742"
         style="fill:#000000"
         height="1"
         width="1"
         y="26"
         x="23" />
      <rect
         id="rect4744"
         style="fill:#000000"
         height="1"
         width="1"
         y="26"
         x="26" />
      <rect
         id="rect4746"
         style="fill:#000000"
         height="1"
         width="1"
         y="26"
         x="28" />
      <rect
         id="rect4748"
         style="fill:#000000"
         height="1"
         width="1"
         y="27"
         x="4" />
      <rect
         id="rect4750"
         style="fill:#000000"
         height="1"
         width="1"
         y="27"
         x="10" />
      <rect
         id="rect4752"
         style="fill:#000000"
         height="1"
         width="1"
         y="27"
         x="12" />
      <rect
         id="rect4754"
         style="fill:#000000"
         height="1"
         width="1"
         y="27"
         x="14" />
      <rect
         id="rect4756"
         style="fill:#000000"
         height="1"
         width="1"
         y="27"
         x="16" />
      <rect
         id="rect4758"
         style="fill:#000000"
         height="1"
         width="1"
         y="27"
         x="17" />
      <rect
         id="rect4760"
         style="fill:#000000"
         height="1"
         width="1"
         y="27"
         x="19" />
      <rect
         id="rect4762"
         style="fill:#000000"
         height="1"
         width="1"
         y="27"
         x="20" />
      <rect
         id="rect4764"
         style="fill:#000000"
         height="1"
         width="1"
         y="27"
         x="21" />
      <rect
         id="rect4766"
         style="fill:#000000"
         height="1"
         width="1"
         y="27"
         x="22" />
      <rect
         id="rect4768"
         style="fill:#000000"
         height="1"
         width="1"
         y="27"
         x="23" />
      <rect
         id="rect4770"
         style="fill:#000000"
         height="1"
         width="1"
         y="27"
         x="24" />
      <rect
         id="rect4772"
         style="fill:#000000"
         height="1"
         width="1"
         y="27"
         x="25" />
      <rect
         id="rect4774"
         style="fill:#000000"
         height="1"
         width="1"
         y="27"
         x="28" />
      <rect
         id="rect4776"
         style="fill:#000000"
         height="1"
         width="1"
         y="28"
         x="4" />
      <rect
         id="rect4778"
         style="fill:#000000"
         height="1"
         width="1"
         y="28"
         x="5" />
      <rect
         id="rect4780"
         style="fill:#000000"
         height="1"
         width="1"
         y="28"
         x="6" />
      <rect
         id="rect4782"
         style="fill:#000000"
         height="1"
         width="1"
         y="28"
         x="7" />
      <rect
         id="rect4784"
         style="fill:#000000"
         height="1"
         width="1"
         y="28"
         x="8" />
      <rect
         id="rect4786"
         style="fill:#000000"
         height="1"
         width="1"
         y="28"
         x="9" />
      <rect
         id="rect4788"
         style="fill:#000000"
         height="1"
         width="1"
         y="28"
         x="10" />
      <rect
         id="rect4790"
         style="fill:#000000"
         height="1"
         width="1"
         y="28"
         x="12" />
      <rect
         id="rect4792"
         style="fill:#000000"
         height="1"
         width="1"
         y="28"
         x="13" />
      <rect
         id="rect4794"
         style="fill:#000000"
         height="1"
         width="1"
         y="28"
         x="16" />
      <rect
         id="rect4796"
         style="fill:#000000"
         height="1"
         width="1"
         y="28"
         x="18" />
      <rect
         id="rect4798"
         style="fill:#000000"
         height="1"
         width="1"
         y="28"
         x="22" />
      <rect
         id="rect4800"
         style="fill:#000000"
         height="1"
         width="1"
         y="28"
         x="23" />
      <rect
         id="rect4802"
         style="fill:#000000"
         height="1"
         width="1"
         y="28"
         x="24" />
      <rect
         id="rect4804"
         style="fill:#000000"
         height="1"
         width="1"
         y="28"
         x="25" />
      <rect
         id="rect4806"
         style="fill:#000000"
         height="1"
         width="1"
         y="28"
         x="26" />
      <rect
         id="rect4808"
         style="fill:#000000"
         height="1"
         width="1"
         y="28"
         x="27" />
      <rect
         id="rect4810"
         style="fill:#000000"
         height="1"
         width="1"
         y="28"
         x="28" />
    </g>
  </g>
</svg>
