<?xml version="1.0" encoding="UTF-8" standalone="no"?>
<!-- Created with Inkscape (http://www.inkscape.org/) -->

<svg
   xmlns:dc="http://purl.org/dc/elements/1.1/"
   xmlns:cc="http://creativecommons.org/ns#"
   xmlns:rdf="http://www.w3.org/1999/02/22-rdf-syntax-ns#"
   xmlns:svg="http://www.w3.org/2000/svg"
   xmlns="http://www.w3.org/2000/svg"
   xmlns:sodipodi="http://sodipodi.sourceforge.net/DTD/sodipodi-0.dtd"
   xmlns:inkscape="http://www.inkscape.org/namespaces/inkscape"
   width="128"
   height="128"
   viewBox="0 0 128 128"
   id="svg2"
   version="1.1"
   inkscape:version="0.91 r13725"
   sodipodi:docname="cycle.svg">
  <defs
     id="defs4">
    <linearGradient
       id="linearGradient-1"
       y2="0.90744013"
       x2="221.38828"
       y1="254.94206"
       x1="74.708405"
       gradientTransform="scale(0.99995605,1.0000439)"
       gradientUnits="userSpaceOnUse">
      <stop
         id="stop4141"
         offset="41.47%"
         stop-color="#51D3D9" />
      <stop
         id="stop4143"
         offset="100%"
         stop-color="#C8FF8C" />
    </linearGradient>
    <linearGradient
       id="linearGradient-2"
       y2="130.62473"
       x2="278.36017"
       y1="191.61684"
       x1="235.58595"
       gradientTransform="scale(0.90733069,1.102134)"
       gradientUnits="userSpaceOnUse">
      <stop
         id="stop4146"
         offset="41.47%"
         stop-color="#51D3D9" />
      <stop
         id="stop4148"
         offset="100%"
         stop-color="#5A919B" />
    </linearGradient>
  </defs>
  <sodipodi:namedview
     id="base"
     pagecolor="#ffffff"
     bordercolor="#666666"
     borderopacity="1.0"
     inkscape:pageopacity="0.0"
     inkscape:pageshadow="2"
     inkscape:zoom="0.98994949"
     inkscape:cx="-56.612928"
     inkscape:cy="302.92383"
     inkscape:document-units="px"
     inkscape:current-layer="layer1"
     showgrid="false"
     units="px"
     inkscape:window-width="1920"
     inkscape:window-height="1017"
     inkscape:window-x="-8"
     inkscape:window-y="-8"
     inkscape:window-maximized="1" />
  <metadata
     id="metadata7">
    <rdf:RDF>
      <cc:Work
         rdf:about="">
        <dc:format>image/svg+xml</dc:format>
        <dc:type
           rdf:resource="http://purl.org/dc/dcmitype/StillImage" />
        <dc:title></dc:title>
      </cc:Work>
    </rdf:RDF>
  </metadata>
  <g
     inkscape:label="Capa 1"
     inkscape:groupmode="layer"
     id="layer1"
     transform="translate(0,-924.36216)">
    <g
       id="g4150"
       transform="matrix(0.47123718,0,0,0.43178919,4.6597744,931.91925)">
      <path
         id="path4152"
         d="m 255.96,198.32 c -0.12,2.6 -0.84,5.16 -2.16,7.48 l -24.24,42 c -2.92,5.08 -8.32,8.2 -14.16,8.2 l -134.52,0 c -5.84,0 -11.24,-3.12 -14.16,-8.16 L 2.2,136.2 C 0.72,133.64 0,130.84 0,128 c 0,-2.84 0.56,-5.8 2.28,-8.68 L 66.76,8.16 C 69.68,3.12 75.08,0 80.88,0 L 215.4,0 c 5.84,0 11.24,3.12 14.16,8.16 0,0 23.32,38.2 25,40.92 1.68,2.72 1.4,6.16 1.4,8.96 0,2.4 -0.68,5.68 -1.32,8.28 -0.64,2.6 -20.16,81.72 -20.16,81.72 l -42.6,-90.6 -87.32,0 -40.88,70.56 40.88,70.56 87.28,0 64.12,-0.24 0,0 z"
         inkscape:connector-curvature="0"
         style="fill:url(#linearGradient-1)" />
      <path
         id="path4154"
         d="m 224.84,127.96 29.6,62.76 c 2.28,4.84 2.04,10.48 -0.64,15.12 l -61.92,-7.24 32.96,-70.64 0,0 z"
         inkscape:connector-curvature="0"
         style="fill:url(#linearGradient-2)" />
    </g>
  </g>
</svg>
