<?xml version="1.0" encoding="UTF-8" standalone="no"?>
<!-- Created with Inkscape (http://www.inkscape.org/) -->

<svg
   xmlns:dc="http://purl.org/dc/elements/1.1/"
   xmlns:cc="http://creativecommons.org/ns#"
   xmlns:rdf="http://www.w3.org/1999/02/22-rdf-syntax-ns#"
   xmlns:svg="http://www.w3.org/2000/svg"
   xmlns="http://www.w3.org/2000/svg"
   xmlns:sodipodi="http://sodipodi.sourceforge.net/DTD/sodipodi-0.dtd"
   xmlns:inkscape="http://www.inkscape.org/namespaces/inkscape"
   width="128"
   height="128"
   viewBox="0 0 128 128"
   id="svg2"
   version="1.1"
   inkscape:version="0.91 r13725"
   sodipodi:docname="go-kit.svg">
  <defs
     id="defs4" />
  <sodipodi:namedview
     id="base"
     pagecolor="#ffffff"
     bordercolor="#666666"
     borderopacity="1.0"
     inkscape:pageopacity="0.0"
     inkscape:pageshadow="2"
     inkscape:zoom="0.7"
     inkscape:cx="-207.94276"
     inkscape:cy="-254.56957"
     inkscape:document-units="px"
     inkscape:current-layer="layer1"
     showgrid="false"
     inkscape:window-width="1920"
     inkscape:window-height="1017"
     inkscape:window-x="-8"
     inkscape:window-y="-8"
     inkscape:window-maximized="1"
     units="px" />
  <metadata
     id="metadata7">
    <rdf:RDF>
      <cc:Work
         rdf:about="">
        <dc:format>image/svg+xml</dc:format>
        <dc:type
           rdf:resource="http://purl.org/dc/dcmitype/StillImage" />
        <dc:title></dc:title>
      </cc:Work>
    </rdf:RDF>
  </metadata>
  <g
     inkscape:label="Capa 1"
     inkscape:groupmode="layer"
     id="layer1"
     transform="translate(0,-924.36216)">
    <g
       transform="translate(0.89587872,-1.0670611)"
       id="layer1-1"
       inkscape:label="Capa 1"
       style="fill:#000000;fill-opacity:1">
      <g
         style="fill:#000000;fill-opacity:1;stroke:none"
         transform="matrix(0.12912728,0,0,-0.13015906,0.57758467,1054.1586)"
         id="g4140">
        <path
           inkscape:connector-curvature="0"
           d="M 381,925 C 253,890 145,859 143,856 140,854 109,742 73,609 L 8,367 186,189 365,10 610,76 c 135,36 246,66 246,67 1,1 31,111 67,244 L 987,629 806,810 C 707,909 623,990 620,989 617,989 510,960 381,925 Z M 788,788 951,626 944,585 c -9,-48 -7,-37 -27,-105 -9,-30 -18,-64 -20,-75 -1,-11 -5,-24 -9,-30 -3,-5 -9,-23 -12,-40 -18,-87 -20,-92 -30,-125 -9,-25 -41,-62 -48,-55 -4,4 -249,-59 -278,-71 -8,-4 -22,-8 -30,-9 -8,-1 -39,-8 -68,-15 L 369,46 210,205 C 66,348 27,401 50,415 c 4,3 11,19 14,37 3,18 9,44 12,58 3,14 6,30 7,35 2,6 5,15 8,20 6,9 19,72 20,92 1,5 5,13 11,20 5,7 7,17 4,22 -4,5 -2,12 3,15 7,5 21,61 25,101 1,13 45,27 233,76 84,22 163,43 175,49 50,20 62,12 226,-152 z"
           id="path4142"
           style="fill:#000000;fill-opacity:1" />
        <path
           inkscape:connector-curvature="0"
           d="M 350,813 C 256,767 209,712 175,607 153,541 149,514 153,463 c 9,-122 88,-233 205,-290 49,-24 69,-28 142,-28 74,0 93,4 145,30 76,38 134,95 171,171 25,51 29,70 29,144 0,70 -4,94 -25,135 -13,28 -24,53 -23,56 6,20 -85,102 -149,134 -64,32 -78,35 -150,34 -69,-1 -89,-6 -148,-36 z m 294,-27 c 53,-26 156,-126 156,-150 0,-6 -12,4 -26,21 -66,84 -211,59 -244,-43 -25,-74 19,-151 100,-175 33,-10 47,-9 85,5 60,23 89,65 89,129 0,32 3,43 7,31 4,-11 8,-55 8,-99 1,-68 -3,-89 -28,-140 C 698,168 449,114 290,257 223,317 189,386 180,475 c -4,39 -3,79 1,90 6,16 8,14 8,-13 2,-78 61,-132 145,-132 44,0 53,4 92,44 38,37 44,49 44,85 0,84 -56,141 -138,141 -52,0 -78,-12 -115,-54 -25,-27 -27,-28 -16,-6 18,38 76,106 112,132 90,65 228,75 331,24 z m 86,-111 c 36,-19 60,-62 60,-110 0,-26 -9,-45 -34,-73 -32,-34 -38,-37 -91,-37 -53,0 -59,3 -91,37 -26,28 -34,47 -34,74 0,96 102,154 190,109 z m -356,-9 c 108,-45 99,-195 -14,-226 -76,-20 -160,41 -160,116 0,40 31,87 71,107 42,20 60,21 103,3 z"
           id="path4144"
           style="fill:#000000;fill-opacity:1" />
        <path
           inkscape:connector-curvature="0"
           d="m 425,436 c -25,-25 -45,-51 -45,-58 0,-19 21,-38 41,-38 14,0 19,-10 21,-42 l 3,-43 58,-2 c 63,-1 79,11 70,57 -3,19 1,27 19,35 32,14 35,49 6,75 -13,11 -32,30 -43,40 -36,34 -79,26 -130,-24 z m 43,-27 c 23,-8 41,-8 67,1 41,13 65,2 65,-31 0,-17 -8,-19 -67,-18 -38,0 -81,-1 -98,-3 -33,-3 -46,21 -25,47 15,18 18,18 58,4 z m 32,-98 c 0,-24 -5,-41 -14,-44 -19,-7 -38,16 -31,37 3,9 7,23 10,31 2,8 11,15 20,15 11,0 15,-11 15,-39 z m 44,33 c 20,-8 22,-70 2,-77 -19,-8 -31,11 -35,51 -3,32 4,37 33,26 z"
           id="path4146"
           style="fill:#000000;fill-opacity:1" />
        <path
           inkscape:connector-curvature="0"
           d="m 562,598 c -28,-28 -7,-78 33,-78 12,0 26,5 33,12 28,28 7,78 -33,78 -12,0 -26,-5 -33,-12 z m 68,-43 c 0,-8 -7,-15 -15,-15 -8,0 -15,7 -15,15 0,8 7,15 15,15 8,0 15,-7 15,-15 z"
           id="path4148"
           style="fill:#000000;fill-opacity:1" />
        <path
           inkscape:connector-curvature="0"
           d="m 230,580 c -25,-25 -25,-32 -1,-61 19,-23 21,-23 48,-9 35,20 40,43 14,69 -26,26 -36,26 -61,1 z m 55,-50 c -5,-8 -11,-8 -17,-2 -6,6 -7,16 -3,22 5,8 11,8 17,2 6,-6 7,-16 3,-22 z"
           id="path4150"
           style="fill:#000000;fill-opacity:1" />
      </g>
    </g>
    <path
       style="fill:#d4ac20;fill-opacity:0;stroke:#fee526;stroke-width:2.85714293;stroke-opacity:0"
       d=""
       id="path4154"
       inkscape:connector-curvature="0" />
    <path
       style="fill:#d4ac20;fill-opacity:0;stroke:#fee526;stroke-width:0.71428573;stroke-opacity:0"
       d="M 32.390789,1029.6597 C 8.5277387,1005.0764 6.6587987,1002.7198 8.2959787,999.27747 c 0.48792,-1.0259 1.7654003,-5.5617 2.8388503,-10.07956 3.06908,-12.91698 4.93295,-20.1781 5.77556,-22.5 0.4277,-1.17857 1.04282,-3.26786 1.36694,-4.64286 0.32412,-1.375 1.06495,-4.26785 1.6463,-6.42857 0.58134,-2.16071 1.26384,-5.13585 1.51667,-6.61141 0.38292,-2.23486 0.90141,-2.87075 3.10508,-3.80817 1.45498,-0.61893 13.73469,-4.18191 27.28826,-7.91774 13.55358,-3.73583 25.19717,-6.95928 25.87465,-7.16323 2.6135,-0.78678 8.72448,4.28301 27.152091,22.52595 l 19.09816,18.90678 -0.44728,2.92677 c -0.4724,3.0911 -1.42816,6.86661 -5.26139,20.78391 -1.29845,4.71429 -3.1469,11.78566 -4.10768,15.71426 -3.1616,12.9276 -4.35631,16.3755 -6.62072,19.1072 -1.22122,1.4732 -2.85283,2.6785 -3.62578,2.6785 -1.7866,0 -25.124671,5.8486 -32.529641,8.152 -5.80157,1.8047 -20.42837,5.4195 -21.92915,5.4195 -0.46961,0 -8.14036,-7.5065 -17.04611,-16.6811 z m 51.6446,1.1753 c 11.00858,-5.5034 17.876451,-12.267 23.021071,-22.6715 4.73129,-9.56859 5.42076,-24.86339 1.53898,-34.13982 -1.02847,-2.45774 -2.51256,-6.23648 -3.298,-8.3972 -3.20299,-8.81131 -19.386161,-20.80317 -30.963801,-22.9444 -5.31788,-0.98353 -16.09866,-0.36296 -20.79201,1.19684 -5.90859,1.96367 -15.09572,7.52735 -19.27347,11.67191 -4.61199,4.57536 -9.24803,13.47421 -11.76124,22.57565 -5.1989,18.82752 3.1222,39.25552 20.36885,50.00492 8.86303,5.5241 11.1784,6.0916 24.01676,5.8869 l 11.13031,-0.1775 6.01255,-3.0058 z"
       id="path4156"
       inkscape:connector-curvature="0" />
    <path
       style="fill:#d4ac20;fill-opacity:0;stroke:#fee526;stroke-width:0.71428573;stroke-opacity:0"
       d="M 32.390789,1029.6597 C 8.5277387,1005.0764 6.6587987,1002.7198 8.2959787,999.27747 c 0.48792,-1.0259 1.7654003,-5.5617 2.8388503,-10.07956 3.06908,-12.91698 4.93295,-20.1781 5.77556,-22.5 0.4277,-1.17857 1.04282,-3.26786 1.36694,-4.64286 0.32412,-1.375 1.06495,-4.26785 1.6463,-6.42857 0.58134,-2.16071 1.26384,-5.13585 1.51667,-6.61141 0.38292,-2.23486 0.90141,-2.87075 3.10508,-3.80817 1.45498,-0.61893 13.73469,-4.18191 27.28826,-7.91774 13.55358,-3.73583 25.19717,-6.95928 25.87465,-7.16323 2.6135,-0.78678 8.72448,4.28301 27.152091,22.52595 l 19.09816,18.90678 -0.44728,2.92677 c -0.4724,3.0911 -1.42816,6.86661 -5.26139,20.78391 -1.29845,4.71429 -3.1469,11.78566 -4.10768,15.71426 -3.1616,12.9276 -4.35631,16.3755 -6.62072,19.1072 -1.22122,1.4732 -2.85283,2.6785 -3.62578,2.6785 -1.7866,0 -25.124671,5.8486 -32.529641,8.152 -5.80157,1.8047 -20.42837,5.4195 -21.92915,5.4195 -0.46961,0 -8.14036,-7.5065 -17.04611,-16.6811 z m 51.6446,1.1753 c 11.00858,-5.5034 17.876451,-12.267 23.021071,-22.6715 4.73129,-9.56859 5.42076,-24.86339 1.53898,-34.13982 -1.02847,-2.45774 -2.51256,-6.23648 -3.298,-8.3972 -3.20299,-8.81131 -19.386161,-20.80317 -30.963801,-22.9444 -5.31788,-0.98353 -16.09866,-0.36296 -20.79201,1.19684 -5.90859,1.96367 -15.09572,7.52735 -19.27347,11.67191 -4.61199,4.57536 -9.24803,13.47421 -11.76124,22.57565 -5.1989,18.82752 3.1222,39.25552 20.36885,50.00492 8.86303,5.5241 11.1784,6.0916 24.01676,5.8869 l 11.13031,-0.1775 6.01255,-3.0058 z"
       id="path4158"
       inkscape:connector-curvature="0" />
    <path
       style="fill:#d4ac20;fill-opacity:0;stroke:#fee526;stroke-width:0.71428573;stroke-opacity:0"
       d="M 32.390789,1029.6597 C 8.5277387,1005.0764 6.6587987,1002.7198 8.2959787,999.27747 c 0.48792,-1.0259 1.7654003,-5.5617 2.8388503,-10.07956 3.06908,-12.91698 4.93295,-20.1781 5.77556,-22.5 0.4277,-1.17857 1.04282,-3.26786 1.36694,-4.64286 0.32412,-1.375 1.06495,-4.26785 1.6463,-6.42857 0.58134,-2.16071 1.26384,-5.13585 1.51667,-6.61141 0.38292,-2.23486 0.90141,-2.87075 3.10508,-3.80817 1.45498,-0.61893 13.73469,-4.18191 27.28826,-7.91774 13.55358,-3.73583 25.19717,-6.95928 25.87465,-7.16323 2.6135,-0.78678 8.72448,4.28301 27.152091,22.52595 l 19.09816,18.90678 -0.44728,2.92677 c -0.4724,3.0911 -1.42816,6.86661 -5.26139,20.78391 -1.29845,4.71429 -3.1469,11.78566 -4.10768,15.71426 -3.1616,12.9276 -4.35631,16.3755 -6.62072,19.1072 -1.22122,1.4732 -2.85283,2.6785 -3.62578,2.6785 -1.7866,0 -25.124671,5.8486 -32.529641,8.152 -5.80157,1.8047 -20.42837,5.4195 -21.92915,5.4195 -0.46961,0 -8.14036,-7.5065 -17.04611,-16.6811 z m 51.6446,1.1753 c 11.00858,-5.5034 17.876451,-12.267 23.021071,-22.6715 4.73129,-9.56859 5.42076,-24.86339 1.53898,-34.13982 -1.02847,-2.45774 -2.51256,-6.23648 -3.298,-8.3972 -3.20299,-8.81131 -19.386161,-20.80317 -30.963801,-22.9444 -5.31788,-0.98353 -16.09866,-0.36296 -20.79201,1.19684 -5.90859,1.96367 -15.09572,7.52735 -19.27347,11.67191 -4.61199,4.57536 -9.24803,13.47421 -11.76124,22.57565 -5.1989,18.82752 3.1222,39.25552 20.36885,50.00492 8.86303,5.5241 11.1784,6.0916 24.01676,5.8869 l 11.13031,-0.1775 6.01255,-3.0058 z"
       id="path4160"
       inkscape:connector-curvature="0" />
    <path
       style="fill:#000000;fill-opacity:1;stroke:#000000;stroke-width:0.71428573;stroke-opacity:0"
       d="M 32.390789,1029.6597 C 8.5277387,1005.0764 6.6587987,1002.7198 8.2959787,999.27747 c 0.48792,-1.0259 1.7654003,-5.5617 2.8388503,-10.07956 3.06908,-12.91698 4.93295,-20.1781 5.77556,-22.5 0.4277,-1.17857 1.04282,-3.26786 1.36694,-4.64286 0.32412,-1.375 1.06495,-4.26785 1.6463,-6.42857 0.58134,-2.16071 1.26384,-5.13585 1.51667,-6.61141 0.38292,-2.23486 0.90141,-2.87075 3.10508,-3.80817 1.45498,-0.61893 13.73469,-4.18191 27.28826,-7.91774 13.55358,-3.73583 25.19717,-6.95928 25.87465,-7.16323 2.6135,-0.78678 8.72448,4.28301 27.152091,22.52595 l 19.09816,18.90678 -0.44728,2.92677 c -0.4724,3.0911 -1.42816,6.86661 -5.26139,20.78391 -1.29845,4.71429 -3.1469,11.78566 -4.10768,15.71426 -3.1616,12.9276 -4.35631,16.3755 -6.62072,19.1072 -1.22122,1.4732 -2.85283,2.6785 -3.62578,2.6785 -1.7866,0 -25.124671,5.8486 -32.529641,8.152 -5.80157,1.8047 -20.42837,5.4195 -21.92915,5.4195 -0.46961,0 -8.14036,-7.5065 -17.04611,-16.6811 z m 51.6446,1.1753 c 11.00858,-5.5034 17.876451,-12.267 23.021071,-22.6715 4.73129,-9.56859 5.42076,-24.86339 1.53898,-34.13982 -1.02847,-2.45774 -2.51256,-6.23648 -3.298,-8.3972 -3.20299,-8.81131 -19.386161,-20.80317 -30.963801,-22.9444 -5.31788,-0.98353 -16.09866,-0.36296 -20.79201,1.19684 -5.90859,1.96367 -15.09572,7.52735 -19.27347,11.67191 -4.61199,4.57536 -9.24803,13.47421 -11.76124,22.57565 -5.1989,18.82752 3.1222,39.25552 20.36885,50.00492 8.86303,5.5241 11.1784,6.0916 24.01676,5.8869 l 11.13031,-0.1775 6.01255,-3.0058 z"
       id="path4162"
       inkscape:connector-curvature="0" />
    <path
       style="fill:#000000;fill-opacity:1;stroke:#000000;stroke-width:0.71428573;stroke-opacity:0"
       d=""
       id="path4164"
       inkscape:connector-curvature="0" />
    <path
       style="fill:#000000;fill-opacity:1;stroke:#000000;stroke-width:0.71428573;stroke-opacity:0"
       d=""
       id="path4166"
       inkscape:connector-curvature="0" />
  </g>
</svg>
