<?xml version="1.0" encoding="UTF-8" standalone="no"?>
<!-- Created with Inkscape (http://www.inkscape.org/) -->

<svg
   xmlns:dc="http://purl.org/dc/elements/1.1/"
   xmlns:cc="http://creativecommons.org/ns#"
   xmlns:rdf="http://www.w3.org/1999/02/22-rdf-syntax-ns#"
   xmlns:svg="http://www.w3.org/2000/svg"
   xmlns="http://www.w3.org/2000/svg"
   xmlns:sodipodi="http://sodipodi.sourceforge.net/DTD/sodipodi-0.dtd"
   xmlns:inkscape="http://www.inkscape.org/namespaces/inkscape"
   width="128"
   height="128"
   id="svg2"
   version="1.1"
   inkscape:version="0.48.5 r10040"
   sodipodi:docname="Documento nuevo 1">
  <defs
     id="defs4" />
  <sodipodi:namedview
     id="base"
     pagecolor="#ffffff"
     bordercolor="#666666"
     borderopacity="1.0"
     inkscape:pageopacity="0.0"
     inkscape:pageshadow="2"
     inkscape:zoom="1.979899"
     inkscape:cx="14.474954"
     inkscape:cy="75.220032"
     inkscape:document-units="px"
     inkscape:current-layer="layer1"
     showgrid="false"
     inkscape:window-width="1366"
     inkscape:window-height="705"
     inkscape:window-x="-8"
     inkscape:window-y="-8"
     inkscape:window-maximized="1" />
  <metadata
     id="metadata7">
    <rdf:RDF>
      <cc:Work
         rdf:about="">
        <dc:format>image/svg+xml</dc:format>
        <dc:type
           rdf:resource="http://purl.org/dc/dcmitype/StillImage" />
        <dc:title></dc:title>
      </cc:Work>
    </rdf:RDF>
  </metadata>
  <g
     inkscape:label="Capa 1"
     inkscape:groupmode="layer"
     id="layer1"
     transform="translate(0,-924.36218)">
    <g
       id="g2993"
       transform="translate(-1.7880043,926.62531)">
      <path
         style="fill:#444444"
         inkscape:connector-curvature="0"
         id="path3338"
         d="M 61.812162,1.0327003 C 61.209783,1.1048396 58.297452,1.4318715 55.3901,1.7637126 47.574103,2.6390037 40.848362,4.7935664 35.974565,8.001364 34.386474,9.0594081 34.311799,9.0978825 33.141888,8.5111489 31.444273,7.6743321 26.94883,7.5252441 24.718533,8.2562564 c -3.096529,0.9859048 -5.137649,3.2126066 -5.740029,6.2761256 -0.453029,2.298842 0.03983,4.996854 1.284413,6.785911 0.756708,1.096518 3.509731,3.029854 5.172497,3.650252 0.114502,0.07214 -0.114502,2.337316 -0.527704,5.035329 -0.642206,4.121563 -0.716881,6.127037 -0.567531,12.22041 0.114502,4.015758 0.453029,8.868334 0.756708,10.763195 0.338527,1.89967 0.716881,4.708296 0.831383,6.237651 l 0.263852,2.774961 -1.622939,0.254893 c -2.568825,0.365506 -6.496737,2.409455 -6.909939,3.539639 -0.492856,1.351411 -0.03983,2.625873 1.433762,4.160037 1.508438,1.534164 2.414496,1.49569 4.948472,-0.144279 l 1.508438,-0.985905 0,16.784428 c 0,16.673816 0,16.856566 0.87121,18.862036 1.135062,2.73649 3.474883,6.16552 5.740029,8.5365 l 1.886792,1.89967 -1.886792,1.16866 c -2.075969,1.31293 -3.778562,3.68391 -3.778562,5.32869 0,0.69254 0.413202,1.38508 1.359087,2.2267 1.135062,1.05805 1.62294,1.2408 3.171204,1.2408 1.662767,0 2.075969,-0.18275 3.853237,-1.63997 1.095236,-0.91376 2.718175,-2.00547 3.589385,-2.44312 l 1.62294,-0.80315 3.474883,1.13018 c 5.889379,1.93334 9.478764,2.44312 17.110563,2.40946 9.667941,-0.0385 17.678093,-1.38508 23.567472,-3.97729 1.095236,-0.47612 2.304973,-0.87529 2.603674,-0.87529 0.338527,0 1.926618,1.35141 3.549558,2.95291 2.907352,2.95771 2.947178,2.99138 4.495443,2.77496 2.230293,-0.29337 3.738731,-1.78906 3.738731,-3.65025 0,-2.00548 -0.906058,-3.65026 -3.096525,-5.54512 l -1.851943,-1.6063 1.772289,-2.29884 c 3.360379,-4.41493 5.286999,-9.26751 6.611239,-16.640149 0.75671,-4.414929 0.90606,-12.845618 0.41818,-22.257402 -0.14935,-2.44312 -0.229,-4.453404 -0.229,-4.453404 0.0398,0 0.83138,0.399171 1.69761,0.913766 2.19047,1.202323 3.51471,1.168658 4.71947,-0.07214 1.09524,-1.130183 1.39892,-2.077614 1.20974,-3.794531 -0.14935,-1.567829 -1.62294,-2.553734 -5.09783,-3.467499 -1.39891,-0.327032 -2.6435,-0.692538 -2.758,-0.803152 -0.1145,-0.07214 -0.30368,-6.641632 -0.45303,-14.5962 -0.26385,-14.884758 -0.26385,-15.105986 -2.07597,-22.622909 -0.1145,-0.476119 -0.0398,-0.803151 0.26386,-0.803151 0.94588,0 3.81341,-2.298842 4.68462,-3.756057 1.85194,-2.99138 1.62294,-6.824385 -0.56753,-9.7436251 C 103.5008,6.1738331 98.592152,5.1157889 93.942384,6.6114787 L 91.562736,7.376156 89.636117,6.1738331 C 86.952791,4.4232509 82.422499,2.6726687 78.419912,1.8310427 75.134206,1.1385047 64.595055,0.62871975 61.802205,1.027891 z m 14.576586,1.7890565 c 12.425943,2.077614 19.111857,7.6996762 23.039774,19.2660222 2.339818,6.896525 2.643498,9.926379 2.982018,29.625237 0.18918,9.815765 0.52771,21.233023 0.75671,25.359396 0.229,4.126372 0.30368,9.123226 0.18918,11.128701 -0.49286,7.26203 -2.15065,13.975797 -4.570118,18.424397 -1.622941,2.99138 -4.759297,6.78591 -5.894359,7.11294 -0.492856,0.14428 -1.548264,0.87529 -2.379647,1.63997 -4.341115,3.97728 -13.750182,6.4204 -26.061623,6.82438 -7.517297,0.22123 -11.933086,-0.29336 -17.787617,-2.08242 -3.285706,-1.01957 -3.927912,-1.38508 -5.43635,-2.88077 -1.886792,-1.93333 -3.624233,-2.95771 -5.062974,-2.95771 -1.886792,0 -6.949766,-6.34827 -8.537857,-10.65258 -1.135062,-3.10199 -1.324239,-10.873808 -0.756708,-28.567192 l 0.492856,-15.471492 -0.906059,-6.85805 C 24.076327,34.707361 26.416148,20.697894 33.25639,12.488433 36.278244,8.8766551 40.962864,6.2507818 47.758301,4.3895859 54.444215,2.5668643 69.852185,1.6915732 76.388748,2.8217568 z m 26.061622,5.3238859 c 4.75929,2.3373153 4.98332,9.5945373 0.41818,12.4079723 -0.94589,0.581925 -1.81212,1.058045 -1.92662,1.058045 -0.14935,0 -0.60238,-1.01957 -1.055408,-2.226703 l -0.86623,-2.260367 0.980728,-1.096518 c 0.71689,-0.803152 0.90606,-1.351411 0.71689,-2.043949 -0.45303,-1.750582 -1.473588,-2.260367 -3.589387,-1.789057 -0.791557,0.182753 -1.169911,-0.07214 -2.568825,-1.789056 C 93.65364,9.3094913 92.971607,8.3620608 93.05126,8.2514471 93.12593,8.1793081 94.146496,7.885941 95.281558,7.5589091 97.735881,6.9000362 100.41921,7.1212636 102.45535,8.1408334 z M 30.991244,9.2421612 c 1.055409,0.2212274 2.001294,0.5482588 2.115796,0.6925378 0.114502,0.182753 -0.527704,1.240797 -1.398914,2.337316 -1.548265,1.933335 -1.697615,2.005475 -2.982027,1.822722 -1.169911,-0.182754 -1.47359,-0.07214 -2.150644,0.764677 -1.055409,1.312937 -1.055409,2.077614 0.07468,3.318411 l 0.87121,1.01957 -0.716882,2.116088 c -0.413202,1.168658 -0.945885,2.116089 -1.16991,2.116089 -0.756708,0 -3.171204,-1.567829 -3.967739,-2.553734 C 18.455778,16.78794 20.531747,10.694567 25.634548,9.3479656 27.93952,8.7660413 28.656402,8.727567 30.996223,9.2373519 z M 107.85187,62.586825 c 2.60367,0.94743 3.85324,2.260367 3.47489,3.683917 l -0.22901,0.913766 -1.28441,-0.731012 c -0.75671,-0.437646 -1.39892,-0.581925 -1.50844,-0.365507 -0.14935,0.182753 0.0747,0.437646 0.49286,0.581925 1.20973,0.365506 1.73744,1.168658 1.16991,1.822721 -0.75671,0.875291 -2.37965,0.658873 -4.26644,-0.581924 l -1.77727,-1.130184 0,-2.515259 c 0,-2.370981 0.0398,-2.51526 0.86623,-2.481595 0.45303,0 1.85194,0.365506 3.0567,0.803152 z m -81.734423,1.418741 c 0,2.952905 -0.413202,3.93881 -2.075969,5.035328 -2.304972,1.534165 -3.325532,1.716918 -4.380941,0.692538 -0.791556,-0.764677 -0.831383,-0.841626 -0.189177,-1.202322 1.548265,-0.913766 1.851943,-1.202323 1.47359,-1.423551 -0.224026,-0.144279 -0.831384,0.110614 -1.398915,0.509785 -0.831383,0.620399 -1.02056,0.658873 -1.209737,0.182753 -0.682033,-1.716917 0.642206,-3.135658 4.042414,-4.270651 3.096529,-1.01957 3.738735,-0.94743 3.738735,0.47612 z m 70.51822,51.339184 c 2.001295,1.42355 3.738733,4.66983 3.245875,6.09338 -0.5277,1.53416 -0.98073,1.38507 -2.00129,-0.69254 -0.527704,-1.01957 -1.135062,-1.93334 -1.359087,-1.97181 -0.229004,-0.0721 0.07467,0.83681 0.716881,2.04395 0.60238,1.20232 0.980736,2.3325 0.831383,2.55373 -0.114501,0.22123 -0.791556,0.39917 -1.508437,0.39917 -1.055409,0 -1.588091,-0.3655 -3.589385,-2.55373 -1.244586,-1.38508 -2.6435,-2.62587 -3.056702,-2.73649 -1.135062,-0.3655 -0.87121,-1.05804 0.980733,-2.69801 2.115796,-1.8612 3.549558,-1.97181 5.740029,-0.43765 z m -58.470631,0.21642 c 0.602379,0.29337 1.697614,1.2408 2.454322,2.07762 l 1.398915,1.53416 -1.47359,0.65887 c -0.791556,0.36551 -2.454322,1.49569 -3.698908,2.51526 -2.528998,2.07762 -3.474883,2.40946 -5.062974,1.78906 -0.980734,-0.39917 -1.055409,-0.50979 -0.716882,-1.38508 0.229004,-0.54826 0.831384,-1.53416 1.359088,-2.18823 0.527704,-0.65406 0.87121,-1.31293 0.756708,-1.42355 -0.303679,-0.25489 -2.04112,1.67845 -2.568825,2.88077 -0.527704,1.27927 -1.02056,1.31294 -1.324239,0.11061 -0.527704,-2.07761 0.980734,-4.27065 4.156916,-6.02123 2.150644,-1.20232 3.171204,-1.35141 4.719469,-0.54826 z M 75.48269,7.3809653 c -3.81341,0.9474305 -7.138943,3.5781127 -8.687207,6.8965247 -1.169911,2.44312 -1.095236,6.531018 0.114502,8.974138 1.284412,2.553734 4.042414,5.073803 6.685913,6.021233 2.947179,1.058044 7.781149,0.913766 10.310147,-0.327032 4.191765,-2.077614 6.118383,-4.924714 6.342409,-9.594537 0.14935,-2.774961 0.03983,-3.356885 -0.756708,-5.107467 C 88.172485,11.468863 86.469892,9.756755 83.786565,8.4774838 81.182892,7.2751609 77.857359,6.8375154 75.477712,7.3809653 z m 7.402795,1.385076 c 6.382235,2.7364867 8.80171,10.3255497 5.13765,15.9428017 -3.474883,5.290221 -12.425943,6.276126 -17.523766,1.933336 C 66.118428,22.919787 65.36172,17.26406 68.612578,12.666377 71.709107,8.2899215 77.867316,6.6114787 82.890464,8.7612321 z m -13.78503,8.0651827 c -3.056702,2.625873 -0.07467,7.295695 4.002587,6.203986 1.508438,-0.399171 2.867526,-2.077614 2.867526,-3.539639 0,-3.318411 -4.231591,-4.963189 -6.875091,-2.664347 z M 44.626924,8.8045157 c -3.021854,0.9137653 -6.003881,3.3184113 -7.47747,6.0212333 -0.87121,1.567829 -1.02056,2.332506 -1.02056,4.963189 0,2.553734 0.14935,3.429025 0.906058,4.89105 3.589385,7.040803 13.292174,8.829859 19.301033,3.611778 2.907352,-2.51526 3.967739,-4.708297 3.967739,-8.320075 0,-2.481594 -0.14935,-3.246272 -1.055408,-4.996854 -2.075969,-4.087898 -6.267733,-6.5310182 -11.141531,-6.4588788 -1.398914,0 -2.947178,0.1442787 -3.474883,0.2933668 z m 9.140237,1.6063033 c 8.269026,4.669822 7.815997,15.250264 -0.831383,19.338162 -2.6435,1.240797 -7.024442,1.130184 -9.896945,-0.221227 -8.572706,-4.087898 -8.458204,-15.471492 0.229004,-19.482441 1.697614,-0.7646774 2.339821,-0.8752911 5.326826,-0.7646774 2.907352,0.1106137 3.698908,0.2933668 5.172498,1.1301834 z m -13.107976,6.348265 c -1.135062,0.254893 -2.718175,1.861196 -2.947178,2.957715 -0.263853,1.279271 0.527704,3.101993 1.662766,3.86667 0.492856,0.327032 1.588091,0.581924 2.454323,0.581924 4.380941,0 5.476176,-5.511448 1.433762,-7.151416 -1.31926,-0.54826 -1.359087,-0.54826 -2.608651,-0.254893 z m 21.2625,9.921569 c -1.966445,0.399171 -3.325532,1.351411 -3.589384,2.625873 -0.114502,0.692538 -0.60238,1.279272 -1.244586,1.606304 -2.379648,1.202323 -3.624233,3.756057 -2.79285,5.83848 0.338527,0.764677 2.115795,1.639968 3.474883,1.639968 l 1.095235,0 -0.338527,1.899671 c -0.413202,2.409455 -0.114502,4.121563 0.87121,5.073802 0.985712,0.95224 2.339821,0.875291 3.589385,-0.182753 l 1.055408,-0.841626 0.642207,0.731013 c 0.791556,0.985904 3.096528,0.985904 4.191764,0 0.682033,-0.581925 0.756708,-0.985905 0.602379,-3.683918 l -0.14935,-2.991379 1.16991,0 c 4.306267,0 4.231591,-5.4345 -0.114501,-7.478449 -1.055409,-0.47612 -1.588092,-0.94743 -1.588092,-1.457215 -0.03983,-1.058045 -0.831383,-1.933336 -2.379647,-2.553734 -1.47359,-0.581925 -2.265146,-0.620399 -4.495444,-0.221228 z m 7.970327,4.780436 c 2.04112,0.985905 3.056702,2.337316 3.056702,4.087898 0,1.279272 -0.14935,1.49569 -1.244586,1.933335 -1.324239,0.548259 -2.947178,0.327032 -6.043707,-0.731012 -1.697615,-0.581924 -1.886792,-0.581924 -4.380942,0.144279 -4.495443,1.312936 -6.45691,0.803151 -6.531585,-1.678443 -0.03983,-1.457216 0.60238,-2.44312 2.190471,-3.429025 1.324239,-0.764678 1.398914,-0.764678 2.718175,-0.144279 0.756708,0.327032 2.230297,0.692538 3.285706,0.803152 1.548264,0.144279 2.19047,0 3.589385,-0.731013 0.945885,-0.509784 1.737441,-0.94743 1.812116,-0.94743 0.03983,-0.03847 0.756708,0.293367 1.548265,0.692538 z m -6.232885,8.82986 c -0.303679,3.86667 -0.567531,4.559208 -1.851943,4.891049 -2.265146,0.548259 -3.096529,-0.94743 -2.608652,-4.487069 l 0.338527,-2.481594 1.886792,-0.620399 c 1.055409,-0.327032 2.001294,-0.620399 2.150644,-0.658873 0.14935,0 0.189177,1.534164 0.07468,3.356886 z m 2.91233,-2.592209 c 1.886792,0.620399 2.230298,1.240798 2.230298,4.049424 0,2.188228 -0.114502,2.51526 -0.906059,3.029854 -1.284412,0.803151 -2.832676,0.365506 -3.096529,-0.875291 -0.114501,-0.509785 -0.303679,-1.202323 -0.378354,-1.49569 -0.263852,-0.731012 0.263853,-5.107468 0.60238,-5.107468 0.14935,0 0.831383,0.182753 1.548264,0.399171 z" />
      <path
         inkscape:connector-curvature="0"
         id="path3346"
         d="m 55.378984,121.88217 c -4.463936,-0.52893 -10.708544,-2.20155 -12.358466,-3.31024 -0.330961,-0.22267 -1.301299,-1.03861 -2.15627,-1.81382 -1.638492,-1.48559 -3.490973,-2.5408 -4.460515,-2.5408 -0.309304,0 -0.847458,-0.17025 -1.195922,-0.37849 -1.687344,-1.00745 -5.149311,-5.39126 -6.701839,-8.48638 -1.562738,-3.11551 -1.784961,-5.06428 -1.782021,-15.627359 0.0012,-4.473411 0.159795,-13.15072 0.352327,-19.282855 L 27.42634,59.292893 26.835604,54.814913 C 25.961713,48.190451 25.859243,46.963023 25.736978,41.655008 25.496449,31.212737 26.923758,23.613383 30.344699,17.12233 32.359776,13.298847 34.737148,10.62238 37.856656,8.6653348 44.316678,4.6125927 52.154988,2.8708645 65.879621,2.4384803 83.54731,1.8818769 93.646599,7.3560532 98.608782,20.178875 c 2.891548,7.472053 3.289868,10.716834 3.690948,30.066634 0.23732,11.448615 0.49704,20.285208 0.77988,26.535171 0.28939,6.394386 0.13407,13.418693 -0.36516,16.51429 -0.5109,3.167833 -1.25565,6.330375 -2.04314,8.6761 -1.626918,4.84618 -5.479956,10.51163 -8.019777,11.79215 -0.468263,0.23613 -1.508786,0.96407 -2.312251,1.61775 -0.803469,0.65368 -1.96991,1.47674 -2.592088,1.82897 -3.670009,2.0779 -9.178007,3.59004 -16.096932,4.41911 -2.963533,0.35493 -13.965147,0.52609 -16.271259,0.25297 z m 7.280641,-76.434314 c 0.507044,-0.326551 1.035535,-0.676283 1.174421,-0.776797 0.184846,-0.133698 0.366008,-0.04954 0.676049,0.314047 1.060541,1.244164 3.589026,1.160338 4.669889,-0.154859 0.416488,-0.506755 0.428436,-0.622948 0.348534,-3.380788 L 69.445778,38.593461 70.578276,38.479 c 1.274416,-0.128889 2.074744,-0.510651 2.660381,-1.269605 0.545278,-0.706677 0.557739,-2.645159 0.0239,-3.687813 -0.508344,-0.992157 -1.758172,-2.16471 -2.906989,-2.727061 -1.043017,-0.510602 -1.543331,-1.061603 -1.543331,-1.6997 0,-0.602844 -1.183914,-1.77559 -2.232413,-2.211312 -1.322676,-0.549702 -2.560765,-0.646513 -4.231178,-0.330879 -2.452446,0.463615 -3.70782,1.335973 -4.136968,2.875571 -0.15612,0.560187 -0.411211,0.871444 -1.07909,1.316833 -1.539612,1.026687 -2.105082,1.590336 -2.624448,2.615821 -0.594837,1.174526 -0.676347,2.595719 -0.19993,3.485775 0.393339,0.734764 1.919564,1.467748 3.398271,1.631937 0.739762,0.08224 1.069219,0.193814 1.01034,0.341941 -0.04829,0.120713 -0.191368,0.993359 -0.318514,1.938577 -0.312292,2.321878 -0.06049,3.54363 0.939607,4.559209 0.622118,0.631796 0.81945,0.723558 1.55612,0.723558 0.636576,0 1.069946,-0.145722 1.765559,-0.594044 z M 51.405769,30.969579 c 2.12273,-0.553261 3.758354,-1.51257 5.59597,-3.282101 2.778269,-2.675264 3.377761,-4.23285 3.266798,-8.487823 l -0.06502,-2.493281 -0.830333,-1.645018 C 57.872645,12.088637 54.884998,9.6945713 51.594971,8.8286102 49.928336,8.3900028 45.881665,8.3779796 44.405348,8.8093731 41.033243,9.790084 37.290739,13.367812 36.35963,16.500873 c -0.2529,0.850956 -0.304724,1.645019 -0.251556,3.852195 l 0.06701,2.780251 0.794533,1.548929 c 1.718449,3.350008 4.873374,5.683284 8.760101,6.478549 1.456737,0.298176 4.151479,0.208242 5.676017,-0.189005 z m 30.823406,-1.400081 c 1.540792,-0.377048 2.595877,-0.907609 4.182132,-2.102622 2.608372,-1.965077 3.705524,-4.396703 3.906774,-8.658601 0.09608,-2.034426 0.06258,-2.414841 -0.30572,-3.472741 C 88.316912,10.465741 84.02804,7.43204 78.461486,7.1651243 76.061482,7.0501822 74.719296,7.337297 72.533948,8.4337674 c -1.852366,0.9293956 -4.11924,2.9517986 -5.09841,4.5485316 -1.109438,1.809208 -1.472459,3.175768 -1.472444,5.542805 3e-5,3.377999 0.806511,5.382367 3.110767,7.731177 2.231816,2.274987 4.357787,3.358088 7.259996,3.69873 1.69529,0.199105 4.168127,0.03847 5.895338,-0.385705 z"
         style="fill:#a0a0a0;stroke:none" />
      <path
         inkscape:connector-curvature="0"
         id="path3348"
         d="m 55.446724,121.85192 c -0.06183,-0.0967 -0.400358,-0.14332 -0.752287,-0.1034 -0.351919,0.0385 -0.639857,0.005 -0.639857,-0.0741 0,-0.0803 -0.191566,-0.14716 -0.425698,-0.14812 -0.234131,-0.001 -1.521521,-0.24672 -2.860859,-0.54547 -1.339333,-0.29866 -2.510015,-0.49863 -2.601507,-0.4439 -0.0915,0.0548 -0.166327,0.0289 -0.166327,-0.0582 0,-0.20536 -2.596245,-1.01361 -2.822123,-0.87876 -0.09504,0.0568 -0.201324,0.0289 -0.236222,-0.0572 -0.03485,-0.0885 -0.489172,-0.36839 -1.009463,-0.62189 -0.520302,-0.25345 -1.690984,-1.09286 -2.601513,-1.8648 -0.910524,-0.77194 -1.658092,-1.33564 -1.661258,-1.25267 -0.0032,0.0827 -0.09255,0.005 -0.198586,-0.16929 -0.106088,-0.17602 -0.316324,-0.31982 -0.467267,-0.31982 -0.150894,0 -0.274406,-0.0683 -0.274406,-0.15149 0,-0.2448 -1.837024,-1.00462 -2.149385,-0.88881 -0.157166,0.0582 -0.31254,0.0337 -0.345298,-0.0491 -0.03286,-0.0851 -0.261661,-0.18372 -0.508696,-0.21834 -0.938941,-0.13178 -4.367434,-4.02678 -6.169489,-7.00863 -0.922629,-1.52666 -1.98997,-3.82267 -1.98997,-4.28071 0,-0.10869 -0.06386,-0.19766 -0.141903,-0.19862 -0.07804,-5.3e-4 -0.167392,-0.50853 -0.198546,-1.12869 -0.03116,-0.62021 -0.1082,-1.20819 -0.17121,-1.30669 -0.06301,-0.0986 -0.09538,-0.750485 -0.07193,-1.44889 0.02345,-0.698405 -0.02723,-1.228149 -0.112591,-1.177218 -0.08537,0.05098 -0.155224,-3.844548 -0.155224,-8.656629 0,-4.812081 0.06194,-8.608248 0.137646,-8.435883 0.07571,0.172173 0.145039,-1.331596 0.154075,-3.342121 0.0091,-2.010524 0.06005,-4.971509 0.113366,-6.579928 0.05331,-1.60842 0.122921,-4.28152 0.154682,-5.940245 0.03176,-1.658677 0.120287,-3.570947 0.19673,-4.249538 0.07644,-0.678543 0.06521,-1.234546 -0.02494,-1.235507 -0.09017,-9.14e-4 -0.18392,-0.596882 -0.208334,-1.324191 -0.02439,-0.727309 -0.111739,-1.344101 -0.194045,-1.3706 -0.08231,-0.02405 -0.117245,-0.376567 -0.07764,-0.77771 0.03963,-0.401095 -0.003,-0.72957 -0.09475,-0.72957 -0.09173,0 -0.134296,-0.328956 -0.0946,-0.731109 0.03968,-0.402056 -6.24e-4,-0.731926 -0.0896,-0.732936 -0.08897,-0.0011 -0.182919,-0.679552 -0.208767,-1.507809 -0.02584,-0.828256 -0.111584,-1.526757 -0.190531,-1.552151 -0.07895,-0.02405 -0.112919,-0.417927 -0.0755,-0.872694 0.03744,-0.454478 -0.01513,-0.927279 -0.116826,-1.050493 -0.253025,-0.306833 -0.253687,-16.399781 -6.75e-4,-16.399781 0.103435,0 0.154328,-0.325589 0.114292,-0.731109 -0.03968,-0.402056 0.0032,-0.731108 0.09543,-0.731108 0.09218,0 0.132812,-0.288077 0.09029,-0.639732 -0.04251,-0.35204 4e-4,-0.639684 0.09537,-0.639684 0.09498,0 0.135197,-0.246717 0.08938,-0.548356 -0.0458,-0.301542 -0.02987,-0.548307 0.03549,-0.548307 0.116245,0 0.667089,-2.565757 0.667089,-3.107187 0,-0.151012 0.04471,-0.31549 0.09931,-0.365506 0.05456,-0.05002 0.463479,-1.167792 0.908641,-2.48347 0.900713,-2.66204 2.478274,-5.869068 3.906035,-7.940526 2.072553,-3.006961 5.367112,-5.6351911 9.323744,-7.4380503 1.014347,-0.4621729 1.872823,-0.9097256 1.907726,-0.9946096 0.03485,-0.084644 0.130433,-0.1144612 0.212276,-0.065406 0.08184,0.049055 0.862902,-0.1442787 1.735675,-0.4294697 2.981559,-0.9735931 9.497397,-2.2116394 11.658342,-2.2151213 0.338178,-5.435e-4 0.614745,-0.062665 0.614556,-0.1380748 -1.89e-4,-0.07541 0.510653,-0.109219 1.135206,-0.075169 0.624548,0.034146 1.135346,-0.00721 1.135107,-0.091377 -1.89e-4,-0.084307 0.650157,-0.1258591 1.445333,-0.09229 0.79517,0.033665 1.497779,-0.00769 1.561342,-0.091376 0.06357,-0.083826 2.669786,-0.1003218 5.791595,-0.036551 4.553973,0.092867 6.119094,0.1921793 7.917351,0.5025373 1.232737,0.212763 2.311001,0.3452109 2.396151,0.2943767 0.08513,-0.050834 0.183352,-0.012504 0.2183,0.085221 0.03485,0.097725 0.361428,0.2010284 0.725663,0.2295956 0.364216,0.028375 0.704769,0.098831 0.756803,0.1561577 0.111714,0.1231178 2.846581,0.9924454 3.121809,0.9924454 0.104047,0 0.231792,0.050017 0.283815,0.1115756 0.218948,0.2582589 1.350172,0.7171135 1.519166,0.6162145 0.101011,-0.060116 0.183651,-0.038474 0.183651,0.048093 0,0.086567 0.644646,0.5115163 1.432548,0.944593 3.032627,1.6668524 5.804285,4.2252029 7.94873,7.3370559 1.162369,1.686714 2.80793,4.817467 3.285366,6.250492 0.1256,0.377048 0.31189,0.68542 0.41405,0.68542 0.10215,0 0.14153,0.06925 0.0876,0.153416 -0.12725,0.199105 0.48061,2.039958 0.67355,2.039958 0.081,0 0.0981,0.123118 0.0383,0.274129 -0.0599,0.150531 -0.009,0.27413 0.11171,0.27413 0.12133,0 0.179718,0.06396 0.12974,0.141874 -0.05,0.07791 0.112908,0.918623 0.362068,1.867737 0.75035,2.858739 1.40878,7.796102 1.40915,10.566831 9e-5,0.634249 0.064,1.114842 0.14209,1.068048 0.0781,-0.04809 0.114,1.067518 0.0799,2.476208 -0.0339,1.408737 0.008,2.519203 0.0946,2.467695 0.0861,-0.05146 0.16199,1.605246 0.16861,3.681657 0.0189,5.960877 0.33086,18.551507 0.7023,28.35871 0.0701,1.849558 0.0946,10.044639 0.0504,16.861089 -0.005,0.678543 -0.0814,1.233727 -0.1708,1.233727 -0.0894,0 -0.12795,0.286634 -0.0856,0.636847 0.0423,0.350116 0.0134,0.65868 -0.0646,0.685372 -0.0779,0.02886 -0.16703,0.500984 -0.19814,1.05386 -0.0314,0.552924 -0.10883,1.046406 -0.1727,1.096663 -0.0638,0.0505 -0.30612,0.955029 -0.53844,2.010524 -1.48271,6.73719 -5.424836,13.62987 -9.097429,15.90654 -0.515836,0.31981 -0.93789,0.65993 -0.93789,0.75592 0,0.0962 -0.06387,0.13755 -0.141883,0.0919 -0.07806,-0.0481 -0.823024,0.4463 -1.655508,1.09238 -3.067958,2.3818 -7.782846,4.18966 -13.575148,5.20519 -0.702404,0.12312 -1.277776,0.27125 -1.278602,0.32944 -7.57e-4,0.0582 -0.575517,0.12937 -1.277105,0.15823 -0.701582,0.0289 -1.298969,0.11734 -1.327524,0.19622 -0.02838,0.0789 -0.304227,0.10772 -0.61258,0.064 -0.308359,-0.0433 -0.710704,-0.0192 -0.894086,0.0534 -0.183402,0.0731 -3.526185,0.16737 -7.428448,0.20921 -3.902259,0.0433 -7.288622,0.10388 -7.525243,0.13706 -0.23662,0.0337 -0.480808,-0.0192 -0.542644,-0.11494 z m 7.027284,-76.289988 c 1.657519,-0.911697 1.575316,-0.892027 2.035778,-0.486941 0.233086,0.204876 0.594111,0.453998 0.802235,0.552829 0.496092,0.236136 2.554209,0.254892 2.554209,0.02405 0,-0.09859 0.07826,-0.132736 0.173893,-0.07551 0.09563,0.05723 0.467865,-0.163997 0.827117,-0.491846 l 0.653203,-0.595679 0.01693,-2.793333 c 0.0095,-1.53628 0.06785,-2.872878 0.130035,-2.970074 0.06218,-0.09715 0.43446,-0.176982 0.827206,-0.176982 0.392742,0 0.777956,-0.06156 0.856001,-0.137065 0.07806,-0.07551 0.219943,-0.147164 0.315328,-0.159668 0.09539,-0.01443 0.253348,-0.03366 0.350974,-0.04809 0.328172,-0.04328 1.310349,-1.023802 1.486045,-1.485061 0.233036,-0.61179 0.132722,-2.802904 -0.132175,-2.888221 -0.115149,-0.03847 -0.161199,-0.142836 -0.102405,-0.234693 0.05884,-0.09186 0.01195,-0.167363 -0.104595,-0.167363 -0.116344,0 -0.165331,-0.07214 -0.108876,-0.160631 0.130632,-0.203914 -1.386195,-1.882741 -1.590884,-1.760489 -0.08394,0.05002 -0.19993,-0.02886 -0.257779,-0.173615 -0.05785,-0.145722 -0.428635,-0.42418 -0.82393,-0.619245 -0.879166,-0.433317 -1.261353,-0.843165 -1.543431,-1.65454 -0.319958,-0.920307 -1.769268,-2.154419 -2.916671,-2.483567 -0.970045,-0.278458 -2.809488,-0.375606 -3.032373,-0.160149 -0.06611,0.06396 -0.429432,0.142836 -0.807418,0.175539 -0.377956,0.03366 -0.806337,0.15534 -0.951934,0.271725 -0.145616,0.116866 -0.264698,0.159187 -0.264698,0.09378 0,-0.06492 -0.276696,0.01924 -0.6149,0.185158 -0.875929,0.432355 -1.977398,1.600195 -2.12618,2.254596 -0.08229,0.362139 -0.437049,0.794928 -1.010574,1.233391 -1.391656,1.063911 -2.295812,1.929824 -2.189166,2.096514 0.05386,0.08416 0.02141,0.152936 -0.07209,0.152936 -0.191765,0 -0.624478,0.816906 -0.726131,1.37084 -0.03684,0.201029 -0.120476,0.590341 -0.185692,0.865096 -0.06522,0.27461 -0.05297,0.644926 0.02738,0.822533 0.08025,0.177463 0.12874,0.425622 0.107781,0.551337 -0.02091,0.125523 0.06492,0.228441 0.19092,0.228441 0.125952,0 0.172101,0.05483 0.102454,0.122156 -0.169961,0.163997 0.4482,0.809452 0.656369,0.68518 0.09016,-0.05386 0.163937,-0.01443 0.163937,0.0832 0,0.148607 0.368895,0.338093 0.946005,0.486364 0.05202,0.01443 0.334295,0.120232 0.627221,0.237579 0.292926,0.117346 0.718639,0.214494 0.946005,0.215937 0.227361,0.0014 0.504734,0.063 0.616383,0.137065 0.289341,0.191409 0.483646,0.774007 0.258127,0.774007 -0.104047,0 -0.188878,0.267397 -0.18848,0.593996 3.79e-4,0.326551 -0.04829,1.032266 -0.10793,1.567925 -0.13561,1.215308 0.05391,2.501168 0.420869,2.855709 0.153631,0.148607 0.265246,0.293367 0.24812,0.322223 -0.01693,0.02886 0.21392,0.322703 0.513546,0.652765 0.479614,0.52883 0.646478,0.596015 1.396137,0.562206 0.472295,-0.01924 1.188375,-0.223632 1.608203,-0.454478 z M 50.637038,31.170463 c 1.118638,-0.147164 2.093139,-0.467944 2.093139,-0.689508 0,-0.09859 0.08498,-0.128408 0.188828,-0.06685 0.212874,0.126965 1.324792,-0.451592 1.324792,-0.689652 0,-0.08464 0.07443,-0.109652 0.165381,-0.05531 0.09095,0.05434 0.393339,-0.105324 0.671951,-0.354926 0.278588,-0.249602 0.544143,-0.453516 0.590088,-0.453516 0.162742,0 2.734977,-2.55888 2.734977,-2.720809 0,-0.09041 0.133121,-0.214013 0.295813,-0.274129 0.162693,-0.06012 0.242794,-0.192372 0.178026,-0.293848 -0.06477,-0.101476 -0.02987,-0.184196 0.07776,-0.184196 0.261611,0 0.818454,-1.060256 0.674794,-1.284802 -0.06243,-0.09763 -0.01444,-0.177463 0.107134,-0.177463 0.121322,0 0.171603,-0.123118 0.111714,-0.27413 -0.05989,-0.151012 -0.01643,-0.274129 0.09643,-0.274129 0.112909,0 0.160801,-0.164478 0.106437,-0.365507 -0.05441,-0.201028 -0.03037,-0.406385 0.05297,-0.45592 0.08354,-0.05002 0.157714,-1.36834 0.164833,-2.929965 0.01245,-2.701572 -0.149799,-3.742447 -0.582949,-3.742447 -0.09349,0 -0.117489,-0.08224 -0.05332,-0.182272 0.131577,-0.205838 -0.467666,-1.279801 -0.713919,-1.279801 -0.08777,0 -0.114801,-0.06973 -0.06009,-0.15534 0.05471,-0.08561 -0.09902,-0.415522 -0.341564,-0.732984 -0.661164,-0.86572 -2.637382,-2.758898 -2.884447,-2.763226 -0.118932,-0.0021 -0.269925,-0.138989 -0.33554,-0.303948 -0.06562,-0.164958 -0.168915,-0.252487 -0.229601,-0.193814 -0.06064,0.05867 -0.282621,-0.04857 -0.493254,-0.23806 C 54.014121,9.5269194 51.848194,8.7392536 50.650898,8.6058919 49.694205,8.4996066 46.542277,8.4726746 45.307414,8.5626079 45.023051,8.5818449 44.740465,8.67755 44.679436,8.772774 c -0.06104,0.095224 -0.189625,0.1264843 -0.285707,0.069254 -0.241998,-0.1442788 -2.637133,0.9824418 -2.763344,1.300192 -0.05645,0.141874 -0.170757,0.21738 -0.253995,0.167844 -0.180813,-0.108209 -3.21457,2.694647 -3.21457,2.969642 0,0.104842 -0.139892,0.242869 -0.310898,0.306352 -0.171006,0.06348 -0.263205,0.161111 -0.204958,0.21738 0.05825,0.05627 -0.06039,0.263068 -0.263603,0.459287 -0.203266,0.196219 -0.318863,0.436203 -0.256883,0.53311 0.06198,0.09667 0.01742,0.17602 -0.09887,0.17602 -0.116344,0 -0.158908,0.08224 -0.09459,0.182753 0.06432,0.100514 0.0219,0.182753 -0.09459,0.182753 -0.116344,0 -0.163389,0.07503 -0.104595,0.167364 0.05884,0.09186 0.01742,0.195738 -0.0916,0.231327 -0.109175,0.03366 -0.221487,0.271725 -0.249515,0.525992 -0.02788,0.25393 -0.100961,0.540805 -0.162095,0.637087 -0.06108,0.09619 -0.115049,1.56552 -0.119878,3.265028 l -0.009,3.090018 0.699308,1.267248 c 0.384626,0.696963 0.886807,1.465536 1.11597,1.707876 0.229153,0.242388 0.363718,0.440531 0.298999,0.440531 -0.06472,0 0.423707,0.529888 1.085393,1.177507 0.661682,0.647619 1.26318,1.141582 1.33667,1.097673 0.07348,-0.04328 0.187136,0.05483 0.252502,0.219304 0.06536,0.164477 0.166525,0.253449 0.224772,0.19718 0.05825,-0.05627 0.272216,0.05819 0.475432,0.254893 0.203265,0.196219 0.451585,0.307795 0.551834,0.248159 0.100264,-0.06012 0.182307,-0.01924 0.182307,0.0957 0,0.112538 0.08513,0.153417 0.189227,0.09138 0.104047,-0.06204 0.189226,-0.01924 0.189226,0.09138 0,0.112538 0.07786,0.157745 0.173048,0.100996 0.09519,-0.05675 0.202867,-0.01924 0.239308,0.08897 0.03634,0.105805 0.256584,0.205838 0.489172,0.222671 0.232589,0.01924 0.422911,0.104361 0.422911,0.194295 0,0.08993 0.127694,0.115904 0.283815,0.05819 0.156071,-0.05771 0.283815,-0.01443 0.283815,0.0933 0,0.109171 0.170309,0.15534 0.378404,0.102919 0.208144,-0.05242 0.378404,-0.0096 0.378404,0.09138 0,0.102919 0.212874,0.147645 0.472992,0.09955 0.260168,-0.04809 0.472992,-0.0096 0.472992,0.08753 0,0.17602 2.682605,0.108209 4.339686,-0.109652 z m 30.000233,-1.288361 c 1.26878,-0.199585 1.513605,-0.244793 1.513605,-0.27942 0,-0.01924 0.254194,-0.06781 0.564888,-0.106766 0.310698,-0.03847 0.594663,-0.157264 0.631059,-0.262587 0.03634,-0.105324 0.144073,-0.145241 0.23921,-0.08849 0.09519,0.05675 0.173047,0.0096 0.173047,-0.100995 0,-0.112538 0.08513,-0.153417 0.189177,-0.09138 0.104047,0.06204 0.189177,0.01924 0.189177,-0.09138 0,-0.112538 0.07368,-0.16015 0.163688,-0.106767 0.206302,0.123118 1.587648,-0.754818 2.772045,-1.76198 0.972948,-0.827342 2.180245,-2.496311 2.225489,-3.076504 0.01543,-0.195257 0.08463,-0.355406 0.154179,-0.355406 0.152536,0 0.5437,-1.422493 0.703619,-2.558832 0.205705,-1.461496 0.127744,-5.544921 -0.107283,-5.620619 -0.117987,-0.03848 -0.171803,-0.176501 -0.11963,-0.307795 0.05217,-0.131294 -0.03385,-0.363102 -0.19082,-0.514787 -0.157116,-0.151973 -0.232986,-0.327031 -0.168567,-0.389071 0.06442,-0.06204 0.01294,-0.113019 -0.11475,-0.113019 -0.127545,0 -0.17927,-0.08224 -0.11495,-0.182753 0.06432,-0.100514 0.0219,-0.182753 -0.09459,-0.182753 -0.116344,0 -0.158908,-0.08224 -0.09459,-0.182753 0.06432,-0.100514 0.0219,-0.182753 -0.09459,-0.182753 -0.116344,0 -0.16085,-0.07935 -0.09887,-0.17602 0.06198,-0.09667 -0.05362,-0.336651 -0.256882,-0.53311 -0.203266,-0.196219 -0.334196,-0.390995 -0.291034,-0.432836 0.140937,-0.136103 -2.02635,-2.330679 -2.301707,-2.330679 -0.147359,0 -0.267934,-0.07647 -0.267934,-0.1697683 0,-0.2356553 -2.177776,-1.4914094 -2.645163,-1.5254111 -0.210136,-0.014428 -0.382038,-0.1014761 -0.382038,-0.1914098 0,-0.089934 -0.127694,-0.115904 -0.283815,-0.058193 -0.156071,0.057711 -0.283815,0.014428 -0.283815,-0.091377 0,-0.1082091 -0.11734,-0.1529355 -0.260766,-0.1000333 -0.143422,0.052909 -0.335885,0.024053 -0.427735,-0.064918 C 81.465075,7.5625645 81.050284,7.4380039 80.635165,7.3740404 79.54104,7.2052342 75.962846,7.1124149 75.737641,7.2465941 75.6322,7.3095961 75.313287,7.3855827 75.029009,7.4158812 c -0.708941,0.075025 -2.424821,0.8273905 -3.515347,1.5414261 -1.18957,0.7789131 -4.079573,3.5875867 -3.930775,3.8201647 0.06402,0.100033 0.03236,0.181791 -0.07019,0.181791 -0.233783,0 -1.141305,1.830657 -1.295963,2.614138 -0.211529,1.071703 -0.219096,5.142672 -0.01095,5.976315 0.287599,1.152643 1.031139,2.741633 1.282869,2.741633 0.115946,0 0.162045,0.07599 0.102504,0.169287 -0.05954,0.0933 0.658262,0.936128 1.595156,1.873459 0.936894,0.937283 1.70429,1.646413 1.705331,1.575813 9.46e-4,-0.0707 0.225469,0.07166 0.498695,0.316451 0.273262,0.244793 0.57123,0.400133 0.6622,0.346269 0.09095,-0.05435 0.16538,-0.01924 0.16538,0.08272 0,0.167364 0.399512,0.35685 0.851401,0.403981 0.104048,0.0096 0.241948,0.101957 0.306367,0.202952 0.06447,0.100514 0.341116,0.195738 0.614766,0.211128 0.273659,0.01443 0.497635,0.09907 0.497735,0.186119 6.9e-5,0.08705 0.170408,0.115423 0.378553,0.063 0.208144,-0.05242 0.378404,-0.0096 0.378404,0.0909 0,0.10388 0.255389,0.15005 0.575929,0.104842 0.316772,-0.04328 0.624782,-0.0048 0.684487,0.08801 0.102255,0.159669 2.855378,0.07743 4.1318,-0.123118 l 5e-6,0 z"
         style="fill:#a0a0a0;stroke:none" />
      <path
         inkscape:connector-curvature="0"
         id="path3350"
         d="m 55.292127,121.85057 c -0.178872,-0.0967 -0.530523,-0.13803 -0.781401,-0.0914 -0.250859,0.0481 -0.456166,0.0144 -0.456166,-0.0731 0,-0.0866 -0.181311,-0.15726 -0.402947,-0.15726 -0.221586,0 -1.384058,-0.21257 -2.583222,-0.47227 -1.199168,-0.25971 -2.358813,-0.49161 -2.576989,-0.51508 -0.218201,-0.024 -0.594907,-0.1462 -0.837173,-0.27269 -0.242246,-0.12648 -0.561542,-0.18515 -0.709503,-0.13033 -0.147957,0.0548 -0.26903,0.01 -0.26903,-0.0967 0,-0.10821 -0.127694,-0.14909 -0.283815,-0.0914 -0.156071,0.0577 -0.283815,0.0144 -0.283815,-0.0914 0,-0.10821 -0.127695,-0.14909 -0.283816,-0.0914 -0.156071,0.0577 -0.283815,0.0192 -0.283815,-0.0914 0,-0.10821 -0.127695,-0.14909 -0.283815,-0.0914 -0.156071,0.0577 -0.283816,0.0385 -0.283816,-0.0385 0,-0.0794 -0.40439,-0.32174 -0.898705,-0.53845 -0.4943,-0.2169 -1.638955,-1.01274 -2.543714,-1.76895 -0.904759,-0.75626 -1.734877,-1.37498 -1.844705,-1.37498 -0.109822,0 -0.199681,-0.0779 -0.199681,-0.17265 0,-0.31261 -2.558938,-1.54739 -2.848478,-1.37455 -0.107433,0.064 -0.298004,0.0337 -0.423508,-0.0644 -0.125504,-0.0996 -0.39075,-0.20969 -0.58942,-0.24431 -0.508453,-0.089 -3.22585,-2.89601 -4.487306,-4.63568 -1.296633,-1.78819 -2.655384,-4.08958 -3.100532,-5.2516 -0.182924,-0.47756 -0.398193,-0.86818 -0.478374,-0.86818 -0.08018,0 -0.101254,-0.16447 -0.04685,-0.3655 0.05751,-0.21257 0.0058,-0.36551 -0.123478,-0.36551 -0.122338,0 -0.179957,-0.0664 -0.128038,-0.14764 0.05192,-0.0813 0.01379,-0.63632 -0.08469,-1.23373 -0.0985,-0.59741 -0.174022,-1.641362 -0.167834,-2.319953 0.0062,-0.678543 -0.05711,-1.233727 -0.140649,-1.233775 -0.08354,0 -0.151894,-3.947996 -0.151894,-8.773255 0,-4.825306 0.07147,-8.773254 0.158814,-8.773206 0.08735,0 0.149405,-1.501028 0.1379,-3.335628 -0.0115,-1.834601 0.02245,-4.651643 0.07544,-6.260063 0.05299,-1.608468 0.138065,-4.528285 0.189043,-6.488552 0.05098,-1.960267 0.143436,-3.788327 0.205461,-4.062313 0.06203,-0.274129 0.05491,-0.588657 -0.01583,-0.699223 -0.07074,-0.110613 -0.166332,-0.743756 -0.212436,-1.407102 -0.0461,-0.663394 -0.13896,-1.292305 -0.206352,-1.397628 -0.06739,-0.105324 -0.0993,-0.502235 -0.07092,-0.882024 0.02838,-0.379934 -0.02101,-0.690519 -0.109762,-0.690519 -0.08875,0 -0.128889,-0.328955 -0.0892,-0.731108 0.03968,-0.402057 -0.01011,-0.731109 -0.110664,-0.731109 -0.100562,0 -0.14242,-0.204395 -0.09302,-0.453997 0.04938,-0.249602 0.02579,-0.599189 -0.05244,-0.776797 -0.07824,-0.177462 -0.124125,-0.588128 -0.101966,-0.91237 0.02215,-0.324147 -0.01912,-0.682294 -0.09174,-0.795794 -0.138777,-0.216899 -0.23793,-1.433169 -0.248589,-3.049187 -0.0035,-0.528926 -0.05567,-1.038759 -0.11595,-1.133021 -0.176288,-0.275572 -0.209917,-12.253161 -0.0344,-12.253161 0.08767,0 0.130249,-0.452555 0.0946,-1.005527 -0.03565,-0.553021 0.0056,-1.005431 0.09156,-1.005286 0.086,1.44e-4 0.138478,-0.308276 0.116603,-0.685132 -0.02186,-0.377049 0.0238,-0.830613 0.101459,-1.008028 0.07767,-0.177463 0.09705,-0.485786 0.04306,-0.685228 -0.05399,-0.199585 -0.01598,-0.411675 0.08444,-0.471791 0.100438,-0.06012 0.164923,-0.286153 0.143307,-0.502812 -0.02161,-0.216418 0.0109,-0.517191 0.07226,-0.667962 0.116001,-0.285191 0.494653,-2.05804 0.594261,-2.782464 0.03146,-0.228922 0.109439,-0.539506 0.173276,-0.690278 0.06384,-0.151011 0.463947,-1.26114 0.889136,-2.467455 2.649218,-7.516249 6.412817,-11.969605 12.66728,-14.9889268 0.780455,-0.3765676 1.48156,-0.7773259 1.558007,-0.8901999 0.07647,-0.1130184 0.14029,-0.1404314 0.141883,-0.061559 0.0016,0.078872 0.194454,0.043284 0.428586,-0.083201 0.234131,-0.1245607 0.510837,-0.2346935 0.6149,-0.244793 0.430328,-0.043284 1.229805,-0.3207797 1.229805,-0.4299507 0,-0.064444 0.191566,-0.1260034 0.425698,-0.1370648 0.234131,-0.00962 1.404813,-0.2746105 2.601507,-0.5860603 2.228042,-0.5800005 5.75583,-1.2060308 7.946425,-1.4102045 0.676393,-0.06305 1.357519,-0.1595723 1.513605,-0.2145425 0.156071,-0.05497 0.6863,-0.083634 1.178245,-0.063723 0.491959,0.019718 0.994707,-0.023566 1.117259,-0.096859 0.122567,-0.073149 0.811057,-0.1146054 1.530009,-0.092098 0.718957,0.022604 1.408159,-0.027894 1.531552,-0.1118641 0.123413,-0.084067 2.863707,-0.083345 6.089578,0.00156 7.505996,0.1975657 7.473428,0.1961229 7.473428,0.3333801 0,0.097388 1.447593,0.3604083 2.459605,0.4469275 0.156071,0.013466 0.420869,0.081566 0.588435,0.1516369 0.167571,0.070071 0.50811,0.1532722 0.756803,0.1848692 0.248668,0.031741 0.579882,0.1088824 0.735973,0.1716917 0.810101,0.32607 3.02721,0.9964372 3.02721,0.9154487 0,-0.051459 0.133769,0.033665 0.297307,0.1938145 0.265595,0.2568161 0.664823,0.3712773 1.074391,0.3087565 0.07806,-0.00962 0.141883,0.065406 0.141883,0.1721726 0,0.1062854 0.08513,0.142836 0.189177,0.080796 0.104047,-0.06204 0.189177,-0.033665 0.189177,0.068292 0,0.1673633 0.399512,0.3568494 0.851401,0.4039805 0.104047,0.00962 0.231792,0.085124 0.283815,0.1654396 0.05202,0.080315 0.757331,0.5736523 1.567337,1.0965666 3.929047,2.536469 7.24077,6.5623272 9.342327,11.3568542 0.391095,0.892316 0.775695,1.622366 0.854615,1.622366 0.0789,0 0.0945,0.123118 0.0344,0.27413 -0.0599,0.151012 -0.0358,0.27413 0.0532,0.27413 0.0892,9.6e-5 0.17324,0.185157 0.18679,0.411194 0.0134,0.226037 0.17563,0.740102 0.36013,1.142207 0.18455,0.402057 0.31871,0.833931 0.29815,0.959598 -0.0204,0.125522 0.0373,0.228441 0.12864,0.228441 0.0913,0 0.16847,0.102919 0.17156,0.228441 0.003,0.125523 0.226958,1.174333 0.497478,2.330391 0.60835,2.599422 1.0479,5.788175 1.20303,8.727566 0.065,1.231467 0.16886,2.238869 0.23084,2.238725 0.062,-1.44e-4 0.0848,1.110225 0.0507,2.467503 -0.0339,1.357231 0.008,2.467648 0.0946,2.4676 0.0861,-4.8e-5 0.15762,1.336502 0.15891,2.970122 0.004,4.998682 0.35073,18.801638 0.73358,29.198557 0.0463,1.256572 0.0746,5.410165 0.063,9.230185 -0.0279,9.219797 -0.0199,8.864631 -0.19849,8.864631 -0.086,0 -0.13247,0.268358 -0.1032,0.596689 0.0294,0.327993 -0.005,0.688353 -0.0772,0.80041 -0.0717,0.112056 -0.16558,0.604432 -0.20859,1.094018 -0.0428,0.489634 -0.13805,1.032843 -0.21118,1.20718 -0.0731,0.174096 -0.14572,0.585531 -0.16125,0.913862 -0.0154,0.328474 -0.0781,0.638096 -0.13904,0.688354 -0.18415,0.151973 -0.75755,2.567248 -0.64952,2.736098 0.0553,0.0866 0.0314,0.18468 -0.0537,0.21835 -0.0848,0.0337 -0.43257,0.83638 -0.77277,1.78376 -1.703308,4.74302 -5.18241,9.80427 -7.865876,11.44285 -0.472295,0.28855 -0.858749,0.59024 -0.858749,0.6707 0,0.0803 -0.08593,0.1462 -0.190919,0.1462 -0.104994,0 -0.917579,0.53561 -1.805705,1.19025 -2.828465,2.08483 -6.923699,3.75197 -11.483916,4.67507 -1.118648,0.22652 -2.033906,0.46554 -2.033906,0.53152 0,0.0659 -0.255439,0.0837 -0.567601,0.0385 -0.312192,-0.0433 -0.568124,-0.01 -0.568756,0.0774 -5.67e-4,0.087 -0.52641,0.18227 -1.168392,0.21257 -0.641977,0.0288 -1.248802,0.1034 -1.348498,0.16303 -0.28516,0.17025 -1.289685,0.20824 -8.550199,0.32174 -3.746173,0.0587 -7.161998,0.13514 -7.590727,0.16977 -0.428735,0.0337 -0.925873,-0.0144 -1.104759,-0.11254 z m 7.43721,-76.472016 1.334798,-0.663298 0.591158,0.480449 c 0.325136,0.264511 0.691049,0.489441 0.813143,0.50031 1.337397,0.119271 2.159799,0.09042 2.379573,-0.08368 0.146064,-0.115423 0.276746,-0.169287 0.290436,-0.11879 0.01344,0.0505 0.331409,-0.15534 0.706118,-0.456883 l 0.681272,-0.548307 0.01444,-2.793333 c 0.008,-1.536328 0.06517,-2.872878 0.127346,-2.970122 0.06223,-0.09715 0.322248,-0.176982 0.577921,-0.176982 0.892124,0 1.991839,-0.461692 2.650808,-1.113207 0.633877,-0.626554 0.664096,-0.715959 0.668223,-1.976378 0.0024,-0.726107 -0.08603,-1.42533 -0.196496,-1.553882 -0.110419,-0.128408 -0.14477,-0.287596 -0.07632,-0.353964 0.06845,-0.06589 0.02539,-0.120233 -0.09623,-0.120233 -0.121422,0 -0.199432,-0.07118 -0.173445,-0.158706 0.07313,-0.245274 -1.168148,-1.669257 -1.454976,-1.669257 -0.14004,0 -0.308308,-0.135141 -0.373923,-0.3001 -0.06561,-0.164959 -0.166974,-0.254412 -0.22522,-0.198143 -0.05825,0.05627 -0.260965,-0.03366 -0.45054,-0.202471 -0.189526,-0.167363 -0.570648,-0.455921 -0.846911,-0.641223 -0.450888,-0.302023 -0.959267,-1.114698 -0.894269,-1.429321 0.04829,-0.234694 -1.561741,-1.649491 -2.279738,-2.003359 -0.791362,-0.390034 -2.932164,-0.65921 -3.487149,-0.438607 -0.190322,0.07551 -0.631309,0.16592 -0.979997,0.201028 -0.348683,0.03367 -0.753109,0.158707 -0.898705,0.275572 -0.145617,0.116866 -0.264699,0.158707 -0.264699,0.09378 0,-0.06493 -0.238562,7.21e-4 -0.530113,0.146202 -0.723822,0.361659 -2.078717,1.811756 -2.227396,2.384014 -0.07283,0.280382 -0.720002,0.946036 -1.614615,1.661033 -0.821203,0.656324 -1.493095,1.314332 -1.493095,1.462217 0,0.147646 -0.07482,0.26884 -0.166227,0.26884 -0.320555,0 -0.856314,1.643431 -0.834211,2.55888 0.02141,0.892652 0.522607,2.010524 0.901175,2.010524 0.15866,0 0.288495,0.0808 0.288495,0.179387 0,0.09859 0.234131,0.23325 0.520306,0.299618 0.286156,0.06589 0.605442,0.181311 0.709499,0.256336 0.104047,0.07502 0.48718,0.193333 0.851406,0.262587 0.364215,0.06925 0.802001,0.163997 0.972873,0.209685 0.348334,0.09378 0.595225,0.748711 0.339821,0.901213 -0.184497,0.110133 -0.224822,0.562062 -0.25285,2.833491 -0.01842,1.509348 0.0022,1.588076 0.628451,2.376078 0.35625,0.448226 0.776925,0.917806 0.934868,1.043472 0.498979,0.396767 1.456912,0.250084 2.835176,-0.43476 z m -12.45877,-14.16976 c 0.567496,-0.01443 2.45961,-0.57245 2.45961,-0.726925 0,-0.08753 0.06387,-0.138988 0.141883,-0.115423 0.231393,0.0707 1.371707,-0.439569 1.371707,-0.614002 0,-0.08849 0.130333,-0.160631 0.28969,-0.160631 0.296908,0 4.251141,-3.614471 4.251141,-3.885859 0,-0.08272 0.170259,-0.327032 0.378404,-0.542873 0.339423,-0.35204 0.466222,-0.700041 0.400806,-1.100222 -0.01245,-0.07551 0.07184,-0.137064 0.187036,-0.137064 0.115199,0 0.160452,-0.123118 0.100513,-0.27413 -0.05989,-0.151012 -0.02738,-0.27413 0.07224,-0.27413 0.09962,0 0.182157,-0.185157 0.183352,-0.411194 0.0011,-0.226037 0.04431,-1.64497 0.09539,-3.152876 0.08991,-2.645543 -0.0691,-3.929672 -0.486434,-3.929672 -0.09598,0 -0.154278,-0.06156 -0.129536,-0.137065 0.08035,-0.244793 -0.463533,-1.325104 -0.667078,-1.325104 -0.108777,0 -0.141435,-0.05434 -0.07253,-0.121194 0.242893,-0.234693 -1.28397,-1.937135 -3.046905,-3.397476 -0.333748,-0.276534 -0.646319,-0.502619 -0.694628,-0.502619 -0.04829,0 -0.395978,-0.20199 -0.772639,-0.449188 -0.878409,-0.5758646 -2.587917,-1.1935219 -3.575117,-1.2917276 -0.423906,-0.043284 -1.707248,-0.07743 -2.851908,-0.077911 -2.684059,-0.00173 -2.785079,0.00231 -3.121814,0.1250416 -0.156071,0.05675 -0.434759,0.1322555 -0.619266,0.1668824 -0.575292,0.10869 -2.597147,1.1569716 -2.597147,1.3464576 0,0.09907 -0.100363,0.180349 -0.223079,0.180349 -0.244636,0 -3.554482,3.109688 -3.558479,3.343323 -0.0014,0.07935 -0.169812,0.318375 -0.374322,0.530321 -0.20451,0.212089 -0.327226,0.45544 -0.272614,0.54066 0.05456,0.08512 0.004,0.154859 -0.112311,0.154859 -0.116344,0 -0.158909,0.08224 -0.09459,0.182754 0.06432,0.100514 0.01245,0.182753 -0.11495,0.182753 -0.127545,0 -0.175885,0.05386 -0.107432,0.120232 0.06845,0.06637 0.02838,0.232289 -0.08951,0.369354 -0.31946,0.371758 -0.382835,0.958155 -0.45751,4.23535 l -0.0681,2.98859 0.585069,1.123836 c 0.3218,0.618138 0.680515,1.182556 0.797167,1.254311 0.116643,0.07166 0.193957,0.195257 0.171803,0.27413 -0.0224,0.07887 0.126848,0.329436 0.33111,0.556387 0.204261,0.226998 0.371384,0.462654 0.371384,0.523683 0,0.203914 1.983526,2.074152 2.202862,2.076845 0.118932,0.0014 0.269925,0.137546 0.33554,0.302985 0.06561,0.16544 0.168915,0.252488 0.229601,0.193815 0.06064,-0.05867 0.284413,0.05002 0.497187,0.241907 0.212824,0.19141 0.459153,0.304909 0.547458,0.252488 0.08832,-0.0529 0.160552,-0.0039 0.160552,0.10869 0,0.112537 0.08513,0.153416 0.189227,0.09138 0.104047,-0.06204 0.189227,-0.02405 0.189227,0.0808 0,0.106285 0.06387,0.17602 0.141882,0.154859 0.07806,-0.01924 0.322298,0.05819 0.542729,0.176501 0.220441,0.118308 0.454573,0.163035 0.520302,0.100033 0.06571,-0.06348 0.11948,-0.0096 0.11948,0.117347 0,0.12937 0.123164,0.187081 0.277742,0.129851 0.152785,-0.05675 0.331657,-0.01924 0.39752,0.08416 0.06586,0.102919 0.238911,0.143317 0.384478,0.08897 0.145566,-0.05386 0.264648,-0.0096 0.264648,0.100033 0,0.1135 0.204262,0.160631 0.477523,0.110133 0.262657,-0.04857 0.530378,-0.0048 0.594982,0.09522 0.07462,0.116385 0.746014,0.137065 1.840189,0.05627 0.947503,-0.07022 1.85044,-0.130332 2.006531,-0.134179 z m 29.384462,-1.259891 c 2.797126,-0.393881 3.362661,-0.507236 3.642583,-0.731637 0.116892,-0.09378 0.268482,-0.116385 0.336984,-0.05002 0.06845,0.06637 0.124509,0.01924 0.124509,-0.103881 0,-0.123117 0.08513,-0.173134 0.189177,-0.111094 0.104047,0.06204 0.189177,0.01924 0.189177,-0.09138 0,-0.112537 0.07094,-0.162073 0.157614,-0.110132 0.339174,0.202471 3.626419,-2.278451 3.626419,-2.73692 0,-0.142836 0.08344,-0.260183 0.185393,-0.260183 0.240106,0 1.336307,-1.850038 1.211644,-2.044911 -0.05222,-0.08176 -0.01195,-0.148607 0.08996,-0.148607 0.403544,0 0.763294,-2.451007 0.761756,-5.189995 -7.57e-4,-1.50728 -0.0577,-2.827335 -0.12635,-2.933428 -0.06865,-0.105804 -0.151043,-0.35733 -0.183054,-0.558407 -0.03186,-0.201028 -0.141435,-0.392919 -0.243142,-0.427065 -0.101708,-0.03366 -0.136805,-0.136584 -0.07796,-0.228441 0.05879,-0.09186 0.01195,-0.166882 -0.104595,-0.166882 -0.116344,0 -0.158909,-0.08224 -0.09459,-0.182753 0.06432,-0.100515 0.02191,-0.182754 -0.09459,-0.182754 -0.116344,0 -0.158909,-0.08224 -0.09459,-0.182753 0.06432,-0.100514 0.02191,-0.182753 -0.09459,-0.182753 -0.116344,0 -0.16085,-0.07935 -0.09887,-0.17602 0.06198,-0.09667 -0.05362,-0.33665 -0.256883,-0.53311 -0.203265,-0.196219 -0.333797,-0.391476 -0.290137,-0.433798 0.0925,-0.08945 -1.853059,-2.041737 -2.652456,-2.6617024 -0.729342,-0.5656689 -2.680594,-1.5079054 -2.827918,-1.3655984 -0.06457,0.062521 -0.117389,0.00962 -0.117389,-0.1192705 0,-0.1317745 -0.123065,-0.1870814 -0.283815,-0.1274462 -0.156071,0.057711 -0.283816,0.014428 -0.283816,-0.091377 0,-0.1082091 -0.117339,-0.1529355 -0.260765,-0.1000333 -0.143426,0.053383 -0.339971,0.019237 -0.43685,-0.073582 -0.358789,-0.3467499 -4.705992,-0.5476821 -6.243249,-0.2885575 -0.846981,0.142836 -2.444999,0.8166659 -3.559794,1.5014609 -1.147309,0.7047536 -4.067813,3.4569194 -4.067813,3.8333424 0,0.148607 -0.0695,0.270282 -0.154429,0.270282 -0.207945,0 -1.143923,1.964259 -1.262821,2.650209 -0.239309,1.380699 -0.300692,3.601197 -0.136705,4.946404 0.171205,1.404602 1.047354,3.735473 1.404126,3.735473 0.08239,0 0.152039,0.102919 0.154678,0.228442 0.0065,0.302504 2.885815,3.244252 3.17541,3.244252 0.123911,0 0.22532,0.08416 0.22532,0.1866 0,0.102438 0.234132,0.286634 0.520302,0.409271 0.286155,0.122156 0.632807,0.32607 0.770313,0.453035 0.137502,0.126965 0.361926,0.230365 0.498676,0.230365 0.136755,0 0.486434,0.119271 0.777025,0.264992 0.290586,0.145722 0.598322,0.223151 0.68383,0.172173 0.08553,-0.05098 0.155473,-5.77e-4 0.155473,0.112056 0,0.112538 0.149002,0.187082 0.33111,0.16544 0.182108,-0.02405 0.480111,0.02405 0.662204,0.09955 0.182108,0.07647 0.445263,0.09667 0.584756,0.04328 0.139493,-0.05194 0.373625,-0.01924 0.520307,0.06925 0.356051,0.217861 1.414954,0.209685 3.068411,-0.02405 z"
         style="fill:#76e1fe;fill-opacity:1;stroke:none" />
    </g>
    <path
       style="opacity:0.41880002000000000;fill:#f7d3a2;fill-opacity:1;stroke:none"
       d="m 65.235119,39.137962 c -2.077006,-0.594422 -3.208346,-0.617035 -6.372037,-0.127364 -4.617931,0.714755 -5.497255,0.469631 -5.497255,-1.532439 0,-1.946895 2.196953,-3.787346 4.029357,-3.37551 3.88045,0.872138 5.940676,0.891557 7.527554,0.07095 1.546486,-0.79972 1.724068,-0.794683 3.247013,0.09209 0.88608,0.515944 1.926915,1.592023 2.312967,2.391287 0.647028,1.339578 0.613033,1.525176 -0.434762,2.373629 -1.315863,1.065521 -1.454074,1.068604 -4.812837,0.107354 z"
       id="path3819"
       inkscape:connector-curvature="0"
       transform="translate(0,924.36218)" />
    <path
       style="opacity:0.41880002;fill:#f7d3a2;fill-opacity:1;stroke:none"
       d=""
       id="path3821"
       inkscape:connector-curvature="0"
       transform="translate(0,924.36218)" />
    <path
       style="opacity:0.41880002;fill:#f7d3a2;fill-opacity:1;stroke:none"
       d="m 103.99972,69.756066 c -1.39416,-0.850038 -1.64149,-1.293686 -1.64149,-2.94439 0,-1.068952 0.1344,-2.077953 0.29867,-2.242224 0.55358,-0.553578 4.99682,1.099606 5.88851,2.190919 1.26748,1.551237 1.09695,1.997367 -0.63135,1.651707 -1.56313,-0.312626 -2.15423,0.480092 -0.75761,1.016025 0.41669,0.159899 0.75761,0.525142 0.75761,0.811652 0,0.854741 -2.15613,0.588311 -3.91434,-0.483689 l 0,0 z"
       id="path3823"
       inkscape:connector-curvature="0"
       transform="translate(0,924.36218)" />
    <path
       style="opacity:0.41880002;fill:#f7d3a2;fill-opacity:1;stroke:none"
       d="m 90.910871,122.81912 -3.113596,-2.95969 1.345829,-1.25912 c 0.740206,-0.69252 1.801159,-1.39582 2.357673,-1.5629 2.173194,-0.65244 6.305278,3.35854 6.309874,6.12494 0.0027,1.63439 -0.635831,1.40143 -1.730558,-0.63135 -0.523603,-0.97227 -1.143498,-1.76777 -1.377547,-1.76777 -0.596407,0 -0.505026,0.55596 0.332073,2.02031 0.397001,0.69448 0.729873,1.66044 0.739717,2.14657 0.0332,1.63992 -1.71643,0.88049 -4.863465,-2.11099 z"
       id="path3825"
       inkscape:connector-curvature="0"
       transform="translate(0,924.36218)" />
    <path
       style="opacity:0.41880002;fill:#f7d3a2;fill-opacity:1;stroke:none"
       d="m 29.869507,125.79737 c -0.177336,-0.28693 0.159413,-1.33835 0.74833,-2.33649 1.433183,-2.42907 0.786203,-2.87465 -1.029394,-0.70896 -1.695608,2.02256 -2.404378,1.76681 -1.455058,-0.52505 0.769006,-1.85655 4.597564,-4.49523 6.517235,-4.49176 1.179333,0.002 4.588857,2.56742 4.562179,3.43253 -0.01884,0.61085 -7.176768,5.15143 -8.120887,5.15143 -0.494988,0 -1.04507,-0.23476 -1.222405,-0.5217 z"
       id="path3827"
       inkscape:connector-curvature="0"
       transform="translate(0,924.36218)" />
    <path
       style="opacity:0.41880002;fill:#f7d3a2;fill-opacity:1;stroke:none"
       d="m 18.215671,71.694214 c -0.19773,-0.319934 0.01614,-0.856381 0.475268,-1.192103 1.285774,-0.940181 0.993323,-1.371741 -0.680451,-1.004119 -3.34016,0.733623 -0.619426,-2.412914 3.018934,-3.491406 1.256402,-0.372426 2.45483,-0.578118 2.663174,-0.457094 0.208344,0.121025 0.378807,0.918468 0.378807,1.772096 0,2.724173 -4.703745,6.23658 -5.855732,4.372626 z"
       id="path3829"
       inkscape:connector-curvature="0"
       transform="translate(0,924.36218)" />
    <path
       style="opacity:0.41880002;fill:#f7d3a2;fill-opacity:1;stroke:none"
       d=""
       id="path3831"
       inkscape:connector-curvature="0"
       transform="translate(0,924.36218)" />
    <path
       style="opacity:0.41880002;fill:#76e1fe;fill-opacity:1;stroke:none"
       d=""
       id="path3845"
       inkscape:connector-curvature="0"
       transform="translate(0,924.36218)" />
    <path
       style="opacity:0.41880002;fill:#76e1fe;fill-opacity:1;stroke:none"
       d="m 21.688067,24.167397 c -2.142487,-1.510874 -2.930208,-3.098931 -2.870853,-5.787688 0.05818,-2.635716 1.312836,-4.572863 3.774863,-5.828282 1.74102,-0.887767 5.953203,-1.141903 7.66944,-0.462724 0.791361,0.313171 0.719449,0.553985 -0.668117,2.237343 -1.144519,1.3885 -1.942083,1.8864 -3.021744,1.8864 -1.015285,0 -1.726831,0.396837 -2.311495,1.289147 -0.800186,1.221238 -0.790864,1.36194 0.176978,2.671017 0.950305,1.285355 0.969438,1.512801 0.273943,3.256539 -0.411246,1.031068 -0.897074,1.874669 -1.079619,1.874669 -0.182544,0 -1.057073,-0.511389 -1.943396,-1.136421 z"
       id="path3847"
       inkscape:connector-curvature="0"
       transform="translate(0,924.36218)" />
    <path
       style="opacity:0.41880002;fill:#76e1fe;fill-opacity:1;stroke:none"
       d="m 98.502748,21.5877 c -0.824926,-1.729888 -0.76428,-2.305765 0.415672,-3.947071 0.467614,-0.650447 0.470843,-1.144008 0.01404,-2.146574 -0.491731,-1.079235 -0.934334,-1.301915 -2.587717,-1.301915 -1.647925,0 -2.216646,-0.283816 -3.272721,-1.633229 -1.488747,-1.902266 -1.195904,-2.236084 2.393157,-2.7280198 2.826058,-0.3873544 6.244029,1.1058648 7.535419,3.2920278 1.8294,3.09692 0.76087,7.598652 -2.22181,9.360567 l -1.442525,0.852118 -0.833517,-1.747904 0,0 z"
       id="path3849"
       inkscape:connector-curvature="0"
       transform="translate(0,924.36218)" />
  </g>
</svg>
