<?xml version="1.0" encoding="UTF-8" standalone="no"?>
<!-- Generated by IcoMoon.io -->

<svg
   xmlns:dc="http://purl.org/dc/elements/1.1/"
   xmlns:cc="http://creativecommons.org/ns#"
   xmlns:rdf="http://www.w3.org/1999/02/22-rdf-syntax-ns#"
   xmlns:svg="http://www.w3.org/2000/svg"
   xmlns="http://www.w3.org/2000/svg"
   xmlns:sodipodi="http://sodipodi.sourceforge.net/DTD/sodipodi-0.dtd"
   xmlns:inkscape="http://www.inkscape.org/namespaces/inkscape"
   version="1.1"
   width="128"
   height="128"
   viewBox="0 0 128 128"
   id="svg4699"
   inkscape:version="0.91 r13725"
   sodipodi:docname="php.svg">
  <metadata
     id="metadata4707">
    <rdf:RDF>
      <cc:Work
         rdf:about="">
        <dc:format>image/svg+xml</dc:format>
        <dc:type
           rdf:resource="http://purl.org/dc/dcmitype/StillImage" />
        <dc:title></dc:title>
      </cc:Work>
    </rdf:RDF>
  </metadata>
  <defs
     id="defs4705" />
  <sodipodi:namedview
     pagecolor="#ffffff"
     bordercolor="#666666"
     borderopacity="1"
     objecttolerance="10"
     gridtolerance="10"
     guidetolerance="10"
     inkscape:pageopacity="0"
     inkscape:pageshadow="2"
     inkscape:window-width="1920"
     inkscape:window-height="1017"
     id="namedview4703"
     showgrid="false"
     inkscape:zoom="3.2890625"
     inkscape:cx="16"
     inkscape:cy="16"
     inkscape:window-x="-8"
     inkscape:window-y="-8"
     inkscape:window-maximized="1"
     inkscape:current-layer="svg4699" />
  <path
     d="m 33.823381,35.006454 -21.401394,0 -9.252177,74.841556 10.989321,0 2.314393,-19.399853 10.412072,0 c 9.829427,0.922161 20.824143,-12.013949 20.824143,-34.188907 0,-12.93611 -4.628786,-20.330634 -13.880963,-21.252796 z m -8.097679,41.583432 -6.943179,0 2.891643,-27.716543 7.520428,0 c 4.046142,0 6.94318,2.775102 6.94318,8.316687 -0.57725,15.711212 -5.206036,18.477694 -10.412072,19.399856 z m 46.848928,-41.583432 -10.412072,0 2.314393,-19.399855 -10.989321,0 -9.252178,74.841558 10.989321,0 5.206037,-41.574814 8.674927,0 c 4.051537,0 4.051537,2.775102 3.468893,7.394526 l -4.046142,34.188905 11.56657,0 L 84.1412,52.570606 C 85.2957,43.331759 81.826807,35.937233 72.57463,35.015073 Z m 38.75125,0 -21.401394,0 -9.252178,74.841556 10.989322,0 2.314393,-19.399853 10.412067,0 c 9.83483,0.922161 20.82415,-12.013949 20.82415,-34.188907 0,-12.93611 -4.62878,-20.330634 -13.88097,-21.252796 z m -8.09768,41.583432 -6.943179,0 2.891642,-27.716543 7.520437,0 c 4.05153,0 6.94318,2.775102 6.94318,8.316687 -0.57726,15.711212 -5.20604,18.477694 -10.41208,19.399856 z"
     id="path4701"
     inkscape:connector-curvature="0"
     style="fill:#000000;fill-opacity:1" />
</svg>
