<?xml version="1.0" encoding="UTF-8" standalone="no"?>
<!-- Created with Inkscape (http://www.inkscape.org/) -->

<svg
   xmlns:dc="http://purl.org/dc/elements/1.1/"
   xmlns:cc="http://creativecommons.org/ns#"
   xmlns:rdf="http://www.w3.org/1999/02/22-rdf-syntax-ns#"
   xmlns:svg="http://www.w3.org/2000/svg"
   xmlns="http://www.w3.org/2000/svg"
   xmlns:sodipodi="http://sodipodi.sourceforge.net/DTD/sodipodi-0.dtd"
   xmlns:inkscape="http://www.inkscape.org/namespaces/inkscape"
   width="150"
   height="150"
   viewBox="0 0 150 150"
   id="svg2"
   version="1.1"
   inkscape:version="0.91 r13725"
   sodipodi:docname="prolog1.svg">
  <defs
     id="defs4" />
  <sodipodi:namedview
     id="base"
     pagecolor="#ffffff"
     bordercolor="#666666"
     borderopacity="1.0"
     inkscape:pageopacity="0.0"
     inkscape:pageshadow="2"
     inkscape:zoom="0.98994949"
     inkscape:cx="200.30675"
     inkscape:cy="62.429351"
     inkscape:document-units="px"
     inkscape:current-layer="layer1"
     showgrid="false"
     units="px"
     inkscape:window-width="1366"
     inkscape:window-height="706"
     inkscape:window-x="-8"
     inkscape:window-y="-8"
     inkscape:window-maximized="1" />
  <metadata
     id="metadata7">
    <rdf:RDF>
      <cc:Work
         rdf:about="">
        <dc:format>image/svg+xml</dc:format>
        <dc:type
           rdf:resource="http://purl.org/dc/dcmitype/StillImage" />
        <dc:title></dc:title>
      </cc:Work>
    </rdf:RDF>
  </metadata>
  <g
     inkscape:label="Capa 1"
     inkscape:groupmode="layer"
     id="layer1"
     transform="translate(0,-902.36216)">
    <g
       id="g3755"
       inkscape:transform-center-x="18.571429"
       inkscape:transform-center-y="-177.14286"
       transform="translate(-186.51928,504.69841)">
      <path
         style="fill:#f9e6d3"
         d="m 236.87792,519.88724 c -0.89364,-1.07677 -1.1271,-3.4158 -0.75287,-7.54289 0.61263,-6.75612 -0.002,-7.22479 -4.50689,-3.4345 -4.71011,3.9633 -5.81919,3.03954 -7.86125,-6.54764 -0.99577,-4.675 -2.73058,-11.84457 -3.85513,-15.93237 -4.14684,-15.07403 -2.07948,-25.90537 7.9687,-41.7497 3.40385,-5.36731 3.8892,-10.67196 1.41432,-15.45785 -0.8648,-1.67233 -1.30723,-3.7315 -0.98319,-4.57595 0.93753,-2.44317 9.62854,-1.16336 14.64537,2.15662 3.81309,2.52338 4.47982,2.65324 8.4674,1.64915 5.63363,-1.41856 18.68445,-1.39738 23.47566,0.0381 3.46321,1.03761 4.05929,0.90348 7.43815,-1.6737 4.56057,-3.47852 14.08252,-4.78127 15.12328,-2.06911 0.34407,0.89664 -0.0989,2.73595 -0.98437,4.08735 -0.88547,1.35141 -1.60995,4.50302 -1.60995,7.0036 0,3.68043 0.78211,5.69228 4.10579,10.56148 9.35319,13.70242 11.07301,26.36818 5.93077,43.67762 -1.62989,5.48642 -3.26633,11.95744 -3.63652,14.38004 -0.67088,4.39035 -1.92567,6.90473 -3.44576,6.90473 -0.44046,0 -2.13782,-1.125 -3.77191,-2.5 -4.98305,-4.19296 -6.01359,-3.4661 -5.83671,4.11679 0.12761,5.47106 -0.16655,6.81302 -1.69884,7.75 -1.50485,0.9202 -2.06875,0.77721 -3,-0.76074 -0.63075,-1.04168 -2.10098,-3.04415 -3.26719,-4.44995 -2.09432,-2.52461 -2.15413,-2.53387 -4.87025,-0.7542 -1.51244,0.99098 -2.96512,2.62483 -3.22818,3.63077 -1.25351,4.79344 -6.2812,1.38745 -6.2812,-4.25518 0,-2.50761 -0.34009,-2.77749 -3.5,-2.77749 -3.09058,0 -3.5,0.30013 -3.5,2.56574 0,5.44921 -4.12922,8.75322 -5.50846,4.40762 -0.86442,-2.72356 -4.95159,-5.27951 -7.26714,-4.54458 -1.03044,0.32705 -2.51497,2.05151 -3.29896,3.83214 -1.61239,3.66212 -3.98833,4.57316 -5.90467,2.26411 z m 11.90026,-46.78977 c 4.21263,-2.14937 3.64114,-3.60429 -1.34001,-3.41151 -3.69741,0.14309 -5.02119,-0.30938 -7.15864,-2.44682 -4.91534,-4.91535 -2.54635,-13.62506 4.16403,-15.30926 4.03108,-1.01174 9.04579,1.77319 10.51649,5.84036 2.06648,5.71474 4.23319,4.04711 2.83321,-2.1806 -1.15305,-5.12925 -3.72926,-8.24839 -8.58769,-10.39751 -13.24672,-5.85965 -26.14113,8.06991 -19.59687,21.17008 3.09443,6.19436 13.24181,9.75967 19.16948,6.73526 z m 40.11708,-0.98526 c 13.77189,-6.94476 8.93173,-27.75 -6.4558,-27.75 -7.89118,0 -13.8456,4.55609 -15.16819,11.6061 -0.5538,2.95199 -0.15954,3.93329 2.97372,7.40143 2.04762,2.26648 3.61216,5.04372 3.61216,6.41202 0,1.72306 0.78693,2.70119 2.75,3.41817 4.37968,1.5996 7.50816,1.32267 12.28811,-1.08772 z m -7.26297,-3.3088 c -9.69989,-5.26394 -3.59302,-19.84641 6.8658,-16.39469 5.88539,1.94236 7.8781,7.1153 4.93406,12.80846 -1.36047,2.63086 -5.3073,5.19035 -7.87205,5.10499 -0.66162,-0.022 -2.42914,-0.70546 -3.92781,-1.51876 z"
         id="path3827"
         inkscape:connector-curvature="0" />
      <path
         style="fill:#f1d5cf"
         d="m 237.29808,519.66028 c -1.52979,-1.52978 -1.60444,-4.54646 -0.2893,-11.69044 0.53859,-2.92566 -1.58359,-2.95648 -5.01068,-0.0728 -4.85856,4.08821 -6.31455,3.10775 -7.71337,-5.19411 -0.66331,-3.93668 -1.94977,-9.39683 -2.8588,-12.13367 -5.23963,-15.77503 -3.2145,-29.56993 6.44126,-43.87706 3.90019,-5.77897 4.8106,-11.79839 2.51585,-16.63421 -2.10398,-4.43381 -1.41738,-5.6958 3.09887,-5.6958 3.87685,0 6.73528,1.21182 10.11219,4.28701 2.09471,1.90757 2.60337,1.954 8,0.73017 6.77264,-1.53588 18.31585,-1.57963 23.2231,-0.088 3.04093,0.92432 3.90304,0.74472 7.11713,-1.48264 6.52102,-4.51907 14.92282,-5.55725 14.92282,-1.84395 0,0.80729 -0.73253,2.58578 -1.62785,3.9522 -2.25659,3.444 -1.35549,10.28922 1.91991,14.58455 4.48167,5.87721 8.43718,15.12899 9.6921,22.66945 1.33773,8.03801 1.06044,10.64287 -2.46873,23.19123 -1.31483,4.675 -2.90058,11.0875 -3.52391,14.25 -1.31842,6.68916 -2.95244,7.33665 -7.93487,3.14422 -4.20352,-3.53704 -6.229,-2.08094 -4.76017,3.42205 1.34189,5.02738 0.28273,9.18373 -2.34028,9.18373 -1.19678,0 -2.37357,-0.96757 -2.91783,-2.39909 -0.50168,-1.31949 -1.93217,-3.11354 -3.17887,-3.98677 -1.92524,-1.34849 -2.57505,-1.38598 -4.31312,-0.24885 -1.12551,0.73637 -2.64584,2.55629 -3.37851,4.04428 -1.94409,3.94829 -4.47082,2.97464 -5.60993,-2.16173 -0.90348,-4.07387 -1.09554,-4.24784 -4.68964,-4.24784 -3.60708,0 -3.7592,0.14027 -4.05794,3.74168 -0.3772,4.54753 -2.91173,5.52601 -4.61735,1.78258 -0.63996,-1.40454 -2.29335,-3.06849 -3.67422,-3.69765 -2.06431,-0.94056 -2.85097,-0.83597 -4.42479,0.58832 -1.05277,0.95275 -2.17571,2.77451 -2.49543,4.04836 -0.75902,3.02419 -3.12616,3.86627 -5.15764,1.83478 z m 13.20818,-46.42182 c 0.74299,-0.61663 1.35089,-1.92322 1.35089,-2.90354 0,-1.49859 -0.62923,-1.698 -3.95173,-1.25236 -3.43349,0.46053 -4.35148,0.13028 -7,-2.51823 -3.23767,-3.23767 -3.77763,-5.96418 -1.88493,-9.51786 1.73676,-3.26089 3.96144,-4.61703 7.63211,-4.65246 3.71727,-0.0359 8.20455,3.65921 8.20455,6.75608 0,2.4029 0.83099,3.21421 2.59777,2.53623 2.21574,-0.85026 1.71763,-7.55234 -0.84922,-11.42623 -3.19398,-4.82036 -10.52656,-8.28013 -15.6973,-7.40654 -9.11264,1.53957 -14.44103,8.23352 -13.77092,17.30013 0.47687,6.45197 2.80969,9.91282 8.77821,13.02285 3.45177,1.79863 5.42172,2.18829 8.84057,1.7487 2.41951,-0.3111 5.00701,-1.07015 5.75,-1.68677 z m 39.36649,-0.70024 c 4.83798,-2.53256 8.2615,-9.25551 7.65893,-15.04025 -1.11119,-10.66741 -13.28464,-17.49146 -22.60507,-12.67168 -4.05202,2.09538 -7.88257,7.02278 -8.6533,11.13111 -0.59545,3.17405 -0.29219,3.87635 2.96021,6.85544 2.35572,2.15775 3.62363,4.21431 3.62363,5.87754 0,1.51018 0.91061,3.19623 2.22251,4.11513 3.00146,2.1023 10.52615,1.96634 14.79309,-0.26729 z m -9.46091,-5.42601 c -3.91476,-3.44497 -4.30323,-7.70696 -1.05439,-11.56798 2.0294,-2.41181 3.48965,-3.18202 6.03283,-3.18202 7.84227,0 11.56105,8.99673 6.01232,14.54545 -3.11506,3.11507 -7.58872,3.19833 -10.99076,0.20455 z"
         id="path3825"
         inkscape:connector-curvature="0" />
      <path
         style="fill:#f6d0b0"
         d="m 236.79622,518.24836 c -1.10235,-2.05976 -0.88549,-6.08313 0.57329,-10.63615 1.0102,-3.15294 -1.85097,-2.99184 -6.23365,0.35099 -1.87554,1.43054 -3.70194,2.30912 -4.05867,1.95239 -0.35673,-0.35673 -1.61423,-4.78968 -2.79446,-9.85099 -1.18022,-5.06132 -2.93633,-12.11839 -3.90246,-15.6824 -3.28456,-12.11649 -0.77612,-25.1908 7.10266,-37.01999 4.40719,-6.61694 5.45948,-13.00066 2.94467,-17.86376 -0.9087,-1.75724 -1.35015,-3.68367 -0.981,-4.28097 1.18845,-1.92295 9.14502,-0.29518 13.02581,2.66484 3.45518,2.6354 3.86406,2.71275 8.58267,1.62356 6.32431,-1.45983 17.62812,-1.46807 23.39061,-0.0171 3.70565,0.93309 4.76938,0.86792 6.19282,-0.37941 3.15221,-2.76224 8.08015,-4.7472 11.78556,-4.7472 3.507,0 3.63504,0.11944 2.94793,2.75 -0.39507,1.5125 -0.94176,5.15713 -1.21488,8.09917 -0.44609,4.80541 -0.1781,5.79263 2.63632,9.71165 6.08323,8.47074 9.24435,16.78715 9.80662,25.79964 0.44821,7.18415 0.10458,9.75531 -2.59723,19.4337 -1.71258,6.13477 -3.40963,13.00432 -3.77124,15.26567 -0.82496,5.15903 -2.72122,5.94018 -6.23886,2.57007 -4.99462,-4.78516 -7.96537,-3.13152 -6.02271,3.35248 0.90951,3.03568 0.92614,4.63659 0.0677,6.52057 -1.41531,3.10626 -3.95009,3.22927 -5.0906,0.24705 -0.47327,-1.2375 -1.83847,-3.13108 -3.03379,-4.20796 -2.58984,-2.33323 -4.509,-1.50638 -7.55622,3.25552 -1.1,1.71897 -2.51848,3.14273 -3.15218,3.16392 -1.55446,0.052 -3.33164,-5.30738 -2.63866,-7.95731 0.51468,-1.96815 0.22033,-2.10804 -3.82579,-1.81818 -4.29559,0.30772 -4.39339,0.39392 -4.88337,4.30433 -0.54948,4.38519 -3.3622,6.0946 -4.4401,2.69843 -1.94492,-6.12792 -8.07081,-6.53462 -10.84365,-0.71991 -1.9051,3.99503 -4.10835,4.53555 -5.77718,1.41731 z m 11.91171,-43.98398 c 2.3594,-0.82249 3.14922,-1.70325 3.14922,-3.51181 0,-2.23815 -0.27882,-2.36941 -3.82768,-1.80192 -3.12614,0.49988 -4.31767,0.18131 -6.50107,-1.73819 -1.47037,-1.29264 -2.95055,-3.79472 -3.28931,-5.56019 -0.51499,-2.68395 -0.11777,-3.70807 2.42415,-6.25 3.22995,-3.22995 5.95802,-3.76833 9.50965,-1.87672 2.98123,1.58781 4.61448,3.90007 4.65246,6.58666 0.0326,2.30546 1.53138,2.85405 3.8239,1.39965 1.67545,-1.06293 0.14214,-8.38938 -2.52607,-12.07008 -3.02971,-4.17938 -10.45126,-7.39302 -15.21478,-6.58823 -8.18447,1.38276 -14.04642,7.93058 -14.0497,15.69356 -0.005,11.95979 10.64704,19.62238 21.84923,15.71727 z m 42.14922,-1.74987 c 9.54913,-7.01363 9.42401,-21.15091 -0.24086,-27.21573 -2.56596,-1.61017 -4.54042,-1.97341 -9.28337,-1.70784 -7.1705,0.40149 -10.57358,2.50913 -13.46124,8.33699 -2.0588,4.15508 -2.70282,9.43428 -1.15089,9.43428 2.06891,0 6.13636,5.42513 6.13636,8.18464 0,2.31771 0.66319,3.2112 3.25,4.37858 4.04292,1.82451 11.28858,1.13143 14.75,-1.41092 z m -10.54546,-5.60685 c -3.51889,-3.51889 -3.43051,-9.63259 0.18032,-12.47287 7.10814,-5.59127 16.07148,1.71124 12.74396,10.38262 -0.7551,1.96776 -5.50376,4.5448 -8.37462,4.5448 -1.15231,0 -3.19966,-1.10455 -4.54966,-2.45455 z"
         id="path3823"
         inkscape:connector-curvature="0" />
      <path
         style="fill:#ceced0"
         d="m 236.79622,518.24836 c -1.10235,-2.05976 -0.88549,-6.08313 0.57329,-10.63615 1.0102,-3.15294 -1.85097,-2.99184 -6.23365,0.35099 -1.87554,1.43054 -3.70194,2.30912 -4.05867,1.95239 -0.59812,-0.59813 -2.843,-9.55848 -6.77344,-27.036 -2.58124,-11.47803 -0.65648,-21.15524 6.57755,-33.07038 5.69722,-9.38387 6.96237,-14.7631 4.59041,-19.51781 -2.25201,-4.51427 -2.08777,-4.92919 1.95118,-4.92919 3.93309,0 6.78237,1.20095 10.17133,4.28713 2.00844,1.829 2.64593,1.9147 6.23779,0.83855 6.99502,-2.09576 16.07385,-2.43149 22.83977,-0.8446 6.20757,1.45593 6.36203,1.44115 9.11093,-0.8719 3.4668,-2.91712 7.27586,-4.40918 11.25612,-4.40918 2.83635,0 3.00084,0.19387 2.33317,2.75 -0.39507,1.5125 -0.94176,5.15713 -1.21488,8.09917 -0.44609,4.80541 -0.1781,5.79263 2.63632,9.71165 6.08323,8.47074 9.24435,16.78715 9.80662,25.79964 0.44821,7.18415 0.10458,9.75531 -2.59723,19.4337 -1.71258,6.13477 -3.40963,13.00432 -3.77124,15.26567 -0.82496,5.15903 -2.72122,5.94018 -6.23886,2.57007 -4.99462,-4.78516 -7.96537,-3.13152 -6.02271,3.35248 0.90951,3.03568 0.92614,4.63659 0.0677,6.52057 -1.41531,3.10626 -3.95009,3.22927 -5.0906,0.24705 -0.47327,-1.2375 -1.83847,-3.13108 -3.03379,-4.20796 -2.58984,-2.33323 -4.509,-1.50638 -7.55622,3.25552 -1.1,1.71897 -2.51848,3.14273 -3.15218,3.16392 -1.55446,0.052 -3.33164,-5.30738 -2.63866,-7.95731 0.51468,-1.96815 0.22033,-2.10804 -3.82579,-1.81818 -4.29559,0.30772 -4.39339,0.39392 -4.88337,4.30433 -0.54948,4.38519 -3.3622,6.0946 -4.4401,2.69843 -1.94492,-6.12792 -8.07081,-6.53462 -10.84365,-0.71991 -1.9051,3.99503 -4.10835,4.53555 -5.77718,1.41731 z m 13.12667,-43.92133 c 1.11302,-0.59568 1.93426,-2.0867 1.93426,-3.51182 0,-2.31076 -0.25636,-2.43564 -3.82768,-1.86456 -3.12614,0.49988 -4.31767,0.18131 -6.50107,-1.73819 -1.47037,-1.29264 -2.95055,-3.79472 -3.28931,-5.56019 -0.51499,-2.68395 -0.11777,-3.70807 2.42415,-6.25 3.22995,-3.22995 5.95802,-3.76833 9.50965,-1.87672 2.98123,1.58781 4.61448,3.90007 4.65246,6.58666 0.033,2.33201 0.75653,2.6766 3.45001,1.64301 3.87861,-1.48836 0.20784,-12.38691 -5.55394,-16.48965 -4.5238,-3.22124 -12.33837,-3.72271 -17.43975,-1.11913 -5.38628,2.74898 -7.13099,4.94378 -8.3877,10.55146 -1.75946,7.85107 0.98874,14.8796 7.32989,18.74625 3.47755,2.1205 12.44427,2.62477 15.69903,0.88288 z m 39.36854,-0.97935 c 5.82786,-2.88767 7.9355,-6.29074 8.33699,-13.46124 0.39252,-7.0103 -1.66161,-11.26685 -7.01213,-14.53046 -10.05086,-6.13064 -21.70259,-1.34491 -24.80853,10.18963 -1.00208,3.72144 -0.91997,4.3605 0.70792,5.51023 4.28819,3.02858 6.24056,5.59351 6.53164,8.58095 0.55439,5.68976 8.55957,7.51851 16.24411,3.71089 z m -8.97974,-6.44002 c -3.51889,-3.51889 -3.43051,-9.63259 0.18032,-12.47287 7.10814,-5.59127 16.07148,1.71124 12.74396,10.38262 -0.7551,1.96776 -5.50376,4.5448 -8.37462,4.5448 -1.15231,0 -3.19966,-1.10455 -4.54966,-2.45455 z"
         id="path3821"
         inkscape:connector-curvature="0" />
      <path
         style="fill:#f8ca91"
         d="m 237.86363,518.87001 c -1.1,-1.32541 -1.06322,-3.9609 0.15308,-10.96948 0.48592,-2.79996 -2.55325,-3.10624 -6.05815,-0.61053 -4.86048,3.46097 -5.41096,2.89468 -7.95309,-8.18146 -1.29342,-5.63548 -2.99061,-12.94633 -3.77154,-16.24633 -2.56389,-10.83443 -0.44472,-21.37165 6.64737,-33.053 5.69722,-9.38387 6.96237,-14.7631 4.59041,-19.51781 -2.25201,-4.51427 -2.08777,-4.92919 1.95118,-4.92919 3.93309,0 6.78237,1.20095 10.17133,4.28713 2.00844,1.829 2.64593,1.9147 6.23779,0.83855 6.99502,-2.09576 16.07385,-2.43149 22.83977,-0.8446 6.20757,1.45593 6.36203,1.44115 9.11093,-0.8719 3.4668,-2.91712 7.27586,-4.40918 11.25612,-4.40918 2.83635,0 3.00084,0.19387 2.33317,2.75 -0.39507,1.5125 -0.94176,5.15713 -1.21488,8.09917 -0.44609,4.80541 -0.1781,5.79263 2.63632,9.71165 6.07554,8.46004 9.24554,16.79034 9.79112,25.72963 0.43304,7.09552 0.0888,9.63439 -2.53661,18.70955 -1.67071,5.775 -3.42313,12.52144 -3.89429,14.99209 -1.0129,5.3115 -3.28886,6.30317 -6.83036,2.97611 -2.90255,-2.72681 -8.18722,-2.09477 -6.88698,0.82367 1.60379,3.59975 1.63235,9.78769 0.0512,11.0999 -1.32094,1.09627 -1.8437,0.6327 -3.67153,-3.25584 -1.1722,-2.49376 -2.73873,-5.03825 -3.48116,-5.65442 -2.05611,-1.70642 -4.84099,0.28006 -6.95033,4.95773 -2.73039,6.05492 -5.5274,5.03222 -5.5274,-2.02103 0,-2.79195 -0.19469,-2.91821 -4.5,-2.91821 -4.23871,0 -4.50089,0.15968 -4.51531,2.75 -0.008,1.5125 -0.47825,3.425 -1.04406,4.25 -0.87356,1.27371 -1.28611,1.12779 -2.73469,-0.96728 -5.91381,-8.55307 -8.06952,-8.85602 -11.28542,-1.58595 -2.33218,5.27227 -3.26738,6.04514 -4.91404,4.06103 z m 13.53897,-45.96235 c 1.35,-1.35 2.45455,-3.42748 2.45455,-4.61663 0,-1.7859 -0.39148,-2.03853 -2.25,-1.45196 -7.45131,2.3517 -11.21133,0.78165 -12.35873,-5.16057 -0.49588,-2.56806 -0.11849,-3.67998 1.95153,-5.75 5.14898,-5.14898 12.6572,-1.80708 12.6572,5.6337 l 0,3.85137 3,-1.55136 c 2.4699,-1.27724 3,-2.17231 3,-5.06552 0,-4.66012 -3.20044,-10.72895 -7.13573,-13.53112 -6.43356,-4.58111 -17.63304,-3.24228 -23.05763,2.75638 -2.54962,2.81944 -4.04212,10.75493 -2.85125,15.1598 2.22204,8.219 7.52531,12.17104 16.34006,12.17672 4.82276,0.003 6.20743,-0.40823 8.25,-2.45081 z m 37.88883,0.44002 c 5.50306,-2.72673 7.84124,-6.26277 8.37181,-12.66071 0.52351,-6.31282 -0.96338,-10.43788 -4.98086,-13.81837 -10.37211,-8.72755 -24.31728,-3.54062 -27.26148,10.13995 -0.58038,2.69682 -0.21591,3.57737 2.55108,6.16335 1.77551,1.65936 3.71352,4.50678 4.30669,6.32759 1.91714,5.88498 9.45914,7.59094 17.01276,3.84819 z m -7.52094,-6.26727 c -3.14535,-2.41493 -4.1881,-5.64066 -2.85993,-8.84714 3.20798,-7.74476 13.94659,-5.74642 13.94659,2.59531 0,5.64581 -6.84705,9.50689 -11.08666,6.25183 z m -17.8476,5.24662 c 3.74678,-2.00522 1.82699,-7.96482 -2.56574,-7.96482 -4.21116,0 -5.94899,4.40816 -2.92857,7.42857 1.84273,1.84273 2.86643,1.94264 5.49431,0.53625 z"
         id="path3819"
         inkscape:connector-curvature="0" />
      <path
         style="fill:#edb2ae"
         d="m 237.86363,518.87001 c -1.1,-1.32541 -1.06322,-3.9609 0.15308,-10.96948 0.48592,-2.79996 -2.55325,-3.10624 -6.05815,-0.61053 -3.66218,2.6077 -6.10141,2.66359 -6.10141,0.13979 0,-1.06283 -1.41248,-7.25033 -3.13885,-13.75 -3.67599,-13.83989 -4.08089,-23.03152 -1.39124,-31.5826 2.62908,-8.35855 4.17105,-9.07804 4.74044,-2.21192 0.51017,6.15195 2.58684,9.69272 7.74335,13.20259 6.54098,4.45223 16.58446,3.77816 18.88335,-1.26737 1.88376,-4.13439 1.5194,-5.80404 -1.08705,-4.98142 -7.45131,2.3517 -11.21133,0.78165 -12.35873,-5.16057 -0.49588,-2.56806 -0.11849,-3.67998 1.95153,-5.75 5.19794,-5.19794 12.6572,-1.79524 12.6572,5.77384 l 0,3.71123 3,-1.55136 c 1.65,-0.85325 3.06999,-2.3273 3.15552,-3.27568 1.19639,-13.26452 -11.61503,-22.65343 -23.64812,-17.33062 -5.88497,2.60321 -5.65574,2.62667 -4.48265,-0.4588 1.40418,-3.69328 1.13725,-10.52754 -0.52475,-13.4349 -2.07438,-3.62875 -1.88266,-4 2.06574,-4 4.07405,0 6.83132,1.21759 10.5077,4.64012 2.52379,2.34953 2.65885,2.36481 7,0.79217 5.06049,-1.83322 19.58632,-2.17824 24.68121,-0.58622 2.82304,0.88212 3.63343,0.69826 6.11093,-1.38642 3.52378,-2.96506 7.31621,-4.45965 11.3161,-4.45965 2.83635,0 3.00084,0.19387 2.33317,2.75 -0.39507,1.5125 -0.94176,5.15713 -1.21488,8.09917 -0.44609,4.80541 -0.1781,5.79263 2.63632,9.71165 6.07554,8.46004 9.24554,16.79034 9.79112,25.72963 0.43304,7.09552 0.0888,9.63439 -2.53661,18.70955 -1.67071,5.775 -3.42313,12.52144 -3.89429,14.99209 -1.0129,5.3115 -3.28886,6.30317 -6.83036,2.97611 -2.90255,-2.72681 -8.18722,-2.09477 -6.88698,0.82367 1.60379,3.59975 1.63235,9.78769 0.0512,11.0999 -1.32094,1.09627 -1.8437,0.6327 -3.67153,-3.25584 -1.1722,-2.49376 -2.73873,-5.03825 -3.48116,-5.65442 -2.05611,-1.70642 -4.84099,0.28006 -6.95033,4.95773 -2.73039,6.05492 -5.5274,5.03222 -5.5274,-2.02103 0,-2.79195 -0.19469,-2.91821 -4.5,-2.91821 -4.23871,0 -4.50089,0.15968 -4.51531,2.75 -0.008,1.5125 -0.47825,3.425 -1.04406,4.25 -0.87356,1.27371 -1.28611,1.12779 -2.73469,-0.96728 -5.91381,-8.55307 -8.06952,-8.85602 -11.28542,-1.58595 -2.33218,5.27227 -3.26738,6.04514 -4.91404,4.06103 z m 51.4278,-45.52233 c 5.80524,-2.87645 7.92926,-6.29234 8.37031,-13.46124 0.31,-5.03887 -0.0131,-6.59671 -1.97506,-9.52423 -2.66807,-3.98105 -9.81461,-8 -14.2257,-8 -7.47461,0 -15.02187,6.63892 -16.26652,14.3088 -0.47053,2.89959 -0.0754,3.83464 2.72774,6.45437 1.80289,1.68495 3.7633,4.5533 4.35647,6.37411 1.91714,5.88498 9.45914,7.59094 17.01276,3.84819 z m -7.52094,-6.26727 c -3.14535,-2.41493 -4.1881,-5.64066 -2.85993,-8.84714 3.20798,-7.74476 13.94659,-5.74642 13.94659,2.59531 0,5.64581 -6.84705,9.50689 -11.08666,6.25183 z m -17.8476,5.24662 c 3.74678,-2.00522 1.82699,-7.96482 -2.56574,-7.96482 -4.21116,0 -5.94899,4.40816 -2.92857,7.42857 1.84273,1.84273 2.86643,1.94264 5.49431,0.53625 z"
         id="path3817"
         inkscape:connector-curvature="0" />
      <path
         style="fill:#bec0c2"
         d="m 237.86363,518.87001 c -1.20157,-1.4478 -0.97837,-6.73228 0.47142,-11.1614 1.15446,-3.52687 -2.81473,-4.08221 -6.57318,-0.91968 -3.87286,3.2588 -4.7338,3.23074 -5.42217,-0.17672 -0.30555,-1.5125 -1.50138,-6.575 -2.6574,-11.25 -4.53962,-18.35841 -4.80553,-20.22455 -3.7941,-26.62664 1.72264,-10.9038 5.96895,-18.30255 5.96895,-10.40026 0,10.69972 9.34365,19.10221 19.54132,17.57297 5.44211,-0.81609 7.28135,-2.28118 8.10172,-6.45363 0.63839,-3.24687 0.5565,-3.37214 -1.73653,-2.65651 -7.64569,2.38615 -11.35925,0.86704 -12.51524,-5.11964 -0.49588,-2.56806 -0.11849,-3.67998 1.95153,-5.75 5.22416,-5.22416 12.6572,-1.79445 12.6572,5.84021 l 0,3.7776 3.25,-1.90805 c 2.80758,-1.64831 3.2223,-2.40256 3.04651,-5.54072 -0.68099,-12.15688 -12.78584,-19.7089 -23.78911,-14.84163 -5.88497,2.60321 -5.65574,2.62667 -4.48265,-0.4588 1.40418,-3.69328 1.13725,-10.52754 -0.52475,-13.4349 -2.07438,-3.62875 -1.88266,-4 2.06574,-4 4.07405,0 6.83132,1.21759 10.5077,4.64012 2.5213,2.34722 2.66311,2.36345 7,0.80118 5.46232,-1.96767 19.0499,-2.25678 24.25278,-0.51603 3.45098,1.1546 4.03941,1.08619 6,-0.6976 3.4192,-3.11085 6.22152,-4.22767 10.60804,-4.22767 4.46143,0 4.66813,0.32225 2.56574,4 -2.6993,4.72194 -1.8816,10.01506 2.6166,16.93763 2.26412,3.48442 4.9387,8.19382 5.94351,10.46534 2.33331,5.27484 4.22097,16.99663 3.38275,21.00588 -0.91694,4.38582 -6.44495,27.74331 -7.06249,29.84115 -0.73151,2.48499 -3.26492,2.16661 -5.96795,-0.75 -2.65783,-2.86785 -3.34025,-3.00448 -5.8479,-1.17084 -1.48465,1.0856 -1.61129,1.71492 -0.69113,3.43426 1.58713,2.96559 1.40048,8.7644 -0.3283,10.19916 -1.2087,1.00313 -1.81558,0.44018 -3.5862,-3.32665 -1.17221,-2.49376 -2.73873,-5.03825 -3.48117,-5.65442 -2.05611,-1.70642 -4.84099,0.28006 -6.95032,4.95773 -2.83493,6.28674 -4.82847,5.26725 -5.74744,-2.93924 -0.24652,-2.20137 -0.75575,-2.5 -4.263,-2.5 -3.82967,0 -4.00657,0.14482 -4.59437,3.76104 -0.81508,5.01445 -1.80707,5.74146 -3.7819,2.77168 -5.65918,-8.51031 -8.0102,-8.84263 -11.22017,-1.58595 -2.33218,5.27227 -3.26738,6.04514 -4.91404,4.06103 z m 53.85434,-46.25321 c 10.05108,-7.50422 9.07445,-22.50947 -1.82271,-28.00459 -5.55194,-2.79968 -10.16245,-2.85231 -15.68468,-0.17905 -4.76441,2.30641 -8.16304,6.98098 -9.0502,12.44788 -0.51784,3.19105 -0.20604,3.91666 2.7398,6.37596 1.9665,1.6417 3.77033,4.3741 4.41662,6.69016 0.98526,3.53087 1.53149,4.02166 5.56641,5.00147 5.14411,1.24916 10.1739,0.4014 13.83476,-2.33183 z m -9.94748,-5.53639 c -3.14535,-2.41493 -4.1881,-5.64066 -2.85993,-8.84714 3.20798,-7.74476 13.94659,-5.74642 13.94659,2.59531 0,5.64581 -6.84705,9.50689 -11.08666,6.25183 z m -17.8476,5.24662 c 3.74678,-2.00522 1.82699,-7.96482 -2.56574,-7.96482 -4.21116,0 -5.94899,4.40816 -2.92857,7.42857 1.84273,1.84273 2.86643,1.94264 5.49431,0.53625 z"
         id="path3815"
         inkscape:connector-curvature="0" />
      <path
         style="fill:#bcbec0"
         d="m 237.55839,518.73011 c -1.07278,-1.07277 -0.83374,-8.16798 0.29876,-8.8679 1.7434,-1.07748 1.07957,-4.33997 -1.01856,-5.00589 -1.37284,-0.43572 -2.99684,0.1825 -5.07672,1.93261 -3.87286,3.2588 -4.7338,3.23074 -5.42217,-0.17672 -0.30555,-1.5125 -1.50138,-6.575 -2.6574,-11.25 -4.53962,-18.35841 -4.80553,-20.22455 -3.7941,-26.62664 1.72264,-10.9038 5.96895,-18.30255 5.96895,-10.40026 0,2.25013 0.61381,5.5602 1.36403,7.35571 2.77179,6.63383 11.51196,11.46373 18.45115,10.19628 5.28631,-0.96556 7.80156,-2.91572 8.65095,-6.70737 l 0.74322,-3.31772 0.93404,3.28908 c 1.72789,6.08445 8.98082,6.54854 10.45647,0.66907 0.68734,-2.73858 -0.87903,-5.25595 -3.98539,-6.40506 -1.4308,-0.52929 -2.02308,-1.8108 -2.20904,-4.77964 -0.79397,-12.67612 -12.69524,-20.33527 -23.89803,-15.37975 -5.88497,2.60321 -5.65574,2.62667 -4.48265,-0.4588 1.40418,-3.69328 1.13725,-10.52754 -0.52475,-13.4349 -2.07438,-3.62875 -1.88266,-4 2.06574,-4 4.07405,0 6.83132,1.21759 10.5077,4.64012 2.5213,2.34722 2.66311,2.36345 7,0.80118 5.46232,-1.96767 19.0499,-2.25678 24.25278,-0.51603 3.45098,1.1546 4.03941,1.08619 6,-0.6976 3.4192,-3.11085 6.22152,-4.22767 10.60804,-4.22767 4.46143,0 4.66813,0.32225 2.56574,4 -2.6993,4.72194 -1.8816,10.01506 2.6166,16.93763 5.68556,8.74989 7.62244,13.49734 8.92083,21.86568 1.0587,6.82346 0.93141,7.94894 -2.48177,21.94451 -1.97874,8.1137 -3.82182,15.76468 -4.09574,17.00218 -0.64153,2.89835 -1.97068,2.83946 -5.64229,-0.25 -3.44389,-2.89784 -3.80294,-2.96244 -6.30336,-1.13409 -1.64419,1.20226 -1.71779,1.72853 -0.61434,4.39251 1.58202,3.81931 1.0815,8.63338 -0.93733,9.01541 -0.9979,0.18884 -2.0075,-1.03638 -2.87702,-3.49145 -1.79666,-5.07284 -2.89238,-6.28238 -5.69118,-6.28238 -1.83583,0 -2.93774,1.13873 -4.956,5.12156 -2.90876,5.74016 -4.32711,5.52254 -5.34905,-0.82071 -0.55112,-3.42084 -0.94266,-3.83267 -3.91617,-4.11908 -4.28593,-0.41283 -6.17318,1.25048 -6.17318,5.44067 0,4.53831 -1.36844,4.25324 -4.18806,-0.87244 -1.67589,-3.04653 -3.0664,-4.33511 -4.91052,-4.55056 -3.03975,-0.35513 -4.39665,1.04389 -5.62445,5.79903 -0.85436,3.30886 -3.03244,4.91273 -4.57573,3.36943 z m 54.15958,-46.11331 c 10.05108,-7.50422 9.07445,-22.50947 -1.82271,-28.00459 -5.55194,-2.79968 -10.16245,-2.85231 -15.68468,-0.17905 -4.762,2.30525 -8.16298,6.98061 -9.04884,12.43954 -0.51897,3.19801 -0.18337,3.95853 3.05621,6.92587 2.32079,2.12576 3.6392,4.23643 3.6392,5.82607 0,3.12681 1.59888,4.47186 6.57831,5.53398 4.70593,1.00377 9.85278,0.0188 13.28251,-2.54182 z m -10.1541,-6.27065 c -3.71612,-2.9231 -3.74968,-8.01839 -0.0719,-10.91136 3.46016,-2.72177 5.91196,-2.61667 8.91059,0.38196 6.3025,6.3025 -1.85624,16.02183 -8.83873,10.5294 z m -39,0 c -3.51649,-2.76607 -3.69576,-7.70616 -0.39227,-10.80963 3.03217,-2.84857 6.19832,-2.75245 9.231,0.28023 6.3025,6.3025 -1.85624,16.02183 -8.83873,10.5294 z"
         id="path3813"
         inkscape:connector-curvature="0" />
      <path
         style="fill:#f3b48f"
         d="m 237.2299,516.71124 c -0.36594,-1.45803 -0.14951,-4.07748 0.48095,-5.82099 1.5847,-4.3824 1.45262,-5.29604 -0.87226,-6.03393 -1.37284,-0.43572 -2.99684,0.1825 -5.07672,1.93261 -3.87286,3.2588 -4.7338,3.23074 -5.42217,-0.17672 -0.30555,-1.5125 -1.50138,-6.575 -2.6574,-11.25 -4.53962,-18.35841 -4.80553,-20.22455 -3.7941,-26.62664 1.72264,-10.9038 5.96895,-18.30255 5.96895,-10.40026 0,7.77903 3.88955,13.4115 11.43999,16.56627 4.79184,2.00216 11.26076,1.27046 15.03835,-1.70099 2.35883,-1.85546 2.78815,-1.90907 4.32038,-0.53953 3.25638,2.91062 7.60645,2.53861 9.82008,-0.83981 1.36683,-2.08605 1.45377,-3.00436 0.48561,-5.12923 -0.64861,-1.42354 -0.9402,-2.82735 -0.64798,-3.11957 1.00306,-1.00307 4.57412,3.12835 5.36636,6.20842 0.96552,3.75378 4.65204,5.74801 10.62574,5.74801 13.40677,0 20.75965,-14.11821 13.5279,-25.97481 -2.34117,-3.8384 -8.8154,-7.13778 -14.06915,-7.1699 -8.41472,-0.0514 -16.90728,8.30452 -16.90728,16.63532 0,2.67605 -0.39888,3.34272 -2,3.34272 -1.1,0 -2.03037,-0.3375 -2.06749,-0.75 -1.07149,-11.90743 -6.09795,-18.29338 -15.59417,-19.81189 -3.0344,-0.48522 -5.28029,-0.11503 -8.83094,1.45559 -5.88497,2.60321 -5.65574,2.62667 -4.48265,-0.4588 1.40418,-3.69328 1.13725,-10.52754 -0.52475,-13.4349 -2.07438,-3.62875 -1.88266,-4 2.06574,-4 4.07405,0 6.83132,1.21759 10.5077,4.64012 2.5213,2.34722 2.66311,2.36345 7,0.80118 5.46232,-1.96767 19.0499,-2.25678 24.25278,-0.51603 3.45098,1.1546 4.03941,1.08619 6,-0.6976 3.4192,-3.11085 6.22152,-4.22767 10.60804,-4.22767 4.46143,0 4.66813,0.32225 2.56574,4 -2.6993,4.72194 -1.8816,10.01506 2.6166,16.93763 5.69362,8.76229 7.62253,13.49792 8.92977,21.92325 1.06829,6.88533 0.94837,7.96371 -2.38474,21.44451 -1.93027,7.80704 -3.77737,15.43211 -4.10466,16.94461 -0.73588,3.40068 -1.933,3.45283 -5.73934,0.25 -3.42573,-2.88256 -3.81084,-2.95667 -6.21797,-1.19654 -1.56491,1.1443 -1.64299,1.82192 -0.63934,5.54917 2.10592,7.82081 -1.07629,11.06372 -3.627,3.69617 -1.74259,-5.03334 -3.09248,-6.5488 -5.83332,-6.5488 -2.68897,0 -3.80305,1.24922 -5.57387,6.25 -0.73035,2.0625 -1.91251,3.75 -2.62702,3.75 -1.19289,0 -1.39854,-0.60587 -1.69717,-5 -0.1889,-2.77953 -1.70257,-4 -4.96096,-4 -3.92839,0 -5.64098,1.52811 -5.64098,5.03333 0,4.45137 -1.24697,4.20763 -3.93484,-0.76912 -2.1775,-4.03178 -3.02778,-4.76421 -5.53077,-4.76421 -3.13374,0 -4.88788,2.26194 -6.01014,7.75 -0.7165,3.50382 -3.28159,3.56501 -4.1515,0.099 z m 4.22227,-51.51684 c -2.71549,-3.8769 -1.60332,-8.68701 2.51863,-10.89301 2.96534,-1.58701 7.41395,0.50613 8.94826,4.21029 1.07387,2.59256 0.97507,3.32552 -0.76355,5.66422 -2.75092,3.70038 -8.44534,4.24225 -10.70334,1.0185 z m 39.40498,0.16781 c -5.06872,-5.06872 0.68323,-13.59173 7.4392,-11.02312 6.92168,2.63162 4.91839,13.02312 -2.51063,13.02312 -1.61071,0 -3.82857,-0.9 -4.92857,-2 z"
         id="path3811"
         inkscape:connector-curvature="0" />
      <path
         style="fill:#f8c56e"
         d="m 237.2299,516.71124 c -0.36594,-1.45803 -0.14951,-4.07748 0.48095,-5.82099 1.5847,-4.3824 1.45262,-5.29604 -0.87226,-6.03393 -1.37284,-0.43572 -2.99684,0.1825 -5.07672,1.93261 -3.75263,3.15763 -4.73928,3.21768 -5.31124,0.32328 -0.24454,-1.2375 -1.88309,-8.325 -3.64122,-15.75 -3.73363,-15.768 -3.69684,-24.45663 0.13831,-32.66732 l 2.25731,-4.83268 0.66148,6.11449 c 0.41214,3.80973 1.48001,7.26402 2.83303,9.16417 2.55166,3.58348 9.51577,7.22134 13.82411,7.22134 4.01991,0 9.54892,-1.96758 10.99318,-3.91209 1.04755,-1.41038 1.33764,-1.40215 3,0.0851 3.39276,3.03539 7.705,2.72624 9.95912,-0.71398 1.36683,-2.08605 1.45377,-3.00436 0.48561,-5.12923 -0.64861,-1.42354 -0.89916,-2.86761 -0.55678,-3.20904 0.95778,-0.9551 5.45237,4.74267 5.45237,6.91194 0,2.89731 4.34965,5.19806 9.8271,5.19806 14.0936,0 21.83837,-14.63714 13.89855,-26.26741 -3.01144,-4.41117 -8.14624,-6.96336 -14.00971,-6.96336 -5.83913,0 -9.77151,1.89524 -13.16575,6.34531 -2.39984,3.14635 -4.9161,11.95545 -3.74851,13.12304 0.29241,0.29241 -0.44335,0.53165 -1.63501,0.53165 -1.19167,0 -2.08095,-0.3375 -1.97617,-0.75 0.36902,-1.45283 -1.45579,-7.79192 -3.28145,-11.39923 -3.76697,-7.44313 -13.2984,-10.54152 -21.40165,-6.95707 -2.6189,1.15847 -4.9183,2.1063 -5.10977,2.1063 -0.19147,0 0.10869,-1.20153 0.66703,-2.67008 1.42581,-3.75015 1.40842,-10.57744 -0.0338,-13.27224 -0.85705,-1.60142 -0.903,-2.58555 -0.1556,-3.33294 1.47412,-1.47413 8.23427,0.65511 11.91618,3.75323 2.79206,2.34936 3.03142,2.3796 7.704,0.97336 5.77253,-1.73727 15.5076,-1.87706 22.25503,-0.31957 4.72512,1.09069 5.05996,1.0181 9.22633,-2 3.26681,-2.36647 5.38624,-3.13176 8.67323,-3.13176 4.75331,0 4.96595,0.29845 2.84996,4 -2.6993,4.72194 -1.8816,10.01506 2.6166,16.93763 5.69362,8.76229 7.62253,13.49792 8.92977,21.92325 1.06829,6.88533 0.94837,7.96371 -2.38474,21.44451 -1.93027,7.80704 -3.77737,15.43211 -4.10466,16.94461 -0.73588,3.40068 -1.933,3.45283 -5.73934,0.25 -3.42573,-2.88256 -3.81084,-2.95667 -6.21797,-1.19654 -1.56491,1.1443 -1.64299,1.82192 -0.63934,5.54917 2.10592,7.82081 -1.07629,11.06372 -3.627,3.69617 -1.74259,-5.03334 -3.09248,-6.5488 -5.83332,-6.5488 -2.68897,0 -3.80305,1.24922 -5.57387,6.25 -0.73035,2.0625 -1.91251,3.75 -2.62702,3.75 -1.19289,0 -1.39854,-0.60587 -1.69717,-5 -0.1889,-2.77953 -1.70257,-4 -4.96096,-4 -3.92839,0 -5.64098,1.52811 -5.64098,5.03333 0,4.45137 -1.24697,4.20763 -3.93484,-0.76912 -2.1775,-4.03178 -3.02778,-4.76421 -5.53077,-4.76421 -3.13374,0 -4.88788,2.26194 -6.01014,7.75 -0.7165,3.50382 -3.28159,3.56501 -4.1515,0.099 z m 4.22227,-51.51684 c -2.71549,-3.8769 -1.60332,-8.68701 2.51863,-10.89301 2.96534,-1.58701 7.41395,0.50613 8.94826,4.21029 1.07387,2.59256 0.97507,3.32552 -0.76355,5.66422 -2.75092,3.70038 -8.44534,4.24225 -10.70334,1.0185 z m 39.40498,0.16781 c -5.06872,-5.06872 0.68323,-13.59173 7.4392,-11.02312 6.92168,2.63162 4.91839,13.02312 -2.51063,13.02312 -1.61071,0 -3.82857,-0.9 -4.92857,-2 z"
         id="path3809"
         inkscape:connector-curvature="0" />
      <path
         style="fill:#f4af6f"
         d="m 237.2299,516.71124 c -0.36594,-1.45803 -0.14951,-4.07748 0.48095,-5.82099 1.5847,-4.3824 1.45262,-5.29604 -0.87226,-6.03393 -1.37284,-0.43572 -2.99684,0.1825 -5.07672,1.93261 -3.75263,3.15763 -4.73928,3.21768 -5.31124,0.32328 -0.24454,-1.2375 -1.88309,-8.325 -3.64122,-15.75 -2.58872,-10.93278 -3.09618,-14.83115 -2.66855,-20.5 0.85349,-11.3143 5.71629,-20.53758 5.71629,-10.84211 0,10.91357 11.77825,18.87593 22.63341,15.30067 2.12662,-0.70042 4.38845,-1.98416 5.02627,-2.85275 1.05383,-1.43511 1.32766,-1.42897 3,0.0672 3.39276,3.03538 7.705,2.72623 9.95912,-0.71399 1.36683,-2.08604 1.45377,-3.00435 0.48561,-5.12923 -0.64861,-1.42354 -0.89916,-2.86761 -0.55678,-3.20904 0.95778,-0.9551 5.45237,4.74267 5.45237,6.91194 0,2.89731 4.34965,5.19806 9.8271,5.19806 14.0936,0 21.83837,-14.63714 13.89855,-26.26741 -3.01144,-4.41117 -8.14624,-6.96336 -14.00971,-6.96336 -5.83913,0 -9.77151,1.89524 -13.16575,6.34531 -2.39984,3.14635 -4.9161,11.95545 -3.74851,13.12304 0.29241,0.29241 -0.34763,0.53165 -1.42231,0.53165 -1.47075,0 -2.01281,-0.7724 -2.19195,-3.1234 -0.41885,-5.49694 -4.17023,-12.70286 -7.77189,-14.9288 -6.42501,-3.97088 -11.61337,-4.35607 -18.81992,-1.39723 -1.74599,0.71686 -1.84942,0.43812 -1.24349,-3.35115 0.42517,-2.65885 0.1363,-5.65572 -0.80986,-8.40198 -0.90915,-2.63883 -1.11482,-4.62488 -0.53861,-5.20109 1.44829,-1.44829 8.90514,1.20219 11.61815,4.12958 l 2.38659,2.57517 5.11064,-1.65055 c 5.93173,-1.91573 15.61765,-2.13777 22.63145,-0.51879 4.72511,1.09069 5.05996,1.0181 9.22633,-2 3.26681,-2.36647 5.38624,-3.13176 8.67323,-3.13176 4.75331,0 4.96595,0.29845 2.84996,4 -2.6993,4.72194 -1.8816,10.01506 2.6166,16.93763 5.69362,8.76229 7.62253,13.49792 8.92977,21.92325 1.06829,6.88533 0.94837,7.96371 -2.38474,21.44451 -1.93027,7.80704 -3.77737,15.43211 -4.10466,16.94461 -0.73588,3.40068 -1.933,3.45283 -5.73934,0.25 -3.42573,-2.88256 -3.81084,-2.95667 -6.21797,-1.19654 -1.56491,1.1443 -1.64299,1.82192 -0.63934,5.54917 2.10592,7.82081 -1.07629,11.06372 -3.627,3.69617 -1.74259,-5.03334 -3.09248,-6.5488 -5.83332,-6.5488 -2.68897,0 -3.80305,1.24922 -5.57387,6.25 -0.73035,2.0625 -1.91251,3.75 -2.62702,3.75 -1.19289,0 -1.39854,-0.60587 -1.69717,-5 -0.1889,-2.77953 -1.70257,-4 -4.96096,-4 -3.92839,0 -5.64098,1.52811 -5.64098,5.03333 0,4.45137 -1.24697,4.20763 -3.93484,-0.76912 -2.1775,-4.03178 -3.02778,-4.76421 -5.53077,-4.76421 -3.13374,0 -4.88788,2.26194 -6.01014,7.75 -0.7165,3.50382 -3.28159,3.56501 -4.1515,0.099 z m 4.22227,-51.51684 c -2.71549,-3.8769 -1.60332,-8.68701 2.51863,-10.89301 2.96534,-1.58701 7.41395,0.50613 8.94826,4.21029 1.07387,2.59256 0.97507,3.32552 -0.76355,5.66422 -2.75092,3.70038 -8.44534,4.24225 -10.70334,1.0185 z m 39.40498,0.16781 c -5.06872,-5.06872 0.68323,-13.59173 7.4392,-11.02312 6.92168,2.63162 4.91839,13.02312 -2.51063,13.02312 -1.61071,0 -3.82857,-0.9 -4.92857,-2 z"
         id="path3807"
         inkscape:connector-curvature="0" />
      <path
         style="fill:#aeafb1"
         d="m 237.2299,516.71124 c -0.36594,-1.45803 -0.14951,-4.07748 0.48095,-5.82099 1.5847,-4.3824 1.45262,-5.29604 -0.87226,-6.03393 -1.37284,-0.43572 -2.99684,0.1825 -5.07672,1.93261 -3.75263,3.15763 -4.73926,3.21768 -5.3113,0.32328 -0.24457,-1.2375 -1.72784,-7.69965 -3.29616,-14.36033 -2.48247,-10.54315 -2.76539,-13.26073 -2.18629,-21 0.36585,-4.88932 1.2216,-10.23967 1.90168,-11.88967 l 1.2365,-3 1.2811,5.46697 c 2.34632,10.01272 12.34666,16.45581 21.71975,13.99376 2.3375,-0.614 5.00306,-2.08226 5.92346,-3.2628 1.55863,-1.99917 1.79878,-2.03433 3.5,-0.51244 3.37922,3.02301 7.69516,2.70775 9.94534,-0.72645 1.36683,-2.08605 1.45377,-3.00436 0.48561,-5.12923 -0.64861,-1.42354 -0.89916,-2.86761 -0.55678,-3.20904 0.95778,-0.9551 5.45237,4.74267 5.45237,6.91194 0,2.89731 4.34965,5.19806 9.8271,5.19806 13.03998,0 20.67654,-11.91926 15.26747,-23.8297 -2.31104,-5.08875 -6.35684,-8.04951 -12.92402,-9.45791 -4.3834,-0.94007 -5.66062,-0.81997 -9.54296,0.89738 -5.10382,2.25766 -9.11212,7.55477 -10.1798,13.45298 -0.85049,4.69836 -2.62614,4.32372 -3.68606,-0.77773 -1.56171,-7.51656 -7.06225,-13.04649 -14.76173,-14.8406 -2.39807,-0.55879 -7.49851,0.26992 -11.30124,1.83621 -1.6439,0.6771 -1.742,0.29528 -1.123,-4.37101 0.44019,-3.31827 0.23543,-6.18201 -0.58335,-8.15872 -0.69389,-1.67519 -0.99703,-3.31039 -0.67364,-3.63377 1.19968,-1.19969 7.72116,0.81482 10.66979,3.29593 l 3.04743,2.56424 8.47957,-1.68262 c 8.25904,-1.63887 12.46053,-1.48175 23.23444,0.86882 1.2375,0.26999 2.25,0.083 2.25,-0.41564 0,-2.1346 7.54331,-5.97863 11.73214,-5.97863 4.66898,0 4.88007,0.30507 2.76786,4 -2.6993,4.72194 -1.8816,10.01506 2.6166,16.93763 5.69362,8.76229 7.62253,13.49792 8.92977,21.92325 1.06829,6.88533 0.94837,7.96371 -2.38474,21.44451 -1.93027,7.80704 -3.77737,15.43211 -4.10466,16.94461 -0.73588,3.40068 -1.933,3.45283 -5.73934,0.25 -3.42573,-2.88256 -3.81084,-2.95667 -6.21797,-1.19654 -1.56491,1.1443 -1.64299,1.82192 -0.63934,5.54917 2.10592,7.82081 -1.07629,11.06372 -3.627,3.69617 -1.74259,-5.03334 -3.09248,-6.5488 -5.83332,-6.5488 -2.68897,0 -3.80305,1.24922 -5.57387,6.25 -0.73035,2.0625 -1.91251,3.75 -2.62702,3.75 -1.19289,0 -1.39854,-0.60587 -1.69717,-5 -0.1889,-2.77953 -1.70257,-4 -4.96096,-4 -3.92839,0 -5.64098,1.52811 -5.64098,5.03333 0,4.45137 -1.24697,4.20763 -3.93484,-0.76912 -2.1775,-4.03178 -3.02778,-4.76421 -5.53077,-4.76421 -3.13374,0 -4.88788,2.26194 -6.01014,7.75 -0.7165,3.50382 -3.28159,3.56501 -4.1515,0.099 z m 4.22227,-51.51684 c -2.71549,-3.8769 -1.60332,-8.68701 2.51863,-10.89301 2.96534,-1.58701 7.41395,0.50613 8.94826,4.21029 1.07387,2.59256 0.97507,3.32552 -0.76355,5.66422 -2.75092,3.70038 -8.44534,4.24225 -10.70334,1.0185 z m 39.40498,0.16781 c -5.06872,-5.06872 0.68323,-13.59173 7.4392,-11.02312 6.92168,2.63162 4.91839,13.02312 -2.51063,13.02312 -1.61071,0 -3.82857,-0.9 -4.92857,-2 z m -19.25,-3.66228 c 0.6875,-0.27741 1.8125,-0.27741 2.5,0 0.6875,0.27741 0.125,0.50438 -1.25,0.50438 -1.375,0 -1.9375,-0.22697 -1.25,-0.50438 z"
         id="path3805"
         inkscape:connector-curvature="0" />
      <path
         style="fill:#e9938f"
         d="m 237.85715,514.42123 c 0,-2.16754 0.45,-4.2191 1,-4.55902 1.7983,-1.11141 1.05116,-3.51957 -1.44478,-4.65679 -2.09485,-0.95448 -2.89308,-0.73671 -5.57673,1.52143 -3.82752,3.22065 -4.81081,3.29101 -5.38507,0.38536 -0.24457,-1.2375 -1.72784,-7.69965 -3.29616,-14.36033 -2.48247,-10.54315 -2.76539,-13.26073 -2.18629,-21 0.36585,-4.88932 1.2216,-10.23967 1.90168,-11.88967 l 1.2365,-3 1.2811,5.46697 c 2.34938,10.02577 12.371,16.47336 21.71975,13.9738 2.3375,-0.62497 4.79317,-1.58138 5.45704,-2.12534 0.82128,-0.67293 1.93108,-0.48188 3.47251,0.59778 4.48228,3.13951 10.9482,1.40575 13.19545,-3.53821 0.49107,-1.08036 0.7515,-1.10264 1.21535,-0.10396 1.8853,4.05914 13.40399,5.84242 18.98618,2.93936 8.55936,-4.45136 11.57037,-13.38634 7.51804,-22.30933 -2.31104,-5.08875 -6.35684,-8.04951 -12.92402,-9.45791 -4.3834,-0.94007 -5.66062,-0.81997 -9.54296,0.89738 -5.10382,2.25766 -9.11212,7.55477 -10.1798,13.45298 -0.85049,4.69836 -2.62614,4.32372 -3.68606,-0.77773 -1.56171,-7.51656 -7.06225,-13.04649 -14.76173,-14.8406 -2.39807,-0.55879 -7.49851,0.26992 -11.30124,1.83621 -1.6439,0.6771 -1.742,0.29528 -1.123,-4.37101 0.44019,-3.31827 0.23543,-6.18201 -0.58335,-8.15872 -0.69389,-1.67519 -0.99703,-3.31039 -0.67364,-3.63377 1.19968,-1.19969 7.72116,0.81482 10.66979,3.29593 l 3.04743,2.56424 8.47957,-1.68262 c 8.25904,-1.63887 12.46053,-1.48175 23.23444,0.86882 1.2375,0.26999 2.25,0.083 2.25,-0.41564 0,-2.1346 7.54331,-5.97863 11.73214,-5.97863 4.66898,0 4.88007,0.30507 2.76786,4 -2.6993,4.72194 -1.8816,10.01506 2.6166,16.93763 5.67091,8.72735 7.62227,13.49627 8.90481,21.76241 0.96295,6.20635 0.84332,8.09832 -0.96075,15.19451 -1.13336,4.458 -2.99638,11.81795 -4.14004,16.35545 -1.14366,4.5375 -2.39653,8.58037 -2.78415,8.98415 -0.38763,0.40379 -2.30706,-0.40589 -4.26541,-1.79928 -3.15774,-2.24676 -3.86864,-2.39309 -6.28256,-1.29324 -2.09077,0.95262 -2.57842,1.71764 -2.10309,3.29928 1.35117,4.49591 1.75015,9.55909 0.75325,9.55909 -1.25308,0 -2.23866,-2.38918 -2.23866,-5.4268 0,-3.07162 -3.01019,-5.5732 -6.7063,-5.5732 -3.56513,0 -4.78093,1.21234 -6.01712,6 -1.1078,4.29039 -2.65842,4.54076 -3.11681,0.50325 -0.40181,-3.5391 -1.58447,-4.46724 -5.71864,-4.48794 -3.81835,-0.0191 -6.18221,1.74102 -6.69445,4.98469 -0.36288,2.29789 -0.45388,2.33831 -1.12559,0.5 -2.14794,-5.87834 -3.19404,-7.00085 -6.80749,-7.3047 -4.33438,-0.36447 -6.8136,2.3744 -6.8136,7.52721 0,2.24666 -0.47178,3.27749 -1.5,3.27749 -1.07959,0 -1.5,-1.10455 -1.5,-3.94098 z m 5.76226,-48.13226 c -3.6832,-2.14586 -4.54862,-7.92676 -1.18666,-7.92676 0.79608,0 1.1239,-0.61953 0.78926,-1.49157 -0.72433,-1.88758 1.84232,-2.92423 5.17138,-2.08869 5.17125,1.2979 5.82155,9.18495 0.94068,11.40882 -3.07172,1.39957 -3.46924,1.4064 -5.71466,0.0982 z m 38.40516,-0.67676 c -3.24762,-2.76676 -3.37152,-7.76694 -0.16726,-6.74995 1.64386,0.52174 1.9556,0.22258 1.75,-1.67938 -0.33818,-3.12844 3.40804,-3.66247 6.18835,-0.88216 2.61309,2.61309 2.63936,6.48362 0.0615,9.06149 -2.46402,2.46402 -5.13375,2.54923 -7.83258,0.25 z"
         id="path3803"
         inkscape:connector-curvature="0" />
      <path
         style="fill:#f6ac50"
         d="m 237.85715,514.84864 c 0,-1.93246 0.52102,-4.34785 1.15782,-5.36753 2.88601,-4.62125 -2.55661,-7.33711 -7.07852,-3.53217 -3.57878,3.01134 -5.07886,3.05954 -5.08082,0.16327 -8.4e-4,-1.2375 -1.39436,-7.425 -3.09673,-13.75 -2.68074,-9.96012 -3.03502,-12.70512 -2.64578,-20.5 0.24718,-4.95 1.02176,-10.35 1.7213,-12 l 1.27188,-3 1.2811,5.46697 c 1.55829,6.64988 6.98635,12.28723 13.52683,14.0484 3.61893,0.97448 5.17186,0.86135 10.02679,-0.73043 4.788,-1.56983 6.04056,-1.66712 7.52152,-0.58422 3.85627,2.81977 12.39461,0.27043 12.39461,-3.70072 0,-1.70253 1.83344,-1.10014 2.43671,0.80059 0.68441,2.15638 5.87657,4.19941 10.6724,4.19941 4.33253,0 11.67038,-3.6705 14.14873,-7.07739 2.60771,-3.58473 3.59696,-8.79011 2.74161,-14.4262 l -0.72629,-4.78573 1.83452,2.39466 c 2.76627,3.6109 4.93072,10.619 5.58558,18.08513 0.49584,5.65309 -0.003,9.06427 -3.21487,22 -2.09094,8.42024 -4.11431,15.67238 -4.49638,16.11586 -0.38207,0.44348 -2.1486,-0.41707 -3.92563,-1.91234 -2.71061,-2.28083 -3.65979,-2.56483 -5.89367,-1.76343 -2.80815,1.00743 -2.8738,1.38178 -1.59937,9.11944 0.44311,2.69034 0.32396,4.25 -0.32468,4.25 -1.25308,0 -2.23866,-2.38918 -2.23866,-5.4268 0,-3.07162 -3.01019,-5.5732 -6.7063,-5.5732 -3.56513,0 -4.78093,1.21234 -6.01712,6 -1.13321,4.38882 -2.67899,4.1489 -3.08695,-0.47911 l -0.31036,-3.52089 -5.42058,0 c -5.09966,0 -5.4565,0.16281 -6.02711,2.75 -1.01202,4.58854 -1.17331,4.82573 -1.87001,2.75 -1.90443,-5.67404 -3.12975,-7.00045 -6.74797,-7.3047 -4.33438,-0.36447 -6.8136,2.3744 -6.8136,7.52721 0,2.24666 -0.47178,3.27749 -1.5,3.27749 -1.04872,0 -1.5,-1.05706 -1.5,-3.51357 z m 5.76226,-48.55967 c -3.6832,-2.14586 -4.54862,-7.92676 -1.18666,-7.92676 0.79608,0 1.1239,-0.61953 0.78926,-1.49157 -0.72433,-1.88758 1.84232,-2.92423 5.17138,-2.08869 5.17125,1.2979 5.82155,9.18495 0.94068,11.40882 -3.07172,1.39957 -3.46924,1.4064 -5.71466,0.0982 z m 38.40516,-0.67676 c -3.24762,-2.76676 -3.37152,-7.76694 -0.16726,-6.74995 1.64386,0.52174 1.9556,0.22258 1.75,-1.67938 -0.33818,-3.12844 3.40804,-3.66247 6.18835,-0.88216 2.61309,2.61309 2.63936,6.48362 0.0615,9.06149 -2.46402,2.46402 -5.13375,2.54923 -7.83258,0.25 z m -20.50075,-5.91667 c -0.36667,-0.36666 -0.66667,-1.57459 -0.66667,-2.68427 0,-3.6771 -4.07786,-10.53406 -7.53547,-12.67098 -6.44546,-3.98351 -11.66877,-4.39187 -18.76577,-1.46709 -1.64394,0.67749 -1.74201,0.29578 -1.123,-4.3706 0.44019,-3.31827 0.23543,-6.18201 -0.58335,-8.15872 -0.69389,-1.67519 -0.99703,-3.31039 -0.67364,-3.63377 1.19968,-1.19969 7.72116,0.81482 10.66979,3.29593 l 3.04743,2.56424 8.43092,-1.67297 c 8.42367,-1.67153 14.37061,-1.49652 21.29277,0.6266 2.83446,0.86937 3.64646,0.67435 6.2246,-1.49502 3.39575,-2.85733 9.42423,-5.10763 11.52429,-4.30177 1.22178,0.46884 1.20209,1.08332 -0.13739,4.28916 -1.89325,4.53119 -1.20224,10.26518 1.82792,15.16808 l 2.11028,3.41451 -4.23723,-3.06943 c -11.29531,-8.18229 -26.32544,-2.46538 -28.57847,10.8702 -0.64481,3.81657 -1.41196,4.71096 -2.82701,3.2959 z"
         id="path3801"
         inkscape:connector-curvature="0" />
      <path
         style="fill:#f2944c"
         d="m 237.85715,514.84864 c 0,-1.93246 0.52102,-4.34785 1.15782,-5.36753 2.88601,-4.62125 -2.55661,-7.33711 -7.07852,-3.53217 -3.57879,3.01135 -5.07905,3.05957 -5.08019,0.16327 -4.8e-4,-1.2375 -1.34025,-7.2 -2.97725,-13.25 -3.16312,-11.69019 -3.86427,-21.92647 -1.96928,-28.75 1.30837,-4.71123 2.53137,-4.78126 3.39191,-0.19422 0.89832,4.78849 7.20848,11.00442 12.66199,12.47289 4.48658,1.20811 9.70717,0.63617 13.87738,-1.52032 2.137,-1.10509 2.86625,-1.09112 4.47568,0.0857 2.8152,2.05852 8.19084,1.75554 10.54046,-0.59408 1.1,-1.1 2,-2.45 2,-3 0,-1.70253 1.83344,-1.10014 2.43671,0.80059 0.68441,2.15638 5.87657,4.19941 10.6724,4.19941 4.33253,0 11.67038,-3.6705 14.14873,-7.07739 2.60771,-3.58473 3.59696,-8.79011 2.74161,-14.4262 l -0.72629,-4.78573 1.83452,2.39466 c 2.76627,3.6109 4.93072,10.619 5.58558,18.08513 0.49584,5.65309 -0.003,9.06427 -3.21487,22 -2.09094,8.42024 -4.11431,15.67238 -4.49638,16.11586 -0.38207,0.44348 -2.1486,-0.41707 -3.92563,-1.91234 -2.71061,-2.28083 -3.65979,-2.56483 -5.89367,-1.76343 -2.80815,1.00743 -2.8738,1.38178 -1.59937,9.11944 0.44311,2.69034 0.32396,4.25 -0.32468,4.25 -1.25308,0 -2.23866,-2.38918 -2.23866,-5.4268 0,-3.07162 -3.01019,-5.5732 -6.7063,-5.5732 -3.56513,0 -4.78093,1.21234 -6.01712,6 -1.13321,4.38882 -2.67899,4.1489 -3.08695,-0.47911 l -0.31036,-3.52089 -5.42058,0 c -5.09966,0 -5.4565,0.16281 -6.02711,2.75 -1.01202,4.58854 -1.17331,4.82573 -1.87001,2.75 -1.90443,-5.67404 -3.12975,-7.00045 -6.74797,-7.3047 -4.33438,-0.36447 -6.8136,2.3744 -6.8136,7.52721 0,2.24666 -0.47178,3.27749 -1.5,3.27749 -1.04872,0 -1.5,-1.05706 -1.5,-3.51357 z m 5.76226,-48.55967 c -3.6832,-2.14586 -4.54862,-7.92676 -1.18666,-7.92676 0.79608,0 1.1239,-0.61953 0.78926,-1.49157 -0.72433,-1.88758 1.84232,-2.92423 5.17138,-2.08869 5.17125,1.2979 5.82155,9.18495 0.94068,11.40882 -3.07172,1.39957 -3.46924,1.4064 -5.71466,0.0982 z m 38.40516,-0.67676 c -3.24762,-2.76676 -3.37152,-7.76694 -0.16726,-6.74995 1.64386,0.52174 1.9556,0.22258 1.75,-1.67938 -0.33818,-3.12844 3.40804,-3.66247 6.18835,-0.88216 2.61309,2.61309 2.63936,6.48362 0.0615,9.06149 -2.46402,2.46402 -5.13375,2.54923 -7.83258,0.25 z M 261.02229,455.2573 c -1.49567,-6.47961 -4.29998,-10.41307 -9.20952,-12.91773 -4.24705,-2.16668 -12.80434,-2.66387 -16.04044,-0.93197 -1.81992,0.97399 -1.91131,0.78261 -1.33811,-2.802 0.40256,-2.51745 0.0635,-5.16792 -0.98092,-7.66752 -1.98709,-4.75578 -2.00492,-4.57587 0.45351,-4.57587 2.66601,0 6.95859,2.24665 9.35769,4.89762 2.2791,2.51838 4.10769,2.62078 9.15327,0.5126 4.66443,-1.94892 17.47339,-2.22856 22.69906,-0.49556 3.48475,1.15566 3.9765,1.0644 6.7246,-1.24798 3.39575,-2.85733 9.42423,-5.10763 11.52429,-4.30177 1.22178,0.46884 1.20209,1.08332 -0.13739,4.28916 -1.88666,4.5154 -1.20414,10.26211 1.79518,15.1151 l 2.07753,3.36153 -4.37194,-3.06294 c -2.58957,-1.81422 -6.24574,-3.31458 -8.96812,-3.68019 -9.05586,-1.21617 -18.44261,5.75491 -19.62563,14.57499 -0.29785,2.22059 -0.855,4.03744 -1.23812,4.03744 -0.38312,0 -1.22684,-2.29721 -1.87494,-5.10491 z"
         id="path3799"
         inkscape:connector-curvature="0" />
      <path
         style="fill:#f7a733"
         d="m 237.85715,514.84864 c 0,-1.93246 0.52102,-4.34785 1.15782,-5.36753 2.88601,-4.62125 -2.55661,-7.33711 -7.07852,-3.53217 -3.51592,2.95845 -5.0793,3.06448 -5.0793,0.34449 0,-1.13783 -1.17111,-6.65033 -2.60246,-12.25 -2.74499,-10.73879 -3.46169,-24.29673 -1.59545,-30.18122 0.84638,-2.66875 1.02729,-2.77916 1.63841,-1 1.93067,5.6208 4.48937,9.13334 8.5595,11.75036 4.17474,2.68428 5.00596,2.85338 11.5,2.33949 9.55128,-0.75581 9.5,-0.74332 9.5,-2.31322 0,-1.13672 0.40502,-1.10635 2.22251,0.16667 3.12164,2.18648 8.36331,1.97088 10.77749,-0.4433 1.1,-1.1 2,-2.45 2,-3 0,-1.75487 1.84228,-1.0723 2.47347,0.91642 1.36983,4.31594 11.6539,5.33488 18.5061,1.83358 7.49257,-3.82852 10.41433,-10.06522 9.01988,-19.25359 l -0.72629,-4.78573 1.83452,2.39466 c 2.76627,3.6109 4.93072,10.619 5.58558,18.08513 0.49584,5.65309 -0.003,9.06427 -3.21487,22 -2.09094,8.42024 -4.11431,15.67238 -4.49638,16.11586 -0.38207,0.44348 -2.1486,-0.41707 -3.92563,-1.91234 -2.71061,-2.28083 -3.65979,-2.56483 -5.89367,-1.76343 -2.80815,1.00743 -2.8738,1.38178 -1.59937,9.11944 0.44311,2.69034 0.32396,4.25 -0.32468,4.25 -1.25308,0 -2.23866,-2.38918 -2.23866,-5.4268 0,-3.07162 -3.01019,-5.5732 -6.7063,-5.5732 -3.56513,0 -4.78093,1.21234 -6.01712,6 -1.13321,4.38882 -2.67899,4.1489 -3.08695,-0.47911 l -0.31036,-3.52089 -5.42058,0 c -5.09966,0 -5.4565,0.16281 -6.02711,2.75 -1.01202,4.58854 -1.17331,4.82573 -1.87001,2.75 -1.90443,-5.67404 -3.12975,-7.00045 -6.74797,-7.3047 -4.33438,-0.36447 -6.8136,2.3744 -6.8136,7.52721 0,2.24666 -0.47178,3.27749 -1.5,3.27749 -1.04872,0 -1.5,-1.05706 -1.5,-3.51357 z m 5.76226,-48.55967 c -3.6832,-2.14586 -4.54862,-7.92676 -1.18666,-7.92676 0.79608,0 1.1239,-0.61953 0.78926,-1.49157 -0.72433,-1.88758 1.84232,-2.92423 5.17138,-2.08869 5.17125,1.2979 5.82155,9.18495 0.94068,11.40882 -3.07172,1.39957 -3.46924,1.4064 -5.71466,0.0982 z m 38.40516,-0.67676 c -3.24762,-2.76676 -3.37152,-7.76694 -0.16726,-6.74995 1.64386,0.52174 1.9556,0.22258 1.75,-1.67938 -0.33818,-3.12844 3.40804,-3.66247 6.18835,-0.88216 2.61309,2.61309 2.63936,6.48362 0.0615,9.06149 -2.46402,2.46402 -5.13375,2.54923 -7.83258,0.25 z M 261.0496,454.79193 c -1.66241,-6.21557 -4.49384,-10.03267 -9.23683,-12.45236 -4.13024,-2.10709 -12.77922,-2.67732 -15.83153,-1.04377 -1.56656,0.83839 -1.73902,0.35406 -1.69138,-4.75 0.0292,-3.12598 -0.35677,-6.54245 -0.85767,-7.59216 -0.8277,-1.73459 -0.60678,-1.84778 2.42361,-1.2417 1.83388,0.36678 4.86984,1.83806 6.74659,3.26953 l 3.41226,2.60266 8.48542,-1.78072 c 7.48825,-1.57145 9.41446,-1.62984 16.39125,-0.49683 7.85452,1.27555 7.92536,1.26747 10.91044,-1.24431 3.42988,-2.88605 9.45454,-5.14461 11.56396,-4.33515 1.22178,0.46884 1.20209,1.08332 -0.13739,4.28916 -1.90496,4.55921 -1.19886,10.27064 1.88702,15.26371 l 2.16939,3.51014 -3.46823,-2.64535 c -6.70572,-5.1147 -14.87136,-6.4308 -20.81848,-3.35542 -3.74834,1.93834 -7.98526,6.99586 -8.71251,10.39992 -1.32149,6.1856 -1.92962,6.48678 -3.23592,1.60265 z"
         id="path3797"
         inkscape:connector-curvature="0" />
      <path
         style="fill:#f38f30"
         d="m 237.85715,514.84864 c 0,-1.93246 0.52102,-4.34785 1.15782,-5.36753 2.88601,-4.62125 -2.55661,-7.33711 -7.07852,-3.53217 -3.51592,2.95845 -5.0793,3.06448 -5.0793,0.34449 0,-1.13783 -1.17111,-6.65033 -2.60246,-12.25 -2.74499,-10.73879 -3.46169,-24.29673 -1.59545,-30.18122 0.84638,-2.66875 1.02729,-2.77916 1.63841,-1 1.93067,5.6208 4.48937,9.13334 8.5595,11.75036 4.17474,2.68428 5.00596,2.85338 11.5,2.33949 9.55128,-0.75581 9.5,-0.74332 9.5,-2.31322 0,-1.13672 0.40502,-1.10635 2.22251,0.16667 3.12164,2.18648 8.36331,1.97088 10.77749,-0.4433 1.1,-1.1 2,-2.45 2,-3 0,-1.75487 1.84228,-1.0723 2.47347,0.91642 1.36983,4.31594 11.6539,5.33488 18.5061,1.83358 7.49257,-3.82852 10.41433,-10.06522 9.01988,-19.25359 l -0.72629,-4.78573 1.83452,2.39466 c 2.76627,3.6109 4.93072,10.619 5.58558,18.08513 0.49584,5.65309 -0.003,9.06427 -3.21487,22 -2.09094,8.42024 -4.11431,15.67238 -4.49638,16.11586 -0.38207,0.44348 -2.1486,-0.41707 -3.92563,-1.91234 -2.71061,-2.28083 -3.65979,-2.56483 -5.89367,-1.76343 -2.80815,1.00743 -2.8738,1.38178 -1.59937,9.11944 0.44311,2.69034 0.32396,4.25 -0.32468,4.25 -1.25308,0 -2.23866,-2.38918 -2.23866,-5.4268 0,-3.07162 -3.01019,-5.5732 -6.7063,-5.5732 -3.56513,0 -4.78093,1.21234 -6.01712,6 -1.13321,4.38882 -2.67899,4.1489 -3.08695,-0.47911 l -0.31036,-3.52089 -5.42058,0 c -5.09966,0 -5.4565,0.16281 -6.02711,2.75 -1.01202,4.58854 -1.17331,4.82573 -1.87001,2.75 -1.90443,-5.67404 -3.12975,-7.00045 -6.74797,-7.3047 -4.33438,-0.36447 -6.8136,2.3744 -6.8136,7.52721 0,2.24666 -0.47178,3.27749 -1.5,3.27749 -1.04872,0 -1.5,-1.05706 -1.5,-3.51357 z m 5.76226,-48.55967 c -3.6832,-2.14586 -4.54862,-7.92676 -1.18666,-7.92676 0.79608,0 1.1239,-0.61953 0.78926,-1.49157 -0.72433,-1.88758 1.84232,-2.92423 5.17138,-2.08869 5.17125,1.2979 5.82155,9.18495 0.94068,11.40882 -3.07172,1.39957 -3.46924,1.4064 -5.71466,0.0982 z m 38.40516,-0.67676 c -3.24762,-2.76676 -3.37152,-7.76694 -0.16726,-6.74995 1.64386,0.52174 1.9556,0.22258 1.75,-1.67938 -0.33818,-3.12844 3.40804,-3.66247 6.18835,-0.88216 2.61309,2.61309 2.63936,6.48362 0.0615,9.06149 -2.46402,2.46402 -5.13375,2.54923 -7.83258,0.25 z m -20.59439,-12.75 c -0.82305,-8.01734 -3.57409,-14.56907 -7.37184,-17.55638 -2.14861,-1.6901 -2.36087,-2.2269 -1.17129,-2.9621 2.806,-1.7342 11.84631,-2.18528 18.81987,-0.93903 6.9081,1.23454 7.05501,1.21542 10.05497,-1.30888 3.46421,-2.91494 9.4851,-5.18173 11.60383,-4.3687 1.22178,0.46884 1.20209,1.08332 -0.13739,4.28916 -1.90496,4.55921 -1.19886,10.27064 1.88702,15.26371 l 2.16939,3.51014 -3.46823,-2.64535 c -6.70572,-5.1147 -14.87136,-6.4308 -20.81848,-3.35542 -3.74834,1.93834 -7.98526,6.99586 -8.71251,10.39992 -1.4366,6.7244 -2.13972,6.64386 -2.85534,-0.32707 z m -27.07406,-21.502 c -0.82444,-1.59427 -1.49897,-3.20228 -1.49897,-3.57334 0,-0.9697 6.0581,0.37867 7.65469,1.70372 2.036,1.68973 1.64354,2.57201 -1.65572,3.72214 -2.76352,0.96336 -3.11968,0.81674 -4.5,-1.85252 z"
         id="path3795"
         inkscape:connector-curvature="0" />
      <path
         style="fill:#909091"
         d="m 237.85715,514.84864 c 0,-1.93246 0.52102,-4.34785 1.15782,-5.36753 2.88601,-4.62125 -2.55661,-7.33711 -7.07852,-3.53217 -3.57844,3.01106 -5.07355,3.05893 -5.09934,0.16327 -0.011,-1.2375 -1.12701,-6.525 -2.47996,-11.75 -2.47688,-9.56553 -3.33319,-22.36702 -1.5691,-23.45729 0.512,-0.31644 1.21884,-0.10944 1.57077,0.45999 1.26122,2.04069 10.74674,6.12095 15.55286,6.69016 5.79102,0.68586 13.94547,-1.29028 13.94547,-3.37953 0,-1.19667 0.35839,-1.17571 2.22251,0.12997 3.12164,2.18648 8.36331,1.97088 10.77749,-0.4433 1.1,-1.1 2,-2.45 2,-3 0,-1.75487 1.84228,-1.0723 2.47347,0.91642 1.36983,4.31594 11.6539,5.33488 18.5061,1.83358 7.49257,-3.82852 10.41433,-10.06522 9.01988,-19.25359 l -0.72629,-4.78573 1.83452,2.39466 c 2.76627,3.6109 4.93072,10.619 5.58558,18.08513 0.49584,5.65309 -0.003,9.06427 -3.21487,22 -2.09094,8.42024 -4.11431,15.67238 -4.49638,16.11586 -0.38207,0.44348 -2.1486,-0.41707 -3.92563,-1.91234 -2.71061,-2.28083 -3.65979,-2.56483 -5.89367,-1.76343 -2.80815,1.00743 -2.8738,1.38178 -1.59937,9.11944 0.44311,2.69034 0.32396,4.25 -0.32468,4.25 -1.25308,0 -2.23866,-2.38918 -2.23866,-5.4268 0,-3.07162 -3.01019,-5.5732 -6.7063,-5.5732 -3.56513,0 -4.78093,1.21234 -6.01712,6 -1.13321,4.38882 -2.67899,4.1489 -3.08695,-0.47911 l -0.31036,-3.52089 -5.42058,0 c -5.09966,0 -5.4565,0.16281 -6.02711,2.75 -1.01202,4.58854 -1.17331,4.82573 -1.87001,2.75 -1.90443,-5.67404 -3.12975,-7.00045 -6.74797,-7.3047 -4.33438,-0.36447 -6.8136,2.3744 -6.8136,7.52721 0,2.24666 -0.47178,3.27749 -1.5,3.27749 -1.04872,0 -1.5,-1.05706 -1.5,-3.51357 z m 5.76226,-48.55967 c -3.6832,-2.14586 -4.54862,-7.92676 -1.18666,-7.92676 0.79608,0 1.1239,-0.61953 0.78926,-1.49157 -0.72433,-1.88758 1.84232,-2.92423 5.17138,-2.08869 5.17125,1.2979 5.82155,9.18495 0.94068,11.40882 -3.07172,1.39957 -3.46924,1.4064 -5.71466,0.0982 z m 38.40516,-0.67676 c -3.24762,-2.76676 -3.37152,-7.76694 -0.16726,-6.74995 1.64386,0.52174 1.9556,0.22258 1.75,-1.67938 -0.33818,-3.12844 3.40804,-3.66247 6.18835,-0.88216 2.61309,2.61309 2.63936,6.48362 0.0615,9.06149 -2.46402,2.46402 -5.13375,2.54923 -7.83258,0.25 z m 11.33258,-19.80638 c -5.68094,-4.70467 -11.83006,-5.57821 -21.5,-3.05427 -2.2668,0.59165 -2.71044,0.16085 -4.75603,-4.61841 -1.24082,-2.89902 -2.25332,-5.67051 -2.25,-6.15887 0.003,-0.49668 3.23229,-0.59558 7.32791,-0.22444 6.52683,0.59144 7.5174,0.44745 9.12246,-1.32613 2.22837,-2.46232 9.95031,-5.50777 11.98528,-4.72688 1.33451,0.5121 1.32789,1.00149 -0.0584,4.31945 -1.87841,4.49567 -1.20649,10.25829 1.75479,15.04975 2.42198,3.91884 2.28695,3.98028 -1.62597,0.7398 z"
         id="path3793"
         inkscape:connector-curvature="0" />
      <path
         style="fill:#df655d"
         d="m 238.9361,515.77888 c 0.048,-1.16495 0.28494,-1.4019 0.60416,-0.60417 0.28887,0.72187 0.25335,1.58437 -0.0789,1.91667 -0.33229,0.33229 -0.56864,-0.25834 -0.52522,-1.3125 z m 30,-2 c 0.048,-1.16495 0.28494,-1.4019 0.60416,-0.60417 0.28887,0.72187 0.25335,1.58437 -0.0789,1.91667 -0.33229,0.33229 -0.56864,-0.25834 -0.52522,-1.3125 z m -15.94733,-5.57674 c -1.39202,-2.23002 -6.4989,-3.24892 -9.15616,-1.8268 -1.68035,0.8993 -2.50097,0.83866 -3.80865,-0.28143 -3.12506,-2.67676 -5.02527,-2.72168 -8.03409,-0.18992 -3.6303,3.0547 -5.12687,3.11517 -5.15276,0.20822 -0.011,-1.2375 -1.12701,-6.525 -2.47996,-11.75 -2.47688,-9.56553 -3.33319,-22.36702 -1.5691,-23.45729 0.512,-0.31644 1.21884,-0.10944 1.57077,0.45999 0.35193,0.56943 2.91981,2.19066 5.7064,3.60274 6.51676,3.30229 14.19362,4.12716 19.99943,2.14893 3.86323,-1.31634 4.65634,-1.32296 6.35339,-0.0531 2.60217,1.9472 8.99406,1.06543 11.87138,-1.63768 2.10888,-1.98119 2.44179,-2.01419 5.86959,-0.58197 5.1231,2.14057 10.55251,1.88719 15.67771,-0.73166 7.49257,-3.82851 10.41433,-10.06522 9.01988,-19.25359 l -0.72629,-4.78573 1.83452,2.39466 c 2.94797,3.84808 4.9959,10.83907 5.53498,18.89466 0.43609,6.5166 0.0335,9.13213 -3.07038,19.94758 -1.96475,6.84616 -3.57228,13.2321 -3.57228,14.19097 0,2.78997 -1.81513,3.15203 -4.64452,0.92643 -3.12653,-2.45933 -4.51008,-2.55352 -8.34894,-0.56836 -2.1222,1.09743 -3.57593,1.23739 -5.45034,0.52475 -2.69413,-1.02431 -7.43229,0.16011 -8.6733,2.1681 -0.37139,0.60093 -4.37119,1.11794 -9.18641,1.18744 -6.95291,0.10035 -8.72007,-0.18362 -9.56487,-1.53698 z m -10.47663,-43.66867 c -2.28949,-2.52986 -2.11326,-5.17126 0.34501,-5.17126 1.33333,0 2,-0.66667 2,-2 0,-1.4392 0.66667,-2 2.37755,-2 2.97724,0 4.87245,2.20741 4.87245,5.67509 0,4.84042 -6.30078,7.13625 -9.59501,3.49617 z m 38.89738,-0.1134 c -2.11244,-2.33421 -1.61197,-4.54778 1.02955,-4.55362 1.41425,-0.003 1.8359,-0.59526 1.60522,-2.25424 -0.44645,-3.21076 4.19259,-3.12628 6.31637,0.11502 3.80222,5.80292 -4.2845,11.84943 -8.95114,6.69284 z m 11.94763,-18.61424 c -5.68094,-4.70467 -11.83006,-5.57821 -21.5,-3.05427 -2.2668,0.59165 -2.71044,0.16085 -4.75603,-4.61841 -1.24082,-2.89902 -2.25332,-5.67051 -2.25,-6.15887 0.003,-0.49668 3.23229,-0.59558 7.32791,-0.22444 6.52683,0.59144 7.5174,0.44745 9.12246,-1.32613 2.22837,-2.46232 9.95031,-5.50777 11.98528,-4.72688 1.33451,0.5121 1.32789,1.00149 -0.0584,4.31945 -1.87841,4.49567 -1.20649,10.25829 1.75479,15.04975 2.42198,3.91884 2.28695,3.98028 -1.62597,0.7398 z"
         id="path3791"
         inkscape:connector-curvature="0" />
      <path
         style="fill:#ee7128"
         d="m 238.9361,515.77888 c 0.048,-1.16495 0.28494,-1.4019 0.60416,-0.60417 0.28887,0.72187 0.25335,1.58437 -0.0789,1.91667 -0.33229,0.33229 -0.56864,-0.25834 -0.52522,-1.3125 z m 30,-2 c 0.048,-1.16495 0.28494,-1.4019 0.60416,-0.60417 0.28887,0.72187 0.25335,1.58437 -0.0789,1.91667 -0.33229,0.33229 -0.56864,-0.25834 -0.52522,-1.3125 z m -15.78332,-5.3149 c -1.56526,-2.50637 -6.54262,-3.57513 -9.43668,-2.02628 -1.95161,1.04447 -2.45152,0.91769 -3.68062,-0.93343 -1.84425,-2.77758 -5.88681,-2.76456 -8.85994,0.0285 -1.27078,1.19383 -2.4516,1.98133 -2.62405,1.75 -1.17594,-1.5775 -6.73357,-27.32281 -6.71604,-31.11159 0.0212,-4.57321 1.23662,-6.88833 2.52337,-4.80632 1.32523,2.14426 10.97029,6.19052 15.99172,6.70877 2.97096,0.30663 6.81708,0.0111 8.9296,-0.68605 3.29176,-1.08639 3.87293,-1.01581 5.14637,0.62495 1.39421,1.79637 1.41671,1.79589 0.78146,-0.0167 -0.58612,-1.67242 -0.41626,-1.73906 1.6347,-0.64142 3.09292,1.65528 8.75126,0.60366 11.71055,-2.17644 1.68495,-1.58294 2.62614,-1.9125 3.13064,-1.0962 0.39675,0.64196 2.753,1.71058 5.23612,2.37471 11.03269,2.95079 21.65234,-4.07462 22.70403,-15.01983 0.26818,-2.79097 0.86291,-5.07449 1.32163,-5.07449 1.26077,0 3.92594,9.72305 4.52278,16.5 0.43416,4.92976 -0.10835,8.22031 -3.04143,18.44757 -1.96341,6.84617 -3.56984,13.23211 -3.56984,14.19098 0,2.78997 -1.81513,3.15203 -4.64452,0.92643 -3.12653,-2.45933 -4.51008,-2.55352 -8.34894,-0.56836 -2.1222,1.09743 -3.57593,1.23739 -5.45034,0.52475 -2.92974,-1.11389 -7.22249,0.13999 -9.05387,2.64456 -0.96193,1.31552 -1.5506,1.3786 -3.43806,0.36846 -2.24314,-1.20049 -9.1316,-1.02502 -12.06633,0.30736 -0.93733,0.42555 -1.95331,-0.0406 -2.70231,-1.23998 z m -10.64064,-43.93051 c -2.28949,-2.52986 -2.11326,-5.17126 0.34501,-5.17126 1.33333,0 2,-0.66667 2,-2 0,-1.4392 0.66667,-2 2.37755,-2 2.97724,0 4.87245,2.20741 4.87245,5.67509 0,4.84042 -6.30078,7.13625 -9.59501,3.49617 z m 38.89738,-0.1134 c -2.11244,-2.33421 -1.61197,-4.54778 1.02955,-4.55362 1.41425,-0.003 1.8359,-0.59526 1.60522,-2.25424 -0.44645,-3.21076 4.19259,-3.12628 6.31637,0.11502 3.80222,5.80292 -4.2845,11.84943 -8.95114,6.69284 z m -14.3084,-26.28227 c -1.24082,-2.90157 -2.25332,-5.61309 -2.25,-6.02559 0.008,-1.03061 6.84097,-0.94452 10.59999,0.13355 2.62512,0.75287 3.87443,0.38312 8.44706,-2.5 5.03998,-3.17779 8.96604,-4.3326 8.9534,-2.63355 -0.003,0.4125 -0.4638,2.39979 -1.02386,4.4162 -0.65661,2.36402 -0.6866,5.14245 -0.0844,7.82245 0.82776,3.68412 0.74528,4.07812 -0.72614,3.46854 -5.72729,-2.3727 -10.89356,-2.36085 -19.65998,0.0451 -1.65077,0.45306 -2.39394,-0.3723 -4.25603,-4.72669 z"
         id="path3789"
         inkscape:connector-curvature="0" />
      <path
         style="fill:#7d7e80"
         d="m 238.9361,515.77888 c 0.048,-1.16495 0.28494,-1.4019 0.60416,-0.60417 0.28887,0.72187 0.25335,1.58437 -0.0789,1.91667 -0.33229,0.33229 -0.56864,-0.25834 -0.52522,-1.3125 z m 30,-2 c 0.048,-1.16495 0.28494,-1.4019 0.60416,-0.60417 0.28887,0.72187 0.25335,1.58437 -0.0789,1.91667 -0.33229,0.33229 -0.56864,-0.25834 -0.52522,-1.3125 z m -15.78332,-5.3149 c -1.56526,-2.50637 -6.54262,-3.57513 -9.43668,-2.02628 -1.95161,1.04447 -2.45152,0.91769 -3.68062,-0.93343 -1.84425,-2.77758 -5.88681,-2.76456 -8.85994,0.0285 -1.27078,1.19383 -2.46227,1.98133 -2.64777,1.75 -0.63479,-0.79166 -6.73572,-27.18885 -6.36872,-27.55585 0.20149,-0.20148 2.57848,0.10589 5.28222,0.68306 2.70373,0.57716 6.04088,1.24308 7.41588,1.47983 8.24519,1.41962 9,1.72703 9,3.6653 0,1.68486 0.46469,1.87289 3.25,1.31502 7.6635,-1.5349 9.84785,-2.61625 9.28872,-4.5983 -0.2963,-1.05032 -0.8063,-2.84829 -1.13335,-3.9955 -0.53874,-1.88979 -0.38488,-1.97357 1.63715,-0.89141 2.9951,1.60292 8.708,0.56024 11.54783,-2.10764 2.09012,-1.96357 2.44855,-2.01907 3.86855,-0.59908 0.86075,0.86075 3.6294,1.87457 6.15257,2.25295 11.32816,1.69876 21.38853,-6.31475 21.38853,-17.03687 0,-9.08394 4.60681,1.56261 5.61127,12.96788 0.43416,4.92976 -0.10835,8.22031 -3.04143,18.44757 -1.96341,6.84617 -3.56984,13.23211 -3.56984,14.19098 0,2.78997 -1.81513,3.15203 -4.64452,0.92643 -3.12653,-2.45933 -4.51008,-2.55352 -8.34894,-0.56836 -2.1222,1.09743 -3.57593,1.23739 -5.45034,0.52475 -2.92974,-1.11389 -7.22249,0.13999 -9.05387,2.64456 -0.96193,1.31552 -1.5506,1.3786 -3.43806,0.36846 -2.24314,-1.20049 -9.1316,-1.02502 -12.06633,0.30736 -0.93733,0.42555 -1.95331,-0.0406 -2.70231,-1.23998 z m -10.64064,-43.93051 c -2.28949,-2.52986 -2.11326,-5.17126 0.34501,-5.17126 1.33333,0 2,-0.66667 2,-2 0,-1.4392 0.66667,-2 2.37755,-2 2.97724,0 4.87245,2.20741 4.87245,5.67509 0,4.84042 -6.30078,7.13625 -9.59501,3.49617 z m 38.89738,-0.1134 c -2.11244,-2.33421 -1.61197,-4.54778 1.02955,-4.55362 1.41425,-0.003 1.8359,-0.59526 1.60522,-2.25424 -0.44645,-3.21076 4.19259,-3.12628 6.31637,0.11502 3.80222,5.80292 -4.2845,11.84943 -8.95114,6.69284 z m 5.94763,-22.60517 c -2.2,-0.71232 -5.18412,-1.55076 -6.63137,-1.86319 -1.79411,-0.38731 -2.78409,-1.36694 -3.11133,-3.07878 -0.26398,-1.3809 -0.13494,-2.51072 0.28676,-2.51072 0.42169,0 2.65548,-1.57802 4.96397,-3.50671 4.01217,-3.35207 8.49811,-5.32049 9.60426,-4.21433 0.28554,0.28554 0.0305,2.33406 -0.56684,4.55227 -0.7089,2.63263 -0.76863,5.44564 -0.17203,8.10094 0.50269,2.2373 0.62432,4.01109 0.27028,3.94174 -0.35403,-0.0693 -2.4437,-0.70889 -4.6437,-1.42122 z"
         id="path3787"
         inkscape:connector-curvature="0" />
      <path
         style="fill:#ec4e25"
         d="m 252.22944,507.08348 c -2.16151,-1.33856 -4.01412,-1.62929 -7.48646,-1.17484 -3.65771,0.4787 -4.73947,0.27737 -5.21862,-0.97127 -0.87686,-2.28508 -5.64459,-1.94504 -8.34882,0.59545 -1.27078,1.19384 -2.46227,1.98134 -2.64777,1.75 -0.63479,-0.79166 -6.73572,-27.18884 -6.36872,-27.55584 0.20149,-0.20149 2.57848,0.10588 5.28222,0.68305 2.70373,0.57716 6.04088,1.24309 7.41588,1.47983 8.24519,1.41962 9,1.72703 9,3.6653 0,1.68486 0.46469,1.87289 3.25,1.31502 7.6635,-1.5349 9.84785,-2.61625 9.28872,-4.5983 -1.85898,-6.58978 -1.85643,-6.55479 -0.33244,-4.55967 2.6808,3.50957 11.47391,1.9846 13.81862,-2.39653 0.94011,-1.7566 1.24936,-1.82206 2.53487,-0.53656 0.80527,0.80527 3.52853,1.77371 6.0517,2.15208 11.32816,1.69876 21.38853,-6.31475 21.38853,-17.03687 0,-9.08394 4.60681,1.56261 5.61127,12.96788 0.43416,4.92976 -0.10835,8.22031 -3.04143,18.44757 -1.96341,6.84617 -3.56984,13.23211 -3.56984,14.19098 0,2.84615 -1.76229,3.09707 -4.99023,0.71055 -2.71431,-2.00677 -3.38903,-2.11374 -6.41997,-1.01773 -1.94971,0.70502 -5.06328,0.95665 -7.3375,0.59298 -2.82607,-0.4519 -4.91865,-0.12616 -7.35145,1.1444 -4.75505,2.48337 -16.62233,2.57154 -20.52856,0.15252 z m -8.62229,-41.80137 c -2.5315,-1.47446 -2.27475,-4.9199 0.36663,-4.9199 1.64524,0 1.99659,-0.45904 1.57762,-2.06117 -0.73404,-2.80701 1.86482,-3.64784 4.34299,-1.40512 2.60734,2.3596 2.48829,5.98479 -0.25975,7.90959 -2.57115,1.8009 -3.61244,1.88324 -6.02749,0.4766 z m 39.47251,-0.4766 c -2.76533,-1.93691 -2.89084,-4.4433 -0.22251,-4.4433 1.46667,0 2,-0.66667 2,-2.5 0,-2.95697 1.99724,-3.26552 4.34501,-0.67126 2.30458,2.54653 2.06425,5.7712 -0.56752,7.61456 -1.22238,0.85618 -2.47225,1.5567 -2.77749,1.5567 -0.30524,0 -1.55512,-0.70052 -2.77749,-1.5567 z m 4.27749,-22.99061 c -2.2,-0.71232 -5.18412,-1.55076 -6.63137,-1.86319 -1.79411,-0.38731 -2.78409,-1.36694 -3.11133,-3.07878 -0.26398,-1.3809 -0.13494,-2.51072 0.28676,-2.51072 0.42169,0 2.65548,-1.57802 4.96397,-3.50671 4.01217,-3.35207 8.49811,-5.32049 9.60426,-4.21433 0.28554,0.28554 0.0305,2.33406 -0.56684,4.55227 -0.7089,2.63263 -0.76863,5.44564 -0.17203,8.10094 0.50269,2.2373 0.62432,4.01109 0.27028,3.94174 -0.35403,-0.0693 -2.4437,-0.70889 -4.6437,-1.42122 z"
         id="path3785"
         inkscape:connector-curvature="0" />
      <path
         style="fill:#a0605c"
         d="m 252.22944,507.08348 c -2.16151,-1.33856 -4.01412,-1.62929 -7.48646,-1.17484 -3.65771,0.4787 -4.73947,0.27737 -5.21862,-0.97127 -0.87686,-2.28508 -5.64459,-1.94504 -8.34882,0.59545 -1.27078,1.19384 -2.45986,1.98134 -2.64241,1.75 -0.39475,-0.50025 -4.67598,-18.16944 -4.67598,-19.29836 0,-0.42964 1.35,-0.48465 3,-0.12225 2.58279,0.56727 3,0.36972 3,-1.42055 0,-2.13265 -2.39296,-2.87068 -3.5,-1.07945 -1.25413,2.02922 -3.26827,0.90865 -3.88194,-2.15972 -0.34757,-1.73785 -0.47847,-3.3132 -0.29089,-3.50079 0.18759,-0.18758 2.55321,0.13116 5.25695,0.70833 2.70373,0.57716 6.04088,1.24309 7.41588,1.47983 10.017,1.72469 11.05316,2.71218 6.55691,6.24892 -1.3437,1.05696 -2.75967,3.1831 -3.1466,4.72476 l -0.70352,2.80303 5.95187,-0.53969 c 3.27352,-0.29684 8.48512,-1.33824 11.58133,-2.31423 l 5.62947,-1.77454 -2.29167,-4.58795 c -1.26042,-2.52337 -2.61072,-5.93795 -3.00067,-7.58795 -0.61471,-2.60104 -0.534,-2.77693 0.60694,-1.32261 2.57972,3.28829 9.21068,2.68206 12.81013,-1.17117 3.93181,-4.20902 4.68132,-1.47068 1.13662,4.15264 -1.50506,2.38763 -3.13146,4.99214 -3.61421,5.78781 -1.17143,1.93074 4.3034,-2.02248 7.40771,-5.3489 1.33338,-1.42878 3.3892,-2.59777 4.5685,-2.59777 4.08926,0 12.42831,-3.06275 15.59574,-5.72797 3.74615,-3.15217 5.91145,-7.81867 5.91145,-12.73991 0,-9.08394 4.60681,1.56261 5.61127,12.96788 0.43416,4.92976 -0.10835,8.22031 -3.04143,18.44757 -1.96341,6.84617 -3.56984,13.23211 -3.56984,14.19098 0,2.84615 -1.76229,3.09707 -4.99023,0.71055 -2.71431,-2.00677 -3.38903,-2.11374 -6.41997,-1.01773 -1.94971,0.70502 -5.06328,0.95665 -7.3375,0.59298 -2.82607,-0.4519 -4.91865,-0.12616 -7.35145,1.1444 -4.75505,2.48337 -16.62233,2.57154 -20.52856,0.15252 z m -20.37229,-14.28029 c 0,-0.85746 -0.45,-1.2809 -1,-0.94098 -0.55,0.33992 -1,1.04148 -1,1.55902 0,0.51754 0.45,0.94098 1,0.94098 0.55,0 1,-0.70156 1,-1.55902 z m 5.98469,-4.19098 c -0.0346,-1.69231 -1.83594,-3.45997 -2.87289,-2.8191 -1.85024,1.14351 -1.24661,3.5691 0.8882,3.5691 1.1,0 1.99311,-0.3375 1.98469,-0.75 z m 5.76531,-23.3301 c -2.5315,-1.47446 -2.27475,-4.9199 0.36663,-4.9199 1.64524,0 1.99659,-0.45904 1.57762,-2.06117 -0.73404,-2.80701 1.86482,-3.64784 4.34299,-1.40512 2.60734,2.3596 2.48829,5.98479 -0.25975,7.90959 -2.57115,1.8009 -3.61244,1.88324 -6.02749,0.4766 z m 39.47251,-0.4766 c -2.76533,-1.93691 -2.89084,-4.4433 -0.22251,-4.4433 1.46667,0 2,-0.66667 2,-2.5 0,-2.95697 1.99724,-3.26552 4.34501,-0.67126 2.30458,2.54653 2.06425,5.7712 -0.56752,7.61456 -1.22238,0.85618 -2.47225,1.5567 -2.77749,1.5567 -0.30524,0 -1.55512,-0.70052 -2.77749,-1.5567 z m 5.738,-23.7251 c -1.42037,-1.12393 -3.96051,-7.92269 -3.96051,-10.6004 0,-1.3832 6.70136,-4.74977 7.62204,-3.82909 0.35594,0.35594 0.0789,2.01905 -0.61562,3.6958 -0.71477,1.7256 -1.04348,4.99433 -0.75744,7.53206 0.53248,4.72417 0.20848,5.17746 -2.28847,3.20163 z"
         id="path3783"
         inkscape:connector-curvature="0" />
      <path
         style="fill:#d5512b"
         d="m 253.35715,506.22883 c -2.3588,-1.56246 -4.11921,-1.88317 -8.2365,-1.50055 -2.88007,0.26765 -5.49413,0.0698 -5.80902,-0.43972 -1.04249,-1.68679 -5.78875,-0.96095 -8.13609,1.24426 -1.27078,1.19384 -2.45986,1.98134 -2.64241,1.75 -0.39475,-0.50025 -4.67598,-18.16944 -4.67598,-19.29836 0,-0.42964 1.35,-0.48465 3,-0.12225 2.58279,0.56727 3,0.36972 3,-1.42055 0,-2.13265 -2.39296,-2.87068 -3.5,-1.07945 -1.25413,2.02922 -3.26827,0.90865 -3.88194,-2.15972 -0.34757,-1.73785 -0.47847,-3.3132 -0.29089,-3.50079 0.18759,-0.18758 2.55321,0.13116 5.25695,0.70833 2.70373,0.57716 6.04088,1.24309 7.41588,1.47983 10.017,1.72469 11.05316,2.71218 6.55691,6.24892 -1.3437,1.05696 -2.75967,3.1831 -3.1466,4.72476 l -0.70352,2.80303 5.95187,-0.53969 c 3.27352,-0.29684 8.48512,-1.33824 11.58133,-2.31423 l 5.62947,-1.77454 -2.43473,-4.8047 c -3.34149,-6.59411 -3.0337,-7.323 0.68882,-1.63127 1.70501,2.60696 3.44678,4.52562 3.87059,4.26369 0.42381,-0.26193 2.51101,-3.39953 4.63821,-6.97246 2.12721,-3.57292 4.2496,-6.50408 4.71643,-6.51369 0.81208,-0.0167 -0.9223,3.31783 -4.96849,9.55249 l -1.88029,2.89728 3,-2.13585 c 1.65,-1.17472 4.09094,-3.30485 5.42431,-4.73362 1.33338,-1.42878 3.3892,-2.59777 4.5685,-2.59777 4.08926,0 12.42831,-3.06275 15.59574,-5.72797 3.74615,-3.15217 5.91145,-7.81867 5.91145,-12.73991 0,-1.94267 0.40598,-3.53212 0.90217,-3.53212 3.088,0 5.08675,19.53592 2.81358,27.5 -0.78492,2.75 -2.49516,9.05 -3.80053,14 -1.30537,4.95 -2.49708,9.18927 -2.64825,9.42061 -0.15117,0.23134 -1.3751,-0.61302 -2.71985,-1.87634 -1.92024,-1.80397 -3.04616,-2.13616 -5.24605,-1.54776 -1.54059,0.41205 -5.4172,0.6749 -8.6147,0.58411 -4.31991,-0.12267 -6.66265,0.35964 -9.11804,1.87715 -4.46702,2.76077 -13.8342,2.71351 -18.06833,-0.0911 z m -21.5,-13.42564 c 0,-0.85746 -0.45,-1.2809 -1,-0.94098 -0.55,0.33992 -1,1.04148 -1,1.55902 0,0.51754 0.45,0.94098 1,0.94098 0.55,0 1,-0.70156 1,-1.55902 z m 5.98469,-4.19098 c -0.0346,-1.69231 -1.83594,-3.45997 -2.87289,-2.8191 -1.85024,1.14351 -1.24661,3.5691 0.8882,3.5691 1.1,0 1.99311,-0.3375 1.98469,-0.75 z m 22.11321,-4.80865 c -2.62407,-4.44746 -2.64339,-4.32309 0.65691,-4.22926 1.51514,0.0431 3.79451,-0.25166 5.06527,-0.65499 l 2.31046,-0.73331 -2.05098,4.02026 c -2.8077,5.50354 -3.55861,5.70406 -5.98166,1.5973 z m -16.3479,-18.52145 c -2.5315,-1.47446 -2.27475,-4.9199 0.36663,-4.9199 1.64524,0 1.99659,-0.45904 1.57762,-2.06117 -0.73404,-2.80701 1.86482,-3.64784 4.34299,-1.40512 2.60734,2.3596 2.48829,5.98479 -0.25975,7.90959 -2.57115,1.8009 -3.61244,1.88324 -6.02749,0.4766 z m 39.47251,-0.4766 c -2.76533,-1.93691 -2.89084,-4.4433 -0.22251,-4.4433 1.46667,0 2,-0.66667 2,-2.5 0,-2.95697 1.99724,-3.26552 4.34501,-0.67126 2.30458,2.54653 2.06425,5.7712 -0.56752,7.61456 -1.22238,0.85618 -2.47225,1.5567 -2.77749,1.5567 -0.30524,0 -1.55512,-0.70052 -2.77749,-1.5567 z m 5.738,-23.7251 c -1.42037,-1.12393 -3.96051,-7.92269 -3.96051,-10.6004 0,-1.3832 6.70136,-4.74977 7.62204,-3.82909 0.35594,0.35594 0.0789,2.01905 -0.61562,3.6958 -0.71477,1.7256 -1.04348,4.99433 -0.75744,7.53206 0.53248,4.72417 0.20848,5.17746 -2.28847,3.20163 z"
         id="path3781"
         inkscape:connector-curvature="0" />
      <path
         style="fill:#ea2f24"
         d="m 253.35715,506.25208 c -2.10217,-1.37618 -4.34674,-1.88009 -7.5,-1.68378 -2.475,0.15409 -5.98012,-0.34113 -7.78915,-1.1005 -3.02286,-1.26889 -3.47335,-1.20761 -5.56445,0.75687 -3.38731,3.18222 -4.45472,2.64319 -5.17331,-2.61246 -0.3572,-2.6125 -1.05726,-6.325 -1.55569,-8.25 -1.3607,-5.25514 -1.16704,-5.89432 1.72339,-5.68826 2.90139,0.20684 3.82173,-1.0286 2.41917,-3.24744 -0.74877,-1.18455 -1.18103,-1.20871 -2.47101,-0.13812 -2.17284,1.80329 -4.58895,0.6104 -4.58895,-2.26569 0,-2.3351 0.13284,-2.3752 4.75,-1.43409 2.6125,0.5325 5.875,1.11286 7.25,1.28969 3.95129,0.50813 8.5238,2.06326 8.25,2.80586 -0.1375,0.37293 -0.25,1.11222 -0.25,1.64287 0,0.53064 -0.90196,1.44753 -2.00435,2.03751 -1.69603,0.90769 -2.18267,0.68131 -3.16365,-1.4717 -1.09153,-2.39565 -1.26666,-2.44725 -2.99565,-0.88253 -2.54668,2.30472 -2.30992,3.08898 1.16281,3.85172 2.57087,0.56465 2.91239,1.0044 2.39159,3.07945 -0.56494,2.2509 -0.33407,2.42073 3.29074,2.42073 2.14407,0 6.58036,-0.732 9.85841,-1.62667 3.27806,-0.89467 7.49814,-1.9088 9.37797,-2.25362 1.87983,-0.34481 3.62571,-1.25045 3.87973,-2.01252 0.3076,-0.92279 0.0329,-1.12048 -0.82238,-0.59188 -0.84836,0.52432 -1.03864,0.39632 -0.56063,-0.37711 0.39798,-0.64396 1.07187,-0.95558 1.49753,-0.69251 0.42565,0.26307 3.27918,-1.75459 6.34116,-4.48369 3.06198,-2.7291 6.26047,-4.962 7.10776,-4.962 11.11759,0 21.63896,-8.21296 21.63896,-16.89132 0,-4.23389 1.59347,-4.6927 2.97811,-0.85749 1.9394,5.37181 2.32783,17.65803 0.73501,23.24881 -0.78348,2.75 -2.49253,9.05 -3.7979,14 -1.30537,4.95 -2.49708,9.18927 -2.64825,9.42061 -0.15117,0.23134 -1.3751,-0.61302 -2.71985,-1.87634 -1.92024,-1.80397 -3.04616,-2.13616 -5.24605,-1.54776 -1.54059,0.41205 -5.4172,0.6749 -8.6147,0.58411 -4.31991,-0.12267 -6.66265,0.35964 -9.11804,1.87715 -4.44485,2.74707 -13.82216,2.71183 -18.06833,-0.0679 z m -21.5,-13.44889 c 0,-0.85746 -0.45,-1.2809 -1,-0.94098 -0.55,0.33992 -1,1.04148 -1,1.55902 0,0.51754 0.45,0.94098 1,0.94098 0.55,0 1,-0.70156 1,-1.55902 z m 28.58143,-6.57274 c 0.32503,-0.52591 -0.12283,-2.04557 -0.99523,-3.37703 -2.10176,-3.20768 -2.04375,-3.37045 1.16861,-3.27912 1.51514,0.0431 3.80376,-0.2546 5.08582,-0.66151 2.13065,-0.67624 2.23371,-0.55801 1.19895,1.37546 -0.62264,1.16341 -0.81673,2.62552 -0.43132,3.24913 0.4617,0.74704 0.24893,0.8546 -0.62369,0.31529 -0.95974,-0.59315 -1.14988,-0.36364 -0.6905,0.8335 0.34868,0.90863 0.31265,1.60416 -0.0801,1.54562 -0.39271,-0.0585 -0.93901,-0.0187 -1.21401,0.0885 -1.93781,0.75548 -3.90899,0.70367 -3.41857,-0.0898 z m -16.83143,-20.94834 c -2.5315,-1.47446 -2.27475,-4.9199 0.36663,-4.9199 1.64524,0 1.99659,-0.45904 1.57762,-2.06117 -0.73404,-2.80701 1.86482,-3.64784 4.34299,-1.40512 2.60734,2.3596 2.48829,5.98479 -0.25975,7.90959 -2.57115,1.8009 -3.61244,1.88324 -6.02749,0.4766 z m 39.47251,-0.4766 c -2.76533,-1.93691 -2.89084,-4.4433 -0.22251,-4.4433 1.46667,0 2,-0.66667 2,-2.5 0,-2.95697 1.99724,-3.26552 4.34501,-0.67126 2.30458,2.54653 2.06425,5.7712 -0.56752,7.61456 -1.22238,0.85618 -2.47225,1.5567 -2.77749,1.5567 -0.30524,0 -1.55512,-0.70052 -2.77749,-1.5567 z m 5.738,-23.7251 c -1.42037,-1.12393 -3.96051,-7.92269 -3.96051,-10.6004 0,-1.3832 6.70136,-4.74977 7.62204,-3.82909 0.35594,0.35594 0.0789,2.01905 -0.61562,3.6958 -0.71477,1.7256 -1.04348,4.99433 -0.75744,7.53206 0.53248,4.72417 0.20848,5.17746 -2.28847,3.20163 z"
         id="path3779"
         inkscape:connector-curvature="0" />
      <path
         style="fill:#cf511c"
         d="m 253.35715,506.23505 c -2.25985,-1.49222 -4.18887,-1.87885 -7.81876,-1.56709 -3.30764,0.28409 -5.26758,-0.0349 -6.25,-1.01736 -0.78718,-0.78719 -1.43124,-1.119 -1.43124,-0.73737 0,0.38163 -0.60184,0.19439 -1.33742,-0.41609 -1.02245,-0.84856 -1.88776,-0.52414 -3.67431,1.37756 -3.11278,3.31339 -4.60865,3.13559 -5.36327,-0.63749 -1.27109,-6.35544 -0.95957,-7.1065 2.625,-6.32882 1.7875,0.3878 3.52715,1.13996 3.86589,1.67147 1.07847,1.69222 14.16661,0.93889 21.14721,-1.21719 7.75876,-2.39644 20.31185,-10.44334 24.15813,-15.48608 1.4743,-1.93291 3.26351,-3.51438 3.97602,-3.51438 2.14036,0 7.91543,-3.10897 10.94203,-5.89056 3.66359,-3.36703 5.66072,-7.24814 5.66072,-11.00076 0,-4.23389 1.59347,-4.6927 2.97811,-0.85749 1.9394,5.37181 2.32783,17.65803 0.73501,23.24881 -0.78348,2.75 -2.49253,9.05 -3.7979,14 -1.30537,4.95 -2.49708,9.18927 -2.64825,9.42061 -0.15117,0.23134 -1.3751,-0.61302 -2.71985,-1.87634 -1.92024,-1.80397 -3.04616,-2.13616 -5.24605,-1.54776 -1.54059,0.41205 -5.4172,0.6749 -8.6147,0.58411 -4.31991,-0.12267 -6.66265,0.35964 -9.11804,1.87715 -4.46109,2.75711 -13.831,2.71307 -18.06833,-0.0849 z m -20.98554,-12.82729 c -0.53748,-1.69345 -0.95665,-1.8012 -3.139,-0.80685 -2.0217,0.92114 -2.69886,0.86282 -3.43176,-0.29556 -1.8131,-2.86566 -1.09319,-4.83032 1.69709,-4.6314 2.90139,0.20684 3.82173,-1.0286 2.41917,-3.24744 -0.74877,-1.18455 -1.18103,-1.20871 -2.47101,-0.13812 -2.17284,1.80329 -4.58895,0.6104 -4.58895,-2.26569 0,-2.3351 0.13284,-2.3752 4.75,-1.43409 2.6125,0.5325 5.875,1.11286 7.25,1.28969 3.85584,0.49586 7.95988,1.90171 7.98098,2.73391 0.0105,0.4125 0.019,1.18417 0.019,1.71482 0,0.53064 -0.90196,1.44753 -2.00435,2.03751 -1.69603,0.90769 -2.18267,0.68131 -3.16365,-1.4717 -1.09153,-2.39565 -1.26666,-2.44725 -2.99565,-0.88253 -2.54681,2.30483 -2.30992,3.08898 1.16365,3.8519 3.47116,0.76239 3.71024,1.54726 1.17126,3.84501 -2.41522,2.18574 -3.8983,2.09037 -4.6568,-0.29946 z m 28.06697,-7.17731 c 0.32503,-0.52591 -0.12283,-2.04557 -0.99523,-3.37703 -2.10176,-3.20768 -2.04375,-3.37045 1.16861,-3.27912 1.51514,0.0431 3.80376,-0.2546 5.08582,-0.66151 2.13065,-0.67624 2.23371,-0.55801 1.19895,1.37546 -0.62264,1.16341 -0.81673,2.62552 -0.43132,3.24913 0.4617,0.74704 0.24893,0.8546 -0.62369,0.31529 -0.95974,-0.59315 -1.14988,-0.36364 -0.6905,0.8335 0.34868,0.90863 0.31265,1.60416 -0.0801,1.54562 -0.39271,-0.0585 -0.93901,-0.0187 -1.21401,0.0885 -1.93781,0.75548 -3.90899,0.70367 -3.41857,-0.0898 z m -16.83143,-20.94834 c -2.5315,-1.47446 -2.27475,-4.9199 0.36663,-4.9199 1.64524,0 1.99659,-0.45904 1.57762,-2.06117 -0.73404,-2.80701 1.86482,-3.64784 4.34299,-1.40512 2.60734,2.3596 2.48829,5.98479 -0.25975,7.90959 -2.57115,1.8009 -3.61244,1.88324 -6.02749,0.4766 z m 39.47251,-0.4766 c -2.76533,-1.93691 -2.89084,-4.4433 -0.22251,-4.4433 1.46667,0 2,-0.66667 2,-2.5 0,-2.95697 1.99724,-3.26552 4.34501,-0.67126 2.30458,2.54653 2.06425,5.7712 -0.56752,7.61456 -1.22238,0.85618 -2.47225,1.5567 -2.77749,1.5567 -0.30524,0 -1.55512,-0.70052 -2.77749,-1.5567 z m 5.77749,-34.7433 c 0,-1.44095 1.95378,-3.7 3.2,-3.7 1.28019,0 0.92506,2.0178 -0.62857,3.57143 -1.77424,1.77423 -2.57143,1.8141 -2.57143,0.12857 z"
         id="path3777"
         inkscape:connector-curvature="0" />
      <path
         style="fill:#ce2c2f"
         d="m 253.35715,506.23505 c -2.25985,-1.49222 -4.18887,-1.87885 -7.81876,-1.56709 -3.30764,0.28409 -5.26758,-0.0349 -6.25,-1.01736 -0.78718,-0.78719 -1.43124,-1.119 -1.43124,-0.73737 0,0.38163 -0.60184,0.19439 -1.33742,-0.41609 -1.02245,-0.84856 -1.88776,-0.52414 -3.67431,1.37756 -3.11278,3.31339 -4.60865,3.13559 -5.36327,-0.63749 -1.27109,-6.35544 -0.95957,-7.1065 2.625,-6.32882 1.7875,0.3878 3.52715,1.13996 3.86589,1.67147 1.07847,1.69222 14.16661,0.93889 21.14721,-1.21719 7.75876,-2.39644 20.31185,-10.44334 24.15813,-15.48608 1.4743,-1.93291 3.26351,-3.51438 3.97602,-3.51438 2.14036,0 7.91543,-3.10897 10.94203,-5.89056 3.66359,-3.36703 5.66072,-7.24814 5.66072,-11.00076 0,-4.23389 1.59347,-4.6927 2.97811,-0.85749 1.9394,5.37181 2.32783,17.65803 0.73501,23.24881 -0.78348,2.75 -2.49253,9.05 -3.7979,14 -1.30537,4.95 -2.49708,9.18927 -2.64825,9.42061 -0.15117,0.23134 -1.3751,-0.61302 -2.71985,-1.87634 -1.92024,-1.80397 -3.04616,-2.13616 -5.24605,-1.54776 -1.54059,0.41205 -5.4172,0.6749 -8.6147,0.58411 -4.31991,-0.12267 -6.66265,0.35964 -9.11804,1.87715 -4.46109,2.75711 -13.831,2.71307 -18.06833,-0.0849 z m -20.5,-12.87284 c 0,-1.36719 0.66667,-2 2.10699,-2 1.51045,0 1.93514,0.44784 1.5,1.58179 -0.33385,0.86998 -0.60699,1.76998 -0.60699,2 0,0.23001 -0.675,0.41821 -1.5,0.41821 -0.83333,0 -1.5,-0.88889 -1.5,-2 z m -7,-2 c 0,-1.11111 0.66667,-2 1.5,-2 0.83333,0 1.5,0.88889 1.5,2 0,1.11111 -0.66667,2 -1.5,2 -0.83333,0 -1.5,-0.88889 -1.5,-2 z m 13,-5.41667 c 0,-0.87083 0.7125,-1.58333 1.58333,-1.58333 1.76593,0 1.45839,2.15276 -0.39583,2.77083 -0.65313,0.21771 -1.1875,-0.31666 -1.1875,-1.1875 z m 21.58143,0.28491 c 0.32503,-0.52591 -0.12283,-2.04557 -0.99523,-3.37703 -2.10176,-3.20768 -2.04375,-3.37045 1.16861,-3.27912 1.51514,0.0431 3.80376,-0.2546 5.08582,-0.66151 2.13065,-0.67624 2.23371,-0.55801 1.19895,1.37546 -0.62264,1.16341 -0.81673,2.62552 -0.43132,3.24913 0.4617,0.74704 0.24893,0.8546 -0.62369,0.31529 -0.95974,-0.59315 -1.14988,-0.36364 -0.6905,0.8335 0.34868,0.90863 0.31265,1.60416 -0.0801,1.54562 -0.39271,-0.0585 -0.93901,-0.0187 -1.21401,0.0885 -1.93781,0.75548 -3.90899,0.70367 -3.41857,-0.0898 z m -28.94195,-0.56209 c -1.12618,-1.12619 -0.68589,-2.30615 0.86052,-2.30615 0.825,0 1.5,0.42344 1.5,0.94098 0,1.26098 -1.56159,2.1641 -2.36052,1.36517 z m -7.63948,-2.72282 c 0,-0.87083 0.7125,-1.58333 1.58333,-1.58333 0.87084,0 1.40521,0.53438 1.1875,1.1875 -0.61807,1.85422 -2.77083,2.16176 -2.77083,0.39583 z m 19.75,-17.66343 c -2.5315,-1.47446 -2.27475,-4.9199 0.36663,-4.9199 1.64524,0 1.99659,-0.45904 1.57762,-2.06117 -0.73404,-2.80701 1.86482,-3.64784 4.34299,-1.40512 2.60734,2.3596 2.48829,5.98479 -0.25975,7.90959 -2.57115,1.8009 -3.61244,1.88324 -6.02749,0.4766 z m 39.47251,-0.4766 c -2.76533,-1.93691 -2.89084,-4.4433 -0.22251,-4.4433 1.46667,0 2,-0.66667 2,-2.5 0,-2.95697 1.99724,-3.26552 4.34501,-0.67126 2.30458,2.54653 2.06425,5.7712 -0.56752,7.61456 -1.22238,0.85618 -2.47225,1.5567 -2.77749,1.5567 -0.30524,0 -1.55512,-0.70052 -2.77749,-1.5567 z m 5.77749,-34.7433 c 0,-1.44095 1.95378,-3.7 3.2,-3.7 1.28019,0 0.92506,2.0178 -0.62857,3.57143 -1.77424,1.77423 -2.57143,1.8141 -2.57143,0.12857 z"
         id="path3775"
         inkscape:connector-curvature="0" />
      <path
         style="fill:#646161"
         d="m 261.85715,507.18783 c -8.93556,-1.04331 -8.97736,-1.05324 -8.39584,-1.99416 0.91044,-1.47311 -4.79478,-2.92533 -9.01642,-2.29506 -2.24826,0.33565 -5.26325,0.16198 -6.69999,-0.38594 -2.04321,-0.7792 -3.27787,-0.59143 -5.66783,0.86199 -3.45906,2.10358 -4.21992,1.36195 -4.21992,-4.11329 0,-2.70078 0.22141,-2.88308 2.75,-2.26424 1.5125,0.37016 3.02715,1.09515 3.36589,1.61107 1.09472,1.66735 14.21909,0.89434 21.14721,-1.24553 7.62113,-2.35393 20.29195,-10.41725 23.99127,-15.2673 1.79277,-2.35046 3.9092,-3.66002 7.37965,-4.56623 2.67629,-0.69883 5.84777,-2.08205 7.04774,-3.07381 3.44049,-2.84351 7.31181,-9.12422 7.38592,-11.98267 l 0.0677,-2.61045 1.03515,2.5 c 0.56934,1.375 1.36331,3.175 1.76438,4 1.72868,3.55589 0.39137,16.58898 -2.75815,26.88004 -1.74721,5.70903 -3.17674,11.22153 -3.17674,12.25 0,2.44176 -1.23849,2.3689 -3.5725,-0.21015 -1.4638,-1.61748 -2.55471,-1.92914 -4.90499,-1.4013 -1.66238,0.37335 -5.63864,0.61539 -8.83614,0.53788 -4.02245,-0.0975 -6.79536,0.42428 -9,1.69357 -2.65456,1.52833 -4.27123,1.70784 -9.68637,1.07558 z m -28.3125,-13.47145 c -1.3041,-1.3041 -0.68149,-2.35417 1.39583,-2.35417 1.16375,0 1.90861,0.52417 1.6875,1.1875 -0.48711,1.46134 -2.15686,2.09314 -3.08333,1.16667 z m -7.6875,-2.85417 c 0,-0.825 0.675,-1.5 1.5,-1.5 0.825,0 1.5,0.675 1.5,1.5 0,0.825 -0.675,1.5 -1.5,1.5 -0.825,0 -1.5,-0.675 -1.5,-1.5 z m 13,-4.91667 c 0,-0.87083 0.7125,-1.58333 1.58333,-1.58333 1.76593,0 1.45839,2.15276 -0.39583,2.77083 -0.65313,0.21771 -1.1875,-0.31666 -1.1875,-1.1875 z m 21.58143,0.28491 c 0.32503,-0.52591 -0.12283,-2.04557 -0.99523,-3.37703 -2.10176,-3.20768 -2.04375,-3.37045 1.16861,-3.27912 1.51514,0.0431 3.80376,-0.2546 5.08582,-0.66151 2.13065,-0.67624 2.23371,-0.55801 1.19895,1.37546 -0.62264,1.16341 -0.81673,2.62552 -0.43132,3.24913 0.4617,0.74704 0.24893,0.8546 -0.62369,0.31529 -0.95974,-0.59315 -1.14988,-0.36364 -0.6905,0.8335 0.34868,0.90863 0.31265,1.60416 -0.0801,1.54562 -0.39271,-0.0585 -0.93901,-0.0187 -1.21401,0.0885 -1.93781,0.75548 -3.90899,0.70367 -3.41857,-0.0898 z m -28.94195,-0.56209 c -1.12618,-1.12619 -0.68589,-2.30615 0.86052,-2.30615 0.825,0 1.5,0.42344 1.5,0.94098 0,1.26098 -1.56159,2.1641 -2.36052,1.36517 z m -7.63948,-2.72282 c 0,-0.87083 0.7125,-1.58333 1.58333,-1.58333 0.87084,0 1.40521,0.53438 1.1875,1.1875 -0.61807,1.85422 -2.77083,2.16176 -2.77083,0.39583 z m 19.75,-17.66343 c -2.5315,-1.47446 -2.27475,-4.9199 0.36663,-4.9199 1.64524,0 1.99659,-0.45904 1.57762,-2.06117 -0.73404,-2.80701 1.86482,-3.64784 4.34299,-1.40512 2.60734,2.3596 2.48829,5.98479 -0.25975,7.90959 -2.57115,1.8009 -3.61244,1.88324 -6.02749,0.4766 z m 39.47251,-0.4766 c -2.76533,-1.93691 -2.89084,-4.4433 -0.22251,-4.4433 1.46667,0 2,-0.66667 2,-2.5 0,-2.95697 1.99724,-3.26552 4.34501,-0.67126 2.30458,2.54653 2.06425,5.7712 -0.56752,7.61456 -1.22238,0.85618 -2.47225,1.5567 -2.77749,1.5567 -0.30524,0 -1.55512,-0.70052 -2.77749,-1.5567 z m 5.77749,-34.88428 c 0,-1.50117 1.79533,-3.09702 2.59007,-2.30228 0.69748,0.69747 -0.68337,3.74326 -1.69706,3.74326 -0.49116,0 -0.89301,-0.64844 -0.89301,-1.44098 z"
         id="path3773"
         inkscape:connector-curvature="0" />
      <path
         style="fill:#b74e20"
         d="m 261.85715,507.18783 c -8.93556,-1.04331 -8.97736,-1.05324 -8.39584,-1.99416 0.91044,-1.47311 -4.79478,-2.92533 -9.01642,-2.29506 -2.24826,0.33565 -5.26325,0.16198 -6.69999,-0.38594 -2.04321,-0.7792 -3.27787,-0.59143 -5.66783,0.86199 -3.45906,2.10358 -4.21992,1.36195 -4.21992,-4.11329 0,-2.70078 0.22141,-2.88308 2.75,-2.26424 1.5125,0.37016 3.02715,1.09515 3.36589,1.61107 1.09472,1.66735 14.21909,0.89434 21.14721,-1.24553 7.62113,-2.35393 20.29195,-10.41725 23.99127,-15.2673 1.79277,-2.35046 3.9092,-3.66002 7.37965,-4.56623 2.67629,-0.69883 5.84777,-2.08205 7.04774,-3.07381 3.44049,-2.84351 7.31181,-9.12422 7.38592,-11.98267 l 0.0677,-2.61045 1.03515,2.5 c 0.56934,1.375 1.36331,3.175 1.76438,4 1.72868,3.55589 0.39137,16.58898 -2.75815,26.88004 -1.74721,5.70903 -3.17674,11.22153 -3.17674,12.25 0,2.44176 -1.23849,2.3689 -3.5725,-0.21015 -1.4638,-1.61748 -2.55471,-1.92914 -4.90499,-1.4013 -1.66238,0.37335 -5.63864,0.61539 -8.83614,0.53788 -4.02245,-0.0975 -6.79536,0.42428 -9,1.69357 -2.65456,1.52833 -4.27123,1.70784 -9.68637,1.07558 z m -28.3125,-13.47145 c -1.3041,-1.3041 -0.68149,-2.35417 1.39583,-2.35417 1.16375,0 1.90861,0.52417 1.6875,1.1875 -0.48711,1.46134 -2.15686,2.09314 -3.08333,1.16667 z m -7.6875,-2.85417 c 0,-0.825 0.675,-1.5 1.5,-1.5 0.825,0 1.5,0.675 1.5,1.5 0,0.825 -0.675,1.5 -1.5,1.5 -0.825,0 -1.5,-0.675 -1.5,-1.5 z m 13,-4.91667 c 0,-0.87083 0.7125,-1.58333 1.58333,-1.58333 1.76593,0 1.45839,2.15276 -0.39583,2.77083 -0.65313,0.21771 -1.1875,-0.31666 -1.1875,-1.1875 z m -7.36052,-0.27718 c -1.12618,-1.12619 -0.68589,-2.30615 0.86052,-2.30615 0.825,0 1.5,0.42344 1.5,0.94098 0,1.26098 -1.56159,2.1641 -2.36052,1.36517 z m -7.63948,-2.72282 c 0,-0.87083 0.7125,-1.58333 1.58333,-1.58333 0.87084,0 1.40521,0.53438 1.1875,1.1875 -0.61807,1.85422 -2.77083,2.16176 -2.77083,0.39583 z m 20.75,-18.66343 c -2.31024,-1.34559 -2.21526,-2.56497 0.25,-3.20965 1.20988,-0.31639 2,-1.36402 2,-2.65181 0,-1.81893 0.29113,-1.973 2,-1.05844 2.39648,1.28256 2.59511,4.26203 0.42857,6.42857 -1.8215,1.82151 -2.30722,1.87251 -4.67857,0.49133 z m 39,0 c -2.31024,-1.34559 -2.21526,-2.56497 0.25,-3.20965 1.1966,-0.31292 2,-1.36402 2,-2.61663 0,-2.35309 1.01621,-2.67741 2.8,-0.89362 1.83712,1.83712 1.42786,5.60769 -0.73426,6.76482 -2.30203,1.23201 -2.12014,1.2339 -4.31574,-0.0449 z m 5.25,-34.36088 c 0,-1.50117 1.79533,-3.09702 2.59007,-2.30228 0.69748,0.69747 -0.68337,3.74326 -1.69706,3.74326 -0.49116,0 -0.89301,-0.64844 -0.89301,-1.44098 z"
         id="path3771"
         inkscape:connector-curvature="0" />
      <path
         style="fill:#e41c21"
         d="m 254.30296,505.14093 c -2.29465,-1.80498 -4.14725,-2.22978 -9.88485,-2.26662 -3.88353,-0.0249 -7.54275,-0.35204 -8.13161,-0.72689 -0.58886,-0.37486 -2.46439,0.16602 -4.16783,1.20195 -3.50173,2.12952 -4.26152,1.40067 -4.26152,-4.088 0,-2.70078 0.22141,-2.88308 2.75,-2.26424 1.5125,0.37016 3.02715,1.09515 3.36589,1.61107 1.09472,1.66735 14.21909,0.89434 21.14721,-1.24553 7.62113,-2.35393 20.29195,-10.41725 23.99127,-15.2673 1.79277,-2.35046 3.9092,-3.66002 7.37965,-4.56623 2.67629,-0.69883 5.84777,-2.08205 7.04774,-3.07381 3.4812,-2.87716 7.3169,-9.14452 7.33355,-11.98267 0.0243,-4.14501 1.65136,-0.67992 2.96788,6.32064 0.9137,4.85858 0.85645,7.36522 -0.28705,12.56891 -2.83099,12.88294 -6.21184,24.97422 -6.98663,24.98698 -0.43477,0.007 -2.06412,-0.92861 -3.62077,-2.07949 -2.70929,-2.00307 -2.96841,-2.02107 -6.0622,-0.42122 -2.65025,1.3705 -3.74149,1.46023 -6.06318,0.49855 -3.22754,-1.33689 -8.25416,-0.54428 -10.01671,1.57946 -0.80258,0.96706 -3.22934,1.43572 -7.43424,1.43572 -4.93579,0 -6.83387,-0.46502 -9.0666,-2.22128 z m -9.69581,-40.85882 c -2.31024,-1.34559 -2.21526,-2.56497 0.25,-3.20965 1.20988,-0.31639 2,-1.36402 2,-2.65181 0,-1.81893 0.29113,-1.973 2,-1.05844 2.39648,1.28256 2.59511,4.26203 0.42857,6.42857 -1.8215,1.82151 -2.30722,1.87251 -4.67857,0.49133 z m 39,0 c -2.31024,-1.34559 -2.21526,-2.56497 0.25,-3.20965 1.1966,-0.31292 2,-1.36402 2,-2.61663 0,-2.35309 1.01621,-2.67741 2.8,-0.89362 1.83712,1.83712 1.42786,5.60769 -0.73426,6.76482 -2.30203,1.23201 -2.12014,1.2339 -4.31574,-0.0449 z m 5.25,-34.36088 c 0,-1.50117 1.79533,-3.09702 2.59007,-2.30228 0.69748,0.69747 -0.68337,3.74326 -1.69706,3.74326 -0.49116,0 -0.89301,-0.64844 -0.89301,-1.44098 z"
         id="path3769"
         inkscape:connector-curvature="0" />
      <path
         style="fill:#d81920"
         d="m 254.74201,505.51154 c -1.31167,-1.01787 -3.05986,-2.07312 -3.88486,-2.34499 -0.825,-0.27187 0.99179,-1.22382 4.03731,-2.11543 10.4757,-3.06689 23.11128,-11.31933 25.02061,-16.34124 0.50163,-1.31941 1.63875,-2.67778 2.52692,-3.0186 0.88817,-0.34082 2.67447,-1.67929 3.96956,-2.97438 1.29508,-1.29508 2.93764,-2.36966 3.65014,-2.38796 3.40939,-0.0876 10.78546,-9.54155 10.81077,-13.85628 0.0243,-4.14501 1.65136,-0.67992 2.96788,6.32064 0.9137,4.85858 0.85645,7.36522 -0.28705,12.56891 -2.83099,12.88294 -6.21184,24.97422 -6.98663,24.98698 -0.43477,0.007 -2.06412,-0.92861 -3.62077,-2.07949 -2.70929,-2.00307 -2.96841,-2.02107 -6.0622,-0.42122 -2.65025,1.3705 -3.74149,1.46023 -6.06318,0.49855 -3.22754,-1.33689 -8.25416,-0.54428 -10.01671,1.57946 -1.84419,2.22212 -13.03614,1.93298 -16.06179,-0.41495 z m -26.21877,-1.57711 c -0.36635,-0.95469 -0.66609,-3.09714 -0.66609,-4.761 0,-2.34774 0.35422,-2.88927 1.58179,-2.41821 0.86998,0.33384 1.99498,0.60699 2.5,0.60699 1.56599,0 1.01078,3.66411 -0.9157,6.04322 -1.65592,2.04497 -1.89857,2.09631 -2.5,0.529 z m 16.08391,-39.65232 c -2.31024,-1.34559 -2.21526,-2.56497 0.25,-3.20965 1.20988,-0.31639 2,-1.36402 2,-2.65181 0,-1.81893 0.29113,-1.973 2,-1.05844 2.39648,1.28256 2.59511,4.26203 0.42857,6.42857 -1.8215,1.82151 -2.30722,1.87251 -4.67857,0.49133 z m 39,0 c -2.31024,-1.34559 -2.21526,-2.56497 0.25,-3.20965 1.1966,-0.31292 2,-1.36402 2,-2.61663 0,-2.35309 1.01621,-2.67741 2.8,-0.89362 1.83712,1.83712 1.42786,5.60769 -0.73426,6.76482 -2.30203,1.23201 -2.12014,1.2339 -4.31574,-0.0449 z"
         id="path3767"
         inkscape:connector-curvature="0" />
      <path
         style="fill:#cc151c"
         d="m 255.60715,506.28211 c -2.6948,-1.56958 -2.12406,-2.40392 2.5,-3.65461 4.60868,-1.24653 14.5784,-7.07819 19.79167,-11.57689 2.06678,-1.78349 3.29479,-3.78998 3.35826,-5.48721 0.0636,-1.69924 0.73704,-2.79794 1.84561,-3.01086 0.96005,-0.18439 2.98505,-1.55085 4.5,-3.03658 1.51495,-1.48572 3.95156,-3.6236 5.41469,-4.75084 3.80574,-2.93206 7.83718,-9.24088 7.85508,-12.29246 0.0243,-4.14501 1.65136,-0.67992 2.96788,6.32064 0.9137,4.85858 0.85645,7.36522 -0.28705,12.56891 -2.83099,12.88294 -6.21184,24.97422 -6.98663,24.98698 -0.43477,0.007 -2.06412,-0.92861 -3.62077,-2.07949 -2.70929,-2.00307 -2.96841,-2.02107 -6.0622,-0.42122 -2.65025,1.3705 -3.74149,1.46023 -6.06318,0.49855 -3.22754,-1.33689 -8.25416,-0.54428 -10.01671,1.57946 -1.40593,1.69404 -12.45481,1.9526 -15.19665,0.35562 z m -27.75,-6.4199 c 0,-1.75758 0.54444,-2.5 1.83333,-2.5 2.59929,0 3.25111,0.9737 2.0963,3.13148 -1.4678,2.74262 -3.92963,2.347 -3.92963,-0.63148 z m 16.75,-35.5801 c -2.31024,-1.34559 -2.21526,-2.56497 0.25,-3.20965 1.20988,-0.31639 2,-1.36402 2,-2.65181 0,-1.81893 0.29113,-1.973 2,-1.05844 2.39648,1.28256 2.59511,4.26203 0.42857,6.42857 -1.8215,1.82151 -2.30722,1.87251 -4.67857,0.49133 z m 39,0 c -2.31024,-1.34559 -2.21526,-2.56497 0.25,-3.20965 1.1966,-0.31292 2,-1.36402 2,-2.61663 0,-2.35309 1.01621,-2.67741 2.8,-0.89362 1.83712,1.83712 1.42786,5.60769 -0.73426,6.76482 -2.30203,1.23201 -2.12014,1.2339 -4.31574,-0.0449 z"
         id="path3765"
         inkscape:connector-curvature="0" />
      <path
         style="fill:#b01015"
         d="m 262.54006,506.71179 c -0.35773,-0.35773 2.05081,-2.04523 5.3523,-3.75 8.91697,-4.60439 17.25211,-11.43802 16.41631,-13.45906 -1.73806,-4.20282 -1.63492,-5.12231 0.68651,-6.12031 1.29908,-0.55849 3.03697,-1.43404 3.86197,-1.94567 0.825,-0.51163 2.25194,-1.15994 3.17099,-1.44068 0.91904,-0.28075 3.61904,-4.44391 6,-9.25148 l 4.32901,-8.74104 1.33665,6.17911 c 1.13557,5.24957 1.11878,7.19455 -0.11159,12.92933 -2.68118,12.49703 -6.2191,25.22408 -7.01555,25.2372 -0.43477,0.007 -2.06412,-0.92861 -3.62077,-2.07949 -2.70929,-2.00307 -2.96841,-2.02107 -6.0622,-0.42122 -2.65025,1.3705 -3.74149,1.46023 -6.06318,0.49855 -3.22754,-1.33689 -8.25416,-0.54428 -10.01671,1.57946 -1.19767,1.44311 -7.0498,1.99924 -8.26374,0.7853 z m -34.04343,-6.04343 c -1.12618,-1.12619 -0.68589,-2.30615 0.86052,-2.30615 0.825,0 1.5,0.42344 1.5,0.94098 0,1.26098 -1.56159,2.1641 -2.36052,1.36517 z m 16.11052,-36.38625 c -2.31024,-1.34559 -2.21526,-2.56497 0.25,-3.20965 1.20988,-0.31639 2,-1.36402 2,-2.65181 0,-1.81893 0.29113,-1.973 2,-1.05844 2.39648,1.28256 2.59511,4.26203 0.42857,6.42857 -1.8215,1.82151 -2.30722,1.87251 -4.67857,0.49133 z m 39,0 c -2.31024,-1.34559 -2.21526,-2.56497 0.25,-3.20965 1.1966,-0.31292 2,-1.36402 2,-2.61663 0,-2.35309 1.01621,-2.67741 2.8,-0.89362 1.83712,1.83712 1.42786,5.60769 -0.73426,6.76482 -2.30203,1.23201 -2.12014,1.2339 -4.31574,-0.0449 z"
         id="path3763"
         inkscape:connector-curvature="0" />
      <path
         style="fill:#90070a"
         d="m 293.35715,504.36221 c -2.15478,-2.38101 -3.6508,-2.4905 -7.41713,-0.54285 -2.26672,1.17216 -3.14934,1.21473 -4.51292,0.21765 -1.52545,-1.11543 -1.28848,-1.56626 2.36747,-4.50427 3.05719,-2.45682 4.06258,-3.97887 4.06258,-6.15027 0,-2.03544 0.60699,-3.07814 2.06044,-3.53944 1.66984,-0.52999 1.94128,-1.19652 1.43183,-3.516 -0.58009,-2.64113 -0.24704,-3.0554 4.31477,-5.36704 2.71886,-1.37775 5.21041,-3.20088 5.53678,-4.05139 0.89088,-2.32158 2.6522,-1.85998 2.68477,0.70361 0.0513,4.03444 -6.49856,28.72402 -7.6236,28.73719 -0.60226,0.007 -1.9095,-0.88719 -2.90499,-1.98719 z m -9,-18 c -0.33992,-0.55 0.0835,-1 0.94098,-1 0.85746,0 1.55902,0.45 1.55902,1 0,0.55 -0.42344,1 -0.94098,1 -0.51754,0 -1.2191,-0.45 -1.55902,-1 z m -39.75,-22.0801 c -2.31024,-1.34559 -2.21526,-2.56497 0.25,-3.20965 1.20988,-0.31639 2,-1.36402 2,-2.65181 0,-1.81893 0.29113,-1.973 2,-1.05844 2.39648,1.28256 2.59511,4.26203 0.42857,6.42857 -1.8215,1.82151 -2.30722,1.87251 -4.67857,0.49133 z m 39,0 c -2.31024,-1.34559 -2.21526,-2.56497 0.25,-3.20965 1.1966,-0.31292 2,-1.36402 2,-2.61663 0,-2.35309 1.01621,-2.67741 2.8,-0.89362 1.83712,1.83712 1.42786,5.60769 -0.73426,6.76482 -2.30203,1.23201 -2.12014,1.2339 -4.31574,-0.0449 z"
         id="path3761"
         inkscape:connector-curvature="0" />
      <path
         style="fill:#760304"
         d="m 293.20534,503.11221 c -2.40314,-2.70294 -2.04353,-5.06438 1.08322,-7.1131 1.64638,-1.07875 2.18388,-2.19856 1.86243,-3.88013 -0.34493,-1.80437 0.15845,-2.64182 2.12715,-3.53882 2.93842,-1.33883 3.08463,-0.92635 1.65391,4.66603 -3.53115,13.80253 -3.39906,13.60881 -6.72671,9.86602 z m -3.34819,-10.25 c 0,-0.825 0.45,-1.5 1,-1.5 0.55,0 1,0.675 1,1.5 0,0.825 -0.45,1.5 -1,1.5 -0.55,0 -1,-0.675 -1,-1.5 z m 9.5,-8.5 c -0.7292,-1.17987 0.21667,-3 1.55902,-3 0.51754,0 0.94098,0.9 0.94098,2 0,2.10908 -1.45488,2.69104 -2.5,1 z m -54.75,-20.0801 c -2.31024,-1.34559 -2.21526,-2.56497 0.25,-3.20965 1.20988,-0.31639 2,-1.36402 2,-2.65181 0,-1.81893 0.29113,-1.973 2,-1.05844 2.39648,1.28256 2.59511,4.26203 0.42857,6.42857 -1.8215,1.82151 -2.30722,1.87251 -4.67857,0.49133 z m 39,0 c -2.31024,-1.34559 -2.21526,-2.56497 0.25,-3.20965 1.1966,-0.31292 2,-1.36402 2,-2.61663 0,-2.35309 1.01621,-2.67741 2.8,-0.89362 1.83712,1.83712 1.42786,5.60769 -0.73426,6.76482 -2.30203,1.23201 -2.12014,1.2339 -4.31574,-0.0449 z"
         id="path3759"
         inkscape:connector-curvature="0" />
      <path
         style="fill:#2b2829"
         d="m 244.60715,464.28211 c -2.31024,-1.34559 -2.21526,-2.56497 0.25,-3.20965 1.20988,-0.31639 2,-1.36402 2,-2.65181 0,-1.81893 0.29113,-1.973 2,-1.05844 2.39648,1.28256 2.59511,4.26203 0.42857,6.42857 -1.8215,1.82151 -2.30722,1.87251 -4.67857,0.49133 z m 39,0 c -2.31024,-1.34559 -2.21526,-2.56497 0.25,-3.20965 1.1966,-0.31292 2,-1.36402 2,-2.61663 0,-2.35309 1.01621,-2.67741 2.8,-0.89362 1.83712,1.83712 1.42786,5.60769 -0.73426,6.76482 -2.30203,1.23201 -2.12014,1.2339 -4.31574,-0.0449 z"
         id="path3757"
         inkscape:connector-curvature="0" />
    </g>
  </g>
</svg>
