<?xml version="1.0" encoding="UTF-8" standalone="no"?>
<!-- Generated by IcoMoon.io -->

<svg
   xmlns:dc="http://purl.org/dc/elements/1.1/"
   xmlns:cc="http://creativecommons.org/ns#"
   xmlns:rdf="http://www.w3.org/1999/02/22-rdf-syntax-ns#"
   xmlns:svg="http://www.w3.org/2000/svg"
   xmlns="http://www.w3.org/2000/svg"
   xmlns:xlink="http://www.w3.org/1999/xlink"
   xmlns:sodipodi="http://sodipodi.sourceforge.net/DTD/sodipodi-0.dtd"
   xmlns:inkscape="http://www.inkscape.org/namespaces/inkscape"
   version="1.1"
   width="128"
   height="128"
   viewBox="0 0 128 128"
   id="svg4136"
   inkscape:version="0.91 r13725"
   sodipodi:docname="prolog.svg">
  <metadata
     id="metadata4144">
    <rdf:RDF>
      <cc:Work
         rdf:about="">
        <dc:format>image/svg+xml</dc:format>
        <dc:type
           rdf:resource="http://purl.org/dc/dcmitype/StillImage" />
        <dc:title></dc:title>
      </cc:Work>
    </rdf:RDF>
  </metadata>
  <defs
     id="defs4142">
    <linearGradient
       inkscape:collect="always"
       id="linearGradient4154">
      <stop
         style="stop-color:#d41920;stop-opacity:1;"
         offset="0"
         id="stop4156" />
      <stop
         style="stop-color:#d4ac20;stop-opacity:0"
         offset="1"
         id="stop4158" />
    </linearGradient>
    <linearGradient
       inkscape:collect="always"
       xlink:href="#linearGradient4154"
       id="linearGradient4160"
       x1="16.532066"
       y1="23.106888"
       x2="3.8004751"
       y2="2.6603324"
       gradientUnits="userSpaceOnUse"
       gradientTransform="matrix(5.1553529,0,0,4.7436411,-19.405498,-12.584309)" />
  </defs>
  <sodipodi:namedview
     pagecolor="#ffffff"
     bordercolor="#666666"
     borderopacity="1"
     objecttolerance="10"
     gridtolerance="10"
     guidetolerance="10"
     inkscape:pageopacity="0"
     inkscape:pageshadow="2"
     inkscape:window-width="1920"
     inkscape:window-height="1017"
     id="namedview4140"
     showgrid="false"
     inkscape:zoom="4.6514368"
     inkscape:cx="17.369154"
     inkscape:cy="51.410925"
     inkscape:window-x="-8"
     inkscape:window-y="-8"
     inkscape:window-maximized="1"
     inkscape:current-layer="svg4136" />
  <path
     d="m 40.154294,45.724527 c 0,1.005652 -0.886721,1.816815 -1.9745,1.816815 -1.087779,0 -1.9745,-0.815907 -1.9745,-1.816815 0,-1.005652 0.886721,-1.816814 1.9745,-1.816814 1.087779,0 1.9745,0.815906 1.9745,1.816814 z m 0.927964,-8.661889 c -6.418415,0 -11.625321,4.786334 -11.625321,10.696911 0,5.910577 5.206906,10.696911 11.625321,10.696911 6.418414,0 11.625321,-4.786334 11.625321,-10.696911 0,-5.910577 -5.206907,-10.696911 -11.625321,-10.696911 z m 0.288699,17.432881 c -3.88198,0 -7.031901,-2.898364 -7.031901,-6.470326 0,-3.571962 3.149921,-6.470326 7.031901,-6.470326 3.881981,0 7.031902,2.898364 7.031902,6.470326 0,3.571962 -3.149921,6.470326 -7.031902,6.470326 z m 50.043011,-6.949434 c 1.092935,0 1.9745,-0.811162 1.9745,-1.816814 0,-1.005652 -0.88672,-1.816815 -1.9745,-1.816815 -1.092935,0 -1.9745,0.815906 -1.9745,1.816815 0,1.000908 0.886721,1.816814 1.9745,1.816814 z m 3.603592,11.337302 c 6.41841,0 11.62532,-4.791077 11.62532,-10.69691 0,-5.905833 -5.20175,-10.696911 -11.62532,-10.696911 -6.418414,0 -11.625321,4.786334 -11.625321,10.696911 0,5.910577 5.206907,10.69691 11.625321,10.69691 z M 94.610287,41.66397 c 3.881981,0 7.031903,2.898365 7.031903,6.470327 0,3.571961 -3.149922,6.470326 -7.031903,6.470326 -3.881981,0 -7.031901,-2.898365 -7.031901,-6.470326 0,-3.571962 3.14992,-6.470327 7.031901,-6.470327 z M 121.4903,62.237142 c 0,-14.667339 -6.39264,-27.954277 -16.73943,-37.650279 -1.92295,-5.398264 -1.70127,-12.860011 0.73721,-16.2564584 0.85063,-1.1859102 1.75798,-2.3338714 2.73234,-3.6241417 -8.655839,-1.3566814 -16.017683,0.92501 -20.951355,6.6078921 -0.598021,0.692571 -1.1548,1.100525 -1.737354,1.299758 C 78.618382,9.9622172 71.034858,8.4916884 63.080149,8.4916884 c -7.985642,0 -15.594943,1.480016 -22.528893,4.1506856 C 39.937769,12.452629 39.355214,12.039932 38.726261,11.314155 33.797744,5.6360165 26.4359,3.3495815 17.774907,4.7062629 c 0.974362,1.2902703 1.881704,2.4382315 2.732337,3.6241417 2.47457,3.4486274 2.665318,11.0811454 0.65473,16.4936404 C 10.959531,34.501072 4.67,47.688394 4.67,62.237142 c 0,6.845074 1.3971006,13.391298 3.9335343,19.410979 0.6341084,1.650787 1.2166633,3.320549 1.8095287,4.985567 0.541312,1.522708 1.062003,3.031186 1.541451,4.544408 1.412566,4.459022 2.278666,9.065094 2.41786,13.709124 0.04124,1.27129 0.01547,2.54259 -0.02062,3.80914 -0.01547,0.43642 -0.03093,0.87283 -0.0464,1.30925 l 11.831535,-9.96165 c 2.144626,1.82156 5.062556,3.46286 8.578507,4.86223 -3.562349,2.29118 -5.897724,6.09084 -5.897724,10.39332 0,3.67158 1.706422,6.96841 4.418138,9.28331 -0.262923,-0.80642 -0.407273,-1.66028 -0.407273,-2.54734 0,-4.87646 4.294409,-8.82317 9.588956,-8.82317 5.294548,0 9.588957,3.95145 9.588957,8.82317 0,1.0436 -0.206215,2.03977 -0.567089,2.96952 3.010726,-2.32438 4.928517,-5.81096 4.928517,-9.71023 0,-2.13464 -0.577399,-4.1412 -1.587849,-5.90584 3.165387,0.3036 6.459658,0.46488 9.85188,0.46488 2.309598,0 4.572798,-0.0759 6.784444,-0.21821 -0.927963,1.70297 -1.448654,3.62414 -1.448654,5.65917 0,3.67157 1.706422,6.96841 4.418138,9.2833 -0.262923,-0.80642 -0.407273,-1.66027 -0.407273,-2.54733 0,-4.87647 4.294409,-8.82318 9.588956,-8.82318 5.294548,0 9.588957,3.95146 9.588957,8.82318 0,1.0436 -0.206215,2.03976 -0.567089,2.96952 3.010726,-2.32439 4.928517,-5.81096 4.928517,-9.71024 0,-3.8803 -1.89717,-7.35264 -4.887274,-9.67702 3.639679,-1.28079 6.738046,-2.80824 9.130128,-4.51595 l 10.22822,8.60971 c -0.0206,-0.43642 -0.0361,-0.87283 -0.0464,-1.30925 -0.0361,-1.26655 -0.0619,-2.53785 -0.0206,-3.80914 0.14435,-4.644026 1.01045,-9.250101 2.41786,-13.709124 0.47945,-1.513221 1.00014,-3.026443 1.54145,-4.549152 0.6238,-1.750403 1.23213,-3.515038 1.90748,-5.25121 l -0.005,0 c 2.39208,-5.867884 3.71185,-12.21962 3.71185,-18.855973 z M 11.4596,78.265905 9.2685748,72.231993 l 2.9076192,2.46195 4.510934,-1.465785 -5.227528,5.037747 z m 1.123867,4.316713 2.907619,2.46195 4.510934,-1.465785 -5.227528,5.037746 -2.191025,-6.033911 z m 7.145319,-8.984456 2.701405,2.656439 4.614041,-1.152705 -5.62449,4.662999 -1.690956,-6.166733 z m -2.165248,25.525532 -2.191025,-6.033911 2.907619,2.46195 4.510934,-1.465785 -5.227528,5.037746 z m 7.238115,-8.581246 -2.191025,-6.033912 2.907619,2.46195 4.510934,-1.465785 -5.227528,5.037747 z m 4.954294,-15.09901 2.701405,2.656439 4.614041,-1.152705 -5.62449,4.663 -1.690956,-6.166734 z m 33.499484,8.827916 c -1.159955,-1.589119 -2.129161,-3.377472 -3.031348,-4.99031 -1.036226,-1.845276 -2.077607,-3.690553 -3.124144,-5.531086 -2.000277,-3.519781 -4.96976,-7.10123 -5.964743,-11.076401 -3.979933,2.979006 -9.0528,4.762615 -14.584494,4.762615 -12.774964,0 -23.132068,-9.529975 -23.132068,-21.284717 0,-11.754743 10.357104,-21.284718 23.132068,-21.284718 3.397378,0 6.619474,0.678341 9.527093,1.887969 1.314615,0.512314 2.572521,1.133731 3.763407,1.854764 6.000831,3.823375 9.92921,10.198828 9.92921,17.41865 0,1.038857 -0.08764,2.053997 -0.247457,3.050161 1.180576,-0.341542 2.433327,-0.526544 3.732476,-0.526544 1.500207,0 2.933395,0.256157 4.268632,0.706803 -0.201059,-1.124243 -0.314477,-2.272204 -0.314477,-3.443884 0,-1.840532 0.268079,-3.624142 0.747526,-5.327109 0.02578,-0.08539 0.05155,-0.166027 0.07733,-0.251413 0.128884,-0.426927 0.268078,-0.853855 0.422739,-1.271295 0.108262,-0.294106 0.22168,-0.583468 0.340253,-0.868087 0.05155,-0.118591 0.09795,-0.237182 0.149505,-0.351029 3.443776,-7.774828 11.738739,-13.253733 21.420492,-13.253733 12.774968,0 23.132068,9.529975 23.132068,21.284717 0,11.754743 -10.3571,21.284718 -23.132068,21.284718 -4.804789,0 -9.269325,-1.347195 -12.965713,-3.657348 -0.665041,-0.412697 -1.304304,-0.863342 -1.917791,-1.332963 -0.484603,2.120408 -1.654869,3.922991 -2.819978,5.939039 -1.587849,2.756055 -3.160232,5.521598 -4.727459,8.287141 l -4.68106,7.969317 z m 43.475089,-9.952159 -1.69095,6.166734 -5.624494,-4.662999 4.614044,1.147961 2.7014,-2.656439 z m -17.342605,3.349011 4.61404,1.152705 2.701405,-2.656439 -1.690955,6.166733 -5.62449,-4.662999 z m 12.274895,13.595275 -5.227528,-5.037747 4.510938,1.465785 2.90761,-2.461949 -2.19102,6.033911 z m 7.23296,8.581247 -5.22753,-5.037747 4.51094,1.465785 2.90762,-2.46195 -2.19103,6.033912 z m 2.78905,-10.507165 -5.22753,-5.037747 4.51093,1.465785 2.90762,-2.46195 -2.19102,6.033912 z m 3.31489,-10.345881 -5.22753,-5.037747 4.51093,1.465785 2.90762,-2.46195 -2.19102,6.033912 z M 63.224498,50.681632 c -5.985364,0 -10.836551,4.463766 -10.836551,9.975877 0,4.397355 3.3716,8.201755 5.485295,11.925514 0.907342,1.60335 1.814684,3.206701 2.716871,4.810052 0.783614,1.399374 1.629092,2.955288 2.639541,4.335688 l 4.067573,-6.93046 c 1.366169,-2.405026 2.727182,-4.810052 4.108817,-7.205591 1.31977,-2.286435 2.660162,-4.255046 2.660162,-6.939947 0,-5.507367 -4.851187,-9.975877 -10.841708,-9.975877 z"
     id="path4138"
     style="fill:url(#linearGradient4160);fill-opacity:1"
     inkscape:connector-curvature="0" />
</svg>
