<?xml version="1.0" encoding="UTF-8" standalone="no"?>
<!-- Generated by IcoMoon.io -->

<svg
   xmlns:dc="http://purl.org/dc/elements/1.1/"
   xmlns:cc="http://creativecommons.org/ns#"
   xmlns:rdf="http://www.w3.org/1999/02/22-rdf-syntax-ns#"
   xmlns:svg="http://www.w3.org/2000/svg"
   xmlns="http://www.w3.org/2000/svg"
   xmlns:sodipodi="http://sodipodi.sourceforge.net/DTD/sodipodi-0.dtd"
   xmlns:inkscape="http://www.inkscape.org/namespaces/inkscape"
   version="1.1"
   width="128"
   height="128"
   viewBox="0 0 128 128"
   id="svg4176"
   inkscape:version="0.91 r13725"
   sodipodi:docname="rust.svg">
  <metadata
     id="metadata4184">
    <rdf:RDF>
      <cc:Work
         rdf:about="">
        <dc:format>image/svg+xml</dc:format>
        <dc:type
           rdf:resource="http://purl.org/dc/dcmitype/StillImage" />
        <dc:title></dc:title>
      </cc:Work>
    </rdf:RDF>
  </metadata>
  <defs
     id="defs4182" />
  <sodipodi:namedview
     pagecolor="#ffffff"
     bordercolor="#666666"
     borderopacity="1"
     objecttolerance="10"
     gridtolerance="10"
     guidetolerance="10"
     inkscape:pageopacity="0"
     inkscape:pageshadow="2"
     inkscape:window-width="1920"
     inkscape:window-height="1017"
     id="namedview4180"
     showgrid="false"
     inkscape:zoom="3.6875"
     inkscape:cx="17.171094"
     inkscape:cy="27.658879"
     inkscape:window-x="-8"
     inkscape:window-y="-8"
     inkscape:window-maximized="1"
     inkscape:current-layer="svg4176" />
  <path
     d="m 125.25099,61.473619 -5.23378,-3.089244 c -0.042,-0.48627 -0.0899,-0.972539 -0.14988,-1.453089 l 4.49637,-4.004575 c 0.45564,-0.406178 0.65947,-1.006864 0.53957,-1.590388 -0.1199,-0.583524 -0.55156,-1.069794 -1.13309,-1.275744 l -5.74936,-2.053775 c -0.14388,-0.474828 -0.29376,-0.943935 -0.44963,-1.418764 l 3.5851,-4.754003 c 0.36571,-0.480549 0.43765,-1.109839 0.20384,-1.664759 -0.23381,-0.554919 -0.76139,-0.943935 -1.37289,-1.041189 l -6.06111,-0.943936 c -0.23381,-0.440503 -0.47962,-0.869565 -0.73141,-1.298626 L 115.74266,31.548 c 0.25779,-0.543478 0.20983,-1.172769 -0.14388,-1.67048 -0.35372,-0.497712 -0.92925,-0.783753 -1.55875,-0.76087 L 107.889,29.3226 c -0.31774,-0.377574 -0.64148,-0.755148 -0.97122,-1.127002 l 1.41486,-5.720822 c 0.14388,-0.583524 -0.036,-1.189931 -0.47961,-1.613272 -0.44364,-0.42334 -1.07913,-0.594965 -1.68464,-0.457665 l -5.98917,1.350114 c -0.389689,-0.314646 -0.785369,-0.62357 -1.181049,-0.926774 l 0.21583,-5.869563 c 0.024,-0.594965 -0.28177,-1.161327 -0.79736,-1.487413 -0.515582,-0.326087 -1.181045,-0.383296 -1.74459,-0.1373 l -5.593486,2.431349 c -0.449637,-0.234554 -0.90527,-0.469107 -1.360902,-0.69794 L 88.728461,9.2825605 C 88.626544,8.6933158 88.218873,8.1956043 87.637342,7.9724923 87.055811,7.7493802 86.402338,7.8180301 85.898745,8.1670002 l -4.98198,3.4210518 C 80.425162,11.439311 79.933558,11.29629 79.43596,11.15899 L 77.283697,5.6727218 C 77.067871,5.1120813 76.558282,4.7001821 75.946776,4.5857657 75.335269,4.4713492 74.705777,4.6658572 74.280121,5.1006397 L 70.083507,9.3969769 C 69.579913,9.3397687 69.070325,9.2940021 68.560736,9.2539564 L 65.323348,4.2596788 C 64.993614,3.7562465 64.412084,3.4473221 63.788587,3.4473221 c -0.623497,0 -1.205028,0.3089244 -1.528767,0.8123567 l -3.237387,4.9942776 c -0.509589,0.057208 -1.019178,0.091533 -1.528766,0.1430205 L 53.297053,5.1006397 C 52.871396,4.6658572 52.241904,4.4713492 51.630398,4.5857657 51.018891,4.7001821 50.509303,5.1120813 50.293477,5.6727218 L 48.141214,11.15899 c -0.497599,0.1373 -0.989202,0.280321 -1.480806,0.429062 L 41.678429,8.1670002 C 41.16884,7.8180301 40.509372,7.7436594 39.933837,7.9724923 39.358301,8.2013251 38.944635,8.6990366 38.848712,9.2825605 L 37.85951,15.066312 c -0.455632,0.223112 -0.911264,0.457666 -1.360901,0.69794 l -5.593487,-2.431349 c -0.56954,-0.245996 -1.229008,-0.194508 -1.750587,0.1373 -0.521579,0.331807 -0.821337,0.892448 -0.797357,1.487413 l 0.215826,5.869563 c -0.39568,0.303204 -0.791361,0.612128 -1.181047,0.926774 l -5.995162,-1.350114 c -0.605511,-0.1373 -1.246994,0.05721 -1.68464,0.457665 -0.437647,0.41762 -0.623497,1.029748 -0.479613,1.613272 l 1.414858,5.720822 c -0.329734,0.371854 -0.653473,0.743707 -0.971216,1.127002 l -6.151037,-0.20595 c -0.623497,0 -1.211022,0.268879 -1.558742,0.76087 -0.347719,0.49199 -0.401676,1.127002 -0.143884,1.67048 l 2.547944,5.337527 c -0.245802,0.429061 -0.491603,0.858123 -0.73141,1.298626 l -6.0611082,0.943936 c -0.6175017,0.09725 -1.1330856,0.48627 -1.3728921,1.041189 -0.2398065,0.55492 -0.1618694,1.17849 0.2038355,1.664759 l 3.5851072,4.754003 c -0.155874,0.469108 -0.305754,0.943936 -0.449637,1.418764 l -5.7493609,2.053775 c -0.5815308,0.20595 -1.0131824,0.69222 -1.1330857,1.275744 -0.1199032,0.583524 0.083932,1.18421 0.5395646,1.590388 L 7.69785,56.931286 c -0.053956,0.48627 -0.1079129,0.966819 -0.149879,1.453089 l -5.2337766,3.089244 c -0.5275742,0.314645 -0.851313,0.863844 -0.851313,1.46453 0,0.600687 0.3237388,1.149886 0.851313,1.45881 l 5.2337766,3.089244 c 0.041966,0.48627 0.095923,0.97254 0.149879,1.453089 l -4.4963716,4.004575 c -0.4556323,0.406178 -0.6594678,1.006865 -0.5395646,1.590388 0.1199033,0.583524 0.5515549,1.064073 1.1330857,1.275744 l 5.7493609,2.053775 c 0.143883,0.474828 0.293763,0.949656 0.449637,1.418764 l -3.5851072,4.754003 c -0.3657049,0.48627 -0.443642,1.109839 -0.2038355,1.659038 0.2398065,0.549199 0.7613856,0.943936 1.3728921,1.04119 l 6.0611082,0.943935 c 0.233812,0.440504 0.479613,0.869565 0.73141,1.298627 l -2.547944,5.331806 c -0.257792,0.543478 -0.203835,1.172768 0.143884,1.67048 0.34772,0.497711 0.941241,0.783752 1.558742,0.760869 l 6.151037,-0.205949 c 0.317743,0.383295 0.641482,0.755148 0.971216,1.127001 l -1.414858,5.720822 c -0.143884,0.58352 0.03597,1.18421 0.479613,1.60755 0.443642,0.42334 1.079129,0.59496 1.68464,0.45766 l 5.995162,-1.34439 c 0.389686,0.31465 0.785367,0.62357 1.181047,0.92677 l -0.215826,5.87529 c -0.02398,0.59496 0.281773,1.16132 0.797357,1.48741 0.515584,0.32609 1.181047,0.3833 1.750587,0.13158 l 5.593487,-2.43135 c 0.449637,0.24027 0.905269,0.46911 1.360901,0.69794 l 0.989202,5.78375 c 0.101918,0.58925 0.509589,1.08696 1.09112,1.31007 0.58153,0.22311 1.235003,0.15446 1.744592,-0.18879 l 4.98198,-3.42677 c 0.491603,0.14874 0.989201,0.29176 1.4868,0.42906 l 2.152263,5.48627 c 0.215826,0.55492 0.725415,0.96682 1.336921,1.08124 0.611507,0.11441 1.240999,-0.0801 1.666655,-0.51488 l 4.196614,-4.29061 c 0.503593,0.0572 1.019177,0.10297 1.528766,0.14302 l 3.237388,4.99427 c 0.323739,0.50344 0.905269,0.81236 1.528766,0.81236 0.623497,0 1.205028,-0.30892 1.528766,-0.81236 l 3.237388,-4.99427 c 0.509589,-0.0572 1.019178,-0.0915 1.522771,-0.14302 l 4.196614,4.29061 c 0.425656,0.43478 1.055148,0.62929 1.666655,0.51488 0.611506,-0.11442 1.1151,-0.52632 1.336921,-1.08124 l 2.152263,-5.48627 c 0.497599,-0.1373 0.995197,-0.28032 1.4868,-0.42906 l 4.98198,3.42677 c 0.503594,0.34897 1.163062,0.41762 1.738597,0.18879 0.575536,-0.22883 0.989202,-0.72654 1.09112,-1.31007 l 0.989201,-5.78375 c 0.455633,-0.22883 0.911265,-0.46339 1.360902,-0.69794 l 5.593487,2.43135 c 0.56954,0.246 1.229008,0.20023 1.744589,-0.13158 0.51559,-0.33181 0.82134,-0.89245 0.79736,-1.48741 l -0.21583,-5.87529 c 0.39568,-0.3032 0.79136,-0.61212 1.181049,-0.92677 l 5.99516,1.34439 c 0.60551,0.1373 1.247,-0.0572 1.68464,-0.45766 0.43765,-0.42334 0.6235,-1.02975 0.47962,-1.60755 l -1.40887,-5.720822 c 0.32974,-0.371853 0.65348,-0.743706 0.97122,-1.127001 l 6.15104,0.205949 c 0.62349,0 1.21701,-0.263158 1.55874,-0.760869 0.34172,-0.497712 0.40167,-1.127002 0.13789,-1.67048 l -2.54795,-5.331806 c 0.2458,-0.429062 0.49161,-0.863844 0.73141,-1.298627 l 6.06111,-0.943935 c 0.6175,-0.09153 1.13309,-0.48627 1.37289,-1.04119 0.23981,-0.55492 0.16187,-1.178489 -0.20383,-1.659038 l -3.58511,-4.754003 c 0.15588,-0.469108 0.30575,-0.943936 0.44964,-1.418764 l 5.74936,-2.053775 c 0.58153,-0.211671 1.01318,-0.69222 1.13308,-1.275744 0.1259,-0.583523 -0.0779,-1.18421 -0.53956,-1.590388 l -4.49637,-4.004575 c 0.054,-0.48627 0.10192,-0.966819 0.14988,-1.453089 l 5.23377,-3.089244 c 0.52758,-0.308924 0.85132,-0.863844 0.85132,-1.45881 0,-0.594965 -0.32374,-1.149885 -0.85132,-1.46453 z M 90.221257,102.89809 c -1.996389,-0.4119 -3.267364,-2.29405 -2.841707,-4.204804 0.425656,-1.910754 2.398065,-3.129289 4.394454,-2.711669 2.002384,0.406178 3.273358,2.288329 2.841707,4.199083 -0.431652,1.91075 -2.398065,3.12356 -4.394454,2.71739 z M 88.440694,91.422122 c -1.82253,-0.371854 -3.615083,0.732265 -4.004769,2.477116 l -1.8585,8.278022 c -5.73737,2.48284 -12.098237,3.86156 -18.806824,3.86156 -6.858465,0 -13.363216,-1.44737 -19.202504,-4.0389 l -1.8585,-8.272307 c -0.389686,-1.73913 -2.182239,-2.848969 -4.004769,-2.477116 l -7.655822,1.567505 c -1.420853,-1.39588 -2.739789,-2.883294 -3.956807,-4.450799 l 37.247943,0 c 0.419661,0 0.701434,-0.07437 0.701434,-0.440503 l 0,-12.574367 c 0,-0.366133 -0.281773,-0.440503 -0.701434,-0.440503 l -10.89321,0 0,-7.969105 11.780494,0 c 1.073134,0 5.74936,0.291762 7.242156,5.995421 0.467622,1.750572 1.49879,7.459952 2.200224,9.284894 0.701434,2.048054 3.549136,6.138442 6.588683,6.138442 l 18.561022,0 c 0.209829,0 0.437649,0 0.671459,-0.06293 -1.288959,1.67048 -2.697823,3.249427 -4.220595,4.725399 l -7.829681,-1.60755 z M 36.93026,102.72646 c -1.996389,0.4119 -3.968797,-0.80663 -4.394454,-2.71739 -0.425656,-1.910749 0.845318,-3.792899 2.841707,-4.204799 1.996389,-0.406178 3.968798,0.806636 4.394454,2.717391 0.425657,1.910748 -0.845318,3.792898 -2.841707,4.204798 z M 22.799663,48.052571 c 0.827332,1.784896 -0.01199,3.878717 -1.882481,4.668191 -1.87049,0.789473 -4.052729,0 -4.886057,-1.802059 -0.827332,-1.784897 0.01199,-3.872997 1.882481,-4.668191 1.870491,-0.795194 4.05273,0 4.886057,1.802059 z m -4.340497,9.822651 7.973565,-3.381006 c 1.702626,-0.720823 2.470007,-2.625857 1.714617,-4.256291 l -1.642675,-3.54691 6.45679,0 0,27.780311 -13.033483,0 c -1.133085,-3.792904 -1.738597,-7.791759 -1.738597,-11.927913 0,-1.578947 0.08993,-3.140731 0.257792,-4.673912 z m 34.993761,-2.694507 0,-8.186496 15.383586,0 c 0.797357,0 5.611472,0.875286 5.611472,4.3135 0,2.85469 -3.69302,3.872996 -6.732567,3.872996 l -14.262491,0 z m 55.892893,7.368419 c 0,1.086956 -0.042,2.16247 -0.1259,3.226543 l -4.67622,0 c -0.46762,0 -0.65947,0.291762 -0.65947,0.732265 l 0,2.048055 c 0,4.822652 -2.8537,5.875284 -5.347679,6.138442 -2.380084,0.257436 -5.017955,-0.949657 -5.341694,-2.339817 -1.402868,-7.528601 -3.740981,-9.136152 -7.434001,-11.916472 4.586299,-2.774598 9.352453,-6.870707 9.352453,-12.356975 0,-5.921051 -4.256565,-9.651027 -7.152228,-11.475969 -4.070716,-2.557207 -8.573082,-3.072081 -9.784105,-3.072081 l -48.362973,0 C 36.37271,26.548001 45.257541,21.605211 55.311427,19.803152 l 5.7014,5.709381 c 1.28896,1.287185 3.423237,1.332951 4.772149,0.102974 l 6.378852,-5.823796 c 13.363217,2.374141 24.682083,10.314642 31.198822,21.207086 l -4.364479,9.410753 c -0.755387,1.630434 0.018,3.535467 1.720609,4.256291 l 8.40522,3.564072 c 0.14389,1.424485 0.22182,2.866132 0.22182,4.319221 z M 61.018822,14.951895 c 1.47481,-1.350114 3.818918,-1.298626 5.233776,0.114417 1.414859,1.413043 1.354907,3.655605 -0.125898,4.999998 -1.47481,1.350114 -3.818918,1.298627 -5.233777,-0.114416 -1.414858,-1.413043 -1.354906,-3.649885 0.125899,-4.999999 z m 43.333028,33.272301 c 0.82734,-1.784897 3.01557,-2.591533 4.88606,-1.802059 1.87049,0.789473 2.70981,2.883294 1.88248,4.66819 -0.82733,1.784897 -3.01557,2.591533 -4.88606,1.802059 -1.87049,-0.789473 -2.70981,-2.883294 -1.88248,-4.66819 z"
     id="path4178"
     style="fill:#000000;fill-opacity:1"
     inkscape:connector-curvature="0" />
</svg>
