<?xml version="1.0" encoding="UTF-8" standalone="no"?>
<!-- Created with Inkscape (http://www.inkscape.org/) -->

<svg
   xmlns:dc="http://purl.org/dc/elements/1.1/"
   xmlns:cc="http://creativecommons.org/ns#"
   xmlns:rdf="http://www.w3.org/1999/02/22-rdf-syntax-ns#"
   xmlns:svg="http://www.w3.org/2000/svg"
   xmlns="http://www.w3.org/2000/svg"
   xmlns:xlink="http://www.w3.org/1999/xlink"
   xmlns:sodipodi="http://sodipodi.sourceforge.net/DTD/sodipodi-0.dtd"
   xmlns:inkscape="http://www.inkscape.org/namespaces/inkscape"
   width="128"
   height="128"
   viewBox="0 0 128 128"
   id="svg2"
   version="1.1"
   inkscape:version="0.91 r13725"
   sodipodi:docname="scala.svg">
  <defs
     id="defs4">
    <linearGradient
       id="linearGradient-1"
       y2="0.5"
       x2="1"
       y1="0.5"
       x1="0">
      <stop
         id="stop4141"
         offset="0%"
         stop-color="#4F4F4F" />
      <stop
         id="stop4143"
         offset="100%"
         stop-color="#000000" />
    </linearGradient>
    <linearGradient
       id="linearGradient-2"
       y2="0.5"
       x2="1"
       y1="0.5"
       x1="0">
      <stop
         id="stop4146"
         offset="0%"
         stop-color="#C40000" />
      <stop
         id="stop4148"
         offset="100%"
         stop-color="#FF0000" />
    </linearGradient>
    <linearGradient
       inkscape:collect="always"
       xlink:href="#linearGradient-1"
       id="linearGradient4178"
       x1="0"
       y1="444.17413"
       x2="156.76733"
       y2="444.17413"
       gradientTransform="scale(1.6329932,0.61237244)"
       gradientUnits="userSpaceOnUse" />
    <linearGradient
       inkscape:collect="always"
       xlink:href="#linearGradient-1"
       id="linearGradient4180"
       x1="0"
       y1="235.15102"
       x2="156.76733"
       y2="235.15102"
       gradientTransform="scale(1.6329932,0.61237244)"
       gradientUnits="userSpaceOnUse" />
    <linearGradient
       inkscape:collect="always"
       xlink:href="#linearGradient-2"
       id="linearGradient4182"
       x1="0"
       y1="263.1015"
       x2="202.38577"
       y2="263.1015"
       gradientTransform="scale(1.2649111,0.79056942)"
       gradientUnits="userSpaceOnUse" />
    <linearGradient
       inkscape:collect="always"
       xlink:href="#linearGradient-2"
       id="linearGradient4184"
       x1="0"
       y1="101.19289"
       x2="202.38577"
       y2="101.19289"
       gradientTransform="scale(1.2649111,0.79056942)"
       gradientUnits="userSpaceOnUse" />
    <linearGradient
       inkscape:collect="always"
       xlink:href="#linearGradient-2"
       id="linearGradient4186"
       x1="0"
       y1="425.01013"
       x2="202.38577"
       y2="425.01013"
       gradientTransform="scale(1.2649111,0.79056942)"
       gradientUnits="userSpaceOnUse" />
  </defs>
  <sodipodi:namedview
     id="base"
     pagecolor="#ffffff"
     bordercolor="#666666"
     borderopacity="1.0"
     inkscape:pageopacity="0.0"
     inkscape:pageshadow="2"
     inkscape:zoom="1.4"
     inkscape:cx="28.609719"
     inkscape:cy="159.46413"
     inkscape:document-units="px"
     inkscape:current-layer="layer1"
     showgrid="false"
     units="px"
     inkscape:window-width="1920"
     inkscape:window-height="1017"
     inkscape:window-x="-8"
     inkscape:window-y="-8"
     inkscape:window-maximized="1" />
  <metadata
     id="metadata7">
    <rdf:RDF>
      <cc:Work
         rdf:about="">
        <dc:format>image/svg+xml</dc:format>
        <dc:type
           rdf:resource="http://purl.org/dc/dcmitype/StillImage" />
        <dc:title></dc:title>
      </cc:Work>
    </rdf:RDF>
  </metadata>
  <g
     inkscape:label="Capa 1"
     inkscape:groupmode="layer"
     id="layer1"
     transform="translate(0,-924.36216)">
    <g
       id="g4150"
       transform="matrix(0.28292411,0,0,0.30631868,30.571432,925.07649)">
      <path
         id="path4152"
         transform="matrix(1,0,0,-1,0,544)"
         d="m 0,288 0,-32 c 0,-5.39378 116.37689,-14.42844 192.19911,-32 l 0,0 C 228.82844,232.49067 256,242.96889 256,256 l 0,0 0,32 c 0,13.024 -27.17156,23.50933 -63.80089,32 l 0,0 C 116.37689,302.42489 0,293.39022 0,288"
         inkscape:connector-curvature="0"
         style="fill:url(#linearGradient4178)" />
      <path
         id="path4154"
         transform="matrix(1,0,0,-1,0,288)"
         d="m 0,160 0,-32 c 0,-5.39378 116.37689,-14.42844 192.19911,-32 l 0,0 C 228.82844,104.49067 256,114.96889 256,128 l 0,0 0,32 c 0,13.024 -27.17156,23.50933 -63.80089,32 l 0,0 C 116.37689,174.42489 0,165.39022 0,160"
         inkscape:connector-curvature="0"
         style="fill:url(#linearGradient4180)" />
      <path
         id="path4156"
         transform="matrix(1,0,0,-1,0,416)"
         d="m 0,224 0,-96 c 0,8 256,24 256,64 l 0,0 0,96 C 256,248 0,232 0,224"
         inkscape:connector-curvature="0"
         style="fill:url(#linearGradient4182)" />
      <path
         id="path4158"
         transform="matrix(1,0,0,-1,0,160)"
         d="M 0,96 0,0 c 0,8 256,24 256,64 l 0,0 0,96 C 256,120 0,104 0,96"
         inkscape:connector-curvature="0"
         style="fill:url(#linearGradient4184)" />
      <path
         id="path4160"
         transform="matrix(1,0,0,-1,0,672)"
         d="m 0,352 0,-96 c 0,8 256,24 256,64 l 0,0 0,96 C 256,376 0,360 0,352"
         inkscape:connector-curvature="0"
         style="fill:url(#linearGradient4186)" />
    </g>
  </g>
</svg>
