<?xml version="1.0" encoding="UTF-8" standalone="no"?>
<!-- Created with Inkscape (http://www.inkscape.org/) -->

<svg
   xmlns:dc="http://purl.org/dc/elements/1.1/"
   xmlns:cc="http://creativecommons.org/ns#"
   xmlns:rdf="http://www.w3.org/1999/02/22-rdf-syntax-ns#"
   xmlns:svg="http://www.w3.org/2000/svg"
   xmlns="http://www.w3.org/2000/svg"
   xmlns:sodipodi="http://sodipodi.sourceforge.net/DTD/sodipodi-0.dtd"
   xmlns:inkscape="http://www.inkscape.org/namespaces/inkscape"
   width="128"
   height="128"
   viewBox="0 0 128 128"
   id="svg2"
   version="1.1"
   inkscape:version="0.91 r13725"
   sodipodi:docname="seneca.svg">
  <defs
     id="defs4" />
  <sodipodi:namedview
     id="base"
     pagecolor="#ffffff"
     bordercolor="#666666"
     borderopacity="1.0"
     inkscape:pageopacity="0.0"
     inkscape:pageshadow="2"
     inkscape:zoom="1.979899"
     inkscape:cx="-51.702865"
     inkscape:cy="96.230623"
     inkscape:document-units="px"
     inkscape:current-layer="layer1"
     showgrid="false"
     units="px"
     inkscape:window-width="1920"
     inkscape:window-height="1017"
     inkscape:window-x="-8"
     inkscape:window-y="-8"
     inkscape:window-maximized="1" />
  <metadata
     id="metadata7">
    <rdf:RDF>
      <cc:Work
         rdf:about="">
        <dc:format>image/svg+xml</dc:format>
        <dc:type
           rdf:resource="http://purl.org/dc/dcmitype/StillImage" />
        <dc:title></dc:title>
      </cc:Work>
    </rdf:RDF>
  </metadata>
  <g
     inkscape:label="Capa 1"
     inkscape:groupmode="layer"
     id="layer1"
     transform="translate(0,-924.36216)">
    <g
       id="g4140"
       style="fill:#000000;fill-rule:evenodd"
       transform="matrix(0.92145818,0,0,0.91372035,0.10452562,936.86573)">
      <g
         id="g4142">
        <path
           id="path4144"
           d="m 41.204,108.274 2.82,-79.384 6.963,0 2.536,71.403 c -4.542,2.577 -8.68,5.264 -12.32,7.98 z M 63.122,95.3 l 3.003,-66.41 7.43,0 2.75,60.823 c -2.07,0.756 -4.17,1.586 -6.282,2.472 -2.357,0.99 -4.655,2.02 -6.9,3.114 z m 23.626,-9.052 2.892,-57.358 6.497,0 2.746,54.47 c -3.86,0.702 -7.928,1.664 -12.135,2.888 z M 121.57,6.13 c 0,-1.78 -1.445,-3.226 -3.225,-3.226 l -98.915,0 c -1.78,0 -3.224,1.445 -3.224,3.225 l 0,6.45 c 0,1.78 1.445,3.225 3.225,3.225 l 98.915,0 c 1.78,0 3.225,-1.445 3.225,-3.225 l 0,-6.449 z"
           inkscape:connector-curvature="0" />
        <path
           id="path4146"
           d="m 119.03,2.903 c 2.703,0 15.102,7.16 16.452,9.498 1.35,2.34 1.35,16.658 0,18.997 -1.35,2.34 -13.75,9.5 -16.45,9.5 -2.702,0 -15.102,-7.16 -16.452,-9.5 -1.35,-2.34 -1.35,-16.656 0,-18.996 1.35,-2.338 13.75,-9.497 16.45,-9.497 z m -100.115,0 c 2.7,0 15.1,7.16 16.45,9.498 1.35,2.34 1.35,16.658 0,18.997 -1.35,2.34 -13.75,9.5 -16.45,9.5 -2.702,0 -15.102,-7.16 -16.452,-9.5 -1.35,-2.34 -1.35,-16.656 0,-18.996 1.35,-2.338 13.75,-9.497 16.452,-9.497 z"
           inkscape:connector-curvature="0" />
      </g>
    </g>
  </g>
</svg>
