<?xml version="1.0" encoding="UTF-8" standalone="no"?>
<!-- Generated by IcoMoon.io -->

<svg
   xmlns:dc="http://purl.org/dc/elements/1.1/"
   xmlns:cc="http://creativecommons.org/ns#"
   xmlns:rdf="http://www.w3.org/1999/02/22-rdf-syntax-ns#"
   xmlns:svg="http://www.w3.org/2000/svg"
   xmlns="http://www.w3.org/2000/svg"
   xmlns:xlink="http://www.w3.org/1999/xlink"
   xmlns:sodipodi="http://sodipodi.sourceforge.net/DTD/sodipodi-0.dtd"
   xmlns:inkscape="http://www.inkscape.org/namespaces/inkscape"
   version="1.1"
   width="128"
   height="128"
   viewBox="0 0 128 128"
   id="svg4136"
   inkscape:version="0.91 r13725"
   sodipodi:docname="swift.svg">
  <metadata
     id="metadata4144">
    <rdf:RDF>
      <cc:Work
         rdf:about="">
        <dc:format>image/svg+xml</dc:format>
        <dc:type
           rdf:resource="http://purl.org/dc/dcmitype/StillImage" />
        <dc:title></dc:title>
      </cc:Work>
    </rdf:RDF>
  </metadata>
  <defs
     id="defs4142">
    <linearGradient
       inkscape:collect="always"
       id="linearGradient4162">
      <stop
         style="stop-color:#ff0929;stop-opacity:1;"
         offset="0"
         id="stop4164" />
      <stop
         style="stop-color:#fee526;stop-opacity:0"
         offset="1"
         id="stop4166" />
    </linearGradient>
    <linearGradient
       inkscape:collect="always"
       xlink:href="#linearGradient4162"
       id="linearGradient4168"
       x1="14.517812"
       y1="22.802849"
       x2="11.439429"
       y2="6.1947746"
       gradientUnits="userSpaceOnUse"
       gradientTransform="matrix(5.1146093,0,0,5.9077238,-19.31809,-33.485384)" />
  </defs>
  <sodipodi:namedview
     pagecolor="#ffffff"
     bordercolor="#666666"
     borderopacity="1"
     objecttolerance="10"
     gridtolerance="10"
     guidetolerance="10"
     inkscape:pageopacity="0"
     inkscape:pageshadow="2"
     inkscape:window-width="1920"
     inkscape:window-height="1017"
     id="namedview4140"
     showgrid="false"
     inkscape:zoom="3.2890625"
     inkscape:cx="16"
     inkscape:cy="16"
     inkscape:window-x="-8"
     inkscape:window-y="-8"
     inkscape:window-maximized="1"
     inkscape:current-layer="svg4136" />
  <path
     d="m 76.759844,3.0716106 c 0,0 25.706026,17.6700014 32.431736,45.7848594 6.06593,25.361858 1.20193,37.460876 1.20193,37.460876 0,0 3.61603,4.034976 7.20649,13.871334 5.36522,14.70433 1.20193,22.19532 1.20193,22.19532 0,0 -0.39382,-10.33852 -13.21103,-12.48302 C 93.847754,107.93371 89.571941,121.66326 67.154608,121.00159 54.245334,120.61759 27.347604,116.93708 4.695,79.381679 15.686295,86.606825 30.048118,97.725161 47.933907,96.029644 65.819695,94.334128 69.55336,87.705661 69.55336,87.705661 c 0,0 -34.257653,-32.138017 -52.849257,-66.591862 C 30.728361,35.298244 65.55885,63.448548 64.745627,62.733713 54.117469,53.310894 29.915138,14.178131 29.915138,14.178131 c 0,0 52.250848,51.615783 56.449943,51.332212 1.728737,-4.2831 10.66396,-26.442971 -9.610351,-62.4328247 z"
     id="path4138"
     style="fill:url(#linearGradient4168);fill-opacity:1"
     inkscape:connector-curvature="0" />
</svg>
