<?xml version="1.0" encoding="UTF-8" standalone="no"?>
<!-- Created with Inkscape (http://www.inkscape.org/) -->

<svg
   xmlns:dc="http://purl.org/dc/elements/1.1/"
   xmlns:cc="http://creativecommons.org/ns#"
   xmlns:rdf="http://www.w3.org/1999/02/22-rdf-syntax-ns#"
   xmlns:svg="http://www.w3.org/2000/svg"
   xmlns="http://www.w3.org/2000/svg"
   xmlns:sodipodi="http://sodipodi.sourceforge.net/DTD/sodipodi-0.dtd"
   xmlns:inkscape="http://www.inkscape.org/namespaces/inkscape"
   width="128"
   height="128"
   viewBox="0 0 128 128"
   id="svg2"
   version="1.1"
   inkscape:version="0.91 r13725"
   sodipodi:docname="tensorflow.svg">
  <defs
     id="defs4" />
  <sodipodi:namedview
     id="base"
     pagecolor="#ffffff"
     bordercolor="#666666"
     borderopacity="1.0"
     inkscape:pageopacity="0.0"
     inkscape:pageshadow="2"
     inkscape:zoom="1.4142136"
     inkscape:cx="-86.282665"
     inkscape:cy="229.94458"
     inkscape:document-units="px"
     inkscape:current-layer="layer1"
     showgrid="false"
     units="px"
     inkscape:window-width="1920"
     inkscape:window-height="1017"
     inkscape:window-x="-8"
     inkscape:window-y="-8"
     inkscape:window-maximized="1" />
  <metadata
     id="metadata7">
    <rdf:RDF>
      <cc:Work
         rdf:about="">
        <dc:format>image/svg+xml</dc:format>
        <dc:type
           rdf:resource="http://purl.org/dc/dcmitype/StillImage" />
        <dc:title></dc:title>
      </cc:Work>
    </rdf:RDF>
  </metadata>
  <g
     inkscape:label="Capa 1"
     inkscape:groupmode="layer"
     id="layer1"
     transform="translate(0,-924.36216)">
    <g
       id="g4162"
       transform="matrix(0.37770597,0,0,0.37369078,2.4930023,927.44099)">
      <path
         id="path4138"
         d="M 0,0 322,0 322,322 0,322 0,0 Z"
         inkscape:connector-curvature="0"
         style="fill:#ffffff" />
      <path
         id="path4140"
         d="m 185,2.17 128.05,74.46 -42.38213,24.14284 -0.17433,0.33426 L 185.02,51.78 56.86,124.25 l -0.53,-0.3 c -14.18,-8.01 0.53,0.3 -42.35,-24.37 171.02,-97.41 0,0 171.02,-97.41 z"
         inkscape:connector-curvature="0"
         style="fill:#e4ba51"
         sodipodi:nodetypes="ccccccccc" />
      <path
         id="path4142"
         d="m 185.02,51.78 c 0,48 -0.01,32 0,48 -0.18,16.31 0.27,32.64 -0.22,48.93 l -42.92,25.17 0.17,-48.13 c -0.32,0.16 0.05,-0.11 -0.27,0.05 -42.61,23.18 -28.02,16.19 -42.61,23.18 -14.38,7.27 0,0 -42.808571,23.24001 0.498571,-47.97001 0,0 0.498571,-47.97001 z"
         inkscape:connector-curvature="0"
         style="fill:#d79346"
         sodipodi:nodetypes="cccccccccc" />
      <path
         id="path4144"
         d="m 185.02,51.78 c 85.82,48.77 -2.16933,-0.546295 85.82,48.77 -0.26,16.35 -0.35858,32.38071 -0.38858,48.60071 -85.43142,-49.37071 0,0 -85.43142,-49.37071 0,-48 0,0 0,-48 z"
         inkscape:connector-curvature="0"
         style="fill:#c76c40"
         sodipodi:nodetypes="ccccc" />
      <path
         id="path4146"
         d="m 313.05,76.63 -0.14,48.13 -42.51,24.39 0.23858,-48.63929 z"
         inkscape:connector-curvature="0"
         style="fill:#d79346"
         sodipodi:nodetypes="ccccc" />
      <path
         id="path4148"
         d="m 13.98,99.58 c 42.992857,24.65571 0,0 42.992857,24.65571 -0.632857,47.89429 0,0 -0.632857,47.89429 -42.26,-24.36 0,0 -42.26,-24.36 -0.1,-48.19 0,0 -0.1,-48.19 z"
         inkscape:connector-curvature="0"
         style="fill:#c76c40"
         sodipodi:nodetypes="ccccc" />
      <path
         id="path4150"
         d="m 142.93,125.1 c 0.32,-0.16 -0.2,0.21 0.12,0.05 -0.82,48.53 -1.19,32.89 -0.82,48.53 42.57,-24.97 0.08,-0.02 42.57,-24.97 14.19,8.08 0,0 42.63,24.11 l -42.28,25.27 c -42.84,-24.43 -28.75,-15.96 -42.84,-24.43 0.74,-48.51 -43.12,-24.57 0.62,-48.56 z"
         inkscape:connector-curvature="0"
         style="fill:#e4ba51"
         sodipodi:nodetypes="cccccccc" />
      <path
         id="path4152"
         d="m 99.17,148.98 c 14.59,-6.99 1.19996,-0.8 43.81,-23.98 l -0.67,48.66 42.84,24.43 0.0709,48.17745 c -42.82094,-24.17745 5.40912,3.03042 -42.82094,-24.17745 -0.08,32.57 0.13,65.14 -0.1,97.71 l -42.88,-26.86 c -0.24996,-143.96 0,0 -0.25,-143.96 z"
         inkscape:connector-curvature="0"
         style="fill:#c76c40"
         sodipodi:nodetypes="cccccccccc" />
      <path
         id="path4154"
         d="m 227.43,172.82 c 0.74968,71.05354 -0.0719,-15.36681 0.23,48.74 -42.44927,24.70026 0,0 -42.44813,24.70884 L 183.32,296.27 l -40.99355,23.59284 0.0986,-97.81568 42.78568,24.2131 c -0.0607,-48.17026 0,0 -0.0607,-48.17026 z"
         inkscape:connector-curvature="0"
         style="fill:#d79346"
         sodipodi:nodetypes="ccccccccc" />
    </g>
  </g>
</svg>
