<?xml version="1.0" encoding="UTF-8" standalone="no"?>
<!-- Created with Inkscape (http://www.inkscape.org/) -->

<svg
   xmlns:dc="http://purl.org/dc/elements/1.1/"
   xmlns:cc="http://creativecommons.org/ns#"
   xmlns:rdf="http://www.w3.org/1999/02/22-rdf-syntax-ns#"
   xmlns:svg="http://www.w3.org/2000/svg"
   xmlns="http://www.w3.org/2000/svg"
   xmlns:sodipodi="http://sodipodi.sourceforge.net/DTD/sodipodi-0.dtd"
   xmlns:inkscape="http://www.inkscape.org/namespaces/inkscape"
   width="128"
   height="128"
   viewBox="0 0 128 128"
   id="svg2"
   version="1.1"
   inkscape:version="0.91 r13725"
   sodipodi:docname="tex.svg">
  <defs
     id="defs4" />
  <sodipodi:namedview
     id="base"
     pagecolor="#ffffff"
     bordercolor="#666666"
     borderopacity="1.0"
     inkscape:pageopacity="0.0"
     inkscape:pageshadow="2"
     inkscape:zoom="1.4"
     inkscape:cx="-66.6594"
     inkscape:cy="167.7484"
     inkscape:document-units="px"
     inkscape:current-layer="layer1"
     showgrid="false"
     units="px"
     inkscape:window-width="1920"
     inkscape:window-height="1017"
     inkscape:window-x="-8"
     inkscape:window-y="-8"
     inkscape:window-maximized="1" />
  <metadata
     id="metadata7">
    <rdf:RDF>
      <cc:Work
         rdf:about="">
        <dc:format>image/svg+xml</dc:format>
        <dc:type
           rdf:resource="http://purl.org/dc/dcmitype/StillImage" />
        <dc:title></dc:title>
      </cc:Work>
    </rdf:RDF>
  </metadata>
  <g
     inkscape:label="Capa 1"
     inkscape:groupmode="layer"
     id="layer1"
     transform="translate(0,-924.36216)">
    <g
       transform="matrix(0.28420523,0,0,0.49550086,-0.36720607,579.17316)"
       id="layer1-6"
       inkscape:label="Capa 1">
      <g
         transform="translate(-549.70286,254.39506)"
         id="g4714">
        <path
           inkscape:connector-curvature="0"
           d="m 713.49233,483.30299 -155.75773,0 -4.55317,42.4623 4.8475,0 c 3.48735,-31.80309 7.31808,-37.37076 49.1484,-37.37076 4.84749,0 12.72301,0 14.89033,0 5.15076,0.57454 5.15076,2.90764 5.15076,7.32623 l 0,104.51623 c 0,6.93896 -0.8161,9.05621 -23.53736,9.05621 l -7.657,0 0,4.63762 c 12.94153,-0.17777 26.42713,-0.36505 39.65853,-0.36505 13.19126,0 26.717,0.18728 39.64961,0.36505 l 0,-4.63762 -7.52767,0 c -22.38234,0 -23.18952,-2.11725 -23.18952,-9.05621 l 0,-104.51306 c 0,-4.24083 0,-6.54218 4.85642,-7.32623 l 14.80116,0 c 41.27287,0 45.3132,5.53593 48.79609,37.37076 l 4.85642,0"
           id="path4702" />
        <path
           inkscape:connector-curvature="0"
           d="m 848.84329,607.23626 -4.8475,0 c -5.91333,28.47009 -9.40067,43.94469 -56.84553,43.94469 l -37.43769,0 c -10.77421,0 -11.28259,-0.96816 -11.28259,-7.57382 l 0,-53.6675 25.44604,0 c 25.44603,0 27.872,6.63741 27.872,22.8421 l 4.33466,0 0,-49.94724 -4.33466,0 c 0,15.93169 -2.43043,22.4453 -27.872,22.4453 l -25.4505,0 0,-47.5824 c 0,-6.48187 0.51284,-7.45003 11.28259,-7.45003 l 36.88025,0 c 41.74113,0 46.59755,11.80831 50.37922,37.193 l 4.86088,0 -6.47077,-42.46547 -136.57732,0 0,5.27247 c 19.10459,0 22.16382,0 22.16382,8.63086 l 0,103.61473 c 0,8.63086 -3.01909,8.63086 -22.16382,8.63086 l 0,4.63762 140.36792,0"
           id="path4704" />
        <path
           inkscape:connector-curvature="0"
           d="m 921.56026,541.27162 39.90822,-41.06879 c 3.99581,-4.03133 12.12544,-12.32888 34.25812,-12.53839 l 0,-4.63444 c -6.17648,0.36504 -16.42446,0.36504 -22.89521,0.36504 -8.8878,0 -19.95636,0 -26.67688,-0.36504 l 0,4.63761 c 8.63812,0.57455 10.76083,4.4186 10.76083,7.51352 0,2.295 -1.32003,3.84405 -3.23312,5.75179 l -35.60931,36.76447 -39.90826,-41.57985 c -1.873,-2.09185 -2.13612,-2.69814 -2.13612,-3.27268 0,-1.72998 2.93883,-4.99948 11.87125,-5.18042 l 0,-4.63444 c -8.63809,0.36504 -21.82936,0.36504 -30.71719,0.36504 -6.98361,0 -20.46474,0 -26.98011,-0.36504 l 0,4.63761 c 14.81454,0 19.66204,0.39679 25.61996,6.35808 l 52.03371,54.39758 -46.9231,48.7918 c -11.57692,11.93211 -29.10284,12.14161 -34.25804,12.14161 l 0,4.63762 c 6.16305,-0.36504 16.42442,-0.36504 22.89518,-0.36504 7.27794,0 19.95636,0 26.67686,0.36504 l 0,-4.63762 c -8.34376,-0.57454 -10.76083,-4.41859 -10.76083,-7.51351 0,-2.48228 1.32002,-3.84405 2.68018,-5.20899 l 43.14587,-44.82079 46.9231,49.09336 c 2.1227,2.1236 2.1227,2.69814 2.1227,3.27269 0,1.51095 -2.41706,4.81537 -11.86228,5.20898 l 0,4.63762 c 8.63803,-0.36504 21.8293,-0.36504 30.71718,-0.36504 6.98359,0 20.46477,0 27.01133,0.36504 l 0,-4.63762 c -17.27618,0 -19.99654,-0.93958 -25.35688,-6.35807"
           id="path4706" />
      </g>
    </g>
  </g>
</svg>
