<?xml version="1.0" encoding="UTF-8" standalone="no"?>
<svg
   xmlns:dc="http://purl.org/dc/elements/1.1/"
   xmlns:cc="http://creativecommons.org/ns#"
   xmlns:rdf="http://www.w3.org/1999/02/22-rdf-syntax-ns#"
   xmlns:svg="http://www.w3.org/2000/svg"
   xmlns="http://www.w3.org/2000/svg"
   xmlns:sodipodi="http://sodipodi.sourceforge.net/DTD/sodipodi-0.dtd"
   xmlns:inkscape="http://www.inkscape.org/namespaces/inkscape"
   width="128"
   height="128"
   viewBox="0 0 128 128"
   version="1.1"
   preserveAspectRatio="xMidYMid"
   id="svg2"
   inkscape:version="0.91 r13725"
   sodipodi:docname="angular-icon.svg">
  <metadata
     id="metadata16">
    <rdf:RDF>
      <cc:Work
         rdf:about="">
        <dc:format>image/svg+xml</dc:format>
        <dc:type
           rdf:resource="http://purl.org/dc/dcmitype/StillImage" />
        <dc:title></dc:title>
      </cc:Work>
    </rdf:RDF>
  </metadata>
  <defs
     id="defs14" />
  <sodipodi:namedview
     pagecolor="#ffffff"
     bordercolor="#666666"
     borderopacity="1"
     objecttolerance="10"
     gridtolerance="10"
     guidetolerance="10"
     inkscape:pageopacity="0"
     inkscape:pageshadow="2"
     inkscape:window-width="1366"
     inkscape:window-height="706"
     id="namedview12"
     showgrid="false"
     inkscape:zoom="2.4540765"
     inkscape:cx="121.67287"
     inkscape:cy="104.28897"
     inkscape:window-x="-8"
     inkscape:window-y="-8"
     inkscape:window-maximized="1"
     inkscape:current-layer="svg2" />
  <g
     id="g4"
     transform="matrix(0.49566516,0,0,0.47331768,0.86520777,0.02755439)">
    <path
       d="M 0.09961089,45.522179 125.90817,0.69727626 255.1035,44.725292 234.18521,211.1751 125.90817,271.14086 19.324514,211.97198 0.09961089,45.522179 Z"
       id="path6"
       inkscape:connector-curvature="0"
       style="fill:#e23237" />
    <path
       d="M 255.1035,44.725292 125.90817,0.69727626 l 0,270.44358374 108.27704,-59.86615 20.91829,-166.549418 0,0 z"
       id="path8"
       inkscape:connector-curvature="0"
       style="fill:#b52e31" />
    <path
       d="m 126.10739,32.27393 0,0 -78.393771,174.41868 29.285603,-0.49806 15.738521,-39.3463 33.469257,0 0.0996,0 36.75643,0 17.23268,39.84436 27.99066,0.49805 -82.17899,-174.91673 0,0 z m 0.19922,55.881712 26.4965,55.383658 -25.40078,0 -1.29494,0 -23.10973,0 23.30895,-55.383658 0,0 z"
       id="path10"
       inkscape:connector-curvature="0"
       style="fill:#ffffff" />
  </g>
</svg>
