<?xml version="1.0" encoding="UTF-8" standalone="no"?>
<!-- Created with Inkscape (http://www.inkscape.org/) -->

<svg
   xmlns:dc="http://purl.org/dc/elements/1.1/"
   xmlns:cc="http://creativecommons.org/ns#"
   xmlns:rdf="http://www.w3.org/1999/02/22-rdf-syntax-ns#"
   xmlns:svg="http://www.w3.org/2000/svg"
   xmlns="http://www.w3.org/2000/svg"
   xmlns:sodipodi="http://sodipodi.sourceforge.net/DTD/sodipodi-0.dtd"
   xmlns:inkscape="http://www.inkscape.org/namespaces/inkscape"
   width="128"
   height="128"
   viewBox="0 0 128 128"
   id="svg2"
   version="1.1"
   inkscape:version="0.91 r13725"
   sodipodi:docname="corona.svg">
  <defs
     id="defs4" />
  <sodipodi:namedview
     id="base"
     pagecolor="#ffffff"
     bordercolor="#666666"
     borderopacity="1.0"
     inkscape:pageopacity="0.0"
     inkscape:pageshadow="2"
     inkscape:zoom="1.979899"
     inkscape:cx="154.96728"
     inkscape:cy="29.44199"
     inkscape:document-units="px"
     inkscape:current-layer="layer1"
     showgrid="false"
     units="px"
     inkscape:window-width="1366"
     inkscape:window-height="706"
     inkscape:window-x="-8"
     inkscape:window-y="-8"
     inkscape:window-maximized="1" />
  <metadata
     id="metadata7">
    <rdf:RDF>
      <cc:Work
         rdf:about="">
        <dc:format>image/svg+xml</dc:format>
        <dc:type
           rdf:resource="http://purl.org/dc/dcmitype/StillImage" />
        <dc:title></dc:title>
      </cc:Work>
    </rdf:RDF>
  </metadata>
  <g
     inkscape:label="Capa 1"
     inkscape:groupmode="layer"
     id="layer1"
     transform="translate(0,-924.36216)">
    <g
       id="g4183"
       transform="matrix(0.87449089,0,0,0.87449089,-458.83296,265.3689)">
      <path
         style="fill:#f8e6d1"
         d="m 587.86517,898.83717 c -22.9369,-3.56965 -43.29969,-18.4363 -53.6951,-39.20223 -4.52684,-9.04282 -7.2424,-21.16721 -7.2424,-32.33568 0,-19.87012 7.36149,-37.73819 21.2433,-51.5625 8.83399,-8.79739 20.11771,-15.28581 32.33336,-18.59248 5.5748,-1.50905 7.1251,-1.65415 17.67334,-1.65415 10.54824,0 12.09854,0.1451 17.67334,1.65415 12.21565,3.30667 23.49937,9.79509 32.33336,18.59248 11.23781,11.19126 18.33188,25.35521 20.65427,41.23811 1.13416,7.75654 0.45247,20.75196 -1.47835,28.183 -6.91399,26.60941 -26.44514,45.91905 -53.10032,52.49811 -5.94358,1.46701 -20.40106,2.11399 -26.3948,1.18119 z"
         id="path4235"
         inkscape:connector-curvature="0" />
      <path
         style="fill:#d2d1d1"
         d="m 586.05084,897.85762 c -15.15646,-2.73705 -28.04688,-9.70448 -38.87202,-21.01083 -13.87612,-14.49294 -20.49037,-32.60821 -19.41795,-53.18233 0.95243,-18.27212 7.34832,-33.2754 19.69394,-46.19741 33.7668,-35.34331 91.98133,-26.36557 113.87042,17.5609 9.5472,19.15907 9.94324,43.12841 1.03556,62.67503 -6.12098,13.43161 -17.7786,25.7958 -31.05812,32.94057 -13.087,7.04119 -30.67901,9.84571 -45.25183,7.21407 z"
         id="path4233"
         inkscape:connector-curvature="0" />
      <path
         style="fill:#f4cda5"
         d="m 589.11517,896.28216 c -35.89124,-4.48318 -63.64138,-37.98514 -61.3182,-74.02773 1.11007,-17.22193 7.72855,-32.30113 19.65784,-44.78738 33.7668,-35.34331 91.98133,-26.36557 113.87042,17.5609 13.43041,26.95178 8.00191,59.64395 -13.45168,81.01034 -15.71012,15.64626 -36.95846,22.96689 -58.75838,20.24387 z"
         id="path4231"
         inkscape:connector-curvature="0" />
      <path
         style="fill:#fac179"
         d="m 589.11517,896.28216 c -19.4921,-2.43476 -38.53469,-14.39351 -49.55384,-31.11981 -11.12143,-16.88155 -14.2791,-38.73073 -8.48633,-58.72036 7.22093,-24.9179 28.55643,-44.28323 54.13415,-49.13524 6.43993,-1.22163 19.49711,-1.22163 25.93705,0 29.88932,5.66991 52.58856,30.03143 56.43175,60.56427 2.09579,16.6503 -1.77198,33.61181 -10.78394,47.29133 -14.70279,22.3178 -41.07282,34.44317 -67.67884,31.11981 z"
         id="path4229"
         inkscape:connector-curvature="0" />
      <path
         style="fill:#d4ae9d"
         d="m 589.11517,896.28216 c -10.15477,-1.26844 -21.87356,-5.80439 -30.75564,-11.90451 -9.69495,-6.65838 -19.27407,-17.95568 -23.92819,-28.22012 -2.24495,-4.95114 -4.8885,-13.83204 -5.30937,-17.83663 -1.69193,-16.09878 -0.21726,-27.42721 5.20863,-40.01266 3.53901,-8.20882 7.64571,-13.98969 15.36865,-21.63398 13.88277,-13.7414 28.83761,-19.87142 48.47842,-19.87142 13.83576,0 24.22178,2.80504 35.98606,9.71907 6.80425,3.99895 17.9074,14.70514 22.45822,21.6553 7.81181,11.93044 12.28796,28.78721 11.27236,42.45066 -0.63828,8.5872 -0.94308,10.51274 -2.53194,15.99558 -9.48515,32.73126 -42.03712,53.93189 -76.2472,49.65871 z"
         id="path4227"
         inkscape:connector-curvature="0" />
      <path
         style="fill:#f7b26e"
         d="m 588.50276,895.04008 c -15.01718,-2.18686 -28.93225,-9.17588 -39.69239,-19.93602 -23.21297,-23.21297 -27.00508,-59.50827 -9.08206,-86.92685 4.49984,-6.88384 15.66527,-17.64051 22.47821,-21.6553 11.71974,-6.90631 22.13002,-9.71907 35.97115,-9.71907 13.83576,0 24.22178,2.80504 35.98606,9.71907 6.80425,3.99895 17.9074,14.70514 22.45822,21.6553 16.13115,24.63601 14.77845,57.01907 -3.36228,80.49156 -15.1262,19.57195 -40.49751,29.90405 -64.75691,26.37131 z"
         id="path4225"
         inkscape:connector-curvature="0" />
      <path
         style="fill:#f7a84c"
         d="m 591.30267,895.45048 c -0.51562,-0.12434 -3.04687,-0.56898 -5.625,-0.98808 -9.59654,-1.56002 -20.7621,-6.38835 -28.83439,-12.46888 -33.26877,-25.06003 -37.39768,-73.9496 -8.75287,-103.64088 27.25036,-28.24589 71.83125,-28.55846 99.45844,-0.69734 26.00996,26.2302 26.52983,69.0782 1.16325,95.87623 -10.38962,10.97592 -22.04234,17.61111 -36.38536,20.71825 -4.0992,0.888 -18.83171,1.72939 -21.02407,1.2007 z"
         id="path4223"
         inkscape:connector-curvature="0" />
      <path
         style="fill:#f39347"
         d="m 591.30267,895.45048 c -0.51562,-0.12434 -3.04687,-0.56898 -5.625,-0.98808 -6.28951,-1.02242 -12.94698,-3.29245 -19.375,-6.60636 -32.2642,-16.6336 -46.3365,-56.63869 -31.24882,-88.83497 2.95462,-6.305 4.74642,-8.90811 6.13513,-8.91306 0.57815,-0.002 3.08829,-2.37897 5.57808,-5.28203 13.61806,-15.87848 31.1181,-24.0728 51.41061,-24.0728 20.29251,0 37.79256,8.19432 51.41061,24.0728 2.48979,2.90306 4.99993,5.27997 5.57808,5.28203 1.38871,0.005 3.18051,2.60806 6.13513,8.91306 11.4616,24.45841 6.39302,54.45686 -12.58939,74.51046 -10.38962,10.97592 -22.04234,17.61111 -36.38536,20.71825 -4.0992,0.888 -18.83171,1.72939 -21.02407,1.2007 z"
         id="path4221"
         inkscape:connector-curvature="0" />
      <path
         style="fill:#f5843d"
         d="m 591.30267,895.45048 c -0.51562,-0.12434 -3.04687,-0.56898 -5.625,-0.98808 -6.28951,-1.02242 -12.94698,-3.29245 -19.375,-6.60636 -16.83438,-8.67886 -29.1537,-24.09 -34.41726,-43.0551 -2.94752,-10.62017 -3.11009,-27.2728 -0.27024,-27.68164 1.01737,-0.14646 1.57429,-1.36775 2.99253,-6.5625 4.18268,-15.32037 12.42179,-27.7481 24.35947,-36.74341 23.29665,-17.55456 55.12435,-17.55456 78.421,0 11.93768,8.99531 20.17679,21.42304 24.35948,36.74341 1.41823,5.19475 1.97515,6.41604 2.99252,6.5625 2.83985,0.40884 2.67728,17.06147 -0.27024,27.68164 -7.0549,25.41944 -26.54643,43.9038 -52.14319,49.44884 -4.0992,0.888 -18.83171,1.72939 -21.02407,1.2007 z"
         id="path4219"
         inkscape:connector-curvature="0" />
      <path
         style="fill:#e97749"
         d="m 591.30267,895.45048 c -0.51562,-0.12434 -3.04687,-0.56898 -5.625,-0.98808 -8.77341,-1.4262 -18.62715,-5.43035 -26.48563,-10.76266 -6.96071,-4.72313 -18.59193,-16.94557 -17.62096,-18.51664 0.20734,-0.33548 0.0477,-0.81348 -0.35478,-1.06222 -0.48527,-0.29991 -0.57836,-0.15656 -0.27635,0.42556 0.25048,0.4828 0.006,0.32339 -0.54222,-0.35425 -0.5487,-0.67763 -0.86309,-1.58269 -0.69865,-2.01123 0.16445,-0.42854 -0.0134,-0.97226 -0.39527,-1.20825 -0.42041,-0.25983 -0.51836,-0.14446 -0.24832,0.29248 0.24527,0.39686 0.29862,0.72157 0.11856,0.72157 -0.18007,0 -0.64661,-0.59644 -1.03674,-1.32543 -0.50531,-0.94417 -0.51027,-1.20238 -0.0172,-0.89768 0.48891,0.30217 0.48038,-0.0369 -0.029,-1.15498 -0.39663,-0.87049 -0.95804,-1.4363 -1.24759,-1.25735 -0.28954,0.17895 -0.34125,-0.15726 -0.11489,-0.74713 0.27735,-0.72276 0.17544,-0.92656 -0.3125,-0.625 -0.48795,0.30157 -0.58985,0.0978 -0.3125,-0.625 0.22773,-0.59347 0.15475,-0.91377 -0.16341,-0.71714 -0.31623,0.19544 -0.58879,-0.25061 -0.60569,-0.99122 -0.0169,-0.74061 -0.24678,-1.97938 -0.51086,-2.75282 -0.36505,-1.06916 -0.24247,-1.40625 0.51138,-1.40625 0.70786,0 0.89856,-0.40232 0.66659,-1.40625 -0.17872,-0.77344 -0.7454,-3.27312 -1.25929,-5.55485 -6.01938,-26.72645 3.19661,-52.86697 24.22491,-68.71227 23.29665,-17.55456 55.12435,-17.55456 78.421,0 21.0283,15.8453 30.24429,41.98582 24.2249,68.71227 -0.51389,2.28173 -1.08057,4.78141 -1.25928,5.55485 -0.23198,1.00393 -0.0412,1.40625 0.66659,1.40625 0.75384,0 0.87643,0.33709 0.51137,1.40625 -0.26407,0.77344 -0.49396,2.01221 -0.51086,2.75282 -0.0169,0.74061 -0.28945,1.18666 -0.60568,0.99122 -0.31817,-0.19663 -0.39115,0.12367 -0.16341,0.71714 0.27735,0.72276 0.17544,0.92657 -0.3125,0.625 -0.48795,-0.30156 -0.58985,-0.0978 -0.3125,0.625 0.22635,0.58987 0.17465,0.92608 -0.1149,0.74713 -0.28955,-0.17895 -0.85096,0.38686 -1.24758,1.25735 -0.50943,1.11807 -0.51795,1.45715 -0.0291,1.15498 0.49301,-0.3047 0.48806,-0.0465 -0.0173,0.89768 -0.39011,0.72899 -0.85664,1.32543 -1.0367,1.32543 -0.18007,0 -0.12672,-0.32471 0.11855,-0.72157 0.27005,-0.43694 0.17209,-0.55231 -0.24832,-0.29248 -0.38185,0.23599 -0.55972,0.77971 -0.39527,1.20825 0.16445,0.42854 -0.14995,1.3336 -0.69865,2.01123 -0.5487,0.67764 -0.7927,0.83705 -0.54222,0.35425 0.302,-0.58212 0.20892,-0.72547 -0.27635,-0.42556 -0.40246,0.24874 -0.56212,0.72674 -0.35478,1.06222 0.97097,1.57107 -10.66025,13.79351 -17.62095,18.51664 -7.29772,4.9518 -15.93959,8.62268 -24.83657,10.55004 -4.0992,0.888 -18.83171,1.72939 -21.02407,1.2007 z"
         id="path4217"
         inkscape:connector-curvature="0" />
      <path
         style="fill:#d18e47"
         d="m 592.72081,895.30364 c 0.60811,-0.15846 1.45186,-0.14804 1.875,0.0232 0.42315,0.17121 -0.0744,0.30086 -1.10564,0.28812 -1.03125,-0.0127 -1.37746,-0.15282 -0.76936,-0.31128 z m 9.375,0 c 0.60811,-0.15846 1.45186,-0.14804 1.875,0.0232 0.42315,0.17121 -0.0744,0.30086 -1.10564,0.28812 -1.03125,-0.0127 -1.37746,-0.15282 -0.76936,-0.31128 z m -17.98064,-2.0962 c -3.09375,-0.65526 -6.1875,-1.03892 -6.875,-0.85259 -1.04634,0.2836 -1.09726,0.22146 -0.3125,-0.38137 0.77461,-0.59503 0.69301,-0.66656 -0.46961,-0.41173 -0.77391,0.16964 -1.27178,0.0895 -1.10637,-0.17818 0.43382,-0.70193 -5.12816,-2.70118 -6.00578,-2.15878 -0.42341,0.26168 -0.57085,0.18728 -0.34691,-0.17507 0.48375,-0.78272 -2.54028,-2.23317 -3.46473,-1.66184 -0.43223,0.26714 -0.49086,0.1195 -0.16314,-0.41076 0.37457,-0.60607 0.22435,-0.71755 -0.56089,-0.41623 -0.60581,0.23247 -0.91477,0.15635 -0.71003,-0.17493 0.45669,-0.73893 -1.98003,-2.09195 -2.82594,-1.56914 -0.34516,0.21331 -0.55029,0.0154 -0.45584,-0.43985 0.095,-0.45779 -0.31408,-0.78942 -0.91528,-0.74202 -0.59787,0.0471 -0.95217,-0.13253 -0.78734,-0.39922 0.477,-0.77181 -3.97958,-3.8705 -4.84807,-3.37088 -0.42766,0.24602 -0.56454,0.21264 -0.30417,-0.0742 0.26037,-0.28684 -1.74087,-2.79287 -4.4472,-5.56896 -5.27603,-5.41203 -9.70822,-11.76792 -12.57329,-18.03047 -2.5494,-5.57256 -2.8158,-6.70446 -1.57791,-6.70446 0.68157,0 0.91235,-0.36414 0.69319,-1.09375 -0.1807,-0.60156 -0.93005,-4.04688 -1.66523,-7.65625 -1.75339,-8.60831 -1.47239,-23.75239 0.58397,-31.47136 1.55685,-5.84395 5.79708,-15.02364 9.36982,-20.28473 20.72071,-30.51259 63.43557,-37.47583 93.04125,-15.16728 11.53069,8.68863 20.32073,21.67837 23.99007,35.45201 2.05635,7.71897 2.33736,22.86305 0.58397,31.47136 -0.73518,3.60937 -1.48453,7.05469 -1.66523,7.65625 -0.21917,0.72961 0.0116,1.09375 0.69319,1.09375 1.23789,0 0.97149,1.1319 -1.57791,6.70446 -2.86507,6.26255 -7.29726,12.61844 -12.5733,18.03047 -2.70632,2.77609 -4.70756,5.28212 -4.44719,5.56896 0.26037,0.28684 0.12349,0.32022 -0.30418,0.0742 -0.86848,-0.49962 -5.32506,2.59907 -4.84806,3.37088 0.16483,0.26669 -0.18947,0.44634 -0.78733,0.39922 -0.60121,-0.0474 -1.01028,0.28423 -0.91529,0.74202 0.0944,0.45523 -0.11068,0.65316 -0.45584,0.43985 -0.84591,-0.52281 -3.28263,0.83021 -2.82594,1.56914 0.20474,0.33128 -0.10422,0.4074 -0.71003,0.17493 -0.78524,-0.30132 -0.93546,-0.18984 -0.56089,0.41623 0.32772,0.53026 0.26909,0.6779 -0.16314,0.41076 -0.92444,-0.57133 -3.94848,0.87912 -3.46473,1.66184 0.22394,0.36235 0.0765,0.43675 -0.34691,0.17507 -0.87762,-0.5424 -6.4396,1.45685 -6.00579,2.15878 0.16542,0.26764 -0.33245,0.34782 -1.10636,0.17818 -1.16262,-0.25483 -1.24422,-0.1833 -0.46961,0.41173 0.78457,0.60269 0.73359,0.6645 -0.3125,0.37897 -0.6875,-0.18766 -3.92187,0.2121 -7.1875,0.88835 -7.90907,1.63781 -19.99056,1.62332 -27.8125,-0.0334 z"
         id="path4215"
         inkscape:connector-curvature="0" />
      <path
         style="fill:#f17c2e"
         d="m 583.94836,893.2172 c -20.76149,-4.48709 -38.51773,-18.47366 -47.00528,-37.02598 -2.5494,-5.57256 -2.8158,-6.70446 -1.57791,-6.70446 0.68157,0 0.91235,-0.36414 0.69319,-1.09375 -0.1807,-0.60156 -0.92913,-4.04688 -1.6632,-7.65625 -1.83478,-9.0216 -1.48409,-21.86986 0.83792,-30.6993 9.39366,-35.71935 45.71965,-56.54453 80.97513,-46.42191 21.89787,6.28736 39.0108,23.97481 44.91405,46.42191 2.32201,8.82944 2.6727,21.6777 0.83792,30.6993 -0.73407,3.60937 -1.4825,7.05469 -1.6632,7.65625 -0.21917,0.72961 0.0116,1.09375 0.69319,1.09375 1.24444,0 0.97329,1.12932 -1.64337,6.84434 -6.36869,13.90982 -19.31363,26.40792 -33.83756,32.66953 -9.01546,3.88678 -14.31371,4.96264 -25.76907,5.23264 -8.28873,0.19536 -10.99114,0.0215 -15.79181,-1.01607 z"
         id="path4213"
         inkscape:connector-curvature="0" />
      <path
         style="fill:#e9792e"
         d="m 583.94836,893.2172 c -13.67879,-2.95633 -25.06143,-9.30181 -34.90227,-19.45693 -4.0161,-4.14437 -9.61842,-11.78644 -9.61842,-13.12041 0,-0.29046 0.42188,-0.5281 0.9375,-0.5281 1.28765,0 1.18199,-0.80837 -0.55416,-4.23952 -2.42234,-4.7873 -5.18897,-13.24379 -6.02174,-18.40606 -1.17173,-7.26353 -0.49902,-19.97615 1.45144,-27.42872 9.34078,-35.69048 45.71315,-56.54421 80.9675,-46.42191 21.90089,6.28823 39.03965,24.00538 44.90642,46.42191 1.95047,7.45257 2.62317,20.16519 1.45143,27.42872 -0.83276,5.16227 -3.59939,13.61876 -6.02173,18.40606 -1.73615,3.43115 -1.84181,4.23952 -0.55416,4.23952 1.46354,0 1.16027,0.8122 -2.15286,5.76574 -6.17853,9.23768 -17.4375,18.42795 -28.32807,23.12313 -9.01546,3.88678 -14.31371,4.96264 -25.76907,5.23264 -8.28873,0.19536 -10.99114,0.0215 -15.79181,-1.01607 z m 19.94152,-20.97107 c 6.4372,-1.2204 13.91291,-4.04592 17.41318,-6.5815 l 2.63323,-1.9075 -1.6748,-1.74811 c -2.27458,-2.37415 -6.58768,-4.62045 -12.20882,-6.35845 -3.90797,-1.2083 -6.09066,-1.45157 -13.125,-1.46282 -5.16372,-0.008 -9.73605,0.31992 -11.78425,0.84581 -3.00704,0.77207 -3.46559,1.12101 -4.51753,3.4375 -2.08481,4.59105 -1.38115,9.42299 1.66267,11.41738 5.05109,3.3096 12.3679,4.10819 21.60132,2.35769 z m -31.69563,-14.63689 c 1.68561,-4.8087 1.58656,-14.74392 -0.21494,-21.55998 -1.58358,-5.99153 -5.0138,-13.45648 -7.17776,-15.62043 -1.92986,-1.92987 -5.7229,-2.09161 -9.43638,-0.4024 -4.01366,1.82578 -4.37986,2.61935 -4.33777,9.40014 0.0425,6.84369 0.91823,9.53866 5.79555,17.83474 3.53467,6.0123 11.24601,14.33059 12.98304,14.00493 0.79403,-0.14887 1.58089,-1.35374 2.38826,-3.657 z m 64.61472,-4.6286 c 5.4302,-5.89107 7.65937,-13.23828 7.71119,-25.41564 0.0331,-7.78632 -1.25836,-14.32824 -2.82868,-14.32824 -2.57196,0 -8.97994,6.51482 -12.90975,13.125 -4.89175,8.22823 -8.18017,21.9455 -6.04292,25.20736 1.35545,2.06868 5.86268,4.16656 8.95301,4.16715 2.24554,4.3e-4 2.90311,-0.35368 5.11715,-2.75563 z M 569.894,808.92607 c 2.8346,-0.98669 7.19397,-2.9987 9.6875,-4.47114 5.62738,-3.32301 14.22711,-11.6753 14.20744,-13.79866 -0.0206,-2.22901 -2.08633,-6.2544 -4.25467,-8.29107 -1.77902,-1.67098 -2.19065,-1.78174 -5.39317,-1.45121 -1.90693,0.19681 -5.03957,1.07772 -6.96143,1.95757 -5.99793,2.74595 -15.6318,13.03643 -19.6342,20.97241 -1.67853,3.32818 -2.51556,6.0367 -2.01901,6.53325 0.19775,0.19775 2.35173,0.35578 4.78663,0.35118 3.24448,-0.006 5.80381,-0.48758 9.58091,-1.80233 z m 62.0324,0.87385 c 2.43633,-1.25988 4.9829,-4.71565 5.40874,-7.33984 1.41259,-8.70478 -17.13525,-21.29787 -32.70181,-22.20296 l -5.10684,-0.29693 0.59305,2.73204 c 2.05311,9.45818 12.95039,21.24772 24.48606,26.49097 3.88286,1.76485 4.92997,1.85307 7.3208,0.61672 z"
         id="path4211"
         inkscape:connector-curvature="0" />
      <path
         style="fill:#f56632"
         d="m 583.94836,893.2172 c -13.67879,-2.95633 -25.06143,-9.30181 -34.90227,-19.45693 -4.0161,-4.14437 -9.61842,-11.78644 -9.61842,-13.12041 0,-0.29046 0.39844,-0.5281 0.88542,-0.5281 1.66741,0 1.39589,-1.54431 -1.26162,-7.17574 -4.47095,-9.47421 -5.52087,-14.54557 -5.50168,-26.57426 0.0145,-9.11326 0.20529,-11.01161 1.64037,-16.3243 9.6928,-35.88281 45.75604,-56.54641 81.01805,-46.42191 21.88112,6.28255 38.84644,23.8007 44.95697,46.42191 1.43508,5.31269 1.62584,7.21104 1.64038,16.3243 0.0192,12.02869 -1.03075,17.10005 -5.50169,26.57426 -2.65751,5.63143 -2.92903,7.17574 -1.26162,7.17574 1.4076,0 1.08203,0.85132 -2.20494,5.76574 -6.17853,9.23768 -17.4375,18.42795 -28.32807,23.12313 -9.01546,3.88678 -14.31371,4.96264 -25.76907,5.23264 -8.28873,0.19536 -10.99114,0.0215 -15.79181,-1.01607 z m 24.16778,-21.54856 c 6.88084,-1.85422 12.92401,-4.5941 14.99485,-6.79841 l 1.46957,-1.56428 -2.10769,-1.94135 c -5.37467,-4.95048 -14.63899,-7.69345 -26.1702,-7.74843 -13.57959,-0.0648 -17.01271,1.872 -17.12297,9.65975 -0.0783,5.52661 1.89946,7.61625 9.14181,9.65919 4.44832,1.25479 12.30353,0.75221 19.79463,-1.26647 z m -36.94907,-10.46313 c 0.35335,-0.42969 1.1272,-2.45463 1.71967,-4.49987 1.30818,-4.51585 0.96927,-15.96144 -0.64865,-21.90638 -1.31183,-4.82024 -5.43469,-13.41596 -7.20069,-15.01264 -2.81745,-2.54733 -11.24325,-0.90061 -13.57123,2.65232 -1.65515,2.52609 -1.31383,11.49523 0.61961,16.28196 2.8202,6.98211 6.91021,13.40225 11.71929,18.39594 4.62563,4.80318 6.10073,5.62242 7.362,4.08867 z m 66.03129,-7.98871 c 5.3903,-5.76267 7.79929,-13.74389 7.82274,-25.91754 0.0119,-6.20772 -1.10779,-12.95186 -2.35802,-14.20209 -1.02072,-1.02072 -5.78303,2.10753 -9.47996,6.22717 -3.7576,4.18723 -8.78853,14.07891 -10.25465,20.16242 -0.53848,2.23437 -1.05426,5.85084 -1.14618,8.03658 -0.16229,3.85927 -0.10392,4.02692 2.02038,5.80275 2.42857,2.03018 4.80679,2.89471 8.19573,2.9793 1.93789,0.0484 2.67551,-0.38975 5.19996,-3.08859 z m -70.65893,-42.79907 c 8.21249,-2.13908 15.53491,-6.19765 21.73621,-12.04764 5.51186,-5.19961 6.41456,-6.83729 5.54625,-10.06196 -1.18382,-4.39637 -4.85411,-8.1436 -8.00769,-8.17558 -2.59444,-0.0263 -8.907,2.08159 -11.90447,3.97515 -9.14443,5.77669 -22.20717,25.1731 -18.07581,26.84014 1.62437,0.65544 7.21709,0.37851 10.70551,-0.53011 z m 66.52749,-0.9226 c 2.73392,-1.98044 5.11075,-5.85167 5.11075,-8.32407 0,-2.14506 -4.35488,-8.57199 -7.62292,-11.2499 -6.17579,-5.0606 -20.53139,-10.4344 -27.87451,-10.4344 l -3.42248,0 0.38497,2.80864 c 0.79885,5.82824 6.42299,14.18775 13.53494,20.11781 4.05233,3.37889 14.14764,8.94855 16.21976,8.94855 0.60098,0 2.25225,-0.83998 3.66949,-1.86663 z"
         id="path4209"
         inkscape:connector-curvature="0" />
      <path
         style="fill:#b88548"
         d="m 585.67767,889.80447 c -12.77575,-2.5625 -23.73312,-8.44287 -33.18296,-17.80794 -6.22111,-6.1653 -9.64788,-11.0185 -13.41251,-18.99564 -4.50262,-9.54091 -5.55163,-14.59201 -5.53241,-26.63913 0.0145,-9.11326 0.20529,-11.01161 1.64037,-16.3243 6.11053,-22.62121 23.07585,-40.13936 44.95698,-46.42191 35.262,-10.1245 71.32524,10.5391 81.01804,46.42191 1.43508,5.31269 1.62584,7.21104 1.64038,16.3243 0.0192,12.04712 -1.0298,17.09822 -5.53242,26.63913 -3.76463,7.97714 -7.1914,12.83034 -13.41251,18.99564 -9.63433,9.54791 -20.5842,15.35063 -33.70669,17.86239 -5.64844,1.08116 -18.96217,1.05154 -24.47627,-0.0544 z m 22.43847,-18.13583 c 6.88084,-1.85422 12.92401,-4.5941 14.99485,-6.79841 l 1.46957,-1.56428 -2.10769,-1.94135 c -5.37467,-4.95048 -14.63899,-7.69345 -26.1702,-7.74843 -13.57959,-0.0648 -17.01271,1.872 -17.12297,9.65975 -0.0783,5.52661 1.89946,7.61625 9.14181,9.65919 4.44832,1.25479 12.30353,0.75221 19.79463,-1.26647 z m -36.94907,-10.46313 c 0.35335,-0.42969 1.1272,-2.45463 1.71967,-4.49987 1.30818,-4.51585 0.96927,-15.96144 -0.64865,-21.90638 -1.31183,-4.82024 -5.43469,-13.41596 -7.20069,-15.01264 -2.81745,-2.54733 -11.24325,-0.90061 -13.57123,2.65232 -1.65515,2.52609 -1.31383,11.49523 0.61961,16.28196 2.8202,6.98211 6.91021,13.40225 11.71929,18.39594 4.62563,4.80318 6.10073,5.62242 7.362,4.08867 z m 66.03129,-7.98871 c 5.3903,-5.76267 7.79929,-13.74389 7.82274,-25.91754 0.0119,-6.20772 -1.10779,-12.95186 -2.35802,-14.20209 -1.02072,-1.02072 -5.78303,2.10753 -9.47996,6.22717 -3.7576,4.18723 -8.78853,14.07891 -10.25465,20.16242 -0.53848,2.23437 -1.05426,5.85084 -1.14618,8.03658 -0.16229,3.85927 -0.10392,4.02692 2.02038,5.80275 2.42857,2.03018 4.80679,2.89471 8.19573,2.9793 1.93789,0.0484 2.67551,-0.38975 5.19996,-3.08859 z m -70.65893,-42.79907 c 8.21249,-2.13908 15.53491,-6.19765 21.73621,-12.04764 5.51186,-5.19961 6.41456,-6.83729 5.54625,-10.06196 -1.18382,-4.39637 -4.85411,-8.1436 -8.00769,-8.17558 -2.59444,-0.0263 -8.907,2.08159 -11.90447,3.97515 -9.14443,5.77669 -22.20717,25.1731 -18.07581,26.84014 1.62437,0.65544 7.21709,0.37851 10.70551,-0.53011 z m 66.52749,-0.9226 c 2.73392,-1.98044 5.11075,-5.85167 5.11075,-8.32407 0,-2.14506 -4.35488,-8.57199 -7.62292,-11.2499 -6.17579,-5.0606 -20.53139,-10.4344 -27.87451,-10.4344 l -3.42248,0 0.38497,2.80864 c 0.79885,5.82824 6.42299,14.18775 13.53494,20.11781 4.05233,3.37889 14.14764,8.94855 16.21976,8.94855 0.60098,0 2.25225,-0.83998 3.66949,-1.86663 z"
         id="path4207"
         inkscape:connector-curvature="0" />
      <path
         style="fill:#d06f31"
         d="m 585.67767,889.80447 c -12.77575,-2.5625 -23.73312,-8.44287 -33.18296,-17.80794 -6.22111,-6.1653 -9.64788,-11.0185 -13.41251,-18.99564 -4.25018,-9.006 -5.48703,-14.67342 -5.54088,-25.38913 -0.0495,-9.85701 0.071,-10.79659 2.42939,-18.93487 5.14782,-17.76406 17.18842,-32.40442 33.20546,-40.37504 36.56949,-18.19824 79.77729,0.92847 91.20846,40.37504 2.35838,8.13828 2.47893,9.07786 2.42939,18.93487 -0.0539,10.71571 -1.2907,16.38313 -5.54088,25.38913 -3.76463,7.97714 -7.19139,12.83034 -13.41251,18.99564 -9.63433,9.54791 -20.5842,15.35063 -33.70669,17.86239 -5.64844,1.08116 -18.96217,1.05154 -24.47627,-0.0544 z m 22.43847,-18.13583 c 6.88084,-1.85422 12.92401,-4.5941 14.99485,-6.79841 l 1.46957,-1.56428 -2.10769,-1.94135 c -5.37467,-4.95048 -14.63899,-7.69345 -26.1702,-7.74843 -13.57959,-0.0648 -17.01271,1.872 -17.12297,9.65975 -0.0783,5.52661 1.89946,7.61625 9.14181,9.65919 4.44832,1.25479 12.30353,0.75221 19.79463,-1.26647 z m -36.94907,-10.46313 c 0.35335,-0.42969 1.1272,-2.45463 1.71967,-4.49987 1.30818,-4.51585 0.96927,-15.96144 -0.64865,-21.90638 -1.31183,-4.82024 -5.43469,-13.41596 -7.20069,-15.01264 -2.81745,-2.54733 -11.24325,-0.90061 -13.57123,2.65232 -1.65515,2.52609 -1.31383,11.49523 0.61961,16.28196 2.8202,6.98211 6.91021,13.40225 11.71929,18.39594 4.62563,4.80318 6.10073,5.62242 7.362,4.08867 z m 66.03129,-7.98871 c 5.3903,-5.76267 7.79929,-13.74389 7.82274,-25.91754 0.0119,-6.20772 -1.10779,-12.95186 -2.35802,-14.20209 -1.02072,-1.02072 -5.78303,2.10753 -9.47996,6.22717 -3.7576,4.18723 -8.78853,14.07891 -10.25465,20.16242 -0.53848,2.23437 -1.05426,5.85084 -1.14618,8.03658 -0.16229,3.85927 -0.10392,4.02692 2.02038,5.80275 2.42857,2.03018 4.80679,2.89471 8.19573,2.9793 1.93789,0.0484 2.67551,-0.38975 5.19996,-3.08859 z m -70.65893,-42.79907 c 8.21249,-2.13908 15.53491,-6.19765 21.73621,-12.04764 5.51186,-5.19961 6.41456,-6.83729 5.54625,-10.06196 -1.18382,-4.39637 -4.85411,-8.1436 -8.00769,-8.17558 -2.59444,-0.0263 -8.907,2.08159 -11.90447,3.97515 -9.14443,5.77669 -22.20717,25.1731 -18.07581,26.84014 1.62437,0.65544 7.21709,0.37851 10.70551,-0.53011 z m 66.52749,-0.9226 c 2.73392,-1.98044 5.11075,-5.85167 5.11075,-8.32407 0,-2.14506 -4.35488,-8.57199 -7.62292,-11.2499 -6.17579,-5.0606 -20.53139,-10.4344 -27.87451,-10.4344 l -3.42248,0 0.38497,2.80864 c 0.79885,5.82824 6.42299,14.18775 13.53494,20.11781 4.05233,3.37889 14.14764,8.94855 16.21976,8.94855 0.60098,0 2.25225,-0.83998 3.66949,-1.86663 z"
         id="path4205"
         inkscape:connector-curvature="0" />
      <path
         style="fill:#9a7045"
         d="m 589.16814,890.08913 c -9.48201,-1.49581 -19.51865,-5.3958 -27.31474,-10.61383 -5.92979,-3.96888 -15.31458,-13.82547 -18.92081,-19.872 -3.49198,-5.85498 -6.8066,-14.23439 -8.25769,-20.87556 -1.36301,-6.23805 -1.34393,-18.7109 0.0385,-25.17848 5.70033,-26.66834 26.24335,-46.62968 52.76488,-51.27085 29.89653,-5.23178 60.35752,12.26368 71.04847,40.80714 3.1071,8.29558 4.18649,14.32592 4.16627,23.27621 -0.0391,17.28883 -6.10771,32.04271 -18.26536,44.40616 -9.228,9.38422 -18.42038,14.76685 -30.49637,17.85726 -6.84759,1.75239 -18.54942,2.44418 -24.76316,1.46395 z m 18.27637,-17.8412 c 8.66754,-2.17615 16.98316,-6.3909 16.98316,-8.60787 0,-1.24847 -3.78432,-4.50789 -7.23212,-6.22899 -8.90943,-4.44747 -24.97722,-5.74831 -33.70019,-2.72834 -3.15153,1.09109 -4.69587,3.90849 -4.68348,8.54428 0.0118,4.41585 0.95878,6.21991 4.20483,8.01054 6.21464,3.42819 13.58374,3.73299 24.4278,1.01038 z m -35.86866,-11.05094 c 0.50984,-0.77812 1.39577,-3.23906 1.96872,-5.46875 2.54908,-9.92 -1.10576,-26.90225 -7.6316,-35.46023 -1.43123,-1.87692 -1.81955,-2.03021 -5.11086,-2.01752 -3.75464,0.0144 -7.90395,1.49315 -9.45763,3.3704 -1.57584,1.90404 -1.65774,10.81305 -0.1451,15.78549 2.40502,7.906 11.33554,20.80677 16.64465,24.04439 2.4092,1.4692 2.61191,1.45541 3.73182,-0.25378 z m 64.68103,-6.43072 c 5.56942,-5.03163 8.45239,-12.55704 9.19098,-23.99119 0.41835,-6.47641 -0.45926,-14.01568 -1.97202,-16.94103 -0.84711,-1.63813 -1.07406,-1.72967 -2.79819,-1.12863 -4.04151,1.40888 -10.61929,8.76194 -14.28194,15.96527 -3.39344,6.67386 -5.89318,18.16796 -4.85273,22.31343 0.67861,2.70383 6.20261,5.72689 10.85164,5.93866 0.79741,0.0363 2.46678,-0.89578 3.86226,-2.15651 z m -66.8515,-44.78739 c 8.15603,-2.51475 15.55607,-7.21372 21.5415,-13.6787 3.54884,-3.83317 3.61303,-3.96725 3.32661,-6.94811 -0.30624,-3.18716 -2.33318,-6.3669 -5.62551,-8.82498 -1.49088,-1.1131 -1.98476,-1.16061 -5.27633,-0.50755 -5.91198,1.17296 -10.65195,3.89712 -15.76983,9.06325 -7.61095,7.68269 -14.09517,18.35233 -12.95651,21.31964 0.72131,1.8797 7.96404,1.67187 14.76007,-0.42355 z m 63.19065,0.42295 c 2.21083,-1.14326 5.34161,-5.27444 5.89026,-7.77239 0.96034,-4.3724 -6.0015,-12.97535 -13.78598,-17.03573 -8.94133,-4.66379 -22.56861,-8.00917 -25.22723,-6.19306 -0.74845,0.51127 -0.77023,1.15389 -0.13528,3.99117 2.0591,9.20103 13.13256,21.08113 24.64644,26.44182 3.78048,1.76013 6.02098,1.90796 8.61179,0.56819 z"
         id="path4203"
         inkscape:connector-curvature="0" />
      <path
         style="fill:#b26532"
         d="m 589.16814,890.08913 c -9.49237,-1.49745 -19.53986,-5.40398 -27.31474,-10.62016 -5.96611,-4.00267 -14.77669,-13.18659 -18.56509,-19.35176 -7.79033,-12.67786 -10.97029,-26.69353 -9.21849,-40.63045 0.58538,-4.65718 0.7695,-5.77732 1.13002,-6.875 0.16935,-0.51563 0.94015,-3.04688 1.7129,-5.625 3.02546,-10.09394 9.23827,-19.90995 17.64652,-27.88088 24.12813,-22.87319 63.10869,-22.87319 87.23682,0 8.40825,7.97093 14.62106,17.78694 17.64652,27.88088 0.77275,2.57812 1.54355,5.10937 1.7129,5.625 0.36052,1.09768 0.54464,2.21782 1.13002,6.875 2.36951,18.85127 -4.23793,37.65707 -18.13747,51.622 -9.04655,9.08912 -18.34165,14.47741 -30.21675,17.51642 -6.84759,1.75239 -18.54942,2.44418 -24.76316,1.46395 z m 18.27637,-17.8412 c 8.66754,-2.17615 16.98316,-6.3909 16.98316,-8.60787 0,-1.24847 -3.78432,-4.50789 -7.23212,-6.22899 -8.90943,-4.44747 -24.97722,-5.74831 -33.70019,-2.72834 -3.15153,1.09109 -4.69587,3.90849 -4.68348,8.54428 0.0118,4.41585 0.95878,6.21991 4.20483,8.01054 6.21464,3.42819 13.58374,3.73299 24.4278,1.01038 z m -35.86866,-11.05094 c 0.50984,-0.77812 1.39577,-3.23906 1.96872,-5.46875 2.54908,-9.92 -1.10576,-26.90225 -7.6316,-35.46023 -1.43123,-1.87692 -1.81955,-2.03021 -5.11086,-2.01752 -3.75464,0.0144 -7.90395,1.49315 -9.45763,3.3704 -1.57584,1.90404 -1.65774,10.81305 -0.1451,15.78549 2.40502,7.906 11.33554,20.80677 16.64465,24.04439 2.4092,1.4692 2.61191,1.45541 3.73182,-0.25378 z m 64.68103,-6.43072 c 5.56942,-5.03163 8.45239,-12.55704 9.19098,-23.99119 0.41835,-6.47641 -0.45926,-14.01568 -1.97202,-16.94103 -0.84711,-1.63813 -1.07406,-1.72967 -2.79819,-1.12863 -4.04151,1.40888 -10.61929,8.76194 -14.28194,15.96527 -3.39344,6.67386 -5.89318,18.16796 -4.85273,22.31343 0.67861,2.70383 6.20261,5.72689 10.85164,5.93866 0.79741,0.0363 2.46678,-0.89578 3.86226,-2.15651 z m -66.8515,-44.78739 c 8.15603,-2.51475 15.55607,-7.21372 21.5415,-13.6787 3.54884,-3.83317 3.61303,-3.96725 3.32661,-6.94811 -0.30624,-3.18716 -2.33318,-6.3669 -5.62551,-8.82498 -1.49088,-1.1131 -1.98476,-1.16061 -5.27633,-0.50755 -5.91198,1.17296 -10.65195,3.89712 -15.76983,9.06325 -7.61095,7.68269 -14.09517,18.35233 -12.95651,21.31964 0.72131,1.8797 7.96404,1.67187 14.76007,-0.42355 z m 63.19065,0.42295 c 2.21083,-1.14326 5.34161,-5.27444 5.89026,-7.77239 0.96034,-4.3724 -6.0015,-12.97535 -13.78598,-17.03573 -8.94133,-4.66379 -22.56861,-8.00917 -25.22723,-6.19306 -0.74845,0.51127 -0.77023,1.15389 -0.13528,3.99117 2.0591,9.20103 13.13256,21.08113 24.64644,26.44182 3.78048,1.76013 6.02098,1.90796 8.61179,0.56819 z"
         id="path4201"
         inkscape:connector-curvature="0" />
      <path
         style="fill:#ab5831"
         d="m 591.92767,890.34729 c -25.4845,-3.19849 -45.901,-19.20001 -54.37378,-42.61568 -2.78067,-7.68477 -3.67611,-13.54929 -3.45375,-22.61985 0.28382,-11.57781 2.292,-19.41088 7.47356,-29.15119 17.38418,-32.67888 58.77493,-43.92054 90.2938,-24.52366 14.66952,9.0277 25.37891,24.23224 29.22182,41.48735 1.32276,5.93936 1.57888,18.78101 0.4937,24.75353 -4.62496,25.45429 -24.91692,46.16111 -50.51262,51.54533 -4.54506,0.95608 -15.40197,1.59366 -19.14273,1.12417 z m 11.03223,-16.79656 c 9.54783,-1.8268 19.85976,-6.19546 21.71007,-9.19749 1.48819,-2.41451 -6.00804,-7.41294 -14.95174,-9.96971 -4.13635,-1.18248 -6.4047,-1.4144 -13.41556,-1.37166 -13.34809,0.0814 -16.811,1.76604 -17.84826,8.683 -0.64958,4.33175 0.74637,7.79196 3.82697,9.48611 5.82558,3.20372 12.38869,3.95586 20.67852,2.36975 z m -30.21584,-13.90772 c 1.223,-2.64805 1.36853,-3.98148 1.34722,-12.34375 -0.0227,-8.92597 -0.12143,-9.65776 -2.06033,-15.27862 -2.48562,-7.20576 -5.88917,-13.00856 -8.14309,-13.88335 -2.42465,-0.94106 -7.33068,-0.16846 -10.4175,1.64054 -2.45484,1.43863 -2.77165,1.90947 -3.43507,5.10517 -1.73929,8.3781 1.57915,17.83031 10.36137,29.51325 3.21025,4.27057 7.90692,8.21551 9.78103,8.21551 0.81683,0 1.62938,-0.93994 2.56637,-2.96875 z m 64.79375,-5.70396 c 5.958,-6.34607 7.82736,-12.63363 7.82736,-26.32729 0,-7.89616 -0.21181,-10.23646 -1.14544,-12.65625 -1.39154,-3.60659 -2.29442,-3.73076 -6.44257,-0.88603 -8.21967,5.63691 -15.40307,19.62382 -16.79907,32.70974 -0.39951,3.74491 -0.35168,3.91962 1.67542,6.11984 2.32763,2.52644 5.83995,4.01898 9.55481,4.06027 2.16112,0.024 2.82409,-0.35169 5.32949,-3.02028 z M 566.92767,811.0141 c 5.35798,-1.25847 13.07111,-5.04378 18.19421,-8.92905 4.54389,-3.446 9.1377,-8.42212 9.6777,-10.48311 0.64618,-2.46619 -0.96217,-6.43197 -3.81676,-9.41119 l -2.76106,-2.8816 -3.86071,0.35008 c -6.07876,0.5512 -11.8624,3.74931 -17.55396,9.70659 -5.18382,5.42585 -9.27395,11.1048 -11.14979,15.48095 -1.55477,3.62713 -1.60939,6.3241 -0.13588,6.70916 2.35055,0.61426 7.53205,0.36812 11.40625,-0.54183 z m 64.87479,0.0885 c 3.68407,-1.93004 7.00021,-6.60533 7.00021,-9.8693 0,-2.26602 -2.70139,-6.81361 -6.09708,-10.26399 -6.02729,-6.12437 -20.72937,-12.10753 -29.75113,-12.10753 l -4.31083,0 0.30069,3.12928 c 0.90126,9.37965 13.66131,23.43668 25.80563,28.42863 4.39214,1.8054 4.82915,1.84771 7.05251,0.68291 z"
         id="path4199"
         inkscape:connector-curvature="0" />
      <path
         style="fill:#8e5633"
         d="m 586.76513,889.1227 c -19.6322,-3.54953 -36.50656,-16.07155 -45.66252,-33.88498 -9.78693,-19.041 -9.61788,-40.31186 0.47109,-59.27715 17.38418,-32.67888 58.77493,-43.92054 90.2938,-24.52366 14.69039,9.04054 25.55933,24.49398 29.17948,41.48735 7.51518,35.27698 -16.14173,69.99126 -51.95312,76.23624 -6.63663,1.15734 -15.80435,1.14181 -22.32873,-0.0378 z m 17.43944,-15.64683 c 9.43638,-1.94257 18.587,-6.05121 20.47473,-9.19318 0.58023,-0.96575 0.23219,-1.55574 -2.25967,-3.83051 -5.7352,-5.23552 -16.65861,-8.2034 -28.2397,-7.67269 -3.8253,0.17529 -8.43377,0.78723 -10.26875,1.36353 -2.92003,0.91708 -3.47501,1.36713 -4.51753,3.66338 -2.1906,4.82502 -1.17363,11.07575 2.15704,13.25808 4.9802,3.26315 13.90267,4.2129 22.65388,2.41139 z M 572.37021,860.3545 c 4.36632,-7.83996 2.65325,-24.72068 -3.72323,-36.68882 -2.74673,-5.15539 -4.31944,-6.23858 -8.59431,-5.91924 -4.05703,0.30308 -7.83213,1.96233 -9.19417,4.04106 -1.46397,2.2343 -1.75897,9.20053 -0.58385,13.78745 2.27026,8.86172 10.21888,21.0286 16.92273,25.9035 1.35147,0.98276 2.75772,1.68944 3.125,1.57041 0.36729,-0.11903 1.28881,-1.33149 2.04783,-2.69436 z m 65.35144,-6.40397 c 4.92142,-5.26139 6.93604,-10.63379 7.94038,-21.17466 0.97886,-10.27344 -0.83205,-20.78911 -3.5801,-20.78911 -1.89934,0 -6.5533,3.3174 -9.72388,6.9313 -3.49312,3.98155 -8.701,14.20601 -10.13477,19.89728 -0.55647,2.20885 -1.16784,5.87791 -1.35862,8.15347 -0.313,3.73349 -0.20178,4.30226 1.13932,5.82636 2.19623,2.4959 6.0121,4.13809 9.68192,4.16668 3.02839,0.0236 3.34441,-0.13406 6.03575,-3.01132 z M 566.80716,811.281 c 4.33076,-1.04209 12.80963,-5.12348 17.2991,-8.3271 5.72197,-4.08311 10.95,-10.05103 10.93268,-12.4799 -0.0194,-2.72554 -1.95679,-6.56632 -4.56216,-9.04439 -2.16267,-2.05701 -2.34728,-2.11012 -6.2467,-1.79711 -6.54273,0.52518 -11.25414,3.25608 -18.11752,10.50155 -6.22866,6.57541 -9.39239,11.29135 -11.23353,16.74501 -1.12513,3.33277 -1.12825,3.52403 -0.07,4.29784 1.37149,1.00287 8.02316,1.06058 11.99812,0.1041 z m 66.21629,-0.64207 c 2.93042,-1.81109 5.77922,-6.39672 5.77922,-9.30264 0,-2.91097 -3.76909,-8.88308 -7.56977,-11.9943 -6.27446,-5.13624 -20.10942,-10.48969 -27.60881,-10.68326 -6.21778,-0.16049 -6.65546,1.49889 -2.60871,9.89053 4.01195,8.3195 11.78901,15.91546 21.13207,20.63998 6.24877,3.15983 7.77894,3.36379 10.876,1.44969 z"
         id="path4197"
         inkscape:connector-curvature="0" />
      <path
         style="fill:#6f4b35"
         d="m 590.67767,889.41327 c -17.51199,-2.00361 -34.35446,-11.97593 -44.69095,-26.46121 -3.6633,-5.13366 -7.98906,-14.33193 -9.71259,-20.6528 -1.93735,-7.10499 -2.40149,-21.25319 -0.9351,-28.50399 5.42782,-26.83878 26.55757,-47.09022 53.46364,-51.2413 7.11025,-1.09697 19.03318,-0.3725 26.17411,1.59041 23.45472,6.44728 41.16469,25.54642 46.03953,49.65089 1.46639,7.2508 1.00225,21.399 -0.9351,28.50399 -7.00679,25.69667 -28.66467,44.18133 -55.23753,47.14438 -6.64297,0.74074 -7.4414,0.73903 -14.16601,-0.0304 z m 15.96073,-16.1671 c 6.26502,-1.46271 10.97862,-3.29122 14.84014,-5.75681 4.55749,-2.90998 4.80709,-3.86781 1.76256,-6.764 -6.50949,-6.19232 -21.12062,-9.77304 -33.18843,-8.13342 -9.26908,1.25937 -12,3.67034 -12,10.59408 0,4.7367 1.06452,6.8702 4.32547,8.66904 6.05212,3.33854 13.97356,3.79276 24.26026,1.39111 z m -34.46643,-11.55553 c 4.15957,-6.34832 3.70814,-22.00191 -0.95879,-33.24622 -4.12662,-9.94251 -7.21871,-12.43995 -13.45941,-10.871 -6.72384,1.69041 -8.42422,4.09481 -8.39963,11.87735 0.0178,5.63807 0.82411,8.52962 4.19264,15.03599 3.50714,6.77408 8.34466,13.19826 12.28233,16.31081 3.5893,2.83718 4.94405,3.02792 6.34286,0.89307 z m 62.86195,-5.00668 c 2.44643,-1.2651 5.89892,-5.61332 7.86256,-9.90248 3.9643,-8.65917 4.55987,-26.97868 1.09747,-33.75738 -0.75406,-1.47628 -1.17833,-1.70698 -2.51995,-1.37026 -5.13901,1.28981 -11.27368,8.09296 -15.79887,17.52042 -3.50984,7.31218 -4.99746,12.84445 -4.99746,18.58498 0,4.06003 0.0434,4.16723 2.55522,6.31729 3.78662,3.24121 8.54313,4.29216 11.80103,2.60743 z m -64.10091,-46.44744 c 2.91475,-1.00468 7.49501,-3.1858 10.17835,-4.84694 5.35792,-3.31686 12.92042,-10.40517 13.92763,-13.05434 1.75632,-4.61949 -4.12978,-13.47348 -8.95713,-13.47348 -2.48672,0 -7.98557,1.57683 -11.18925,3.20859 -5.76933,2.93854 -15.58037,14.14096 -19.2472,21.9768 -2.28084,4.87403 -2.27089,7.35459 0.0323,8.04831 2.85676,0.86047 9.83157,0.0106 15.25534,-1.85894 z m 60.54599,1.52524 c 3.75333,-1.58631 7.95663,-7.15943 7.94281,-10.53135 -0.009,-2.21892 -3.55943,-7.88703 -7.01616,-11.20132 -7.20953,-6.91243 -27.13699,-13.75466 -33.23936,-11.41296 -2.37133,0.90996 -0.15953,8.68283 4.21524,14.81352 5.56366,7.79677 14.803,15.15177 22.60864,17.99766 3.79989,1.38541 3.10267,1.34293 5.48883,0.33445 z"
         id="path4195"
         inkscape:connector-curvature="0" />
      <path
         style="fill:#514339"
         d="m 587.13651,888.56131 c -37.52734,-6.80921 -61.00393,-45.14031 -49.77045,-81.26205 3.03071,-9.74539 7.53546,-17.47404 14.48651,-24.85406 18.79758,-19.95761 48.39901,-25.75479 72.89463,-14.27576 23.90318,11.20142 38.74378,36.00786 36.93869,61.744 -2.36853,33.76944 -30.42056,59.83253 -64.05884,59.51691 -3.30654,-0.031 -8.02728,-0.42209 -10.49054,-0.86904 z m 16.97332,-14.39683 c 11.20314,-2.37305 21.56784,-7.47907 21.56784,-10.62509 0,-2.78072 -6.53594,-7.08692 -14.6875,-9.67682 -8.98497,-2.8547 -27.53928,-2.16049 -30.52818,1.14221 -2.62467,2.90022 -3.54819,8.09414 -2.26238,12.72366 1.61415,5.81173 14.15321,8.9264 25.91022,6.43604 z m -31.4144,-12.58484 c 0.63137,-1.08105 1.58807,-4.03326 2.12601,-6.56047 2.0724,-9.73608 -0.56351,-23.24857 -6.47484,-33.19196 -2.55398,-4.29602 -3.43327,-4.84045 -7.81763,-4.84045 -3.86717,0 -9.00199,2.22296 -10.42352,4.51253 -1.20884,1.94702 -1.60614,9.4531 -0.725,13.69749 1.76261,8.49049 11.70725,23.36415 18.34853,27.44294 2.57086,1.5789 3.54687,1.37058 4.96645,-1.06008 z m 65.23458,-6.88047 c 5.27547,-5.42806 7.7822,-12.33547 8.69605,-23.96241 0.6681,-8.5003 -1.29758,-18.65576 -3.79661,-19.61473 -1.41912,-0.54456 -6.14007,2.34839 -9.62887,5.90049 -6.57112,6.69035 -12.17632,19.33728 -12.93588,29.1871 -0.35526,4.6069 -0.28847,4.96538 1.27003,6.81756 2.3736,2.82086 6.31869,4.5835 10.26,4.58409 3.11199,4.6e-4 3.46954,-0.16925 6.13528,-2.9121 z m -67.98754,-43.69729 c 6.13979,-2.06023 10.64983,-4.47685 16.08325,-8.61791 5.91113,-4.50515 9.65195,-9.15725 9.65195,-12.0032 0,-4.13848 -3.23257,-9.32294 -7.04088,-11.29229 -2.58049,-1.33442 -8.06899,-0.25068 -13.72237,2.70957 -7.00286,3.66688 -16.86559,14.99886 -20.29097,23.31371 -2.65741,6.45066 -1.90385,7.45171 5.63152,7.48099 3.63411,0.0141 6.12184,-0.3944 9.6875,-1.59087 z m 62.53196,0.71284 c 2.63433,-1.36227 6.16457,-5.59913 7.00636,-8.4088 0.69176,-2.30887 0.60913,-2.7901 -1.03806,-6.04571 -2.59877,-5.13638 -7.43319,-9.65512 -13.86845,-12.96285 -9.73407,-5.00333 -22.19441,-7.97506 -25.6607,-6.11996 -3.59708,1.92511 0.90228,12.75788 8.74187,21.04709 4.39128,4.64312 9.03418,8.09884 14.71639,10.95342 5.20933,2.61701 7.37626,2.94665 10.10259,1.53681 z"
         id="path4193"
         inkscape:connector-curvature="0" />
      <path
         style="fill:#454443"
         d="m 590.22078,888.82168 c -13.29683,-1.72961 -25.34982,-7.43624 -35.13782,-16.63642 -14.08745,-13.24141 -20.77386,-29.90869 -19.85446,-49.49138 0.44073,-9.38745 2.17562,-16.11694 6.3857,-24.76962 11.05844,-22.72762 33.72392,-36.20609 59.06347,-35.12322 9.59583,0.41007 16.34432,2.01268 24.25498,5.76 13.8512,6.56137 23.93142,16.64567 30.38123,30.39352 6.7171,14.31756 7.83042,31.28596 3.04798,46.45491 -3.9938,12.66752 -13.30311,25.29791 -24.14297,32.75593 -12.4845,8.58956 -29.04728,12.60104 -43.99811,10.65628 z m 17.32657,-15.34984 c 9.05423,-2.27364 18.75532,-7.39361 18.75532,-9.89854 0,-1.26034 -5.18327,-5.71664 -8.75354,-7.52583 -6.02253,-3.05185 -11.9336,-4.23017 -21.24646,-4.23527 -11.17747,-0.006 -15.25184,1.17031 -17.37622,5.01722 -1.03783,1.87934 -1.44367,3.63907 -1.45647,6.31525 -0.0294,6.14475 2.11808,8.70951 9.14519,10.92221 6.17796,1.94532 11.40788,1.79665 20.93218,-0.59504 z m -35.04926,-11.40842 c 3.03947,-4.26855 4.10245,-15.60775 2.27675,-24.28687 -1.93406,-9.19417 -6.54873,-18.81761 -9.84738,-20.53573 -2.2055,-1.14875 -5.84661,-1.11585 -9.2947,0.084 -5.74736,1.99989 -7.04998,4.19219 -7.04073,11.84947 0.005,4.52177 0.3172,6.42178 1.5894,9.6875 3.60475,9.2533 11.36849,19.97647 17.35406,23.96919 2.21758,1.47925 3.50447,1.28022 4.9626,-0.76753 z m 65.48731,-7.05962 c 6.31134,-6.17122 9.27783,-16.44165 8.81446,-30.51704 -0.20573,-6.24932 -0.52427,-8.40651 -1.59205,-10.78125 -1.4925,-3.31936 -2.59255,-3.67672 -5.96743,-1.93862 -9.74752,5.02009 -19.18771,22.52575 -19.18771,35.58123 0,5.01466 0.24186,5.56498 3.40103,7.73855 5.82756,4.00946 10.37295,3.98355 14.5317,-0.0829 z m -71.05773,-42.73599 c 12.31215,-2.88059 29.3885,-15.54278 29.36889,-21.77718 -0.009,-2.95199 -2.67192,-8.04444 -5.36816,-10.26691 -1.93799,-1.59745 -2.97604,-1.98696 -5.29529,-1.98696 -3.25728,0 -8.95631,1.78609 -12.36237,3.8744 -9.67891,5.93429 -22.53088,24.69552 -20.06869,29.29616 1.04441,1.9515 7.36799,2.34794 13.72562,0.86049 z m 65.49365,-0.22381 c 4.29522,-2.20936 7.63647,-6.94485 7.62549,-10.80745 -0.008,-2.95743 -3.04903,-7.8466 -7.36477,-11.84221 -6.64784,-6.15473 -20.73666,-11.79304 -29.41804,-11.77301 -5.23771,0.0121 -5.94691,0.45787 -5.82147,3.65923 0.39453,10.06871 13.63778,24.76765 27.42124,30.43537 4.40961,1.81321 4.64999,1.82365 7.55755,0.32807 z"
         id="path4191"
         inkscape:connector-curvature="0" />
      <path
         style="fill:#483b35"
         d="m 590.22078,888.82168 c -13.29683,-1.72961 -25.34982,-7.43624 -35.13782,-16.63642 -17.32164,-16.28137 -23.91721,-39.26856 -17.70573,-61.70883 0.71529,-2.58411 1.1428,-3.3579 1.41947,-2.56918 0.31308,0.89252 1.20214,1.16801 4.24958,1.31682 2.11951,0.1035 4.01143,-0.0671 4.20426,-0.37909 0.19283,-0.312 1.11313,-0.41752 2.04511,-0.23448 1.37265,0.26958 1.8979,-10e-4 2.76522,-1.42672 l 1.0707,-1.75952 -0.37038,3.22952 -0.37038,3.22953 2.42468,0.67324 c 5.70203,1.58323 13.16211,0.22195 21.83409,-3.98417 5.52418,-2.67936 13.13272,-8.09231 16.70357,-11.88343 1.20726,-1.28173 1.57873,-1.47448 1.15463,-0.59912 -0.3439,0.70982 -2.89323,3.55854 -5.66519,6.3305 -2.77196,2.77195 -5.03992,5.35526 -5.03992,5.74067 0,0.74585 2.82102,0.86923 14.6875,0.64236 3.78125,-0.0723 7.57813,-0.0655 8.4375,0.0151 6.73619,0.63165 7.02486,-0.16074 2.05618,-5.64425 -5.51998,-6.09194 -7.45437,-9.15424 -2.90375,-4.59686 6.81605,6.82614 14.81332,12.11641 21.20984,14.03049 2.24917,0.67305 2.83862,0.6149 5,-0.49321 2.79307,-1.43197 4.80114,-3.41985 6.89489,-6.82554 l 1.45383,-2.36479 0.0195,2.92116 0.0195,2.92116 5.14175,0.20384 c 8.23545,0.32649 11.72571,-0.047 11.77729,-1.26025 0.0829,-1.95062 1.87584,3.96031 2.79123,9.20221 3.45967,19.81146 -3.4537,40.3483 -18.38457,54.61317 -5.69925,5.44503 -9.10207,7.86536 -15.57751,11.07981 -11.3622,5.64028 -23.97934,7.80661 -36.20508,6.21632 z m 17.32657,-15.34984 c 9.05423,-2.27364 18.75532,-7.39361 18.75532,-9.89854 0,-1.26034 -5.18327,-5.71664 -8.75354,-7.52583 -6.02253,-3.05185 -11.9336,-4.23017 -21.24646,-4.23527 -11.17747,-0.006 -15.25184,1.17031 -17.37622,5.01722 -1.03783,1.87934 -1.44367,3.63907 -1.45647,6.31525 -0.0294,6.14475 2.11808,8.70951 9.14519,10.92221 6.17796,1.94532 11.40788,1.79665 20.93218,-0.59504 z m -35.04926,-11.40842 c 4.1533,-5.83279 4.22514,-20.28245 0.15906,-31.9926 -1.80679,-5.20348 -5.0269,-11.05701 -6.8905,-12.52557 -1.39856,-1.10211 -2.33012,-1.26737 -6.08286,-1.0791 -3.56862,0.17903 -4.94245,0.56053 -7.05642,1.95949 -3.36748,2.22849 -3.97937,3.87011 -4.00642,10.74862 -0.018,4.56822 0.27521,6.38822 1.56048,9.6875 3.60475,9.2533 11.36849,19.97647 17.35406,23.96919 2.21758,1.47925 3.50447,1.28022 4.9626,-0.76753 z m 65.48731,-7.05962 c 6.09815,-5.96275 9.05277,-15.79446 8.89698,-29.60528 -0.10965,-9.7198 -1.67365,-15.28676 -4.29473,-15.28676 -3.01537,0 -8.3687,4.25641 -13.57287,10.79172 -1.80734,2.26962 -6.55357,13.11465 -7.69789,17.5895 -1.22611,4.7947 -1.66659,11.71799 -0.87652,13.77687 0.51889,1.35221 5.11698,4.46587 7.78188,5.26961 3.90594,1.17804 6.70989,0.44981 9.76315,-2.53566 z"
         id="path4189"
         inkscape:connector-curvature="0" />
      <path
         style="fill:#3b3b3b"
         d="m 589.11517,888.45074 c -8.75974,-1.39207 -18.78386,-5.35525 -26.47113,-10.46574 -5.03604,-3.34795 -12.87233,-11.12547 -16.43398,-16.31074 -8.27571,-12.04829 -12.62527,-29.63314 -10.58954,-42.8125 1.03288,-6.68692 2.6802,-12.36845 3.17618,-10.95451 0.31308,0.89252 1.20214,1.16801 4.24958,1.31682 2.11951,0.1035 4.01143,-0.0671 4.20426,-0.37909 0.19283,-0.312 1.11313,-0.41752 2.04511,-0.23448 1.37265,0.26958 1.8979,-10e-4 2.76522,-1.42672 l 1.0707,-1.75952 -0.37451,3.26438 c -0.35772,3.11804 -0.29882,3.29316 1.31374,3.90625 2.88858,1.09824 10.47663,0.75715 15.13479,-0.68032 8.29237,-2.55895 15.6487,-6.9681 22.00372,-13.18832 2.20666,-2.15984 3.71085,-3.34623 3.34265,-2.63642 -0.3682,0.70982 -2.93741,3.55854 -5.70937,6.3305 -2.77196,2.77195 -5.03992,5.35526 -5.03992,5.74067 0,0.74585 2.82102,0.86923 14.6875,0.64236 3.78125,-0.0723 7.57813,-0.0655 8.4375,0.0151 6.73619,0.63165 7.02486,-0.16074 2.05618,-5.64425 -5.77419,-6.37248 -7.15212,-8.83013 -2.0364,-3.63209 7.87843,8.00523 18.45748,14.14732 23.25809,13.50342 3.20431,-0.42978 6.34094,-2.93852 8.60105,-6.87928 l 1.85935,-3.24196 0.006,2.92116 0.006,2.92116 5.14175,0.20384 c 8.23545,0.32649 11.72571,-0.047 11.77729,-1.26025 0.0855,-2.01014 1.89193,4.03449 2.86576,9.58909 2.47015,14.08946 -1.6311,31.72925 -10.31719,44.375 -3.56165,5.18527 -11.39794,12.96279 -16.43399,16.31074 -10.91616,7.25706 -20.82035,10.3466 -33.97112,10.59707 -4.8125,0.0916 -9.59375,0.0326 -10.625,-0.13133 z m 13.16646,-13.36262 c 11.29318,-1.97525 23.48381,-7.73028 23.89652,-11.28122 0.38119,-3.27973 -7.57246,-8.508 -16.75048,-11.01079 -5.775,-1.57481 -20.72482,-1.57381 -25.82382,0.002 -3.42269,1.05757 -3.72527,1.31461 -5.15015,4.375 -1.66325,3.57236 -1.9179,7.53492 -0.7095,11.04049 1.90547,5.52784 13.56363,8.79416 24.53743,6.87477 z m -29.76315,-12.26235 c 3.66286,-4.65657 4.56008,-16.95222 1.9995,-27.40151 -1.66181,-6.78155 -5.75306,-15.33224 -8.40285,-17.56189 -1.76425,-1.48453 -2.32221,-1.60518 -6.4574,-1.39637 -3.81794,0.1928 -4.94814,0.52464 -7.22192,2.12043 -3.56685,2.50329 -4.46212,5.16412 -4.09016,12.15619 0.34239,6.43598 2.32335,11.60017 7.49067,19.52754 4.30915,6.61082 7.45471,10.15154 11.05746,12.44657 3.42848,2.184 3.98406,2.19478 5.6247,0.10904 z m 65.93631,-7.87026 c 6.12674,-6.36106 8.60104,-14.23166 8.69438,-27.65625 0.0481,-6.92288 -0.16061,-8.79541 -1.41088,-12.65625 -1.33813,-4.13215 -1.61484,-4.53125 -3.14163,-4.53125 -4.03981,0 -11.939,7.37221 -16.31317,15.22486 -4.88886,8.77666 -8.05947,22.23539 -6.26104,26.57716 0.77031,1.8597 3.97283,4.46939 6.90522,5.62695 0.85938,0.33924 3.09346,0.63462 4.96462,0.65641 3.30502,0.0385 3.49235,-0.0541 6.5625,-3.24163 z"
         id="path4187"
         inkscape:connector-curvature="0" />
      <path
         style="fill:#343333"
         d="m 589.11517,888.45074 c -19.4387,-3.08914 -35.73675,-14.45929 -45.6428,-31.84215 -1.53709,-2.69724 -2.7947,-5.58269 -2.7947,-6.41214 0,-1.50552 0.009,-1.50753 5.59332,-1.18915 l 5.59332,0.31891 -0.32044,-1.95098 c -0.17625,-1.07303 -0.4275,-2.48367 -0.55835,-3.13475 -0.31829,-1.58374 0.16051,-0.98231 4.17666,5.24628 4.35863,6.75976 9.05406,11.88257 12.63002,13.77962 2.73625,1.45157 2.8352,1.45961 4.08175,0.33149 2.11775,-1.91653 3.91114,-7.66999 4.30113,-13.79861 0.3459,-5.43571 0.38162,-5.54312 1.06166,-3.19186 l 0.70372,2.43314 7.14985,0.17636 c 9.33207,0.23019 16.66451,0.2165 22.45771,-0.0419 2.85521,-0.12737 4.84299,0.0503 5.09318,0.45502 0.25023,0.40489 0.86164,0.45943 1.56714,0.1398 0.63626,-0.28826 1.57628,-0.54064 2.08894,-0.56084 0.51266,-0.0202 1.42482,-1.02065 2.02703,-2.22322 0.96784,-1.93271 1.08413,-2.00514 1.00193,-0.62398 -0.25979,4.36565 0.13392,5.779 2.13268,7.65589 2.92701,2.74855 6.502,4.18952 10.43337,4.20538 3.29275,0.0133 3.50374,-0.0918 6.5625,-3.26752 1.73821,-1.80469 4.06695,-4.96875 5.17497,-7.03125 l 2.0146,-3.75 0.0167,2.55208 0.0166,2.55209 4.6875,0 c 2.57813,0 4.88573,0.19823 5.12802,0.44051 1.29905,1.29905 -5.41396,12.52313 -11.32987,18.94344 -5.72926,6.21774 -11.1992,10.28423 -18.79815,13.97501 -8.97923,4.36119 -14.92665,5.74092 -25.625,5.94467 -4.8125,0.0917 -9.59375,0.0326 -10.625,-0.13132 z m 13.16646,-13.36262 c 9.80176,-1.7144 22.16868,-7.09659 23.90242,-10.40254 0.86045,-1.64075 -0.0535,-3.48678 -2.79417,-5.64381 -8.47557,-6.67062 -24.01225,-9.85497 -35.8912,-7.35615 -2.48089,0.52187 -5.24147,1.29531 -6.13461,1.71875 -3.69879,1.7536 -5.65757,10.07487 -3.55571,15.10533 2.24095,5.36334 13.74325,8.45516 24.47327,6.57842 z"
         id="path4185"
         inkscape:connector-curvature="0" />
    </g>
  </g>
</svg>
