<?xml version="1.0" encoding="UTF-8" standalone="no"?>
<svg
   xmlns:dc="http://purl.org/dc/elements/1.1/"
   xmlns:cc="http://creativecommons.org/ns#"
   xmlns:rdf="http://www.w3.org/1999/02/22-rdf-syntax-ns#"
   xmlns:svg="http://www.w3.org/2000/svg"
   xmlns="http://www.w3.org/2000/svg"
   xmlns:sodipodi="http://sodipodi.sourceforge.net/DTD/sodipodi-0.dtd"
   xmlns:inkscape="http://www.inkscape.org/namespaces/inkscape"
   width="128"
   height="128"
   viewBox="0 0 128 128"
   version="1.1"
   preserveAspectRatio="xMidYMid"
   id="svg2"
   inkscape:version="0.91 r13725"
   sodipodi:docname="d3.svg">
  <metadata
     id="metadata52">
    <rdf:RDF>
      <cc:Work
         rdf:about="">
        <dc:format>image/svg+xml</dc:format>
        <dc:type
           rdf:resource="http://purl.org/dc/dcmitype/StillImage" />
        <dc:title></dc:title>
      </cc:Work>
    </rdf:RDF>
  </metadata>
  <sodipodi:namedview
     pagecolor="#ffffff"
     bordercolor="#666666"
     borderopacity="1"
     objecttolerance="10"
     gridtolerance="10"
     guidetolerance="10"
     inkscape:pageopacity="0"
     inkscape:pageshadow="2"
     inkscape:window-width="1366"
     inkscape:window-height="706"
     id="namedview50"
     showgrid="false"
     inkscape:zoom="2.7469498"
     inkscape:cx="123.10559"
     inkscape:cy="52.586334"
     inkscape:window-x="-8"
     inkscape:window-y="-8"
     inkscape:window-maximized="1"
     inkscape:current-layer="svg2" />
  <defs
     id="defs4">
    <linearGradient
       x1="104.44516"
       y1="18.935974"
       x2="257.21964"
       y2="181.92058"
       id="linearGradient-1"
       gradientTransform="scale(1.0064904,0.99355149)"
       gradientUnits="userSpaceOnUse">
      <stop
         stop-color="#F9A03C"
         offset="0%"
         id="stop7" />
      <stop
         stop-color="#F7974E"
         offset="100%"
         id="stop9" />
    </linearGradient>
    <linearGradient
       x1="-21.491283"
       y1="48.226913"
       x2="122.23597"
       y2="188.40465"
       id="linearGradient-2"
       gradientTransform="scale(0.99750234,1.0025039)"
       gradientUnits="userSpaceOnUse">
      <stop
         stop-color="#F9A03C"
         offset="0%"
         id="stop12" />
      <stop
         stop-color="#F7974E"
         offset="100%"
         id="stop14" />
    </linearGradient>
    <linearGradient
       x1="44.167824"
       y1="98.811852"
       x2="172.57632"
       y2="246.03192"
       id="linearGradient-3"
       gradientTransform="scale(1.0137653,0.98642161)"
       gradientUnits="userSpaceOnUse">
      <stop
         stop-color="#F9A03C"
         offset="0%"
         id="stop17" />
      <stop
         stop-color="#F7974E"
         offset="100%"
         id="stop19" />
    </linearGradient>
    <linearGradient
       x1="28.214054"
       y1="-4.5329199"
       x2="205.2748"
       y2="229.18869"
       id="linearGradient-4"
       gradientTransform="scale(1.0281528,0.97261808)"
       gradientUnits="userSpaceOnUse">
      <stop
         stop-color="#F26D58"
         offset="0%"
         id="stop22" />
      <stop
         stop-color="#F9A03C"
         offset="100%"
         id="stop24" />
    </linearGradient>
    <linearGradient
       x1="125.82687"
       y1="6.4669924"
       x2="300.62946"
       y2="121.3268"
       id="linearGradient-5"
       gradientTransform="scale(0.95887522,1.0428886)"
       gradientUnits="userSpaceOnUse">
      <stop
         stop-color="#B84E51"
         offset="0%"
         id="stop27" />
      <stop
         stop-color="#F68E48"
         offset="100%"
         id="stop29" />
    </linearGradient>
    <linearGradient
       x1="60.120747"
       y1="236.93777"
       x2="66.386719"
       y2="395.51135"
       id="linearGradient-6"
       gradientTransform="scale(1.3814153,0.72389527)"
       gradientUnits="userSpaceOnUse">
      <stop
         stop-color="#F9A03C"
         offset="0%"
         id="stop32" />
      <stop
         stop-color="#F7974E"
         offset="100%"
         id="stop34" />
    </linearGradient>
  </defs>
  <g
     id="g36"
     transform="matrix(0.49822694,0,0,0.49822694,0,3.2887455)">
    <path
       d="m 255.52,175.61867 c 0.11467,-1.11467 0.19733,-2.24 0.26133,-3.37067 0.0773,-1.33867 -80.56266,-77.850667 -80.56266,-77.850667 l -1.928,0 c 0,0 81.736,86.215997 82.22933,81.221337 l 0,0 0,0 z"
       id="path38"
       inkscape:connector-curvature="0"
       style="fill:url(#linearGradient-1)" />
    <path
       d="m 83.472,149.07733 c -0.106667,0.23467 -0.213333,0.46934 -0.322667,0.704 -0.114666,0.24534 -0.232,0.49067 -0.349333,0.73334 -2.570667,5.36 35.98667,43.05333 39.088,38.47466 0.14133,-0.20266 0.28267,-0.416 0.424,-0.61866 0.15733,-0.24 0.312,-0.46934 0.46667,-0.70934 2.48,-3.76533 -38.205337,-41.032 -39.30667,-38.584 l 0,0 0,0 z"
       id="path40"
       inkscape:connector-curvature="0"
       style="fill:url(#linearGradient-2)" />
    <path
       d="m 137.95733,202.08267 c -0.10933,0.24 -0.88533,1.552 -1.59466,2.24533 -0.12,0.24 37.64,37.688 37.64,37.688 l 3.4,0 c 0.003,0 -35.44534,-38.34933 -39.44534,-39.93333 l 0,0 0,0 z"
       id="path42"
       inkscape:connector-curvature="0"
       style="fill:url(#linearGradient-3)" />
    <path
       d="m 255.83467,171.568 c -1.76534,39.14667 -34.152,70.448 -73.72,70.448 l -5.34934,0 -39.51466,-38.928 c 3.25066,-4.584 6.272,-9.33333 8.96266,-14.28533 l 35.90134,0 c 11.35466,0 20.59466,-9.23467 20.59466,-20.59467 0,-11.35467 -9.24,-20.59467 -20.59466,-20.59467 l -21.24534,0 c 1.61867,-8.55733 2.504,-17.38133 2.504,-26.408 0,-9.16533 -0.90133,-18.11466 -2.57866,-26.807997 l 13.19733,0 81.61067,80.413337 c 0.096,-1.07734 0.17333,-2.15467 0.232,-3.24267 l 0,0 0,0 z M 21.466667,0 0,0 l 0,53.213333 21.466667,0 c 37.493333,0 68,30.498667 68,67.991997 0,10.2 -2.274667,19.88267 -6.317334,28.576 L 122.312,188.37067 c 12.85867,-19.24 20.376,-42.33867 20.376,-67.16534 C 142.688,54.373333 88.306667,0 21.466667,0 l 0,0 0,0 z"
       id="path44"
       inkscape:connector-curvature="0"
       style="fill:url(#linearGradient-4)" />
    <path
       d="M 182.11467,0 95.186667,0 C 116.41867,12.962667 134,31.344 145.97867,53.213333 l 36.136,0 c 11.35466,0 20.59466,9.234667 20.59466,20.594667 0,11.357333 -9.24,20.592 -20.59466,20.592 l -8.12,0 81.61066,80.41333 c 0.192,-2.18133 0.312,-4.376 0.312,-6.60533 0,-17.93867 -6.43733,-34.39467 -17.12533,-47.20267 C 249.48,108.20267 255.91733,91.744 255.91733,73.808 255.91733,33.112 222.81333,0 182.11467,0 l 0,0 0,0 z"
       id="path46"
       inkscape:connector-curvature="0"
       style="fill:url(#linearGradient-5)" />
    <path
       d="m 176.76533,242.016 -80.95733,0 c 16.296,-10.064 30.384,-23.34933 41.44267,-38.928 l 39.51466,38.928 0,0 z M 122.312,188.37067 83.152,149.78133 C 72.333333,173.032 48.757333,189.20267 21.466667,189.20267 l -21.466667,0 0,53.208 21.466667,0 c 42.010666,0 79.090663,-21.488 100.845333,-54.04 l 0,0 0,0 z"
       id="path48"
       inkscape:connector-curvature="0"
       style="fill:url(#linearGradient-6)" />
  </g>
</svg>
