<?xml version="1.0" encoding="UTF-8" standalone="no"?>
<!-- Created with Inkscape (http://www.inkscape.org/) -->

<svg
   xmlns:dc="http://purl.org/dc/elements/1.1/"
   xmlns:cc="http://creativecommons.org/ns#"
   xmlns:rdf="http://www.w3.org/1999/02/22-rdf-syntax-ns#"
   xmlns:svg="http://www.w3.org/2000/svg"
   xmlns="http://www.w3.org/2000/svg"
   xmlns:sodipodi="http://sodipodi.sourceforge.net/DTD/sodipodi-0.dtd"
   xmlns:inkscape="http://www.inkscape.org/namespaces/inkscape"
   width="128"
   height="128"
   viewBox="0 0 128 128"
   id="svg2"
   version="1.1"
   inkscape:version="0.91 r13725"
   sodipodi:docname="dbeaver.svg">
  <defs
     id="defs4" />
  <sodipodi:namedview
     id="base"
     pagecolor="#ffffff"
     bordercolor="#666666"
     borderopacity="1.0"
     inkscape:pageopacity="0.0"
     inkscape:pageshadow="2"
     inkscape:zoom="3.959798"
     inkscape:cx="87.683219"
     inkscape:cy="72.477104"
     inkscape:document-units="px"
     inkscape:current-layer="layer1"
     showgrid="false"
     units="px"
     inkscape:window-width="1366"
     inkscape:window-height="706"
     inkscape:window-x="-8"
     inkscape:window-y="-8"
     inkscape:window-maximized="1" />
  <metadata
     id="metadata7">
    <rdf:RDF>
      <cc:Work
         rdf:about="">
        <dc:format>image/svg+xml</dc:format>
        <dc:type
           rdf:resource="http://purl.org/dc/dcmitype/StillImage" />
        <dc:title></dc:title>
      </cc:Work>
    </rdf:RDF>
  </metadata>
  <g
     inkscape:label="Capa 1"
     inkscape:groupmode="layer"
     id="layer1"
     transform="translate(0,-924.36216)">
    <g
       id="g4817"
       transform="matrix(1.0047353,0,0,0.99606208,-20.115968,125.31768)">
      <path
         style="fill:#e9e7e7"
         d="M 89.661702,930.39179 C 72.393591,927.41076 58.571988,913.72862 44.490682,885.67654 29.98024,856.76956 26.959505,826.69294 37.43988,815.47366 c 4.669786,-4.99902 12.357482,-7.14163 18.751111,-5.22605 10.873988,3.25793 15.019662,10.27783 16.990305,28.76982 l 0.850435,7.98025 2.576513,-4.06932 c 2.297169,-3.62813 2.417276,-4.6647 1.107797,-9.5607 -2.742546,-10.25407 -0.968315,-15.45549 5.271942,-15.45549 1.609482,0 5.205942,-2.29372 8.409709,-5.36346 7.020163,-6.7265 13.500278,-9.84487 20.458098,-9.84487 6.65244,0 10.64153,1.98502 10.64153,5.29536 0,2.25563 -0.57839,2.42439 -5.9375,1.73235 -3.26562,-0.42171 -7.32291,-0.24373 -9.01619,0.3955 l -3.07869,1.16224 2.69993,1.44496 c 3.4079,1.82385 6.42921,1.97204 16.62186,0.81524 9.78098,-1.11007 10.00217,-0.91581 12.79512,11.23768 2.2739,9.89485 1.67725,15.25197 -2.77711,24.93475 l -2.84517,6.18475 2.95638,8.19025 c 3.03555,8.40961 3.12863,10.44679 2.15891,47.25275 -0.086,3.26562 0.24742,7.39559 0.74102,9.17771 1.78476,6.44374 -8.65134,11.30858 -18.1526,8.46193 -3.77709,-1.13165 -6.09658,-1.16995 -9.05899,-0.1496 -6.14833,2.11768 -13.397945,2.68191 -19.942588,1.55208 z m 7.778441,-106.81928 c 0.718949,-0.44434 1.30718,-2.26812 1.30718,-4.05285 0,-3.21907 -0.02098,-3.22598 -2.629554,-0.86525 -3.021976,2.73485 -7.928077,10.92554 -9.288916,15.50776 -0.656031,2.20899 0.571574,1.23336 4.18802,-3.32839 2.81385,-3.54936 5.704321,-6.81694 6.42327,-7.26127 z"
         id="path4853"
         inkscape:connector-curvature="0" />
      <path
         style="fill:#e1dddc"
         d="m 86.872323,929.23928 c -16.642116,-4.06949 -33.026231,-22.83045 -45.490188,-52.08944 -7.200326,-16.90269 -9.320159,-25.75865 -9.392241,-39.23767 -0.05354,-10.01251 0.381283,-12.71591 2.772384,-17.23654 5.231199,-9.89012 15.296559,-12.87716 25.974182,-7.70821 7.5137,3.63732 11.661818,13.67397 11.730305,28.38225 0.0168,3.60937 0.489479,6.5625 1.050382,6.5625 0.560902,0 2.290186,-2.26031 3.842852,-5.0229 2.734124,-4.86472 2.759821,-5.2132 0.815984,-11.06554 -2.590988,-7.80074 -1.113621,-12.66156 3.84827,-12.66156 2.239057,0 5.344671,-1.87625 9.428545,-5.69624 9.839782,-9.20396 19.292402,-12.43756 26.610712,-9.10312 5.7231,2.60762 3.90358,4.79744 -4.00369,4.8185 -6.33292,0.0169 -11.94548,1.53782 -10.2763,2.78479 3.59213,2.68351 8.83643,3.43228 18.78127,2.68154 10.92922,-0.82505 11.05432,-0.80201 11.69078,2.15278 3.89493,18.08234 3.80545,22.6562 -0.61261,31.31631 -2.87991,5.64509 -2.99495,9.03249 -0.5428,15.98262 1.01906,2.88833 2.52984,9.93385 3.35728,15.65672 1.31305,9.08151 1.20893,12.01573 -0.81842,23.06508 -1.77634,9.68136 -1.97804,13.00468 -0.85727,14.12544 0.80606,0.80607 1.46557,3.06928 1.46557,5.02937 0,2.88508 -0.82554,3.90871 -4.33485,5.375 -5.11039,2.13525 -10.429,2.31436 -15.17236,0.51095 -2.59424,-0.98634 -4.58169,-0.83544 -8.23167,0.625 -4.98544,1.99477 -15.114848,2.34701 -21.636117,0.75237 z M 73.351215,877.67779 c -0.399032,-0.99716 -0.695228,-0.70097 -0.755208,0.75521 -0.05428,1.31771 0.24116,2.05599 0.656525,1.64063 0.415363,-0.41537 0.459772,-1.49349 0.09869,-2.39584 z m 51.105225,-28.22317 c -1.13296,-1.13296 -4.61851,0.93837 -3.80206,2.25942 0.56005,0.90618 1.37747,0.85315 2.60944,-0.1693 0.98665,-0.81885 1.52333,-1.75941 1.19262,-2.09012 z M 95.489254,826.75678 c 2.312956,-2.15133 3.258069,-4.29951 3.258069,-7.4054 l 0,-4.375 -3.146336,2.95583 c -4.026944,3.78312 -10.607204,16.90217 -10.591934,21.11711 0.01013,2.7944 0.505492,2.38186 3.616931,-3.01215 1.98286,-3.4375 5.071331,-7.61368 6.86327,-9.28039 z"
         id="path4851"
         inkscape:connector-curvature="0" />
      <path
         style="fill:#d4d0ce"
         d="M 87.905323,929.10669 C 80.458522,927.63424 75.475774,924.75407 67.727695,917.44347 46.346082,897.2691 28.682231,853.22799 32.518538,829.65682 c 1.328329,-8.16157 3.798636,-12.23463 9.966074,-16.43215 5.032952,-3.4254 10.180422,-3.53261 17.174386,-0.35773 8.542566,3.87788 10.881624,9.29092 12.672809,29.32739 l 0.790516,8.84284 3.573166,-6.25 c 3.284595,-5.74525 3.461259,-6.68049 2.1875,-11.58044 -2.615665,-10.06205 -1.30142,-14.04456 4.634763,-14.04456 1.925503,0 5.696331,-2.47741 10.402088,-6.83411 8.62823,-7.98823 15.03179,-10.36742 21.84858,-8.11768 5.79259,1.91173 4.83816,3.88528 -2.06386,4.2676 -3.07023,0.17007 -7.26974,1.00208 -9.33224,1.84891 l -3.75,1.5397 5,1.78286 c 3.2499,1.15883 8.89248,1.66996 16.12071,1.46029 l 11.12071,-0.32257 2.31413,9.375 c 2.59558,10.5152 1.89067,17.28967 -2.74442,26.3752 l -2.57255,5.04262 2.72678,7.72859 c 3.47322,9.84422 4.61001,29.02606 2.43986,41.16949 -1.26418,7.07392 -1.25948,9.70939 0.0242,13.5991 1.40067,4.24409 1.32938,5.11526 -0.5924,7.2388 -2.89439,3.19826 -10.53383,4.37446 -16.60263,2.5562 -4.02297,-1.2053 -5.94695,-1.10966 -10.79609,0.53666 -6.3496,2.15574 -10.937042,2.32288 -19.155339,0.69786 z m -14.554108,-37.6789 c -0.399032,-0.99716 -0.695228,-0.70097 -0.755208,0.75521 -0.05428,1.31771 0.24116,2.05599 0.656525,1.64063 0.415363,-0.41537 0.459772,-1.49349 0.09869,-2.39584 z m 0.376967,-11.66574 c 0.02576,-5.08104 4.495972,-20.92398 7.64615,-27.09884 1.401067,-2.74632 2.234188,-5.30651 1.851382,-5.68932 -1.200947,-1.20094 -6.99063,13.33286 -9.529262,23.92125 -2.701045,11.2658 -3.229061,17.65813 -1.199129,14.51703 0.666445,-1.03125 1.220331,-3.57381 1.230859,-5.65012 z M 124.7252,850.60529 c 0.35822,-1.07578 -0.24281,-1.52624 -1.66783,-1.25 -1.22534,0.23753 -2.4799,1.18873 -2.78792,2.11376 -0.35822,1.07578 0.24281,1.52624 1.66783,1.25 1.22533,-0.23753 2.4799,-1.18873 2.78792,-2.11376 z m -37.586333,-6.75562 c -0.917217,-2.52854 2.477737,-9.5073 7.662112,-15.75045 3.380389,-4.07074 4.819396,-6.99349 4.803036,-9.75537 -0.02989,-5.0445 -1.900292,-4.36969 -6.799675,2.45318 -6.456121,8.99079 -9.92728,20.82821 -6.973683,23.78181 1.315666,1.31566 1.926467,0.97522 1.30821,-0.72917 z"
         id="path4849"
         inkscape:connector-curvature="0" />
      <path
         style="fill:#c6c0be"
         d="M 80.379103,926.17633 C 71.294455,921.86018 63.451304,914.19013 54.992064,901.3496 40.145939,878.81422 31.831296,854.19668 32.728417,835.43261 c 0.792007,-16.56553 6.58009,-24.27089 18.201478,-24.23062 13.325683,0.0462 18.440127,6.87986 20.738783,27.71022 l 1.453645,13.17289 3.565811,-6.55387 c 2.729355,-5.01649 3.375188,-7.48517 2.753182,-10.52397 -2.717387,-13.27573 -2.032249,-15.84509 4.225199,-15.84509 2.154604,0 4.682333,-1.40789 7.034444,-3.91803 8.368138,-8.93037 18.865831,-13.0874 26.069131,-10.32323 3.53002,1.35459 2.09205,2.99126 -2.62811,2.99126 -9.8964,0 -19.736641,7.60106 -26.101936,20.16237 -3.362851,6.63627 -4.315395,15.31496 -1.941474,17.68888 1.03167,1.03167 1.398753,0.21444 1.398753,-3.114 0,-3.3686 1.253193,-6.09816 4.94282,-10.76589 2.718551,-3.43923 5.531051,-6.61669 6.25,-7.06102 0.718949,-0.44434 1.30718,-2.98678 1.30718,-5.64988 0,-5.99805 2.786417,-7.2756 9.199017,-4.21764 3.93712,1.87748 5.26071,1.9362 11.25087,0.49919 10.72656,-2.57326 12.43128,-1.6166 14.25554,8.00002 2.25666,11.89608 1.93039,16.41063 -1.78422,24.6879 l -3.3288,7.41755 3.0163,8.98876 c 2.48771,7.41355 3.0043,11.39834 2.94786,22.73876 -0.0376,7.5625 -0.53672,17.25558 -1.10908,21.54017 -0.75169,5.62702 -0.61724,8.30037 0.4842,9.62752 1.95952,2.36107 0.61848,6.57491 -2.64895,8.32358 -1.40137,0.74999 -4.8789,1.26588 -7.72784,1.1464 -7.66201,-0.3213 -13.89625,-0.17466 -26.429897,0.62167 -10.207675,0.64855 -11.851604,0.42895 -17.74322,-2.37018 z m -4.180431,-58.13907 c 0.822767,-3.02495 2.857801,-8.57932 4.522296,-12.34304 3.283789,-7.42523 3.623454,-9.03205 1.90928,-9.03205 -1.506689,0 -7.287968,14.66666 -9.531574,24.18088 -1.964145,8.32913 -2.355267,18.33821 -0.911235,23.31912 0.612963,2.11429 1.166226,-0.71568 1.710635,-8.75 0.442562,-6.53125 1.477829,-14.34996 2.300598,-17.37491 z m 48.823718,-17.0303 c 0.86965,-1.04786 1.26217,-2.22422 0.87226,-2.61413 -1.26172,-1.26172 -5.89733,0.88308 -5.89733,2.72857 0,2.36022 3.02853,2.29125 5.02507,-0.11443 z"
         id="path4847"
         inkscape:connector-curvature="0" />
      <path
         style="fill:#c3bcb8"
         d="M 83.450574,927.31501 C 70.11451,922.28783 59.082859,910.16513 47.690319,888.01798 36.656095,866.5674 33.319434,855.30914 33.210704,839.16217 c -0.07108,-10.55532 0.381495,-14.07164 2.311575,-17.96008 3.567252,-7.18677 8.491797,-9.78129 17.468699,-9.20348 6.563763,0.42248 7.813206,0.95938 11.438455,4.91521 4.315065,4.70855 5.906645,10.194 7.72465,26.62335 l 0.96824,8.75 3.544442,-6.25 c 3.617267,-6.37841 3.641829,-6.72449 1.338674,-18.86093 -0.838849,-4.4203 1.833815,-8.01407 5.960008,-8.01407 1.396753,0 5.271946,-2.45666 8.611539,-5.45924 7.683014,-6.90769 13.744514,-9.79282 19.542684,-9.30184 6.10156,0.51667 7.11491,3.51108 1.18819,3.51108 -6.25653,0 -10.02523,1.72464 -16.193852,7.41068 -6.317873,5.82361 -12.047961,16.42196 -13.014143,24.0709 -0.3747,2.96638 -1.360788,6.23717 -2.191306,7.26842 -2.098092,2.60519 -6.490166,14.17345 -8.760834,23.07512 -2.335597,9.15621 -2.308938,22.31768 0.05707,28.17488 1.710367,4.23412 1.744826,4.09324 1.070126,-4.375 -0.383432,-4.8125 -0.07313,-12.62564 0.689577,-17.36253 1.89,-11.73822 8.410144,-28.39906 11.422078,-29.1867 1.725597,-0.45125 2.148641,-1.36065 1.617473,-3.477 -0.877549,-3.49643 0.805693,-6.93057 7.142962,-14.57303 3.283807,-3.96012 4.850315,-7.07469 4.850315,-9.64352 0,-4.90162 3.235234,-6.81133 7.520544,-4.43924 3.8889,2.15265 8.34867,2.23359 15.63867,0.28381 7.61428,-2.03651 9.43366,-0.67867 11.36611,8.48277 2.34868,11.1347 2.04758,15.99228 -1.48408,23.9423 -3.42919,7.71935 -3.41711,8.18588 0.57573,22.22314 3.01652,10.60489 3.27779,23.14962 0.73589,35.33376 -1.69047,8.10298 -1.69131,9.4778 -0.008,12.73331 3.74714,7.24618 -0.91174,10.11788 -16.22005,9.99788 -5.5,-0.0431 -14.5,0.21464 -19.999997,0.57279 -6.965497,0.45357 -11.417643,0.11675 -14.671748,-1.1099 z m 42.875456,-77.0499 c 1.07543,-2.00946 0.80742,-2.35294 -1.83596,-2.35294 -3.47488,0 -5.05484,1.73222 -4.02583,4.41378 0.8635,2.25026 4.17825,1.08488 5.86179,-2.06084 z"
         id="path4845"
         inkscape:connector-curvature="0" />
      <path
         style="fill:#b4aeab"
         d="M 86.247323,928.05556 C 70.00853,922.77434 57.201199,908.47518 44.317481,881.24158 36.574869,864.87525 33.270418,852.18388 33.189263,838.50156 c -0.0793,-13.36913 2.472992,-20.50136 8.71756,-24.36071 7.017114,-4.33682 17.831377,-2.78982 23.284244,3.33085 3.007657,3.37599 6.053667,14.8386 6.073325,22.85485 0.0094,3.82834 0.366937,8.26714 0.794557,9.86401 0.691118,2.58085 1.259165,2.04867 5.113396,-4.79056 l 4.335907,-7.69395 -2.128235,-5.5727 c -2.862338,-7.49492 -1.771122,-11.72118 3.026401,-11.72118 2.603664,0 5.270527,-1.61242 9.556737,-5.77814 8.778455,-8.53169 19.103335,-12.52735 24.135405,-9.34025 1.20665,0.76424 0.0779,1.36733 -3.75,2.00366 -3.01193,0.50069 -6.92241,1.64996 -8.68996,2.55392 -8.610611,4.40366 -19.911277,21.5358 -19.911277,30.18608 0,2.32428 -1.100616,5.75006 -2.445815,7.61285 -8.284904,11.47266 -12.742709,41.91366 -7.634968,52.13688 l 2.498108,5 -0.832709,-5 c -1.441605,-8.65612 -0.734821,-23.60506 1.480851,-31.32098 3.607238,-12.56194 8.227092,-21.80402 10.899217,-21.80402 1.959153,0 2.147453,-0.42195 1.079117,-2.41816 -1.735292,-3.24242 -0.230782,-6.82706 6.058061,-14.43393 3.732628,-4.51491 5.148138,-7.36118 5.148138,-10.35173 0,-5.14469 2.305907,-6.17292 8.936167,-3.98474 4.039,1.33299 6.42289,1.3564 12.40028,0.1218 10.64462,-2.19861 11.63463,-1.35077 13.66528,11.70287 1.62817,10.46635 1.59163,10.9612 -1.27439,17.25711 -3.44117,7.55937 -3.62875,13.80722 -0.70125,23.35678 3.35875,10.95628 3.85376,23.1816 1.43266,35.38268 -1.56937,7.90887 -1.77714,11.37102 -0.79275,13.21036 4.25677,7.95383 -0.47733,11.50943 -15.04216,11.29761 -5.77436,-0.084 -14.71759,0.16721 -19.873837,0.55819 -5.15625,0.39097 -10.78125,0.25351 -12.5,-0.30545 z m 38.749997,-76.39339 c 2.26275,-2.26274 3.33377,-5 1.95638,-5 -2.92884,0 -6.95638,2.87694 -6.95638,4.96906 0,3.21198 1.80778,3.22316 5,0.0309 z"
         id="path4843"
         inkscape:connector-curvature="0" />
      <path
         style="fill:#a49993"
         d="m 87.1442,927.79769 c -14.652713,-3.4503 -27.636127,-17.0243 -40.221777,-42.05137 -10.877294,-21.62993 -15.735359,-41.91218 -13.321407,-55.6164 1.556565,-8.83676 3.774731,-12.66798 9.276725,-16.02275 7.632883,-4.65407 19.132692,-1.8185 23.608869,5.82137 2.45479,4.18979 4.737687,16.9347 4.75127,26.5253 0.01175,8.28551 1.43854,8.01013 6.579194,-1.26986 3.673495,-6.63144 3.809894,-7.33394 2.307744,-11.8855 -0.878081,-2.66061 -1.406608,-6.50784 -1.174503,-8.54939 0.349718,-3.07606 1.06274,-3.78468 4.162385,-4.13667 2.290247,-0.26008 5.969873,-2.51019 9.490995,-5.80379 6.048682,-5.65783 10.797035,-8.51349 16.379525,-9.85062 5.82989,-1.3964 4.88695,1.15279 -1.0098,2.72993 -10.493268,2.80652 -24.226097,20.7255 -24.226097,31.6109 0,2.22281 -0.770219,4.92952 -1.711599,6.0149 -2.79734,3.22526 -8.173267,18.02429 -10.322136,28.41512 -2.309522,11.16767 -1.73743,19.0741 1.989856,27.50024 3.10108,7.01051 4.350286,6.55027 2.6178,-0.96446 -3.044804,-13.20695 -0.859184,-30.18031 5.815789,-45.16497 2.592302,-5.81947 3.764005,-7.1875 6.155995,-7.1875 3.358616,0 3.519626,-0.37868 1.521434,-3.5783 -2.156638,-3.45332 -0.519384,-7.59074 5.893622,-14.89347 4.359116,-4.96389 5.619816,-7.28702 5.093156,-9.38538 -0.38494,-1.53374 -0.18611,-3.61995 0.44186,-4.63601 0.98923,-1.60061 1.69194,-1.61565 5.26048,-0.11259 4.58036,1.92924 6.95429,2.02393 17.88544,0.71336 l 7.5167,-0.90119 2.08714,9.92777 c 2.31135,10.99425 1.66972,16.7112 -2.87547,25.6205 l -2.56744,5.0326 2.59289,7.04385 c 2.59576,7.05163 5.16791,24.86332 4.38529,30.36722 -0.22889,1.60965 -1.07773,6.77429 -1.88631,11.47698 -1.16357,6.76726 -1.13659,9.56107 0.12937,13.39697 1.28047,3.87987 1.2879,5.22211 0.0372,6.72907 -2.33398,2.81228 -9.45071,3.69442 -15.6967,1.94564 -4.70116,-1.31624 -6.29938,-1.2444 -10.60039,0.47653 -5.47274,2.18976 -12.859402,2.42983 -20.367122,0.66197 z m 38.0672,-75.70426 c 3.59004,-3.24894 2.96796,-5.87072 -1.15158,-4.85332 -4.42265,1.09227 -5.83018,2.52003 -4.89271,4.96304 0.97042,2.52887 3.17286,2.48889 6.04429,-0.10971 z"
         id="path4841"
         inkscape:connector-curvature="0" />
      <path
         style="fill:#958d89"
         d="m 89.897882,927.95213 c -12.744663,-2.27481 -22.57874,-9.91042 -33.0689,-25.67616 -14.509666,-21.80668 -23.101147,-45.72843 -23.054207,-64.19113 0.04237,-16.66447 4.525934,-24.24314 15.384815,-26.00529 6.396284,-1.03797 14.751201,3.27512 17.496642,9.03237 2.340689,4.90848 4.527891,17.89507 4.56633,27.11275 0.01363,3.26562 0.457422,5.9375 0.986231,5.9375 0.528807,0 2.856621,-3.44728 5.172919,-7.66063 3.365988,-6.12273 4.438011,-7.25578 5.340006,-5.644 0.791252,1.41389 0.337185,3.087 -1.519234,5.59794 -4.035396,5.45817 -10.07902,24.7643 -10.844952,34.64381 -0.778472,10.04122 1.724786,20.8693 5.947532,25.72661 2.299189,2.6447 2.505383,2.69401 1.928801,0.46127 -3.787047,-14.66488 -3.534772,-27.62232 0.815285,-41.875 3.84993,-12.61404 6.837763,-17.78286 9.745837,-16.85987 4.200491,1.33318 5.388776,-0.63943 2.340066,-3.88464 -3.438593,-3.66021 -2.443285,-6.5389 5.084441,-14.70552 3.966056,-4.30265 5.027826,-6.42322 5.027826,-10.04149 0,-5.57397 2.44169,-6.90324 7.0881,-3.8588 2.9752,1.94943 4.18449,2.01121 11.6808,0.59675 4.59911,-0.86779 9.12676,-1.32288 10.06146,-1.01131 1.80185,0.60062 4.7119,13.40026 4.84257,21.29969 0.0441,2.66646 -1.36384,7.59776 -3.29133,11.52784 l -3.3684,6.86803 3.03286,8.47216 c 2.53753,7.08846 3.03565,10.81993 3.04996,22.84716 0.009,7.90625 -0.48097,17.87858 -1.08973,22.16073 -0.81083,5.70354 -0.69804,8.27829 0.42171,9.62752 4.58352,5.52279 -5.45963,10.90086 -15.01204,8.03889 -3.85206,-1.1541 -6.03779,-1.17784 -9.05899,-0.0984 -5.94839,2.12539 -13.2878,2.70683 -19.706408,1.56116 z m 37.131438,-76.97914 c 1.20979,-1.84636 1.61666,-3.62004 0.96632,-4.21245 -1.53176,-1.39532 -9.24832,2.00215 -9.24832,4.07188 0,4.40787 5.42562,4.49995 8.282,0.14057 z M 80.078304,831.90754 c -2.40255,-7.27979 -1.455279,-10.78911 3.044019,-11.27706 2.0625,-0.22367 5.4375,-1.96529 7.5,-3.87026 6.570752,-6.0689 12.389767,-9.88155 16.249997,-10.64707 3.20979,-0.63654 3.02244,-0.40387 -1.30056,1.61517 -6.727257,3.14194 -15.918767,13.57544 -19.436686,22.06305 -1.566282,3.77894 -3.216745,6.8708 -3.667694,6.8708 -0.45095,0 -1.526033,-2.13958 -2.389076,-4.75463 z"
         id="path4839"
         inkscape:connector-curvature="0" />
      <path
         style="fill:#928379"
         d="M 83.539457,926.21059 C 76.565459,923.65118 67.118872,916.17211 61.622118,908.85815 41.186187,881.66621 29.540872,844.98311 35.048784,825.15133 c 1.590034,-5.72507 7.327349,-11.65242 12.227425,-12.63244 4.812518,-0.9625 12.616539,1.20886 16.181195,4.5022 3.835062,3.54316 6.209891,12.2 7.255865,26.44941 0.479638,6.53417 1.30483,11.61285 1.83376,11.28595 0.528931,-0.3269 2.739773,-3.74495 4.912983,-7.59566 4.901974,-8.68582 6.39898,-8.00719 2.170806,0.98408 -11.06085,23.52105 -12.448949,48.78155 -3.284293,59.7673 l 2.606973,3.125 -0.824451,-4.375 c -3.9452,-20.93544 -2.766058,-33.33752 4.961783,-52.1875 1.958639,-4.77757 2.604805,-5.3125 6.417218,-5.3125 4.766719,0 5.640155,-2.27377 1.795706,-4.67467 -2.080721,-1.29943 -2.251353,-2.07742 -1.149114,-5.23931 0.71195,-2.0423 3.499057,-6.21783 6.193569,-9.27896 3.726671,-4.23372 4.899111,-6.62393 4.899111,-9.9876 0,-5.64485 1.28283,-6.35944 6.74256,-3.75588 3.94258,1.88009 5.35488,1.92753 13.21743,0.44397 4.84176,-0.91357 9.22135,-1.24288 9.73243,-0.7318 1.05938,1.05938 3.81026,15.78577 3.95884,21.19294 0.0543,1.97653 -1.39922,6.93159 -3.23005,11.01124 l -3.3288,7.41755 3.0163,8.98876 c 2.48771,7.41355 3.0043,11.39834 2.94786,22.73876 -0.0376,7.5625 -0.52918,17.17242 -1.09233,21.35537 -0.71591,5.31773 -0.57136,8.45094 0.48056,10.41649 1.25188,2.33915 1.12991,3.22499 -0.72652,5.27631 -1.92488,2.12698 -3.78226,2.44917 -13.53713,2.34819 -6.21838,-0.0644 -15.80615,0.18131 -21.306147,0.54595 -6.78586,0.4499 -11.472998,0.12238 -14.582866,-1.01889 z m 41.914293,-73.38915 c 3.2436,-2.55141 4.54276,-7.40927 1.9815,-7.40927 -2.99837,0 -8.68793,3.9776 -8.68793,6.07377 0,4.54615 2.09451,4.96324 6.70643,1.3355 z M 79.814782,830.29582 c -1.869488,-6.23979 -0.490188,-9.08559 4.683618,-9.66331 2.063853,-0.23045 5.709084,-2.38291 8.467593,-5 l 4.843669,-4.59534 -4.387627,5.84519 c -2.413195,3.21486 -5.67749,8.69923 -7.253991,12.1875 -1.5765,3.48827 -3.306015,6.34231 -3.843365,6.34231 -0.537351,0 -1.666805,-2.30236 -2.509897,-5.11635 z"
         id="path4837"
         inkscape:connector-curvature="0" />
      <path
         style="fill:#877264"
         d="M 86.247323,926.78859 C 71.682108,922.13071 59.174285,908.63024 46.999999,884.42654 39.914464,870.33979 34.963594,854.18822 34.158214,842.53189 c -0.884077,-12.7953 0.929914,-19.96053 6.451105,-25.48172 3.548569,-3.54857 5.001572,-4.13734 10.200504,-4.13333 8.839421,0.007 13.3447,3.22283 16.562335,11.82273 1.443841,3.85901 2.629164,8.82341 2.634051,11.03199 0.01816,8.20615 1.628759,20.79857 2.584625,20.20782 0.543784,-0.33608 2.550213,-3.69494 4.45873,-7.46413 1.908518,-3.7692 3.91502,-6.85308 4.458895,-6.85308 1.507965,0 1.185035,1.46138 -0.81009,3.66597 -0.989424,1.0933 -3.597257,7.32509 -5.795185,13.84842 -5.413685,16.06753 -6.33471,31.26244 -2.508091,41.37808 1.460043,3.85961 3.767834,8.02492 5.128426,9.25624 2.979188,2.69613 2.969305,2.85995 0.468018,-7.75864 -3.278562,-13.91832 -1.320719,-30.51516 5.384213,-45.64257 2.967754,-6.69573 3.376413,-7.08403 6.746098,-6.4101 4.973711,0.99475 6.453506,-2.76134 2.317122,-5.88142 -2.603288,-1.96366 -2.775777,-2.60338 -1.472943,-5.46279 0.811601,-1.78126 3.718815,-5.67223 6.460475,-8.64658 4.449978,-4.82765 4.904838,-5.90087 4.239278,-10.00226 -0.66662,-4.10787 -0.45887,-4.59435 1.96197,-4.59435 1.48914,0 4.10407,0.91505 5.81095,2.03344 2.87066,1.88093 3.66667,1.87539 10.61373,-0.0738 9.96754,-2.79676 12.44489,-1.94489 12.44489,4.27928 0,2.65122 0.64055,7.59541 1.42344,10.98708 1.30682,5.66144 1.1532,6.75696 -1.875,13.37142 -3.97412,8.68061 -4.01582,9.85197 -0.7011,19.69156 3.73382,11.0837 4.48217,26.80047 1.84017,38.64732 -1.96015,8.78941 -1.97135,9.87245 -0.13874,13.41634 1.88309,3.64147 1.85193,3.99671 -0.56228,6.41092 -2.20384,2.20384 -4.05744,2.54104 -13.45866,2.44836 -5.99656,-0.0591 -15.12158,0.17858 -20.277827,0.52822 -5.15625,0.34963 -10.78125,0.18598 -12.5,-0.36367 z m 39.764297,-73.92511 c 2.6731,-2.49038 3.78644,-7.45131 1.67223,-7.45131 -0.58491,0 -2.83491,0.61753 -5,1.37228 -2.83219,0.98731 -3.93653,2.15621 -3.93653,4.16667 0,5.12532 2.97496,5.90849 7.2643,1.91236 z M 80.212716,831.01072 c -2.957814,-6.49169 -1.860183,-8.98918 4.453901,-10.13414 1.857928,-0.33691 4.11295,-1.22247 5.011157,-1.96791 0.898208,-0.74545 -0.06753,2.24062 -2.14607,6.6357 -2.078546,4.39509 -4.24592,8.14665 -4.816386,8.3368 -0.570466,0.19016 -1.696637,-1.10155 -2.502602,-2.87045 z"
         id="path4835"
         inkscape:connector-curvature="0" />
      <path
         style="fill:#826c5d"
         d="m 84.850177,926.25009 c -7.137998,-2.65122 -12.787483,-6.58196 -18.9892,-13.2121 -11.883631,-12.70456 -24.02332,-36.05334 -29.051983,-55.87692 -5.002957,-19.72224 -3.785036,-32.52554 3.817174,-40.12775 3.47976,-3.47976 5.025715,-4.12115 9.93323,-4.12115 8.235177,0 12.919629,2.82568 15.91667,9.60098 2.333321,5.27486 5.228721,26.06472 3.930572,28.22271 -0.313877,0.52177 -0.205823,2.09826 0.24012,3.50331 1.090204,3.43492 2.966785,1.73668 6.873633,-6.22041 1.706061,-3.47475 3.523805,-6.32646 4.03943,-6.33715 1.448214,-0.03 1.114724,1.45897 -0.813489,3.63213 -0.963042,1.08539 -3.599509,7.03593 -5.858812,13.22343 -3.722595,10.19498 -4.115205,12.59808 -4.186513,25.625 -0.07318,13.36767 0.163673,14.83487 3.379871,20.9375 4.130505,7.8375 6.687488,8.76886 5.147659,1.875 -0.575855,-2.57813 -1.060331,-8.625 -1.076612,-13.4375 -0.02716,-8.03 0.19299,-8.78171 2.675533,-9.13537 1.799033,-0.25629 2.964713,0.43248 3.480089,2.05628 0.860005,2.70964 12.382364,13.95409 14.298965,13.95409 0.759414,0 0.804316,-1.29124 0.119538,-3.4375 -4.808055,-15.0696 -5.213494,-17.27308 -4.737809,-25.74896 0.370094,-6.59444 1.431471,-10.80419 4.047245,-16.05262 3.289132,-6.5995 3.440642,-7.53091 2.094572,-12.87662 -2.326513,-9.23943 -0.26447,-10.28856 8.61726,-4.3843 9.19876,6.115 16.25,4.52345 16.25,-3.66782 0,-1.4202 0.70313,-2.60687 1.5625,-2.63705 0.85938,-0.0302 -0.63635,-0.8384 -3.32383,-1.79606 -11.27435,-4.01749 -12.11897,-9.83968 -1.86442,-12.8519 8.21046,-2.41178 11.12575,-1.28093 11.12575,4.31572 0,2.51089 -0.89041,5.54916 -1.9787,6.7517 -1.81538,2.00597 -1.77566,2.29512 0.48121,3.50296 3.94428,2.11091 4.41633,6.99236 1.31709,13.61997 -2.30974,4.93929 -2.83289,5.43452 -3.24831,3.07498 -0.56666,-3.21859 -1.00178,-3.31674 -6.38476,-1.44022 -2.96104,1.03222 -3.93653,2.12609 -3.93653,4.41423 0,3.94257 2.74811,4.92759 6.63754,2.37913 3.07804,-2.01681 3.09193,-2.00672 3.74161,2.71752 0.35866,2.60801 1.5797,7.83559 2.71344,11.61684 3.23529,10.7904 3.77581,24.15005 1.43492,35.46618 -1.6671,8.05899 -1.76461,10.74626 -0.53841,14.83892 2.14498,7.15932 -0.15487,8.53432 -13.94625,8.338 -5.86732,-0.0835 -14.8866,0.19155 -20.042847,0.6113 -6.471596,0.5268 -10.775493,0.24297 -13.897146,-0.91648 z m -4.8119,-95.73905 c -2.323528,-5.60949 -1.266672,-7.77444 4.646546,-9.51836 2.921875,-0.86172 5.3125,-1.35731 5.3125,-1.10133 0,1.33905 -6.894809,14.27082 -7.608748,14.27082 -0.460873,0 -1.518507,-1.64301 -2.350298,-3.65113 z m 22.506953,-8.75936 c -0.71385,-1.33384 -1.29791,-3.30589 -1.29791,-4.38233 0,-2.79127 5.38182,-2.48836 8.04345,0.45271 2.09766,2.31788 2.0353,2.48519 -1.63336,4.38233 -3.58799,1.85542 -3.89128,1.82856 -5.11218,-0.45271 z"
         id="path4833"
         inkscape:connector-curvature="0" />
      <path
         style="fill:#766c68"
         d="m 84.850177,926.25009 c -7.137998,-2.65122 -12.787483,-6.58196 -18.9892,-13.2121 -11.883631,-12.70456 -24.02332,-36.05334 -29.051983,-55.87692 -5.002957,-19.72224 -3.785036,-32.52554 3.817174,-40.12775 3.47976,-3.47976 5.025715,-4.12115 9.93323,-4.12115 8.235177,0 12.919629,2.82568 15.91667,9.60098 2.333321,5.27486 5.228721,26.06472 3.930572,28.22271 -0.313877,0.52177 -0.205823,2.09826 0.24012,3.50331 1.090204,3.43492 2.966785,1.73668 6.873633,-6.22041 1.706061,-3.47475 3.523805,-6.32646 4.03943,-6.33715 1.448214,-0.03 1.114724,1.45897 -0.813489,3.63213 -0.963042,1.08539 -3.599509,7.03593 -5.858812,13.22343 -3.722595,10.19498 -4.115205,12.59808 -4.186513,25.625 -0.07318,13.36767 0.163673,14.83487 3.379871,20.9375 3.751414,7.11819 6.699845,8.80739 5.454568,3.125 -2.009456,-9.16944 -2.229256,-18.48307 -0.490449,-20.78193 1.670495,-2.20853 2.241658,-1.86438 9.85407,5.9375 11.476851,11.76251 13.612301,10.83103 8.505019,-3.70988 -1.546319,-4.40252 -2.666254,-10.92172 -2.774104,-16.14821 -0.156452,-7.58183 0.380784,-9.92956 3.979835,-17.39197 3.859501,-8.00243 4.053361,-8.98523 2.677861,-13.57624 -2.143746,-7.15518 -0.21722,-8.41824 6.28099,-4.11793 6.04582,4.00094 12.86554,5.45709 15.46273,3.30162 0.99287,-0.82401 2.17769,-3.194 2.63291,-5.26664 0.73225,-3.33389 1.20852,-3.67285 4.13033,-2.93952 5.85618,1.46981 6.33336,3.78076 2.45321,11.8807 -2.28971,4.77984 -2.76818,5.20242 -3.18449,2.8125 -0.56064,-3.21852 -0.99619,-3.31685 -6.37951,-1.44022 -2.96104,1.03222 -3.93653,2.12609 -3.93653,4.41423 0,3.94257 2.74811,4.92759 6.63754,2.37913 3.07804,-2.01681 3.09193,-2.00672 3.74161,2.71752 0.35866,2.60801 1.5797,7.83559 2.71344,11.61684 3.23529,10.7904 3.77581,24.15005 1.43492,35.46618 -1.6671,8.05899 -1.76461,10.74626 -0.53841,14.83892 2.14498,7.15932 -0.15487,8.53432 -13.94625,8.338 -5.86732,-0.0835 -14.8866,0.19155 -20.042847,0.6113 -6.471596,0.5268 -10.775493,0.24297 -13.897146,-0.91648 z m -4.8119,-95.73905 c -2.323528,-5.60949 -1.266672,-7.77444 4.646546,-9.51836 2.921875,-0.86172 5.3125,-1.35731 5.3125,-1.10133 0,1.33905 -6.894809,14.27082 -7.608748,14.27082 -0.460873,0 -1.518507,-1.64301 -2.350298,-3.65113 z m 38.938793,-3.88549 c -6.01727,-3.66862 -5.12119,-7.47181 2.27025,-9.63546 3.09375,-0.90561 6.95968,-1.32182 8.59094,-0.92492 2.6148,0.63621 2.88094,1.24544 2.24799,5.14586 -1.34804,8.30697 -5.53111,10.03472 -13.10918,5.41452 z m -16.97101,-5.69061 c -1.44722,-3.7714 -0.77611,-5.52277 2.11626,-5.52277 2.71469,0 5.875,2.04377 5.875,3.79936 0,0.68403 -5.54313,3.70064 -6.80008,3.70064 -0.23784,0 -0.77388,-0.88976 -1.19118,-1.97723 z"
         id="path4831"
         inkscape:connector-curvature="0" />
      <path
         style="fill:#776458"
         d="M 85.987738,926.15947 C 71.204723,922.18031 59.262908,908.6853 46.125888,881.11304 38.051325,864.16598 34.58435,851.24283 34.536121,837.91217 c -0.04582,-12.66478 2.195928,-18.8083 8.198482,-22.46796 7.390189,-4.50567 18.49043,-2.14709 22.584911,4.79885 2.652099,4.49905 4.677809,16.27789 4.677809,27.19991 0,9.85405 1.234506,12.07355 4.289472,7.71198 2.514273,-3.58963 2.466858,-2.86431 -0.351306,5.37403 -5.847481,17.09395 -6.207587,28.72384 -1.295882,41.85154 2.192008,5.85867 6.610944,11.69509 7.887896,10.41814 0.283169,-0.28318 -0.28278,-3.58981 -1.257664,-7.34808 -2.22061,-8.56068 -2.26139,-15.14201 -0.112037,-18.08142 1.53498,-2.09921 2.27122,-1.6449 9.74127,6.01108 11.476848,11.76251 13.612298,10.83103 8.505018,-3.70988 -1.546318,-4.40252 -2.666253,-10.92172 -2.774103,-16.14821 -0.156453,-7.58183 0.380783,-9.92956 3.979835,-17.39197 3.859508,-8.00243 4.053358,-8.98523 2.677858,-13.57624 -2.143743,-7.15518 -0.21722,-8.41824 6.28099,-4.11793 6.04582,4.00094 12.86555,5.45709 15.46273,3.30162 0.99287,-0.82401 2.17853,-3.19783 2.63478,-5.27514 0.68343,-3.1116 1.30312,-3.64989 3.51785,-3.0557 1.47856,0.39668 3.11017,0.72892 3.6258,0.73831 1.60301,0.0292 0.94143,7.98021 -0.9375,11.26707 -1.36341,2.38502 -1.7969,2.60702 -1.83071,0.9375 -0.0547,-2.70265 -1.90247,-2.68693 -7.52795,0.0641 -4.58754,2.24342 -5.79198,4.66058 -3.83838,7.70312 0.90525,1.40983 1.97058,1.54984 4.64259,0.61015 3.41544,-1.20115 3.51028,-1.09783 6.28737,6.84972 4.37909,12.53218 5.56881,27.24053 3.28458,40.6067 -1.59007,9.30423 -1.63833,11.95386 -0.29206,16.03308 1.36352,4.13153 1.3355,5.06695 -0.18133,6.05229 -3.57591,2.32294 -7.93081,2.73486 -13.58715,1.28518 -4.7636,-1.22088 -6.71955,-1.14415 -11.20845,0.43962 -6.46107,2.2796 -13.577688,2.33416 -21.6331,0.16588 z m -4.498599,-93.50548 c -0.820499,-0.8205 -1.491816,-3.56778 -1.491816,-6.10506 0,-4.34166 0.25756,-4.64331 4.375,-5.124 2.40625,-0.28092 4.369857,-0.20183 4.363571,0.17574 -0.0063,0.37757 -1.303719,3.35469 -2.883184,6.61582 -2.224835,4.59362 -3.207816,5.59325 -4.363571,4.4375 z m 37.570681,-5.9477 c -5.27722,-3.2571 -5.32953,-6.85787 -0.12597,-8.67184 2.16509,-0.75475 5.75577,-1.37228 7.97928,-1.37228 3.30755,0 4.15018,0.562 4.63351,3.09036 1.49646,7.8282 -5.10954,11.50701 -12.48682,6.95376 z m -17.00077,-6.58506 c -1.02572,-3.92236 0.94515,-5.44894 4.77937,-3.70195 4.00329,1.82402 3.99644,3.20999 -0.0249,5.04225 -4.09221,1.86453 -3.90237,1.91805 -4.75445,-1.3403 z"
         id="path4829"
         inkscape:connector-curvature="0" />
      <path
         style="fill:#68574f"
         d="M 88.747323,926.74747 C 73.010702,923.59221 59.469976,909.12826 46.238761,881.34061 28.296692,843.65942 31.551352,810.44419 52.905038,813.30832 c 5.884867,0.78933 10.808332,4.10935 13.135907,8.85788 2.145003,4.37606 3.899233,16.56185 3.931244,27.30847 0.02542,8.53373 0.657919,9.70609 3.709108,6.875 1.383627,-1.28382 1.523721,-1.11661 0.785477,0.9375 -0.494174,1.375 -2.044719,7.28125 -3.445659,13.125 -3.011691,12.5627 -2.517676,22.93892 1.541358,32.3744 4.446036,10.33509 10.542709,13.9175 7.38086,4.33701 -1.861646,-5.64084 -2.051755,-17.60567 -0.307451,-19.34997 0.827601,-0.8276 3.995257,1.50386 9.43783,6.94643 8.167547,8.16755 12.187918,10.1532 12.157658,6.00463 -0.009,-1.20313 -1.415031,-6.5683 -3.125005,-11.92262 -4.261303,-13.34311 -4.079821,-20.72097 0.759837,-30.88988 3.175668,-6.67259 3.747468,-9.16249 3.198728,-13.92889 -0.36749,-3.19213 -0.3788,-6.09325 -0.0251,-6.44693 0.35367,-0.35367 3.80333,1.01936 7.66591,3.0512 9.0861,4.77956 12.71884,4.37762 15.70705,-1.73788 2.15198,-4.40413 4.58455,-6.22807 4.58455,-3.4375 0,0.6875 0.84375,1.25 1.875,1.25 2.21246,0 2.46909,4.05428 0.49064,7.75105 -1.01212,1.89117 -1.6444,2.16594 -2.35147,1.02187 -0.75805,-1.22654 -1.92341,-1.24923 -5.39065,-0.10494 -5.57545,1.84006 -7.57093,4.20314 -6.47231,7.66457 0.71115,2.24065 1.54781,2.59055 4.8954,2.04731 4.00359,-0.64969 4.06163,-0.58499 6.87975,7.66996 3.66812,10.7448 4.72421,28.25073 2.54816,42.23899 -1.34578,8.6511 -1.34398,11.02731 0.0103,13.55776 1.29626,2.42208 1.32095,3.45511 0.11726,4.90546 -2.3266,2.80339 -8.51445,3.66739 -14.42119,2.0136 -4.40658,-1.23376 -6.31772,-1.14855 -11.16732,0.49793 -6.11811,2.07716 -10.923808,2.29337 -18.263536,0.82174 z m -7.991264,-95.81253 c -0.417305,-1.08748 -0.758736,-3.61873 -0.758736,-5.625 0,-3.33296 0.376174,-3.64777 4.358754,-3.64777 l 4.358754,0 -2.732837,5.625 c -2.923785,6.01803 -4.022172,6.78472 -5.225935,3.64777 z m 37.147111,-6.25329 c -2.812,-2.812 -2.99729,-3.46375 -1.43022,-5.03082 0.99016,-0.99017 4.71947,-2.14603 8.28734,-2.56859 l 6.48703,-0.7683 0,4.29912 c 0,2.36451 -0.675,4.97411 -1.5,5.79911 -2.57877,2.57878 -8.38288,1.73075 -11.84415,-1.73052 z m -15.40585,-6.14448 c 0,-3.55705 2.59558,-4.14715 5.07907,-1.15473 1.35516,1.63287 1.32786,2.16473 -0.15944,3.10586 -3.13135,1.98143 -4.91963,1.2722 -4.91963,-1.95113 z"
         id="path4827"
         inkscape:connector-curvature="0" />
      <path
         style="fill:#594b46"
         d="m 80.382368,923.52244 c -12.943638,-6.50495 -28.503151,-27.513 -37.83964,-51.0901 -5.260115,-13.28318 -7.506166,-23.40695 -7.519958,-33.89517 -0.01497,-11.39082 1.58508,-16.80548 6.300466,-21.32106 6.949613,-6.65513 19.776371,-4.29991 24.308046,4.46338 2.229122,4.31065 4.271338,18.31266 4.327446,29.67018 0.02836,5.74175 0.49001,7.8125 1.741691,7.8125 1.377606,0 1.244626,1.85144 -0.695806,9.6875 -3.238748,13.07905 -2.504228,26.05305 2.01593,35.60788 3.331981,7.04323 6.403036,10.69503 7.810535,9.28753 0.425337,-0.42534 0.130494,-3.97431 -0.655208,-7.8866 -1.711486,-8.52212 -1.797028,-14.17844 -0.251367,-16.62129 0.901964,-1.42551 2.300011,-0.51534 6.720164,4.375 3.069695,3.39624 7.2659,7.15339 9.324898,8.34923 3.269245,1.89873 3.936142,1.9423 5.262795,0.34378 1.21441,-1.46327 0.86677,-3.71967 -1.732938,-11.24782 -4.657239,-13.4863 -4.481474,-23.66748 0.593788,-34.39521 3.19736,-6.75834 3.70651,-9.04155 3.02695,-13.57402 -0.44933,-2.99696 -0.35141,-5.23396 0.2176,-4.9711 0.56901,0.26285 3.56581,1.6924 6.65956,3.17678 3.09375,1.48438 6.70344,3.03669 8.02152,3.44958 1.82657,0.57218 2.04953,1.09771 0.9375,2.20974 -2.01304,2.01304 -1.82954,6.5954 0.33608,8.39271 1.36342,1.13153 2.44125,1.14398 4.48206,0.0518 1.47783,-0.79091 2.80763,-1.25182 2.95511,-1.02424 0.14749,0.22758 1.64619,4.63253 3.33045,9.78878 2.52384,7.72659 3.05025,11.79266 2.99385,23.125 -0.0376,7.5625 -0.52918,17.17241 -1.09233,21.35537 -0.72167,5.36045 -0.5732,8.4475 0.50296,10.45834 2.2388,4.18322 -0.67165,6.59261 -7.62241,6.31011 -7.58668,-0.30834 -14.93799,-0.125 -27.344787,0.68196 -9.713394,0.63178 -11.181826,0.41124 -17.114955,-2.57051 z m 44.049642,-81.4178 c 1.68592,-1.81914 3.06531,-3.70989 3.06531,-4.20166 0,-0.49177 1.40625,-0.62531 3.125,-0.29675 3.44155,0.65789 3.7908,1.72624 1.78783,5.46882 -0.94966,1.77446 -1.77687,2.13362 -2.85442,1.23933 -0.95046,-0.78881 -2.20203,-0.82611 -3.35033,-0.0999 -3.70695,2.34452 -4.75071,1.1027 -1.77339,-2.10989 z m -43.896567,-12.2186 c -1.27423,-5.07694 -0.173423,-7.56636 3.535069,-7.9944 4.02106,-0.46412 4.099143,-0.0934 1.311251,6.2255 -2.445513,5.54288 -3.777124,6.02892 -4.84632,1.7689 z m 41.961877,-2.86066 c -2.88364,-1.0603 -6.25,-4.32414 -6.25,-6.05966 0,-1.86851 6.47105,-4.30355 11.43653,-4.30355 3.08294,0 3.56347,0.47956 3.56347,3.55626 0,5.3642 -4.06768,8.5286 -8.75,6.80695 z m -19.1369,-6.16678 c -1.16175,-1.16175 -1.10294,-5.45133 0.0744,-5.42729 0.51562,0.0105 1.78125,0.55269 2.8125,1.2048 1.6595,1.04938 1.65095,1.40976 -0.0744,3.13562 -1.07217,1.07248 -2.3378,1.56157 -2.8125,1.08687 z"
         id="path4825"
         inkscape:connector-curvature="0" />
      <path
         style="fill:#53433c"
         d="M 84.212388,925.19177 C 73.276867,921.54538 60.335876,907.44688 50.287821,888.23281 34.131955,857.33927 30.440308,828.52688 41.252535,817.71465 c 2.879519,-2.87952 4.648022,-3.55248 9.335709,-3.55248 7.555749,0 12.323274,2.58896 14.946214,8.11639 2.417141,5.09375 4.9219,25.52578 3.855234,31.44823 -0.476708,2.64683 -0.08251,4.56666 1.201247,5.85042 1.714395,1.7144 1.705341,2.787 -0.08808,10.43538 -3.792341,16.17314 -0.33719,35.42469 7.715558,42.98985 4.068475,3.82214 4.954723,2.41307 2.961008,-4.70778 -1.810276,-6.46567 -2.225906,-17.25535 -0.722603,-18.75866 0.517147,-0.51714 2.734696,1.09005 4.927885,3.57155 8.623033,9.75659 17.139033,13.57029 17.096653,7.65635 -0.009,-1.2247 -1.41503,-6.60753 -3.124995,-11.96185 -4.259405,-13.33715 -4.07908,-20.71972 0.754495,-30.88988 3.01935,-6.3529 3.73421,-9.28368 3.27756,-13.4375 -0.32121,-2.92188 -0.32759,-5.3125 -0.0142,-5.3125 0.3134,0 3.85871,1.54518 7.87845,3.43374 6.75536,3.1738 7.25657,3.69401 6.621,6.8719 -0.9258,4.629 1.59741,7.50857 5.77528,6.59096 3.11112,-0.68332 3.38566,-0.28966 6.28161,9.00693 3.94856,12.67568 4.67669,26.81583 2.03521,39.52332 -1.8551,8.92444 -1.86207,10.1535 -0.0778,13.7301 1.81233,3.63291 1.79465,4.04889 -0.23515,5.53312 -1.40784,1.02943 -6.01991,1.57279 -12.86266,1.51537 -5.86732,-0.0492 -15.16785,0.1844 -20.667842,0.5192 -5.5,0.33478 -11.759471,0.022 -13.909935,-0.69504 z m 41.636182,-83.7796 c 1.11992,-1.2375 3.07404,-2.25 4.34249,-2.25 1.38751,0 2.30626,0.89634 2.30626,2.25 0,1.73489 -0.99416,2.25 -4.34248,2.25 -4.10248,0 -4.22995,-0.12436 -2.30627,-2.25 z M 80.511329,828.53996 c -1.128556,-4.49652 0.194635,-6.87779 3.821763,-6.87779 3.75181,0 3.742727,-0.0479 1.057716,5.58259 -2.486749,5.21477 -3.807726,5.5654 -4.879479,1.2952 z M 123.12232,826.662 c -1.375,-0.52512 -3.56648,-2.14054 -4.86996,-3.58984 -2.35559,-2.6191 -2.34256,-2.64653 2.14735,-4.52254 8.17826,-3.41709 11.79808,-2.09457 10.32553,3.77251 -0.93097,3.70928 -4.26734,5.61373 -7.60292,4.33987 z m -20.625,-8.05106 c 0,-0.99068 0.49877,-2.10948 1.10837,-2.48624 1.37644,-0.85068 4.17787,2.33457 3.04745,3.46498 -1.48721,1.48721 -4.15582,0.85873 -4.15582,-0.97874 z"
         id="path4823"
         inkscape:connector-curvature="0" />
      <path
         style="fill:#473832"
         d="M 83.367134,924.19881 C 70.967088,919.35372 60.250429,907.28619 49.311114,885.84992 37.534318,862.77256 32.733168,840.09037 36.721318,826.37161 c 2.80837,-9.66045 6.674432,-12.63779 15.473118,-11.91617 12.367492,1.01431 16.552887,9.22506 16.552887,32.47284 0,10.26532 0.41225,13.72055 1.695795,14.21309 1.424826,0.54676 1.427946,1.78883 0.01953,7.77327 -3.582146,15.22068 -1.58734,31.5263 5.091591,41.61884 4.110728,6.21174 7.565708,6.64899 6.449188,0.81619 -1.451173,-7.58104 -2.346577,-20.9375 -1.403629,-20.9375 0.516114,0 4.280008,3.09375 8.364209,6.875 7.529852,6.97131 12.546513,8.74958 13.999743,4.96251 0.40364,-1.05187 -0.66118,-6.18617 -2.36626,-11.40956 -4.455652,-13.64949 -4.240606,-23.63807 0.73536,-34.15642 2.93685,-6.20802 3.64857,-9.08945 3.04275,-12.31875 -0.43494,-2.31841 -0.31359,-4.0156 0.26966,-3.77154 13.10243,5.48278 12.71968,5.17806 13.10756,10.43538 0.35462,4.80648 0.54356,5.00838 4.68691,5.00838 4.27315,0 4.34715,0.0949 7.21975,9.25538 4.23952,13.51953 4.91123,25.21479 2.19233,38.17081 -1.78237,8.49331 -1.94855,11.3731 -0.80152,13.89056 0.79588,1.74674 1.44704,3.96767 1.44704,4.93542 0,2.46408 -7.43443,3.60588 -14.15105,2.17335 -4.09718,-0.87383 -6.87644,-0.74437 -10.40699,0.4848 -6.74535,2.34842 -17.48309,2.02124 -24.572151,-0.74868 z M 126.87564,841.6568 c 1.10366,-1.78576 5.62168,-2.31527 5.62168,-0.65886 0,0.88095 -1.39599,1.60173 -3.1022,1.60173 -1.70621,0 -2.83998,-0.42429 -2.51948,-0.94287 z M 80.71959,828.47968 c -1.020345,-4.06537 -0.05604,-5.56751 3.574078,-5.56751 2.8573,0 2.870412,0.0626 0.915797,4.375 -2.357136,5.20042 -3.413532,5.481 -4.489875,1.19251 z m 39.59023,-3.72629 c -4.32753,-3.05117 -3.39772,-5.14707 2.99784,-6.75749 7.33431,-1.8468 9.43804,-0.3719 6.62958,4.64796 -2.2667,4.0515 -5.78093,4.82153 -9.62742,2.10953 z m -17.01315,-5.20854 c -1.40773,-1.40773 -0.85736,-2.88268 1.07565,-2.88268 1.03125,0 1.875,0.5293 1.875,1.17623 0,1.57622 -1.95198,2.70512 -2.95065,1.70645 z"
         id="path4821"
         inkscape:connector-curvature="0" />
      <path
         style="fill:#352621"
         d="M 81.701067,923.00907 C 70.734785,918.02943 59.660322,904.85632 49.568408,884.78717 39.502007,864.76875 36.981326,855.6636 36.923083,839.11001 c -0.05661,-16.089 1.14926,-19.49179 8.199371,-23.13755 4.928743,-2.54875 12.328465,-1.42343 16.586014,2.52233 4.299797,3.98492 6.013974,11.35562 6.504872,27.96997 0.230396,7.79767 0.963387,14.83365 1.628869,15.63551 0.79136,0.95353 0.550865,4.26525 -0.695144,9.57241 -3.377704,14.38674 -0.581798,30.45104 7.202505,41.38308 1.412394,1.98352 3.718529,3.60641 5.124745,3.60641 2.21073,0 2.45151,-0.54981 1.779108,-4.0625 -0.427708,-2.23438 -1.139638,-7.9992 -1.582066,-12.81073 l -0.804418,-8.74822 7.835933,7.25469 c 6.073301,5.6228 8.576386,7.16888 11.127691,6.87322 4.624997,-0.53596 4.809237,-4.79926 0.756247,-17.4995 -4.068357,-12.7484 -3.672971,-19.49913 1.81606,-31.00696 2.70108,-5.66285 3.65252,-9.16108 3.1397,-11.54404 l -0.73577,-3.41903 5.40776,2.41748 c 4.61765,2.06427 5.51908,3.08509 6.16965,6.98673 0.85725,5.14113 2.9774,7.01604 6.83804,6.04709 2.1685,-0.54426 2.97293,0.27352 4.66212,4.73951 3.92603,10.37982 4.95925,18.52117 4.00743,31.57672 -1.05005,14.40277 -1.2306,24.01851 -0.51544,27.45089 0.70786,3.39735 -5.13217,4.73844 -12.8633,2.95387 -4.64568,-1.07235 -7.1334,-1.0573 -10.22847,0.0619 -6.36958,2.30326 -20.562527,1.80983 -26.583523,-0.92422 z m -0.453744,-96.3469 c 0,-2.85991 0.56762,-3.75 2.39142,-3.75 2.138347,0 2.241627,0.39684 0.975952,3.75 -0.778506,2.0625 -1.854644,3.75 -2.39142,3.75 -0.536773,0 -0.975952,-1.6875 -0.975952,-3.75 z m 39.687497,-2.60012 c -4.73369,-2.75713 -1.34044,-6.08675 6.25,-6.13281 1.88132,-0.0114 2.8125,0.72787 2.8125,2.23293 0,4.58584 -4.53452,6.53718 -9.0625,3.89988 z"
         id="path4819"
         inkscape:connector-curvature="0" />
    </g>
  </g>
</svg>
