<?xml version="1.0" encoding="UTF-8" standalone="no"?>
<svg
   xmlns:dc="http://purl.org/dc/elements/1.1/"
   xmlns:cc="http://creativecommons.org/ns#"
   xmlns:rdf="http://www.w3.org/1999/02/22-rdf-syntax-ns#"
   xmlns:svg="http://www.w3.org/2000/svg"
   xmlns="http://www.w3.org/2000/svg"
   xmlns:sodipodi="http://sodipodi.sourceforge.net/DTD/sodipodi-0.dtd"
   xmlns:inkscape="http://www.inkscape.org/namespaces/inkscape"
   width="128"
   height="128"
   viewBox="0 0 128 128"
   version="1.1"
   preserveAspectRatio="xMidYMid"
   id="svg2"
   inkscape:version="0.91 r13725"
   sodipodi:docname="ember.svg">
  <metadata
     id="metadata14">
    <rdf:RDF>
      <cc:Work
         rdf:about="">
        <dc:format>image/svg+xml</dc:format>
        <dc:type
           rdf:resource="http://purl.org/dc/dcmitype/StillImage" />
        <dc:title></dc:title>
      </cc:Work>
    </rdf:RDF>
  </metadata>
  <defs
     id="defs12" />
  <sodipodi:namedview
     pagecolor="#ffffff"
     bordercolor="#666666"
     borderopacity="1"
     objecttolerance="10"
     gridtolerance="10"
     guidetolerance="10"
     inkscape:pageopacity="0"
     inkscape:pageshadow="2"
     inkscape:window-width="640"
     inkscape:window-height="480"
     id="namedview10"
     showgrid="false"
     inkscape:zoom="2.0218835"
     inkscape:cx="49.509039"
     inkscape:cy="55.612184"
     inkscape:window-x="0"
     inkscape:window-y="0"
     inkscape:window-maximized="0"
     inkscape:current-layer="svg2" />
  <g
     id="g4"
     transform="matrix(0.25014426,0,0,0.25014426,0.18743679,34.068553)">
    <path
       d="m 511.72061,146.4024 c -1.24309,-12.19788 -10.10015,-17.63642 -18.41335,-17.63642 -3.80698,0 -6.83703,1.08771 -8.00243,1.55387 l -1.63156,0.69924 -1.39848,1.01002 c -1.94234,1.47617 -5.36085,3.4962 -8.3909,4.58391 -0.15538,-2.48619 -0.0777,-5.67162 0.31078,-8.3132 l 0.0777,-0.46616 c 2.25311,-21.4434 -2.25311,-33.95205 -13.36328,-37.137483 -1.86464,-0.543854 -3.80698,-0.776935 -5.74932,-0.776935 -6.75933,0 -12.74173,3.263126 -16.6264,6.060092 -3.26313,-4.117755 -8.70167,-6.448559 -15.53869,-6.448559 -10.17785,0 -18.33566,4.739302 -21.28802,12.353265 -0.31077,0.77693 -0.69924,1.94234 -1.1654,3.4962 -5.9824,-13.207887 -18.18027,-18.257963 -29.52352,-18.257963 -10.7217,0 -21.13262,4.195448 -25.0173,7.1478 -0.15538,0.155387 -0.38847,0.233081 -0.62155,0.466161 -10.17784,7.225492 -18.10258,16.315632 -23.69651,27.270412 -2.71927,-9.47861 -8.70166,-18.33566 -19.42336,-25.017301 l -0.15539,-0.155387 C 301.79285,96.678575 301.55977,96.523188 301.249,96.367801 311.73761,77.721367 321.06083,53.014842 315.4669,29.473719 309.56219,4.3787266 294.80043,0.64943976 286.48723,0.64943976 c -3.41851,0 -6.91472,0.62154784 -10.48862,1.86464344 l -0.23308,0.077693 -0.23308,0.077693 C 259.91606,8.8072546 253.07904,18.052778 251.60286,20.228195 250.04899,22.559 232.95643,48.50862 228.83867,86.50073 c -0.46616,4.195447 -0.93232,8.546282 -1.39848,12.897116 -2.4085,-3.418512 -6.37087,-6.526251 -12.66404,-8.468588 -1.94233,-0.621548 -3.96236,-0.854629 -5.98239,-0.854629 -8.62398,0 -15.61639,5.283157 -19.34568,8.779363 l -0.0777,-0.07769 c -3.26313,-4.816996 -8.46859,-7.691654 -14.21791,-7.924735 l -1.39848,0 c -9.16783,0 -16.47102,4.040061 -21.83187,8.623976 -3.41851,-5.982398 -9.71168,-9.711684 -17.09256,-9.711684 -0.62155,0 -1.16541,0 -1.70926,0.07769 l -1.2431,0 c -10.17784,0 -18.18027,4.816995 -21.44339,12.819421 -0.23308,0.62155 -0.54386,1.39849 -0.85463,2.4085 C 101.57676,95.124705 91.398915,90.463097 77.724863,90.463097 l -1.320789,0 c -8.546282,0.155387 -29.834294,3.729287 -42.886798,33.097423 -2.02003,4.50622 -3.5739,9.09013 -4.739302,13.59636 -2.874659,-1.32079 -5.516237,-1.63157 -7.458574,-1.63157 -6.837025,0 -11.9647948,3.88468 -14.450986,7.53627 -2.0200304,2.95235 -8.4685888,13.44097 -5.2831563,23.69651 1.7092564,5.51624 5.6716236,9.71168 11.2655543,11.8871 4.894688,1.94234 11.110166,3.80698 15.771775,5.12777 2.874659,6.52625 8.002428,14.06252 17.092564,20.97724 6.448559,4.89469 14.684067,7.38088 24.395752,7.38088 16.315629,0 32.087407,-7.07011 33.796657,-7.84704 l 0.62155,-0.31078 0.15539,-0.15538 c 3.10774,3.26312 7.22549,5.59393 12.43095,6.60394 1.55387,0.31078 3.57391,0.54386 5.90471,0.54386 8.85705,0 14.99484,-4.50623 20.66646,-12.97481 4.66161,7.30318 13.1302,11.42094 23.15266,11.42094 l 0.0777,0 c 0.54386,0 1.08771,0.38846 1.70926,0.38846 5.28315,0 11.8871,-1.86464 17.40334,-10.7217 4.58391,8.23551 12.97481,12.97482 22.91957,12.97482 8.85706,0 16.54871,-3.6516 17.9472,-4.35084 l 0.31077,-0.15539 c 2.95235,-1.55387 5.43854,-2.95235 7.38088,-4.04006 6.60394,3.49621 16.6264,7.38088 28.90197,7.38088 2.09773,0 4.19545,-0.0777 6.29317,-0.31077 l 0.54386,-0.0777 0.54385,-0.0777 c 26.02732,-5.12777 42.96449,-11.34325 53.06465,-16.08255 7.0701,7.92474 18.33566,15.5387 34.4182,16.7041 1.78695,0.15539 3.6516,0.23308 5.43855,0.23308 13.20789,0 23.7742,-3.72929 31.54355,-7.84704 2.48619,2.64158 5.59393,5.05008 9.63399,6.68164 2.4085,1.01001 4.89469,1.47617 7.45857,1.47617 16.16025,0 23.69651,-19.26798 25.79424,-25.79423 l 3.88467,-10.41093 c 3.41851,3.6516 7.76935,6.60395 13.28558,8.15782 3.03005,0.85463 6.29318,1.32079 9.634,1.32079 17.7918,0 34.88437,-12.58634 37.60364,-14.68407 4.89469,-4.04006 10.25554,-12.35326 9.09013,-23.7742"
       id="path6"
       inkscape:connector-curvature="0"
       style="fill:#ffffff" />
    <path
       d="m 348.72732,151.66737 c 0,0 -2.25311,-7.92473 6.13778,-23.23034 8.3132,-15.22793 14.83946,-6.91472 14.83946,-6.91472 0,0 7.1478,7.76934 -1.01002,19.34567 -8.15781,11.65402 -19.96722,10.79939 -19.96722,10.79939 m -64.09712,11.03248 c -9.5563,25.0173 -32.78665,14.83945 -32.78665,14.83945 0,0 -2.64157,-8.93475 4.89469,-34.02974 7.53627,-25.0173 25.25038,-15.22792 25.25038,-15.22792 0,0 12.19788,9.40091 2.64158,34.41821 M 267.30456,57.891351 c 0,0 14.45098,-37.681336 17.94719,-19.345676 3.49621,18.33566 -30.30046,72.876485 -30.30046,72.876485 0.31078,-12.275574 12.35327,-53.530809 12.35327,-53.530809 M 60.639913,151.66737 c 0.621547,-24.24036 16.471016,-34.80667 21.987253,-29.52352 5.516237,5.28316 3.496206,16.7041 -6.914719,23.8519 -10.333232,7.1478 -15.072534,5.67162 -15.072534,5.67162 m 437.880427,-3.96236 c -0.77694,-8.15782 -8.15782,-5.12777 -8.15782,-5.12777 0,0 -11.80941,9.16783 -22.22033,8.15781 -10.33323,-1.08771 -7.07011,-24.24036 -7.07011,-24.24036 0,0 2.25311,-21.28801 -3.88467,-23.07496 -6.13779,-1.78695 -13.67405,5.51623 -13.67405,5.51623 0,0 -9.40091,10.41093 -13.82944,23.61882 l -1.2431,0.38847 c 0,0 1.39849,-23.23035 -0.23308,-28.51351 -1.24309,-2.64158 -12.43095,-2.4085 -14.2179,2.25311 -1.86465,4.66161 -10.7994,37.21518 -11.42094,50.88923 0,0 -17.48104,14.83945 -32.78665,17.32564 -15.30562,2.4085 -18.95721,-7.1478 -18.95721,-7.1478 0,0 41.56601,-11.57632 40.08983,-44.75144 -1.39848,-33.175111 -33.48588,-20.89954 -37.13748,-18.18027 -3.4962,2.64158 -22.22033,13.90713 -27.73657,45.2176 -0.15538,1.08771 -0.54385,5.74932 -0.54385,5.74932 0,0 -16.08255,10.79939 -25.0173,13.67405 0,0 25.0173,-42.10986 -5.51624,-61.30015 -13.82944,-8.313203 -24.86191,9.16783 -24.86191,9.16783 0,0 41.33293,-45.994538 32.1651,-84.918969 -4.35083,-18.491047 -13.59636,-20.511078 -22.14264,-17.481032 -12.89712,5.127769 -17.79181,12.586343 -17.79181,12.586343 0,0 -16.70409,24.240364 -20.58877,60.290136 -3.88467,36.049772 -9.55629,79.558122 -9.55629,79.558122 0,0 -7.92474,7.76934 -15.22793,8.15781 -7.30318,0.38847 -4.04006,-21.75417 -4.04006,-21.75417 0,0 5.67163,-33.79666 5.28316,-39.46829 -0.38847,-5.67162 -0.77693,-8.77936 -7.53627,-10.79939 -6.68164,-2.02003 -14.06252,6.52625 -14.06252,6.52625 0,0 -19.34567,29.29044 -20.97723,33.79666 l -1.01002,1.86465 -1.01002,-1.2431 c 0,0 13.67406,-39.93444 0.62155,-40.4783 -13.0525,-0.62155 -21.59878,14.21791 -21.59878,14.21791 0,0 -14.83946,24.86191 -15.46101,27.65887 l -1.01001,-1.24309 c 0,0 6.13779,-28.90197 4.89469,-36.04977 -1.2431,-7.1478 -7.92474,-5.67163 -7.92474,-5.67163 0,0 -8.54628,-1.01001 -10.79939,4.50622 -2.25311,5.51624 -10.41092,41.95448 -11.42094,53.53081 0,0 -21.365705,15.30561 -35.428224,15.461 -14.062519,0.23308 -12.586343,-8.93475 -12.586343,-8.93475 0,0 51.510777,-17.63642 37.448257,-52.4431 -6.293173,-8.93474 -13.674053,-11.73171 -24.007285,-11.57632 -10.410926,0.23308 -22.608802,6.52625 -30.999697,25.25038 -3.962367,8.93475 -5.59393,17.40333 -5.59393,23.85189 l 0,0 c 0,0 -9.633991,1.86465 -14.52868,-2.25311 -4.894689,-4.04006 -7.691654,0 -7.691654,0 0,0 -8.5462823,12.19788 -0.23308,15.461 8.313201,3.26313 21.210318,6.29317 21.210318,6.29317 l 0,0 c 1.165402,5.28316 4.661609,13.90714 14.839454,21.59879 15.227921,11.57633 44.596055,-1.78695 44.596055,-1.78695 l 12.042489,-7.1478 c 0,0 0.38847,10.79939 9.16783,12.43096 8.77936,1.63156 12.43095,-0.15539 27.65888,-37.13748 8.93475,-18.95721 9.55629,-17.9472 9.55629,-17.9472 l 1.01002,-0.23308 c 0,0 -6.91472,36.20516 -4.27314,45.99454 2.64158,9.78938 14.2179,8.77936 14.2179,8.77936 0,0 6.29317,2.25311 11.42094,-15.69408 5.12777,-17.94719 14.83946,-36.67132 14.83946,-36.67132 l 1.24309,0 c 0,0 -4.27314,36.04977 2.25311,47.85918 6.52626,11.80941 23.38574,3.49621 23.38574,3.49621 0,0 11.80941,-6.21548 13.67405,-8.08012 0,0 13.98483,11.8094 33.79666,9.63399 44.20759,-8.70167 59.90167,-20.51108 59.90167,-20.51108 0,0 7.61396,19.19029 31.07739,20.97724 26.88195,2.02003 41.56601,-14.91715 41.56601,-14.91715 0,0 -0.23308,10.95478 9.16783,14.83945 9.40091,3.88468 15.69408,-16.6264 15.69408,-16.6264 l 15.69409,-42.03217 1.39848,0 c 0,0 0.77693,26.88194 16.31563,31.38816 15.61639,4.42853 35.739,-11.11016 35.739,-11.11016 0,0 4.89469,-3.26313 4.04006,-11.42094"
       id="path8"
       inkscape:connector-curvature="0"
       style="fill:#e24b31" />
  </g>
</svg>
