<?xml version="1.0" encoding="UTF-8" standalone="no"?>
<svg
   xmlns:dc="http://purl.org/dc/elements/1.1/"
   xmlns:cc="http://creativecommons.org/ns#"
   xmlns:rdf="http://www.w3.org/1999/02/22-rdf-syntax-ns#"
   xmlns:svg="http://www.w3.org/2000/svg"
   xmlns="http://www.w3.org/2000/svg"
   xmlns:sodipodi="http://sodipodi.sourceforge.net/DTD/sodipodi-0.dtd"
   xmlns:inkscape="http://www.inkscape.org/namespaces/inkscape"
   version="1.0"
   width="128"
   height="128"
   viewBox="0 0 102.57534 102.4"
   preserveAspectRatio="xMidYMid meet"
   id="svg2"
   sodipodi:version="0.32"
   inkscape:version="0.91 r13725"
   sodipodi:docname="GNU_Compiler_Collection_logo.svg"
   inkscape:output_extension="org.inkscape.output.svg.inkscape">
  <defs
     id="defs33" />
  <sodipodi:namedview
     inkscape:window-height="706"
     inkscape:window-width="1366"
     inkscape:pageshadow="2"
     inkscape:pageopacity="0.0"
     borderopacity="1.0"
     bordercolor="#666666"
     pagecolor="#ffffff"
     id="base"
     inkscape:zoom="1.9409771"
     inkscape:cx="87.575032"
     inkscape:cy="94.40449"
     inkscape:window-x="-8"
     inkscape:window-y="-8"
     inkscape:current-layer="layer2"
     width="584px"
     height="688.75px"
     showgrid="false"
     inkscape:window-maximized="1" />
  <metadata
     id="metadata4">
Created by potrace 1.7, written by Peter Selinger 2001-2005
<rdf:RDF>
  <cc:Work
     rdf:about="">
    <dc:format>image/svg+xml</dc:format>
    <dc:type
       rdf:resource="http://purl.org/dc/dcmitype/StillImage" />
    <dc:title></dc:title>
  </cc:Work>
</rdf:RDF>
</metadata>
  <g
     inkscape:groupmode="layer"
     id="layer1"
     inkscape:label="Colors"
     style="display:inline"
     transform="translate(0,-449.36813)">
    <path
       style="display:inline;fill:#ffcfab;fill-opacity:1;fill-rule:evenodd;stroke:#000000;stroke-width:0.85538852;stroke-linecap:butt;stroke-linejoin:miter;stroke-miterlimit:4;stroke-dasharray:none;stroke-opacity:1"
       d="m 69.242029,458.84192 c -1.402865,1.9464 -2.805738,3.8928 -4.208606,5.8392 6.650766,7.00438 13.301531,14.00874 19.9523,21.01313 0.936327,-3.4763 1.621546,0.31578 2.386997,1.78554 2.04975,4.20523 2.368838,8.89125 3.008039,13.3908 1.209768,8.51601 0.811224,13.50049 -0.04976,18.14754 -2.789904,15.05815 -12.686579,23.84712 -22.138823,28.90745 -3.233327,1.73097 -6.34531,2.94115 -10.909833,3.50627 -4.703381,0.58229 -9.311764,0.35175 -14.033435,-0.483 -3.898061,-0.68915 -7.818707,-1.85059 -11.418991,-3.34765 -5.740453,-2.38698 -10.478789,-6.51849 -14.187664,-11.05081 -3.588138,-4.38476 -5.851371,-9.61699 -7.570261,-14.86004 -3.1265569,-9.53677 -4.4484695,-19.69265 -1.9545545,-29.50338 1.5545439,-6.11538 3.7960075,-12.17139 6.8614455,-17.75534 3.253054,-5.92572 7.825405,-11.2925 13.360168,-15.74258 3.323736,-2.67238 6.936707,-5.13487 11.004331,-6.62133 2.983775,-1.09038 6.1423,-1.33606 9.402912,-1.14096 3.223926,0.19289 6.301311,0.52062 9.372707,1.51167 4.179506,1.3486 8.118268,3.45806 11.12303,6.40349 z"
       id="path1335"
       sodipodi:nodetypes="ccccssssssssssssssc"
       inkscape:connector-curvature="0" />
    <path
       style="fill:#f39105;fill-opacity:1;fill-rule:evenodd;stroke:#000000;stroke-width:0.2058554px;stroke-linecap:butt;stroke-linejoin:miter;stroke-opacity:1"
       d="m 38.284297,484.23875 -2.31585,-5.33414 2.493927,-1.13141 4.988293,-0.64668 9.263629,-10.34484 5.166149,0.64663 3.38474,-1.61647 2.494145,-0.48489 -3.919183,7.75862 -7.660297,0.80828 -13.895553,10.3449 z"
       id="path2211"
       inkscape:connector-curvature="0" />
    <path
       style="display:inline;fill:#ffcfab;fill-opacity:1;fill-rule:evenodd;stroke:#000000;stroke-width:0.2058554px;stroke-linecap:butt;stroke-linejoin:miter;stroke-opacity:1"
       d="m 71.597706,462.57907 4.097473,4.68745 1.068894,1.61653 -7.83859,-2.42465 0.890815,-2.26293 1.781408,-1.6164 z"
       id="path3100"
       inkscape:connector-curvature="0" />
    <path
       style="display:inline;fill:#f39a05;fill-opacity:1;fill-rule:evenodd;stroke:#000000;stroke-width:0.2058554px;stroke-linecap:butt;stroke-linejoin:miter;stroke-opacity:1"
       d="m 68.569328,466.13514 3.919188,1.93966 4.097266,1.1314 -5.522524,2.74796 -4.097258,-0.32335 -0.356369,-2.58617 1.959697,-2.9095 z"
       id="path3976"
       inkscape:connector-curvature="0" />
    <path
       style="display:inline;fill:#ab9a7e;fill-opacity:1;fill-rule:evenodd;stroke:#000000;stroke-width:0.2058554px;stroke-linecap:butt;stroke-linejoin:miter;stroke-opacity:1"
       d="m 38.462374,484.56188 2.850514,4.20271 -2.850514,6.62712 6.769701,1.1316 1.425039,1.293 4.275555,5.98062 13.53918,-6.46554 4.030534,1.01032 4.342507,-1.17191 -3.028592,-2.90951 0.534442,-0.80826 1.425257,-0.80808 0.712519,2.10127 1.246971,2.58617 3.38474,3.71779 0.890811,-0.48492 0.178078,-2.42461 3.145973,-0.50255 1.110296,-0.7828 2.77921,-0.30563 0.71389,-3.17734 -2.048555,-7.67783 0,-3.23287 3.206663,-0.48492 2.850292,1.93967 4.097268,0.96986 1.603334,-0.32336 -4.809786,-5.4957 -2.956565,-2.74657 -1.675361,-0.97101 -3.206662,-1.93968 -6.591409,0.32314 -5.166154,1.13162 -4.453842,1.93967 -2.672007,-0.32334 -3.384956,-1.45475 -1.06889,-1.45477 -6.947559,-0.16157 -14.251922,11.15296 z"
       id="path4852"
       sodipodi:nodetypes="ccccccccccccccccccccccccccccccccccccccc"
       inkscape:connector-curvature="0" />
    <path
       style="display:inline;fill:#ffffff;fill-opacity:1;fill-rule:evenodd;stroke:#000000;stroke-width:0.2058554px;stroke-linecap:butt;stroke-linejoin:miter;stroke-opacity:1"
       d="m 71.775997,492.4822 0.890596,2.10145 -0.53444,1.29297 -2.672229,-1.45475 0.712738,-1.13141 1.603335,-0.80826 z"
       id="path5728"
       inkscape:connector-curvature="0" />
    <path
       style="fill:#ffffff;fill-opacity:1;fill-rule:evenodd;stroke:#000000;stroke-width:0.2058554px;stroke-linecap:butt;stroke-linejoin:miter;stroke-opacity:1"
       d="m 75.873262,483.75383 2.850293,-2.26302 1.603335,-0.1616 0.534448,0.80808 -2.49393,2.42459 -1.425259,0.48494 -1.068887,-1.29299 z"
       id="path6604"
       inkscape:connector-curvature="0" />
    <path
       style="fill:#ffffff;fill-opacity:1;fill-rule:evenodd;stroke:#000000;stroke-width:0.2058554px;stroke-linecap:butt;stroke-linejoin:miter;stroke-opacity:1"
       d="m 81.028752,472.54351 -8.718307,1.99682 -5.700814,2.10126 -4.988075,-1.29299 -1.781409,-1.93968 4.631702,-9.53674 4.339815,-4.87664 2.843162,-1.02155 3.149543,0.56411 3.263092,4.34531 3.419521,2.07796 -0.393855,0.62853 -5.041794,-1.55609 -4.453627,-1.77803 -4.275558,5.98059 -0.89059,2.10144 0.712518,1.93969 11.579479,-1.77811 1.236309,0.93225 1.068888,1.11187 z"
       id="path7479"
       sodipodi:nodetypes="cccccccccccccccccccc"
       inkscape:connector-curvature="0" />
    <path
       style="fill:#ffffff;fill-opacity:1;fill-rule:evenodd;stroke:#000000;stroke-width:0.2058554px;stroke-linecap:butt;stroke-linejoin:miter;stroke-opacity:1"
       d="m 84.42437,473.73206 2.041039,2.37047 1.287902,0.033 4.760439,4.80442 1.183992,1.30287 2.12803,-1.23688 2.49393,-5.01078 1.383809,-3.98379 0.18896,-3.3373 -1.142538,-1.2457 -3.99305,0 -3.028586,0.6465 c 0,0 -2.493931,1.1314 -1.781412,1.1314 0.712524,0 4.097268,0.96985 4.097268,0.96985 l 1.425259,0.96984 0.35636,1.45476 -1.959699,3.55602 -0.890595,0.80826 -4.09748,-2.4246 -1.246959,-0.80827 -1.247186,-0.16158 -1.959483,0.16158 z"
       id="path8354"
       sodipodi:nodetypes="ccccccccccccsccccccccc"
       inkscape:connector-curvature="0" />
    <path
       style="fill:#ffffff;fill-opacity:1;fill-rule:evenodd;stroke:#9e0000;stroke-width:0.2058554px;stroke-linecap:butt;stroke-linejoin:miter;stroke-opacity:1"
       d="m 82.760308,492.63008 c -0.05509,-0.37146 -2.8028,0 -2.8028,0 0,0 -0.480258,1.48587 0.220442,1.48587 0.700704,0 2.637472,-1.1144 2.582358,-1.48587 z"
       id="path5093"
       sodipodi:nodetypes="cczz"
       inkscape:connector-curvature="0" />
  </g>
  <g
     inkscape:groupmode="layer"
     id="layer2"
     inkscape:label="Drawing"
     style="display:inline"
     transform="translate(0,-449.36813)">
    <g
       transform="matrix(0.05914631,0,0,-0.05366556,2.8331125,555.52143)"
       id="g6"
       style="fill:#000000;stroke:none">
      <g
         id="g8">
        <path
           style="fill:#000000;fill-opacity:1"
           d="m 1412.6868,1338.2674 c 6.7524,10.8193 23.2943,9.4585 50.3132,-7.2674 22,-13 51,-15.6755 82.0649,-17.8053 50.8806,-3.4883 46.8186,4.0782 22.9351,28.1431 l -28.7769,25.8157 c 0,0 10.5878,-6.1299 28.1534,10.1055 C 1590.8909,1398.9927 1636,1499 1644,1571 c 9,73 -3,84 -81,75 -32,-4 -70.5324,-13.4027 -86.5324,-23.4027 0,0 -22.8511,-11.4351 -19.3511,-17.9351 3.5,-6.5 33.8835,-9.6622 33.8835,-9.6622 57,-9 72.6107,-27.8569 72.6107,-48.8569 0,-22 -29.6107,-76.1431 -43.6107,-76.1431 -5,0 -23,14 -40,30 -34,33 -52.2977,37.3245 -85.1946,27.5457 -18.4732,5.0628 -45.2898,7.7233 -66.9482,20.1734 -5.3074,3.0509 -1.9352,7.3395 -12.4413,20.5405 C 1296.431,1592.1143 1282,1590 1262,1585 c -25,-6 -26,-6 -7,8 19,14 18,16 -24,71 l -42,57 50,-25 c 51,-26 95,-33 105,-17 4,5 -10,18 -31,28 -20,10 -44,33 -53,50 -10,18 -23,39 -29,47 -15,17 -67.3278,26.1533 -95.4636,15.5122 -28.6878,-10.8499 -46.4737,-40.0111 -69.4838,-70.1568 -19.4268,-25.451 -30.2491,-44.6593 -39.3338,-60.1213 C 1008.0217,1693.6518 976,1680 963,1668 c -22,-20 -27,-21 -70,-10 -43,12 -48,11 -71,-10 -13,-13 -49,-58 -80,-100 -30,-43 -58,-78 -61,-79 -3,0 -24,-2 -46,-4 -22,-2 -52,-8 -67,-14 -24,-9 -26,-13 -19,-39 5,-15 27,-61 50,-101 l 41,-72 -25,-60 c -14,-33 -23,-64 -20,-68 3,-5 32,-12 65,-16 l 60,-7 46,-69 c 43,-65 50.67772,-68.64009 66,-61 5.15501,2.57043 30,20 63,36 33,17 78,42 100,57 31.1298,20.5457 62.6472,27.5244 79.3482,21.1776 10.1238,-3.8472 14.8032,-12.591 10.6518,-26.1776 -8.7294,-28.0588 -8.3308,-45.5189 -4.4143,-63.72196 C 1087.4046,974.98882 1096.2,971.65881 1109,963 c 44.1295,-27.11752 61,-29 62,0 l 0,22 11,-23 c 16,-33 42,-24 46,17 3,24 -3,40 -19,57 -12,13 -18.247,30.0239 -13.247,30.0239 10,0 44.247,-46.0239 44.247,-58.0239 0,-4 6,-8 14,-8 15,0 26,21 26,50 0,11.0508 29.8385,17.2803 57.6812,27.1474 7.4306,2.6333 7.377,6.363 14.4868,11.2286 13.4373,-2.8159 9.0169,-3.0001 19.0404,-2.2877 14.9104,1.0597 21.5581,5.2591 25.7916,11.9117 21,34 24,77 8,115 -8,20 -15,61.5021 -14,79.5021 0,0 0.9547,11.8911 5.3533,23.6502 M 1280,1184 c 0,20 -4,20 -40,1 -17,-9 -30,-23 -30,-32 0,-23 29,-53 51,-53 10,0 58.1199,-9.0012 71.2364,-9.1443 -0.283,-3.8272 -5.8146,-7.1592 -9.4651,-8.3255 -15.1496,-4.8405 -39.9072,-2.1419 -48.7713,-0.5302 -16,2 -18,-3 -17,-32 2,-19 0,-28 -4,-20 -3,8 -17,26 -32,40 -16,15 -27,39 -29,60 -5,47 -25,83 -65,117 -42,35 -58,63 -50,91 4,16 13,22 32,22 34,1 98,30 139,64 54,47 36,49 -28,4 -53,-37 -68,-43 -128,-46 l -67,-5 33,34 c 17,18 32,36 32,40 0,21 92,60 161,68 98,11 103,10 109,-23 7,-38 29,-47 23,-9 -4,27 -4,27 11,9 9,-11 16,-31 16,-45 0,-14 3,-36 6,-48 5,-17 0,-22 -26,-28 l -33,-7 7,-59 c 3,-32 13,-75 21,-96 15,-35 12,-97 -5,-108 -4,-3 -29,-2 -54,1 -41,6 -46,9 -46,33 m -75,665 c 9,-4 25,-24 35,-45 11,-21 30,-45 42,-53 12.2607,-8.7116 44.0886,-21.1296 42.2589,-22.8496 -3.8412,-3.6107 -61.682,14.5291 -98.2589,34.8496 -28,16 -57,27 -64,24 -8,-2 -31,-31 -53,-65 -44,-68 -52,-121 -20,-132 19,-6 159.985,27.3629 183,31 16.6514,2.6314 38,-14 38,-26 0,-4 -30,-10 -66,-13 -43,-4 -82,-15 -111,-32 -52,-29 -82,-31 -123,-10 -41,21 -39,43 20,161 65,133 111,172 175,148 z m -5,-121 c 43,-65 43,-62 13,-54 -44,13 -78.4821,33.3765 -86.765,38.8585 7.1535,15.741 24.765,52.1415 36.765,52.1415 7,0 23,-17 37,-37 z m -190,-17 c 0,-2 -11,-28 -25,-59 -23,-49 -29,-55 -63,-61 -20,-3 -50,-6 -67,-6 -24,0 -47,-16 -110,-78 -44,-43 -94,-88 -111,-100 l -31,-21 -18,40 c -22,49 -16,57 53,63 57,5 63,9 109,76 17,25 48,65 70,89 34,39 41,43 60,32 32,-17 68,-13 94,9 22,18 39,25 39,16 z m 179,-49 44,-14 -34,-17 c -18,-9 -49,-19 -69,-22 -45,-7 -54,7 -34,54 8.2545,20.9537 13.7935,25.7507 18.4239,33.3664 C 1119.6269,1649.3732 1165,1625 1189,1617 Z m 445.4542,-21.3511 C 1636.4542,1560.6489 1622,1515 1602,1466 c -31,-78 -61.8569,-108.3245 -79.8569,-76.3245 -10.3996,18.1993 -34.5463,54.6152 -74.86,87.7076 -3.0295,2.4868 -6.9456,6.5072 -15.5729,8.4931 -12.5936,2.8988 -16.0836,-2.05 -19.3591,0.4749 C 1395.4676,1508.9485 1396,1519 1418,1520 c 12,0 30,-9 40,-21 9,-11 29,-27 43,-34 24,-13 28,-12 49,10 16,17 25.0715,41.2174 26.6622,71.8569 C 1578.2271,1577 1567,1594 1516,1605 c -15,3 -44.6355,2.6106 -40.6355,5.6106 9,9 95.6355,27.3894 124.6355,26.3894 23,-2 33.5191,0.3893 34.4542,-41.3511 z M 1006,1476 c 19,-9 41,-16 49,-16 26,0 -5,-37 -47,-56 -21,-9 -38,-20 -38,-24 0,-4 20,-11 45,-15 40,-5 45,-9 40,-26 -10,-32 12,-72 61,-114 39,-32 44,-40 32,-51 -10,-10 -25,-12 -58,-6 l -45,8 3,52 c 3,57 -12,71 -22,21 -15,-76 -6,-90 65,-103 20,-3 46,-17 58,-30 l 22,-24 -29,-10 c -17,-6 -34,-7 -38,-2 -21,18 -71,18 -99,0 l -29,-19 -40,32 c -56,43 -63,54 -82,114 -14,48 -29,71 -39,61 -2,-2 5,-31 17,-66 19,-59 46,-95 103,-136 11,-8 18,-16 15,-19 -7,-6 -128,-67 -134,-67 -3,0 -24,29 -47,65 -36,56 -46,65 -73,66 -17,1 -43,4 -58,8 l -26,6 24,58 25,58 -22,35 c -13,22 -18,41 -14,52 7,15 9,14 14,-6 8,-31 24,-29 26,3 0,14 14,38 29,53 16,15 26,22 22,15 -7,-14 3,-43 15,-43 5,0 9,15 9,33 0,23 11,44 40,77 34,39 39,42 40,23 0,-13 6,-23 13,-23 9,0 12,9 9,29 l -4,30 58,3 c 46,2 61,-1 67,-13 5,-9 24,-24 43,-33 z m 283.2517,-313.1627 c -0.7823,-5.1975 1.1782,-11.9559 3.3869,-15.9693 10.2398,-18.607 39.8506,-12.3176 63.3614,14.132 14,15 14,19 2,24 -14.0719,6.1564 -55.883,0.4798 -62.5029,-6.2942 -3.9786,-4.0699 -5.4654,-10.6857 -6.2454,-15.8685 z M 1485,1421 c 11,-14 30,-41 43,-59 0,0 8.4123,-10.4324 18.1155,-19.9354 9.7032,-9.503 20.6973,-18.0766 20.6973,-18.0766 0,0 -16.0989,-0.7739 -50.8128,9.012 -79.7572,22.4836 -85,34 -79,58 5,19 7,19 33,-6 14,-14 30,-22 33,-18 11,10 -43,62 -59,56 -14,-5 -26.5738,32.4101 -23.0598,49.5242 0.949,4.6216 5.6212,4.7566 11.8091,2.0875 12.3896,-5.3441 29.6671,-25.3822 52.2507,-53.6117 z m -88,-68 c -4,-3 -10,-3 -14,0 -3,4 0,7 7,7 7,0 10,-3 7,-7 z m -137,-208 c 0,-26 -14,-33 -25,-15 -9,14 1,40 15,40 5,0 10,-11 10,-25 z m 83.1947,23.1298 c 0,-5.5 -31.7429,-24.3971 -35.9357,-12.6478 -4.3118,12.0827 4.5152,15.0982 15.4681,16.1153 11.4676,1.0649 20.4676,2.0325 20.4676,-3.4675 z M 1170,1145 c 0,-8 -4,-15 -9,-15 -13,0 -22,16 -14,24 11,11 23,6 23,-9 z"
           id="path10"
           sodipodi:nodetypes="ccsccscccscssccsscscccccccssccccccscccccccccsccsccccccccssssscscccsccsscscccccccccccccsccccscccccccccccsccscssccscccccsccccsccccccccccccccccccccsscccccscccccscscccccccccccccccccscccsccccccccccccssccsccccccsccscccscsccccsscccscccsccssccssc"
           inkscape:connector-curvature="0" />
        <g
           id="g24">
          <path
             d="m 1312,1403 c 15,-15 31,-24 34,-20 10,10 -26,47 -45,47 -11,0 -8,-7 11,-27 z"
             id="path26"
             inkscape:connector-curvature="0" />
        </g>
        <g
           id="g28">
          <path
             d="m 1247,1365 c -22,-21 -25,-30 -17,-45 6,-11 18,-20 26,-20 21,0 77,57 72,73 -8,23 -52,19 -81,-8 z m 63,5 c 0,-5 -7,-10 -15,-10 -8,0 -19,-9 -25,-20 -6,-11 -16,-17 -22,-14 -7,5 -2,16 16,31 29,24 46,29 46,13 z"
             id="path30"
             inkscape:connector-curvature="0" />
        </g>
        <path
           style="fill:#ffcfab;fill-opacity:1;fill-rule:evenodd;stroke:#000000;stroke-width:1.24000001;stroke-linecap:butt;stroke-linejoin:miter;stroke-miterlimit:4;stroke-dasharray:none;stroke-opacity:1"
           d="m 319.59749,230.14102 c 0,0 -1.82469,1.95234 -3.91569,3.4225 -2.091,1.47017 -4.73975,2.45815 -4.73975,2.45815 0,0 9.85657,12.7417 11.29914,11.09305 1.44257,-1.64865 0.39753,-4.48379 -0.22072,-8.19326 -0.62472,-3.74826 -2.42298,-8.78044 -2.42298,-8.78044 z"
           id="path2180"
           transform="matrix(3.653849,0,0,-3.653849,0,2013.2708)"
           sodipodi:nodetypes="czcszc"
           inkscape:connector-curvature="0" />
      </g>
    </g>
    <g
       id="text3047"
       style="font-style:normal;font-weight:normal;font-size:32.05479431px;line-height:125%;font-family:Sans;letter-spacing:0px;word-spacing:0px;fill:#000000"
       font-size="32.05479430999999800px"
       font-style="normal"
       line-height="125%"
       font-weight="normal"
       transform="matrix(0.20751652,0,0,0.18828709,3.9588736,449.14736)">
      <path
         id="path3233"
         d="m 124.19,439.45 c -13.659,0 -24.324,-3.3703 -31.996,-10.111 -7.672,-6.7407 -11.508,-16.32 -11.508,-28.737 -9e-6,-9.1354 1.408,-17.583 4.224,-25.344 2.816,-7.7606 6.907,-14.523 12.273,-20.289 5.3216,-5.7206 11.852,-10.2 19.59,-13.437 7.7384,-3.2372 16.441,-4.8558 26.109,-4.856 5.8093,1e-4 11.608,0.69856 17.395,2.0954 5.7872,1.397 11.696,3.6698 17.728,6.8183 l -2.9934,15.034 -1.1974,0 c -4.9226,-4.612 -10.277,-7.949 -16.065,-10.011 -5.7873,-2.062 -12.007,-3.0931 -18.659,-3.0932 -7.3173,9e-5 -13.725,1.4414 -19.224,4.3238 -5.499,2.8826 -10.133,6.7186 -13.903,11.508 -3.6808,4.7008 -6.4636,10.178 -8.3483,16.43 -1.8848,6.2529 -2.8271,12.55 -2.8271,18.892 -2.3e-5,9.5346 2.6053,16.896 7.8161,22.085 5.2107,5.1886 12.916,7.7828 23.116,7.7828 4.479,1e-5 8.6808,-0.4102 12.606,-1.2306 3.9246,-0.8204 7.6165,-1.8736 11.076,-3.1597 l 5.5877,-25.344 -26.408,0 2.5278,-11.109 39.646,0 -9.845,42.506 c -2.927,1.1974 -5.5656,2.2728 -7.9159,3.2262 -2.3504,0.95345 -5.2995,1.9402 -8.8472,2.9601 -3.06,0.88693 -6.2197,1.6186 -9.4791,2.1952 -3.2595,0.5765 -6.7518,0.86475 -10.477,0.86475 z"
         inkscape:connector-curvature="0" />
      <path
         id="path3235"
         d="m 226.56,439.32 c -12.55,0 -22.395,-3.2484 -29.535,-9.7452 -7.1398,-6.4968 -10.71,-15.71 -10.71,-27.639 -1e-5,-9.1354 1.3747,-17.65 4.1242,-25.544 2.7495,-7.8936 6.6963,-14.812 11.841,-20.754 5.0998,-5.8537 11.375,-10.477 18.825,-13.869 7.4502,-3.3924 15.765,-5.0887 24.945,-5.0888 5.7206,10e-5 11.131,0.69856 16.231,2.0954 5.0998,1.397 10.333,3.6033 15.699,6.6187 l -2.9934,14.9 -0.9978,0 c -1.4635,-1.4634 -2.9381,-2.827 -4.4236,-4.091 -1.4857,-1.2638 -3.7141,-2.6496 -6.6853,-4.1575 -2.4391,-1.286 -5.3438,-2.3614 -8.7141,-3.2262 -3.3704,-0.86467 -7.0955,-1.297 -11.175,-1.2971 -6.2086,9e-5 -11.907,1.2972 -17.096,3.8914 -5.1886,2.5944 -9.6898,6.2197 -13.504,10.876 -3.7252,4.5234 -6.652,10.022 -8.7806,16.497 -2.1287,6.4747 -3.193,13.371 -3.193,20.688 -2e-5,9.1354 2.3725,16.242 7.1176,21.32 4.745,5.0777 11.597,7.6165 20.555,7.6165 4.2129,10e-6 8.2152,-0.47672 12.007,-1.4302 3.7916,-0.95344 7.2395,-2.1619 10.344,-3.6253 2.8825,-1.3747 5.4767,-2.816 7.7828,-4.3238 2.3059,-1.5078 4.2794,-2.9047 5.9203,-4.1908 l 0.93128,0 -3.1264,15.3 c -4.6565,2.3504 -10.011,4.4679 -16.065,6.3527 -6.0534,1.8847 -12.495,2.8271 -19.324,2.8271 z"
         inkscape:connector-curvature="0" />
      <path
         id="path3237"
         d="m 321.82,439.32 c -12.55,0 -22.395,-3.2484 -29.535,-9.7452 -7.1398,-6.4968 -10.71,-15.71 -10.71,-27.639 -10e-6,-9.1354 1.3747,-17.65 4.1242,-25.544 2.7495,-7.8936 6.6963,-14.812 11.841,-20.754 5.0998,-5.8537 11.375,-10.477 18.825,-13.869 7.4502,-3.3924 15.765,-5.0887 24.945,-5.0888 5.7206,10e-5 11.131,0.69856 16.231,2.0954 5.0998,1.397 10.333,3.6033 15.699,6.6187 l -2.9934,14.9 -0.9978,0 c -1.4635,-1.4634 -2.9381,-2.827 -4.4236,-4.091 -1.4857,-1.2638 -3.7141,-2.6496 -6.6852,-4.1575 -2.4392,-1.286 -5.3439,-2.3614 -8.7141,-3.2262 -3.3704,-0.86467 -7.0955,-1.297 -11.175,-1.2971 -6.2086,9e-5 -11.907,1.2972 -17.096,3.8914 -5.1886,2.5944 -9.6898,6.2197 -13.504,10.876 -3.7251,4.5234 -6.652,10.022 -8.7806,16.497 -2.1287,6.4747 -3.193,13.371 -3.193,20.688 -2e-5,9.1354 2.3725,16.242 7.1176,21.32 4.745,5.0777 11.597,7.6165 20.555,7.6165 4.2129,10e-6 8.2152,-0.47672 12.007,-1.4302 3.7916,-0.95344 7.2395,-2.1619 10.344,-3.6253 2.8825,-1.3747 5.4767,-2.816 7.7828,-4.3238 2.3059,-1.5078 4.2794,-2.9047 5.9203,-4.1908 l 0.93128,0 -3.1264,15.3 c -4.6565,2.3504 -10.011,4.4679 -16.065,6.3527 -6.0534,1.8847 -12.495,2.8271 -19.324,2.8271 z"
         inkscape:connector-curvature="0" />
    </g>
    <path
       style="fill:#ffffff;fill-opacity:1;fill-rule:evenodd;stroke:#000000;stroke-width:0.2058554px;stroke-linecap:butt;stroke-linejoin:miter;stroke-opacity:1"
       d="m 77.642823,492.43007 c -0.188953,-0.76437 -2.472132,0.65719 -2.503625,1.48585 -0.03152,0.82864 2.219455,2.43903 2.393405,1.71443 0.173207,-0.72148 0.297786,-2.44154 0.11022,-3.20028 z"
       id="path4122"
       sodipodi:nodetypes="czzz"
       inkscape:connector-curvature="0" />
  </g>
</svg>
