<?xml version="1.0" encoding="UTF-8" standalone="no"?>
<svg
   xmlns:dc="http://purl.org/dc/elements/1.1/"
   xmlns:cc="http://creativecommons.org/ns#"
   xmlns:rdf="http://www.w3.org/1999/02/22-rdf-syntax-ns#"
   xmlns:svg="http://www.w3.org/2000/svg"
   xmlns="http://www.w3.org/2000/svg"
   xmlns:sodipodi="http://sodipodi.sourceforge.net/DTD/sodipodi-0.dtd"
   xmlns:inkscape="http://www.inkscape.org/namespaces/inkscape"
   width="128"
   height="128"
   viewBox="0 0 128 128"
   version="1.1"
   preserveAspectRatio="xMidYMid"
   id="svg2"
   inkscape:version="0.91 r13725"
   sodipodi:docname="ionic.svg">
  <metadata
     id="metadata28">
    <rdf:RDF>
      <cc:Work
         rdf:about="">
        <dc:format>image/svg+xml</dc:format>
        <dc:type
           rdf:resource="http://purl.org/dc/dcmitype/StillImage" />
        <dc:title></dc:title>
      </cc:Work>
    </rdf:RDF>
  </metadata>
  <defs
     id="defs26" />
  <sodipodi:namedview
     pagecolor="#ffffff"
     bordercolor="#666666"
     borderopacity="1"
     objecttolerance="10"
     gridtolerance="10"
     guidetolerance="10"
     inkscape:pageopacity="0"
     inkscape:pageshadow="2"
     inkscape:window-width="1366"
     inkscape:window-height="706"
     id="namedview24"
     showgrid="false"
     inkscape:zoom="4.0437669"
     inkscape:cx="101.68031"
     inkscape:cy="63.91065"
     inkscape:window-x="-8"
     inkscape:window-y="-8"
     inkscape:window-maximized="1"
     inkscape:current-layer="svg2" />
  <g
     id="g4"
     style="fill:#4e8ef7"
     transform="matrix(0.71263188,0,0,0.71538061,0.52372635,0.31150933)">
    <circle
       cx="89.373116"
       cy="89.270714"
       r="36.448376"
       id="circle20" />
    <path
       d="m 163.75467,27.424125 c 0,-6.923043 -5.61393,-12.532956 -12.53497,-12.532956 -3.14127,0 -6.00245,1.162541 -8.20304,3.072 C 128.07128,6.6911373 109.48969,0 89.37211,0 40.147827,0 0.10139608,40.047435 0.10139608,89.271718 c 0,49.223282 40.04743492,89.271712 89.27171792,89.271712 49.224286,0 89.270716,-40.04843 89.270716,-89.271712 0,-20.117585 -6.69114,-38.699169 -17.96217,-53.645553 1.90946,-2.198589 3.07301,-5.061773 3.07301,-8.20204 l 0,0 0,0 z M 89.37211,175.5397 c -47.567812,0 -86.2689884,-38.70118 -86.2689884,-86.268986 0,-47.567812 38.7011764,-86.2689885 86.2689884,-86.2689885 19.34155,0 37.21437,6.3989961 51.61863,17.1901495 -1.44765,2.043984 -2.306,4.535717 -2.306,7.231247 0,6.922039 5.61192,12.531953 12.53295,12.531953 2.69654,0 5.18526,-0.858353 7.23025,-2.306008 10.79115,14.404266 17.19015,32.277082 17.19015,51.620643 0.002,47.56881 -38.69717,86.26999 -86.26598,86.26999 l 0,0 0,0 z"
       id="path22"
       inkscape:connector-curvature="0" />
  </g>
</svg>
