<?xml version="1.0" encoding="UTF-8" standalone="no"?>
<svg
   xmlns:dc="http://purl.org/dc/elements/1.1/"
   xmlns:cc="http://creativecommons.org/ns#"
   xmlns:rdf="http://www.w3.org/1999/02/22-rdf-syntax-ns#"
   xmlns:svg="http://www.w3.org/2000/svg"
   xmlns="http://www.w3.org/2000/svg"
   xmlns:sodipodi="http://sodipodi.sourceforge.net/DTD/sodipodi-0.dtd"
   xmlns:inkscape="http://www.inkscape.org/namespaces/inkscape"
   width="128"
   height="128"
   viewBox="0 0 128 128"
   version="1.1"
   preserveAspectRatio="xMidYMid"
   id="svg2"
   inkscape:version="0.91 r13725"
   sodipodi:docname="ios.svg">
  <metadata
     id="metadata16">
    <rdf:RDF>
      <cc:Work
         rdf:about="">
        <dc:format>image/svg+xml</dc:format>
        <dc:type
           rdf:resource="http://purl.org/dc/dcmitype/StillImage" />
        <dc:title></dc:title>
      </cc:Work>
    </rdf:RDF>
  </metadata>
  <defs
     id="defs14" />
  <sodipodi:namedview
     pagecolor="#ffffff"
     bordercolor="#666666"
     borderopacity="1"
     objecttolerance="10"
     gridtolerance="10"
     guidetolerance="10"
     inkscape:pageopacity="0"
     inkscape:pageshadow="2"
     inkscape:window-width="1366"
     inkscape:window-height="706"
     id="namedview12"
     showgrid="false"
     inkscape:zoom="4.0437669"
     inkscape:cx="66.054147"
     inkscape:cy="73.718334"
     inkscape:window-x="-8"
     inkscape:window-y="-8"
     inkscape:window-maximized="1"
     inkscape:current-layer="svg2" />
  <g
     id="g4"
     style="fill:#000000"
     transform="matrix(0.50003644,0,0,0.50003644,0.2826034,26.261918)">
    <path
       d="m 9.463808,13.26432 c 0,2.801664 -1.705984,4.87424 -4.632576,4.87424 -2.43712,0 -4.265984,-2.072576 -4.265984,-4.87424 0,-2.68288 1.949696,-4.876288 4.509696,-4.876288 2.68288,0 4.388864,2.193408 4.388864,4.876288 l 0,0 0,0 z M 2.717696,159.768 l 0,-112.06656 4.593664,0 0,112.06656 -4.593664,0 0,0 z"
       id="path6"
       inkscape:connector-curvature="0" />
    <path
       d="m 160.10035,79.920576 c 0,56.500224 -31.36512,82.182144 -65.69779,82.182144 -35.072,0 -63.473664,-27.78112 -63.473664,-79.845376 0,-53.46304 29.390848,-82.182144 65.943552,-82.182144 35.811332,-0.002048 63.227902,28.248064 63.227902,79.845376 l 0,0 0,0 z M 35.584,81.087936 c 0,42.840064 20.762624,76.120064 59.035648,76.120064 38.539262,0 60.643332,-34.304 60.643332,-76.607488 0,-39.22944 -17.71111,-75.030528 -58.12634,-75.030528 -40.415232,0 -61.55264,33.708032 -61.55264,75.517952 l 0,0 0,0 z"
       id="path8"
       inkscape:connector-curvature="0" />
    <path
       d="m 176.95949,147.62541 c 7.70662,5.13638 21.00838,10.09664 32.44851,10.09664 21.7129,0 41.02349,-15.19002 41.02349,-37.54803 0,-20.748292 -12.86349,-31.57402 -34.70336,-40.873988 -19.54611,-8.323072 -37.12,-17.3568 -37.12,-39.53664 0,-23.11168 18.20877,-39.456768 42.9568,-39.456768 13.3079,0 23.3472,3.735552 28.01664,7.00416 l -1.85754,4.030464 c -3.96902,-2.799616 -14.6944,-6.367232 -26.36595,-6.367232 -26.15501,0 -37.54803,19.7632 -37.54803,34.312192 0,20.094976 15.57709,26.814464 35.65568,36.386816 23.3472,11.440128 35.71917,21.52448 35.71917,43.472896 0,23.58067 -16.80794,42.72333 -46.69236,42.72333 -12.37606,0 -26.6158,-4.2025 -33.61996,-9.57235 l 2.08691,-4.67149 0,0 z"
       id="path10"
       inkscape:connector-curvature="0" />
  </g>
</svg>
