<?xml version="1.0" encoding="UTF-8" standalone="no"?>
<svg
   xmlns:dc="http://purl.org/dc/elements/1.1/"
   xmlns:cc="http://creativecommons.org/ns#"
   xmlns:rdf="http://www.w3.org/1999/02/22-rdf-syntax-ns#"
   xmlns:svg="http://www.w3.org/2000/svg"
   xmlns="http://www.w3.org/2000/svg"
   xmlns:sodipodi="http://sodipodi.sourceforge.net/DTD/sodipodi-0.dtd"
   xmlns:inkscape="http://www.inkscape.org/namespaces/inkscape"
   width="128"
   height="128"
   viewBox="0 0 128 128"
   version="1.1"
   preserveAspectRatio="xMidYMid"
   id="svg2"
   inkscape:version="0.91 r13725"
   sodipodi:docname="jquery-mobile.svg">
  <metadata
     id="metadata24">
    <rdf:RDF>
      <cc:Work
         rdf:about="">
        <dc:format>image/svg+xml</dc:format>
        <dc:type
           rdf:resource="http://purl.org/dc/dcmitype/StillImage" />
        <dc:title></dc:title>
      </cc:Work>
    </rdf:RDF>
  </metadata>
  <defs
     id="defs22" />
  <sodipodi:namedview
     pagecolor="#ffffff"
     bordercolor="#666666"
     borderopacity="1"
     objecttolerance="10"
     gridtolerance="10"
     guidetolerance="10"
     inkscape:pageopacity="0"
     inkscape:pageshadow="2"
     inkscape:window-width="1366"
     inkscape:window-height="706"
     id="namedview20"
     showgrid="false"
     inkscape:zoom="2.4712042"
     inkscape:cx="59.448322"
     inkscape:cy="65.349689"
     inkscape:window-x="-8"
     inkscape:window-y="-8"
     inkscape:window-maximized="1"
     inkscape:current-layer="svg2" />
  <g
     id="g4"
     transform="matrix(0.49575536,0,0,0.49575536,0.4045267,15.101082)">
    <path
       d="m 34.337,0.0373 183.452,0 c 4.016,0 6.995,3.724 6.114,7.642 l -25.856,114.928 c -0.898,3.99 -4.441,6.825 -8.53,6.825 l -182.511,0 c -4.482,0 -7.81,-4.151 -6.836,-8.526 L 25.515,7.1103 c 0.921,-4.133 4.588,-7.073 8.822,-7.073"
       id="path6"
       inkscape:connector-curvature="0"
       style="fill:#0481a3" />
    <path
       d="m 114.6839,31.3307 136.448,0 c 3.116,0 5.429,2.888 4.749,5.928 l -22.927,102.522 c -0.798,3.564 -3.961,6.098 -7.613,6.098 l -136.863,0 c -2.818,0 -4.909,-2.612 -4.291,-5.362 l 23.214,-103.357 c 0.765,-3.408 3.791,-5.829 7.283,-5.829"
       id="path8"
       inkscape:connector-curvature="0"
       style="fill:#14bef0" />
    <path
       d="m 114.6839,31.3307 c -3.492,0 -6.518,2.421 -7.283,5.829 l -20.725,92.272 102.841,0 c 4.089,0 7.633,-2.834 8.53,-6.824 l 20.535,-91.277 -103.898,0 z"
       id="path10"
       inkscape:connector-curvature="0"
       style="fill:#73d8f4" />
    <path
       d="m 70.1124,65.5352 62.454,0 c 3.375,0 5.873,3.14 5.114,6.429 l -26.184,113.422 c -0.759,3.286 -3.685,5.614 -7.057,5.614 l -63.407,0 c -3.042,0 -5.299,-2.823 -4.628,-5.791 l 25.569,-113.169 c 0.86,-3.804 4.239,-6.505 8.139,-6.505"
       id="path12"
       inkscape:connector-curvature="0"
       style="fill:#6aba2f" />
    <path
       d="m 84.1866,140.5167 c -0.618,2.75 1.474,5.363 4.292,5.363 l 32.138,0 3.797,-16.448 -37.737,0 -2.49,11.085 z"
       id="path14"
       inkscape:connector-curvature="0"
       style="fill:#b8ec00" />
    <path
       d="m 132.5662,65.5352 -31.539,0 -14.351,63.897 37.737,0 13.267,-57.468 c 0.76,-3.289 -1.738,-6.429 -5.114,-6.429"
       id="path16"
       inkscape:connector-curvature="0"
       style="fill:#ffffff" />
    <path
       d="m 70.1123,65.5352 c -3.9,0 -7.279,2.701 -8.139,6.505 l -12.967,57.392 37.67,0 14.351,-63.897 -30.915,0 z"
       id="path18"
       inkscape:connector-curvature="0"
       style="fill:#81d958" />
  </g>
</svg>
