<?xml version="1.0" encoding="UTF-8" standalone="no"?>
<!-- Created with Inkscape (http://www.inkscape.org/) -->

<svg
   xmlns:dc="http://purl.org/dc/elements/1.1/"
   xmlns:cc="http://creativecommons.org/ns#"
   xmlns:rdf="http://www.w3.org/1999/02/22-rdf-syntax-ns#"
   xmlns:svg="http://www.w3.org/2000/svg"
   xmlns="http://www.w3.org/2000/svg"
   xmlns:sodipodi="http://sodipodi.sourceforge.net/DTD/sodipodi-0.dtd"
   xmlns:inkscape="http://www.inkscape.org/namespaces/inkscape"
   width="128"
   height="128"
   viewBox="0 0 128 128"
   id="svg2"
   version="1.1"
   inkscape:version="0.91 r13725"
   sodipodi:docname="kivy.svg">
  <defs
     id="defs4" />
  <sodipodi:namedview
     id="base"
     pagecolor="#ffffff"
     bordercolor="#666666"
     borderopacity="1.0"
     inkscape:pageopacity="0.0"
     inkscape:pageshadow="2"
     inkscape:zoom="3.959798"
     inkscape:cx="133.22633"
     inkscape:cy="63.791989"
     inkscape:document-units="px"
     inkscape:current-layer="layer1"
     showgrid="false"
     units="px"
     inkscape:window-width="1366"
     inkscape:window-height="706"
     inkscape:window-x="-8"
     inkscape:window-y="-8"
     inkscape:window-maximized="1" />
  <metadata
     id="metadata7">
    <rdf:RDF>
      <cc:Work
         rdf:about="">
        <dc:format>image/svg+xml</dc:format>
        <dc:type
           rdf:resource="http://purl.org/dc/dcmitype/StillImage" />
        <dc:title></dc:title>
      </cc:Work>
    </rdf:RDF>
  </metadata>
  <g
     inkscape:label="Capa 1"
     inkscape:groupmode="layer"
     id="layer1"
     transform="translate(0,-924.3622)">
    <g
       id="g5076"
       transform="matrix(0.20008915,0,0,0.20008308,-5.6585827,806.76467)">
      <path
         style="fill:#f9f9f9"
         d="m 304.621,1224.5606 c -17.54029,-1.9955 -47.44664,-9.2557 -65.86317,-15.9892 -30.14377,-11.0212 -67.58746,-32.3136 -92.41855,-52.5539 -14.29285,-11.6504 -35.4413,-32.9906 -47.067714,-47.4945 -27.656676,-34.5018 -50.260087,-80.6432 -61.052055,-124.62871 -6.98956,-28.48776 -8.138097,-39.60372 -8.045925,-77.87134 0.07734,-32.108 0.355068,-36.49764 3.361211,-53.125 12.193447,-67.4435 42.138067,-125.10394 89.613673,-172.5573 40.03711,-40.01837 86.34671,-66.89951 141.10649,-81.9075 31.23564,-8.56073 41.4213,-9.75166 83.95933,-9.81671 31.47448,-0.0481 40.41452,0.33973 51.25,2.22348 59.50742,10.34537 111.54323,34.24862 156.25,71.77522 63.23457,53.07874 104.88218,133.52457 110.15978,212.78281 1.63494,24.55319 0.58594,68.88933 -2.03594,86.04905 -9.64482,63.1238 -41.54569,125.1 -88.63318,172.1941 -27.6634,27.6673 -50.32748,44.0186 -83.86566,60.506 -48.81406,23.997 -87.75822,32.6912 -144.84852,32.3371 -14.52082,-0.09 -33.36222,-0.9557 -41.86977,-1.9236 z M 229.60428,986.96045 c 1.77937,-4.60544 0.93143,-29.74107 -1.07083,-31.74334 -1.19222,-1.19221 -3.13867,0.10038 -9.04417,6.00584 -9.98052,9.98053 -10.09416,12.82559 -0.89175,22.32655 3.64829,3.76665 7.31845,6.84845 8.15594,6.84845 0.83748,0 2.12034,-1.54687 2.85081,-3.4375 z m 95.71019,-56.24519 c 9.05944,-16.33077 16.81735,-31.09856 17.23982,-32.81731 0.67767,-2.75705 -1.72934,-5.60617 -20.44277,-24.19772 -11.81998,-11.74299 -21.94391,-20.82853 -22.86656,-20.52116 -1.3263,0.44184 -1.72096,9.71966 -1.98384,46.63647 -0.34406,48.31921 0.21437,54.61605 5.58418,62.96736 l 1.93536,3.00995 2.03106,-2.69265 c 1.11709,-1.48095 9.44333,-16.05417 18.50275,-32.38494 z M 202.55526,886.45139 c 5.06797,-3.98648 10.65902,-12.2429 10.65902,-15.74044 0,-2.04415 -2.47098,-5.61731 -7.43403,-10.74995 -9.61043,-9.93881 -10.54635,-9.18547 -11.09904,8.93379 -0.38735,12.69902 0.85602,20.25316 3.33356,20.25316 0.6118,0 2.65503,-1.21345 4.54049,-2.69656 z"
         id="path5128"
         inkscape:connector-curvature="0" />
      <path
         style="fill:#f4f4f4"
         d="m 321.2356,1224.1639 c -49.90764,-4.2166 -103.31773,-22.8132 -145.60952,-50.6991 -35.2143,-23.2192 -69.66554,-57.7197 -92.105909,-92.2375 C 39.256354,1013.1405 22.837248,932.97126 36.503016,851.65747 44.29438,805.29744 65.261602,757.32293 95.508808,716.64795 c 13.237582,-17.80126 45.024172,-49.84834 62.130312,-62.63949 98.94874,-73.98904 226.98895,-85.02942 335.91727,-28.96476 90.38136,46.51866 153.97288,135.29879 169.02748,235.97925 2.9196,19.52536 2.95763,73.48502 0.0652,92.5 -10.26432,67.47795 -39.6861,127.32205 -86.26577,175.46505 -48.91116,50.5527 -112.57115,83.1597 -182.00269,93.2228 -16.12534,2.3371 -55.99825,3.4018 -73.14501,1.9531 z M 234.49405,997.84233 c 0.89678,-1.67567 1.23473,-10.94573 0.98148,-26.92261 -0.39195,-24.72622 -0.77983,-26.67895 -5.31413,-26.75263 -0.64784,-0.01 -6.41347,5.21644 -12.8125,11.61547 -11.00957,11.00957 -11.63462,11.91848 -11.63462,16.91839 0,4.93966 0.70357,6.0136 10.80322,16.49039 11.3577,11.78186 15.28859,13.67346 17.97655,8.65099 z m 72.73056,-32.13188 c 5.69465,-8.63165 38.35115,-68.39774 39.10212,-71.5625 0.65382,-2.75535 -2.11957,-5.97131 -23.44596,-27.1875 -13.30311,-13.23437 -25.12603,-24.0625 -26.27316,-24.0625 -1.14714,0 -2.9773,1.36076 -4.06704,3.02391 -1.74492,2.6631 -1.92885,9.03918 -1.5415,53.4375 0.41649,47.73842 0.5806,50.78843 3.09262,57.47733 3.19388,8.50457 6.35412,13.56126 8.47525,13.56126 0.86082,0 2.95677,-2.10937 4.65767,-4.6875 z m -100.63214,-75.625 c 5.14895,-4.98437 10.1515,-10.58144 11.11678,-12.43792 4.09658,-7.87888 1.11138,-14.22182 -12.97167,-27.56208 -8.38872,-7.94626 -12.14242,-9.00958 -14.05423,-3.98112 -1.6452,4.32719 -1.58127,47.5312 0.0749,50.6258 2.31995,4.33486 6.15434,2.72579 15.83421,-6.64468 z M 65.714285,884.09146 c 0,-13.20761 2.810554,-36.54331 5.036626,-41.81851 0.580235,-1.375 2.037212,-6.85937 3.237728,-12.1875 1.200515,-5.32812 2.581426,-9.6875 3.068691,-9.6875 0.487264,0 1.268511,-1.54687 1.736105,-3.4375 0.467594,-1.89062 3.05911,-8.93169 5.758924,-15.64683 25.535361,-63.51292 72.571221,-115.21007 134.464821,-147.79037 23.00973,-12.11214 54.46522,-22.58617 80.67187,-26.86209 31.19187,-5.08931 108.41885,-2.36781 122.91486,4.33156 2.07055,0.9569 7.9768,2.6926 13.125,3.85711 5.14821,1.1645 9.64163,2.52502 9.98538,3.02338 0.34375,0.49835 3.71875,1.90722 7.5,3.13082 3.78125,1.22359 7.4375,2.66265 8.125,3.19791 0.6875,0.53526 3.78125,1.97822 6.875,3.20658 3.09375,1.22836 6.3683,2.966 7.27678,3.86141 2.41547,2.38072 4.30967,1.94571 6.87645,-1.57919 l 2.27824,-3.12864 -12.27824,-5.74652 c -14.45808,-6.76674 -40.42091,-15.51617 -55.40323,-18.6708 -5.84375,-1.23043 -12.03125,-3.19995 -13.75,-4.3767 -6.0997,-4.17617 -45.87199,-6.94293 -71.23622,-4.95555 -88.33546,6.92144 -164.22096,47.72165 -217.14093,116.74691 -21.566584,28.13 -44.351041,72.19042 -43.984275,85.05649 0.08085,2.83636 -0.504895,6.80666 -1.301666,8.82287 -4.526122,11.45329 -11.066493,44.14239 -13.209479,66.02165 l -0.82642,8.4375 5.099493,0 5.099492,0 0,-13.80649 z"
         id="path5126"
         inkscape:connector-curvature="0" />
      <path
         style="fill:#ebebeb"
         d="M 327.17699,1222.8515 C 223.8536,1214.8364 130.78273,1156.8197 77.908398,1067.4673 57.71636,1033.3447 44.38683,996.21931 37.369055,954.55718 34.084991,935.0608 34.09557,879.4693 37.387093,859.77295 c 9.315998,-55.7466 31.732428,-106.37714 66.411787,-150 10.274,-12.92356 34.45771,-36.97535 48.75577,-48.4898 45.26908,-36.45589 99.99105,-59.56981 159.40964,-67.33279 19.46513,-2.54309 61.23418,-1.89525 81.875,1.2699 53.04304,8.13384 101.35176,28.38236 144.06164,60.38322 6.70359,5.02274 19.70845,16.45313 28.89969,25.40086 28.80239,28.03933 46.83835,52.72518 63.9428,87.51861 11.80534,24.01411 17.53585,39.26293 23.18668,61.69934 6.73377,26.73621 8.25561,39.02747 8.92091,72.05066 0.47026,23.34196 0.15179,33.46772 -1.43502,45.625 -16.26724,124.63075 -100.69634,225.27955 -220.08852,262.36995 -33.79497,10.4988 -78.08581,15.3813 -114.15048,12.5836 z m -88.40858,-216.4817 c 1.6311,-2.3287 1.94587,-7.67406 1.94587,-33.04361 0,-16.64602 -0.53027,-31.66023 -1.1784,-33.3649 -1.53065,-4.02595 -5.31225,-5.14969 -9.69662,-2.88148 -1.92499,0.99588 -8.90301,7.37934 -15.50673,14.18548 -18.55321,19.12192 -18.81968,23.30746 -2.58415,40.58999 15.74385,16.75912 22.79488,20.54682 27.02003,14.51452 z m 65.3728,-33.78435 c 2.90419,-3.12625 36.10805,-62.08945 41.89656,-74.3996 2.27594,-4.84014 3.41581,-8.91034 2.9808,-10.64361 -1.02104,-4.0681 -49.47215,-51.76231 -53.64865,-52.81055 -4.60797,-1.15653 -6.946,-0.0479 -8.49589,4.02864 -0.85606,2.2516 -1.15237,21.87065 -0.86421,57.21952 0.48086,58.9883 0.48498,59.0237 8.46768,72.8556 4.19576,7.27016 5.81125,7.89705 9.66371,3.75 z M 65.714285,896.05176 c 0,-17.03662 0.5139,-21.9238 4.304695,-40.9375 23.683294,-118.78968 113.93462,-207.61671 231.50579,-227.8523 24.53632,-4.22304 67.53409,-4.49579 91.68952,-0.58164 31.10267,5.03989 57.49822,13.72256 87.79327,28.87912 8.06756,4.03618 15.38006,7.32083 16.25,7.29923 0.86995,-0.0216 2.6596,-1.517 3.97701,-3.32311 2.13903,-2.9325 2.2059,-3.621 0.625,-6.43538 -6.34801,-11.30101 -53.41172,-31.1387 -92.39528,-38.94526 -132.55311,-26.54414 -265.57683,38.07889 -326.765704,158.74303 -9.473021,18.68075 -15.414658,33.52828 -20.509057,51.25 -9.581175,33.32973 -14.304425,75.80911 -9.664028,86.91515 1.69059,4.04615 2.190091,4.33485 7.5,4.33485 l 5.688784,0 0,-19.34619 z m 134.611735,7.0353 c 8.90846,-7.04173 20.34828,-20.00912 23.16803,-26.26167 3.83733,-8.50899 1.42558,-13.14955 -15.32153,-29.48094 -11.53614,-11.24976 -14.24265,-13.30045 -17.11426,-12.96727 -6.01871,0.69833 -6.55537,3.74296 -6.57555,37.30513 -0.0155,25.74692 0.29336,31.1045 1.92745,33.4375 2.82763,4.03699 7.00995,3.42607 13.91586,-2.03275 z"
         id="path5124"
         inkscape:connector-curvature="0" />
      <path
         style="fill:#e3e3e3"
         d="m 330.71429,1222.1454 c -29.76633,-2.6522 -63.18901,-9.7889 -86.87501,-18.5503 -30.00622,-11.0992 -65.49543,-31.2817 -90.56055,-51.5011 C 74.540319,1088.5775 29.796219,986.90422 36.872154,887.58009 c 5.718587,-80.2712 38.858741,-151.10686 96.717016,-206.72851 46.17713,-44.39204 101.5386,-71.8163 167.87153,-83.15804 21.76194,-3.7209 68.5971,-4.06524 90.50359,-0.6654 66.783,10.36457 125.21357,38.90562 172.58974,84.30334 53.70977,51.46679 88.13914,121.0943 96.0921,194.32971 1.89064,17.41001 1.59415,56.67097 -0.54959,72.78017 -5.42982,40.80223 -18.82267,81.96654 -37.1006,114.03254 -49.66912,87.1372 -133.49781,144.256 -230.99471,157.3939 -13.3363,1.7971 -50.97911,3.196 -61.28695,2.2776 z m -87.84132,-208.88 c 1.99584,-3.046 2.21631,-7.0686 2.21631,-40.43574 0,-29.03431 -0.37166,-37.74771 -1.71737,-40.26218 -4.25068,-7.94245 -12.7354,-4.33449 -29.11006,12.3785 -15.61132,15.93384 -18.54757,20.35683 -18.54757,27.93886 0,4.53702 0.82972,7.00659 3.61614,10.76306 4.32241,5.8272 28.45683,29.6237 32.00886,31.5607 4.55057,2.4816 9.14128,1.7081 11.53369,-1.9432 z m 60.67068,-37.86086 c 2.3508,-2.74638 12.4637,-19.762 22.47312,-37.8125 21.58397,-38.92346 22.74813,-41.20461 24.6691,-48.33859 l 1.48246,-5.50545 -27.23348,-27.2546 c -14.97842,-14.99004 -28.79465,-27.90126 -30.70277,-28.69162 -4.82741,-1.99959 -9.56993,-0.5034 -11.31146,3.56858 -1.97816,4.62525 -2.85506,89.35064 -1.12112,108.32186 0.89385,9.77971 2.25433,16.57154 4.35508,21.74154 3.24845,7.99445 10.2027,18.96419 12.02236,18.96419 0.6009,0 3.01592,-2.24704 5.36671,-4.99341 z M 65.71453,908.07915 c 2.63e-4,-27.62904 1.803477,-42.98964 8.018616,-68.3062 17.873551,-72.8056 65.417304,-137.04536 130.156994,-175.86441 16.99727,-10.19187 20.87194,-12.14511 38.04543,-19.17889 31.98593,-13.10054 61.05985,-19.11888 97.60628,-20.20462 57.97798,-1.72245 101.13767,9.16891 154.55295,39.00148 10.45975,5.84179 19.5623,10.62144 20.22788,10.62144 1.58839,0 6.39161,-6.13964 6.39161,-8.16999 0,-0.87056 -2.67188,-4.22309 -5.9375,-7.45005 -21.82745,-21.56905 -72.53999,-42.24753 -123.06617,-50.18129 -19.81676,-3.11169 -64.73682,-3.11601 -84.74633,-0.008 -46.196,7.17511 -85.69116,22.17037 -122.76429,46.61035 C 113.04667,701.8557 64.118162,777.9486 51.135594,861.88859 c -2.65756,17.18271 -3.030494,50.91587 -0.674304,60.99309 2.416601,10.33558 3.951831,12.08142 10.107771,11.49436 l 5.145224,-0.49068 2.45e-4,-25.80621 z m 132.075,2.48396 c 6.8804,-5.49866 23.27714,-22.31459 28.30944,-29.03315 4.76084,-6.35613 4.66894,-14.42005 -0.2454,-21.53178 -6.18277,-8.94735 -30.43611,-31.69224 -34.82106,-32.65533 -4.98369,-1.09461 -8.7662,0.90386 -9.99096,5.27868 -0.52375,1.87078 -0.95227,19.7394 -0.95227,39.70803 0,32.65301 0.22304,36.64684 2.21632,39.6875 3.23555,4.93568 8.05497,4.48314 15.48393,-1.45395 z"
         id="path5122"
         inkscape:connector-curvature="0" />
      <path
         style="fill:#dbdbdb"
         d="M 319.46429,1220.2357 C 212.19632,1209.3318 115.32048,1140.4029 68.396361,1041.5964 47.841294,998.31434 38.214285,955.46992 38.214285,907.27295 c 0,-85.41033 33.295955,-163.70426 95.159875,-223.76414 48.31681,-46.90783 108.25283,-75.88484 176.09105,-85.134 20.92985,-2.85361 57.8183,-2.85361 78.74815,0 54.52923,7.43459 104.34701,27.93662 148.74829,61.21592 23.2663,17.43838 53.17947,48.99003 69.7641,73.58538 69.35717,102.85819 73.13266,234.57529 9.71452,338.91489 -46.10972,75.8626 -122.46461,128.6891 -208.85098,144.4945 -27.04908,4.949 -61.36529,6.3704 -88.125,3.6502 z m -74.09132,-200.7203 c 2.01524,-3.0756 2.21631,-7.3566 2.21631,-47.18747 0,-46.92132 -0.21575,-48.65218 -6.25342,-50.16753 -5.82901,-1.46299 -13.39899,3.87771 -30.99976,21.87066 -26.19547,26.77913 -26.23207,28.6125 -1.08363,54.26725 9.39775,9.58699 19.28059,19.04379 21.96186,21.01519 6.29303,4.627 11.21323,4.6972 14.15864,0.2019 z m 58.93113,-42.81381 c 5.07774,-6.42383 36.98611,-62.96641 43.99852,-77.9667 2.19529,-4.69594 4.24551,-10.88344 4.55605,-13.75 l 0.56463,-5.21194 -29.17746,-28.96287 c -29.32738,-29.1117 -32.53292,-31.56126 -39.13382,-29.90453 -6.76073,1.69684 -6.89773,3.02096 -6.89773,66.6677 0,63.41981 0.20519,65.74265 7.04095,79.70308 3.91529,7.99607 9.96628,15.62162 12.39598,15.62162 0.96521,0 3.959,-2.78836 6.65288,-6.19636 z m -241.348784,-22.06434 3.803532,-0.76071 -0.659372,-23.30179 c -0.362653,-12.81599 -0.05224,-32.3018 0.689808,-43.3018 8.72436,-129.32856 106.792296,-237.50825 235.019166,-259.25187 20.08497,-3.40584 70.63566,-3.76876 90.63167,-0.65068 41.037,6.39912 82.6832,23.18007 120.9847,48.74967 l 17.77674,11.86753 3.73527,-3.73527 3.73527,-3.73527 -2.4164,-4.57685 C 530.47585,664.9928 500.56301,643.35557 475.61717,632.07779 397.18873,596.62103 309.70726,594.93477 232.24942,627.38673 139.54831,666.22506 72.004587,749.13053 52.088065,848.52295 c -7.126845,35.56618 -6.7141,74.74336 1.024151,97.21103 3.672925,10.66416 3.195919,10.23269 9.8431,8.90327 z M 193.04681,917.3882 c 7.46441,-5.48926 35.35672,-33.93875 38.78077,-39.55544 5.51355,-9.04421 2.97758,-14.35606 -16.44848,-34.45312 -26.5779,-27.49593 -35.62963,-29.91933 -38.46634,-10.29856 -1.45863,10.08893 -1.47096,63.943 -0.0172,75.22227 1.80095,13.97325 6.16557,16.42829 16.15129,9.08485 z"
         id="path5120"
         inkscape:connector-curvature="0" />
      <path
         style="fill:#d3d3d3"
         d="M 329.19823,1220.3556 C 163.03576,1208.4152 34.038391,1064.3668 39.873317,897.27295 41.424574,852.84989 51.259335,812.3978 69.959573,773.52295 115.92177,677.97477 205.17918,613.67938 311.09081,599.82729 c 19.25705,-2.51862 56.2399,-2.51862 75.49695,0 55.4564,7.25309 104.91375,27.35091 148.86068,60.49202 65.87855,49.6801 109.02793,121.92939 122.17388,204.5678 3.09258,19.44063 3.78594,59.00694 1.39349,79.5171 -8.50247,72.89029 -38.32225,134.88669 -89.49066,186.05439 -25.81609,25.8157 -51.80884,44.3107 -84.49989,60.1254 -47.45239,22.9556 -102.99767,33.5679 -155.82702,29.7716 z m -81.89816,-194.6451 c 2.1681,-4.8906 2.18709,-100.73561 0.0209,-105.59014 -1.97994,-4.43716 -6.4576,-5.49934 -11.78459,-2.7955 -2.30841,1.1717 -13.53343,11.4831 -24.94446,22.91423 -31.18459,31.23947 -31.19308,30.29191 0.55726,62.16221 27.01161,27.1136 32.80754,30.8507 36.15086,23.3092 z m 56.75173,-47.11037 c 6.62525,-7.4596 43.18452,-72.39203 47.75196,-84.81157 5.10053,-13.86912 6.50067,-11.60515 -28.90197,-46.73296 -17.35938,-17.22461 -32.86873,-31.72606 -34.46522,-32.22544 -4.15732,-1.30039 -8.64502,0.15084 -10.49871,3.39505 -1.22186,2.13844 -1.68764,16.95543 -1.97654,62.87627 -0.41695,66.27537 -0.0333,70.9127 7.1021,85.84633 3.64865,7.63624 11.79464,18.45014 13.89829,18.45014 0.57894,0 3.76948,-3.05902 7.09009,-6.79782 z M 71.523773,972.42529 c 0.101467,-0.0838 -0.300042,-3.24609 -0.892242,-7.02734 -4.240481,-27.07584 -4.720867,-35.79002 -3.652154,-66.25 1.139694,-32.48304 3.115437,-45.66885 10.769645,-71.875 19.983999,-68.42035 68.482288,-129.72966 130.879738,-165.45217 25.00049,-14.31277 55.70042,-25.9785 84.58553,-32.14183 14.0729,-3.00279 18.95331,-3.39429 49.13105,-3.94126 22.19362,-0.40226 36.96465,-0.11168 43.75,0.86067 54.43756,7.80093 100.25516,27.93178 146.46057,64.35028 l 13.71663,10.81126 3.47087,-3.97536 c 3.90219,-4.46937 4.06228,-5.18256 2.0271,-9.03127 -8.02554,-15.17703 -41.8794,-41.18954 -72.65933,-55.8297 -55.78406,-26.53313 -114.30989,-35.33865 -175.27189,-26.37057 -62.68829,9.22203 -119.64404,37.42888 -165.46513,81.9452 -26.8119,26.04841 -45.83441,52.01666 -61.367518,83.77475 -10.594076,21.66004 -16.450964,37.33063 -21.890879,58.57089 -5.830837,22.7666 -8.129502,39.13835 -8.975932,63.92911 -0.98487,28.84546 2.852669,55.15273 10.724017,73.51572 l 2.578656,6.01573 5.94839,-0.86339 c 3.271615,-0.47486 6.03141,-0.93193 6.132879,-1.01572 z m 117.773037,-50.0461 c 9.01669,-6.64484 44.50279,-43.37283 46.36101,-47.98348 1.34684,-3.3418 1.36929,-5.12591 0.118,-9.375 -1.25921,-4.27589 -5.51707,-9.19304 -22.99096,-26.55087 -11.79505,-11.71671 -23.29903,-22.06108 -25.56438,-22.98748 -5.91102,-2.41729 -9.74646,-0.36948 -11.49917,6.13959 -2.04334,7.58836 -1.17711,98.44666 0.97447,102.2135 2.24469,3.92983 5.85927,3.5121 12.60105,-1.45626 z"
         id="path5118"
         inkscape:connector-curvature="0" />
      <path
         style="fill:#cccccc"
         d="m 318.83929,1219.0113 c -67.89091,-7.3347 -133.35273,-38.3315 -182.94928,-86.6284 -19.52214,-19.0106 -36.132229,-39.7665 -49.46214,-61.8079 -23.074096,-38.1536 -36.932317,-77.86697 -43.463209,-124.55205 -2.075547,-14.83674 -2.021281,-61.69234 0.08904,-76.875 14.591423,-104.97796 77.141579,-192.8674 169.446769,-238.09021 43.66514,-21.39274 79.76442,-30.27064 128.21382,-31.53165 48.28118,-1.25663 89.96994,6.73694 131.875,25.28621 133.47469,59.08261 208.76396,200.28086 182.50792,342.27729 -9.50144,51.38521 -31.4939,98.99351 -64.75711,140.18341 -10.36845,12.8392 -37.37549,39.1264 -50.25081,48.9113 -41.42872,31.4848 -86.40262,51.2109 -136.875,60.035 -14.82179,2.5913 -23.13677,3.2453 -45.625,3.5881 -15.125,0.2306 -32.5625,-0.1277 -38.75,-0.7961 z m -70.47158,-188.706 c 1.41662,-5.0694 1.22831,-110.0078 -0.20668,-115.17469 -1.65911,-5.97383 -2.73641,-6.53343 -7.72253,-4.01143 -4.89292,2.47483 -50.39503,47.18953 -52.94544,52.02919 -0.97833,1.85649 -1.77878,5.63892 -1.77878,8.4054 0,4.33503 1.0104,6.20018 7.3131,13.49958 9.15639,10.60436 39.8356,40.41895 46.73092,45.41385 5.82282,4.2181 7.39368,4.1885 8.60941,-0.1619 z M 72.705411,992.13211 c 3.529314,-0.8858 3.615466,-1.94177 1.130295,-13.85393 -5.876135,-28.16608 -6.857999,-38.027 -6.864762,-68.94333 -0.0059,-27.04501 0.340136,-32.34007 3.104303,-47.5 3.798074,-20.83032 7.877095,-36.22912 13.864413,-52.33984 35.81693,-96.37646 120.14494,-165.2871 222.25237,-181.61882 15.16637,-2.4258 20.54032,-2.66715 48.59958,-2.18266 28.17424,0.48648 33.35214,0.91209 48.42267,3.98018 52.64984,10.71857 100.35892,35.37797 143.08032,73.95393 7.16933,6.47367 13.32111,11.77031 13.67061,11.77031 1.87771,0 6.99908,-6.7738 6.99908,-9.25738 0,-5.72856 -12.01251,-20.6917 -27.47887,-34.22853 -41.82456,-36.60669 -93.10425,-59.25918 -152.52113,-67.37528 -30.91608,-4.22301 -74.06893,-2.08298 -106.74773,5.29382 -83.97719,18.95673 -158.44977,75.97775 -199.914423,153.06737 -22.663793,42.13573 -35.816514,93.96203 -35.833581,141.19678 -0.01354,37.45761 14.53042,92.8976 23.470485,89.46697 0.966623,-0.37092 3.111489,-1.01424 4.76637,-1.42959 z m 228.974019,-8.5613 c 6.79648,-5.71885 13.72203,-16.19413 29.7826,-45.04786 15.76364,-28.32026 24.21633,-47.9373 24.24108,-56.25885 0.01,-3.2599 -4.3443,-8.08936 -32.80133,-36.38336 -32.32735,-32.14215 -38.87346,-37.98279 -42.57068,-37.98279 -4.62206,0 -5.11479,6.17189 -5.5832,69.93494 -0.50759,69.09395 -0.22444,72.59924 7.13326,88.3086 4.32015,9.22391 12.64608,20.50646 15.13268,20.50646 0.55475,0 2.65427,-1.38471 4.6656,-3.07714 z m -117.0902,-55.89466 c 9.27827,-6.7002 48.17805,-45.84046 51.17682,-51.49319 2.22118,-4.18697 2.62755,-6.3485 1.92396,-10.23405 -0.77901,-4.30215 -4.0078,-8.02123 -25.49635,-29.36809 -23.41779,-23.26337 -32.64294,-30.51931 -35.35451,-27.80773 -3.02042,3.02041 -3.75752,17.71387 -3.36116,67.00154 0.22776,28.32407 0.88428,52.4827 1.45894,53.68582 1.47912,3.09676 3.37964,2.74544 9.6523,-1.7843 z"
         id="path5116"
         inkscape:connector-curvature="0" />
      <path
         style="fill:#c3c3c3"
         d="M 325.22731,1219.0296 C 196.42478,1208.4177 85.600032,1114.7358 52.540161,988.52295 c -5.060617,-19.31995 -7.769222,-35.66587 -8.595958,-51.875 -0.545665,-10.69839 -0.479854,-11.1938 0.664202,-5 6.473634,35.04759 9.636161,47.32787 16.239504,63.05898 2.126075,5.06493 5.418748,11.06937 7.317054,13.34327 l 3.451464,4.1343 5.173929,-2.3331 c 2.845661,-1.2832 5.173929,-2.7473 5.173929,-3.2535 0,-0.5061 -1.455493,-5.9051 -3.234429,-11.99761 -1.778935,-6.09254 -4.94245,-19.23359 -7.030031,-29.20234 -3.521753,-16.81729 -3.836769,-20.46986 -4.36616,-50.625 -0.512069,-29.16836 -0.295801,-34.09976 2.109674,-48.10566 5.610334,-32.66619 12.659693,-55.29108 25.55846,-82.02976 36.825191,-76.3373 106.997521,-132.87323 188.837491,-152.1412 26.0237,-6.12688 39.5156,-7.41173 71.14522,-6.77521 38.6351,0.77748 63.90639,5.52236 95.38267,17.90883 39.68118,15.61523 69.84099,35.47962 103.44834,68.13495 l 18.77376,18.24195 3.4375,-3.60536 c 4.55008,-4.77228 4.3425,-7.63289 -1.25,-17.22679 -12.07357,-20.71212 -56.89203,-58.95598 -88.4375,-75.46422 -2.0625,-1.07934 -3.17456,-1.98496 -2.47123,-2.01248 2.0427,-0.0799 26.88268,14.06948 38.98201,22.20505 74.65977,50.20112 124.26765,131.55695 134.72384,220.94413 2.19508,18.76523 2.46715,51.58815 0.57223,69.03753 C 639.98526,1111.1204 492.7205,1232.8293 325.22731,1219.0296 Z M 249.65272,1026.549 c 2.02513,-26.2055 0.68349,-119.44579 -1.75377,-121.88306 -0.3963,-0.3963 -2.03435,-0.0245 -3.6401,0.82607 -4.18838,2.21875 -55.92789,53.62243 -58.03305,57.65637 -2.24403,4.30002 -2.24945,10.1816 -0.0134,14.49915 2.5155,4.85706 59.27735,60.53257 61.10044,59.93107 0.94907,-0.3131 1.83409,-4.4849 2.33985,-11.0296 z m 120.78921,4.4273 c 5.06343,-2.0936 49.1235,-44.9704 52.23157,-50.82877 2.13783,-4.02958 2.3172,-10.12383 0.40894,-13.89425 -0.76003,-1.50168 -16.30092,-17.71259 -34.53532,-36.02425 l -33.15346,-33.29392 0.86444,-9.2249 0.86445,-9.2249 -37.28911,-36.9924 c -34.31032,-34.0373 -41.56518,-40.31386 -43.90085,-37.98091 -1.50852,1.50675 -1.71779,140.28799 -0.22242,147.49115 2.5691,12.37528 12.72899,30.47175 19.70379,35.09575 2.59636,1.72128 3.19985,1.61769 7.46665,-1.28167 l 4.64199,-3.15432 23.78611,23.67259 c 20.597,20.4988 28.85664,27.2807 33.50823,27.5135 0.5377,0.027 3.06895,-0.8158 5.625,-1.8727 z m -162.11098,-125.26585 29.91707,-29.6875 -0.0169,-6.37495 c -0.0223,-8.3882 -2.16123,-11.19969 -27.04351,-35.54535 -21.12013,-20.66464 -33.01612,-31.2047 -35.21903,-31.2047 -0.74313,0 -1.80749,2.67188 -2.36524,5.9375 -1.2484,7.30938 -1.34972,121.33934 -0.1105,124.375 0.49114,1.20313 1.79929,2.1875 2.907,2.1875 1.10771,0 15.47671,-13.35937 31.9311,-29.6875 z m 264.63291,24.16011 c 1.85649,-0.97755 13.07855,-11.56086 24.93793,-23.51846 16.71943,-16.85792 21.5625,-22.46495 21.5625,-24.96389 0,-3.70647 -1.94051,-4.74026 -8.89786,-4.74026 -7.14035,0 -70.6311,7.2646 -77.69075,8.88936 -7.26961,1.67309 -9.29193,4.56855 -6.66096,9.53685 2.02539,3.8247 31.17569,32.98425 35.12456,35.1357 3.45833,1.88419 7.63339,1.76233 11.62458,-0.3393 z"
         id="path5114"
         inkscape:connector-curvature="0" />
      <path
         style="fill:#bbbbbb"
         d="m 320.71429,1218.3519 c -85.47907,-10.5757 -157.24183,-49.8665 -209.57166,-114.7426 -26.348656,-32.6658 -48.650107,-77.7119 -57.905388,-116.96135 -1.377993,-5.84375 -2.495375,-11.1875 -2.483071,-11.875 0.01225,-0.6875 3.09225,6.85693 6.844321,16.76539 6.574493,17.36196 14.577528,32.90446 18.708042,36.33246 1.656058,1.3744 2.792034,1.2552 6.92991,-0.727 2.722037,-1.304 4.955612,-3.1534 4.9635,-4.1098 0.0079,-0.9564 -2.18992,-8.2689 -4.884018,-16.25 C 76.924751,987.85056 73.98551,976.11379 70.128334,954.1242 64.170095,920.15657 66.144608,874.42559 75.104441,838.87432 89.568124,781.48463 123.12344,728.5299 169.69423,689.59917 c 37.22817,-31.12079 85.37839,-52.90445 135.39506,-61.25412 21.24147,-3.54601 70.69566,-3.23826 91.56976,0.56983 40.54319,7.39634 74.99265,21.20026 108.85996,43.62027 24.46561,16.19613 42.30423,32.19092 65.68978,58.9 l 12.00747,13.71398 3.74901,-3.50211 c 4.4801,-4.18503 4.89221,-9.10781 1.3446,-16.06171 -4.81412,-9.43647 -18.3829,-26.19966 -34.98787,-43.22487 -14.59392,-14.96326 -15.85063,-16.54569 -8.93434,-11.25 11.91389,9.12227 31.57451,28.30013 42.83944,41.78751 80.7417,96.67129 94.90232,232.76826 35.7665,343.75005 -14.8889,27.9423 -33.49063,52.3741 -58.06614,76.2648 -45.5006,44.2328 -98.54194,71.2265 -162.33817,82.6169 -12.15949,2.171 -20.91773,2.743 -46.25,3.0208 -17.1875,0.1885 -33.21875,0.099 -35.625,-0.1986 z M 250.62163,973.39381 c 0.0986,-59.9764 -0.42547,-71.74586 -3.19446,-71.74586 -0.92454,0 -15.14726,13.35938 -31.60605,29.6875 -32.34827,32.09146 -33.77819,34.09036 -31.16267,43.56297 1.40132,5.07522 20.61535,25.51478 47.92233,50.97908 l 16.24152,15.1455 0.85333,-5.625 c 0.46934,-3.0938 0.89504,-30.9957 0.946,-62.00419 z m 121.06602,63.81419 c 5.08178,-2.1233 54.17421,-49.98412 57.24666,-55.81048 2.38235,-4.51771 2.25189,-12.70762 -0.28075,-17.62415 -1.1334,-2.20023 -17.4459,-19.50738 -36.25,-38.46033 l -34.18927,-34.45991 0,-6.04727 0,-6.04727 -27.1875,-27.43813 c -37.51993,-37.8658 -53.89048,-52.84438 -55.73743,-50.99815 -1.06689,1.06649 -1.45007,20.67412 -1.45007,74.20009 0,67.0422 0.18002,73.33391 2.29426,80.1852 3.28545,10.6466 8.5062,20.39569 14.65458,27.36561 4.86219,5.51187 5.73599,5.99919 9.81916,5.47624 4.37527,-0.56038 5.07753,0.0146 29.49332,24.14845 28.42812,28.0998 31.24839,29.8298 41.58704,25.5101 z M 191.7076,923.04838 c 8.73492,-8.16728 22.72903,-21.85369 31.09801,-30.41427 16.4675,-16.84449 18.31795,-20.29596 15.48441,-28.88167 -1.00645,-3.04958 -10.15394,-12.9347 -31.30691,-33.83148 -16.43675,-16.23765 -30.67873,-29.52301 -31.64884,-29.52301 -2.83864,0 -3.37085,11.07021 -3.35912,69.87086 0.0112,54.16427 0.55216,67.62914 2.71906,67.62914 0.62244,0 8.27846,-6.68231 17.01339,-14.84957 z m 282.50626,13.06922 c 1.85649,-0.97919 15.0067,-13.49481 29.2227,-27.8125 25.7997,-25.98422 29.30669,-30.66113 26.42136,-35.23534 -2.64796,-4.19787 -8.4296,-4.08252 -54.46834,1.08673 -48.64446,5.46182 -53.49852,6.31469 -57.24123,10.0574 -2.8991,2.8991 -3.04879,5.1489 -0.64425,9.68364 2.00371,3.77882 38.68321,40.43976 42.58518,42.56363 3.52055,1.91627 10.14563,1.75511 14.12458,-0.34356 z"
         id="path5112"
         inkscape:connector-curvature="0" />
      <path
         style="fill:#b3b3b3"
         d="m 326.96429,1218.4101 c -45.11208,-5.2194 -73.12399,-12.9323 -108.12501,-29.7717 -60.54111,-29.127 -110.70067,-78.1488 -140.575276,-137.3868 -8.180097,-16.2202 -17.246496,-39.0735 -15.996994,-40.323 0.351159,-0.3512 3.195511,4.3076 6.320783,10.3529 6.414827,12.4084 12.55753,21.3807 15.379129,22.4634 2.346487,0.9004 11.713322,-3.4295 11.733022,-5.4237 0.0079,-0.7984 -1.984394,-6.1215 -4.427293,-11.8289 C 66.530519,968.68596 60.425708,905.94741 73.758482,846.50086 89.959906,774.26394 132.70419,712.53209 195.08451,671.28026 c 42.3689,-28.01836 89.5357,-43.13223 141.41697,-45.31489 58.92799,-2.47911 110.60704,10.87313 161.08122,41.61832 32.37945,19.7232 65.78904,51.53639 89.25655,84.99164 l 5.20381,7.41852 4.33561,-4.08901 c 3.18875,-3.00738 4.33561,-5.14493 4.33561,-8.08082 0,-7.2671 -10.28796,-24.66838 -25.9761,-43.93656 -10.64838,-13.07835 -11.52756,-14.87655 -3.53953,-7.23951 9.66741,9.24264 26.00586,29.03184 34.91949,42.29463 27.20241,40.47513 43.75294,84.55347 50.32216,134.02086 2.46497,18.56167 2.75307,54.99756 0.57768,73.05951 -8.44152,70.08885 -38.94105,133.27665 -88.13137,182.58715 -47.68713,47.8037 -105.00605,76.9447 -171.92232,87.4055 -12.48099,1.9511 -59.83241,3.5709 -70,2.3945 z m 44.82433,-176.7897 c 3.77932,-1.7149 14.18461,-11.1877 33.95293,-30.9101 32.42677,-32.35143 33.48655,-33.97575 29.33255,-44.95871 -1.87577,-4.95943 -8.48994,-12.26497 -38.79813,-42.85364 -27.19679,-27.44848 -36.74493,-37.85785 -37.35077,-40.71974 -0.61287,-2.89511 -10.77807,-13.7782 -41.156,-44.0625 -22.18815,-22.11976 -40.94313,-40.21776 -41.67771,-40.21776 -0.73459,0 -1.67481,1.26563 -2.08934,2.8125 -0.41455,1.54688 -0.75309,34.3125 -0.75231,72.8125 10e-4,76.98222 0.11299,78.34637 7.69811,94.23959 4.65547,9.75469 14.60701,20.79105 19.65834,21.80131 2.4799,0.49598 8.40145,5.81421 19.52691,17.53745 20.56451,21.6693 33.41392,33.2604 39.13786,35.3051 5.9475,2.1245 6.12827,2.1132 12.51756,-0.786 z M 250.69515,969.53422 c 0.0135,-48.43868 -0.3865,-69.23943 -1.34265,-69.83036 -0.77667,-0.48 -14.7581,12.5127 -32.53988,30.23873 -33.95546,33.84901 -35.38022,35.82876 -32.55975,45.24266 1.13651,3.79335 7.95009,11.22995 32.81726,35.81805 23.81147,23.5443 31.65112,30.6072 32.49442,29.2752 0.61336,-0.9688 1.12003,-32.6724 1.1306,-70.74428 z m 222.30727,-27.93377 c 5.29094,-3.22575 47.98955,-45.06631 58.57791,-57.40077 6.56533,-7.648 7.93657,-10.00128 7.63121,-13.09651 -0.46433,-4.70654 -4.43969,-6.91153 -12.50634,-6.93679 -8.82883,-0.0276 -102.86145,10.94262 -108.64283,12.67477 -5.23967,1.56984 -9.84808,6.13754 -9.84808,9.76106 0,4.24258 7.74005,13.5798 27.10034,32.69254 26.02745,25.69466 29.12354,27.5271 37.68779,22.3057 z M 205.86195,909.47221 c 16.55455,-16.32165 30.88738,-31.19997 31.85075,-33.06292 2.51042,-4.85461 2.16046,-11.92969 -0.82938,-16.76734 -3.44411,-5.5727 -61.2704,-61.9185 -62.96567,-61.35361 -1.33373,0.44442 -2.6756,135.91131 -1.37981,139.29711 0.3289,0.85938 1.18904,1.5625 1.91146,1.5625 0.72241,0 14.85811,-13.35409 31.41265,-29.67574 z"
         id="path5110"
         inkscape:connector-curvature="0" />
      <path
         style="fill:#acacac"
         d="m 331.96429,1218.3027 c -16.28423,-1.1826 -38.97268,-4.921 -55.85911,-9.2038 -84.62995,-21.4644 -158.43765,-80.4083 -196.062174,-156.5782 -4.443296,-8.9953 -8.078721,-16.9093 -8.078721,-17.5865 0,-0.6773 2.86256,2.9469 6.361244,8.0537 7.9159,11.5543 12.213901,16.1601 15.080211,16.1601 2.877106,0 11.05855,-3.8968 11.05855,-5.2672 0,-0.5798 -1.71904,-4.4595 -3.82008,-8.6217 -42.768833,-84.72455 -44.845163,-177.97462 -5.768976,-259.09038 14.832756,-30.79037 30.767586,-53.22214 55.194396,-77.69826 43.47923,-43.56697 96.8744,-70.72125 157.28049,-79.98546 20.53373,-3.14917 76.11385,-2.10302 95.13643,1.79069 38.01086,7.78039 71.47591,21.71314 103.85274,43.23774 33.34112,22.1657 59.69993,49.18851 84.84663,86.98401 l 9.63039,14.47447 4.52478,-4.2674 c 3.88969,-3.66846 4.49643,-4.99066 4.32286,-9.42041 -0.2423,-6.18369 -7.28007,-20.48986 -17.88508,-36.35631 -4.07876,-6.10235 -7.18881,-11.32228 -6.91124,-11.59986 0.27759,-0.27758 3.56542,3.309 7.3063,7.97017 43.00232,53.58119 66.04036,119.98433 66.04036,190.34985 0,127.33905 -77.35762,240.22185 -196.56359,286.83225 -39.11547,15.2945 -88.37031,22.823 -129.68641,19.8225 z m 43.24995,-176.5153 c 2.68127,-1.9858 17.89421,-16.7514 33.80652,-32.8125 30.76159,-31.04916 31.65143,-32.30516 29.83496,-42.11216 -0.72602,-3.91981 -6.47017,-10.24621 -39.35099,-43.33979 -23.33908,-23.49013 -39.34927,-40.58946 -40.65526,-43.42102 -2.46855,-5.35214 -80.9178,-83.45398 -83.82518,-83.45398 -2.65264,0 -2.67816,146.00234 -0.0273,155.96043 4.2713,16.04517 13.49338,30.56502 23.56534,37.10283 3.58982,2.33018 16.93318,14.74599 29.65193,27.59059 12.71875,12.8447 24.8125,24.4189 26.875,25.7204 5.82935,3.6786 14.18283,3.166 20.12495,-1.2348 z M 250.71428,969.77295 c 0,-39.53125 -0.33383,-71.875 -0.74187,-71.875 -1.4036,0 -26.16571,23.97465 -45.89328,44.43382 -20.7715,21.54184 -22.40448,24.17039 -20.30616,32.68582 0.94614,3.83957 62.52679,66.63041 65.34623,66.63041 1.27496,0 1.59508,-14.4251 1.59508,-71.87505 z m 221.99996,-25.487 c 6.13517,-4.54565 67.90827,-66.88415 71.55107,-72.20596 1.48444,-2.16863 2.69898,-4.80861 2.69898,-5.86663 0,-3.46405 -5.16323,-5.81541 -12.76974,-5.81541 -8.8971,0 -116.04429,12.11719 -122.6087,13.86573 -5.40095,1.43862 -9.62379,5.09276 -9.61689,8.32177 0.009,4.2897 5.49212,11.01399 26.0408,31.93638 23.0942,23.51418 34.19884,33.37612 37.58187,33.37612 1.23615,0 4.44133,-1.6254 7.1226,-3.612 z M 207.25,908.18366 l 32.21428,-32.21428 0.005,-7.47322 0.005,-7.47321 -32.30691,-32.1875 c -17.76981,-17.70312 -32.89671,-32.1875 -33.61635,-32.1875 -1.72,0 -3.38374,50.41469 -2.39935,72.70528 0.40489,9.16834 0.75336,28.9041 0.77439,43.85722 0.029,20.64301 0.4079,27.1875 1.57394,27.1875 0.84465,0 16.03215,-14.49643 33.75,-32.21429 z"
         id="path5108"
         inkscape:connector-curvature="0" />
      <path
         style="fill:#aaaaaa"
         d="m 330.08929,1217.9065 c -48.01859,-3.4843 -97.85537,-19.4932 -137.88674,-44.2928 -45.20476,-28.0045 -87.19256,-72.4428 -108.572121,-114.9086 -3.06468,-6.0873 -5.372858,-11.2671 -5.129281,-11.5107 0.243576,-0.2435 3.445911,3.4949 7.116301,8.3077 6.292881,8.2515 11.47104,12.3959 15.488141,12.3959 0.971,0 6.01238,5.7656 11.20307,12.8125 48.48677,65.8256 119.36264,107.9897 200.28063,119.147 30.727,4.2368 69.33896,2.2122 101.25,-5.309 115.43993,-27.2082 204.86572,-122.3062 224.88626,-239.15055 9.51861,-55.55274 1.6284,-116.54171 -21.58883,-166.875 -4.0061,-8.68495 -4.46211,-10.59192 -3.46762,-14.50119 1.94335,-7.63917 -1.35739,-15.71572 -19.10541,-46.74881 l -2.85954,-5 3.88856,4.375 c 8.29305,9.33048 22.05935,31.49535 31.44251,50.625 28.91932,58.95843 38.01738,125.17484 26.1058,190 -17.65953,96.10675 -81.28674,179.28525 -169.30173,221.32445 -47.46309,22.6702 -101.99117,33.0647 -153.75,29.3091 z m -18.8125,-27.3325 c -0.65313,-0.5907 -7.26963,-2.0458 -14.70333,-3.2336 -61.56001,-9.8367 -124.14444,-46.572 -167.28634,-98.1924 -10.29007,-12.3124 -19.33493,-26.5365 -28.4441,-44.7317 -16.967985,-33.8929 -24.243483,-56.00019 -30.941411,-94.01835 -3.374441,-19.15369 -2.965407,-66.00696 0.759671,-87.0171 7.583113,-42.77017 21.195742,-77.40755 43.79484,-111.43607 41.55363,-62.56928 104.41236,-105.12297 178.75817,-121.0145 14.13745,-3.02191 18.86284,-3.39717 49.63501,-3.9417 30.65822,-0.54251 35.68031,-0.33467 50.95817,2.10897 74.85615,11.97298 142.06466,53.96682 187.13175,116.9254 28.65988,40.03775 38.21518,62.9429 49.1935,117.92246 1.34245,6.72296 1.83157,18.36821 1.83157,43.60727 0,33.51327 -0.10288,34.94039 -3.84212,53.32753 -3.90509,19.20241 -8.73029,36.11459 -14.48451,50.76779 -26.40304,67.2354 -77.30185,121.8793 -142.92337,153.4395 -21.51633,10.3481 -47.90919,18.7855 -69.60918,22.2529 -7.4337,1.1878 -14.0502,2.6429 -14.70332,3.2336 -1.55112,1.4028 -73.57389,1.4028 -75.125,0 z m 59.66845,-145.5449 c 1.84577,-0.8284 17.70114,-15.6589 35.23417,-32.9567 27.22584,-26.86054 32.0823,-32.20842 33.27664,-36.64384 2.66383,-9.89276 1.79014,-11.05522 -39.95174,-53.15561 -21.13101,-21.3125 -39.59861,-40.73716 -41.03911,-43.1659 -2.81574,-4.74745 -81.79822,-83.7091 -83.73118,-83.7091 -3.15767,0 -2.76961,144.61308 0.42337,157.77148 2.6113,10.76125 9.79261,23.96377 16.50608,30.34568 3.2592,3.09823 18.30082,17.69629 33.42582,32.44009 15.125,14.7438 29.1875,27.6778 31.25,28.7421 4.44031,2.2915 9.95993,2.4168 14.60595,0.3318 z M 251.112,986.96045 c 0.80212,-55.73228 0.1292,-89.0625 -1.79814,-89.0625 -1.52793,0 -55.76466,53.46934 -61.29198,60.42475 -4.16218,5.23759 -4.8076,6.90839 -4.8076,12.44571 l 0,6.39598 32.7811,32.86681 c 18.0296,18.0767 33.12544,32.8668 33.54632,32.8668 0.42087,0 1.1275,-25.1719 1.5703,-55.93755 z m 226.0172,-46.25 c 17.0113,-16.01614 67.38745,-67.29079 70.73756,-71.99924 8.07551,-11.34982 0.49098,-11.69705 -73.18549,-3.35049 -78.07855,8.84528 -79.46653,9.20287 -74.44376,19.17892 3.2222,6.39981 61.95883,64.60831 65.1945,64.60831 1.6586,0 6.26326,-3.32146 11.69719,-8.4375 z M 205.49682,910.6764 c 32.52284,-31.51461 36.06899,-36.12606 34.51541,-44.88426 -0.73556,-4.1467 -5.02353,-8.97036 -32.85248,-36.95669 -17.60357,-17.70312 -32.63978,-32.1875 -33.4138,-32.1875 -2.17563,0 -3.03167,18.35181 -3.03167,64.99329 0,53.99474 1.06152,80.24336 3.19574,79.02322 0.85768,-0.49034 15.07174,-13.98496 31.5868,-29.98806 z"
         id="path5106"
         inkscape:connector-curvature="0" />
      <path
         style="fill:#a4a4a4"
         d="m 311.96429,1215.9278 c -66.42827,-9.3509 -124.53892,-37.5354 -172.36341,-83.5987 -19.95159,-19.2169 -42.919731,-49.0161 -52.764959,-68.458 -1.9919,-3.9335 -3.621636,-7.4783 -3.621636,-7.8774 0,-1.3186 13.007756,14.5658 19.721825,24.0834 31.60718,44.805 75.20031,81.1217 122.77817,102.2843 26.6555,11.8564 59.02143,20.8092 88.12501,24.3765 6.875,0.8427 22.625,1.5322 35,1.5322 24.7572,0 40.0511,-1.5049 62.00643,-6.1013 81.7808,-17.1209 152.87129,-68.2214 196.62058,-141.3325 19.54054,-32.6549 32.63543,-70.09504 39.06368,-111.68835 3.09102,-20 3.0931,-63.72626 0.004,-83.75 -4.53343,-29.38615 -12.87778,-58.21905 -23.44292,-81.00421 -2.77234,-5.97894 -6.05031,-13.72185 -7.28439,-17.20649 -1.23406,-3.48464 -5.30916,-12.31121 -9.05576,-19.6146 -3.7466,-7.3034 -6.30343,-12.96459 -5.68185,-12.58042 2.83472,1.75195 19.38535,28.74753 25.92174,42.28072 15.10605,31.27615 24.27753,61.96749 28.94913,96.875 2.28103,17.04449 1.91638,62.26756 -0.63806,79.13149 -8.21061,54.20486 -27.52539,101.01386 -58.87901,142.69236 -40.94951,54.4342 -100.25081,94.7102 -164.71758,111.8719 -27.89036,7.4247 -41.23003,9.1134 -75.36601,9.5406 -22.68221,0.2838 -34.84847,-0.1155 -44.375,-1.4565 z m 1.25,-25.6214 c -1.71875,-0.5915 -10.56318,-2.4966 -19.65427,-4.2334 -70.69735,-13.5064 -139.12785,-58.5864 -178.30396,-117.4612 -19.897648,-29.9027 -35.582996,-68.3732 -42.645494,-104.5941 -4.594746,-23.56471 -5.597154,-39.37586 -4.390031,-69.24475 1.148104,-28.40853 3.637692,-43.50952 11.437342,-69.375 27.061133,-89.7411 98.200623,-160.47439 189.191163,-188.11092 26.20312,-7.95866 46.26181,-10.63908 79.61666,-10.63908 32.76055,0 46.51027,1.55529 71.62359,8.10167 61.43043,16.01329 115.08303,51.82701 154.75503,103.30073 27.78726,36.05349 43.47575,71.01424 52.7764,117.60864 4.20385,21.06046 4.3147,22.39205 4.32895,51.99793 0.008,16.71119 -0.52217,32.74244 -1.17824,35.625 -0.65607,2.88257 -2.41388,11.70978 -3.90626,19.61603 -11.44195,60.61695 -45.43032,118.98155 -93.02588,159.74335 -37.47549,32.0949 -83.52335,54.6107 -129.72074,63.429 -9.09109,1.7354 -18.2567,3.7003 -20.36801,4.3664 -4.69694,1.482 -66.18175,1.3685 -70.53625,-0.1303 z m 58.35612,-144.9852 c 4.51422,-1.7019 64.74015,-61.64592 67.25009,-66.9352 2.63105,-5.54452 2.35692,-11.58139 -0.76005,-16.73805 -4.01705,-6.64576 -160.6706,-166.25 -163.17644,-166.25 -2.49825,0 -3.30248,31.79138 -2.37159,93.75 0.8839,58.83076 0.92069,59.46083 4.01401,68.738 4.10988,12.32594 10.49878,22.62904 17.63023,28.43151 3.18078,2.58802 17.91059,16.58784 32.73292,31.11074 14.82234,14.5228 28.07471,27.0213 29.44971,27.7744 3.21218,1.7594 10.72412,1.8179 15.23112,0.1187 z m -120.43099,-22.1107 c 1.00269,-24.17597 0.80817,-106.45112 -0.28004,-118.43755 l -0.79437,-8.75 -29.82518,29.375 c -16.40383,16.15625 -31.44525,31.56877 -33.42536,34.25005 -5.28481,7.15621 -5.05406,14.73636 0.6771,22.24224 4.21637,5.522 60.64805,60.95386 62.08952,60.98936 0.40798,0.01 1.10923,-8.841 1.55833,-19.6691 z M 508.28335,910.71045 c 38.11465,-38.22356 47.35287,-48.655 45.60052,-51.49035 -1.57529,-2.54886 -19.93009,-1.26891 -80.37825,5.6051 -60.36352,6.8644 -74.18586,8.96728 -76.9211,11.70251 -2.91037,2.91038 3.92052,11.19787 34.87182,42.30774 23.19566,23.3145 32.16611,31.5625 34.32709,31.5625 2.17494,0 13.07862,-10.18214 42.49992,-39.6875 z m -301.53693,-1.25 c 35.28502,-34.80692 36.04397,-35.85934 32.8465,-45.54774 -1.59779,-4.84135 -65.6642,-69.6451 -67.26855,-68.04273 -1.26965,1.26808 -2.06847,110.34587 -0.95545,130.46547 0.4659,8.42188 1.27478,15.3125 1.79749,15.3125 0.52272,0 15.63372,-14.48437 33.58001,-32.1875 z"
         id="path5104"
         inkscape:connector-curvature="0" />
      <path
         style="fill:#989898"
         d="m 320.71429,1216.5652 c -71.44198,-7.8614 -137.27706,-39.8022 -185.65353,-90.0722 -6.20319,-6.446 -14.03579,-15.3763 -17.40578,-19.845 -5.02268,-6.6603 -3.46823,-5.3561 8.6228,7.235 49.70157,51.7568 106.7949,81.8432 177.56151,93.5691 10.64082,1.7632 20.67498,2.2825 44.375,2.2969 34.40233,0.021 47.4616,-1.4854 75.75954,-8.7381 99.02222,-25.379 179.46082,-100.4638 211.56972,-197.4879 11.27862,-34.08092 15.50919,-60.80583 15.4343,-97.50005 -0.0952,-46.68881 -8.56328,-84.63566 -29.08438,-130.33306 -4.77355,-10.62999 -8.67918,-19.67488 -8.67918,-20.09976 0,-4.59212 19.11481,33.00546 25.64033,50.43282 6.49523,17.34646 13.73848,46.9215 16.21269,66.1983 2.44899,19.08018 2.77229,56.89565 0.63632,74.4267 -15.93454,130.78335 -110.60891,235.87335 -238.11434,264.31065 -25.63654,5.7176 -71.6601,8.3813 -96.875,5.6066 z m 3.75,-26.1933 c -43.15848,-3.5742 -94.23036,-21.5434 -130.70649,-45.9878 -65.34597,-43.7915 -105.651141,-104.3587 -121.461877,-182.52251 -3.311217,-16.36972 -3.456638,-18.63998 -3.456638,-53.96364 0,-35.55742 0.123813,-37.45563 3.46518,-53.125 12.662259,-59.3798 38.171825,-106.76715 79.595495,-147.85909 41.77467,-41.4401 94.52349,-68.09574 153.81433,-77.72722 20.05266,-3.25745 63.29836,-3.56447 83.58957,-0.59345 28.50342,4.17345 54.24119,12.07678 80.83569,24.82233 29.58997,14.18114 50.95872,29.0344 74.69846,51.92234 28.83366,27.79909 50.67752,58.93359 64.93985,92.56009 24.69321,58.21953 28.60365,126.10372 10.83687,188.125 -37.01064,129.19885 -162.01988,215.45735 -296.15044,204.34895 z m 45.90271,-144.107 c 2.47002,-0.9149 16.59459,-13.9511 36.52187,-33.7075 27.08686,-26.85464 32.71695,-33.04295 33.83298,-37.18751 2.63301,-9.77831 1.11977,-12.0381 -26.34834,-39.34694 -13.8302,-13.75 -38.49633,-39.34375 -54.81361,-56.875 -25.83045,-27.75216 -81.94522,-83.62935 -85.13675,-84.7763 -0.61417,-0.22071 -1.45148,0.9327 -1.86069,2.56315 -0.40921,1.63045 -0.54631,36.40478 -0.30465,77.2763 0.5822,98.46644 -3.15809,87.44225 46.1625,136.0599 19.08376,18.8118 35.72731,34.1877 38.32582,35.4067 5.3608,2.5148 8.0984,2.6328 13.62087,0.5872 z M 251.87163,965.78423 c 0.0675,-49.36849 -0.29305,-67.97712 -1.32958,-68.61773 -0.85849,-0.53057 -14.41983,12.19845 -34.21353,32.11374 -28.25109,28.42462 -32.9081,33.64214 -33.63495,37.68315 -1.59354,8.8594 1.56368,12.98422 35.63754,46.55961 l 31.714,31.25 0.86694,-5.625 c 0.47681,-3.0938 0.90862,-36.1075 0.95958,-73.36377 z m 261.65516,-60.17868 c 25.26562,-25.33247 45.9375,-46.99246 45.9375,-48.13333 0,-1.35453 -1.03799,-2.07427 -2.99149,-2.07427 -6.04953,0 -142.92516,15.3288 -156.38187,17.51333 -4.12591,0.66978 -7.92352,1.22203 -8.43915,1.22723 -3.87121,0.039 3.66477,8.68566 35.54225,40.78071 20.06385,20.2008 37.36073,36.73247 38.4375,36.73704 1.07677,0.005 22.62963,-20.71825 47.89525,-46.05071 z m -304.29167,1.69672 c 15.3427,-15.14112 28.70208,-29.04826 29.6875,-30.90474 2.33849,-4.40563 2.2734,-10.23158 -0.1719,-15.38467 -2.46245,-5.18921 -65.07694,-67.29643 -66.78305,-66.24201 -1.37619,0.85054 -1.80197,140.32619 -0.44385,145.39749 0.77521,2.89472 0.77645,2.89443 5.29543,-1.22068 2.48602,-2.26383 17.07316,-16.50426 32.41587,-31.64539 z"
         id="path5102"
         inkscape:connector-curvature="0" />
      <path
         style="fill:#878787"
         d="m 340.08929,1217.0542 c -53.38167,-2.2931 -107.57248,-19.1984 -149.06251,-46.5014 -13.40325,-8.8201 -15.51638,-11.3116 -3.125,-3.6845 11.47979,7.0661 40.78223,21.0582 55.57347,26.5368 15.37779,5.6959 42.41865,12.5022 60.98904,15.3512 20.66142,3.1699 67.48012,3.1229 88.125,-0.088 86.63566,-13.476 160.56231,-60.4517 208.74638,-132.6451 26.79448,-40.1457 43.34592,-85.3122 49.47125,-134.99996 3.63237,-29.46515 1.23022,-72.58887 -5.77117,-103.60457 -3.45746,-15.31635 -3.7693,-18.74595 -1.03615,-11.39543 2.86444,7.70361 7.56369,28.45961 10.04667,44.375 3.08774,19.79171 3.08807,63.51888 6.2e-4,83.75 -7.36064,48.23196 -23.10428,89.03416 -49.64528,128.66376 -40.12536,59.9129 -101.63549,104.2917 -170.85289,123.2681 -30.15673,8.2677 -63.98808,12.2403 -93.45943,10.9743 z m -20.66877,-27.0891 c -0.31968,-0.3044 -8.70006,-2.0388 -18.62309,-3.8541 -40.4436,-7.3987 -72.99826,-20.2293 -105.70815,-41.6624 -64.1007,-42.0019 -106.047209,-104.2853 -122.138787,-181.35537 -3.529014,-16.90209 -3.867743,-20.73937 -4.375729,-49.57028 -0.489544,-27.78427 -0.255,-32.98286 2.114852,-46.875 10.544315,-61.81105 34.754524,-110.84039 75.971314,-153.85344 42.18063,-44.01889 94.66279,-71.85684 156.55336,-83.04013 15.73458,-2.84315 61.84961,-3.96899 78.21203,-1.90944 81.0329,10.19966 150.8114,51.79244 198.26238,118.17801 25.04471,35.03842 38.90231,68.35721 47.30971,113.75 3.38741,18.28911 3.70429,22.35248 3.70429,47.5 0,25.17106 -0.31562,29.2092 -3.7267,47.68215 -4.46601,24.18594 -10.25773,43.85412 -18.78658,63.7977 -26.99249,63.1184 -77.7833,115.6391 -140.60013,145.3888 -16.3991,7.7665 -48.55973,17.9749 -69.375,22.021 -16.15986,3.1411 -21.38241,3.5683 -48.16877,3.9396 -16.52407,0.2291 -30.30532,0.1674 -30.625,-0.1371 z m 52.93844,-143.4492 c 3.89148,-1.9698 65.65765,-63.55855 67.81318,-67.61838 2.16977,-4.08665 2.26947,-13.12586 0.18534,-16.80388 -3.18586,-5.62237 -164.44928,-169.19569 -166.80638,-169.19569 -1.26506,0 -1.58306,15.27085 -1.56834,75.3125 0.0205,83.78599 0.0246,83.83564 8.38125,100.77284 4.12148,8.35346 7.61077,12.24926 37.50563,41.87501 18.12876,17.9656 34.75446,33.649 36.94601,34.8522 4.49876,2.4697 13.44402,2.8804 17.54331,0.8054 z M 251.96428,969.77295 c 0,-57.08942 -0.34925,-74.375 -1.50275,-74.375 -2.17713,0 -60.44501,58.3471 -64.81367,64.9018 -3.90046,5.85224 -4.73633,11.93266 -2.3016,16.74288 1.95566,3.86373 65.14182,67.10537 67.04651,67.10537 1.24441,0 1.57151,-15.4808 1.57151,-74.37505 z m 257.85989,-59.0625 c 23.27605,-23.20312 45.2276,-45.51405 48.78123,-49.57984 l 6.46115,-7.39232 -10.61364,0.86788 c -10.55957,0.86348 -118.36761,12.79498 -149.36362,16.53061 -8.9375,1.07715 -16.78784,2.48002 -17.4452,3.11751 -1.43248,1.38916 75.19035,78.64366 78.00063,78.64366 1.02265,0 20.90341,-18.98437 44.17945,-42.1875 z m -304.94155,1.47508 c 17.29156,-16.89183 32.47438,-32.34737 33.7396,-34.34564 2.52589,-3.98938 3.08654,-13.29966 1.02473,-17.01698 -1.7877,-3.2231 -67.45508,-68.56921 -68.17893,-67.84537 -2.0176,2.01761 -1.415,149.92041 0.61083,149.92041 0.75051,0 15.51221,-13.82059 32.80377,-30.71242 z"
         id="path5100"
         inkscape:connector-curvature="0" />
      <path
         style="fill:#777777"
         d="m 324.46429,1215.3481 c -16.12758,-1.5511 -36.62812,-5.4943 -52.84838,-10.1652 -15.31458,-4.4101 -17.36234,-6.4429 -2.52035,-2.5019 101.12366,26.851 211.42129,-0.7035 286.5878,-71.5954 58.86644,-55.5187 92.20965,-126.1298 97.50926,-206.49601 2.10301,-31.89118 2.2945,-32.45415 1.85099,-5.44164 -0.78166,47.60718 -9.5514,84.08265 -30.50435,126.87505 -44.64221,91.1731 -129.67004,152.9667 -230.5684,167.5647 -15.90039,2.3005 -53.88781,3.2626 -69.50657,1.7604 z m 1.25,-25.758 c -13.26712,-1.289 -46.72532,-8.204 -59.85248,-12.3701 -75.2269,-23.8741 -134.40885,-74.3344 -168.246037,-143.4517 -20.259224,-41.38237 -29.421982,-80.18317 -29.378588,-124.40719 0.04457,-45.4224 8.934513,-84.13098 28.613325,-124.58816 32.48701,-66.78924 87.10175,-115.824 158.10307,-141.94973 48.93683,-18.00686 110.01744,-21.01569 162.10843,-7.98547 28.11227,7.03211 61.09732,21.349 84.90228,36.85114 46.29079,30.14527 84.50395,75.14872 105.57403,124.33406 24.0706,56.18964 29.33415,115.61753 15.55519,175.625 -22.17646,96.57865 -95.95406,175.77685 -191.5084,205.57895 -25.53765,7.9648 -50.36363,11.9822 -77.12083,12.4797 -12.71875,0.2365 -25.65625,0.1841 -28.75,-0.1165 z m 46.79284,-142.9051 c 3.17997,-1.5411 16.85339,-14.2903 36.53181,-34.0625 26.37113,-26.49681 31.70168,-32.45741 33.01036,-36.91205 3.18972,-10.85754 2.6399,-11.60402 -42.40822,-57.57681 C 301.95519,818.4426 275.07225,791.64795 272.73862,791.64795 c -2.34862,0 -2.38432,1.65164 -1.66836,77.1875 0.8086,85.31096 0.66425,83.72215 9.13442,100.54165 4.04843,8.03909 8.12178,12.5273 38.85599,42.8132 39.43548,38.8602 41.58101,40.245 53.44646,34.4947 z M 252.45042,970.83331 c 0.62153,-52.39086 0.48696,-74.96226 -0.45252,-75.90175 -0.94949,-0.94949 -10.77513,8.0743 -33.89315,31.12714 -17.90582,17.85534 -33.36253,33.98319 -34.34825,35.83967 -3.0183,5.68461 -2.28928,13.69093 1.75278,19.24953 3.83865,5.27888 63.62362,64.2501 65.13669,64.2501 0.50592,0 1.31793,-33.5541 1.80445,-74.56469 z m 249.08345,-50.74786 c 38.43643,-37.99876 64.88917,-65.64541 63.82691,-66.70767 -0.65133,-0.65133 -168.57748,17.47715 -176.20899,19.02266 -1.89063,0.38289 -3.43933,1.35459 -3.44157,2.15934 -0.005,1.94584 77.8874,79.58817 79.84493,79.58817 0.83815,0 17.02857,-15.32812 35.97872,-34.0625 z m -294.50847,-9.375 c 29.48577,-29.37039 33.67186,-34.02232 34.41561,-38.24558 1.73002,-9.82364 0.31665,-11.71357 -35.55331,-47.5411 -19.76332,-19.73992 -34.21324,-33.24423 -35.03119,-32.73872 -0.99451,0.61465 -1.39223,19.71071 -1.39223,66.84808 0,66.41352 0.61622,85.11482 2.80454,85.11482 0.65324,0 16.29369,-15.04687 34.75658,-33.4375 z"
         id="path5098"
         inkscape:connector-curvature="0" />
      <path
         style="fill:#626262"
         d="m 374.16636,1213.2639 c 1.55489,-0.299 3.80489,-0.2877 5,0.025 1.19511,0.3129 -0.0771,0.5575 -2.82707,0.5437 -2.75,-0.014 -3.72782,-0.2699 -2.17293,-0.5689 z m 11.86043,-1.2276 c 1.20312,-0.3144 3.17187,-0.3144 4.375,0 1.20312,0.3144 0.21875,0.5717 -2.1875,0.5717 -2.40625,0 -3.39063,-0.2573 -2.1875,-0.5717 z m 21.5625,-3.504 c 30.04618,-6.7406 55.71257,-15.7295 78.65377,-27.5459 61.25814,-31.5524 107.61256,-78.8733 138.32936,-141.2134 4.74251,-9.625 8.62705,-17.1751 8.63232,-16.7781 0.0234,1.7679 -7.01533,17.8142 -12.56866,28.6531 -33.09928,64.6022 -90.20887,115.9311 -159.20525,143.0903 -16.36266,6.4409 -48.30177,15.03 -60.09154,16.16 -5.93647,0.5689 -4.63352,0.076 6.25,-2.366 z m -92.5,-20.724 c -2.75,-0.6148 -12.40489,-2.5233 -21.45532,-4.241 -71.32881,-13.5377 -138.29686,-58.5368 -178.651,-120.0443 -21.276495,-32.4296 -34.587395,-66.04115 -42.572281,-107.50005 -3.07508,-15.96634 -3.368407,-20.07435 -3.34704,-46.875 0.02128,-26.68226 0.340571,-31.09376 3.483215,-48.125 1.902886,-10.3125 4.820831,-23.47011 6.484321,-29.23914 29.804355,-103.36223 113.910445,-180.04824 219.725765,-200.3409 17.0957,-3.27852 67.62253,-4.6748 85.321,-2.3578 53.41203,6.99245 104.68821,29.40563 145.49217,63.59568 44.31776,37.13428 77.13401,88.69559 91.03869,143.04111 7.7374,30.24111 9.13511,42.853 8.52378,76.91193 -0.5172,28.81387 -0.82224,32.14882 -4.54046,49.63912 -12.18885,57.33585 -37.47179,104.40525 -77.56397,144.40125 -36.49797,36.4103 -79.6193,61.1553 -128.49109,73.7339 -25.84442,6.6519 -35.80007,7.8546 -67.82278,8.1937 -16.84375,0.1784 -32.875,-0.1787 -35.625,-0.7935 z m 57.26967,-140.0755 c 3.87178,-2.0067 63.27219,-60.65267 67.41783,-66.56152 3.76363,-5.36437 4.64481,-13.67818 1.97862,-18.668 -0.80239,-1.50168 -17.88857,-19.60533 -37.96931,-40.23033 -20.08073,-20.625 -40.46714,-42 -45.30311,-47.5 -4.83599,-5.5 -25.94416,-27.09716 -46.90703,-47.99369 -29.47769,-29.38438 -38.61076,-37.8032 -40.30514,-37.15301 -2.06811,0.79361 -2.14038,5.06701 -1.29062,76.30359 1.00355,84.12888 1.17145,85.96291 9.39783,102.65481 4.6447,9.42439 7.10207,12.19549 38.79683,43.74995 18.61093,18.5286 35.37398,34.3661 37.25124,35.1945 4.36211,1.9248 13.40232,2.0336 16.93286,0.2037 z m -119.92593,-4.9911 c 0.42969,-2.1484 0.78125,-36.7422 0.78125,-76.875 0,-59.23752 -0.30742,-72.96875 -1.63368,-72.96875 -0.89854,0 -16.56843,15.04688 -34.822,33.4375 -35.34299,35.60836 -37.18688,38.0833 -35.4494,47.58147 0.71931,3.93229 5.8068,9.58842 34.78102,38.66858 18.66616,18.7343 34.30366,34.0625 34.75001,34.0625 0.44635,0 1.16312,-1.7579 1.5928,-3.9063 z m 265.17729,-138.8974 49.97897,-50.30365 -5.12088,-0.38386 c -6.06314,-0.45449 -176.95644,18.32649 -178.30426,19.59544 -1.24075,1.16813 79.15391,81.38542 81.57117,81.39119 1.04283,0.003 24.38658,-22.63211 51.875,-50.29912 z m -311.81094,9.05365 c 35.73218,-34.70519 38.35224,-38.12006 36.74864,-47.89655 -0.7866,-4.7956 -3.73085,-8.11619 -35.56396,-40.10982 -26.50163,-26.63525 -35.2151,-34.68615 -36.85832,-34.05558 -2.01702,0.774 -2.09551,5.58703 -1.25174,76.75636 0.49511,41.76183 1.16327,76.38215 1.4848,76.93408 0.32152,0.55191 1.04308,0.83316 1.60347,0.625 0.56039,-0.20818 15.78709,-14.72224 33.83711,-32.25349 z M 633.25257,1021.023 c 0,-0.6875 0.54527,-2.0938 1.21172,-3.125 0.66645,-1.0313 1.21171,-1.3125 1.21171,-0.625 0,0.6875 -0.54526,2.0937 -1.21171,3.125 -0.66645,1.0312 -1.21172,1.3125 -1.21172,0.625 z"
         id="path5096"
         inkscape:connector-curvature="0" />
      <path
         style="fill:#5c5c5c"
         d="m 307.58929,1185.9259 c -32.53006,-5.636 -54.44172,-12.5078 -81.27283,-25.4884 -39.54856,-19.1332 -73.9498,-47.3066 -100.78525,-82.5395 -24.74083,-32.4829 -41.997229,-70.7308 -51.195511,-113.47214 -3.702125,-17.20252 -3.998118,-20.44707 -4.537832,-49.74171 -0.619663,-33.63416 0.223499,-42.75399 6.521336,-70.5362 C 101.86079,731.47406 197.79295,644.81405 313.59081,629.8094 c 18.66291,-2.41827 56.05015,-2.46302 72.74848,-0.0871 93.38578,13.28758 173.60284,70.77051 214.22347,153.5109 29.91614,60.93637 36.9755,128.77174 20.22716,194.36848 -9.50725,37.23622 -30.15216,77.96002 -54.75855,108.01572 -36.77217,44.9157 -89.33065,78.996 -144.06708,93.417 -40.60537,10.6979 -79.03911,13.0137 -114.375,6.8915 z m 66.25,-138.3615 c 3.69687,-1.8551 64.09993,-62.10185 67.096,-66.92236 2.94837,-4.74379 3.45522,-14.41865 1.00163,-19.11926 -0.86121,-1.6499 -17.67848,-19.31233 -37.37172,-39.24983 -19.69325,-19.9375 -39.58478,-40.94685 -44.20341,-46.68745 l -8.3975,-10.43744 0,-9.08632 c 0,-17.78834 -7.90265,-50.95788 -21.45178,-90.03879 -8.09352,-23.34482 -21.26783,-51.64572 -38.40444,-82.5 -4.20025,-7.5625 -9.98819,-18.33968 -12.86208,-23.94929 l -5.22526,-10.1993 -6.96572,0.67842 c -26.17963,2.54973 -86.11628,37.68692 -99.76958,58.48879 l -4.05386,6.17636 6.6845,6.90251 c 10.90933,11.26514 19.76663,23.30138 38.83229,52.76949 9.92207,15.33566 21.31406,32.92218 25.31552,39.08117 7.34634,11.30732 19.84508,27.71571 29.18796,38.31804 l 5.08122,5.7662 1.22486,41.7338 c 0.67366,22.9536 1.81498,45.06976 2.53624,49.14702 1.70532,9.64024 6.56196,21.65741 11.53525,28.54265 2.17794,3.01521 18.717,19.98764 36.7535,37.71649 23.54391,23.1423 34.12109,32.7074 37.5,33.9116 4.7676,1.6991 11.34988,1.269 15.95638,-1.0425 z m -121.47186,-1.8539 c 0.30288,-0.5157 0.75795,-35.25 1.01127,-77.18755 0.42455,-70.28369 0.29882,-76.25 -1.6068,-76.25 -1.13707,0 -17.27319,15.5547 -35.85807,34.56599 -36.21943,37.05047 -36.59971,37.57858 -34.62792,48.08912 0.7214,3.84535 5.98575,9.60181 34.82661,38.08224 18.68723,18.4536 34.36544,33.5713 34.84049,33.5949 0.47505,0.024 1.11154,-0.3791 1.41442,-0.8947 z M 508.43878,914.46045 c 47.61761,-47.22072 59.45533,-59.88268 57.6616,-61.6764 -0.82033,-0.82034 -25.9598,1.50834 -74.25067,6.87782 -40.15574,4.46496 -78.91667,8.71643 -86.13542,9.44773 -19.00502,1.92531 -22.5,2.58339 -22.5,4.23649 0,2.01736 80.3043,82.05186 82.32847,82.05186 0.88795,0 20.19116,-18.42187 42.89602,-40.9375 z m -299.14693,-4.35282 c 16.7489,-16.4801 31.22981,-31.45352 32.17978,-33.27425 2.07793,-3.98254 2.27242,-13.05302 0.36085,-16.8301 -2.26405,-4.47361 -69.04872,-70.85533 -71.28542,-70.85533 -1.39778,0 -2.20358,1.30496 -2.50851,4.0625 -0.79897,7.22474 1.06801,150.59742 1.98027,152.07349 1.23376,1.99627 4.13615,-0.60336 39.27303,-35.17631 z"
         id="path5094"
         inkscape:connector-curvature="0" />
      <path
         style="fill:#535353"
         d="m 324.46429,1188.3395 c -15.4448,-1.9817 -46.54189,-8.5419 -58.53807,-12.3491 -43.6026,-13.8379 -79.85492,-35.4597 -111.91281,-66.7477 -45.4546,-44.3628 -70.983112,-94.0038 -82.009391,-159.46975 -3.566163,-21.17325 -3.576714,-61.20997 -0.02174,-82.5 5.451031,-32.64516 11.8209,-52.94689 25.493,-81.25 27.687811,-57.31756 74.601651,-103.84404 132.324751,-131.23215 35.84127,-17.00574 70.26183,-25.1827 111.53926,-26.49728 25.11787,-0.79994 41.58013,0.5338 65.27412,5.28836 95.72831,19.20937 177.85855,92.34933 208.43201,185.61629 9.85535,30.06458 14.41887,57.93991 14.41887,88.07478 0,62.90556 -21.96609,125.92065 -61.00233,175.00005 -16.4183,20.6423 -41.49559,43.8799 -62.48051,57.8969 -9.87659,6.5971 -14.31856,9.2598 -29.45196,17.6546 -18.58644,10.3103 -50.6908,21.081 -78.9402,26.4836 -17.20227,3.2899 -23.40974,3.8787 -44.375,4.2089 -13.40625,0.2111 -26.34375,0.1312 -28.75,-0.1775 z m 48.125,-140.3312 c 3.22069,-1.504 16.41421,-13.8381 37.07502,-34.6601 26.88581,-27.09556 32.32745,-33.18472 33.63535,-37.63775 3.1136,-10.60088 1.87519,-12.38049 -33.70085,-48.42857 -34.02363,-34.47508 -48.90015,-50.99645 -48.85994,-54.26218 0.0135,-1.09821 0.83766,-6.49675 1.8314,-11.99675 3.73749,-20.68574 1.38539,-64.31904 -6.87302,-127.5 -5.35716,-40.98497 -9.93496,-83.49877 -9.97228,-92.61186 -0.0159,-3.88531 -5.00007,-5.51314 -16.88048,-5.51314 -58.87337,0 -126.41693,29.93522 -171.68264,76.08953 -19.09928,19.47421 -41.44756,51.69712 -41.44756,59.76123 0,2.19468 2.90177,4.98407 10.81819,10.39924 4.2804,2.92798 23.35576,17.79355 25.31847,19.73086 0.9689,0.95639 4.67558,3.93893 8.23705,6.62785 l 6.4754,4.88898 0.82545,32.07892 c 0.45398,17.64342 0.83032,44.78455 0.8363,60.31365 0.0112,29.6216 0.79707,41.35974 2.76833,41.35974 1.86535,0 69.72907,-66.49115 71.70059,-70.25042 0.97361,-1.85649 1.77021,-4.80572 1.77021,-6.55384 l 0,-3.17841 11.56251,6.19747 c 13.81932,7.40711 12.68328,3.74295 13.96271,45.0352 0.4793,15.46875 1.46505,30.65625 2.19055,33.75 0.72551,3.09375 3.56511,10.40625 6.31024,16.25 4.84188,10.30728 6.02441,11.6595 39.54506,45.22005 35.12624,35.168 37.279,36.8901 46.42894,37.1398 1.71875,0.047 5.375,-0.9654 8.125,-2.2495 z M 253.67656,968.90737 c 0.60517,-59.69773 0.44001,-77.32677 -0.7312,-78.05063 -1.58364,-0.97874 -65.27134,63.01484 -69.83084,70.16621 -2.85131,4.47215 -3.14662,13.05579 -0.61745,17.94669 2.49628,4.82725 68.32203,69.34526 69.46419,68.08416 0.51346,-0.567 1.28534,-35.7329 1.7153,-78.14643 z m 262.95042,-62.56259 c 27.01122,-26.97925 49.4385,-50.08414 49.83843,-51.3442 0.39992,-1.26007 0.41688,-2.60129 0.0376,-2.9805 -0.37922,-0.37922 -34.60246,3.0235 -76.05164,7.56156 -41.44919,4.53806 -81.54966,8.84891 -89.11216,9.57965 -16.13193,1.55877 -19.375,2.1605 -19.375,3.59481 0,1.86484 81.80044,82.59684 83.71321,82.61979 1.01102,0.0125 23.93828,-22.05186 50.94948,-49.03111 z"
         id="path5092"
         inkscape:connector-curvature="0" />
      <path
         style="fill:#4b4b4b"
         d="M 324.46429,1187.9226 C 235.3326,1177.884 161.16635,1132.8752 113.25219,1059.7458 99.51212,1038.7749 84.762599,1004.7952 78.138653,978.85172 64.7353,926.35599 66.728011,869.5298 83.721757,819.6382 108.30629,747.46096 158.96286,690.05816 227.58928,656.61099 c 24.9297,-12.15025 47.82717,-19.70283 73.97646,-24.40066 16.79142,-3.01664 53.18085,-4.53542 72.27355,-3.01647 93.85482,7.46682 178.81815,64.08204 223.77136,149.10981 18.57395,35.13214 29.82302,77.69954 31.4394,118.96928 2.6637,68.01018 -21.40188,137.96055 -65.6186,190.73085 -51.60414,61.5867 -128.9481,98.7946 -208.96716,100.5279 -11.34375,0.2457 -24.84375,-0.028 -30,-0.6091 z m 47.98353,-139.4163 c 2.1925,-1.0404 18.96957,-16.931 37.28237,-35.3125 28.65577,-28.76324 33.41558,-34.07411 34.15416,-38.10835 1.97314,-10.77771 1.67399,-11.19535 -34.51465,-48.18492 -18.5178,-18.92765 -35.95298,-37.37472 -38.74481,-40.99347 l -5.07609,-6.57955 3.27807,-10.37692 c 5.81556,-18.40955 10.13738,-50.20766 11.35596,-83.55264 0.28894,-7.90625 0.88757,-17.46875 1.33029,-21.25 0.44273,-3.78125 0.98603,-11.375 1.20735,-16.875 0.22132,-5.5 0.71128,-13.09375 1.08882,-16.875 1.53551,-15.37916 2.10621,-22.20636 2.40331,-28.75 0.17167,-3.78125 1.01257,-8.17658 1.86865,-9.7674 1.21767,-2.26275 1.22796,-3.28829 0.0472,-4.71095 -1.19852,-1.44412 -1.08714,-2.28498 0.54099,-4.08404 1.12763,-1.24602 1.74553,-2.57019 1.37313,-2.9426 -0.37241,-0.37241 -0.0391,-4.54551 0.74072,-9.27356 0.77982,-4.72805 1.55541,-10.0027 1.72354,-11.72145 0.16814,-1.71875 0.6131,-3.96875 0.98881,-5 1.45968,-4.00667 3.62172,-12.76307 3.24273,-13.13328 -1.81776,-1.77567 -17.67537,-5.67348 -27.53737,-6.7687 -17.15366,-1.90501 -48.03745,-1.63254 -63.46452,0.5599 -84.7569,12.04537 -158.97593,65.19519 -197.78005,141.63449 -7.18211,14.14788 -14.742195,35.04875 -14.742195,40.75682 0,1.79943 1.388844,4.12102 3.4375,5.74612 4.546675,3.60665 58.201515,30.20935 64.999995,32.22776 l 5.3125,1.57724 0.16727,10.26232 c 1.0638,65.2681 1.7169,79.01233 3.75447,79.01233 1.1257,0 16.01203,-13.37895 33.08071,-29.731 17.06869,-16.35205 32.244,-30.0347 33.72292,-30.40589 1.4789,-0.37117 5.03926,-0.042 7.9119,0.73153 l 5.22297,1.40641 -4.11761,5.21732 c -2.2647,2.86953 -16.8019,18.16929 -32.30491,33.99948 -15.50302,15.83019 -29.42489,30.40489 -30.9375,32.38822 -3.26178,4.27684 -3.74969,14.00144 -0.96675,19.2685 2.76121,5.22597 67.79456,69.40878 69.35277,68.44578 0.93103,-0.5754 1.38614,-12.2228 1.43426,-36.7066 0.0835,-42.49283 1.82809,-118.80401 2.73678,-119.7127 0.50559,-0.50557 12.08649,1.80007 12.22976,2.43484 0.0204,0.0902 0.56713,12.25786 1.21499,27.03911 1.28571,29.33382 2.33653,34.71546 9.6404,49.37292 3.81135,7.64864 8.56094,12.98512 37.67189,42.32693 21.54406,21.7149 35.07689,34.3997 38.31069,35.91 6.09168,2.8451 12.05268,3.0163 17.35853,0.4985 z m 145.7379,-143.7202 c 39.93078,-39.97576 50.23265,-50.93406 49.02155,-52.14516 -1.21108,-1.21109 -16.56793,0.1075 -73.07565,6.27445 -39.34828,4.29426 -80.54233,8.6971 -91.54233,9.78407 -11,1.08696 -20.50148,2.4434 -21.11441,3.0143 -1.35235,1.25963 81.55824,83.54833 84.26019,83.62817 1.04268,0.0309 24.64548,-22.7193 52.45065,-50.55583 z"
         id="path5090"
         inkscape:connector-curvature="0" />
      <path
         style="fill:#434343"
         d="m 315.08929,1186.5738 c -2.75,-0.597 -12.40378,-2.5012 -21.45284,-4.2317 -40.47584,-7.7402 -78.79622,-24.9743 -113.98585,-51.2637 -16.43782,-12.2804 -41.64832,-37.3592 -53.45968,-53.1804 C 62.609203,992.7306 51.71473,882.42614 97.486678,787.27295 c 7.545842,-15.6867 23.889962,-41.59772 31.933172,-50.625 2.36345,-2.65261 1.50224,-0.9247 -2.18755,4.38905 -19.69253,28.35959 -33.010967,56.52434 -40.921666,86.53778 -3.779175,14.33831 -5.506479,33.20863 -3.171843,34.65151 1.387184,0.85732 12.297293,4.1847 35.700499,10.88794 4.8125,1.37841 17.37407,4.65834 27.91462,7.28874 10.54054,2.6304 19.34614,4.97098 19.568,5.20127 0.22185,0.23028 0.87902,14.15458 1.46037,30.94289 0.77073,22.25701 1.47333,30.66203 2.59416,31.03321 0.84542,0.27997 9.84542,-7.56779 20,-17.43948 10.15456,-9.87168 22.05074,-21.20198 26.43596,-25.17845 7.6778,-6.96213 8.16393,-7.19895 13.125,-6.39355 2.83353,0.46001 5.66167,1.3164 6.28473,1.90309 1.58139,1.48905 -4.07903,8.03215 -30.81891,35.6248 -24.53687,25.3194 -26.96709,28.9459 -25.34434,37.82017 0.71967,3.93559 5.87333,9.65503 35.40655,39.29358 19.01037,19.0781 35.17538,34.6875 35.92223,34.6875 0.94635,0 1.74704,-21.5982 2.64171,-71.25783 0.70609,-39.19177 1.5155,-71.48947 1.79869,-71.77267 0.2832,-0.28319 3.11696,0.0805 6.29724,0.80829 l 5.78234,1.32318 0.76746,6.38699 c 0.4221,3.51284 0.78211,11.16824 0.80002,17.01199 0.044,14.36761 2.70778,25.94964 8.79359,38.23488 4.79302,9.6755 7.0773,12.25206 39.41268,44.45547 18.87861,18.8016 35.86221,34.8624 37.74132,35.6908 4.26617,1.8806 11.55756,2.0262 16.04454,0.3202 4.13641,-1.5727 66.21745,-62.24364 70.17813,-68.58416 3.37404,-5.40139 3.70068,-13.51585 0.77455,-19.24176 -1.12438,-2.20024 -16.81771,-18.94053 -34.87406,-37.20064 -18.05636,-18.26013 -33.9707,-35.0764 -35.36522,-37.3695 -2.20255,-3.62181 -2.31367,-4.5147 -0.84617,-6.79979 3.36133,-5.23402 10.51869,-24.21267 14.89859,-39.5055 2.46128,-8.59375 8.41263,-34.36991 13.22523,-57.28036 14.11945,-67.21583 20.21931,-88.28619 34.22913,-118.23549 6.82483,-14.58966 6.75,-14.82749 -6.30931,-20.05549 -19.63351,-7.85984 -45.62282,-12.38346 -81.66383,-14.21416 l -20.625,-1.04765 25,-0.20267 c 18.99771,-0.15401 28.90819,0.37235 41.27793,2.19231 78.95659,11.61689 148.02172,56.07652 192.38283,123.84351 22.2703,34.0206 34.4285,65.83234 41.90222,109.63654 3.63154,21.28481 3.64158,63.25495 0.0202,84.73846 -11.6424,69.06865 -43.76886,127.11515 -94.27078,170.32975 -39.26888,33.6024 -83.56079,54.5544 -135.68745,64.1861 -13.17002,2.4335 -20.33858,2.9251 -45.625,3.1287 -16.5,0.1329 -32.25,-0.2468 -35,-0.8437 z M 517.24132,905.73099 c 28.03513,-28.00434 50.97297,-51.62934 50.97297,-52.5 0,-2.45109 -7.00577,-2.02389 -55.16064,3.36354 -41.30541,4.62112 -109.54925,11.69356 -124.60044,12.91295 -3.64985,0.29569 -7.23859,1.14013 -7.97499,1.87653 -0.95187,0.95188 2.5924,5.05362 12.26108,14.1896 7.48,7.06788 26.81874,25.94774 42.97499,41.95525 16.15625,16.0075 29.64028,29.10783 29.96453,29.11182 0.32424,0.004 23.52736,-22.90537 51.5625,-50.90969 z M 318.55057,630.78171 c 1.21622,-0.31693 2.90372,-0.29608 3.75,0.0463 0.84629,0.34241 -0.14878,0.60171 -2.21128,0.57624 -2.0625,-0.0255 -2.75493,-0.30562 -1.53872,-0.62255 z"
         id="path5088"
         inkscape:connector-curvature="0" />
      <path
         style="fill:#3b3b3b"
         d="m 316.33929,1186.4204 c -3.4375,-0.6501 -12.28422,-2.2857 -19.65936,-3.6346 C 213.3409,1167.543 139.13939,1112.2424 100.93476,1036.9018 91.17235,1017.65 85.46512,1003.0498 80.217618,983.90315 67.881714,938.89304 66.421244,897.69341 75.591119,853.3903 c 3.830516,-18.50666 10.139906,-38.90035 15.621297,-50.49235 3.744003,-7.91777 3.785205,-8.09196 -2.918638,12.33816 -5.501548,16.7661 -9.010773,32.70417 -11.354224,51.56817 -1.655829,13.32886 -1.291158,32.79725 0.649731,34.68667 0.6875,0.66928 10.25,1.84126 21.25,2.60441 19.478875,1.35139 52.117165,4.34128 62.812495,5.75404 l 5.3125,0.70174 0.009,10.2359 c 0.0144,16.4527 1.33274,27.11091 3.3535,27.11091 0.9629,0 9.98197,-7.64399 20.04237,-16.98662 16.72608,-15.53279 18.60685,-16.92359 21.97475,-16.25 2.02572,0.40513 5.01907,0.73662 6.65188,0.73662 1.63282,0 2.96875,0.48024 2.96875,1.06719 0,0.58695 -8.85937,10.46927 -19.6875,21.96074 -10.82812,11.49146 -20.36525,22.40186 -21.19362,24.24532 -2.13334,4.74757 -1.87325,11.4467 0.62102,15.99581 2.35157,4.28886 67.97949,69.23099 69.96208,69.23099 2.39125,0 2.79802,-8.2633 2.79802,-56.83927 0,-26.96469 0.37004,-54.23992 0.82233,-60.6116 l 0.82231,-11.5849 5.6414,0.77325 c 3.10277,0.42527 5.8246,0.95644 6.04854,1.18037 0.22392,0.22394 0.9308,6.83197 1.57084,14.68454 1.28965,15.82272 3.16915,22.57132 9.89308,35.52256 3.95012,7.60848 9.00532,13.15301 38.74906,42.50005 18.81344,18.5625 35.41478,34.4331 36.89186,35.2682 1.47707,0.835 5.52858,1.5381 9.00336,1.5625 4.89236,0.034 7.57159,-0.7687 11.875,-3.5589 7.54011,-4.8888 65.69301,-63.63367 67.3551,-68.04072 1.68587,-4.4701 1.70346,-12.20354 0.0378,-16.5848 -0.70919,-1.86528 -15.75606,-18.08152 -33.4375,-36.03608 -17.68145,-17.95456 -32.92344,-34.14115 -33.8711,-35.97019 -1.54621,-2.98431 -1.43955,-3.7842 1.03945,-7.7953 1.51935,-2.45837 3.55871,-4.46976 4.53191,-4.46976 2.67071,0 9.24284,6.09227 47.45224,43.98756 19.27777,19.11934 35.79993,34.76244 36.71585,34.76244 2.43998,0 102.64308,-100.2562 102.62438,-102.67876 -0.009,-1.12958 -0.8155,-2.36063 -1.79287,-2.73567 -0.97735,-0.37505 -21.64922,1.54304 -45.9375,4.26243 -69.42004,7.77246 -116.38792,12.402 -125.82159,12.402 l -8.67546,0 4.14622,-7.8125 c 4.68907,-8.8354 17.71638,-39.06748 24.91197,-57.8125 25.30871,-65.9309 40.85681,-98.67562 59.47204,-125.24973 2.62784,-3.75137 4.46349,-7.64 4.07921,-8.6414 -1.56536,-4.07926 -20.26576,-14.53871 -38.5703,-21.57303 -12.85615,-4.94053 -24.65194,-8.54729 -37.30709,-11.40727 -5.58001,-1.26104 -8.80696,-2.34023 -7.171,-2.39819 1.63598,-0.058 9.42564,1.34149 17.31035,3.10989 94.89474,21.28316 173.63101,94.00498 202.90943,187.40973 4.38021,13.97386 6.59282,23.56119 9.86872,42.76154 3.6434,21.35428 3.63495,60.67214 -0.0176,82.08025 -5.61024,32.88207 -12.05845,53.70706 -24.88308,80.36186 -27.79401,57.7671 -72.30903,102.6488 -129.41228,130.4783 -27.55673,13.4299 -47.93337,19.8547 -81.04364,25.5535 -15.62524,2.6893 -21.78845,3.1184 -42.97386,2.9918 -13.60288,-0.081 -27.545,-0.6797 -30.9825,-1.3298 z m 72.89062,-554.37634 c 0.90234,-0.36109 1.98048,-0.31668 2.39584,0.0987 0.41536,0.41537 -0.32293,0.71081 -1.64063,0.65653 -1.45618,-0.06 -1.75237,-0.35618 -0.75521,-0.75521 z m -32.55574,-2.55202 c 2.24669,-0.27821 5.62169,-0.27246 7.5,0.0127 1.87832,0.28521 0.0401,0.51283 -4.08488,0.50582 -4.125,-0.007 -5.6618,-0.24038 -3.41512,-0.51858 z"
         id="path5086"
         inkscape:connector-curvature="0" />
      <path
         style="fill:#333333"
         d="m 311.33929,1185.2579 c -50.63123,-8.023 -91.20939,-24.7809 -130.44333,-53.8702 -13.73228,-10.1816 -35.39878,-30.8101 -47.23249,-44.9697 -31.5889,-37.7977 -53.338784,-87.56744 -60.907176,-139.37241 -2.89431,-19.81129 -2.654438,-59.03008 0.468795,-76.64764 l 2.326794,-13.125 -0.856299,10 c -1.272929,14.86546 -0.720073,55.16985 0.873127,63.65291 0.764687,4.0716 2.208729,8.65194 3.208984,10.17853 1.768189,2.69859 2.054371,2.73102 10.315117,1.16909 14.652368,-2.77047 31.453158,-4.63061 55.006348,-6.09014 l 22.75987,-1.41039 0.36513,6.86285 c 0.50033,9.40399 2.58776,9.41755 12.88721,0.0838 4.59525,-4.1644 9.34476,-7.57164 10.55449,-7.57164 1.20972,0 4.80925,-0.35771 7.99896,-0.7949 3.22194,-0.44162 5.79946,-0.29087 5.79946,0.33919 0,0.62375 -5.0896,6.64111 -11.31022,13.37193 -6.22061,6.7308 -11.84561,13.64603 -12.5,15.36718 -1.744,4.58706 -1.45126,12.59807 0.6017,16.46618 0.98531,1.85648 13.78219,15.19445 28.4375,29.63986 40.89952,40.314 42.1971,41.4942 43.43081,39.5025 0.59044,-0.9531 1.27415,-26.9219 1.51936,-57.70837 0.24523,-30.78648 0.77155,-56.30107 1.16964,-56.6991 0.39809,-0.39804 3.27114,-1.07287 6.38458,-1.4996 l 5.6608,-0.77591 0.87736,7.75487 c 0.48255,4.26517 2.02381,11.50254 3.42504,16.08302 5.37753,17.57869 8.0206,21.03347 43.4859,56.84079 18.2559,18.432 34.88003,34.5301 36.94254,35.7735 5.30752,3.1999 11.38518,4.0651 17.35676,2.471 4.34388,-1.1596 10.25776,-6.4539 38.05151,-34.0651 18.09955,-17.98059 33.51564,-33.8038 34.25799,-35.16262 2.55565,-4.67803 3.38092,-11.20603 2.04835,-16.20278 -1.07104,-4.01611 -6.87825,-10.599 -31.5138,-35.72316 -16.61045,-16.93989 -31.16397,-32.49399 -32.34114,-34.56465 -2.13613,-3.75744 -2.13192,-3.77299 2.13157,-7.90535 l 4.27192,-4.1405 4.74342,3.54449 c 2.60888,1.94946 19.96176,18.62917 38.56197,37.06601 18.60019,18.43687 34.62887,33.52156 35.61927,33.52156 2.64588,0 102.43718,-100.18951 102.43718,-102.84594 0,-1.22788 -0.75427,-2.52196 -1.67613,-2.87571 -0.92187,-0.35376 -24.6875,1.90049 -52.8125,5.00941 -89.59847,9.90421 -114.26137,12.05288 -114.26137,9.95462 0,-0.41669 1.60609,-2.80732 3.56909,-5.3125 5.05159,-6.44682 17.54603,-25.69914 34.59397,-53.30488 21.8382,-35.36262 21.45601,-34.76277 35.44036,-55.625 7.14309,-10.65625 15.58262,-22.65625 18.75451,-26.66667 8.48643,-10.72994 20.38829,-25.11544 21.37323,-25.83333 0.47162,-0.34375 1.45282,-1.71398 2.18045,-3.04496 2.21265,-4.0474 -0.63444,-7.82361 -12.71847,-16.86907 -13.79065,-10.32295 -18.62366,-13.3763 -34.89586,-22.04621 -6.96976,-3.71351 -12.24122,-6.76038 -11.71436,-6.7708 0.52685,-0.0104 6.24642,2.45237 12.71015,5.47289 73.94137,34.55299 131.04306,103.42471 150.76211,181.83781 11.62524,46.2279 11.77088,91.30612 0.44405,137.44794 -17.40867,70.9174 -63.0926,132.948 -126.74923,172.1029 -42.05825,25.8698 -95.72783,40.7959 -145.5817,40.4879 -14.23537,-0.088 -26.26524,-0.9194 -36.2933,-2.5084 z M 75.911654,854.14795 c 0,-1.71875 0.283716,-2.42187 0.630482,-1.5625 0.346765,0.85938 0.346765,2.26563 0,3.125 -0.346766,0.85938 -0.630482,0.15625 -0.630482,-1.5625 z"
         id="path5084"
         inkscape:connector-curvature="0" />
      <path
         style="fill:#2b2b2b"
         d="m 326.96429,1187.0961 c -15.88416,-2.041 -42.67467,-7.1971 -54.05908,-10.4043 -64.18863,-18.0829 -120.92274,-59.7431 -157.52106,-115.6688 -17.722077,-27.0811 -33.058128,-65.41406 -38.867531,-97.15079 -5.220818,-28.5213 -5.80783,-34.22186 -5.605411,-54.43496 l 0.196921,-19.6643 0.95161,22.5 c 1.024821,24.23105 3.851345,41.82559 9.391802,58.46207 1.80295,5.41377 3.979434,10.11234 4.836632,10.44128 0.857197,0.32894 7.154106,-1.63119 13.993127,-4.35585 18.82908,-7.50147 43.91851,-14.33456 71.50857,-19.47529 5.74783,-1.07096 10.62659,-1.94721 10.84169,-1.94721 0.21511,0 -0.48676,1.75975 -1.55973,3.91055 -3.36957,6.75446 -3.42042,13.58293 -0.14321,19.22915 4.17175,7.1874 69.16731,71.11505 71.42299,70.24945 1.50242,-0.5765 1.87916,-8.8735 2.33286,-51.37731 0.29759,-27.87936 0.88395,-51.03264 1.30303,-51.45171 0.41906,-0.41908 3.43327,-0.85717 6.69825,-0.97354 l 5.9363,-0.21159 1.53097,5.89585 c 0.84205,3.24273 3.67467,10.55523 6.2947,16.25 4.59452,9.98636 5.98702,11.59141 39.20264,45.1862 40.2456,40.7051 43.45071,42.862 55.93876,37.6441 4.28733,-1.7913 63.49153,-58.69057 69.97338,-67.24911 3.57492,-4.72028 4.67179,-11.77877 2.87012,-18.46963 -1.24688,-4.6306 -5.70747,-9.70558 -31.33608,-35.6523 -16.43524,-16.63922 -29.88225,-31.04271 -29.88225,-32.00776 0,-0.96504 1.68067,-3.36481 3.73483,-5.33282 3.5032,-3.35628 3.9459,-3.46769 7.13792,-1.79637 1.87168,0.98002 18.39769,16.54747 36.72446,34.59434 18.32676,18.04688 34.10832,32.8125 35.07012,32.8125 2.6325,0 103.97533,-101.94284 103.32124,-103.93297 -0.93675,-2.85018 -6.72607,-2.6107 -47.383,1.95997 -35.7041,4.01389 -74.21103,7.96045 -98.60557,10.10605 l -9.375,0.82458 9.375,-9.81898 c 11.61522,-12.16527 24.39488,-26.41369 46.87622,-52.26365 24.16615,-27.78721 49.36404,-55.22277 64.2692,-69.97655 6.93252,-6.8621 12.60458,-13.27889 12.60458,-14.25954 0,-2.71697 -9.56658,-14.52845 -18.04805,-22.28321 -4.16733,-3.81025 -6.32698,-6.28136 -4.79924,-5.49136 4.28222,2.21438 32.01745,29.39937 41.08102,40.26603 41.95887,50.30603 64.7367,116.97868 62.656,183.39934 -1.31013,41.82253 -10.71471,79.37379 -29.15582,116.41554 -47.01938,94.4454 -140.49431,153.7174 -245.48391,155.6603 -12.03125,0.2226 -23.84375,0.1518 -26.25,-0.1574 z"
         id="path5082"
         inkscape:connector-curvature="0" />
      <path
         style="fill:#232323"
         d="m 305.25457,1183.4323 c -48.58615,-8.3318 -86.35904,-24.5245 -125.16529,-53.6566 -39.40038,-29.5781 -70.57058,-70.5549 -88.525981,-116.3775 -5.80445,-14.81315 -7.009883,-20.83368 -2.113148,-10.5541 4.187226,8.79 7.02896,12.5539 9.478383,12.5539 0.86723,0 6.826926,-2.9618 13.243766,-6.5817 14.99435,-8.4587 27.47388,-14.08216 48.98035,-22.07121 l 17.31336,-6.43144 7.68664,6.75535 c 4.22765,3.71544 20.4266,19.2032 35.99766,34.4172 15.57106,15.2139 29.21169,27.6618 30.3125,27.6618 1.77557,0 2.00147,-3.1521 2.00147,-27.9274 0,-15.3601 0.36854,-35.61189 0.81899,-45.00406 l 0.81898,-17.0767 5.11852,-1.32034 c 2.81518,-0.7262 5.96227,-1.55985 6.99352,-1.85259 1.32238,-0.37536 3.68844,3.05438 8.02792,11.6369 5.98129,11.82967 7.0424,13.06667 38.0371,44.34229 17.53629,17.6952 34.02034,33.6535 36.63121,35.4628 2.63499,1.8261 7.1964,3.5658 10.25219,3.9103 10.91659,1.2304 12.78676,-0.1298 47.46718,-34.523 17.75982,-17.6128 33.3692,-34.11021 34.6875,-36.66095 2.92927,-5.66777 3.08366,-13.50494 0.37158,-18.86187 -1.11392,-2.20024 -14.05142,-16.17018 -28.75,-31.04432 -14.69857,-14.87413 -26.72468,-27.84702 -26.72468,-28.82863 0,-2.22613 6.4204,-8.50248 8.69761,-8.50248 0.92719,0 16.40887,14.625 34.40372,32.5 17.99485,17.875 33.48434,32.5 34.42107,32.5 2.51206,0 103.73503,-101.50353 103.73102,-104.01852 -0.008,-4.47914 -3.77829,-4.49859 -41.87842,-0.21604 -41.11289,4.62121 -89.69668,9.32956 -90.27728,8.74896 -0.34174,-0.34175 45.43291,-38.30537 55.60435,-46.11599 2.49009,-1.91212 7.44164,-6.13087 11.00346,-9.375 3.56183,-3.24412 9.50082,-8.47802 13.19775,-11.63087 3.69695,-3.15286 11.22172,-9.64131 16.72172,-14.41879 5.5,-4.77746 16.04687,-13.63331 23.4375,-19.67964 14.52188,-11.88048 15.29765,-13.30722 11.51018,-21.16869 l -1.9273,-4.00042 3.89482,4.375 c 7.67365,8.61975 21.72865,30.90632 29.39423,46.60951 18.55825,38.01721 27.16805,76.17534 27.13608,120.26549 -0.0565,77.87004 -29.30766,146.74135 -85.49224,201.28965 -21.28474,20.6648 -41.58209,35.1381 -68.19365,48.6262 -25.90725,13.1312 -50.18816,20.8928 -82.25962,26.2953 -25.95543,4.3722 -60.40745,4.3515 -86.08472,-0.052 z"
         id="path5080"
         inkscape:connector-curvature="0" />
      <path
         style="fill:#181818"
         d="m 315.08929,1184.1703 c -37.12723,-5.3897 -62.19119,-13.162 -93.12501,-28.8779 -42.36773,-21.5249 -82.69051,-57.6706 -104.83949,-93.979 -5.08191,-8.3306 -6.84119,-13.0961 -3.6605,-9.9154 2.39838,2.3983 4.77151,1.781 10.24626,-2.6656 13.16947,-10.6962 38.80197,-26.6029 60.5842,-37.5967 l 16.70547,-8.4315 3.91953,3.5005 c 2.15575,1.9252 13.2632,12.7126 24.68322,23.972 14.76359,14.5558 21.44605,20.3402 23.125,20.0172 2.24009,-0.4309 2.37833,-2.2892 2.69269,-36.1973 l 0.33137,-35.74309 8.89262,-3.92778 c 4.89093,-2.16028 9.52306,-3.92678 10.29362,-3.92554 0.77056,0.001 3.02869,2.57855 5.01807,5.72737 3.74355,5.92537 68.85199,71.23854 73.66486,73.89644 1.49495,0.8256 5.11206,1.8744 8.03804,2.3306 10.05045,1.567 15.00815,-2.1483 50.48831,-37.8359 26.47321,-26.62804 32.29734,-33.11682 33.43054,-37.24575 1.70877,-6.22612 1.70793,-7.53467 -0.009,-13.75 -1.11944,-4.05291 -6.12157,-9.77919 -26.40803,-30.23102 -16.23044,-16.36275 -24.7841,-25.86403 -24.33592,-27.03194 0.38008,-0.99051 2.46702,-3.06551 4.63762,-4.61111 l 3.94655,-2.81019 29.62354,29.52962 c 21.65944,21.59079 30.40543,29.52964 32.53196,29.52964 2.15681,0 15.66444,-12.67926 52.26784,-49.0625 27.14767,-26.98437 50.20246,-50.6793 51.23285,-52.6554 1.68067,-3.22317 1.66809,-3.79826 -0.12225,-5.58865 -1.82766,-1.82767 -5.17961,-1.65078 -39.79996,2.10039 -20.79232,2.25287 -41.1792,4.39122 -45.3042,4.75188 l -7.5,0.65575 5.625,-3.38198 c 3.09375,-1.8601 15.1875,-9.05733 26.875,-15.99384 33.78768,-20.05295 84.375,-54.33406 84.375,-57.17776 0,-4.89933 2.43101,-2.0835 7.91213,9.16461 21.61532,44.35793 30.74554,104.40491 23.33413,153.46223 -5.03285,33.3133 -12.33661,57.23772 -26.13249,85.60032 -36.31295,74.6548 -104.47531,129.5214 -184.59286,148.586 -34.11633,8.1183 -68.71415,10.1565 -98.64591,5.8113 z"
         id="path5078"
         inkscape:connector-curvature="0" />
    </g>
  </g>
</svg>
