<?xml version="1.0" encoding="UTF-8" standalone="no"?>
<!-- Generator: Adobe Illustrator 15.1.0, SVG Export Plug-In . SVG Version: 6.00 Build 0)  -->

<svg
   xmlns:dc="http://purl.org/dc/elements/1.1/"
   xmlns:cc="http://creativecommons.org/ns#"
   xmlns:rdf="http://www.w3.org/1999/02/22-rdf-syntax-ns#"
   xmlns:svg="http://www.w3.org/2000/svg"
   xmlns="http://www.w3.org/2000/svg"
   xmlns:sodipodi="http://sodipodi.sourceforge.net/DTD/sodipodi-0.dtd"
   xmlns:inkscape="http://www.inkscape.org/namespaces/inkscape"
   version="1.0"
   id="Layer_1"
   x="0px"
   y="0px"
   width="128"
   height="128"
   viewBox="0 0 128 128"
   enable-background="new 0 0 387.729 158.416"
   xml:space="preserve"
   inkscape:version="0.91 r13725"
   sodipodi:docname="Maplesoft_logo.svg">
    <metadata
     id="metadata256"><rdf:RDF><cc:Work
         rdf:about=""><dc:format>image/svg+xml</dc:format><dc:type
           rdf:resource="http://purl.org/dc/dcmitype/StillImage" /><dc:title></dc:title></cc:Work></rdf:RDF></metadata><defs
     id="defs254" /><sodipodi:namedview
     pagecolor="#ffffff"
     bordercolor="#666666"
     borderopacity="1"
     objecttolerance="10"
     gridtolerance="10"
     guidetolerance="10"
     inkscape:pageopacity="0"
     inkscape:pageshadow="2"
     inkscape:window-width="1366"
     inkscape:window-height="706"
     id="namedview252"
     showgrid="false"
     inkscape:zoom="3.6004529"
     inkscape:cx="107.88361"
     inkscape:cy="65.014627"
     inkscape:window-x="-8"
     inkscape:window-y="-8"
     inkscape:window-maximized="1"
     inkscape:current-layer="Layer_1" /><linearGradient
     id="SVGID_1_"
     gradientUnits="userSpaceOnUse"
     x1="361.94971"
     y1="-16.3633"
     x2="370.33511"
     y2="22.644501"
     gradientTransform="matrix(-0.969,0.247,0.247,0.969,602.4677,-76.7519)"><stop
       offset="0"
       style="stop-color:#FFFFFF"
       id="stop32" /><stop
       offset="1"
       style="stop-color:#005581"
       id="stop34" /></linearGradient><radialGradient
     id="SVGID_2_"
     cx="327.18991"
     cy="-35.290501"
     r="67.757004"
     gradientTransform="matrix(-0.969,0.247,0.247,0.969,602.4677,-76.7519)"
     gradientUnits="userSpaceOnUse"><stop
       offset="0"
       style="stop-color:#FFFFFF"
       id="stop39" /><stop
       offset="1"
       style="stop-color:#005581"
       id="stop41" /></radialGradient><g
     id="g4384"
     transform="matrix(0.84117338,0,0,0.7778321,-147.5723,42.404375)"><path
       id="path36"
       d="m 316.954,2.452 c -1.662,-0.247 -4.588,0.473 -7.551,1.39 -5.092,1.566 -14.289,11.204 -21.971,17.932 -7.119,6.234 -17.609,19.332 -42.547,21.814 -14.582,0.631 -20.111,-4.236 -22.469,-6.18 -1.428,-1.164 -12.273,-7.775 -20.975,-10.203 -6.772,-1.892 -12.755,-2.705 -13.785,-2.33 -1.904,0.693 -7.08,0.797 -7.08,0.797 0,0 -4.661,-1.168 -4.095,-3.772 0.567,-2.61 3.506,-0.329 5.526,-0.29 2.031,0.042 9.764,0.105 17.434,2.485 7.394,2.285 20.494,9.137 23.93,8.495 3.412,-0.65 11.213,-10.929 11.535,-14.041 0.326,-3.109 2.137,-0.434 2.9,0.832 0.775,1.256 1.215,4.285 2.791,2.537 1.566,-1.743 9.5,-11.048 10.545,-12.662 1.055,-1.616 2.686,-0.017 3.326,0.721 0.637,0.738 4.172,7.564 6.303,7.586 2.133,0.014 10.033,-8.606 12.893,-8.328 0,0 -4.371,7.398 -3.82,8.713 0.561,1.314 5.668,1.236 11.229,-2.735 4.645,-3.312 13.574,-10.591 14.561,-11.214 5.242,-3.253 9.273,-4.163 10.646,-3.975 -1.756,0.567 -4.285,2.071 -4.285,2.071 0,0 10.211,-2.572 13.402,-1.93 3.184,0.643 4.543,2.432 4.758,2.822 0.203,0.395 -3.201,-0.535 -3.201,-0.535 z"
       inkscape:connector-curvature="0"
       style="fill:url(#SVGID_1_)" /><path
       id="path43"
       d="m 299.536,8.771 c -4.445,1.911 -6.355,-2.579 -7.4,-4.447 -1.035,-1.867 -2.074,-0.965 -2.871,-0.252 -1.115,1 -11.699,12.902 -14.713,16.023 -3.014,3.123 -6.281,-4.465 -7.781,-6.861 -2.037,-3.238 -5.768,8.97 -8.619,9.299 -1.941,0.225 -8.631,-7.844 -9.908,-8.867 -1.258,-1.025 -2.912,-3.545 -3.832,1.244 -0.889,4.604 -5.43,15.404 -7.107,16.287 -1.682,0.873 -9.422,-3.424 -10.822,-4.076 -1.398,-0.65 -0.451,10.115 -2.326,10.258 l -1.814,-0.223 c 0,0 3.266,8.848 24.404,6.223 C 261.856,41.5 270.89,37.248 284.839,24.178 297.464,12.342 305.827,5.717 305.827,5.717 l -6.291,3.054 z"
       inkscape:connector-curvature="0"
       style="fill:url(#SVGID_2_)" /><g
       id="g45"><g
         id="g47"
         style="opacity:0.75"><linearGradient
           gradientTransform="matrix(-0.996,0.0231,-2.2885,-0.951,875.8492,246.8432)"
           y2="211.2258"
           x2="163.0955"
           y1="183.2446"
           x1="159.1514"
           gradientUnits="userSpaceOnUse"
           id="SVGID_3_"><stop
             id="stop50"
             style="stop-color:#FFFFFF"
             offset="0" /><stop
             id="stop52"
             style="stop-color:#005581"
             offset="1" /></linearGradient><path
           id="path54"
           d="m 311.985,55.755 c -0.984,0.223 -3.695,0.293 -6.605,0.314 -5.008,0.041 -20.041,-1.777 -31.438,-2.93 -10.559,-1.063 -30.463,-3.629 -50.418,-1.992 -10.947,1.188 -9.51,2.99 -10.365,3.418 -0.531,0.262 -6.516,1.512 -13.949,1.596 -5.79,0.07 -11.676,-0.141 -13.151,-0.344 -2.739,-0.371 -8.557,-0.803 -8.557,-0.803 0,0 -4.113,0.006 -1.116,0.871 2.994,0.875 4.184,0.387 6.378,0.527 2.213,0.148 10.719,0.732 17.059,0.578 6.102,-0.148 14.378,-1.291 18.765,-0.814 4.369,0.467 17.793,1.928 20.762,2.758 2.971,0.832 1.9,-0.076 1.34,-0.494 -0.559,-0.43 -2.914,-1.309 -0.254,-0.975 2.65,0.342 16.502,2.188 18.658,2.541 2.166,0.348 1.932,-0.252 1.734,-0.512 -0.195,-0.266 -3.689,-2.492 -2.18,-2.701 1.5,-0.191 14.723,1.467 16.518,1.115 0,0 -9.635,-1.645 -10.395,-2.064 -0.754,-0.41 2.949,-0.875 10.406,-0.285 6.229,0.482 18.977,1.652 20.25,1.754 1.285,0.098 7.516,0.23 8.027,0.182 0.525,-0.043 -3.035,-0.223 -3.035,-0.223 0,0 10.752,-0.258 12.461,-0.742 1.717,-0.477 1.1,-1.096 0.9,-1.225 -0.184,-0.126 -1.795,0.45 -1.795,0.45 z"
           inkscape:connector-curvature="0"
           style="opacity:0.2;fill:url(#SVGID_3_)" /><radialGradient
           gradientUnits="userSpaceOnUse"
           gradientTransform="matrix(-0.9589,0.0231,-0.715,-0.3086,677.7723,171.48)"
           r="77.723999"
           cy="324.54251"
           cx="143.2583"
           id="SVGID_4_"><stop
             id="stop57"
             style="stop-color:#FFFFFF"
             offset="0.0056" /><stop
             id="stop59"
             style="stop-color:#005581"
             offset="1" /></radialGradient><path
           id="path61"
           d="m 294.012,55.63 c -4.859,-0.123 -3.932,0.816 -3.021,1.434 0.891,0.607 -0.859,0.537 -2.059,0.418 -1.68,-0.184 -17.799,-2.082 -22.709,-2.678 -4.881,-0.582 -0.531,1.832 0.506,2.637 1.395,1.09 -11.998,-1.951 -14.322,-1.775 -1.588,0.117 0.756,2.979 0.748,3.391 0,0.398 1.045,1.252 -3.83,0.008 -4.686,-1.195 -17.422,-3.777 -19.404,-3.859 -1.965,-0.084 -3.695,1.83 -4.115,2.135 -0.424,0.318 -8.498,-2.439 -10.686,-2.633 l -1.814,-0.066 c 0,0 -1.043,-2.5 11.131,-3.475 12.18,-0.977 24.148,-0.695 45.529,1.549 21.4,2.256 31.223,3.215 31.223,3.215 l -7.177,-0.301 z"
           inkscape:connector-curvature="0"
           style="opacity:0.2;fill:url(#SVGID_4_)" /></g><g
         id="g63"
         style="opacity:0.75"><linearGradient
           gradientTransform="matrix(-1.0025,0.0016,1.5264,-1,446.8361,258.2905)"
           y2="210.78059"
           x2="494.3223"
           y1="182.59331"
           x1="490.34909"
           gradientUnits="userSpaceOnUse"
           id="SVGID_5_"><stop
             id="stop66"
             style="stop-color:#FFFFFF"
             offset="0" /><stop
             id="stop68"
             style="stop-color:#005581"
             offset="1" /></linearGradient><path
           id="path70"
           d="m 325.297,56.177 c -1.707,0.197 -4.477,0.215 -7.234,0.172 -4.742,-0.07 -11.875,-2.223 -18.107,-3.635 -5.766,-1.303 -14.637,-4.309 -38.967,-3.119 -14.402,0.945 -19.713,2.773 -22.08,3.188 -1.41,0.246 -11.508,1.355 -18.664,1.285 -5.566,-0.061 -10.205,-0.406 -10.813,-0.637 -1.163,-0.428 -4.908,-1 -4.908,-1 0,0 -3.784,-0.088 -4.229,0.854 -0.456,0.938 2.436,0.471 3.936,0.666 1.487,0.197 7.141,0.971 13.533,0.967 6.146,-0.018 17.971,-0.982 20.248,-0.412 2.279,0.572 9.236,2.334 8.912,3.232 -0.34,0.9 2.02,-0.031 3.055,-0.465 1.035,-0.439 2.117,-1.379 3.318,-0.971 1.193,0.396 7.131,2.549 7.838,2.941 0.693,0.4 2.668,-0.195 3.461,-0.469 0.787,-0.273 5.754,-2.572 7.895,-2.74 2.125,-0.174 8.17,1.773 11.088,1.477 0,0 -2.803,-1.861 -1.969,-2.295 0.838,-0.436 5.928,-0.809 10.627,-0.063 3.918,0.629 11.35,2.078 12.137,2.217 0.797,0.125 6.059,0.389 6.695,0.361 0.648,-0.035 -1.939,-0.301 -1.939,-0.301 0,0 10.824,-0.02 14.131,-0.453 3.318,-0.441 5.039,-1.074 5.344,-1.209 0.294,-0.132 -3.308,0.409 -3.308,0.409 z"
           inkscape:connector-curvature="0"
           style="opacity:0.2;fill:url(#SVGID_5_)" /><radialGradient
           gradientUnits="userSpaceOnUse"
           gradientTransform="matrix(-0.9652,0.0016,0.4769,-0.3245,555.9385,179.2102)"
           r="77.690102"
           cy="323.59811"
           cx="474.1333"
           id="SVGID_6_"><stop
             id="stop73"
             style="stop-color:#FFFFFF"
             offset="0" /><stop
             id="stop75"
             style="stop-color:#005581"
             offset="1" /></radialGradient><path
           id="path77"
           d="m 309.272,55.65 c -4.029,-0.232 -6.617,0.725 -8.043,1.365 -1.434,0.633 -2.783,0.514 -3.424,0.369 -0.9,-0.215 -8.705,-2.477 -11.049,-3.176 -2.352,-0.689 -7.205,1.813 -9.213,2.646 -2.709,1.115 -3.83,-2.225 -6.623,-2.098 -1.879,0.08 -10.266,2.998 -11.75,3.4 -1.48,0.4 -3.652,1.281 -3.553,-0.076 0.088,-1.297 -2.146,-4.158 -3.629,-4.283 -1.496,-0.137 -10.127,1.74 -11.666,2.047 -1.529,0.301 1.168,-2.633 -0.146,-2.873 l -1.4,-0.111 c 0,0 8.215,-2.525 22.986,-3.227 14.758,-0.697 24.732,-0.16 36.105,2.566 11.396,2.727 16.865,3.91 16.865,3.91 l -5.46,-0.459 z"
           inkscape:connector-curvature="0"
           style="opacity:0.2;fill:url(#SVGID_6_)" /></g></g></g>
</svg>