<?xml version="1.0" encoding="UTF-8" standalone="no"?>
<!-- Generator: Adobe Illustrator 18.0.0, SVG Export Plug-In . SVG Version: 6.00 Build 0)  -->

<svg
   xmlns:dc="http://purl.org/dc/elements/1.1/"
   xmlns:cc="http://creativecommons.org/ns#"
   xmlns:rdf="http://www.w3.org/1999/02/22-rdf-syntax-ns#"
   xmlns:svg="http://www.w3.org/2000/svg"
   xmlns="http://www.w3.org/2000/svg"
   xmlns:sodipodi="http://sodipodi.sourceforge.net/DTD/sodipodi-0.dtd"
   xmlns:inkscape="http://www.inkscape.org/namespaces/inkscape"
   version="1.1"
   x="0px"
   y="0px"
   viewBox="0 0 128 128"
   enable-background="new 0 0 362.8 94.9"
   xml:space="preserve"
   id="svg2"
   inkscape:version="0.91 r13725"
   sodipodi:docname="Mautic_Logo_RGB_LB.svg"
   width="128"
   height="128">
  <metadata
     id="metadata34"><rdf:RDF><cc:Work
         rdf:about=""><dc:format>image/svg+xml</dc:format><dc:type
           rdf:resource="http://purl.org/dc/dcmitype/StillImage" /><dc:title></dc:title></cc:Work></rdf:RDF></metadata><defs
     id="defs32" /><sodipodi:namedview
     pagecolor="#ffffff"
     bordercolor="#666666"
     borderopacity="1"
     objecttolerance="10"
     gridtolerance="10"
     guidetolerance="10"
     inkscape:pageopacity="0"
     inkscape:pageshadow="2"
     inkscape:window-width="1366"
     inkscape:window-height="706"
     id="namedview30"
     showgrid="false"
     inkscape:zoom="2.8533748"
     inkscape:cx="161.36307"
     inkscape:cy="76.294249"
     inkscape:window-x="-8"
     inkscape:window-y="-8"
     inkscape:window-maximized="1"
     inkscape:current-layer="svg2" /><g
     id="logo"
     transform="translate(0,33.099998)"><g
       id="g5" /></g><g
     id="brandmark"
     transform="matrix(1.3441696,0,0,1.3441696,0.7009244,0.47271695)"><g
       id="g20"><path
         d="M 47.4,94.8 C 21.3,94.8 0,73.5 0,47.4 0,21.3 21.3,0.1 47.4,0.1 c 6.3,0 12.4,1.2 18.2,3.6 1.6,0.7 2.4,2.6 1.7,4.2 -0.7,1.6 -2.6,2.4 -4.2,1.7 -5,-2.1 -10.3,-3.1 -15.8,-3.1 -22.6,0 -41,18.4 -41,41 0,22.6 18.4,41 41,41 22.6,0 41,-18.4 41,-41 0,-4.8 -0.8,-9.6 -2.5,-14.1 -0.6,-1.7 0.2,-3.5 1.9,-4.1 1.7,-0.6 3.5,0.2 4.1,1.9 1.9,5.2 2.9,10.7 2.9,16.3 0.1,26.1 -21.2,47.3 -47.3,47.3 z"
         id="path22"
         inkscape:connector-curvature="0"
         style="fill:#4e5e9e" /></g><g
       id="g24"><polygon
         points="68.1,42.6 60.8,50.3 64.9,67.4 74.1,67.4 "
         id="polygon26"
         style="fill:#fdb933" /></g><polygon
       points="74.2,29 76.7,31.5 79.3,17.1 65.1,20 67.7,22.5 47.4,44 30.1,26.1 20.1,67.4 29.4,67.4 34.9,44.5 47.4,58.2 "
       id="polygon28"
       style="fill:#fdb933" /></g>
</svg>