<?xml version="1.0" encoding="UTF-8" standalone="no"?>
<svg
   xmlns:dc="http://purl.org/dc/elements/1.1/"
   xmlns:cc="http://creativecommons.org/ns#"
   xmlns:rdf="http://www.w3.org/1999/02/22-rdf-syntax-ns#"
   xmlns:svg="http://www.w3.org/2000/svg"
   xmlns="http://www.w3.org/2000/svg"
   xmlns:sodipodi="http://sodipodi.sourceforge.net/DTD/sodipodi-0.dtd"
   xmlns:inkscape="http://www.inkscape.org/namespaces/inkscape"
   width="128"
   height="128"
   viewBox="0 0 128 128"
   version="1.1"
   preserveAspectRatio="xMidYMid"
   id="svg2"
   inkscape:version="0.91 r13725"
   sodipodi:docname="oauth.svg">
  <metadata
     id="metadata110">
    <rdf:RDF>
      <cc:Work
         rdf:about="">
        <dc:format>image/svg+xml</dc:format>
        <dc:type
           rdf:resource="http://purl.org/dc/dcmitype/StillImage" />
        <dc:title></dc:title>
      </cc:Work>
    </rdf:RDF>
  </metadata>
  <defs
     id="defs108" />
  <sodipodi:namedview
     pagecolor="#ffffff"
     bordercolor="#666666"
     borderopacity="1"
     objecttolerance="10"
     gridtolerance="10"
     guidetolerance="10"
     inkscape:pageopacity="0"
     inkscape:pageshadow="2"
     inkscape:window-width="1366"
     inkscape:window-height="706"
     id="namedview106"
     showgrid="false"
     inkscape:zoom="3.6875"
     inkscape:cx="98.723486"
     inkscape:cy="68.747015"
     inkscape:window-x="-8"
     inkscape:window-y="-8"
     inkscape:window-maximized="1"
     inkscape:current-layer="svg2" />
  <g
     id="g4"
     transform="matrix(0.49979666,0,0,0.49986623,0.21341662,0)">
    <path
       d="M 118.92262,0.37140771 C 175.48369,-3.5505123 212.98684,24.128208 234.43025,57.851516 c 10.752,16.9088 21.30133,42.589864 21.34997,68.976214 0.0521,28.66944 -9.23562,53.49675 -21.34997,71.71328 -12.45099,18.72341 -28.55509,34.18795 -48.72107,44.34219 -33.70922,16.97408 -80.8192,17.43829 -111.676156,1.09482 C 39.668436,225.77728 13.246676,199.79882 3.4145693,154.74666 -0.52015074,136.71744 -0.97241741,113.42186 4.5093959,93.434662 5.795796,88.746022 8.1335027,83.811622 9.9839561,79.201489 18.876543,57.047249 34.012543,37.782395 52.683477,24.458021 60.185984,19.104208 69.287637,13.779408 77.317931,10.224848 87.309611,5.8024478 104.13222,1.3966877 118.92262,0.37140771 l 0,0 z"
       id="path6"
       inkscape:connector-curvature="0"
       style="fill:#ffffff" />
    <path
       d="m 226.2118,130.01578 c 0,53.45622 -43.33483,96.78806 -96.79019,96.78806 -53.455359,0 -96.789334,-43.33184 -96.789334,-96.78806 0,-53.454931 43.333975,-96.790186 96.789334,-96.790186 53.45493,0 96.79019,43.335255 96.79019,96.790186 l 0,0 z"
       id="path8"
       inkscape:connector-curvature="0"
       style="fill:#000000" />
    <path
       d="M 118.92262,0.37140771 C 175.48369,-3.5505123 212.98684,24.128208 234.43025,57.851516 c 10.752,16.9088 21.30133,42.589864 21.34997,68.976214 0.0521,28.66944 -9.23562,53.49675 -21.34997,71.71328 -12.45099,18.72341 -28.55509,34.18795 -48.72107,44.34219 -33.70922,16.97408 -80.8192,17.43829 -111.676156,1.09482 C 39.668436,225.77728 13.246676,199.79882 3.4145693,154.74666 -0.52015074,136.71744 -0.97241741,113.42186 4.5093959,93.434662 5.795796,88.746022 8.1335027,83.811622 9.9839561,79.201489 18.876543,57.047249 34.012543,37.782395 52.683477,24.458021 60.185984,19.104208 69.287637,13.779408 77.317931,10.224848 87.309611,5.8024478 104.13222,1.3966877 118.92262,0.37140771 l 0,0 z M 99.762304,9.6778611 C 78.753664,15.124688 63.349717,24.882981 49.946411,35.407141 30.618836,50.582822 18.297556,71.760422 11.078783,97.266556 3.0476359,125.6433 8.2064627,159.98229 19.290409,181.57077 c 11.493974,22.38805 26.926935,39.76661 48.721068,52.00597 21.2032,11.90742 51.025493,19.55328 82.114983,13.68576 27.6224,-5.21301 48.60118,-17.24629 65.69174,-35.03573 22.86592,-23.8016 41.24373,-67.64117 29.01418,-113.865388 -3.26912,-12.354133 -7.54304,-25.23008 -14.2336,-36.13056 C 226.98406,56.341969 221.67974,50.548689 216.36561,44.713169 196.30972,22.688208 163.89457,3.7087944 122.2071,6.3929545 114.27366,6.9036744 107.3015,7.7228744 99.762304,9.6778611 l 0,0 z"
       id="path10"
       inkscape:connector-curvature="0"
       style="fill:#000000" />
    <g
       transform="translate(7.68,9.386667)"
       id="g12"
       style="fill:#ffffff">
      <g
         transform="translate(0,2.986667)"
         id="g14">
        <path
           d="m 127.89636,234.02544 111.84555,-111.84299 -0.60339,-0.60341 -111.84555,111.84299 0.60339,0.60341 0,0 z"
           id="path16"
           inkscape:connector-curvature="0" />
        <path
           d="m 118.11887,225.16783 112.33323,-112.33109 -0.6034,-0.6034 -112.33322,112.33109 0.60339,0.6034 0,0 z"
           id="path18"
           inkscape:connector-curvature="0" />
        <path
           d="m 108.34095,216.31152 112.82176,-112.82006 -0.60339,-0.6034 -112.82176,112.82005 0.60339,0.60341 0,0 z"
           id="path20"
           inkscape:connector-curvature="0" />
        <path
           d="M 98.563029,207.45391 211.8729,94.146182 211.2695,93.542778 97.959637,206.85051 l 0.603392,0.6034 0,0 z"
           id="path22"
           inkscape:connector-curvature="0" />
        <path
           d="M 88.785537,198.59674 202.58351,84.800475 201.98012,84.197072 88.182143,197.99334 l 0.603394,0.6034 0,0 z"
           id="path24"
           inkscape:connector-curvature="0" />
        <path
           d="M 79.00762,189.7417 193.29327,75.455191 192.68987,74.851796 78.40422,189.1383 l 0.6034,0.6034 0,0 z"
           id="path26"
           inkscape:connector-curvature="0" />
        <path
           d="M 69.229697,180.88239 184.00388,66.109915 183.40049,65.506512 68.626303,180.27899 l 0.603394,0.6034 0,0 z"
           id="path28"
           inkscape:connector-curvature="0" />
        <path
           d="M 59.451778,172.02522 174.71364,56.764207 l -0.60339,-0.6034 -115.261868,115.261013 0.603396,0.6034 0,0 z"
           id="path30"
           inkscape:connector-curvature="0" />
        <path
           d="M 49.673861,163.16804 165.4217,47.418924 164.8183,46.815529 49.070459,162.56465 l 0.603402,0.60339 0,0 z"
           id="path32"
           inkscape:connector-curvature="0" />
        <path
           d="M 39.896364,154.31045 156.13444,38.073647 155.53105,37.470246 39.292969,153.70705 l 0.603395,0.6034 0,0 z"
           id="path34"
           inkscape:connector-curvature="0" />
        <path
           d="M 30.118444,145.4537 146.84463,28.728367 146.24124,28.124967 29.515049,144.8503 l 0.603395,0.6034 0,0 z"
           id="path36"
           inkscape:connector-curvature="0" />
        <path
           d="M 20.340524,136.59653 137.55524,19.38266 l -0.60339,-0.6034 -117.214721,117.21387 0.603395,0.6034 0,0 z"
           id="path38"
           inkscape:connector-curvature="0" />
        <path
           d="M 10.562604,127.73893 128.26543,10.03738 127.66204,9.4339795 9.9592094,127.13553 l 0.6033946,0.6034 0,0 z"
           id="path40"
           inkscape:connector-curvature="0" />
        <path
           d="M 0.78468393,118.88175 118.97562,0.69210053 118.37222,0.08869947 0.18128941,118.27835 l 0.60339452,0.6034 0,0 z"
           id="path42"
           inkscape:connector-curvature="0" />
      </g>
      <g
         id="g44">
        <path
           d="M 0.14330767,122.99908 114.22373,237.08462 114.82715,236.48124 0.746719,122.3957 l -0.60341133,0.60338 0,0 z"
           id="path46"
           inkscape:connector-curvature="0" />
        <path
           d="M 9.3947205,113.6154 123.69701,227.92324 124.30043,227.31985 9.9981329,113.01202 l -0.6034124,0.60338 0,0 z"
           id="path48"
           inkscape:connector-curvature="0" />
        <path
           d="M 18.646134,104.23172 133.17029,218.761 l 0.60342,-0.60339 -114.524164,-114.52927 -0.603412,0.60338 0,0 z"
           id="path50"
           inkscape:connector-curvature="0" />
        <path
           d="M 27.897548,94.848039 142.644,209.59961 143.24741,208.99623 28.500959,94.244654 l -0.603411,0.603385 0,0 z"
           id="path52"
           inkscape:connector-curvature="0" />
        <path
           d="M 37.148535,85.464359 152.11685,200.43737 152.72026,199.83399 37.751945,84.860974 l -0.60341,0.603385 0,0 z"
           id="path54"
           inkscape:connector-curvature="0" />
        <path
           d="M 46.399949,76.08068 161.59099,191.27556 162.1944,190.67217 47.003357,75.477293 l -0.603408,0.603387 0,0 z"
           id="path56"
           inkscape:connector-curvature="0" />
        <path
           d="M 55.651363,66.697001 171.06427,182.11375 171.66768,181.51036 56.254771,66.093613 l -0.603408,0.603388 0,0 z"
           id="path58"
           inkscape:connector-curvature="0" />
        <path
           d="m 64.90235,57.313322 115.6352,115.638188 0.60341,-0.60339 -115.635204,-115.638188 -0.603406,0.60339 0,0 z"
           id="path60"
           inkscape:connector-curvature="0" />
        <path
           d="M 74.153764,47.929642 190.01126,163.7897 l 0.6034,-0.6034 -115.857491,-115.860049 -0.603405,0.603391 0,0 z"
           id="path62"
           inkscape:connector-curvature="0" />
        <path
           d="m 83.405178,38.545963 116.078932,116.081067 0.6034,-0.60339 -116.078928,-116.081069 -0.603404,0.603392 0,0 z"
           id="path64"
           inkscape:connector-curvature="0" />
        <path
           d="m 92.656591,29.162282 116.301229,116.303788 0.6034,-0.60339 -116.301224,-116.303789 -0.603405,0.603391 0,0 z"
           id="path66"
           inkscape:connector-curvature="0" />
        <path
           d="m 101.90758,19.778603 116.52352,116.525227 0.6034,-0.60339 -116.52352,-116.52523 -0.6034,0.603393 0,0 z"
           id="path68"
           inkscape:connector-curvature="0" />
        <path
           d="m 111.15899,10.39535 116.74539,116.74709 0.6034,-0.60339 -116.74539,-116.7470933 -0.6034,0.6033933 0,0 z"
           id="path70"
           inkscape:connector-curvature="0" />
        <path
           d="M 120.41083,1.0116706 237.37809,117.9802 l 0.6034,-0.60339 -116.96726,-116.96853391 -0.6034,0.60339451 0,0 z"
           id="path72"
           inkscape:connector-curvature="0" />
      </g>
    </g>
    <path
       d="M 209.79622,45.260582 C 199.72988,35.194234 187.35398,26.123301 172.57084,20.626128 157.24753,14.927995 139.91377,10.125008 119.47004,11.867088 86.904277,14.642981 64.039211,29.254181 46.661504,46.355409 34.489556,58.333222 25.333716,73.010982 19.289983,90.149756 c -8.873814,25.165224 -8.33536,54.868484 1.64224,80.472324 8.51072,21.83978 22.440534,39.45514 42.152108,53.1008 18.53056,12.82858 45.126399,22.77802 74.997759,20.25514 36.38272,-3.07285 63.00331,-21.73866 80.47232,-43.24693 4.46976,-5.50229 8.91392,-11.72181 11.49568,-19.15989 2.52971,-5.35936 3.76789,-9.00267 4.92715,-10.9487 4.85205,-10.87232 7.42272,-22.34368 8.2112,-35.0353 2.4256,-39.036591 -12.59392,-69.527898 -33.39222,-90.326618 l 0,0 z M 199.07366,164.19306 c -0.0695,0.14848 -0.13184,0.28672 -0.20437,0.4399 -1.8048,5.1648 -4.91392,9.48352 -8.03883,13.30474 -12.21717,14.93504 -30.83221,27.89632 -56.2752,30.03051 -20.89002,1.75104 -39.488849,-5.15712 -52.447143,-14.06507 -11.260586,-7.74101 -19.820373,-17.32309 -25.82272,-28.83882 -0.36608,-0.69291 -3.851946,-8.72406 -3.862186,-9.07734 -4.7552,-14.74944 -5.167787,-38.46613 -0.287147,-52.69845 3.257173,-9.498881 8.685653,-19.776428 15.875413,-27.918934 9.926827,-11.243094 19.860907,-18.44736 35.583143,-23.539627 7.17867,-2.325333 13.60512,-4.692053 22.44438,-4.92672 21.5552,-0.573867 43.50506,9.104213 55.29045,19.707307 10.83051,9.743786 23.17397,28.724053 26.27712,46.531414 3.1936,18.32832 -0.21461,36.22315 -8.53291,51.05109 l 0,0 z"
       id="path74"
       inkscape:connector-curvature="0"
       style="fill:#000000" />
    <g
       transform="translate(83.626667,76.373333)"
       id="g76">
      <path
         d="m 77.981013,105.40075 c -5.307733,0 -9.965653,-3.36128 -11.591253,-8.364377 l -5.911893,-18.013013 -29.5744,0 -5.492907,17.848747 c -1.658027,5.100373 -6.35136,8.514563 -11.6864,8.514563 -1.280853,0 -2.553173,-0.20267 -3.7815467,-0.60118 -6.37696,-1.91445 -9.99722663,-8.778237 -8.04352,-15.29173 L 26.861653,10.422613 C 28.48256,5.39264 33.2544,1.88416 38.466987,1.88416 l 13.2736,0 c 5.242026,0 10.01344,3.4487467 11.602773,8.386987 l 26.252373,79.041706 c 2.0992,6.462294 -1.376853,13.399467 -7.744426,15.472217 -1.259094,0.40874 -2.560854,0.61568 -3.870294,0.61568 l 0,0 0,0 z"
         id="path78"
         inkscape:connector-curvature="0"
         style="fill:#ffffff" />
      <path
         d="m 77.981013,103.69408 c -4.754829,0 -8.920167,-3.00577 -10.3739,-7.479914 l -5.913072,-18.016623 -0.289096,-0.88085 -0.927078,0 -29.5744,0 -0.945326,0 -0.278053,0.903509 -5.492906,17.848747 C 22.707269,100.6209 18.506723,103.68 13.72416,103.68 c -1.14541,0 -2.284499,-0.18118 -3.386557,-0.5387 C 4.6117491,101.42199 1.3742131,95.272245 3.1251287,89.43484 L 28.082271,10.381293 c 1.44855,-4.4950445 5.729117,-7.6437997 10.384716,-7.6437997 l 13.2736,0 c 4.688267,0 8.965927,3.0920153 10.384323,7.4991347 l 26.256072,79.053018 c 1.878949,5.784349 -1.232405,11.998304 -6.925873,13.851614 -1.130457,0.36699 -2.298851,0.55282 -3.474096,0.55282 l 0,0 z m 0,2.56 c 1.444334,0 2.879433,-0.22825 4.265523,-0.67823 7.045729,-2.29349 10.882385,-9.956009 8.566579,-17.085115 L 64.558111,9.4410208 C 62.80161,3.9831905 57.536605,0.17749333 51.740587,0.17749333 l -13.2736,0 c -5.771821,0 -11.033386,3.87036997 -12.823639,9.42585517 L 0.67847527,88.681747 C -1.4809636,95.880673 2.5114549,103.46433 9.5745672,105.58477 10.904117,106.01643 12.30974,106.24 13.72416,106.24 c 5.892725,0 11.075253,-3.77424 12.903695,-9.398842 l 5.49899,-17.867973 -1.223378,0.903508 29.5744,0 -1.216174,-0.88085 5.911893,18.013013 c 1.79631,5.528504 6.946864,9.245224 12.807427,9.245224 l 0,0 z"
         id="path80"
         inkscape:connector-curvature="0"
         style="fill:#000000" />
    </g>
    <g
       transform="translate(61.44,19.2)"
       id="g82"
       style="fill:#ffffff">
      <path
         d="M 2.13376,33.857707 2.102613,33.815467 C -1.010347,29.549227 -0.09685363,23.581013 4.4876797,20.235093 9.072213,16.8896 14.961493,17.828693 18.074453,22.094507 l 0.03115,0.04224 c 3.11296,4.26624 2.199467,10.23488 -2.385067,13.580373 C 11.136,39.062613 5.24672,38.123947 2.13376,33.857707 l 0,0 z m 11.80032,-8.611414 -0.03115,-0.04224 C 12.338773,23.06048 9.4263467,22.3232 7.1556267,23.980373 4.9058133,25.622187 4.73088,28.546987 6.29504,30.690987 l 0.031147,0.04224 c 1.5645866,2.143573 4.476586,2.880853 6.7264,1.23904 2.271146,-1.657174 2.44608,-4.581974 0.881493,-6.725974 l 0,0 z"
         id="path84"
         inkscape:connector-curvature="0" />
      <path
         d="m 32.146773,5.8952533 4.6784,-1.5010133 13.115307,15.246507 -5.204053,1.669546 -2.279254,-2.717866 -6.755413,2.167466 -0.247467,3.52896 -5.103786,1.637547 1.796266,-20.0311467 0,0 z M 39.84384,15.264 36.294827,10.911147 35.91552,16.524373 39.84384,15.264 l 0,0 z"
         id="path86"
         inkscape:connector-curvature="0" />
      <path
         d="m 58.365867,10.48192 0.04096,-10.32661333 5.17632,0.02048 -0.04053,10.22165333 c -0.01067,2.653867 1.324374,3.920213 3.37408,3.928747 2.049707,0.0081 3.39456,-1.195094 3.404374,-3.770027 l 0.04139,-10.35264 5.17632,0.02048 -0.04053,10.1952 c -0.02347,5.938347 -3.423147,8.526507 -8.652373,8.5056 -5.2288,-0.02133 -8.502614,-2.688427 -8.48,-8.44288 l 0,0 z"
         id="path88"
         inkscape:connector-curvature="0" />
      <path
         d="M 94.233173,8.6775467 88.95616,7.06688 90.260053,2.7946667 105.6896,7.5037867 104.38571,11.776 99.108693,10.16576 95.04384,23.484587 90.168747,21.9968 94.233173,8.6775467 l 0,0 z"
         id="path90"
         inkscape:connector-curvature="0" />
      <path
         d="m 119.47179,13.465173 4.24362,2.824107 -3.81354,5.730987 5.44682,3.62496 3.81398,-5.731414 4.24362,2.824107 -10.19008,15.31264 -4.24405,-2.824107 3.87243,-5.81888 -5.44726,-3.62496 -3.872,5.81888 -4.24362,-2.824106 10.19008,-15.312214 0,0 z"
         id="path92"
         inkscape:connector-curvature="0" />
    </g>
    <g
       transform="translate(65.28,196.26667)"
       id="g94"
       style="fill:#ffffff">
      <path
         d="m 130.62229,3.79008 0.0324,0.041387 c 3.27424,4.1442133 2.58901,10.144 -1.86453,13.662293 -4.45355,3.518293 -10.37483,2.804907 -13.64907,-1.339307 l -0.0324,-0.04139 c -3.27424,-4.14464 -2.58858,-10.144 1.86454,-13.6622934 4.45354,-3.5178666 10.37482,-2.80490663 13.64906,1.3393067 l 0,0 z m -11.4641,9.056853 0.0324,0.04139 c 1.64523,2.08256 4.58368,2.708053 6.78998,0.96512 2.18538,-1.72672 2.24896,-4.6562133 0.6033,-6.7387733 l -0.0324,-0.041387 c -1.6448,-2.08256 -4.58368,-2.7080533 -6.76907,-0.9813333 -2.20629,1.7429333 -2.26944,4.6724266 -0.62421,6.7549866 l 0,0 z"
         id="path96"
         inkscape:connector-curvature="0" />
      <path
         d="m 101.84832,32.930987 -4.608,1.705386 -13.773653,-14.654293 5.125546,-1.897387 2.397014,2.615467 6.65344,-2.46272 0.09173,-3.536213 5.026993,-1.860694 -0.91307,20.090454 0,0 z m -8.101973,-9.020587 3.737173,4.192 0.13184,-5.62432 -3.869013,1.43232 0,0 z"
         id="path98"
         inkscape:connector-curvature="0" />
      <path
         d="m 75.472213,29.4336 0.455254,10.316373 -5.1712,0.228267 -0.450987,-10.211413 c -0.116907,-2.651307 -1.511253,-3.851947 -3.558827,-3.761494 -2.047573,0.09045 -3.33312,1.357227 -3.219626,3.9296 l 0.456533,10.3424 -5.1712,0.228267 -0.449707,-10.18496 c -0.261973,-5.932373 3.009707,-8.68096 8.233387,-8.91136 5.224107,-0.230827 8.622507,2.275413 8.876373,8.02432 l 0,0 z"
         id="path100"
         inkscape:connector-curvature="0" />
      <path
         d="m 39.539627,32.806827 5.327786,1.438293 -1.164373,4.312747 -15.578027,-4.2048 1.164374,-4.313174 5.327786,1.438294 3.629654,-13.446827 4.922026,1.32864 -3.629226,13.446827 0,0 z"
         id="path102"
         inkscape:connector-curvature="0" />
      <path
         d="M 14.357333,29.059413 9.9844267,26.438827 13.523627,20.533333 7.91168,17.169493 4.37248,23.074987 0,20.4544 9.45664,4.6766933 l 4.37248,2.6210134 -3.593387,5.9955203 5.612374,3.36384 3.593386,-5.99552 4.37248,2.621013 -9.45664,15.776853 0,0 z"
         id="path104"
         inkscape:connector-curvature="0" />
    </g>
  </g>
</svg>
