<?xml version="1.0" encoding="UTF-8" standalone="no"?>
<svg
   xmlns:dc="http://purl.org/dc/elements/1.1/"
   xmlns:cc="http://creativecommons.org/ns#"
   xmlns:rdf="http://www.w3.org/1999/02/22-rdf-syntax-ns#"
   xmlns:svg="http://www.w3.org/2000/svg"
   xmlns="http://www.w3.org/2000/svg"
   xmlns:sodipodi="http://sodipodi.sourceforge.net/DTD/sodipodi-0.dtd"
   xmlns:inkscape="http://www.inkscape.org/namespaces/inkscape"
   width="128"
   height="128"
   viewBox="0 0 128 128"
   version="1.1"
   preserveAspectRatio="xMidYMid"
   id="svg2"
   inkscape:version="0.91 r13725"
   sodipodi:docname="onesignal.svg">
  <metadata
     id="metadata12">
    <rdf:RDF>
      <cc:Work
         rdf:about="">
        <dc:format>image/svg+xml</dc:format>
        <dc:type
           rdf:resource="http://purl.org/dc/dcmitype/StillImage" />
        <dc:title></dc:title>
      </cc:Work>
    </rdf:RDF>
  </metadata>
  <defs
     id="defs10" />
  <sodipodi:namedview
     pagecolor="#ffffff"
     bordercolor="#666666"
     borderopacity="1"
     objecttolerance="10"
     gridtolerance="10"
     guidetolerance="10"
     inkscape:pageopacity="0"
     inkscape:pageshadow="2"
     inkscape:window-width="1366"
     inkscape:window-height="706"
     id="namedview8"
     showgrid="false"
     inkscape:zoom="2"
     inkscape:cx="16.022601"
     inkscape:cy="83.763456"
     inkscape:window-x="-8"
     inkscape:window-y="-8"
     inkscape:window-maximized="1"
     inkscape:current-layer="g4" />
  <g
     id="g4"
     transform="matrix(0.52941184,0,0,0.52941184,0,-108)">
    <path
       d="m 121.49908,209.66662 c -66.467958,0 -120.55463569,54.58404 -120.55463569,121.66322 0,42.74654 22.15598869,80.23196 54.73832369,101.93405 1.954941,-1.31528 3.909881,-2.63055 5.864822,-3.94584 1.303292,-0.65763 3.258233,-1.97291 4.561526,-2.63055 1.954941,-0.65764 3.90988,-1.97291 5.213175,-2.63056 1.95494,-0.65764 3.909879,-1.31527 5.86482,-2.63055 1.303293,-0.65764 3.258233,-1.31528 4.561526,-1.97291 1.954942,-0.65764 4.561528,-1.31529 6.516468,-1.97293 1.95494,-0.65763 3.258233,-0.65763 5.213174,-1.31527 1.954938,-0.65764 3.258231,-0.65764 5.213171,-1.31528 1.95494,-0.65764 3.90988,-0.65764 5.86482,-0.65764 l 0,0 c 1.95494,0 4.56152,-0.65763 6.51647,-0.65763 l 0,0 0,-7.89168 0,-6.57639 0,-26.96319 0,-6.57639 0,-24.33266 -6.51647,0 0,-13.15278 6.51647,0 19.54939,0 6.51648,0 0,35.51251 0,7.23403 0,27.62085 0,6.57638 0,9.86459 c 18.24611,2.63055 34.53727,9.20694 49.52515,18.41389 l 0,0 c 33.23398,-21.70209 54.73832,-59.18751 54.73832,-101.93405 0.65165,-67.07918 -53.43503,-121.66322 -119.903,-121.66322 l 0,0 z m 35.84058,121.66322 c 0,-19.72917 -16.29117,-36.17014 -35.84058,-36.17014 -19.54939,0 -35.840562,16.44097 -35.840562,36.17014 0,13.81043 7.819761,26.30556 19.549402,32.22431 l 0,7.23403 C 90.220045,364.21179 79.142051,349.0861 79.142051,331.32984 c 0,-23.675 18.897752,-42.74652 42.357029,-42.74652 23.45929,0 42.35704,19.07152 42.35704,42.74652 0,15.1257 -7.81976,28.27849 -19.5494,36.17015 l 0,-7.89166 c 7.81977,-7.23404 13.03294,-17.09862 13.03294,-28.27849 l 0,0 z m -13.03294,71.68266 0,-7.23403 c 26.71751,-9.20695 45.61528,-34.85487 45.61528,-65.10626 0,-37.48543 -30.62741,-68.39446 -68.42292,-68.39446 -37.795501,0 -68.422898,30.90903 -68.422898,69.05209 0,32.22431 22.155988,59.84515 52.131738,67.07919 l 0,6.57638 c -33.233983,-7.23402 -58.648205,-37.48542 -58.648205,-73.65557 0,-42.08889 33.233983,-75.62848 74.939365,-75.62848 41.70539,0 74.93938,33.53959 74.93938,75.62848 0,33.53959 -22.156,62.4757 -52.13174,71.68266 l 0,0 z"
       id="path6"
       inkscape:connector-curvature="0"
       style="fill:#e44a49" />
  </g>
</svg>
