<?xml version="1.0" encoding="UTF-8" standalone="no"?>
<svg
   xmlns:dc="http://purl.org/dc/elements/1.1/"
   xmlns:cc="http://creativecommons.org/ns#"
   xmlns:rdf="http://www.w3.org/1999/02/22-rdf-syntax-ns#"
   xmlns:svg="http://www.w3.org/2000/svg"
   xmlns="http://www.w3.org/2000/svg"
   xmlns:sodipodi="http://sodipodi.sourceforge.net/DTD/sodipodi-0.dtd"
   xmlns:inkscape="http://www.inkscape.org/namespaces/inkscape"
   width="128"
   height="128"
   viewBox="0 0 128 128"
   version="1.1"
   preserveAspectRatio="xMidYMid"
   id="svg2"
   inkscape:version="0.91 r13725"
   sodipodi:docname="php.svg">
  <metadata
     id="metadata35">
    <rdf:RDF>
      <cc:Work
         rdf:about="">
        <dc:format>image/svg+xml</dc:format>
        <dc:type
           rdf:resource="http://purl.org/dc/dcmitype/StillImage" />
        <dc:title></dc:title>
      </cc:Work>
    </rdf:RDF>
  </metadata>
  <sodipodi:namedview
     pagecolor="#ffffff"
     bordercolor="#666666"
     borderopacity="1"
     objecttolerance="10"
     gridtolerance="10"
     guidetolerance="10"
     inkscape:pageopacity="0"
     inkscape:pageshadow="2"
     inkscape:window-width="1366"
     inkscape:window-height="706"
     id="namedview33"
     showgrid="false"
     inkscape:zoom="1.9279708"
     inkscape:cx="115.8613"
     inkscape:cy="63.628187"
     inkscape:window-x="-8"
     inkscape:window-y="-8"
     inkscape:window-maximized="1"
     inkscape:current-layer="svg2" />
  <defs
     id="defs4">
    <radialGradient
       id="radialGradient-1"
       cx="0.83660001"
       cy="-125.811"
       r="363.05649"
       gradientTransform="matrix(0.463,0,0,0.463,76.4644,81.9182)"
       gradientUnits="userSpaceOnUse">
      <stop
         offset="0"
         style="stop-color:#FFFFFF"
         id="stop7" />
      <stop
         offset="0.5"
         style="stop-color:#4C6B97"
         id="stop9" />
      <stop
         offset="1"
         style="stop-color:#231F20"
         id="stop11" />
    </radialGradient>
  </defs>
  <g
     id="g13"
     transform="matrix(0.49905893,0,0,0.38804183,0.60767178,35.633403)">
    <ellipse
       cx="128"
       cy="67.300003"
       rx="128"
       ry="67.300003"
       id="ellipse15"
       style="fill:url(#radialGradient-1)" />
    <ellipse
       cx="128"
       cy="67.300003"
       rx="123"
       ry="62.299999"
       id="ellipse17"
       style="fill:#6181b6" />
    <g
       id="g19">
      <path
         d="m 152.9,87.5 c 0,0 6.1,-31.4 6.1,-31.4 1.4,-7.1 0.2,-12.4 -3.4,-15.7 -3.5,-3.2 -9.5,-4.8 -18.3,-4.8 l -10.6,0 3,-15.6 c 0.1,-0.6 0,-1.2 -0.4,-1.7 -0.4,-0.5 -0.9,-0.7 -1.5,-0.7 l -14.6,0 c -1,0 -1.8,0.7 -2,1.6 l -6.5,33.3 c -0.6,-3.8 -2,-7 -4.4,-9.6 C 96,38 89.3,35.5 80.2,35.5 l -28.1,0 c -1,0 -1.8,0.7 -2,1.6 L 37,104.7 c -0.1,0.6 0,1.2 0.4,1.7 0.4,0.5 0.9,0.7 1.5,0.7 l 14.7,0 c 1,0 1.8,-0.7 2,-1.6 l 3.2,-16.3 10.9,0 c 5.7,0 10.6,-0.6 14.3,-1.8 3.9,-1.3 7.4,-3.4 10.5,-6.3 2.5,-2.3 4.6,-4.9 6.2,-7.7 l -2.6,13.5 c -0.1,0.6 0,1.2 0.4,1.7 0.4,0.5 0.9,0.7 1.5,0.7 l 14.6,0 c 1,0 1.8,-0.7 2,-1.6 l 7.2,-37 10,0 c 4.3,0 5.5,0.8 5.9,1.2 0.3,0.3 0.9,1.5 0.2,5.2 L 134.1,87 c -0.1,0.6 0,1.2 0.4,1.7 0.4,0.5 0.9,0.7 1.5,0.7 l 15,0 c 0.9,-0.3 1.7,-1 1.9,-1.9 z m -67.6,-26 c -0.9,4.7 -2.6,8.1 -5.1,10 -2.5,1.9 -6.6,2.9 -12,2.9 l -6.5,0 4.7,-24.2 8.4,0 c 6.2,0 8.7,1.3 9.7,2.4 1.3,1.6 1.6,4.7 0.8,8.9 z"
         id="path21"
         inkscape:connector-curvature="0"
         style="fill:#ffffff" />
      <path
         d="M 215.3,42.9 C 211,38 204.3,35.5 195.2,35.5 l -28.3,0 c -1,0 -1.8,0.7 -2,1.6 l -13.1,67.5 c -0.1,0.6 0,1.2 0.4,1.7 0.4,0.5 0.9,0.7 1.5,0.7 l 14.7,0 c 1,0 1.8,-0.7 2,-1.6 l 3.2,-16.3 10.9,0 c 5.7,0 10.6,-0.6 14.3,-1.8 3.9,-1.3 7.4,-3.4 10.5,-6.3 2.6,-2.4 4.8,-5.1 6.4,-8 1.6,-2.9 2.8,-6.1 3.5,-9.6 1.7,-8.7 0.4,-15.5 -3.9,-20.5 z M 200,61.5 c -0.9,4.7 -2.6,8.1 -5.1,10 -2.5,1.9 -6.6,2.9 -12,2.9 l -6.5,0 4.7,-24.2 8.4,0 c 6.2,0 8.7,1.3 9.7,2.4 1.4,1.6 1.7,4.7 0.8,8.9 z"
         id="path23"
         inkscape:connector-curvature="0"
         style="fill:#ffffff" />
    </g>
    <g
       id="g25">
      <path
         d="m 74.8,48.2 c 5.6,0 9.3,1 11.2,3.1 1.9,2.1 2.3,5.6 1.3,10.6 -1,5.2 -3,9 -5.9,11.2 -2.9,2.2 -7.3,3.3 -13.2,3.3 l -8.9,0 5.5,-28.2 10,0 z M 39,105 l 14.7,0 3.5,-17.9 12.6,0 c 5.6,0 10.1,-0.6 13.7,-1.8 3.6,-1.2 6.8,-3.1 9.8,-5.9 2.5,-2.3 4.5,-4.8 6,-7.5 1.5,-2.7 2.6,-5.7 3.2,-9 1.6,-8 0.4,-14.2 -3.5,-18.7 C 95.1,39.7 88.9,37.5 80.4,37.5 L 52.1,37.5 39,105 Z"
         id="path27"
         inkscape:connector-curvature="0"
         style="fill:#000004" />
      <path
         d="m 113.3,19.6 14.6,0 -3.5,17.9 13,0 c 8.2,0 13.8,1.4 16.9,4.3 3.1,2.9 4,7.5 2.8,13.9 l -6.1,31.4 -14.8,0 5.8,-29.9 c 0.7,-3.4 0.4,-5.7 -0.7,-6.9 -1.1,-1.2 -3.6,-1.9 -7.3,-1.9 l -11.7,0 -7.5,38.7 -14.6,0 13.1,-67.5 z"
         id="path29"
         inkscape:connector-curvature="0"
         style="fill:#000004" />
      <path
         d="m 189.5,48.2 c 5.6,0 9.3,1 11.2,3.1 1.9,2.1 2.3,5.6 1.3,10.6 -1,5.2 -3,9 -5.9,11.2 -2.9,2.2 -7.3,3.3 -13.2,3.3 l -8.9,0 5.5,-28.2 10,0 z m -35.8,56.8 14.7,0 3.5,-17.9 12.6,0 c 5.6,0 10.1,-0.6 13.7,-1.8 3.6,-1.2 6.8,-3.1 9.8,-5.9 2.5,-2.3 4.5,-4.8 6,-7.5 1.5,-2.7 2.6,-5.7 3.2,-9 1.6,-8 0.4,-14.2 -3.5,-18.7 -3.9,-4.5 -10.1,-6.7 -18.6,-6.7 l -28.3,0 -13.1,67.5 z"
         id="path31"
         inkscape:connector-curvature="0"
         style="fill:#000004" />
    </g>
  </g>
</svg>
