<?xml version="1.0" encoding="UTF-8" standalone="no"?>
<!-- Created with Inkscape (http://www.inkscape.org/) -->

<svg
   xmlns:dc="http://purl.org/dc/elements/1.1/"
   xmlns:cc="http://creativecommons.org/ns#"
   xmlns:rdf="http://www.w3.org/1999/02/22-rdf-syntax-ns#"
   xmlns:svg="http://www.w3.org/2000/svg"
   xmlns="http://www.w3.org/2000/svg"
   xmlns:sodipodi="http://sodipodi.sourceforge.net/DTD/sodipodi-0.dtd"
   xmlns:inkscape="http://www.inkscape.org/namespaces/inkscape"
   width="128"
   height="128"
   viewBox="0 0 128 128"
   id="svg2"
   version="1.1"
   inkscape:version="0.91 r13725"
   sodipodi:docname="Piskel.svg">
  <defs
     id="defs4" />
  <sodipodi:namedview
     id="base"
     pagecolor="#ffffff"
     bordercolor="#666666"
     borderopacity="1.0"
     inkscape:pageopacity="0.0"
     inkscape:pageshadow="2"
     inkscape:zoom="1.4"
     inkscape:cx="249.14909"
     inkscape:cy="126.16057"
     inkscape:document-units="px"
     inkscape:current-layer="layer1"
     showgrid="false"
     units="px"
     inkscape:window-width="1366"
     inkscape:window-height="706"
     inkscape:window-x="-8"
     inkscape:window-y="-8"
     inkscape:window-maximized="1" />
  <metadata
     id="metadata7">
    <rdf:RDF>
      <cc:Work
         rdf:about="">
        <dc:format>image/svg+xml</dc:format>
        <dc:type
           rdf:resource="http://purl.org/dc/dcmitype/StillImage" />
        <dc:title></dc:title>
      </cc:Work>
    </rdf:RDF>
  </metadata>
  <g
     inkscape:label="Capa 1"
     inkscape:groupmode="layer"
     id="layer1"
     transform="translate(0,-924.36216)">
    <g
       id="g4147"
       transform="matrix(0.31428572,0,0,0.31428572,-83.849588,785.26025)">
      <path
         style="fill:#fdfdfd"
         d="m 273.98325,644.66073 0,-195.48022 195.48023,0 195.48022,0 0,195.48022 0,195.48023 -195.48022,0 -195.48023,0 0,-195.48023 z"
         id="path4201"
         inkscape:connector-curvature="0" />
      <path
         style="fill:#f2f2f2"
         d="m 273.98325,694.06953 c 0,-123.26964 0.21667,-146.2881 1.38801,-147.45943 0.9146,-0.9146 4.41055,-1.50224 10.25,-1.72294 l 8.86199,-0.33493 -8.82143,-0.20563 c -6.19624,-0.14444 -9.25796,-0.64217 -10.28832,-1.67253 -1.28918,-1.28919 -0.0994,-1.50119 9.82143,-1.75 l 11.28832,-0.28311 0.26233,-37.4124 c 0.17939,-25.58273 0.61335,-37.83534 1.37245,-38.75 1.64003,-1.97611 100.09041,-1.97611 101.73044,0 0.7591,0.91466 1.19306,13.16727 1.37245,38.75 l 0.26233,37.4124 9.09808,0.28552 c 6.77178,0.21251 9.38946,-0.0656 10.23767,-1.08761 0.79723,-0.9606 1.21839,-12.6126 1.40192,-38.78551 l 0.26233,-37.4124 51.5,0 51.5,0 0.26233,37.4124 c 0.18353,26.17291 0.60469,37.82491 1.40192,38.78551 0.84821,1.02203 3.46589,1.30012 10.23767,1.08761 l 9.09808,-0.28552 0.5,-38.5 0.5,-38.5 51.5,0 51.5,0 0.5,38.5 0.5,38.5 11.28832,0.28311 c 9.77491,0.24515 11.09709,0.47433 9.86199,1.70943 -0.9597,0.9597 -4.32553,1.5359 -10.28832,1.76126 l -8.86199,0.33493 8.82143,0.20563 c 6.08357,0.14182 9.2648,0.64902 10.25,1.63421 1.22505,1.22506 1.42857,22.2381 1.42857,147.5 l 0,146.07143 -200,0 -200,0 0,-146.07143 z M 415.75968,544.41407 c -2.04796,-0.21488 -5.64796,-0.21785 -8,-0.007 -2.35204,0.21125 -0.67643,0.38706 3.72357,0.39069 4.4,0.004 6.32439,-0.16921 4.27643,-0.38408 z m 125,0 c -2.04796,-0.21488 -5.64796,-0.21785 -8,-0.007 -2.35204,0.21125 -0.67643,0.38706 3.72357,0.39069 4.4,0.004 6.32439,-0.16921 4.27643,-0.38408 z"
         id="path4199"
         inkscape:connector-curvature="0" />
      <path
         style="fill:#e5e5e5"
         d="m 273.98325,733.14096 c 0,-70.66667 0.33956,-107 1,-107 1.44685,0 1.2313,-3.74 -0.25,-4.33772 -0.6875,-0.27741 3.25,-0.5468 8.75,-0.59865 5.5,-0.0518 10.675,-0.52065 11.5,-1.0418 1.18802,-0.75046 1.60399,-4.1271 2,-16.23468 l 0.5,-15.28715 51.5,0 51.5,0 0.5,15.28715 c 0.39601,12.10758 0.81198,15.48422 2,16.23468 0.825,0.52115 4.65,0.94754 8.5,0.94754 3.85,0 7.675,-0.42639 8.5,-0.94754 1.18802,-0.75046 1.60399,-4.1271 2,-16.23468 l 0.5,-15.28715 51.5,0 51.5,0 0.5,15.28715 c 0.39601,12.10758 0.81198,15.48422 2,16.23468 1.94755,1.23026 15.05245,1.23026 17,0 1.18802,-0.75046 1.60399,-4.1271 2,-16.23468 l 0.5,-15.28715 51.5,0 51.5,0 0.5,15.28715 c 0.39601,12.10758 0.81198,15.48422 2,16.23468 0.825,0.52115 6,0.98996 11.5,1.0418 5.5,0.0519 9.4375,0.32124 8.75,0.59865 -1.4813,0.59772 -1.69685,4.33772 -0.25,4.33772 0.66044,0 1,36.33333 1,107 l 0,107 -200,0 -200,0 0,-107 z m 24.6558,-167.48705 c -1.28922,-1.28922 -1.42117,-7.97424 -0.99185,-50.25 0.27236,-26.81962 0.67027,-49.32545 0.88424,-50.01295 0.56879,-1.82756 100.33482,-1.82756 100.90362,0 0.21397,0.6875 0.61188,23.19333 0.88424,50.01295 0.42932,42.27576 0.29737,48.96078 -0.99185,50.25 -2.23644,2.23643 -98.45196,2.23643 -100.6884,0 z m 124.5442,0.28705 c -1.40394,-1.40394 -1.5382,-18.52431 -0.53826,-68.63676 l 0.66173,-33.16324 50.67653,0 50.67653,0 0.66173,33.16324 c 0.99994,50.11245 0.86568,67.23282 -0.53826,68.63676 -1.72935,1.72935 -99.87065,1.72935 -101.6,0 z m 125,0 c -1.50278,-1.50278 -1.71546,-98.43614 -0.22116,-100.8 0.82225,-1.30074 7.59997,-1.5 51.02116,-1.5 43.42119,0 50.19891,0.19926 51.02116,1.5 1.4943,2.36386 1.28162,99.29722 -0.22116,100.8 -1.72935,1.72935 -99.87065,1.72935 -101.6,0 z"
         id="path4197"
         inkscape:connector-curvature="0" />
      <path
         style="fill:#d9d9d9"
         d="m 273.98325,774.06953 c 0,-55.92857 0.21931,-66.29073 1.42857,-67.5 2.15373,-2.15373 394.98913,-2.15373 397.14286,0 1.20926,1.20927 1.42857,11.57143 1.42857,67.5 l 0,66.07143 -200,0 -200,0 0,-66.07143 z m 1.21057,-71.46661 c -1.13074,-1.28204 23.33778,-1.46196 198.82143,-1.46196 177.87632,0 199.94419,0.16667 198.61086,1.5 -1.32346,1.32346 -24.72388,1.49552 -198.82143,1.46196 -171.82758,-0.0331 -197.48802,-0.22692 -198.61086,-1.5 z m 21.78943,-60.89053 c 0,-44.51082 0.18441,-50.61298 1.57143,-52 1.38568,-1.38569 7.34632,-1.57143 50.42857,-1.57143 43.08225,0 49.04288,0.18574 50.42857,1.57143 1.38702,1.38702 1.57143,7.48918 1.57143,52 l 0,50.42857 -52,0 -52,0 0,-50.42857 z m 125,0 c 0,-44.51082 0.18441,-50.61298 1.57143,-52 1.38569,-1.38569 7.34632,-1.57143 50.42857,-1.57143 43.08225,0 49.04288,0.18574 50.42857,1.57143 1.38702,1.38702 1.57143,7.48918 1.57143,52 l 0,50.42857 -52,0 -52,0 0,-50.42857 z m 125,0 c 0,-44.51082 0.18441,-50.61298 1.57143,-52 1.38569,-1.38569 7.34632,-1.57143 50.42857,-1.57143 43.08225,0 49.04288,0.18574 50.42857,1.57143 1.38702,1.38702 1.57143,7.48918 1.57143,52 l 0,50.42857 -52,0 -52,0 0,-50.42857 z M 298.65907,565.48344 c -0.3717,-0.3717 -0.67582,-22.78581 -0.67582,-49.80915 0,-36.88148 0.29923,-49.43256 1.2,-50.33333 1.87258,-1.87258 98.12827,-1.71431 99.68706,0.16391 0.81679,0.98418 1.05969,15.11393 0.87244,50.75 l -0.2595,49.38609 -50.07418,0.25915 c -27.5408,0.14253 -50.3783,-0.045 -50.75,-0.41667 z m 124.78609,-0.58322 c -0.26534,-0.69259 -0.36531,-23.53426 -0.22217,-50.75926 l 0.26026,-49.5 50.5,0 50.5,0 0,50.5 0,50.5 -50.27783,0.25926 c -39.68876,0.20467 -50.37943,-0.006 -50.76026,-1 z m 124.77893,-49.50926 0.25916,-50.75 50.5,0 50.5,0 0.25916,50.75 0.25917,50.75 -51.01833,0 -51.01833,0 0.25917,-50.75 z"
         id="path4195"
         inkscape:connector-curvature="0" />
      <path
         style="fill:#d2e6d2"
         d="m 273.98325,814.06953 c 0,-20.92055 0.27454,-26.34596 1.38958,-27.46101 0.93197,-0.93197 4.47218,-1.49874 10.75,-1.72103 l 9.36042,-0.33145 -9.32143,-0.20754 c -6.63557,-0.14774 -9.74409,-0.63021 -10.78832,-1.67443 -1.28918,-1.28919 -0.0994,-1.50119 9.82143,-1.75 l 11.28832,-0.28311 0.5,-32.78741 c 0.42211,-27.68002 0.73366,-32.93497 2,-33.73469 2.0061,-1.26689 97.9939,-1.26689 100,0 1.26634,0.79972 1.57789,6.05467 2,33.73469 l 0.5,32.78741 10.25,0.28498 10.25,0.28499 0,-32.9998 c 0,-31.60248 0.0819,-33.04364 1.93426,-34.03499 1.25648,-0.67244 18.79984,-1.03518 50.06574,-1.03518 31.2659,0 48.80926,0.36274 50.06574,1.03518 1.85236,0.99135 1.93426,2.43251 1.93426,34.03499 l 0,32.9998 10.25,-0.28499 10.25,-0.28498 0.26407,-32.41449 c 0.17829,-21.8844 0.62413,-32.84834 1.37244,-33.75 0.89738,-1.08127 10.58031,-1.33551 50.86349,-1.33551 40.28318,0 49.96611,0.25424 50.86349,1.33551 0.74831,0.90166 1.19415,11.8656 1.37244,33.75 l 0.26407,32.41449 11.28832,0.28311 c 9.77491,0.24515 11.09709,0.47433 9.86199,1.70943 -0.9597,0.9597 -4.32553,1.5359 -10.28832,1.76126 l -8.86199,0.33493 8.82143,0.20563 c 6.08357,0.14182 9.2648,0.64902 10.25,1.63421 1.16503,1.16504 1.42857,6.2381 1.42857,27.5 l 0,26.07143 -200,0 -200,0 0,-26.07143 z m 142.75,-29.66361 c -2.6125,-0.206 -6.8875,-0.206 -9.5,0 -2.6125,0.206 -0.475,0.37454 4.75,0.37454 5.225,0 7.3625,-0.16854 4.75,-0.37454 z m 123.53017,0.004 c -2.3209,-0.20972 -6.3709,-0.21222 -9,-0.006 -2.62909,0.20667 -0.73017,0.37827 4.21983,0.38131 4.95,0.003 7.10108,-0.16605 4.78017,-0.37577 z M 298.18325,690.94096 c -0.90083,-0.90083 -1.2,-13.47302 -1.2,-50.42857 0,-43.41991 0.18542,-49.41399 1.57143,-50.8 1.38568,-1.38569 7.34632,-1.57143 50.42857,-1.57143 43.08225,0 49.04288,0.18574 50.42857,1.57143 1.38601,1.38601 1.57143,7.38009 1.57143,50.8 0,36.95555 -0.29917,49.52774 -1.2,50.42857 -1.72935,1.72935 -99.87065,1.72935 -101.6,0 z m 125,0 c -0.90083,-0.90083 -1.2,-13.47302 -1.2,-50.42857 0,-43.41991 0.18542,-49.41399 1.57143,-50.8 1.38569,-1.38569 7.34632,-1.57143 50.42857,-1.57143 43.08225,0 49.04288,0.18574 50.42857,1.57143 1.38601,1.38601 1.57143,7.38009 1.57143,50.8 0,36.95555 -0.29917,49.52774 -1.2,50.42857 -1.72935,1.72935 -99.87065,1.72935 -101.6,0 z m 125.37143,-0.37143 c -1.38569,-1.38569 -1.57143,-7.34632 -1.57143,-50.42857 0,-43.08225 0.18574,-49.04288 1.57143,-50.42857 1.38569,-1.38569 7.34632,-1.57143 50.42857,-1.57143 43.08225,0 49.04288,0.18574 50.42857,1.57143 1.38569,1.38569 1.57143,7.34632 1.57143,50.42857 0,43.08225 -0.18574,49.04288 -1.57143,50.42857 -1.38569,1.38569 -7.34632,1.57143 -50.42857,1.57143 -43.08225,0 -49.04288,-0.18574 -50.42857,-1.57143 z M 298.65907,565.48344 c -0.3717,-0.3717 -0.67582,-22.78581 -0.67582,-49.80915 0,-36.88148 0.29923,-49.43256 1.2,-50.33333 1.87258,-1.87258 98.12827,-1.71431 99.68706,0.16391 0.81679,0.98418 1.05969,15.11393 0.87244,50.75 l -0.2595,49.38609 -50.07418,0.25915 c -27.5408,0.14253 -50.3783,-0.045 -50.75,-0.41667 z m 125,0 c -0.3717,-0.3717 -0.67582,-22.78581 -0.67582,-49.80915 0,-36.88148 0.29923,-49.43256 1.2,-50.33333 1.87258,-1.87258 98.12827,-1.71431 99.68706,0.16391 0.81679,0.98418 1.05969,15.11393 0.87244,50.75 l -0.2595,49.38609 -50.07418,0.25915 c -27.5408,0.14253 -50.3783,-0.045 -50.75,-0.41667 z m 125,0 c -0.3717,-0.3717 -0.67582,-22.78581 -0.67582,-49.80915 0,-36.88148 0.29923,-49.43256 1.2,-50.33333 1.87258,-1.87258 98.12827,-1.71431 99.68706,0.16391 0.81679,0.98418 1.05969,15.11393 0.87244,50.75 l -0.2595,49.38609 -50.07418,0.25915 c -27.5408,0.14253 -50.3783,-0.045 -50.75,-0.41667 z"
         id="path4193"
         inkscape:connector-curvature="0" />
      <path
         style="fill:#cdcdcd"
         d="m 273.98325,814.06953 c 0,-20.92055 0.27454,-26.34596 1.38958,-27.46101 0.93197,-0.93197 4.47218,-1.49874 10.75,-1.72103 l 9.36042,-0.33145 -9.32143,-0.20754 c -6.63557,-0.14774 -9.74409,-0.63021 -10.78832,-1.67443 -1.28918,-1.28919 -0.0994,-1.50119 9.82143,-1.75 l 11.28832,-0.28311 0.5,-32.78741 c 0.42211,-27.68002 0.73366,-32.93497 2,-33.73469 2.0061,-1.26689 97.9939,-1.26689 100,0 1.26634,0.79972 1.57789,6.05467 2,33.73469 l 0.5,32.78741 10.25,0.28498 10.25,0.28499 0,-32.9998 c 0,-31.60248 0.0819,-33.04364 1.93426,-34.03499 1.25648,-0.67244 18.79984,-1.03518 50.06574,-1.03518 31.2659,0 48.80926,0.36274 50.06574,1.03518 1.85236,0.99135 1.93426,2.43251 1.93426,34.03499 l 0,32.9998 10.25,-0.28499 10.25,-0.28498 0.26407,-32.41449 c 0.17829,-21.8844 0.62413,-32.84834 1.37244,-33.75 0.89738,-1.08127 10.58031,-1.33551 50.86349,-1.33551 40.28318,0 49.96611,0.25424 50.86349,1.33551 0.74831,0.90166 1.19415,11.8656 1.37244,33.75 l 0.26407,32.41449 11.28832,0.28311 c 9.77491,0.24515 11.09709,0.47433 9.86199,1.70943 -0.9597,0.9597 -4.32553,1.5359 -10.28832,1.76126 l -8.86199,0.33493 8.82143,0.20563 c 6.08357,0.14182 9.2648,0.64902 10.25,1.63421 1.16503,1.16504 1.42857,6.2381 1.42857,27.5 l 0,26.07143 -200,0 -200,0 0,-26.07143 z m 142.75,-29.66361 c -2.6125,-0.206 -6.8875,-0.206 -9.5,0 -2.6125,0.206 -0.475,0.37454 4.75,0.37454 5.225,0 7.3625,-0.16854 4.75,-0.37454 z m 123.53017,0.004 c -2.3209,-0.20972 -6.3709,-0.21222 -9,-0.006 -2.62909,0.20667 -0.73017,0.37827 4.21983,0.38131 4.95,0.003 7.10108,-0.16605 4.78017,-0.37577 z M 424.81839,691.4818 c -0.91567,-0.25008 -1.81567,-0.99158 -2,-1.64777 -0.18433,-0.65619 -0.11014,-23.46807 0.16486,-50.69307 l 0.5,-49.5 49.94056,-0.25944 c 27.4673,-0.1427 50.28602,0.086 50.70827,0.50827 0.9431,0.9431 1.29292,100.14249 0.35645,101.07988 -0.74217,0.74291 -97.01392,1.23758 -99.67014,0.51213 z m 123.77437,-0.87419 c -1.35106,-1.35105 -1.46857,-7.32531 -0.98839,-50.25 0.29973,-26.79416 0.71847,-49.27915 0.93054,-49.96665 0.30174,-0.97822 11.27043,-1.25 50.44834,-1.25 39.17791,0 50.1466,0.27178 50.44834,1.25 0.21207,0.6875 0.63081,23.17249 0.93054,49.96665 0.48018,42.92469 0.36267,48.89895 -0.98839,50.25 -1.33595,1.33595 -7.82294,1.53335 -50.39049,1.53335 -42.56755,0 -49.05454,-0.1974 -50.39049,-1.53335 z m -249.93369,-0.12417 c -0.3717,-0.3717 -0.67582,-22.78581 -0.67582,-49.80915 0,-36.88148 0.29923,-49.43256 1.2,-50.33333 1.87258,-1.87258 98.12827,-1.71431 99.68706,0.16391 0.81679,0.98418 1.05969,15.11393 0.87244,50.75 l -0.2595,49.38609 -50.07418,0.25915 c -27.5408,0.14253 -50.3783,-0.045 -50.75,-0.41667 z m 0,-125 c -0.3717,-0.3717 -0.67582,-22.78581 -0.67582,-49.80915 0,-36.88148 0.29923,-49.43256 1.2,-50.33333 1.87258,-1.87258 98.12827,-1.71431 99.68706,0.16391 0.81679,0.98418 1.05969,15.11393 0.87244,50.75 l -0.2595,49.38609 -50.07418,0.25915 c -27.5408,0.14253 -50.3783,-0.045 -50.75,-0.41667 z m 125,0 c -0.3717,-0.3717 -0.67582,-22.78581 -0.67582,-49.80915 0,-36.88148 0.29923,-49.43256 1.2,-50.33333 1.87258,-1.87258 98.12827,-1.71431 99.68706,0.16391 0.81679,0.98418 1.05969,15.11393 0.87244,50.75 l -0.2595,49.38609 -50.07418,0.25915 c -27.5408,0.14253 -50.3783,-0.045 -50.75,-0.41667 z m 125,0 c -0.3717,-0.3717 -0.67582,-22.78581 -0.67582,-49.80915 0,-36.88148 0.29923,-49.43256 1.2,-50.33333 1.87258,-1.87258 98.12827,-1.71431 99.68706,0.16391 0.81679,0.98418 1.05969,15.11393 0.87244,50.75 l -0.2595,49.38609 -50.07418,0.25915 c -27.5408,0.14253 -50.3783,-0.045 -50.75,-0.41667 z"
         id="path4191"
         inkscape:connector-curvature="0" />
      <path
         style="fill:#aac8f0"
         d="m 298.44516,814.90022 c -0.26534,-0.69259 -0.36531,-23.53426 -0.22217,-50.75926 l 0.26026,-49.5 50.5,0 50.5,0 0,50.5 0,50.5 -50.27783,0.25926 c -39.68876,0.20467 -50.37944,-0.006 -50.76026,-1 z m 125,0 c -0.26534,-0.69259 -0.36531,-23.53426 -0.22217,-50.75926 l 0.26026,-49.5 50.5,0 50.5,0 0,50.5 0,50.5 -50.27783,0.25926 c -39.68876,0.20467 -50.37943,-0.006 -50.76026,-1 z m 125,0 c -0.26534,-0.69259 -0.36531,-23.53426 -0.22217,-50.75926 l 0.26026,-49.5 50.5,0 50.5,0 0,50.5 0,50.5 -50.27783,0.25926 c -39.68876,0.20467 -50.37943,-0.006 -50.76026,-1 z M 298.65907,690.48344 c -0.3717,-0.3717 -0.67582,-22.78581 -0.67582,-49.80915 0,-36.88148 0.29923,-49.43256 1.2,-50.33333 1.87258,-1.87258 98.12827,-1.71431 99.68706,0.16391 0.81679,0.98418 1.05969,15.11393 0.87244,50.75 l -0.2595,49.38609 -50.07418,0.25915 c -27.5408,0.14253 -50.3783,-0.045 -50.75,-0.41667 z m 125,0 c -0.3717,-0.3717 -0.67582,-22.78581 -0.67582,-49.80915 0,-36.88148 0.29923,-49.43256 1.2,-50.33333 1.87258,-1.87258 98.12827,-1.71431 99.68706,0.16391 0.81679,0.98418 1.05969,15.11393 0.87244,50.75 l -0.2595,49.38609 -50.07418,0.25915 c -27.5408,0.14253 -50.3783,-0.045 -50.75,-0.41667 z m 125,0 c -0.3717,-0.3717 -0.67582,-22.78581 -0.67582,-49.80915 0,-36.88148 0.29923,-49.43256 1.2,-50.33333 1.87258,-1.87258 98.12827,-1.71431 99.68706,0.16391 0.81679,0.98418 1.05969,15.11393 0.87244,50.75 l -0.2595,49.38609 -50.07418,0.25915 c -27.5408,0.14253 -50.3783,-0.045 -50.75,-0.41667 z m -250,-125 c -0.3717,-0.3717 -0.67582,-22.78581 -0.67582,-49.80915 0,-36.88148 0.29923,-49.43256 1.2,-50.33333 1.87258,-1.87258 98.12827,-1.71431 99.68706,0.16391 0.81679,0.98418 1.05969,15.11393 0.87244,50.75 l -0.2595,49.38609 -50.07418,0.25915 c -27.5408,0.14253 -50.3783,-0.045 -50.75,-0.41667 z m 125,0 c -0.3717,-0.3717 -0.67582,-22.78581 -0.67582,-49.80915 0,-36.88148 0.29923,-49.43256 1.2,-50.33333 1.87258,-1.87258 98.12827,-1.71431 99.68706,0.16391 0.81679,0.98418 1.05969,15.11393 0.87244,50.75 l -0.2595,49.38609 -50.07418,0.25915 c -27.5408,0.14253 -50.3783,-0.045 -50.75,-0.41667 z m 125.52418,-0.54248 c -1.72889,-1.72889 -1.72889,-97.87111 0,-99.6 1.72889,-1.72889 97.87111,-1.72889 99.6,0 1.72889,1.72889 1.72889,97.87111 0,99.6 -1.72889,1.72889 -97.87111,1.72889 -99.6,0 z"
         id="path4189"
         inkscape:connector-curvature="0" />
      <path
         style="fill:#a7b9d1"
         d="m 298.44516,814.90022 c -0.26534,-0.69259 -0.36531,-23.53426 -0.22217,-50.75926 l 0.26026,-49.5 50.5,0 50.5,0 0,50.5 0,50.5 -50.27783,0.25926 c -39.68876,0.20467 -50.37944,-0.006 -50.76026,-1 z m 125,0 c -0.26534,-0.69259 -0.36531,-23.53426 -0.22217,-50.75926 l 0.26026,-49.5 50.5,0 50.5,0 0,50.5 0,50.5 -50.27783,0.25926 c -39.68876,0.20467 -50.37943,-0.006 -50.76026,-1 z m 125,0 c -0.26534,-0.69259 -0.36531,-23.53426 -0.22217,-50.75926 l 0.26026,-49.5 50.5,0 50.5,0 0,50.5 0,50.5 -50.27783,0.25926 c -39.68876,0.20467 -50.37943,-0.006 -50.76026,-1 z M 298.65907,690.48344 c -0.3717,-0.3717 -0.67582,-22.78581 -0.67582,-49.80915 0,-36.88148 0.29923,-49.43256 1.2,-50.33333 1.87258,-1.87258 98.12827,-1.71431 99.68706,0.16391 0.81679,0.98418 1.05969,15.11393 0.87244,50.75 l -0.2595,49.38609 -50.07418,0.25915 c -27.5408,0.14253 -50.3783,-0.045 -50.75,-0.41667 z m 125,0 c -0.3717,-0.3717 -0.67582,-22.78581 -0.67582,-49.80915 0,-36.88148 0.29923,-49.43256 1.2,-50.33333 1.87258,-1.87258 98.12827,-1.71431 99.68706,0.16391 0.81679,0.98418 1.05969,15.11393 0.87244,50.75 l -0.2595,49.38609 -50.07418,0.25915 c -27.5408,0.14253 -50.3783,-0.045 -50.75,-0.41667 z m 125,0 c -0.3717,-0.3717 -0.67582,-22.78581 -0.67582,-49.80915 0,-36.88148 0.29923,-49.43256 1.2,-50.33333 1.87258,-1.87258 98.12827,-1.71431 99.68706,0.16391 0.81679,0.98418 1.05969,15.11393 0.87244,50.75 l -0.2595,49.38609 -50.07418,0.25915 c -27.5408,0.14253 -50.3783,-0.045 -50.75,-0.41667 z m 0.52418,-125.54248 c -1.72889,-1.72889 -1.72889,-97.87111 0,-99.6 1.72889,-1.72889 97.87111,-1.72889 99.6,0 1.72889,1.72889 1.72889,97.87111 0,99.6 -1.72889,1.72889 -97.87111,1.72889 -99.6,0 z M 299.44513,563.9004 c -0.26543,-0.69269 -0.36544,-23.08444 -0.22224,-49.75944 l 0.26036,-48.5 49.5,0 49.5,0 0,49.5 0,49.5 -49.27776,0.25944 c -38.88849,0.20474 -49.37951,-0.006 -49.76036,-1 z m 124.53812,-48.75944 0,-50 50,0 50,0 0,50 0,50 -50,0 -50,0 0,-50 z"
         id="path4187"
         inkscape:connector-curvature="0" />
      <path
         style="fill:#d1a49c"
         d="m 298.44516,814.90022 c -0.26534,-0.69259 -0.36531,-23.53426 -0.22217,-50.75926 l 0.26026,-49.5 50.5,0 50.5,0 0,50.5 0,50.5 -50.27783,0.25926 c -39.68876,0.20467 -50.37944,-0.006 -50.76026,-1 z m 125,0 c -0.26534,-0.69259 -0.36531,-23.53426 -0.22217,-50.75926 l 0.26026,-49.5 50.5,0 50.5,0 0,50.5 0,50.5 -50.27783,0.25926 c -39.68876,0.20467 -50.37943,-0.006 -50.76026,-1 z m 125,0 c -0.26534,-0.69259 -0.36531,-23.53426 -0.22217,-50.75926 l 0.26026,-49.5 50.5,0 50.5,0 0,50.5 0,50.5 -50.27783,0.25926 c -39.68876,0.20467 -50.37943,-0.006 -50.76026,-1 z M 298.65907,690.48344 c -0.3717,-0.3717 -0.67582,-22.78581 -0.67582,-49.80915 0,-36.88148 0.29923,-49.43256 1.2,-50.33333 1.87258,-1.87258 98.12827,-1.71431 99.68706,0.16391 0.81679,0.98418 1.05969,15.11393 0.87244,50.75 l -0.2595,49.38609 -50.07418,0.25915 c -27.5408,0.14253 -50.3783,-0.045 -50.75,-0.41667 z m 125,0 c -0.3717,-0.3717 -0.67582,-22.78581 -0.67582,-49.80915 0,-36.88148 0.29923,-49.43256 1.2,-50.33333 1.87258,-1.87258 98.12827,-1.71431 99.68706,0.16391 0.81679,0.98418 1.05969,15.11393 0.87244,50.75 l -0.2595,49.38609 -50.07418,0.25915 c -27.5408,0.14253 -50.3783,-0.045 -50.75,-0.41667 z m 125,0 c -0.3717,-0.3717 -0.67582,-22.78581 -0.67582,-49.80915 0,-36.88148 0.29923,-49.43256 1.2,-50.33333 1.87258,-1.87258 98.12827,-1.71431 99.68706,0.16391 0.81679,0.98418 1.05969,15.11393 0.87244,50.75 l -0.2595,49.38609 -50.07418,0.25915 c -27.5408,0.14253 -50.3783,-0.045 -50.75,-0.41667 z M 299.44513,563.9004 c -0.26543,-0.69269 -0.36544,-23.08444 -0.22224,-49.75944 l 0.26036,-48.5 49.5,0 49.5,0 0,49.5 0,49.5 -49.27776,0.25944 c -38.88849,0.20474 -49.37951,-0.006 -49.76036,-1 z m 125,0 c -0.26543,-0.69269 -0.36544,-23.08444 -0.22224,-49.75944 l 0.26036,-48.5 49.5,0 49.5,0 0,49.5 0,49.5 -49.27776,0.25944 c -38.88849,0.20474 -49.37951,-0.006 -49.76036,-1 z m 125,0 c -0.26543,-0.69269 -0.36544,-23.08444 -0.22224,-49.75944 l 0.26036,-48.5 49.5,0 49.5,0 0,49.5 0,49.5 -49.27776,0.25944 c -38.88849,0.20474 -49.37951,-0.006 -49.76036,-1 z"
         id="path4185"
         inkscape:connector-curvature="0" />
      <path
         style="fill:#99d599"
         d="m 425.05592,815.20703 c -1.2104,-0.76601 -1.38845,-8.32078 -1.1715,-49.70719 0.14071,-26.84215 0.47207,-49.15377 0.73635,-49.58139 0.26428,-0.42762 22.4774,-0.77749 49.36248,-0.77749 26.88508,0 49.0982,0.34987 49.36248,0.77749 0.26428,0.42762 0.59564,22.73924 0.73635,49.58139 0.21695,41.38641 0.0389,48.94118 -1.1715,49.70719 -0.798,0.50503 -22.3707,0.9033 -48.92733,0.9033 -26.55663,0 -48.12933,-0.39827 -48.92733,-0.9033 z m 124.12733,-0.26607 c -0.90016,-0.90016 -1.2,-13.25079 -1.2,-49.42857 0,-42.51082 0.1863,-48.41487 1.57143,-49.8 1.38479,-1.38479 7.25541,-1.57143 49.42857,-1.57143 42.17316,0 48.04378,0.18664 49.42857,1.57143 1.38513,1.38513 1.57143,7.28918 1.57143,49.8 0,36.17778 -0.29984,48.52841 -1.2,49.42857 -1.72889,1.72889 -97.87111,1.72889 -99.6,0 z M 299.44513,813.9004 c -0.26543,-0.69269 -0.36544,-23.08444 -0.22224,-49.75944 l 0.26036,-48.5 49.5,0 49.5,0 0,49.5 0,49.5 -49.27776,0.25944 c -38.88849,0.20474 -49.37951,-0.006 -49.76036,-1 z m -0.78606,-123.41696 c -0.3717,-0.3717 -0.67582,-22.78581 -0.67582,-49.80915 0,-36.88148 0.29923,-49.43256 1.2,-50.33333 1.87258,-1.87258 98.12827,-1.71431 99.68706,0.16391 0.81679,0.98418 1.05969,15.11393 0.87244,50.75 l -0.2595,49.38609 -50.07418,0.25915 c -27.5408,0.14253 -50.3783,-0.045 -50.75,-0.41667 z m 125,0 c -0.3717,-0.3717 -0.67582,-22.78581 -0.67582,-49.80915 0,-36.88148 0.29923,-49.43256 1.2,-50.33333 1.87258,-1.87258 98.12827,-1.71431 99.68706,0.16391 0.81679,0.98418 1.05969,15.11393 0.87244,50.75 l -0.2595,49.38609 -50.07418,0.25915 c -27.5408,0.14253 -50.3783,-0.045 -50.75,-0.41667 z m 125,0 c -0.3717,-0.3717 -0.67582,-22.78581 -0.67582,-49.80915 0,-36.88148 0.29923,-49.43256 1.2,-50.33333 1.87258,-1.87258 98.12827,-1.71431 99.68706,0.16391 0.81679,0.98418 1.05969,15.11393 0.87244,50.75 l -0.2595,49.38609 -50.07418,0.25915 c -27.5408,0.14253 -50.3783,-0.045 -50.75,-0.41667 z M 299.44513,563.9004 c -0.26543,-0.69269 -0.36544,-23.08444 -0.22224,-49.75944 l 0.26036,-48.5 49.5,0 49.5,0 0,49.5 0,49.5 -49.27776,0.25944 c -38.88849,0.20474 -49.37951,-0.006 -49.76036,-1 z m 125,0 c -0.26543,-0.69269 -0.36544,-23.08444 -0.22224,-49.75944 l 0.26036,-48.5 49.5,0 49.5,0 0,49.5 0,49.5 -49.27776,0.25944 c -38.88849,0.20474 -49.37951,-0.006 -49.76036,-1 z m 125,0 c -0.26543,-0.69269 -0.36544,-23.08444 -0.22224,-49.75944 l 0.26036,-48.5 49.5,0 49.5,0 0,49.5 0,49.5 -49.27776,0.25944 c -38.88849,0.20474 -49.37951,-0.006 -49.76036,-1 z"
         id="path4183"
         inkscape:connector-curvature="0" />
      <path
         style="fill:#659de8"
         d="m 425.05592,815.20703 c -1.2104,-0.76601 -1.38845,-8.32078 -1.1715,-49.70719 0.14071,-26.84215 0.47207,-49.15377 0.73635,-49.58139 0.26428,-0.42762 22.4774,-0.77749 49.36248,-0.77749 26.88508,0 49.0982,0.34987 49.36248,0.77749 0.26428,0.42762 0.59564,22.73924 0.73635,49.58139 0.21695,41.38641 0.0389,48.94118 -1.1715,49.70719 -0.798,0.50503 -22.3707,0.9033 -48.92733,0.9033 -26.55663,0 -48.12933,-0.39827 -48.92733,-0.9033 z m 124.12733,-0.26607 c -0.90016,-0.90016 -1.2,-13.25079 -1.2,-49.42857 0,-42.51082 0.1863,-48.41487 1.57143,-49.8 1.38479,-1.38479 7.25541,-1.57143 49.42857,-1.57143 42.17316,0 48.04378,0.18664 49.42857,1.57143 1.38513,1.38513 1.57143,7.28918 1.57143,49.8 0,36.17778 -0.29984,48.52841 -1.2,49.42857 -1.72889,1.72889 -97.87111,1.72889 -99.6,0 z M 299.44513,813.9004 c -0.26543,-0.69269 -0.36544,-23.08444 -0.22224,-49.75944 l 0.26036,-48.5 49.5,0 49.5,0 0,49.5 0,49.5 -49.27776,0.25944 c -38.88849,0.20474 -49.37951,-0.006 -49.76036,-1 z m 0,-125 c -0.26543,-0.69269 -0.36544,-23.08444 -0.22224,-49.75944 l 0.26036,-48.5 49.5,0 49.5,0 0,49.5 0,49.5 -49.27776,0.25944 c -38.88849,0.20474 -49.37951,-0.006 -49.76036,-1 z m 125,0 c -0.26543,-0.69269 -0.36544,-23.08444 -0.22224,-49.75944 l 0.26036,-48.5 49.5,0 49.5,0 0,49.5 0,49.5 -49.27776,0.25944 c -38.88849,0.20474 -49.37951,-0.006 -49.76036,-1 z m 125,0 c -0.26543,-0.69269 -0.36544,-23.08444 -0.22224,-49.75944 l 0.26036,-48.5 49.5,0 49.5,0 0,49.5 0,49.5 -49.27776,0.25944 c -38.88849,0.20474 -49.37951,-0.006 -49.76036,-1 z m -250,-125 c -0.26543,-0.69269 -0.36544,-23.08444 -0.22224,-49.75944 l 0.26036,-48.5 49.5,0 49.5,0 0,49.5 0,49.5 -49.27776,0.25944 c -38.88849,0.20474 -49.37951,-0.006 -49.76036,-1 z m 125,0 c -0.26543,-0.69269 -0.36544,-23.08444 -0.22224,-49.75944 l 0.26036,-48.5 49.5,0 49.5,0 0,49.5 0,49.5 -49.27776,0.25944 c -38.88849,0.20474 -49.37951,-0.006 -49.76036,-1 z m 125,0 c -0.26543,-0.69269 -0.36544,-23.08444 -0.22224,-49.75944 l 0.26036,-48.5 49.5,0 49.5,0 0,49.5 0,49.5 -49.27776,0.25944 c -38.88849,0.20474 -49.37951,-0.006 -49.76036,-1 z"
         id="path4181"
         inkscape:connector-curvature="0" />
      <path
         style="fill:#af9d8c"
         d="m 425.05592,815.20703 c -1.2104,-0.76601 -1.38845,-8.32078 -1.1715,-49.70719 0.14071,-26.84215 0.47207,-49.15377 0.73635,-49.58139 0.26428,-0.42762 22.4774,-0.77749 49.36248,-0.77749 26.88508,0 49.0982,0.34987 49.36248,0.77749 0.26428,0.42762 0.59564,22.73924 0.73635,49.58139 0.21695,41.38641 0.0389,48.94118 -1.1715,49.70719 -0.798,0.50503 -22.3707,0.9033 -48.92733,0.9033 -26.55663,0 -48.12933,-0.39827 -48.92733,-0.9033 z m 124.12733,-0.26607 c -0.90016,-0.90016 -1.2,-13.25079 -1.2,-49.42857 0,-42.51082 0.1863,-48.41487 1.57143,-49.8 1.38479,-1.38479 7.25541,-1.57143 49.42857,-1.57143 42.17316,0 48.04378,0.18664 49.42857,1.57143 1.38513,1.38513 1.57143,7.28918 1.57143,49.8 0,36.17778 -0.29984,48.52841 -1.2,49.42857 -1.72889,1.72889 -97.87111,1.72889 -99.6,0 z M 299.44513,813.9004 c -0.26543,-0.69269 -0.36544,-23.08444 -0.22224,-49.75944 l 0.26036,-48.5 49.5,0 49.5,0 0,49.5 0,49.5 -49.27776,0.25944 c -38.88849,0.20474 -49.37951,-0.006 -49.76036,-1 z m 0,-125 c -0.26543,-0.69269 -0.36544,-23.08444 -0.22224,-49.75944 l 0.26036,-48.5 49.5,0 49.5,0 0,49.5 0,49.5 -49.27776,0.25944 c -38.88849,0.20474 -49.37951,-0.006 -49.76036,-1 z m 125,0 c -0.26543,-0.69269 -0.36544,-23.08444 -0.22224,-49.75944 l 0.26036,-48.5 49.5,0 49.5,0 0,49.5 0,49.5 -49.27776,0.25944 c -38.88849,0.20474 -49.37951,-0.006 -49.76036,-1 z m 125,0 c -0.26543,-0.69269 -0.36544,-23.08444 -0.22224,-49.75944 l 0.26036,-48.5 49.5,0 49.5,0 0,49.5 0,49.5 -49.27776,0.25944 c -38.88849,0.20474 -49.37951,-0.006 -49.76036,-1 z m 0,-125 c -0.26543,-0.69269 -0.36544,-23.08444 -0.22224,-49.75944 l 0.26036,-48.5 49.5,0 49.5,0 0,49.5 0,49.5 -49.27776,0.25944 c -38.88849,0.20474 -49.37951,-0.006 -49.76036,-1 z m -249.46188,-48.75944 0,-49 49,0 49,0 0,49 0,49 -49,0 -49,0 0,-49 z m 125,0 0,-49 49,0 49,0 0,49 0,49 -49,0 -49,0 0,-49 z"
         id="path4179"
         inkscape:connector-curvature="0" />
      <path
         style="fill:#3289fd"
         d="m 299.44513,813.9004 c -0.26543,-0.69269 -0.36544,-23.08444 -0.22224,-49.75944 l 0.26036,-48.5 49.5,0 49.5,0 0,49.5 0,49.5 -49.27776,0.25944 c -38.88849,0.20474 -49.37951,-0.006 -49.76036,-1 z m 125,0 c -0.26543,-0.69269 -0.36544,-23.08444 -0.22224,-49.75944 l 0.26036,-48.5 49.5,0 49.5,0 0,49.5 0,49.5 -49.27776,0.25944 c -38.88849,0.20474 -49.37951,-0.006 -49.76036,-1 z m 125,0 c -0.26543,-0.69269 -0.36544,-23.08444 -0.22224,-49.75944 l 0.26036,-48.5 49.5,0 49.5,0 0,49.5 0,49.5 -49.27776,0.25944 c -38.88849,0.20474 -49.37951,-0.006 -49.76036,-1 z m -250,-125 c -0.26543,-0.69269 -0.36544,-23.08444 -0.22224,-49.75944 l 0.26036,-48.5 49.5,0 49.5,0 0,49.5 0,49.5 -49.27776,0.25944 c -38.88849,0.20474 -49.37951,-0.006 -49.76036,-1 z m 125,0 c -0.26543,-0.69269 -0.36544,-23.08444 -0.22224,-49.75944 l 0.26036,-48.5 49.5,0 49.5,0 0,49.5 0,49.5 -49.27776,0.25944 c -38.88849,0.20474 -49.37951,-0.006 -49.76036,-1 z m 125,0 c -0.26543,-0.69269 -0.36544,-23.08444 -0.22224,-49.75944 l 0.26036,-48.5 49.5,0 49.5,0 0,49.5 0,49.5 -49.27776,0.25944 c -38.88849,0.20474 -49.37951,-0.006 -49.76036,-1 z m 0,-125 c -0.26543,-0.69269 -0.36544,-23.08444 -0.22224,-49.75944 l 0.26036,-48.5 49.5,0 49.5,0 0,49.5 0,49.5 -49.27776,0.25944 c -38.88849,0.20474 -49.37951,-0.006 -49.76036,-1 z m -249.46188,-48.75944 0,-49 49,0 49,0 0,49 0,49 -49,0 -49,0 0,-49 z m 125,0 0,-49 49,0 49,0 0,49 0,49 -49,0 -49,0 0,-49 z"
         id="path4177"
         inkscape:connector-curvature="0" />
      <path
         style="fill:#1a7cfd"
         d="m 299.44513,813.9004 c -0.26543,-0.69269 -0.36544,-23.08444 -0.22224,-49.75944 l 0.26036,-48.5 49.5,0 49.5,0 0,49.5 0,49.5 -49.27776,0.25944 c -38.88849,0.20474 -49.37951,-0.006 -49.76036,-1 z m 125,0 c -0.26543,-0.69269 -0.36544,-23.08444 -0.22224,-49.75944 l 0.26036,-48.5 49.5,0 49.5,0 0,49.5 0,49.5 -49.27776,0.25944 c -38.88849,0.20474 -49.37951,-0.006 -49.76036,-1 z m 125,0 c -0.26543,-0.69269 -0.36544,-23.08444 -0.22224,-49.75944 l 0.26036,-48.5 49.5,0 49.5,0 0,49.5 0,49.5 -49.27776,0.25944 c -38.88849,0.20474 -49.37951,-0.006 -49.76036,-1 z m -250,-125 c -0.26543,-0.69269 -0.36544,-23.08444 -0.22224,-49.75944 l 0.26036,-48.5 49.5,0 49.5,0 0,49.5 0,49.5 -49.27776,0.25944 c -38.88849,0.20474 -49.37951,-0.006 -49.76036,-1 z m 125,0 c -0.26543,-0.69269 -0.36544,-23.08444 -0.22224,-49.75944 l 0.26036,-48.5 49.5,0 49.5,0 0,49.5 0,49.5 -49.27776,0.25944 c -38.88849,0.20474 -49.37951,-0.006 -49.76036,-1 z m 125,0 c -0.26543,-0.69269 -0.36544,-23.08444 -0.22224,-49.75944 l 0.26036,-48.5 49.5,0 49.5,0 0,49.5 0,49.5 -49.27776,0.25944 c -38.88849,0.20474 -49.37951,-0.006 -49.76036,-1 z m 0,-125 c -0.26543,-0.69269 -0.36544,-23.08444 -0.22224,-49.75944 l 0.26036,-48.5 49.5,0 49.5,0 0,49.5 0,49.5 -49.27776,0.25944 c -38.88849,0.20474 -49.37951,-0.006 -49.76036,-1 z m -124.46188,-48.75944 0,-49 49,0 49,0 0,49 0,49 -49,0 -49,0 0,-49 z m -124,0 0,-48 48,0 48,0 0,48 0,48 -48,0 -48,0 0,-48 z"
         id="path4175"
         inkscape:connector-curvature="0" />
      <path
         style="fill:#5f82af"
         d="m 299.44513,813.9004 c -0.26543,-0.69269 -0.36544,-23.08444 -0.22224,-49.75944 l 0.26036,-48.5 49.5,0 49.5,0 0,49.5 0,49.5 -49.27776,0.25944 c -38.88849,0.20474 -49.37951,-0.006 -49.76036,-1 z m 125,0 c -0.26543,-0.69269 -0.36544,-23.08444 -0.22224,-49.75944 l 0.26036,-48.5 49.5,0 49.5,0 0,49.5 0,49.5 -49.27776,0.25944 c -38.88849,0.20474 -49.37951,-0.006 -49.76036,-1 z m 125,0 c -0.26543,-0.69269 -0.36544,-23.08444 -0.22224,-49.75944 l 0.26036,-48.5 49.5,0 49.5,0 0,49.5 0,49.5 -49.27776,0.25944 c -38.88849,0.20474 -49.37951,-0.006 -49.76036,-1 z m -250,-125 c -0.26543,-0.69269 -0.36544,-23.08444 -0.22224,-49.75944 l 0.26036,-48.5 49.5,0 49.5,0 0,49.5 0,49.5 -49.27776,0.25944 c -38.88849,0.20474 -49.37951,-0.006 -49.76036,-1 z m 125,0 c -0.26543,-0.69269 -0.36544,-23.08444 -0.22224,-49.75944 l 0.26036,-48.5 49.5,0 49.5,0 0,49.5 0,49.5 -49.27776,0.25944 c -38.88849,0.20474 -49.37951,-0.006 -49.76036,-1 z m 125,0 c -0.26543,-0.69269 -0.36544,-23.08444 -0.22224,-49.75944 l 0.26036,-48.5 49.5,0 49.5,0 0,49.5 0,49.5 -49.27776,0.25944 c -38.88849,0.20474 -49.37951,-0.006 -49.76036,-1 z m 0,-125 c -0.26543,-0.69269 -0.36544,-23.08444 -0.22224,-49.75944 l 0.26036,-48.5 49.5,0 49.5,0 0,49.5 0,49.5 -49.27776,0.25944 c -38.88849,0.20474 -49.37951,-0.006 -49.76036,-1 z m -124.46188,-48.75944 0,-49 49,0 49,0 0,49 0,49 -49,0 -49,0 0,-49 z"
         id="path4173"
         inkscape:connector-curvature="0" />
      <path
         style="fill:#d7604a"
         d="m 299.44513,813.9004 c -0.26543,-0.69269 -0.36544,-23.08444 -0.22224,-49.75944 l 0.26036,-48.5 49.5,0 49.5,0 0,49.5 0,49.5 -49.27776,0.25944 c -38.88849,0.20474 -49.37951,-0.006 -49.76036,-1 z m 125,0 c -0.26543,-0.69269 -0.36544,-23.08444 -0.22224,-49.75944 l 0.26036,-48.5 49.5,0 49.5,0 0,49.5 0,49.5 -49.27776,0.25944 c -38.88849,0.20474 -49.37951,-0.006 -49.76036,-1 z m 125,0 c -0.26543,-0.69269 -0.36544,-23.08444 -0.22224,-49.75944 l 0.26036,-48.5 49.5,0 49.5,0 0,49.5 0,49.5 -49.27776,0.25944 c -38.88849,0.20474 -49.37951,-0.006 -49.76036,-1 z m -250,-125 c -0.26543,-0.69269 -0.36544,-23.08444 -0.22224,-49.75944 l 0.26036,-48.5 49.5,0 49.5,0 0,49.5 0,49.5 -49.27776,0.25944 c -38.88849,0.20474 -49.37951,-0.006 -49.76036,-1 z m 125,0 c -0.26543,-0.69269 -0.36544,-23.08444 -0.22224,-49.75944 l 0.26036,-48.5 49.5,0 49.5,0 0,49.5 0,49.5 -49.27776,0.25944 c -38.88849,0.20474 -49.37951,-0.006 -49.76036,-1 z m 125,0 c -0.26543,-0.69269 -0.36544,-23.08444 -0.22224,-49.75944 l 0.26036,-48.5 49.5,0 49.5,0 0,49.5 0,49.5 -49.27776,0.25944 c -38.88849,0.20474 -49.37951,-0.006 -49.76036,-1 z M 425.44509,562.90058 c -0.26552,-0.69279 -0.36556,-22.63462 -0.2223,-48.75962 l 0.26046,-47.5 48.5,0 48.5,0 0,48.5 0,48.5 -48.27769,0.25962 c -38.08821,0.20483 -48.37959,-0.006 -48.76047,-1 z m 125,0 c -0.26552,-0.69279 -0.36556,-22.63462 -0.2223,-48.75962 l 0.26046,-47.5 48.5,0 48.5,0 0,48.5 0,48.5 -48.27769,0.25962 c -38.08821,0.20483 -48.37959,-0.006 -48.76047,-1 z"
         id="path4171"
         inkscape:connector-curvature="0" />
      <path
         style="fill:#52d752"
         d="m 549.44513,813.9004 c -0.26543,-0.69269 -0.36544,-23.08444 -0.22224,-49.75944 l 0.26036,-48.5 49.5,0 49.5,0 0,49.5 0,49.5 -49.27776,0.25944 c -38.88849,0.20474 -49.37951,-0.006 -49.76036,-1 z m -249.00004,-0.99982 c -0.26552,-0.69279 -0.36556,-22.63462 -0.2223,-48.75962 l 0.26046,-47.5 48.5,0 48.5,0 0,48.5 0,48.5 -48.27769,0.25962 c -38.08821,0.20483 -48.37959,-0.006 -48.76047,-1 z m 124.77865,-47.50962 0.25951,-48.75 48.5,0 48.5,0 0.25951,48.75 0.25952,48.75 -49.01903,0 -49.01903,0 0.25952,-48.75 z M 299.44513,688.9004 c -0.26543,-0.69269 -0.36544,-23.08444 -0.22224,-49.75944 l 0.26036,-48.5 49.5,0 49.5,0 0,49.5 0,49.5 -49.27776,0.25944 c -38.88849,0.20474 -49.37951,-0.006 -49.76036,-1 z m 125,0 c -0.26543,-0.69269 -0.36544,-23.08444 -0.22224,-49.75944 l 0.26036,-48.5 49.5,0 49.5,0 0,49.5 0,49.5 -49.27776,0.25944 c -38.88849,0.20474 -49.37951,-0.006 -49.76036,-1 z m 125,0 c -0.26543,-0.69269 -0.36544,-23.08444 -0.22224,-49.75944 l 0.26036,-48.5 49.5,0 49.5,0 0,49.5 0,49.5 -49.27776,0.25944 c -38.88849,0.20474 -49.37951,-0.006 -49.76036,-1 z M 425.44509,562.90058 c -0.26552,-0.69279 -0.36556,-22.63462 -0.2223,-48.75962 l 0.26046,-47.5 48.5,0 48.5,0 0,48.5 0,48.5 -48.27769,0.25962 c -38.08821,0.20483 -48.37959,-0.006 -48.76047,-1 z m 125,0 c -0.26552,-0.69279 -0.36556,-22.63462 -0.2223,-48.75962 l 0.26046,-47.5 48.5,0 48.5,0 0,48.5 0,48.5 -48.27769,0.25962 c -38.08821,0.20483 -48.37959,-0.006 -48.76047,-1 z"
         id="path4169"
         inkscape:connector-curvature="0" />
      <path
         style="fill:#50ac50"
         d="m 549.44513,813.9004 c -0.26543,-0.69269 -0.36544,-23.08444 -0.22224,-49.75944 l 0.26036,-48.5 49.5,0 49.5,0 0,49.5 0,49.5 -49.27776,0.25944 c -38.88849,0.20474 -49.37951,-0.006 -49.76036,-1 z m -249.00004,-0.99982 c -0.26552,-0.69279 -0.36556,-22.63462 -0.2223,-48.75962 l 0.26046,-47.5 48.5,0 48.5,0 0,48.5 0,48.5 -48.27769,0.25962 c -38.08821,0.20483 -48.37959,-0.006 -48.76047,-1 z m 124.77865,-47.50962 0.25951,-48.75 48.5,0 48.5,0 0.25951,48.75 0.25952,48.75 -49.01903,0 -49.01903,0 0.25952,-48.75 z m -0.77866,-76.49056 c -0.26546,-0.69269 -0.36547,-22.85944 -0.22224,-49.25944 l 0.26041,-48 49.5,0 49.5,0 0,49 0,49 -49.27776,0.25944 c -38.88847,0.20474 -49.37952,-0.006 -49.76041,-1 z m 125.00005,0 c -0.26543,-0.69269 -0.36544,-23.08444 -0.22224,-49.75944 l 0.26036,-48.5 49.5,0 49.5,0 0,49.5 0,49.5 -49.27776,0.25944 c -38.88849,0.20474 -49.37951,-0.006 -49.76036,-1 z m -249.00004,-0.99982 c -0.26552,-0.69279 -0.36556,-22.63462 -0.2223,-48.75962 l 0.26046,-47.5 48.5,0 48.5,0 0,48.5 0,48.5 -48.27769,0.25962 c -38.08821,0.20483 -48.37959,-0.006 -48.76047,-1 z m 125,-125 c -0.26552,-0.69279 -0.36556,-22.63462 -0.2223,-48.75962 l 0.26046,-47.5 48.5,0 48.5,0 0,48.5 0,48.5 -48.27769,0.25962 c -38.08821,0.20483 -48.37959,-0.006 -48.76047,-1 z m 125,0 c -0.26552,-0.69279 -0.36556,-22.63462 -0.2223,-48.75962 l 0.26046,-47.5 48.5,0 48.5,0 0,48.5 0,48.5 -48.27769,0.25962 c -38.08821,0.20483 -48.37959,-0.006 -48.76047,-1 z"
         id="path4167"
         inkscape:connector-curvature="0" />
      <path
         style="fill:#a4584a"
         d="m 549.44513,813.9004 c -0.26543,-0.69269 -0.36544,-23.08444 -0.22224,-49.75944 l 0.26036,-48.5 49.5,0 49.5,0 0,49.5 0,49.5 -49.27776,0.25944 c -38.88849,0.20474 -49.37951,-0.006 -49.76036,-1 z m -249.00004,-0.99982 c -0.26552,-0.69279 -0.36556,-22.63462 -0.2223,-48.75962 l 0.26046,-47.5 48.5,0 48.5,0 0,48.5 0,48.5 -48.27769,0.25962 c -38.08821,0.20483 -48.37959,-0.006 -48.76047,-1 z m 124.77865,-47.50962 0.25951,-48.75 48.5,0 48.5,0 0.25951,48.75 0.25952,48.75 -49.01903,0 -49.01903,0 0.25952,-48.75 z M 300.44509,687.90058 c -0.26552,-0.69279 -0.36556,-22.63462 -0.2223,-48.75962 l 0.26046,-47.5 48.5,0 48.5,0 0,48.5 0,48.5 -48.27769,0.25962 c -38.08821,0.20483 -48.37959,-0.006 -48.76047,-1 z m 125,0 c -0.26552,-0.69279 -0.36556,-22.63462 -0.2223,-48.75962 l 0.26046,-47.5 48.5,0 48.5,0 0,48.5 0,48.5 -48.27769,0.25962 c -38.08821,0.20483 -48.37959,-0.006 -48.76047,-1 z m 125,0 c -0.26552,-0.69279 -0.36556,-22.63462 -0.2223,-48.75962 l 0.26046,-47.5 48.5,0 48.5,0 0,48.5 0,48.5 -48.27769,0.25962 c -38.08821,0.20483 -48.37959,-0.006 -48.76047,-1 z m -125,-125 c -0.26552,-0.69279 -0.36556,-22.63462 -0.2223,-48.75962 l 0.26046,-47.5 48.5,0 48.5,0 0,48.5 0,48.5 -48.27769,0.25962 c -38.08821,0.20483 -48.37959,-0.006 -48.76047,-1 z m 125,0 c -0.26552,-0.69279 -0.36556,-22.63462 -0.2223,-48.75962 l 0.26046,-47.5 48.5,0 48.5,0 0,48.5 0,48.5 -48.27769,0.25962 c -38.08821,0.20483 -48.37959,-0.006 -48.76047,-1 z"
         id="path4165"
         inkscape:connector-curvature="0" />
      <path
         style="fill:#135ec0"
         d="m 300.44509,812.90058 c -0.26552,-0.69279 -0.36556,-22.63462 -0.2223,-48.75962 l 0.26046,-47.5 48.5,0 48.5,0 0,48.5 0,48.5 -48.27769,0.25962 c -38.08821,0.20483 -48.37959,-0.006 -48.76047,-1 z m 125,0 c -0.26552,-0.69279 -0.36556,-22.63462 -0.2223,-48.75962 l 0.26046,-47.5 48.5,0 48.5,0 0,48.5 0,48.5 -48.27769,0.25962 c -38.08821,0.20483 -48.37959,-0.006 -48.76047,-1 z m 125,0 c -0.26552,-0.69279 -0.36556,-22.63462 -0.2223,-48.75962 l 0.26046,-47.5 48.5,0 48.5,0 0,48.5 0,48.5 -48.27769,0.25962 c -38.08821,0.20483 -48.37959,-0.006 -48.76047,-1 z m -250,-125 c -0.26552,-0.69279 -0.36556,-22.63462 -0.2223,-48.75962 l 0.26046,-47.5 48.5,0 48.5,0 0,48.5 0,48.5 -48.27769,0.25962 c -38.08821,0.20483 -48.37959,-0.006 -48.76047,-1 z m 125,0 c -0.26552,-0.69279 -0.36556,-22.63462 -0.2223,-48.75962 l 0.26046,-47.5 48.5,0 48.5,0 0,48.5 0,48.5 -48.27769,0.25962 c -38.08821,0.20483 -48.37959,-0.006 -48.76047,-1 z m 125,0 c -0.26552,-0.69279 -0.36556,-22.63462 -0.2223,-48.75962 l 0.26046,-47.5 48.5,0 48.5,0 0,48.5 0,48.5 -48.27769,0.25962 c -38.08821,0.20483 -48.37959,-0.006 -48.76047,-1 z m -125,-125 c -0.26552,-0.69279 -0.36556,-22.63462 -0.2223,-48.75962 l 0.26046,-47.5 48.5,0 48.5,0 0,48.5 0,48.5 -48.27769,0.25962 c -38.08821,0.20483 -48.37959,-0.006 -48.76047,-1 z m 125,0 c -0.26552,-0.69279 -0.36556,-22.63462 -0.2223,-48.75962 l 0.26046,-47.5 48.5,0 48.5,0 0,48.5 0,48.5 -48.27769,0.25962 c -38.08821,0.20483 -48.37959,-0.006 -48.76047,-1 z"
         id="path4163"
         inkscape:connector-curvature="0" />
      <path
         style="fill:#f22801"
         d="m 300.44509,812.90058 c -0.26552,-0.69279 -0.36556,-22.63462 -0.2223,-48.75962 l 0.26046,-47.5 48.5,0 48.5,0 0,48.5 0,48.5 -48.27769,0.25962 c -38.08821,0.20483 -48.37959,-0.006 -48.76047,-1 z m 125,0 c -0.26552,-0.69279 -0.36556,-22.63462 -0.2223,-48.75962 l 0.26046,-47.5 48.5,0 48.5,0 0,48.5 0,48.5 -48.27769,0.25962 c -38.08821,0.20483 -48.37959,-0.006 -48.76047,-1 z m 125,0 c -0.26552,-0.69279 -0.36556,-22.63462 -0.2223,-48.75962 l 0.26046,-47.5 48.5,0 48.5,0 0,48.5 0,48.5 -48.27769,0.25962 c -38.08821,0.20483 -48.37959,-0.006 -48.76047,-1 z m -250,-125 c -0.26552,-0.69279 -0.36556,-22.63462 -0.2223,-48.75962 l 0.26046,-47.5 48.5,0 48.5,0 0,48.5 0,48.5 -48.27769,0.25962 c -38.08821,0.20483 -48.37959,-0.006 -48.76047,-1 z m 125,0 c -0.26552,-0.69279 -0.36556,-22.63462 -0.2223,-48.75962 l 0.26046,-47.5 48.5,0 48.5,0 0,48.5 0,48.5 -48.27769,0.25962 c -38.08821,0.20483 -48.37959,-0.006 -48.76047,-1 z m 125,0 c -0.26552,-0.69279 -0.36556,-22.63462 -0.2223,-48.75962 l 0.26046,-47.5 48.5,0 48.5,0 0,48.5 0,48.5 -48.27769,0.25962 c -38.08821,0.20483 -48.37959,-0.006 -48.76047,-1 z m 0,-125 c -0.26552,-0.69279 -0.36556,-22.63462 -0.2223,-48.75962 l 0.26046,-47.5 48.5,0 48.5,0 0,48.5 0,48.5 -48.27769,0.25962 c -38.08821,0.20483 -48.37959,-0.006 -48.76047,-1 z"
         id="path4161"
         inkscape:connector-curvature="0" />
      <path
         style="fill:#03de03"
         d="m 425.44509,812.90058 c -0.26552,-0.69279 -0.36556,-22.63462 -0.2223,-48.75962 l 0.26046,-47.5 48.5,0 48.5,0 0,48.5 0,48.5 -48.27769,0.25962 c -38.08821,0.20483 -48.37959,-0.006 -48.76047,-1 z m 125,0 c -0.26552,-0.69279 -0.36556,-22.63462 -0.2223,-48.75962 l 0.26046,-47.5 48.5,0 48.5,0 0,48.5 0,48.5 -48.27769,0.25962 c -38.08821,0.20483 -48.37959,-0.006 -48.76047,-1 z m -250,-125 c -0.26552,-0.69279 -0.36556,-22.63462 -0.2223,-48.75962 l 0.26046,-47.5 48.5,0 48.5,0 0,48.5 0,48.5 -48.27769,0.25962 c -38.08821,0.20483 -48.37959,-0.006 -48.76047,-1 z m 125,0 c -0.26552,-0.69279 -0.36556,-22.63462 -0.2223,-48.75962 l 0.26046,-47.5 48.5,0 48.5,0 0,48.5 0,48.5 -48.27769,0.25962 c -38.08821,0.20483 -48.37959,-0.006 -48.76047,-1 z m 125,0 c -0.26552,-0.69279 -0.36556,-22.63462 -0.2223,-48.75962 l 0.26046,-47.5 48.5,0 48.5,0 0,48.5 0,48.5 -48.27769,0.25962 c -38.08821,0.20483 -48.37959,-0.006 -48.76047,-1 z m 0,-125 c -0.26552,-0.69279 -0.36556,-22.63462 -0.2223,-48.75962 l 0.26046,-47.5 48.5,0 48.5,0 0,48.5 0,48.5 -48.27769,0.25962 c -38.08821,0.20483 -48.37959,-0.006 -48.76047,-1 z"
         id="path4159"
         inkscape:connector-curvature="0" />
      <path
         style="fill:#0e4489"
         d="m 425.44509,812.90058 c -0.26552,-0.69279 -0.36556,-22.63462 -0.2223,-48.75962 l 0.26046,-47.5 48.5,0 48.5,0 0,48.5 0,48.5 -48.27769,0.25962 c -38.08821,0.20483 -48.37959,-0.006 -48.76047,-1 z m 125,0 c -0.26552,-0.69279 -0.36556,-22.63462 -0.2223,-48.75962 l 0.26046,-47.5 48.5,0 48.5,0 0,48.5 0,48.5 -48.27769,0.25962 c -38.08821,0.20483 -48.37959,-0.006 -48.76047,-1 z m -125,-125 c -0.26552,-0.69279 -0.36556,-22.63462 -0.2223,-48.75962 l 0.26046,-47.5 48.5,0 48.5,0 0,48.5 0,48.5 -48.27769,0.25962 c -38.08821,0.20483 -48.37959,-0.006 -48.76047,-1 z m 125,0 c -0.26552,-0.69279 -0.36556,-22.63462 -0.2223,-48.75962 l 0.26046,-47.5 48.5,0 48.5,0 0,48.5 0,48.5 -48.27769,0.25962 c -38.08821,0.20483 -48.37959,-0.006 -48.76047,-1 z m 0,-125 c -0.26552,-0.69279 -0.36556,-22.63462 -0.2223,-48.75962 l 0.26046,-47.5 48.5,0 48.5,0 0,48.5 0,48.5 -48.27769,0.25962 c -38.08821,0.20483 -48.37959,-0.006 -48.76047,-1 z"
         id="path4157"
         inkscape:connector-curvature="0" />
      <path
         style="fill:#bd1e00"
         d="m 425.44509,812.90058 c -0.26552,-0.69279 -0.36556,-22.63462 -0.2223,-48.75962 l 0.26046,-47.5 48.5,0 48.5,0 0,48.5 0,48.5 -48.27769,0.25962 c -38.08821,0.20483 -48.37959,-0.006 -48.76047,-1 z m 125,0 c -0.26552,-0.69279 -0.36556,-22.63462 -0.2223,-48.75962 l 0.26046,-47.5 48.5,0 48.5,0 0,48.5 0,48.5 -48.27769,0.25962 c -38.08821,0.20483 -48.37959,-0.006 -48.76047,-1 z m -125,-125 c -0.26552,-0.69279 -0.36556,-22.63462 -0.2223,-48.75962 l 0.26046,-47.5 48.5,0 48.5,0 0,48.5 0,48.5 -48.27769,0.25962 c -38.08821,0.20483 -48.37959,-0.006 -48.76047,-1 z m 125,0 c -0.26552,-0.69279 -0.36556,-22.63462 -0.2223,-48.75962 l 0.26046,-47.5 48.5,0 48.5,0 0,48.5 0,48.5 -48.27769,0.25962 c -38.08821,0.20483 -48.37959,-0.006 -48.76047,-1 z"
         id="path4155"
         inkscape:connector-curvature="0" />
      <path
         style="fill:#02aa02"
         d="m 550.44509,812.90058 c -0.26552,-0.69279 -0.36556,-22.63462 -0.2223,-48.75962 l 0.26046,-47.5 48.5,0 48.5,0 0,48.5 0,48.5 -48.27769,0.25962 c -38.08821,0.20483 -48.37959,-0.006 -48.76047,-1 z m -125,-125 c -0.26552,-0.69279 -0.36556,-22.63462 -0.2223,-48.75962 l 0.26046,-47.5 48.5,0 48.5,0 0,48.5 0,48.5 -48.27769,0.25962 c -38.08821,0.20483 -48.37959,-0.006 -48.76047,-1 z m 125,0 c -0.26552,-0.69279 -0.36556,-22.63462 -0.2223,-48.75962 l 0.26046,-47.5 48.5,0 48.5,0 0,48.5 0,48.5 -48.27769,0.25962 c -38.08821,0.20483 -48.37959,-0.006 -48.76047,-1 z"
         id="path4153"
         inkscape:connector-curvature="0" />
      <path
         style="fill:#8a1500"
         d="m 550.44509,812.90058 c -0.26552,-0.69279 -0.36556,-22.63462 -0.2223,-48.75962 l 0.26046,-47.5 48.5,0 48.5,0 0,48.5 0,48.5 -48.27769,0.25962 c -38.08821,0.20483 -48.37959,-0.006 -48.76047,-1 z m 0,-125 c -0.26552,-0.69279 -0.36556,-22.63462 -0.2223,-48.75962 l 0.26046,-47.5 48.5,0 48.5,0 0,48.5 0,48.5 -48.27769,0.25962 c -38.08821,0.20483 -48.37959,-0.006 -48.76047,-1 z"
         id="path4151"
         inkscape:connector-curvature="0" />
      <path
         style="fill:#018101"
         d="m 550.44509,687.90058 c -0.26552,-0.69279 -0.36556,-22.63462 -0.2223,-48.75962 l 0.26046,-47.5 48.5,0 48.5,0 0,48.5 0,48.5 -48.27769,0.25962 c -38.08821,0.20483 -48.37959,-0.006 -48.76047,-1 z"
         id="path4149"
         inkscape:connector-curvature="0" />
    </g>
  </g>
</svg>
