<?xml version="1.0" encoding="UTF-8" standalone="no"?>
<!-- Created with Inkscape (http://www.inkscape.org/) -->

<svg
   xmlns:dc="http://purl.org/dc/elements/1.1/"
   xmlns:cc="http://creativecommons.org/ns#"
   xmlns:rdf="http://www.w3.org/1999/02/22-rdf-syntax-ns#"
   xmlns:svg="http://www.w3.org/2000/svg"
   xmlns="http://www.w3.org/2000/svg"
   xmlns:sodipodi="http://sodipodi.sourceforge.net/DTD/sodipodi-0.dtd"
   xmlns:inkscape="http://www.inkscape.org/namespaces/inkscape"
   width="128"
   height="128"
   viewBox="0 0 128 128"
   id="svg2"
   version="1.1"
   inkscape:version="0.91 r13725"
   sodipodi:docname="playCanvas.svg">
  <defs
     id="defs4" />
  <sodipodi:namedview
     id="base"
     pagecolor="#ffffff"
     bordercolor="#666666"
     borderopacity="1.0"
     inkscape:pageopacity="0.0"
     inkscape:pageshadow="2"
     inkscape:zoom="2.8"
     inkscape:cx="179.76342"
     inkscape:cy="56.718951"
     inkscape:document-units="px"
     inkscape:current-layer="layer1"
     showgrid="false"
     units="px"
     inkscape:window-width="1366"
     inkscape:window-height="706"
     inkscape:window-x="-8"
     inkscape:window-y="-8"
     inkscape:window-maximized="1" />
  <metadata
     id="metadata7">
    <rdf:RDF>
      <cc:Work
         rdf:about="">
        <dc:format>image/svg+xml</dc:format>
        <dc:type
           rdf:resource="http://purl.org/dc/dcmitype/StillImage" />
        <dc:title></dc:title>
      </cc:Work>
    </rdf:RDF>
  </metadata>
  <g
     inkscape:label="Capa 1"
     inkscape:groupmode="layer"
     id="layer1"
     transform="translate(0,-924.36216)">
    <g
       id="g4147"
       transform="matrix(0.97057757,0,0,0.97057757,-628.36281,303.89377)">
      <path
         style="fill:#fbf1ed"
         d="m 649.83038,769.92023 c -1.62689,-1.62689 -1.62689,-127.37311 0,-129 1.62689,-1.62689 127.37311,-1.62689 129,0 1.62689,1.62689 1.62689,127.37311 0,129 -1.62689,1.62689 -127.37311,1.62689 -129,0 z m 82.13752,-32.83898 c -0.26397,-2.71946 -1.14329,-3.52651 -8.6676,-7.95526 -4.6056,-2.71082 -8.6916,-5.44293 -9.07999,-6.07136 -1.21663,-1.96855 0.48073,-3.57132 9.09508,-8.58819 7.52324,-4.38142 8.3881,-5.17053 8.65251,-7.89461 0.16158,-1.66463 0.025,-3.0266 -0.30339,-3.0266 -0.73058,0 -29.68246,16.71869 -30.7608,17.76329 -0.67602,0.65485 28.6256,18.60796 30.59544,18.74584 0.4194,0.0293 0.63033,-1.30855 0.46875,-2.97311 z m -18.8936,-39.28528 c 8.16741,-4.70898 15.19664,-8.87376 15.62052,-9.25507 0.64929,-0.58408 -29.20239,-18.74567 -30.81171,-18.74567 -0.30059,0 -0.41433,1.36636 -0.25275,3.03636 0.26548,2.74397 1.12884,3.52492 8.96564,8.10986 11.53867,6.75073 11.52708,7.49566 -0.2213,14.22706 -8.35181,4.78528 -8.89397,5.28095 -8.90625,8.14234 -0.007,1.67579 0.15997,3.04688 0.37147,3.04688 0.2115,0 7.06696,-3.85279 15.23438,-8.56176 z"
         id="path4199"
         inkscape:connector-curvature="0" />
      <path
         style="fill:#fbece5"
         d="m 651.3142,770.41465 c -0.9213,-0.24755 -1.84064,-1.70897 -2.14929,-3.41663 -0.84249,-4.66112 -0.0868,-125.07636 0.79047,-125.95318 1.02145,-1.02094 127.72905,-1.02056 128.75,3.9e-4 1.02096,1.02096 1.02133,127.72857 3.7e-4,128.75 -0.79968,0.80005 -124.48117,1.40143 -127.39155,0.61942 z m 80.82868,-33.06474 c 0,-3.67655 -0.0455,-3.72207 -8.96269,-8.97013 -6.22227,-3.662 -8.87346,-5.73812 -8.67088,-6.79008 0.1605,-0.83339 4.19371,-3.79684 8.9627,-6.58544 8.60701,-5.03284 8.67087,-5.09734 8.67087,-8.75743 l 0,-3.68725 -2.57813,1.34554 c -4.69596,2.45086 -28.81398,16.62478 -29.59997,17.39561 -0.56185,0.55101 30.36141,19.65337 31.94372,19.73274 0.12891,0.007 0.23438,-1.65113 0.23438,-3.68356 z m -15.17631,-41.31613 c 7.3796,-4.26108 13.07491,-8.07436 12.65625,-8.47397 -0.64952,-0.61998 -25.71464,-15.30777 -30.52682,-17.88827 -1.43283,-0.76836 -1.64062,-0.41529 -1.64062,2.7877 0,3.63463 0.0798,3.71507 8.90625,8.98231 4.89844,2.92315 8.90625,5.90365 8.90625,6.62332 0,0.71966 -4.00781,3.66721 -8.90625,6.55009 l -8.90625,5.24161 0,3.79579 0,3.79579 3.04687,-1.83347 c 1.67579,-1.00841 9.08473,-5.31982 16.46432,-9.5809 z"
         id="path4197"
         inkscape:connector-curvature="0" />
      <path
         style="fill:#f8e4da"
         d="m 650.07632,768.94237 c -0.24762,-0.64811 -0.34098,-29.65495 -0.20746,-64.45964 l 0.24277,-63.28125 64.21875,0 64.21875,0 0,64.21875 0,64.21875 -64.0113,0.24089 c -50.71155,0.19084 -64.10484,-0.004 -64.46151,-0.9375 z m 82.82855,-30.50033 c 0.50502,-3.42304 -1.41266,-5.48912 -9.41244,-10.14081 -4.26569,-2.4804 -8.03318,-4.91367 -8.37219,-5.40727 -1.16792,-1.70047 0.195,-2.95646 8.16263,-7.52218 4.39562,-2.51884 8.39825,-5.33876 8.89476,-6.26649 1.15454,-2.15728 1.16134,-5.28959 0.013,-5.99929 -1.17922,-0.72879 -32.86798,17.5123 -32.52158,18.72048 0.35018,1.22135 30.77783,19.12072 32.00505,18.82729 0.51562,-0.12328 1.06946,-1.11857 1.23074,-2.21173 z m -19.027,-40.28744 c 8.6507,-5.02734 15.7608,-9.5625 15.8002,-10.07812 0.0769,-1.00685 -30.03389,-19.03152 -31.98832,-19.14857 -0.72321,-0.0433 -1.17187,1.16003 -1.17187,3.14303 0,3.73354 1.19681,4.84987 11.12897,10.38054 8.72212,4.85687 8.59948,5.98765 -1.28522,11.84938 -4.125,2.44617 -8.02734,4.91068 -8.67188,5.47669 -1.31822,1.15762 -1.61954,7.51768 -0.35616,7.51768 0.44864,0 7.89356,-4.11328 16.54428,-9.14063 z"
         id="path4195"
         inkscape:connector-curvature="0" />
      <path
         style="fill:#f6d8ca"
         d="m 650.07632,768.94237 c -0.24762,-0.64811 -0.34098,-29.65495 -0.20746,-64.45964 l 0.24277,-63.28125 64.21875,0 64.21875,0 0,64.21875 0,64.21875 -64.0113,0.24089 c -50.71155,0.19084 -64.10484,-0.004 -64.46151,-0.9375 z m 83.00406,-31.61647 c 0,-3.70528 -0.0337,-3.73915 -8.90625,-8.96094 -4.89844,-2.88288 -8.90625,-5.83043 -8.90625,-6.55009 0,-0.71967 4.00781,-3.70017 8.90625,-6.62332 8.69464,-5.18855 8.90625,-5.39748 8.90625,-8.79308 0,-1.91303 -0.24385,-3.72209 -0.54189,-4.02013 -0.76819,-0.76819 -33.50515,18.31141 -33.36931,19.44814 0.12974,1.08568 30.9849,19.18603 32.73932,19.20564 0.74279,0.008 1.17188,-1.34877 1.17188,-3.70622 z m -18.08103,-39.52191 c 8.9917,-5.22018 16.00007,-9.83428 15.57416,-10.25355 -0.88191,-0.86817 -33.05286,-19.63021 -33.65957,-19.63021 -0.21783,0 -0.39606,1.87383 -0.39606,4.16406 l 0,4.16406 8.90625,5.24161 c 4.89844,2.88288 8.90625,5.80864 8.90625,6.50168 0,0.69304 -4.00781,3.65175 -8.90625,6.57491 -8.85228,5.28262 -8.90625,5.33729 -8.90625,9.02175 0,2.14513 0.44932,3.70693 1.06647,3.70693 0.58655,0 8.42331,-4.27106 17.415,-9.49124 z"
         id="path4193"
         inkscape:connector-curvature="0" />
      <path
         style="fill:#f7c8b1"
         d="m 650.76788,768.98273 c -1.62666,-1.62667 -1.62666,-125.49834 0,-127.125 1.62666,-1.62666 125.49833,-1.62666 127.125,0 1.62667,1.62666 1.62667,125.49833 0,127.125 -1.62667,1.62667 -125.49834,1.62667 -127.125,0 z m 82.12949,-31.4335 c -0.28372,-4.4022 -0.33206,-4.46138 -6.84824,-8.38295 -10.69542,-6.43675 -11.18552,-6.86856 -9.5977,-8.45638 0.74947,-0.74947 4.69212,-3.35788 8.76144,-5.79646 l 7.39876,-4.43379 0.28574,-4.40471 c 0.15716,-2.42259 -0.0465,-4.40471 -0.45258,-4.40471 -1.56349,0 -34.05122,19.20795 -34.0389,20.12506 0.0123,0.917 32.42441,20.13175 34.02273,20.16958 0.41498,0.01 0.62591,-1.97722 0.46875,-4.41564 z m -18.48853,-38.92588 c 9.20443,-5.28515 16.74375,-10.03125 16.75405,-10.54687 0.0174,-0.87032 -32.5877,-20.15625 -34.07645,-20.15625 -0.36921,0 -0.54271,2.00391 -0.38555,4.45312 l 0.28574,4.45313 7.39688,4.38348 c 11.16037,6.61378 11.15003,6.59292 5.15461,10.40265 -2.77831,1.76546 -6.84121,4.22332 -9.02864,5.4619 -3.80122,2.15235 -3.97748,2.44896 -3.98438,6.70509 -0.004,2.44922 0.2528,4.45313 0.57059,4.45313 0.3178,0 8.10872,-4.32422 17.31315,-9.60938 z"
         id="path4191"
         inkscape:connector-curvature="0" />
      <path
         style="fill:#f6c2aa"
         d="m 650.58038,705.42023 0,-63.75 63.75,0 63.75,0 0,63.75 0,63.75 -63.75,0 -63.75,0 0,-63.75 z m 82.5,31.99153 0,-4.57098 -8.4375,-4.86957 c -4.64063,-2.67826 -8.4375,-5.4548 -8.4375,-6.17009 0,-0.71529 3.79687,-3.51516 8.4375,-6.22194 l 8.4375,-4.92141 0,-4.49377 c 0,-2.99373 -0.39118,-4.47893 -1.17188,-4.4493 -1.90522,0.0723 -33.90488,19.08802 -33.84409,20.11178 0.0612,1.03105 31.95922,19.9559 33.84409,20.07944 0.78778,0.0517 1.17188,-1.42142 1.17188,-4.49416 z m -18.16495,-38.92133 c 9.21728,-5.35826 16.7162,-10.10436 16.66427,-10.54687 -0.16417,-1.39862 -33.31319,-20.17544 -34.68728,-19.64815 -1.73753,0.66675 -1.7086,6.59433 0.0407,8.34364 0.74401,0.74402 4.75182,3.34549 8.90624,5.78107 4.15443,2.43557 7.5535,4.98932 7.5535,5.675 0,0.68569 -3.75463,3.39531 -8.34362,6.02139 -4.58898,2.62607 -8.5968,5.43447 -8.90624,6.24088 -1.27658,3.3267 -0.49654,7.87534 1.35053,7.87534 0.36474,0 8.20459,-4.38404 17.42188,-9.7423 z"
         id="path4189"
         inkscape:connector-curvature="0" />
      <path
         style="fill:#f1bca3"
         d="m 650.58038,705.42023 0,-63.75 63.75,0 63.75,0 0,63.75 0,63.75 -63.75,0 -63.75,0 0,-63.75 z m 83.28082,33.87944 c 0.69075,-4.85872 -0.59613,-6.45427 -9.21997,-11.43138 -4.63972,-2.67774 -8.43585,-5.4089 -8.43585,-6.06924 0,-0.66034 3.39908,-3.19336 7.5535,-5.62893 9.33883,-5.47498 10.2626,-6.38695 10.24465,-10.11373 -0.0286,-5.93036 -0.59593,-5.79828 -17.84242,4.15376 -18.40801,10.62229 -19.11955,11.10876 -17.95356,12.27475 2.07477,2.07477 32.68321,19.41368 33.93533,19.22351 0.77344,-0.11747 1.54669,-1.20141 1.71832,-2.40874 z m -18.89824,-40.73286 c 9.19114,-5.31626 16.71117,-10.06235 16.71117,-10.54688 0,-1.39922 -34.52247,-21.10848 -35.41318,-20.21777 -0.44045,0.44045 -0.6683,2.64173 -0.50632,4.89172 0.29398,4.08371 0.30932,4.09951 8.732,8.99903 4.64062,2.69948 8.56458,5.50813 8.7199,6.24144 0.17292,0.81634 -2.18978,2.70247 -6.09375,4.86463 -11.07011,6.13103 -11.5324,6.58316 -11.5324,11.27884 0,2.97072 0.38069,4.15491 1.3357,4.15491 0.73464,0 8.85573,-4.34966 18.04688,-9.66592 z"
         id="path4187"
         inkscape:connector-curvature="0" />
      <path
         style="fill:#f5b698"
         d="m 651.0138,768.00496 c -0.24767,-0.64816 -0.34104,-29.23317 -0.20749,-63.52223 l 0.24282,-62.34375 63.28125,0 63.28125,0 0,63.28125 0,63.28125 -63.07376,0.24098 c -49.96142,0.19089 -63.16738,-0.004 -63.52407,-0.9375 z m 82.82984,-30.81674 c -0.29445,-4.1109 -0.29628,-4.11279 -8.96639,-9.25392 -4.76953,-2.8282 -8.67187,-5.5732 -8.67187,-6.1 0,-0.52679 3.90234,-3.29636 8.67187,-6.15459 8.63268,-5.17329 8.67321,-5.21515 8.96639,-9.26175 0.16197,-2.23574 -0.0869,-4.4464 -0.55313,-4.9126 -0.9584,-0.9584 -35.81367,18.81787 -35.81554,20.32112 -0.002,1.42833 34.952,21.18466 35.86518,20.27148 0.43889,-0.43889 0.66546,-2.64827 0.50349,-4.90974 z m -17.88121,-39.01724 c 8.37419,-4.86174 15.43594,-9.17957 15.6928,-9.59517 0.68408,-1.10687 -0.2928,-1.75967 -18.19031,-12.15556 -9.55694,-5.55121 -16.68079,-9.14127 -17.16951,-8.65255 -0.45941,0.45941 -0.70276,2.68557 -0.54078,4.94703 0.29444,4.11091 0.29627,4.1128 8.96637,9.25393 4.76954,2.8282 8.66902,5.57039 8.66553,6.09375 -0.004,0.52336 -3.90583,3.27188 -8.67187,6.10782 -8.32996,4.95658 -8.67702,5.29621 -8.96238,8.77046 -0.16326,1.98782 -0.0641,4.22086 0.22047,4.96231 0.62089,1.61801 -0.50189,2.16464 19.98968,-9.73202 z"
         id="path4185"
         inkscape:connector-curvature="0" />
      <path
         style="fill:#f4aa88"
         d="m 651.0138,768.00496 c -0.24767,-0.64816 -0.34104,-29.23317 -0.20749,-63.52223 l 0.24282,-62.34375 63.28125,0 63.28125,0 0,63.28125 0,63.28125 -63.07376,0.24098 c -49.96142,0.19089 -63.16738,-0.004 -63.52407,-0.9375 z m 82.81486,-29.92763 c 0.32401,-4.90055 0.24929,-4.98368 -9.96664,-11.08865 -3.88824,-2.32359 -7.18602,-4.64658 -7.32842,-5.1622 -0.1424,-0.51563 3.62784,-3.25781 8.37831,-6.09375 8.6263,-5.14973 8.63759,-5.16145 8.93173,-9.268 0.16197,-2.26146 -0.11908,-4.52532 -0.62456,-5.0308 -1.0768,-1.0768 -35.7637,18.61387 -35.7637,20.30193 0,1.21891 33.73249,21.19243 35.15625,20.81656 0.51562,-0.13613 1.06328,-2.14992 1.21703,-4.47509 z m -18.68159,-39.2196 c 9.34268,-5.41406 16.98873,-10.28996 16.99124,-10.83532 0.005,-1.03768 -33.78974,-21.03968 -35.54774,-21.03968 -0.58596,0 -1.01019,1.95015 -1.01019,4.64373 0,5.21026 -0.20975,4.98405 10.73973,11.58269 3.58654,2.16141 6.49788,4.3517 6.46963,4.86733 -0.0282,0.51562 -3.21478,2.83638 -7.08119,5.15722 -10.07812,6.04948 -10.12817,6.10598 -10.12817,11.43256 0,3.46171 0.32789,4.56441 1.29001,4.33834 0.7095,-0.16672 8.93401,-4.73281 18.27668,-10.14687 z"
         id="path4183"
         inkscape:connector-curvature="0" />
      <path
         style="fill:#f3a27c"
         d="m 651.0138,768.00496 c -0.24767,-0.64816 -0.34104,-29.23317 -0.20749,-63.52223 l 0.24282,-62.34375 63.28125,0 63.28125,0 0,63.28125 0,63.28125 -63.07376,0.24098 c -49.96142,0.19089 -63.16738,-0.004 -63.52407,-0.9375 z m 83.00408,-30.15415 0,-5.06943 -8.5723,-5.01254 c -4.71477,-2.7569 -8.57532,-5.43269 -8.579,-5.9462 -0.004,-0.51351 3.15672,-2.83254 7.02313,-5.15338 3.86641,-2.32085 7.72696,-4.79829 8.57901,-5.50542 1.92016,-1.59359 2.22856,-10.43111 0.36401,-10.43111 -1.36302,0 -33.32112,18.2495 -35.25129,20.13006 -1.53743,1.49791 -2.51762,0.8106 18.62394,13.05924 8.50781,4.92911 15.99609,8.97017 16.64062,8.98012 0.79526,0.0123 1.17188,-1.61115 1.17188,-5.05134 z m -18.84612,-38.78293 c 9.4862,-5.52964 17.29089,-10.47578 17.34375,-10.9914 0.10727,-1.04622 -33.86167,-21.09375 -35.74167,-21.09375 -0.81961,0 -1.19346,1.59311 -1.19346,5.08579 l 0,5.0858 8.4375,4.82841 c 4.64062,2.65563 8.4375,5.34234 8.4375,5.97047 0,0.62814 -3.79688,3.3567 -8.4375,6.06348 l -8.4375,4.92141 0,5.11607 c 0,3.48077 0.37458,5.10833 1.17187,5.09185 0.64454,-0.0133 8.93331,-4.54848 18.41951,-10.07813 z"
         id="path4181"
         inkscape:connector-curvature="0" />
      <path
         style="fill:#f39b73"
         d="m 651.70538,768.04523 c -1.62642,-1.62642 -1.62642,-123.62358 0,-125.25 1.62642,-1.62642 123.62358,-1.62642 125.25,0 1.62642,1.62642 1.62642,123.62358 0,125.25 -1.62642,1.62642 -123.62358,1.62642 -125.25,0 z m 82.3125,-30.25058 0,-5.12558 -8.92204,-5.2509 c -4.90712,-2.888 -8.69579,-5.61697 -8.41926,-6.0644 0.27652,-0.44742 4.29144,-2.98159 8.92203,-5.63147 l 8.41927,-4.81798 0,-5.0858 c 0,-3.90466 -0.32789,-5.08579 -1.41185,-5.08579 -2.17654,0 -36.13847,19.9997 -35.79458,21.07892 0.37081,1.16373 34.39178,21.08255 36.03455,21.09774 0.79593,0.007 1.17188,-1.6335 1.17188,-5.11474 z m -19.08139,-38.56001 c 9.46509,-5.46457 17.4245,-10.28387 17.68759,-10.70956 0.26309,-0.42569 -0.68677,-1.58622 -2.1108,-2.57896 -5.37389,-3.74633 -32.34473,-18.96339 -33.61086,-18.96339 -0.97541,0 -1.32204,1.33475 -1.32204,5.09071 l 0,5.09071 8.4375,4.86956 c 4.64062,2.67827 8.43232,5.34448 8.426,5.92492 -0.007,0.58044 -3.69773,3.18756 -8.20313,5.7936 l -8.19162,4.73825 -0.28116,5.33987 c -0.19336,3.67244 0.0686,5.33988 0.83906,5.33988 0.61612,0 8.86438,-4.47101 18.32946,-9.93559 z"
         id="path4179"
         inkscape:connector-curvature="0" />
      <path
         style="fill:#f3976d"
         d="m 651.70538,768.04523 c -1.62642,-1.62642 -1.62642,-123.62358 0,-125.25 1.62642,-1.62642 123.62358,-1.62642 125.25,0 1.62642,1.62642 1.62642,123.62358 0,125.25 -1.62642,1.62642 -123.62358,1.62642 -125.25,0 z m 82.12491,-30.50005 -0.28116,-5.37506 -8.66962,-5.03062 c -4.76829,-2.76684 -8.45149,-5.38356 -8.18489,-5.81492 0.2666,-0.43137 4.2734,-2.9524 8.90399,-5.60228 l 8.41927,-4.81798 0,-5.03047 c 0,-2.76675 -0.33311,-5.23634 -0.74025,-5.48797 -1.05472,-0.65184 -36.24571,19.78439 -36.51052,21.20251 -0.22039,1.18019 33.8368,21.27051 36.12568,21.31053 0.89267,0.0156 1.14346,-1.41648 0.9375,-5.35374 z m -18.63081,-38.46983 c 9.50145,-5.53375 17.41777,-10.50173 17.59182,-11.03996 0.17406,-0.53822 -7.81079,-5.69546 -17.7441,-11.46052 -16.23162,-9.42046 -18.17924,-10.3238 -19.23245,-8.92035 -1.2442,1.65796 -1.54526,5.70183 -0.60659,8.14795 0.3109,0.8102 4.31872,3.63933 8.90625,6.28695 4.58753,2.64763 8.3312,5.28877 8.31927,5.86921 -0.0119,0.58044 -3.06713,2.74285 -6.78931,4.80535 -8.54997,4.73762 -11.00149,7.11348 -11.00149,10.66196 0,3.55199 0.84754,5.74883 2.20968,5.72753 0.58936,-0.009 8.84548,-4.54437 18.34692,-10.07812 z"
         id="path4177"
         inkscape:connector-curvature="0" />
      <path
         style="fill:#e59977"
         d="m 651.51788,705.42023 0,-62.8125 62.8125,0 62.8125,0 0,62.8125 0,62.8125 -62.8125,0 -62.8125,0 0,-62.8125 z m 83.42315,32.15708 c 0.0166,-4.54234 -1.57686,-6.07557 -12.54478,-12.0709 l -6.46537,-3.53413 2.11611,-1.71353 c 1.16386,-0.94243 2.66703,-1.71352 3.34037,-1.71352 0.67335,0 1.36489,-0.34127 1.53677,-0.75838 0.17187,-0.4171 2.69567,-2.11119 5.60844,-3.76462 5.66767,-3.21728 6.43085,-4.27873 6.40846,-8.91305 -0.0176,-3.63856 -1.24602,-5.75981 -2.93791,-5.07319 -4.99544,2.02731 -35.07766,20.50943 -35.31908,21.69959 -0.17604,0.86781 0.60815,1.84633 1.875,2.33964 1.19767,0.46637 9.53892,5.10269 18.53611,10.30292 11.80098,6.82079 16.56372,9.13192 17.09502,8.29541 0.40508,-0.63777 0.74296,-2.93107 0.75086,-5.09624 z m -23.97184,-35.80535 c 1.59006,-0.82939 3.10228,-1.7421 3.36048,-2.02825 0.69784,-0.77336 15.20798,-8.92282 17.11008,-9.60969 0.90235,-0.32584 1.64063,-1.20436 1.64063,-1.95227 0,-1.72231 -35.45104,-22.40388 -37.23191,-21.72049 -0.93823,0.36003 -1.22467,1.87872 -1.02057,5.41097 l 0.28373,4.91046 8.4375,4.95899 c 4.64062,2.72744 8.54547,5.47948 8.67742,6.11564 0.13197,0.63616 -3.11267,2.95487 -7.21031,5.15269 -4.09763,2.19781 -8.10794,4.65372 -8.9118,5.45758 -1.46936,1.46937 -2.10172,9.74998 -0.84085,11.01085 0.34139,0.34139 3.36433,-0.91362 6.71764,-2.7889 3.35332,-1.87528 7.3979,-4.08819 8.98796,-4.91758 z"
         id="path4175"
         inkscape:connector-curvature="0" />
      <path
         style="fill:#ec8555"
         d="m 651.51788,705.42023 0,-62.8125 62.8125,0 62.8125,0 0,62.8125 0,62.8125 -62.8125,0 -62.8125,0 0,-62.8125 z m 82.86845,36.95457 c 1.16083,-3.02507 0.5707,-8.53749 -1.07158,-10.00965 -0.90234,-0.80887 -4.75747,-3.30687 -8.56695,-5.5511 -3.80949,-2.24424 -6.93176,-4.49548 -6.93839,-5.00275 -0.007,-0.50728 3.32117,-2.9216 7.39509,-5.36516 4.07392,-2.44356 7.93447,-5.16091 8.579,-6.03856 1.34716,-1.8344 1.53806,-7.64496 0.31464,-9.57708 -1.06632,-1.68403 -0.49164,-1.95581 -20.23651,9.57024 -10.72135,6.25858 -16.875,10.39688 -16.875,11.34836 0,0.95774 6.42095,5.21138 17.8125,11.80011 9.79687,5.6664 18.08377,10.30389 18.41532,10.30553 0.33156,0.002 0.8589,-0.66432 1.17188,-1.47994 z m -19.44828,-42.70716 c 9.97828,-5.74205 18.14233,-10.98135 18.14233,-11.6429 0,-1.57568 -35.54834,-22.20953 -37.18256,-21.58242 -1.89553,0.72738 -1.66441,9.346 0.29423,10.97152 0.85204,0.70713 4.71259,3.18457 8.579,5.50542 3.86641,2.32084 7.07163,4.61912 7.12271,5.10728 0.0511,0.48816 -3.49294,2.95402 -7.8756,5.47969 -4.38265,2.52567 -8.27853,5.07939 -8.65751,5.67494 -1.50192,2.36018 -0.73074,10.92656 0.98365,10.92656 0.24828,0 8.61547,-4.69804 18.59375,-10.44009 z"
         id="path4173"
         inkscape:connector-curvature="0" />
      <path
         style="fill:#ed7b46"
         d="m 651.95128,767.06756 c -0.24771,-0.64822 -0.3411,-28.81139 -0.20752,-62.58483 l 0.24287,-61.40625 62.34375,0 62.34375,0 0,62.34375 0,62.34375 -62.13622,0.24108 c -49.21128,0.19093 -62.22992,-0.004 -62.58663,-0.9375 z m 82.53535,-29.28923 0,-5.58498 -8.30575,-4.89544 c -4.56817,-2.69249 -8.50609,-5.09577 -8.75094,-5.34061 -0.24484,-0.24485 3.61819,-2.83659 8.58451,-5.75943 l 9.02967,-5.31425 -0.27874,-5.30982 c -0.24654,-4.6962 -0.5054,-5.30306 -2.23999,-5.2513 -2.53982,0.0758 -36.94501,20.01803 -36.94501,21.41439 0,1.36705 35.63751,22.12196 37.5,21.8396 1.06877,-0.16203 1.40625,-1.55349 1.40625,-5.79816 z m -22.23569,-36.20259 c 21.35527,-12.36474 22.11209,-12.89126 20.80106,-14.47095 -1.66241,-2.00309 -35.04357,-21.05956 -36.88997,-21.05956 -1.37676,0 -1.56839,0.83716 -1.32951,5.80822 l 0.27911,5.80822 8.19162,4.73866 c 4.5054,2.60626 8.18065,5.16052 8.16723,5.67615 -0.0134,0.51562 -3.69965,3.05343 -8.19162,5.63957 l -8.16723,4.70207 -0.27911,5.8448 c -0.23013,4.81916 -0.0192,5.84481 1.20181,5.84481 0.81451,0 8.11198,-3.8394 16.21661,-8.53199 z"
         id="path4171"
         inkscape:connector-curvature="0" />
      <path
         style="fill:#f07339"
         d="m 651.95128,767.06756 c -0.24771,-0.64822 -0.3411,-28.81139 -0.20752,-62.58483 l 0.24287,-61.40625 62.34375,0 62.34375,0 0,62.34375 0,62.34375 -62.13622,0.24108 c -49.21128,0.19093 -62.22992,-0.004 -62.58663,-0.9375 z m 82.81446,-29.02878 c -0.26973,-5.62337 -0.40505,-5.90432 -4.02609,-8.35879 -2.06083,-1.39692 -5.96318,-3.66201 -8.67188,-5.03355 -2.70869,-1.37154 -4.92489,-2.65878 -4.92489,-2.86054 0,-0.20176 4.00781,-2.72556 8.90625,-5.60844 l 8.90625,-5.24161 0,-5.51498 c 0,-3.03324 -0.43503,-5.78385 -0.96673,-6.11246 -1.51657,-0.93728 -37.93952,20.45593 -37.93952,22.28398 0,1.68657 34.31966,22.11851 37.31036,22.21242 1.47563,0.0463 1.65063,-0.67121 1.40625,-5.76603 z m -20.65116,-37.59084 c 9.14212,-5.31288 17.39151,-9.95223 18.33197,-10.30966 0.94045,-0.35744 1.57326,-1.34448 1.40625,-2.19343 -0.42526,-2.1616 -37.16684,-23.3802 -38.38142,-22.16562 -0.51162,0.51162 -0.80187,3.39465 -0.64499,6.40674 l 0.28524,5.47651 8.19162,4.73825 c 7.26961,4.20493 10.1911,7.082 7.19133,7.082 -0.56281,0 -4.35968,1.99942 -8.4375,4.44317 l -7.4142,4.44316 0,5.86934 c 0,4.62618 0.30178,5.86933 1.42482,5.86933 0.78365,0 8.90474,-4.34691 18.04688,-9.65979 z"
         id="path4169"
         inkscape:connector-curvature="0" />
      <path
         style="fill:#dd7748"
         d="m 652.45538,705.42023 0,-61.875 61.875,0 61.875,0 0,61.875 0,61.875 -61.875,0 -61.875,0 0,-61.875 z m 82.5,32.4258 0,-6.0117 -7.45632,-4.3008 c -4.10097,-2.36544 -7.87295,-4.3008 -8.38217,-4.3008 -3.27721,0 -0.848,-2.47636 6.90557,-7.03957 l 8.93292,-5.25731 0,-5.59973 c 0,-3.84042 -0.39824,-5.75256 -1.26757,-6.08615 -1.96225,-0.75298 -37.63868,20.38007 -37.63868,22.2954 0,1.71432 34.23176,22.16157 37.26562,22.25944 1.39744,0.0451 1.64063,-0.83819 1.64063,-5.95878 z m -20.8408,-37.39809 c 9.14212,-5.31288 17.39151,-9.95223 18.33197,-10.30966 3.84876,-1.46278 0.69196,-4.13945 -17.06757,-14.47168 -9.982,-5.80738 -18.68603,-10.55887 -19.34229,-10.55887 -1.50565,0 -2.33494,2.12324 -2.31851,5.93605 0.0241,5.58465 0.87824,6.61616 9.43217,11.39039 7.44003,4.15253 10.43036,7.04856 7.27805,7.04856 -2.51455,0 -15.60397,8.57746 -16.13985,10.5764 -1.32439,4.94025 -0.36894,10.0486 1.87945,10.0486 0.72849,0 8.80444,-4.34691 17.94658,-9.65979 z"
         id="path4167"
         inkscape:connector-curvature="0" />
      <path
         style="fill:#ee7137"
         d="m 652.45538,705.42023 0,-61.875 61.875,0 61.875,0 0,61.875 0,61.875 -61.875,0 -61.875,0 0,-61.875 z m 82.30632,32.59716 0.27507,-6.15967 -8.55264,-4.8943 c -4.70395,-2.69187 -8.19896,-5.24798 -7.76669,-5.68025 0.43228,-0.43228 4.15718,-2.80718 8.27757,-5.27757 l 7.49162,-4.49162 0.27942,-5.87151 c 0.2077,-4.36446 -0.0575,-6.0008 -1.03319,-6.37521 -0.72194,-0.27704 -9.49612,4.26456 -19.49818,10.09244 -13.28905,7.74311 -18.18555,11.06486 -18.18555,12.33696 0,1.27235 4.91977,4.60802 18.28125,12.39494 10.05469,5.85976 18.70312,10.52617 19.21875,10.36979 0.51562,-0.15639 1.06128,-3.05619 1.21257,-6.444 z m -19.39461,-37.85732 c 13.61834,-7.90675 18.66791,-11.30235 18.45462,-12.40988 -0.29448,-1.52911 -35.52777,-22.64246 -37.78502,-22.64246 -1.50565,0 -2.33494,2.12324 -2.31851,5.93605 0.0241,5.58203 0.9156,6.81041 7.79272,10.73696 11.54276,6.59041 11.40621,5.7239 1.77775,11.2808 -8.60143,4.96418 -9.54331,6.11734 -9.57047,11.7172 -0.0124,2.55163 1.41892,6.26649 2.41441,6.26649 0.26744,0 8.92296,-4.89832 19.2345,-10.88516 z"
         id="path4165"
         inkscape:connector-curvature="0" />
      <path
         style="fill:#ec6d32"
         d="m 652.45538,705.42023 0,-61.875 61.875,0 61.875,0 0,61.875 0,61.875 -61.875,0 -61.875,0 0,-61.875 z m 82.46702,37.56163 c 1.59849,-2.98681 1.1745,-9.23261 -0.75793,-11.16504 -0.95064,-0.95064 -4.96339,-3.51417 -8.91725,-5.69674 -3.95385,-2.18258 -6.98032,-4.30569 -6.72547,-4.71804 0.25484,-0.41234 4.03245,-2.79594 8.39468,-5.29689 8.09479,-4.64088 8.93949,-5.70682 8.96365,-11.31137 0.017,-3.93587 -0.82217,-5.93605 -2.49032,-5.93605 -1.57318,0 -37.0288,20.40339 -37.95702,21.84284 -0.88025,1.36507 0.0577,3.31406 1.87487,3.89572 0.85471,0.27359 9.14777,4.91813 18.42902,10.3212 9.28125,5.40306 17.17657,9.8359 17.54514,9.85075 0.36858,0.0148 1.10686,-0.78903 1.64063,-1.78638 z m -19.60405,-42.7935 c 12.59521,-7.31272 18.69356,-11.36775 18.68122,-12.42187 -0.0122,-1.03946 -6.1509,-5.10677 -18.28037,-12.11189 -10.04413,-5.80078 -18.85013,-10.54687 -19.56889,-10.54687 -0.71875,0 -1.5629,0.66732 -1.87588,1.48293 -0.78853,2.05489 -0.68798,9.07129 0.14843,10.35742 0.37882,0.5825 4.38018,3.23554 8.89189,5.89564 4.51172,2.6601 8.20313,4.99303 8.20313,5.18429 0,0.19126 -3.18824,2.09755 -7.08497,4.2362 -9.45685,5.19022 -10.72753,6.57291 -10.72753,11.67309 0,4.64158 0.70292,7.10793 2.02578,7.10793 0.48822,0 9.30246,-4.88559 19.58719,-10.85687 z"
         id="path4163"
         inkscape:connector-curvature="0" />
      <path
         style="fill:#da6935"
         d="m 652.45538,705.42023 0,-61.875 61.875,0 61.875,0 0,61.875 0,61.875 -61.875,0 -61.875,0 0,-61.875 z m 83.21118,33.27184 c 0.13334,-3.08858 -0.0776,-6.06324 -0.46875,-6.61035 -0.92628,-1.29564 -11.28815,-7.52379 -14.63352,-8.7957 -1.42821,-0.543 -2.37208,-1.35077 -2.09752,-1.79503 0.27458,-0.44427 4.30778,-3.00581 8.96267,-5.6923 l 8.46344,-4.88454 0,-5.37196 c 0,-5.69597 -1.13068,-7.84426 -3.62987,-6.89673 -2.61921,0.99304 -35.20604,19.97365 -36.57645,21.30442 -1.95451,1.89796 -0.67528,3.87624 3.82248,5.91131 2.22205,1.00539 10.57915,5.67276 18.57134,10.37193 7.99219,4.69916 15.16406,8.43831 15.9375,8.30923 1.03432,-0.17262 1.47037,-1.7199 1.64868,-5.85028 z m -21.51148,-37.79865 c 9.63548,-5.58349 18.28851,-10.43378 19.22897,-10.77841 3.751,-1.37458 0.77779,-4.08376 -13.90975,-12.67456 -26.73077,-15.63492 -25.76892,-15.40375 -25.76892,-6.19336 l 0,5.93876 8.90625,5.24161 c 4.89844,2.88288 8.90625,5.44919 8.90625,5.70289 0,0.25371 -1.09476,0.87751 -2.43279,1.38623 -1.33803,0.50872 -5.34584,2.62626 -8.90625,4.70565 l -6.47346,3.78071 0,6.52114 c 0,5.28843 0.277,6.52115 1.46533,6.52115 0.80593,0 9.34889,-4.56831 18.98437,-10.15181 z"
         id="path4161"
         inkscape:connector-curvature="0" />
      <path
         style="fill:#ee6221"
         d="m 652.45538,705.42023 0,-61.875 61.875,0 61.875,0 0,61.875 0,61.875 -61.875,0 -61.875,0 0,-61.875 z m 83.26152,34.28088 c 0.46705,-7.37841 -0.0237,-8.11229 -8.75244,-13.08887 -5.07499,-2.89343 -7.72077,-4.91782 -7.16012,-5.47847 0.48908,-0.48908 4.20361,-2.87582 8.25451,-5.30386 l 7.36528,-4.41462 0.28352,-5.42038 c 0.30488,-5.82884 -0.85069,-8.33346 -3.39894,-7.36698 -2.65259,1.00605 -35.23777,19.97761 -36.62215,21.32195 -1.95793,1.90129 -0.75942,3.68023 4.26297,6.3275 2.4954,1.31531 10.65429,6.00558 18.13085,10.42282 7.47656,4.41725 14.4375,7.94021 15.46875,7.82882 1.54821,-0.16724 1.92603,-1.0087 2.16777,-4.82791 z m -19.54673,-39.55544 c 13.69443,-7.90709 18.79678,-11.31677 18.58446,-12.41921 -0.16096,-0.83582 -7.03711,-5.46452 -15.28033,-10.28601 -26.89611,-15.73163 -26.00065,-15.52544 -25.57474,-5.88887 l 0.27457,6.2124 7.79515,4.6875 c 4.28734,2.57812 7.79594,5.05312 7.7969,5.49998 9.4e-4,0.44686 -3.50686,2.81684 -7.79515,5.26662 l -7.7969,4.45413 -0.27545,6.68651 c -0.25155,6.10662 -0.11631,6.68651 1.55945,6.68651 1.0092,0 10.32961,-4.9048 20.71204,-10.89956 z"
         id="path4159"
         inkscape:connector-curvature="0" />
      <path
         style="fill:#d9622b"
         d="m 713.63799,737.95184 c -16.25697,-9.46455 -20.65654,-12.84411 -16.7207,-12.84411 0.7353,0 8.9535,4.42969 18.26268,9.84375 9.30917,5.41406 17.49663,9.84375 18.19433,9.84375 0.69772,0 1.52076,0.25218 1.82898,0.56041 0.99218,0.99217 -0.39921,3.19108 -1.98883,3.14307 -0.84717,-0.0256 -9.65659,-4.77168 -19.57646,-10.54687 z m 5.8694,-15.62303 c -0.30726,-0.49715 1.03893,-1.90309 2.99154,-3.1243 11.40078,-7.13037 14.03784,-8.1156 12.75178,-4.76417 -0.52836,1.3769 -12.53136,8.79239 -14.2317,8.79239 -0.52414,0 -1.20437,-0.40676 -1.51162,-0.90392 z m -24.86451,-9.40858 c 0,-1.03125 0.60248,-1.875 1.33884,-1.875 0.73637,0 9.27934,-4.605 18.98438,-10.23334 10.93596,-6.3422 17.98673,-9.90441 18.54285,-9.3683 0.56745,0.54702 0.39512,1.35341 -0.46875,2.19349 -2.13282,2.07411 -35.55917,21.15815 -37.05921,21.15815 -0.73596,0 -1.33811,-0.84375 -1.33811,-1.875 z m 6.79687,-27.23246 c -4.99755,-2.771 -6.79687,-4.27686 -6.79687,-5.68832 l 0,-1.91964 3.04687,1.86182 c 1.67579,1.02401 5.11102,3.06528 7.63385,4.53616 4.25939,2.48334 5.55237,4.14372 3.68647,4.73399 -0.42539,0.13457 -3.83203,-1.45123 -7.57032,-3.52401 z"
         id="path4157"
         inkscape:connector-curvature="0" />
      <path
         style="fill:#e65e20"
         d="m 713.63799,737.95184 c -15.72709,-9.15606 -20.63761,-12.84411 -17.10154,-12.84411 0.52584,0 8.58994,4.43973 17.92022,9.86607 9.33029,5.42635 17.65396,9.97135 18.49706,10.10001 1.54518,0.23582 2.00165,0.81366 2.00165,2.53392 0,2.19986 -4.294,0.25486 -21.31739,-9.65589 z m 5.91719,-15.5457 c -0.54355,-0.87948 15.01433,-10.49678 15.76549,-9.74563 1.17006,1.17007 -1.14525,3.44504 -6.96581,6.84442 -6.6151,3.86343 -7.93588,4.29888 -8.79968,2.90121 z m -24.9123,-9.54124 c 0,-1.06168 0.36789,-1.70296 0.81753,-1.42507 0.70893,0.43815 33.30458,-17.66773 36.33577,-20.18339 1.6521,-1.37113 2.73768,0.93322 1.16075,2.46391 -2.07968,2.0187 -35.51379,21.07488 -36.97594,21.07488 -0.73596,0 -1.33811,-0.86865 -1.33811,-1.93033 z m 6.79687,-27.17713 c -4.67107,-2.58998 -6.79687,-4.31702 -6.79687,-5.52192 0,-1.48785 1.09985,-1.09222 7.26562,2.61352 6.91072,4.15346 8.82487,5.88725 7.10157,6.43241 -0.42539,0.13457 -3.83203,-1.45123 -7.57032,-3.52401 z"
         id="path4155"
         inkscape:connector-curvature="0" />
      <path
         style="fill:#e15c1f"
         d="m 714.34655,737.25179 c -14.94848,-8.77538 -19.78053,-12.14406 -17.41947,-12.14406 0.31099,0 8.04536,4.34691 17.1875,9.65978 9.14212,5.31289 17.36033,9.94028 18.26267,10.28309 1.87523,0.71241 2.23486,2.60377 0.46875,2.46515 -0.64453,-0.0506 -8.96928,-4.66937 -18.49945,-10.26396 z m 5.02339,-15.62112 c 1.19005,-1.19005 14.1698,-8.53886 14.50745,-8.21375 0.74815,0.72038 -1.07014,2.25937 -6.46959,5.47581 -4.97488,2.96352 -9.96231,4.66239 -8.03786,2.73794 z m -23.2009,-8.51642 c -0.42107,-0.6813 34.87191,-21.75652 36.43391,-21.75652 2.35712,0 -1.80811,2.92719 -14.75695,10.37069 -8.3789,4.81654 -16.56835,9.5358 -18.19876,10.48726 -1.63042,0.95146 -3.19561,1.35581 -3.4782,0.89857 z m 6.04971,-28.10975 c -3.30983,-1.92722 -6.22316,-4.11988 -6.47406,-4.87259 -0.38341,-1.15024 -0.0964,-1.13351 1.79912,0.10483 1.24043,0.81038 4.6811,2.84064 7.64594,4.51169 2.96485,1.67106 5.39063,3.20895 5.39063,3.41754 0,1.09864 -2.98078,-0.0284 -8.36163,-3.16147 z"
         id="path4153"
         inkscape:connector-curvature="0" />
      <path
         style="fill:#d95c22"
         d="m 714.82425,736.73009 c -17.7735,-10.39347 -17.90483,-10.47738 -17.29075,-11.04755 0.21485,-0.19949 7.90982,4.01926 17.09994,9.375 9.19012,5.35573 17.10028,9.73769 17.57812,9.73769 0.47785,0 0.86882,0.42187 0.86882,0.9375 0,0.51562 -0.31641,0.91797 -0.70313,0.8941 -0.38671,-0.0239 -8.28556,-4.47739 -17.553,-9.89674 z m 4.19363,-14.82257 c 0,-0.42245 13.01081,-8.04979 13.73143,-8.04979 1.41644,0 -1.39119,2.15249 -6.62648,5.08023 -5.80575,3.24676 -7.10495,3.78977 -7.10495,2.96956 z m -22.46006,-9.61229 c 0.022,-0.42969 5.82275,-4.04398 12.89063,-8.03176 7.06787,-3.98778 15.06552,-8.53147 17.77255,-10.09709 2.70704,-1.56562 4.91983,-2.52164 4.91731,-2.12449 -0.004,0.59317 -32.07133,19.69096 -34.79498,20.72209 -0.454,0.17188 -0.80747,-0.0391 -0.78551,-0.46875 z m 6.21817,-27.6237 c -3.51897,-2.08933 -6.21732,-3.97959 -5.99633,-4.20058 0.36836,-0.36836 12.27019,6.23126 13.55554,7.51661 1.57245,1.57245 -1.86677,0.0637 -7.55921,-3.31603 z"
         id="path4151"
         inkscape:connector-curvature="0" />
      <path
         style="fill:#dc5a1e"
         d="m 729.74394,745.21226 c -1.71592,-1.37472 -1.686,-1.39424 0.52394,-0.34176 2.86972,1.3667 3.40157,1.79973 2.21044,1.79973 -0.50302,0 -1.73349,-0.65608 -2.73438,-1.45797 z m -5.33544,-2.82825 c -3.50478,-1.90138 -3.29145,-2.69331 0.23438,-0.87003 1.54687,0.79992 2.8125,1.6545 2.8125,1.89907 0,0.60329 -0.10073,0.56926 -3.04688,-1.02904 z m -5.91456,-3.73425 c -1.74752,-1.40006 -1.73603,-1.41736 0.28956,-0.43576 1.16016,0.56221 2.10938,1.21829 2.10938,1.45796 0,0.71739 -0.4862,0.51023 -2.39894,-1.0222 z m -8.13911,-4.49909 c -7.27545,-4.17427 -8.22185,-5.46034 -1.1807,-1.60446 5.1253,2.80673 8.06454,4.79331 6.98437,4.72063 -0.23203,-0.0156 -2.84369,-1.41789 -5.80367,-3.11617 z m -9.67339,-5.81341 c -1.74752,-1.40005 -1.73602,-1.41736 0.28956,-0.43576 1.16016,0.56221 2.10938,1.21829 2.10938,1.45796 0,0.7174 -0.4862,0.51023 -2.39894,-1.0222 z m 21.14894,-7.38231 c 0,-0.25781 0.84375,-0.92031 1.875,-1.47222 1.03125,-0.55191 1.875,-0.79253 1.875,-0.53472 0,0.25781 -0.84375,0.92031 -1.875,1.47222 -1.03125,0.55191 -1.875,0.79253 -1.875,0.53472 z m 4.6875,-2.76179 c 0,-0.22012 1.50191,-1.28637 3.33757,-2.36944 1.83568,-1.08308 3.07455,-1.54362 2.75306,-1.02344 -0.62786,1.01589 -6.09063,4.05901 -6.09063,3.39288 z m -30,-5.64138 c 0,-0.20264 0.65472,-0.61969 1.45494,-0.92676 0.83431,-0.32015 1.21062,-0.16298 0.88217,0.36845 -0.55055,0.89081 -2.33711,1.31761 -2.33711,0.55831 z m 5.625,-2.84683 c 0,-0.25781 0.84375,-0.92031 1.875,-1.47222 1.03125,-0.55191 1.875,-0.79253 1.875,-0.53472 0,0.25781 -0.84375,0.92031 -1.875,1.47222 -1.03125,0.55191 -1.875,0.79253 -1.875,0.53472 z m 4.6875,-2.83032 c 0,-0.25781 1.26562,-1.12323 2.8125,-1.92315 1.54687,-0.79992 2.8125,-1.24346 2.8125,-0.98565 0,0.25781 -1.26563,1.12323 -2.8125,1.92315 -1.54688,0.79992 -2.8125,1.24346 -2.8125,0.98565 z m 6.5625,-3.73218 c 0,-0.25781 0.84375,-0.92031 1.875,-1.47222 1.03125,-0.55191 1.875,-0.79253 1.875,-0.53472 0,0.25781 -0.84375,0.92031 -1.875,1.47222 -1.03125,0.55191 -1.875,0.79253 -1.875,0.53472 z m 4.6875,-2.83032 c 0,-0.25781 1.26562,-1.12323 2.8125,-1.92315 1.54687,-0.79992 2.8125,-1.24346 2.8125,-0.98565 0,0.25781 -1.26563,1.12323 -2.8125,1.92315 -1.54688,0.79992 -2.8125,1.24346 -2.8125,0.98565 z m 6.5625,-3.73218 c 0,-0.25781 0.84375,-0.92031 1.875,-1.47222 1.03125,-0.55191 1.875,-0.79253 1.875,-0.53472 0,0.25781 -0.84375,0.92031 -1.875,1.47222 -1.03125,0.55191 -1.875,0.79253 -1.875,0.53472 z m -23.96144,-13.24269 c -1.74752,-1.40005 -1.73602,-1.41736 0.28956,-0.43576 1.16016,0.56221 2.10938,1.21829 2.10938,1.45796 0,0.7174 -0.4862,0.51023 -2.39894,-1.0222 z"
         id="path4149"
         inkscape:connector-curvature="0" />
    </g>
  </g>
</svg>
