<?xml version="1.0" encoding="UTF-8" standalone="no"?>
<svg
   xmlns:dc="http://purl.org/dc/elements/1.1/"
   xmlns:cc="http://creativecommons.org/ns#"
   xmlns:rdf="http://www.w3.org/1999/02/22-rdf-syntax-ns#"
   xmlns:svg="http://www.w3.org/2000/svg"
   xmlns="http://www.w3.org/2000/svg"
   xmlns:sodipodi="http://sodipodi.sourceforge.net/DTD/sodipodi-0.dtd"
   xmlns:inkscape="http://www.inkscape.org/namespaces/inkscape"
   width="128"
   height="128"
   viewBox="0 0 128 128"
   version="1.1"
   preserveAspectRatio="xMidYMid"
   id="svg2"
   inkscape:version="0.91 r13725"
   sodipodi:docname="processwire-icon.svg">
  <metadata
     id="metadata12">
    <rdf:RDF>
      <cc:Work
         rdf:about="">
        <dc:format>image/svg+xml</dc:format>
        <dc:type
           rdf:resource="http://purl.org/dc/dcmitype/StillImage" />
        <dc:title></dc:title>
      </cc:Work>
    </rdf:RDF>
  </metadata>
  <defs
     id="defs10" />
  <sodipodi:namedview
     pagecolor="#ffffff"
     bordercolor="#666666"
     borderopacity="1"
     objecttolerance="10"
     gridtolerance="10"
     guidetolerance="10"
     inkscape:pageopacity="0"
     inkscape:pageshadow="2"
     inkscape:window-width="1366"
     inkscape:window-height="706"
     id="namedview8"
     showgrid="false"
     inkscape:zoom="3.6875"
     inkscape:cx="167.84181"
     inkscape:cy="78.616577"
     inkscape:window-x="-8"
     inkscape:window-y="-8"
     inkscape:window-maximized="1"
     inkscape:current-layer="svg2" />
  <g
     id="g4"
     transform="scale(0.49999836,0.49999836)">
    <path
       d="m 128.13425,106.80584 c 11.70398,0 21.19331,9.48849 21.19331,21.19416 0,11.70399 -9.48933,21.19332 -21.19331,21.19332 -11.70568,0 -21.19416,-9.48933 -21.19416,-21.19332 0,-11.70567 9.48848,-21.19416 21.19416,-21.19416 l 0,0 z M 128,0 C 57.341258,0 0.0548809,57.255137 8.4432161e-4,127.90206 L 0,127.90206 l 0,64.85319 32.840733,29.17046 0,-95.15757 c 0,-52.556492 42.604468,-95.160116 95.159267,-95.160116 52.5548,0 95.15758,42.603624 95.15758,95.160116 0,52.55142 -42.60278,95.15757 -95.15758,95.15757 l -17.4116,0 0,-46.67156 17.4116,0 c 26.77766,0 48.49108,-21.70751 48.49108,-48.48601 0,-26.781887 -21.71342,-48.491084 -48.49108,-48.491084 -26.7785,0 -48.488546,21.709197 -48.488546,48.491084 l 0,129.23102 48.488546,0 c 70.69167,0 128,-57.30665 128,-127.99832 C 256,57.308329 198.69167,0 128,0 l 0,0 z"
       id="path6"
       inkscape:connector-curvature="0"
       style="fill:#368fb8" />
  </g>
</svg>
