<?xml version="1.0" encoding="UTF-8" standalone="no"?>
<svg
   xmlns:dc="http://purl.org/dc/elements/1.1/"
   xmlns:cc="http://creativecommons.org/ns#"
   xmlns:rdf="http://www.w3.org/1999/02/22-rdf-syntax-ns#"
   xmlns:svg="http://www.w3.org/2000/svg"
   xmlns="http://www.w3.org/2000/svg"
   xmlns:sodipodi="http://sodipodi.sourceforge.net/DTD/sodipodi-0.dtd"
   xmlns:inkscape="http://www.inkscape.org/namespaces/inkscape"
   width="128"
   height="128"
   viewBox="0 0 128 128"
   version="1.1"
   preserveAspectRatio="xMidYMid"
   id="svg2"
   inkscape:version="0.91 r13725"
   sodipodi:docname="qt.svg">
  <metadata
     id="metadata32">
    <rdf:RDF>
      <cc:Work
         rdf:about="">
        <dc:format>image/svg+xml</dc:format>
        <dc:type
           rdf:resource="http://purl.org/dc/dcmitype/StillImage" />
        <dc:title></dc:title>
      </cc:Work>
    </rdf:RDF>
  </metadata>
  <defs
     id="defs30" />
  <sodipodi:namedview
     pagecolor="#ffffff"
     bordercolor="#666666"
     borderopacity="1"
     objecttolerance="10"
     gridtolerance="10"
     guidetolerance="10"
     inkscape:pageopacity="0"
     inkscape:pageshadow="2"
     inkscape:window-width="1366"
     inkscape:window-height="706"
     id="namedview28"
     showgrid="false"
     inkscape:zoom="2.1602227"
     inkscape:cx="134.19508"
     inkscape:cy="48.76261"
     inkscape:window-x="-8"
     inkscape:window-y="-8"
     inkscape:window-maximized="1"
     inkscape:current-layer="svg2" />
  <g
     id="g4"
     transform="matrix(0.41476025,0,0,0.41476025,12.498712,-0.32302794)">
    <path
       d="M 63.255,1.229 C 60.113,0.701 57.029,0.583 54.049,0.818 l -0.015,0 c 0,0 -20.38,1.381 -21.305,1.454 C 14.125,3.755 0,19.055 0,40.184 l 0,249.113 20.835,19.426 209.382,-35.195 C 244.621,271.032 256,254.043 256,235.689 L 256,32.827 63.255,1.229"
       id="path6"
       inkscape:connector-curvature="0"
       style="fill:#0c481e" />
    <path
       d="m 256,235.689 c 0,18.354 -11.379,35.343 -25.783,37.853 l -209.382,35.181 0,-269.861 c 0,-24.55 19.588,-41.406 42.42,-37.633 L 256,32.827 l 0,202.862"
       id="path8"
       inkscape:connector-curvature="0"
       style="fill:#66b036" />
    <path
       d="m 216.546,200.479 c -0.234,0.015 -0.484,0.015 -0.719,0.015 -2.452,0 -4.273,-0.764 -5.447,-2.335 -1.322,-1.718 -1.968,-5.521 -1.968,-11.438 l 0,-68.027 19.029,0.881 0,-18.618 -19.029,-1.351 0,-29.674 -16.915,-1.821 -7.004,29.821 -11.144,-0.807 0,19.954 9.147,0.411 0,75.413 c 0,9.867 1.997,17.062 6.006,21.54 3.436,3.861 8.457,5.77 15.035,5.77 0.984,0 2.012,-0.044 3.054,-0.117 7.268,-0.617 14.669,-2.599 22.216,-5.903 l 0,-17.105 c -4.434,2.026 -8.516,3.171 -12.261,3.391"
       id="path10"
       inkscape:connector-curvature="0"
       style="fill:#ffffff" />
    <path
       d="m 118.434,58.083 c -2.54,-0.294 -5.022,-0.441 -7.4,-0.441 -14.918,0 -26.782,5.829 -35.269,17.664 -10.073,14.052 -15.197,36.194 -15.197,66.191 0,27.81 3.744,49.086 11.086,63.637 7.238,14.301 17.707,22.832 31.113,25.695 2.922,14.155 7.474,23.728 13.655,28.676 4.67,3.759 10.866,5.624 18.53,5.624 2.32,0 4.773,-0.176 7.342,-0.499 l 8.751,-1.16 0,-19.264 c -1.336,0.146 -2.613,0.22 -3.803,0.22 -4.096,0 -7.15,-0.881 -9.133,-2.673 -2.554,-2.305 -4.478,-6.71 -5.755,-13.244 12.612,-4.316 21.833,-13.64 27.883,-27.898 5.932,-14.051 8.868,-33.081 8.868,-57.293 0,-26.415 -3.979,-46.545 -12.113,-60.583 C 148.71,68.39 135.98,60.109 118.434,58.083 l 0,0 z m 15.403,137.022 c -3.48,8.972 -8.605,13.67 -15.403,14.111 -0.308,0.014 -0.602,0.029 -0.91,0.029 -6.799,0 -11.967,-4.86 -15.418,-14.654 -3.67,-10.278 -5.491,-27.81 -5.491,-52.492 0,-25.548 1.865,-42.434 5.565,-50.568 3.421,-7.474 8.325,-11.204 14.698,-11.204 0.514,0 1.027,0.03 1.556,0.074 6.886,0.602 12.011,5.388 15.447,14.242 3.421,8.796 5.109,24.844 5.109,48.176 0,25.989 -1.703,43.418 -5.153,52.286 l 0,0 z"
       id="path12"
       inkscape:connector-curvature="0"
       style="fill:#ffffff" />
    <path
       d="m 227.441,119.575 -19.029,-0.881 0,0.412 10.19,0.469 8.839,0"
       id="path14"
       inkscape:connector-curvature="0"
       style="fill:#0c481e" />
    <path
       d="m 219.968,197.088 c -2.673,1.218 -5.184,2.143 -7.592,2.716 0.97,0.47 2.1,0.69 3.451,0.69 0.235,0 0.485,0 0.719,-0.015 3.745,-0.22 7.827,-1.365 12.261,-3.391 l -8.839,0"
       id="path16"
       inkscape:connector-curvature="0"
       style="fill:#0c481e" />
    <path
       d="m 191.497,68.111 -8.824,0 -6.857,29.19 8.677,0.631 7.004,-29.821"
       id="path18"
       inkscape:connector-curvature="0"
       style="fill:#0c481e" />
    <path
       d="m 188.502,214.443 c -4.009,-4.478 -6.006,-11.673 -6.006,-21.54 l 0,-75.413 -9.147,-0.411 0,-19.954 -8.825,0 0,4.463 c 1.278,4.802 2.276,10.014 3.025,15.623 l 6.123,0.279 0,75.413 c 0,9.867 1.997,17.062 6.005,21.54 3.436,3.861 8.458,5.77 15.036,5.77 l 8.824,0 c -6.578,0 -11.599,-1.909 -15.035,-5.77"
       id="path20"
       inkscape:connector-curvature="0"
       style="fill:#0c481e" />
    <path
       d="m 147.242,244.426 c 1.19,0 2.452,-0.074 3.803,-0.22 l -7.092,0 c 0.984,0.146 2.129,0.22 3.289,0.22"
       id="path22"
       inkscape:connector-curvature="0"
       style="fill:#0c481e" />
    <path
       d="m 121.15,262.427 c -0.161,-0.073 -0.337,-0.146 -0.499,-0.235 -0.015,0 -0.029,-0.014 -0.044,-0.014 -0.161,-0.074 -0.308,-0.162 -0.455,-0.235 -0.03,-0.015 -0.059,-0.03 -0.088,-0.044 -0.132,-0.074 -0.265,-0.147 -0.411,-0.22 -0.044,-0.03 -0.074,-0.045 -0.118,-0.074 -0.117,-0.059 -0.249,-0.132 -0.367,-0.206 -0.059,-0.029 -0.103,-0.058 -0.161,-0.102 -0.103,-0.059 -0.206,-0.118 -0.309,-0.177 -0.073,-0.044 -0.147,-0.088 -0.205,-0.132 -0.088,-0.058 -0.177,-0.117 -0.265,-0.176 -0.088,-0.044 -0.161,-0.103 -0.249,-0.161 -0.074,-0.044 -0.147,-0.089 -0.221,-0.147 -0.088,-0.059 -0.19,-0.132 -0.278,-0.191 -0.059,-0.044 -0.118,-0.088 -0.177,-0.132 -0.102,-0.074 -0.22,-0.162 -0.323,-0.25 -0.044,-0.015 -0.088,-0.044 -0.117,-0.073 -0.147,-0.118 -0.294,-0.235 -0.441,-0.353 -6.181,-4.948 -10.733,-14.521 -13.655,-28.676 -13.406,-2.863 -23.875,-11.394 -31.113,-25.695 -7.342,-14.551 -11.086,-35.827 -11.086,-63.637 0,-29.997 5.124,-52.139 15.197,-66.191 8.487,-11.835 20.351,-17.664 35.269,-17.664 0.044,0 -9.324,-0.015 -9.324,-0.015 l 0,0.015 c -14.903,0 -26.753,5.829 -35.24,17.664 -10.072,14.052 -15.197,36.194 -15.197,66.191 0,27.81 3.745,49.086 11.086,63.637 7.254,14.301 17.708,22.832 31.128,25.695 2.908,14.155 7.474,23.728 13.641,28.676 4.669,3.759 10.865,5.624 18.53,5.624 l 0.441,0 8.134,0 c -5.007,-0.088 -9.368,-0.969 -13.068,-2.687 -0.015,0 -0.015,0 -0.015,-0.015"
       id="path24"
       inkscape:connector-curvature="0"
       style="fill:#0c481e" />
    <path
       d="m 118.434,80.401 c -0.529,-0.044 -1.042,-0.074 -1.556,-0.074 -1.601,0 -3.113,0.235 -4.523,0.72 5.286,1.63 9.353,6.181 12.231,13.596 3.436,8.796 5.125,24.844 5.125,48.176 0,25.989 -1.704,43.418 -5.169,52.286 -2.775,7.166 -6.637,11.615 -11.541,13.332 1.424,0.529 2.937,0.808 4.523,0.808 0.308,0 0.602,-0.015 0.91,-0.029 6.798,-0.441 11.923,-5.139 15.403,-14.111 3.45,-8.868 5.153,-26.297 5.153,-52.286 0,-23.332 -1.688,-39.38 -5.109,-48.176 -3.436,-8.854 -8.561,-13.64 -15.447,-14.242"
       id="path26"
       inkscape:connector-curvature="0"
       style="fill:#0c481e" />
  </g>
</svg>
