<?xml version="1.0" encoding="UTF-8" standalone="no"?>
<svg
   xmlns:dc="http://purl.org/dc/elements/1.1/"
   xmlns:cc="http://creativecommons.org/ns#"
   xmlns:rdf="http://www.w3.org/1999/02/22-rdf-syntax-ns#"
   xmlns:svg="http://www.w3.org/2000/svg"
   xmlns="http://www.w3.org/2000/svg"
   xmlns:xlink="http://www.w3.org/1999/xlink"
   xmlns:sodipodi="http://sodipodi.sourceforge.net/DTD/sodipodi-0.dtd"
   xmlns:inkscape="http://www.inkscape.org/namespaces/inkscape"
   width="128"
   height="128"
   viewBox="0 0 128 128"
   version="1.1"
   preserveAspectRatio="xMidYMid"
   id="svg2"
   inkscape:version="0.91 r13725"
   sodipodi:docname="rails.svg">
  <metadata
     id="metadata80">
    <rdf:RDF>
      <cc:Work
         rdf:about="">
        <dc:format>image/svg+xml</dc:format>
        <dc:type
           rdf:resource="http://purl.org/dc/dcmitype/StillImage" />
        <dc:title></dc:title>
      </cc:Work>
    </rdf:RDF>
  </metadata>
  <sodipodi:namedview
     pagecolor="#ffffff"
     bordercolor="#666666"
     borderopacity="1"
     objecttolerance="10"
     gridtolerance="10"
     guidetolerance="10"
     inkscape:pageopacity="0"
     inkscape:pageshadow="2"
     inkscape:window-width="1366"
     inkscape:window-height="706"
     id="namedview78"
     showgrid="false"
     inkscape:zoom="2.8606061"
     inkscape:cx="111.63958"
     inkscape:cy="59.639503"
     inkscape:window-x="-8"
     inkscape:window-y="-8"
     inkscape:window-maximized="1"
     inkscape:current-layer="svg2" />
  <defs
     id="defs4">
    <linearGradient
       x1="0.35204306"
       y1="0.65079361"
       x2="1.0115937"
       y2="0.49999997"
       id="linearGradient-1">
      <stop
         stop-color="#FFFFFF"
         offset="0%"
         id="stop7" />
      <stop
         stop-color="#C0815E"
         offset="100%"
         id="stop9" />
    </linearGradient>
    <radialGradient
       cx="130.11064"
       cy="126.24878"
       fx="130.11064"
       fy="126.24878"
       r="127.50768"
       id="radialGradient-2"
       gradientTransform="scale(0.79199076,1.262641)"
       gradientUnits="userSpaceOnUse">
      <stop
         stop-color="#FFFFFF"
         offset="0%"
         id="stop12" />
      <stop
         stop-color="#A94436"
         offset="100%"
         id="stop14" />
    </radialGradient>
    <linearGradient
       inkscape:collect="always"
       xlink:href="#linearGradient-1"
       id="linearGradient4208"
       x1="50.872627"
       y1="90.12793"
       x2="140.83141"
       y2="69.56057"
       gradientTransform="scale(0.66068749,1.5135749)"
       gradientUnits="userSpaceOnUse" />
    <linearGradient
       inkscape:collect="always"
       xlink:href="#linearGradient-1"
       id="linearGradient4210"
       x1="50.872627"
       y1="90.12793"
       x2="140.83141"
       y2="69.56057"
       gradientTransform="scale(0.66068749,1.5135749)"
       gradientUnits="userSpaceOnUse" />
  </defs>
  <g
     id="g16"
     transform="matrix(0.43342544,0,0,0.38839193,9.7046614,-0.2445417)">
    <path
       d="m 4.0960783,325.46281 c 0,0 0.4966445,-77.9836 0.4966445,-157.25902 0,-153.551155 -12.9384759,-164.9879762 55.9576102,-164.9879762 l 191.768407,0 0,221.4833462 c 0,72.9103 13.62892,101.47206 -62.99329,101.47206 -76.62221,0 -185.2293717,-0.70841 -185.2293717,-0.70841 l 0,0 z"
       id="path18"
       inkscape:connector-curvature="0"
       style="fill:#a62c39" />
    <g
       transform="translate(160.31794,2.266048)"
       id="g20"
       style="fill:url(#linearGradient4210)">
      <path
         d="m 1.886952,29.9172 c 0,0 12.288256,2.457647 22.938081,20.480412 10.649803,18.022766 67.175768,158.108838 67.175768,158.108838 l 0,-113.871129 L 39.570936,9.436787 54.316818,27.459553 82.170192,4.5214721 46.124661,2.0638251 1.886952,29.9172 Z"
         id="path22"
         inkscape:connector-curvature="0"
         style="fill:url(#linearGradient4208)" />
    </g>
    <g
       transform="translate(50.147107,4.260545)"
       id="g24">
      <path
         d="m 3.1019746,0.88854405 c 0,0 81.1024554,54.06831795 120.4248554,64.71812195 39.32239,10.649824 79.46402,22.15077 79.46402,22.15077 l -92.5715,229.348754 40.14163,1.63843 L 202.99085,190.14111 201.35242,0.06932837 3.1019746,0.88854405 Z"
         id="path26"
         inkscape:connector-curvature="0"
         style="opacity:0.66822426;fill:url(#radialGradient-2)" />
      <path
         d="m 78.4699,242.55748 82.41874,79.21979 -155.3290183,-1.39422 c 0,0 -4.91529406,-49.97222 -3.2768627,-76.18714 1.6384313,-26.21494 9.830609,-26.21494 9.830609,-26.21494 L 78.4699,242.55748 Z"
         id="path28"
         inkscape:connector-curvature="0"
         style="fill:#ffffff;fill-opacity:0.43961355" />
    </g>
    <g
       transform="translate(2.089463,4.260545)"
       id="g30">
      <path
         d="M 204.35314,322.02148 128.16597,243.3767 58.53256,217.16175 4.4642626,96.736903 61.809443,0.88854405 l -36.73589,-2e-8 -17.3324277,13.10747197 -5.7345097,11.46904 10e-8,296.556424 202.3465243,0 z"
         id="path32"
         inkscape:connector-curvature="0"
         style="fill:#000000;fill-opacity:0.36231887" />
      <path
         d="m 251.04849,196.68134 c 0,0 -77.00638,24.57649 -122.88252,47.51457 -45.876114,22.93806 -70.452626,78.64479 -70.452626,78.64479 0,0 98.306006,-4.91529 135.170756,-3.27686 36.86474,1.63843 54.06831,1.63843 57.34518,-49.97222 3.27686,-51.61065 0.81921,-72.91028 0.81921,-72.91028 l 0,0 z"
         id="path34"
         inkscape:connector-curvature="0"
         style="opacity:0.5;fill:#83222d" />
    </g>
    <g
       transform="translate(26.592321,248.82266)"
       id="g36"
       style="fill:#ffffff">
      <path
         d="m 1.2406185,1.0447314 0,48.3841226 12.3408895,0 0,-12.602073 11.230862,11.230863 18.935757,0 L 28.730113,33.03963 c 0,0 10.804341,-0.17447 11.622637,-15.801562 0,-14.3362848 -10.817504,-16.1933366 -23.310569,-16.1933366 l -15.8015625,0 0,0 z M 14.16917,14.16917 l 10.6432,0 0,8.619033 -10.6432,0 0,-8.619033 0,0 z"
         id="path38"
         inkscape:connector-curvature="0" />
      <path
         d="M 67.581062,1.2406185 C 60.824345,1.2025903 51.453021,1.8289694 51.453021,14.560944 l 0,33.627291 12.667368,0 0,-8.227259 12.275594,0 0,8.031372 12.732664,0 0,-35.259684 c 0,-11.0594222 -12.287107,-11.4920455 -18.870461,-11.4920455 -0.822914,0 -1.711876,0.00627 -2.677124,0 l 0,0 z m -3.264786,12.1450025 11.88382,0 0,13.255029 -11.88382,0 0,-13.255029 0,0 z"
         id="path40"
         inkscape:connector-curvature="0" />
      <rect
         x="101.81985"
         y="1.272253"
         width="13.107467"
         height="46.285744"
         id="rect42" />
      <path
         d="m 128.64923,1.8866386 0,46.2857374 31.53985,0 0,-12.288235 -18.63717,0 0,-34.2023115 -12.90268,0.2048091 z"
         id="path44"
         inkscape:connector-curvature="0" />
      <path
         d="m 201.96912,1.4770203 0,12.4930647 -21.09482,0 0,4.505697 9.01138,0 c 4.7105,0 14.54109,-0.204767 14.54109,14.541094 0,14.745903 -6.75854,15.565119 -20.48041,15.565119 l -16.58913,0 0,-11.264232 19.04677,0 c 5.73453,0 6.0508,-1.866746 6.0508,-3.493414 0,-1.626689 -2.93192,-2.383325 -8.89464,-2.383325 -5.96272,0 -17.02216,-2.929845 -17.02216,-14.398885 0,-11.4690194 5.73453,-15.7699069 17.20357,-15.7699069 11.46902,0 18.22755,0.2047673 18.22755,0.2047673 l 0,2.09e-5 z"
         id="path46"
         inkscape:connector-curvature="0" />
    </g>
    <g
       transform="translate(14.055544,16.892288)"
       id="g48"
       style="fill:#ffffff">
      <path
         d="m 25.266849,219.27591 108.955831,0 c 0,0 -24.16689,-54.88751 -18.02279,-105.26935 6.14413,-50.381813 45.87614,-73.319893 68.40461,-75.77754 22.52846,-2.457647 34.81671,11.46904 34.81671,11.46904 l 4.9153,-7.372941 c 0,0 -32.35907,-32.7686685 -73.3199,-29.082208 C 110.05579,16.929392 81.792794,43.96355 64.179646,76.732219 46.566478,109.50089 36.326271,132.43895 29.362928,166.84605 c -6.963344,34.4071 -4.096079,52.42986 -4.096079,52.42986 l 0,0 z"
         id="path50"
         inkscape:connector-curvature="0" />
      <path
         d="m 3.5576029,164.3884 21.2996491,1.63843 -3.686481,21.29963 -20.0708151,-2.45765 2.457647,-20.48041 z"
         id="path52"
         inkscape:connector-curvature="0" />
      <path
         d="m 37.145487,119.33148 5.734531,-15.97472 -18.841982,-7.372962 -6.144128,17.203552 19.251579,6.14413 z"
         id="path54"
         inkscape:connector-curvature="0" />
      <path
         d="M 63.770028,64.443963 74.829471,51.336491 60.493165,41.915501 49.024146,54.613354 63.770028,64.443963 Z"
         id="path56"
         inkscape:connector-curvature="0" />
      <path
         d="m 92.852236,13.652529 9.830584,11.878638 13.51707,-7.78256 L 106.3693,6.6891852 92.852236,13.652529 Z"
         id="path58"
         inkscape:connector-curvature="0" />
      <path
         d="M 140.7764,0.13545987 143.23405,12.014098 160.028,11.604479 158.38955,0.95467554 140.7764,0.13545987 Z"
         id="path60"
         inkscape:connector-curvature="0" />
      <path
         d="m 197.71197,12.833313 -0.40962,7.372941 11.46904,6.144128 2.45765,-3.686481 -13.51707,-9.830588 z"
         id="path62"
         inkscape:connector-curvature="0" />
      <path
         d="m 195.25432,44.373148 0,6.144128 11.05942,1.228834 0,-4.915315 -11.05942,-2.457647 z"
         id="path64"
         inkscape:connector-curvature="0" />
      <path
         d="m 160.028,49.69806 5.3249,9.830609 7.78256,-6.144128 -1.63844,-6.553746 -11.46902,2.867265 z"
         id="path66"
         inkscape:connector-curvature="0" />
      <path
         d="m 143.23405,62.395913 8.19218,12.288256 -4.91532,8.601775 -11.87863,-13.107471 8.60177,-7.78256 z"
         id="path68"
         inkscape:connector-curvature="0" />
      <path
         d="m 126.84972,96.393416 -5.32491,10.649804 13.92668,11.87866 3.27687,-13.51709 -11.87864,-9.011374 z"
         id="path70"
         inkscape:connector-curvature="0" />
      <path
         d="m 121.11521,133.66776 -0.81922,14.33631 17.20355,7.37294 -0.81921,-13.51707 -15.56512,-8.19218 z"
         id="path72"
         inkscape:connector-curvature="0" />
      <path
         d="m 126.0305,184.45919 4.09608,14.74591 21.70925,1.22883 -7.78256,-15.97474 -18.02277,0 z"
         id="path74"
         inkscape:connector-curvature="0" />
    </g>
    <path
       d="m 7.230209,325.48277 c 9.72e-4,-0.15263 9.72e-4,-0.15263 0.00558,-0.8958 0.00631,-1.02907 0.00631,-1.02907 0.015767,-2.61124 0.016978,-2.8595 0.035896,-6.17847 0.056269,-9.91946 0.058207,-10.68829 0.116414,-22.61529 0.1707401,-35.48145 0.1552186,-36.76075 0.2483501,-73.68312 0.2483501,-108.37103 0,-17.87383 -0.153445,-33.48251 -0.4826476,-55.32232 C 6.238396,46.150301 6.7221793,33.440826 12.292125,21.447836 17.887523,9.4000416 28.392761,6.350008 60.550333,6.350008 l 191.768407,0 -3.13419,-3.1341942 0,221.4833462 c 0,6.79732 0.0736,12.66225 0.25134,22.54127 0.68499,38.07631 -0.15792,48.90308 -6.30379,58.93788 -7.18826,11.73676 -22.66311,16.85872 -53.80665,16.85872 -17.58388,0 -38.26917,-0.0405 -61.423,-0.11566 -18.62434,-0.0604 -38.366429,-0.14163 -58.681238,-0.23851 -16.247348,-0.0775 -31.936337,-0.16049 -46.479341,-0.2435 -5.090014,-0.0291 -9.673186,-0.056 -13.6760658,-0.0802 -1.4009735,-0.008 -2.2198987,-0.0135 -3.6758901,-0.0225 -1.0556751,-0.007 -1.0556751,-0.007 -1.2739925,-0.008 l 3.1142864,3.15409 0,0 z m -6.28822194,3.09433 3.13424704,0.0198 c 0.2187296,10e-4 0.2187296,10e-4 1.2748412,0.008 1.4564408,0.009 2.2755308,0.014 3.6768166,0.0225 4.0035751,0.0242 8.5874571,0.0512 13.6781991,0.0803 14.544871,0.083 30.235798,0.16604 46.48523,0.24353 20.317806,0.0969 40.063019,0.17811 58.690799,0.23855 23.16008,0.0751 43.85185,0.11569 61.44333,0.11569 33.10772,0 50.5233,-5.76431 59.15215,-19.85322 7.06955,-11.54295 7.93844,-22.70351 7.22567,-62.32452 -0.1771,-9.84401 -0.25034,-15.67833 -0.25034,-22.42852 l 0,-221.4833462 0,-3.13419416 -3.13419,0 -191.768407,0 C 26.068886,0.08161964 13.626062,3.6942018 6.6069609,18.807456 3.0984252,26.361899 1.4030185,36.820847 0.78795599,52.979161 0.31392548,65.432422 0.3633942,72.295405 0.97659293,112.97595 c 0.32876857,21.81101 0.48193567,37.39142 0.48193567,55.22784 0,34.67808 -0.09311,71.59199 -0.2482943,108.34456 -0.054315,12.8635 -0.1125092,24.78796 -0.170703,35.47378 -0.020367,3.73994 -0.039279,7.05789 -0.0562517,9.91638 -0.009455,1.58146 -0.009455,1.58146 -0.0157584,2.60985 -0.004605,0.7425 -0.0255341,4.02874 -0.0255341,4.02874 z"
       id="path76"
       inkscape:connector-curvature="0"
       style="fill:#5e000e" />
  </g>
</svg>
