<?xml version="1.0" encoding="UTF-8" standalone="no"?>
<svg
   xmlns:dc="http://purl.org/dc/elements/1.1/"
   xmlns:cc="http://creativecommons.org/ns#"
   xmlns:rdf="http://www.w3.org/1999/02/22-rdf-syntax-ns#"
   xmlns:svg="http://www.w3.org/2000/svg"
   xmlns="http://www.w3.org/2000/svg"
   xmlns:sodipodi="http://sodipodi.sourceforge.net/DTD/sodipodi-0.dtd"
   xmlns:inkscape="http://www.inkscape.org/namespaces/inkscape"
   width="128"
   height="128"
   viewBox="0 0 128 128"
   version="1.1"
   preserveAspectRatio="xMidYMid"
   id="svg2"
   inkscape:version="0.91 r13725"
   sodipodi:docname="raml.svg">
  <metadata
     id="metadata12">
    <rdf:RDF>
      <cc:Work
         rdf:about="">
        <dc:format>image/svg+xml</dc:format>
        <dc:type
           rdf:resource="http://purl.org/dc/dcmitype/StillImage" />
        <dc:title></dc:title>
      </cc:Work>
    </rdf:RDF>
  </metadata>
  <defs
     id="defs10" />
  <sodipodi:namedview
     pagecolor="#ffffff"
     bordercolor="#666666"
     borderopacity="1"
     objecttolerance="10"
     gridtolerance="10"
     guidetolerance="10"
     inkscape:pageopacity="0"
     inkscape:pageshadow="2"
     inkscape:window-width="1366"
     inkscape:window-height="706"
     id="namedview8"
     showgrid="false"
     inkscape:zoom="3.8559417"
     inkscape:cx="99.244384"
     inkscape:cy="38.615554"
     inkscape:window-x="-8"
     inkscape:window-y="-8"
     inkscape:window-maximized="1"
     inkscape:current-layer="svg2" />
  <g
     id="g4"
     transform="matrix(0.2477641,0,0,0.2853848,0.73352435,39.949175)">
    <path
       d="m 78.220471,2.3303813 -78.220471,0 7.7994892,12.5192447 69.9790988,0 c 8.546934,0 16.59449,3.429577 22.660292,9.656974 6.04147,6.20259 9.3688,14.382293 9.3688,23.032164 0,8.499639 -3.18336,16.153766 -9.20512,22.134487 -5.734972,5.696025 -13.727814,9.441133 -22.519106,10.554651 l -8.564786,0 -23.621032,-0.188716 6.817888,11.806343 10.35527,0 0.561743,0.901617 0.0823,0 30.638069,51.727434 0.196598,0.1966 c 1.329127,1.32773 2.994186,1.9734 5.090928,1.9734 3.587928,0 6.618978,-3.13259 6.618978,-6.84015 0,-1.47077 -0.47968,-2.13684 -1.0595,-2.79712 -0.23578,-0.26847 -0.52906,-0.60255 -0.97233,-1.35741 L 79.017529,92.740423 c 11.72149,-0.203322 22.682551,-4.874159 30.939921,-13.204789 8.44006,-8.514709 13.08818,-19.878474 13.08818,-31.99687 0,-24.928134 -20.10846,-45.2083827 -44.825159,-45.2083827 z M 183.50407,3.6027075 C 182.50183,1.6636156 180.32928,0.462 177.81315,0.462 c -2.2799,0 -4.5482,1.2289725 -5.64433,3.0581732 l -0.68183,1.1837641 c -0.89583,1.5554002 -0.39459,3.8125736 0.49937,5.3591637 l 10.71022,18.530568 40.9982,71.245397 -1.78468,0 0.0552,0.09691 -52.75238,0 7.62491,13.318854 54.57464,0 16.48714,28.53553 0.0394,0.0656 c 1.01777,1.62704 2.72177,4.34974 6.28512,4.34974 3.65145,0 6.62129,-2.97007 6.62129,-6.62059 0,-1.25517 -0.3153,-2.3265 -0.98995,-3.36374 L 183.50407,3.6027075 Z m 320.8476,129.3634425 -70.38598,0 0,-125.8865702 c 0,-3.648896 -2.96752,-6.6175798 -6.61897,-6.6175798 -3.64912,0 -6.61897,2.9686838 -6.61897,6.6175798 l 0,132.5055402 c 0,3.65052 2.96985,6.62059 6.61897,6.62059 l 84.65328,0 -7.64833,-13.23956 z M 366.19949,6.9179888 C 366.11371,3.3437446 363.18096,0.462 359.58515,0.462 c -0.16692,0 -0.33152,0.008114 -0.49149,0.0208654 C 358.92905,0.47034616 358.76445,0.462 358.59753,0.462 c -2.51776,0 -4.6924,1.203934 -5.69394,3.1467353 L 309.19983,80.424964 265.49376,3.6085034 C 264.49454,1.6657022 262.3199,0.462 259.79982,0.462 c -2.27896,0 -4.54634,1.2289725 -5.64293,3.0581732 l -0.6816,1.1839959 c -0.89258,1.5502998 -0.4034,3.806314 0.4799,5.3542949 l 48.73232,85.501571 0.0464,0.07697 c 1.01545,1.627038 2.71946,4.349742 6.28281,4.349742 0.0626,0 0.12288,-0.0028 0.18315,-0.0046 0.0603,0.0019 0.12056,0.0046 0.18316,0.0046 3.56334,0 5.26503,-2.722704 6.2828,-4.349742 l 37.30039,-65.439945 0,109.38806 c 0,3.65052 2.96985,6.62059 6.61897,6.62059 3.64913,0 6.61898,-2.97007 6.61898,-6.62059 l 0,-132.5055402 c 0,-0.034776 -0.002,-0.06932 -0.002,-0.1040952 l 0.0162,-0.027589 -0.0185,-0.029907 z"
       id="path6"
       inkscape:connector-curvature="0"
       style="fill:#75c9e1" />
  </g>
</svg>
