<?xml version="1.0" encoding="UTF-8" standalone="no"?>
<!-- Created with Inkscape (http://www.inkscape.org/) -->

<svg
   xmlns:dc="http://purl.org/dc/elements/1.1/"
   xmlns:cc="http://creativecommons.org/ns#"
   xmlns:rdf="http://www.w3.org/1999/02/22-rdf-syntax-ns#"
   xmlns:svg="http://www.w3.org/2000/svg"
   xmlns="http://www.w3.org/2000/svg"
   xmlns:sodipodi="http://sodipodi.sourceforge.net/DTD/sodipodi-0.dtd"
   xmlns:inkscape="http://www.inkscape.org/namespaces/inkscape"
   width="128"
   height="128"
   viewBox="0 0 128 128"
   id="svg2"
   version="1.1"
   inkscape:version="0.91 r13725"
   sodipodi:docname="scipyshiny.svg">
  <defs
     id="defs4" />
  <sodipodi:namedview
     id="base"
     pagecolor="#ffffff"
     bordercolor="#666666"
     borderopacity="1.0"
     inkscape:pageopacity="0.0"
     inkscape:pageshadow="2"
     inkscape:zoom="1.4"
     inkscape:cx="205.96521"
     inkscape:cy="151.5798"
     inkscape:document-units="px"
     inkscape:current-layer="g4147"
     showgrid="false"
     units="px"
     inkscape:window-width="1366"
     inkscape:window-height="706"
     inkscape:window-x="-8"
     inkscape:window-y="-8"
     inkscape:window-maximized="1" />
  <metadata
     id="metadata7">
    <rdf:RDF>
      <cc:Work
         rdf:about="">
        <dc:format>image/svg+xml</dc:format>
        <dc:type
           rdf:resource="http://purl.org/dc/dcmitype/StillImage" />
        <dc:title></dc:title>
      </cc:Work>
    </rdf:RDF>
  </metadata>
  <g
     inkscape:label="Capa 1"
     inkscape:groupmode="layer"
     id="layer1"
     transform="translate(0,-924.3622)">
    <g
       id="g4147"
       transform="matrix(0.60401565,0,0,0.63727912,397.11145,741.19866)">
      <path
         style="fill:#dae3ec"
         d="m -578.85985,487.20022 c -36.54711,-8.98266 -65.24613,-36.66224 -74.90881,-72.24789 -3.83813,-14.13502 -3.81903,-38.43006 0.0409,-52.05441 8.34093,-29.44079 26.93172,-52.10467 53.34878,-65.03701 16.84401,-8.2459 30.07405,-10.99016 49.375,-10.24167 17.50069,0.67868 26.27506,2.6809 39.88906,9.10227 18.59376,8.77021 34.62998,23.15413 44.35714,39.78683 2.65832,4.54552 5.036,8.26458 5.28371,8.26458 0.24773,0 1.44364,-2.10938 2.65759,-4.6875 1.68206,-3.57228 2.94831,-4.6875 5.32234,-4.6875 2.77613,0 3.10078,0.49725 2.98308,4.56906 -0.10562,3.65546 0.45672,4.83733 2.8125,5.9107 2.00903,0.91537 2.94458,2.3888 2.94458,4.63747 0,3.27574 -0.043,3.29046 -7.05173,2.41477 -6.52322,-0.81502 -6.98241,-0.70871 -6.12692,1.41847 2.22947,5.54357 5.64721,25.50675 5.66222,33.07329 0.0954,48.04451 -31.66645,88.80208 -77.82621,99.86859 -13.69085,3.2823 -35.20407,3.24257 -48.76324,-0.09 z m 41.93887,-35.64618 c 13.37544,-4.55747 22.48543,-17.75936 22.40061,-32.46221 -0.0501,-8.68364 -2.00766,-14.2998 -7.082,-20.31786 -4.85144,-5.75371 -12.77742,-9.40111 -28.7766,-13.24248 -21.64629,-5.19724 -27.42154,-8.28351 -31.82764,-17.00857 -7.12162,-14.10237 -1.22028,-31.17971 13.00788,-37.64234 9.54465,-4.33531 23.32665,-2.4078 30.49183,4.2645 1.62592,1.51406 7.36127,8.44779 12.74523,15.40828 15.49681,20.03455 20.02247,22.47398 33.34529,17.97376 7.00429,-2.36592 8.60532,-2.52906 11.19882,-1.14105 2.83036,1.51476 3.44179,1.20389 9.45087,-4.80519 5.94981,-5.94981 6.31722,-6.66064 4.97052,-9.61634 -1.58089,-3.46966 -3.86634,-3.84851 -14.45834,-2.39672 -5.02136,0.68826 -5.79946,1.18752 -5.79946,3.72119 0,3.77987 -4.72635,6.86927 -11.71396,7.65687 -6.88129,0.77562 -9.48564,-1.45293 -23.61773,-20.2098 -13.52786,-17.9549 -19.02469,-21.33816 -34.66831,-21.33816 -9.43101,0 -11.37408,0.41494 -17.2909,3.69244 -11.2547,6.23431 -17.63026,16.11393 -18.65755,28.91192 -1.09481,13.63898 5.23257,26.31149 15.8301,31.7046 2.47134,1.25768 10.68085,3.83213 18.24335,5.72102 17.93419,4.47942 22.68353,6.21157 27.86272,10.16193 16.8368,12.84206 7.95287,41.84045 -13.44822,43.89683 -13.84992,1.3308 -18.52063,-1.627 -33.22006,-21.0371 -10.10044,-13.33729 -13.59606,-15.61509 -22.43479,-14.61884 -4.63706,0.52266 -8.3103,2.67315 -21.85428,12.79451 -8.95421,6.69143 -16.28037,12.42405 -16.28037,12.73914 0,1.65188 2.77662,5.40855 3.99755,5.40855 0.77528,0 7.89409,-4.87064 15.81959,-10.82363 7.92549,-5.95299 15.93336,-11.39863 17.79526,-12.10142 4.89563,-1.8479 8.14831,0.749 19.17448,15.3087 5.15987,6.81342 11.06322,13.58549 13.11855,15.04901 8.77338,6.2472 21.12782,7.94313 31.67756,4.34846 z"
         id="path4191"
         inkscape:connector-curvature="0" />
      <path
         style="fill:#cddae6"
         d="m -567.17825,488.47476 c -32.58564,-4.46189 -60.41899,-23.11504 -76.69567,-51.39934 -14.08421,-24.47443 -15.96877,-59.80582 -4.65363,-87.24532 5.19131,-12.58907 13.49719,-24.56444 23.7375,-34.22463 35.29782,-33.29818 88.02738,-37.21792 128.78608,-9.57353 9.29809,6.30638 23.40826,21.48724 28.75,30.93154 2.40625,4.2543 5.00989,7.75182 5.78585,7.77227 0.77596,0.0204 2.10211,-1.63168 2.94699,-3.67139 0.84487,-2.0397 2.31936,-4.35858 3.27665,-5.15305 2.70777,-2.24726 5.5456,0.77368 4.69974,5.00301 -0.54436,2.72171 -0.0211,3.85816 2.55304,5.54479 6.30767,4.13295 3.03513,7.91854 -4.7736,5.52197 -2.4676,-0.75733 -4.88087,-0.98262 -5.36285,-0.50065 -0.48196,0.48196 0.16378,4.65432 1.43499,9.2719 1.34498,4.8855 2.55667,14.46456 2.89819,22.91163 1.29181,31.95078 -8.91934,57.16198 -31.88361,78.7202 -21.10932,19.81682 -52.92772,30.00288 -81.49967,26.0906 z m 34.57959,-38.20223 c 19.20591,-9.27012 25.15158,-34.28115 12.1893,-51.27556 -4.51483,-5.91925 -15.12692,-10.80007 -32.25874,-14.83677 -7.44653,-1.75459 -15.67264,-4.2786 -18.28026,-5.60891 -20.20816,-10.30943 -17.21581,-40.3348 4.79371,-48.10021 6.88415,-2.42887 10.91425,-2.42991 17.7883,-0.005 6.86842,2.42332 10.20886,5.60505 22.52434,21.45425 5.4502,7.01405 11.60723,13.96173 13.68229,15.4393 5.45704,3.88576 12.53088,4.47131 20.65521,1.70976 5.54718,-1.88555 7.29762,-2.03658 9.27695,-0.80047 3.35895,2.0977 3.09812,2.20884 10.02714,-4.27245 6.35635,-5.94563 7.56601,-9.41538 4.63395,-13.29196 -1.31484,-1.73839 -2.94944,-1.92486 -10.3125,-1.17642 -7.66135,0.77877 -8.79756,1.22311 -9.13234,3.5714 -0.47332,3.32027 -3.39767,5.93036 -8.59493,7.67129 -8.20048,2.74692 -11.44743,0.37939 -25.50859,-18.59979 -13.43805,-18.13809 -21.36669,-23.07793 -36.76414,-22.90541 -14.70092,0.16471 -26.72208,7.87822 -33.04659,21.2047 -6.15884,12.97741 -2.85245,31.93262 7.0933,40.66509 5.35509,4.70184 7.0478,5.3681 26.57829,10.4614 26.14685,6.81877 32.60423,11.87779 33.52009,26.26133 0.58741,9.22509 -2.3624,16.26914 -8.82105,21.06439 -8.83699,6.56106 -17.32347,7.43214 -26.73169,2.74383 -5.09772,-2.5403 -8.20652,-5.68449 -16.58719,-16.77599 -8.26308,-10.93588 -11.33148,-14.05702 -15.43278,-15.69803 -8.68379,-3.47456 -12.85462,-1.88171 -31.64368,12.08484 -9.24204,6.86991 -16.8037,12.7411 -16.8037,13.04706 0,1.25169 4.11143,6.71834 5.05282,6.71834 0.55841,0 8.20167,-5.34375 16.98501,-11.875 16.14059,-12.00206 20.19927,-13.71575 24.42402,-10.3125 1.06682,0.85937 6.21015,7.26576 11.42964,14.23641 5.27917,7.05038 11.56874,13.95868 14.17494,15.5694 10.88882,6.72967 23.32792,7.30797 35.08888,1.6313 z"
         id="path4189"
         inkscape:connector-curvature="0" />
      <path
         style="fill:#ced1d4"
         d="m -567.17825,488.47476 c -54.07675,-7.40461 -91.66563,-52.42193 -88.45588,-105.93679 0.87305,-14.55601 3.22851,-24.00096 9.07875,-36.40411 13.47085,-28.55963 37.90523,-48.40674 68.831,-55.90876 10.53125,-2.55469 33.12725,-2.85205 43.59541,-0.57371 27.48109,5.9811 53.11681,24.0679 66.4663,46.89404 2.63104,4.49878 5.47928,8.19038 6.32943,8.20355 0.85014,0.0132 2.36832,-1.94481 3.37371,-4.35106 1.28936,-3.08588 2.62372,-4.375 4.52853,-4.375 2.36413,0 2.63515,0.56007 2.17567,4.496 -0.43758,3.74811 -0.0646,4.67097 2.24181,5.5479 3.83134,1.45666 4.88186,3.61951 2.77929,5.72207 -1.41855,1.41855 -2.58378,1.4945 -5.78855,0.37732 -7.04461,-2.45577 -7.77478,-1.22176 -5.00018,8.45053 3.23814,11.2882 4.35346,32.95592 2.29428,44.57117 -2.07553,11.70742 -7.2772,26.30751 -12.6182,35.41686 -2.35186,4.01124 -9.62121,12.655 -16.1541,19.20838 -10.05311,10.08463 -13.7024,12.82482 -23.75299,17.83573 -19.03944,9.4925 -40.86542,13.43556 -59.92428,10.82588 z m 31.48039,-36.18989 c 7.87098,-2.9449 15.95203,-10.68046 19.59991,-18.76195 5.06851,-11.22865 2.64548,-27.79472 -5.27168,-36.04238 -5.76314,-6.0037 -11.57668,-8.60668 -29.72826,-13.31067 -8.84299,-2.29166 -18.47925,-5.49117 -21.41391,-7.11002 -11.38846,-6.28224 -15.46569,-23.529 -8.169,-34.55504 5.23739,-7.91423 12.14126,-11.90655 21.63527,-12.51108 11.92115,-0.75908 17.51645,2.43198 27.89156,15.90686 19.94348,25.902 25.90379,29.07248 42.26866,22.48404 3.30854,-1.33201 4.55138,-1.30936 7.24463,0.13202 3.13077,1.67554 3.50752,1.48329 10.19187,-5.20107 l 6.94093,-6.94092 -2.09093,-4.04341 -2.09092,-4.0434 -8.96961,0.88436 c -10.64626,1.04967 -10.84463,1.14145 -10.84463,5.01738 0,5.35877 -11.29385,8.90476 -17.60452,5.52739 -1.34209,-0.71827 -7.19849,-7.73666 -13.01421,-15.59643 -11.67543,-15.779 -17.69084,-20.92299 -27.95779,-23.90767 -27.14395,-7.89096 -53.07078,16.85097 -46.47388,44.34993 3.77166,15.72206 10.99645,21.14935 36.89245,27.71374 8.23188,2.08671 17.40961,4.97643 20.39498,6.42162 9.89593,4.79054 15.03485,17.27835 11.50797,27.96491 -3.95735,11.99088 -17.55325,19.87347 -28.97368,16.79827 -7.92818,-2.13484 -11.35645,-5.101 -21.73444,-18.80478 -11.36016,-15.00071 -13.78144,-16.75865 -23.08244,-16.75865 -6.97409,0 -7.16763,0.103 -24.11748,12.82907 -9.39783,7.05599 -17.08696,13.12265 -17.08696,13.48148 0,1.50895 4.14109,6.81445 5.31887,6.81445 0.70474,0 7.24942,-4.42311 14.54374,-9.82915 18.33823,-13.59099 19.60793,-14.32475 23.21916,-13.4184 2.00193,0.50246 6.41086,5.14996 12.44725,13.12081 5.141,6.78852 11.48448,14.11277 14.09663,16.27609 9.02767,7.47655 22.68999,9.50527 34.43046,5.1126 z"
         id="path4187"
         inkscape:connector-curvature="0" />
      <path
         style="fill:#b4c7d9"
         d="m -569.99988,487.17376 c -29.51314,-4.32818 -57.29985,-23.28233 -72.12994,-49.20197 -26.59355,-46.47953 -12.78993,-104.04288 31.95361,-133.25177 18.72646,-12.22476 37.0559,-16.97729 61.22965,-15.87585 34.44734,1.56954 63.03562,18.52541 81.21043,48.16638 2.82857,4.61306 5.64107,8.33622 6.25,8.27371 0.60894,-0.0625 2.23216,-2.18182 3.60716,-4.70958 3.12371,-5.74253 6.25,-5.5691 6.25,0.34672 0,3.16601 0.70052,4.52965 2.8125,5.47485 1.54687,0.69229 2.8125,2.35053 2.8125,3.68498 0,2.18569 -0.6064,2.34288 -6.11519,1.58523 -3.36336,-0.46258 -6.41525,-0.35556 -6.78198,0.23783 -0.36674,0.59339 0.49794,4.9972 1.92152,9.78626 2.05685,6.91949 2.59024,12.1723 2.59771,25.58237 0.0112,20.43734 -2.39287,30.68929 -11.21986,47.84207 -4.74992,9.23017 -8.19044,13.80445 -17.23107,22.90942 -12.69175,12.78203 -23.72869,19.91567 -38.35052,24.78753 -16.00941,5.3342 -32.27554,6.7876 -48.81652,4.36182 z m 34.30202,-34.88889 c 7.87098,-2.9449 15.95203,-10.68046 19.59991,-18.76195 5.06851,-11.22865 2.64548,-27.79472 -5.27168,-36.04238 -5.74655,-5.98641 -11.57385,-8.60587 -29.45471,-13.24033 -18.62585,-4.82755 -25.63033,-8.1083 -28.99398,-13.58021 -11.43782,-18.6068 0.85799,-40.88708 22.56435,-40.88708 10.61503,0 16.42605,3.57522 26.1,16.05798 20.0892,25.92209 25.56303,29.06009 40.64453,23.30041 4.9703,-1.89817 6.30349,-1.98755 8.90216,-0.59678 2.83678,1.5182 3.49811,1.23974 9.20408,-3.87544 7.50368,-6.72677 8.50247,-9.02279 5.75142,-13.22142 -2.0384,-3.11099 -2.38766,-3.18501 -11.01638,-2.33476 -10.56554,1.0411 -10.83581,1.17037 -10.83581,5.18257 0,5.13695 -11.51601,8.68997 -17.60452,5.4315 -1.34209,-0.71827 -7.12506,-7.63742 -12.85103,-15.3759 -5.72597,-7.73848 -12.57504,-15.85386 -15.22015,-18.03418 -17.5072,-14.43092 -45.74386,-8.18751 -56.29034,12.44636 -5.95402,11.64887 -5.19079,26.40819 1.9477,37.66442 4.49983,7.09551 11.9822,10.81994 31.86039,15.85887 8.23188,2.08671 17.40961,4.97643 20.39498,6.42162 9.89593,4.79054 15.03485,17.27835 11.50797,27.96491 -3.95735,11.99088 -17.55325,19.87347 -28.97368,16.79827 -7.92818,-2.13484 -11.35645,-5.101 -21.73444,-18.80478 -11.36016,-15.00071 -13.78144,-16.75865 -23.08244,-16.75865 -6.97409,0 -7.16763,0.103 -24.11748,12.82907 -9.39783,7.05599 -17.08696,13.42109 -17.08696,14.14468 0,2.6238 2.63449,6.15125 4.59409,6.15125 1.10337,0 7.9742,-4.42311 15.26852,-9.82915 18.33823,-13.59099 19.60793,-14.32475 23.21916,-13.4184 2.00193,0.50246 6.41086,5.14996 12.44725,13.12081 5.141,6.78852 11.48448,14.11277 14.09663,16.27609 9.02767,7.47655 22.68999,9.50527 34.43046,5.1126 z"
         id="path4185"
         inkscape:connector-curvature="0" />
      <path
         style="fill:#9bb5cc"
         d="m -567.87897,487.21431 c -18.88091,-2.91874 -38.04209,-11.3757 -51.90894,-22.91046 -9.22162,-7.67077 -13.8657,-13.14458 -20.87635,-24.60628 -10.36863,-16.95164 -14.44067,-32.06758 -14.29091,-53.04965 0.19499,-27.31937 10.94477,-51.73176 31.18896,-70.8291 39.60403,-37.36044 101.74514,-36.2944 140.67839,2.41337 4.99439,4.96545 11.58452,13.23361 14.64477,18.37368 3.06024,5.14006 6.26278,9.36165 7.11674,9.38131 0.85396,0.0197 2.54589,-2.07364 3.75984,-4.65176 2.9282,-6.21878 6.06147,-6.30559 5.59023,-0.15488 -0.28048,3.66057 0.13917,4.65982 2.18118,5.19382 2.56989,0.67204 4.70335,4.15296 3.3654,5.49091 -0.40399,0.404 -2.95011,0.17216 -5.65805,-0.51519 -7.84682,-1.99174 -8.30286,-0.93946 -5.06925,11.69691 3.28929,12.8539 3.8356,32.64419 1.23811,44.85093 -8.09611,38.04739 -35.90771,67.33547 -72.93216,76.80409 -11.71486,2.99595 -28.78933,4.09506 -39.02796,2.5123 z m 32.13159,-34.38424 c 16.93985,-5.77198 27.20099,-26.27736 21.67094,-43.30617 -4.60213,-14.17144 -13.15996,-20.30661 -35.61248,-25.53085 -22.15422,-5.15483 -27.74214,-8.35531 -31.88039,-18.25954 -2.23984,-5.3607 -2.51953,-14.24653 -0.60799,-19.31672 4.77459,-12.66419 22.01682,-19.98015 34.65098,-14.70256 6.19054,2.58593 10.0802,6.4166 20.87535,20.55869 10.5227,13.78518 12.25763,15.48368 18.4651,18.07733 6.15944,2.57357 9.92869,2.42373 17.1474,-0.68167 5.65595,-2.43313 6.25711,-2.47124 9.14394,-0.57971 3.02301,1.98075 3.24225,1.88547 10.11527,-4.39609 7.41463,-6.77655 7.89453,-7.89446 5.57464,-12.98604 -1.32479,-2.90762 -2.11098,-3.18234 -9.0625,-3.16675 -10.6229,0.0238 -13.23685,0.9075 -13.23685,4.4749 0,3.50547 -4.18988,6.58089 -10.32119,7.57587 -5.66999,0.92011 -9.0872,-2.13991 -22.54994,-20.19284 -9.34751,-12.53461 -11.00658,-14.13184 -18.76952,-18.06985 -7.20115,-3.65303 -9.80602,-4.31827 -16.875,-4.3096 -9.16746,0.0113 -18.83247,3.58244 -25.91691,9.57625 -13.66944,11.56507 -15.76647,37.26834 -4.18672,51.31658 5.15223,6.25054 10.08004,8.54208 28.61928,13.30854 19.26839,4.95393 24.76477,7.30209 29.07091,12.41965 12.77991,15.18807 1.1582,38.88343 -19.07091,38.88343 -9.72159,0 -14.92999,-3.69391 -26.15489,-18.54965 -5.59046,-7.39878 -11.78253,-14.40811 -13.76016,-15.57633 -4.10445,-2.42456 -13.91417,-2.81381 -17.97963,-0.71343 -4.3958,2.27105 -34.60532,25.01646 -34.60532,26.05511 0,2.10251 5.40845,7.64504 6.90114,7.07224 0.88009,-0.33773 8.44023,-5.71567 16.80033,-11.95099 15.93266,-11.88328 20.20743,-13.49949 24.45929,-9.24761 1.14913,1.14912 5.68022,6.98167 10.06909,12.96122 8.55635,11.65748 14.01717,16.56904 21.46202,19.30331 6.36171,2.33647 18.63629,2.31403 25.56472,-0.0468 z"
         id="path4183"
         inkscape:connector-curvature="0" />
      <path
         style="fill:#99a2aa"
         d="m -566.40568,487.23202 c -42.54907,-5.08884 -77.71379,-37.06787 -86.45516,-78.62294 -3.9996,-19.01342 -1.53836,-43.26119 6.15752,-60.66294 16.6545,-37.65877 55.96145,-61.42628 97.57435,-58.99972 25.98584,1.5153 46.8158,10.78826 65.03411,28.9515 6.83813,6.81746 13.18247,14.5744 16.10225,19.6875 2.64999,4.64062 5.58334,8.4375 6.51855,8.4375 0.93523,0 2.69364,-2.10938 3.90759,-4.6875 2.91358,-6.18774 6.06061,-6.30759 5.59749,-0.21318 -0.28398,3.73704 0.17947,4.71101 2.8125,5.9107 6.22832,2.83781 2.94525,6.19053 -3.862,3.94393 -7.03773,-2.32265 -7.57261,-0.68299 -4.26148,13.06319 2.47524,10.27588 2.7733,14.03813 2.20798,27.86874 -0.7443,18.20898 -3.20091,27.7431 -11.04464,42.86412 -18.99124,36.61108 -58.7797,57.42358 -100.28906,52.4591 z m 33.293,-34.84596 c 27.44895,-13.28781 27.93252,-51.76203 0.80119,-63.74481 -3.12538,-1.38036 -11.84413,-3.97188 -19.375,-5.75894 -19.53862,-4.63648 -24.1318,-7.15474 -28.47074,-15.60939 -2.8911,-5.63345 -3.43655,-8.06398 -3.02039,-13.4589 0.99128,-12.85049 12.12886,-22.7911 25.5354,-22.7911 12.17744,0 17.03903,3.60399 32.83284,24.33969 12.47441,16.37764 20.26062,19.76121 34.07801,14.80891 5.04244,-1.80727 6.35132,-1.87093 9.02679,-0.43907 2.9307,1.56847 3.50808,1.32962 9.1024,-3.76544 3.28527,-2.99207 6.38647,-6.03165 6.89157,-6.75461 1.71215,-2.45066 0.96751,-6.9286 -1.57493,-9.47106 -2.23385,-2.23384 -3.52018,-2.43462 -10.9375,-1.70718 -9.42687,0.92453 -11.55286,2.00989 -10.65585,5.44003 1.31298,5.02091 -12.34427,8.38218 -17.99014,4.42766 -1.46923,-1.02908 -5.90264,-6.48251 -9.85204,-12.11871 -9.84936,-14.0561 -16.18899,-20.64663 -23.60771,-24.54205 -5.37799,-2.82387 -7.85544,-3.3081 -16.92519,-3.3081 -9.08737,0 -11.52949,0.47931 -16.875,3.31197 -7.56694,4.00983 -14.38558,10.95752 -18.17025,18.51414 -3.66414,7.31598 -3.9939,23.09164 -0.64044,30.63882 5.73029,12.89637 10.96095,16.25874 35.06069,22.53768 21.31045,5.55221 26.9011,8.51976 30.6534,16.27098 7.66134,15.82623 -3.60934,33.64968 -21.2784,33.64968 -9.68285,0 -14.02996,-2.98014 -24.63747,-16.89005 -4.95687,-6.50005 -10.69762,-13.33502 -12.75723,-15.18878 -4.58616,-4.12781 -11.30496,-5.53982 -17.5117,-3.68024 -5.06849,1.51857 -36.02833,24.14967 -37.19443,27.18849 -0.73215,1.90794 4.04188,7.98724 6.2723,7.98724 0.67962,0 7.48066,-4.69072 15.11341,-10.42384 16.64085,-12.49927 18.84753,-13.75218 22.57378,-12.81696 1.7194,0.43155 6.25074,5.25454 11.26877,11.99406 10.20133,13.70103 17.34516,20.18354 25.26162,22.92313 7.80489,2.70096 19.60471,2.01784 27.00224,-1.56325 z"
         id="path4181"
         inkscape:connector-curvature="0" />
      <path
         style="fill:#6c9bc6"
         d="m -567.17825,485.97476 c -23.84509,-3.26507 -44.45958,-13.99583 -61.13791,-31.82502 -4.30041,-4.59715 -7.6488,-8.8001 -7.44087,-9.33988 0.45588,-1.18345 29.47373,-22.8805 33.43824,-25.00225 4.96745,-2.6585 8.20706,-0.51334 16.94225,11.21857 4.61613,6.19976 10.85049,13.43548 13.85413,16.07939 13.90122,12.23635 34.90144,11.39201 48.64528,-1.95584 17.66577,-17.15677 12.73017,-46.71934 -9.43436,-56.50848 -3.12538,-1.38036 -11.84413,-3.97188 -19.375,-5.75894 -19.51444,-4.63074 -24.14729,-7.16445 -28.37998,-15.52103 -3.72865,-7.36145 -4.24931,-12.3491 -1.97971,-18.96433 4.02529,-11.73255 13.72069,-17.97228 26.64672,-17.14921 10.53671,0.67092 14.12725,3.33625 27.61082,20.49606 5.90089,7.50977 13.01985,15.20099 15.81988,17.09162 5.9792,4.03723 13.19448,4.52572 20.95905,1.41895 4.21448,-1.6863 5.66693,-1.76088 8.82423,-0.45308 4.11973,1.70645 4.96981,1.21447 14.61901,-8.46072 4.47135,-4.4834 4.73876,-5.44721 2.62538,-9.46233 -2.27218,-4.31677 -3.64132,-4.72709 -12.93788,-3.87743 -9.34771,0.85435 -11.875,2.02959 -11.875,5.52211 0,4.86403 -10.06035,7.97811 -15.81849,4.89645 -1.74997,-0.93656 -7.9192,-8.29824 -13.70938,-16.35928 -5.79019,-8.06104 -12.17789,-15.83154 -14.19489,-17.26777 -12.18888,-8.67925 -26.56885,-10.47457 -38.77724,-4.8413 -9.60826,4.43351 -13.9266,8.46831 -18.80483,17.57017 -3.69674,6.89743 -4.22774,9.04231 -4.27089,17.25173 -0.0755,14.36476 4.97977,24.8555 14.7199,30.54679 2.87695,1.68105 13.10582,5.10819 22.73082,7.61589 21.31045,5.55221 26.9011,8.51976 30.6534,16.27098 7.66134,15.82623 -3.60934,33.64968 -21.2784,33.64968 -9.68285,0 -14.02996,-2.98014 -24.63747,-16.89005 -11.06392,-14.50839 -15.19006,-18.31315 -21.05283,-19.41301 -7.38119,-1.38472 -12.87605,1.21551 -30.52892,14.44664 -9.1895,6.88769 -17.1945,12.52308 -17.7889,12.52308 -1.46725,0 -5.61576,-9.92436 -8.50148,-20.33783 -6.80627,-24.56126 -2.94,-53.41548 10.10549,-75.41801 9.11903,-15.38015 27.00479,-31.34426 44.05707,-39.32355 19.01823,-8.89922 46.01492,-11.39303 66.58459,-6.15074 26.61662,6.7834 52.23011,26.23451 63.29471,48.06656 4.12993,8.14893 6.67173,8.45886 10.1172,1.23362 2.68695,-5.63459 5.14265,-5.72669 4.09715,-0.15367 -0.67739,3.61077 -0.36255,4.35732 2.36089,5.5982 5.32441,2.42597 3.76392,4.15396 -2.94734,3.26368 -3.77352,-0.50057 -6.39831,-0.30871 -6.90086,0.50443 -0.44606,0.72176 0.3397,5.42529 1.74615,10.4523 14.74016,52.68523 -17.41956,108.67337 -70.15775,122.14042 -11.45909,2.92615 -27.92508,4.02744 -38.52198,2.57643 z"
         id="path4179"
         inkscape:connector-curvature="0" />
      <path
         style="fill:#6589a9"
         d="m -567.17825,485.97476 c -23.80979,-3.26023 -44.46209,-13.99852 -61.07235,-31.75493 -4.26435,-4.55861 -7.75337,-8.77011 -7.75337,-9.35891 0,-0.58879 0.89863,-1.41536 1.99695,-1.83683 1.09833,-0.42147 8.94724,-5.86528 17.44203,-12.09736 19.76227,-14.4983 19.38652,-14.5144 31.4205,1.34619 11.00784,14.50816 16.31013,19.27416 24.45131,21.97823 7.69623,2.55627 22.12608,1.93082 28.20139,-1.22238 6.69786,-3.47632 13.94511,-10.76395 17.45429,-17.55152 2.68348,-5.19049 3.26927,-8.01618 3.25557,-15.70433 -0.019,-10.64426 -1.88871,-16.0055 -8.01564,-22.98369 -5.67512,-6.4636 -13.91647,-10.30418 -30.32353,-14.13117 -17.76483,-4.14369 -23.55234,-6.63399 -27.51902,-11.84113 -18.61822,-24.4405 15.8604,-53.70127 38.34285,-32.5402 1.96994,1.85416 7.70993,8.79457 12.75554,15.42316 10.38071,13.63748 13.76765,16.69234 20.86419,18.81851 4.38243,1.31301 5.96745,1.14313 13.05686,-1.39941 5.95182,-2.13456 8.43597,-2.5268 9.46782,-1.49496 2.37647,2.37647 4.69692,1.59148 11.0711,-3.74529 7.97109,-6.67378 9.22132,-9.03444 7.27423,-13.73513 -1.91293,-4.61821 -5.48105,-5.53221 -16.04339,-4.10963 -7.87501,1.06063 -8.30119,1.29178 -8.90586,4.83023 -1.09083,6.38332 -11.44659,9.23892 -17.02054,4.69341 -1.45659,-1.18783 -6.43756,-7.50345 -11.06882,-14.0347 -11.22268,-15.8268 -13.62041,-18.2057 -23.00763,-22.82701 -14.17696,-6.9793 -30.36144,-4.59374 -42.77424,6.30484 -14.63886,12.85309 -16.35809,38.63603 -3.54678,53.19045 5.79795,6.58682 9.77187,8.37476 31.07891,13.983 9.23071,2.42962 18.62422,5.55537 20.8745,6.94611 16.83857,10.40681 10.46583,38.12878 -9.37688,40.79026 -12.22321,1.63947 -16.97386,-1.40617 -30.92188,-19.82406 -10.01706,-13.22719 -14.16799,-16.27824 -22.20737,-16.32308 -7.44721,-0.0415 -9.59917,1.12079 -28.21032,15.23703 -19.30616,14.64338 -17.76145,14.74352 -23.12985,-1.49955 -7.19279,-21.76315 -7.06979,-43.57246 0.36423,-64.58013 4.76644,-13.46941 10.42113,-22.6131 20.82448,-33.67337 20.18052,-21.45484 43.45927,-31.47449 73.125,-31.47449 23.9685,0 43.52091,6.56167 62.26785,20.89671 9.32206,7.1282 20.91976,20.62382 25.51441,29.68972 4.12993,8.14893 6.67173,8.45886 10.1172,1.23362 2.68695,-5.63459 5.14265,-5.72669 4.09715,-0.15367 -0.67739,3.61077 -0.36255,4.35732 2.36089,5.5982 5.32441,2.42597 3.76392,4.15396 -2.94734,3.26368 -3.77352,-0.50057 -6.39831,-0.30871 -6.90086,0.50443 -0.44606,0.72176 0.3397,5.42529 1.74615,10.4523 14.74016,52.68523 -17.41956,108.67337 -70.15775,122.14042 -11.45909,2.92615 -27.92508,4.02744 -38.52198,2.57643 z"
         id="path4177"
         inkscape:connector-curvature="0" />
      <path
         style="fill:#677a8c"
         d="m -567.17825,485.97476 c -23.86289,-3.2675 -44.4583,-13.99445 -61.17108,-31.86047 -4.31865,-4.61666 -7.38579,-8.783 -6.81587,-9.25854 0.56993,-0.47555 8.4085,-6.31373 17.41905,-12.97373 10.85959,-8.0267 17.48154,-12.1091 19.64182,-12.1091 2.65488,0 4.9786,2.25921 12.53548,12.1875 11.39978,14.9771 14.72526,18.1612 22.68988,21.72523 13.51501,6.04771 30.78119,2.36939 41.70235,-8.88412 13.36045,-13.76704 13.37375,-36.74176 0.0287,-49.78891 -5.7655,-5.63691 -12.59851,-8.62644 -28.97194,-12.67561 -25.74324,-6.36634 -30.60974,-10.26413 -31.78087,-25.45468 -0.51282,-6.65182 -0.18561,-8.33054 2.33771,-11.99338 1.6137,-2.34243 5.06429,-5.97335 7.66799,-8.06872 3.89503,-3.13458 6.12854,-3.89855 12.60301,-4.31081 12.67911,-0.80734 20.07909,4.48042 34.99063,25.0031 10.73586,14.77572 21.29001,19.11098 33.29683,13.67712 5.12124,-2.31768 5.884,-2.37537 8.52523,-0.64478 3.43255,2.24909 5.08351,1.41017 13.66281,-6.94255 5.79745,-5.64435 6.2276,-7.18393 3.48756,-12.48258 -2.15891,-4.17489 -4.64503,-5.00375 -12.76496,-4.25582 -10.9602,1.00955 -11.6601,1.33949 -11.6601,5.49661 0,3.17062 -0.73611,4.09753 -4.50449,5.67206 -8.94238,3.73637 -12.26202,1.28237 -26.13896,-19.32291 -10.74811,-15.95943 -19.28415,-21.52261 -34.35655,-22.39116 -7.46391,-0.43011 -10.81395,0.003 -16.43387,2.12377 -9.23805,3.48643 -17.21801,10.65588 -21.42608,19.24988 -2.86852,5.85828 -3.39005,8.53934 -3.39005,17.42742 0,9.2345 0.46608,11.43673 3.85628,18.22114 6.02579,12.05866 9.21822,13.94655 35.39431,20.93097 18.97636,5.06334 24.51432,7.87278 28.10205,14.25628 3.71249,6.60546 3.62345,16.92682 -0.19489,22.59285 -7.38335,10.95616 -20.84045,14.12975 -31.73479,7.48401 -2.17361,-1.32595 -8.2702,-8.11281 -13.54796,-15.08191 -12.60106,-16.63928 -18.74619,-20.36204 -29.03721,-17.59096 -2.81683,0.7585 -11.91355,6.58995 -21.56829,13.82635 -9.18329,6.88303 -17.18322,12.51461 -17.77762,12.51461 -2.84785,0 -9.19507,-19.91544 -11.01506,-34.56156 -4.26355,-34.31025 12.02986,-69.7203 41.6592,-90.53682 16.94329,-11.90376 35.05265,-17.34422 57.85153,-17.37992 36.23083,-0.0567 68.83742,18.70474 86.31695,49.6658 2.42586,4.29687 4.78412,7.80389 5.24059,7.79336 1.78457,-0.0412 3.69466,-2.02875 5.6876,-5.91836 2.75787,-5.38256 5.03214,-5.3237 4.01392,0.10389 -0.67738,3.61077 -0.36255,4.35732 2.36089,5.5982 5.12729,2.33615 3.63116,3.92535 -3.42,3.63274 -6.27161,-0.26025 -6.55638,-0.13381 -6.4242,2.85268 0.0761,1.71875 1.16349,6.78125 2.41649,11.25 3.00946,10.73301 3.06287,33.443 0.10712,45.56698 -2.7938,11.45993 -11.42768,29.35519 -18.95723,39.29227 -11.66795,15.39872 -32.14644,28.70101 -51.98202,33.76616 -11.45908,2.92615 -27.92508,4.02744 -38.52198,2.57642 z"
         id="path4175"
         inkscape:connector-curvature="0" />
      <path
         style="fill:#2e71ae"
         d="m -571.80372,484.17751 c -15.24626,-2.7671 -26.68708,-7.5553 -40.45025,-16.9292 -6.92435,-4.71608 -22.572,-20.11144 -22.41612,-22.0547 0.0461,-0.57513 7.57342,-6.53007 16.72731,-13.23319 10.88596,-7.97148 17.75974,-12.1875 19.87044,-12.1875 2.61442,0 4.98801,2.31361 12.50349,12.1875 11.39978,14.9771 14.72526,18.1612 22.68988,21.72523 13.51501,6.04771 30.78119,2.36939 41.70235,-8.88412 13.36045,-13.76704 13.37375,-36.74176 0.0287,-49.78891 -5.7655,-5.63691 -12.59851,-8.62644 -28.97194,-12.67561 -25.74324,-6.36634 -30.60974,-10.26413 -31.78087,-25.45468 -0.51282,-6.65182 -0.18561,-8.33054 2.33771,-11.99338 1.6137,-2.34243 5.06429,-5.97335 7.66799,-8.06872 3.89503,-3.13458 6.12854,-3.89855 12.60301,-4.31081 12.67911,-0.80734 20.07909,4.48042 34.99063,25.0031 10.73586,14.77572 21.29001,19.11098 33.29683,13.67712 5.12124,-2.31768 5.884,-2.37537 8.52523,-0.64478 3.43255,2.24909 5.08351,1.41017 13.66281,-6.94255 6.1914,-6.0279 6.79474,-9.96078 2.22857,-14.52696 -2.78283,-2.78283 -3.78967,-3.01365 -10.3125,-2.36415 -12.34983,1.22971 -12.85357,1.44795 -12.85357,5.56876 0,3.09684 -0.76474,4.02894 -4.63086,5.64431 -8.96983,3.74783 -12.12522,1.41429 -26.03438,-19.25351 -10.82378,-16.0832 -22.86882,-23.89784 -36.83476,-23.89784 -13.85682,0 -28.91909,9.7653 -35.36398,22.92747 -2.86412,5.8493 -3.38602,8.53418 -3.38602,17.41919 0,9.2345 0.46608,11.43673 3.85628,18.22114 6.02579,12.05866 9.21822,13.94655 35.39431,20.93097 18.97636,5.06334 24.51432,7.87278 28.10205,14.25628 3.71249,6.60546 3.62345,16.92682 -0.19489,22.59285 -7.38335,10.95616 -20.84045,14.12975 -31.73479,7.48401 -2.17361,-1.32595 -8.2702,-8.11281 -13.54796,-15.08191 -12.60106,-16.63928 -18.74619,-20.36204 -29.03721,-17.59096 -2.81683,0.7585 -11.91355,6.58995 -21.56829,13.82635 -9.18329,6.88303 -17.09396,12.51461 -17.57926,12.51461 -1.14305,0 -5.33688,-9.83196 -8.26444,-19.375 -1.81028,-5.90104 -2.2915,-11.49739 -2.25719,-26.25 0.04,-17.21301 0.32861,-19.56973 3.52032,-28.75 11.34284,-32.62529 36.33259,-56.031 69.56107,-65.15176 12.46013,-3.42014 38.78659,-3.15958 51.61436,0.51084 25.29078,7.23646 45.54734,22.60167 59.06103,44.79957 2.87664,4.72524 6.14667,8.77229 7.26672,8.99344 1.25532,0.24786 3.04692,-1.31047 4.67065,-4.0625 3.19268,-5.41117 4.63787,-5.71559 3.92019,-0.82577 -0.4039,2.75196 0.10587,3.9813 2.09149,5.04398 3.049,1.63178 3.58822,4.45408 0.63443,3.32061 -5.23316,-2.00816 -7.75946,-2.07425 -9.58302,-0.25069 -1.74471,1.74472 -1.68472,2.69958 0.61431,9.77791 3.6878,11.35408 4.47357,35.01326 1.59608,48.05747 -11.49116,52.0916 -61.62314,85.56095 -113.93599,76.06649 z m 66.756,-173.46709 c -0.27615,-0.85938 -3.5574,-3.40833 -7.29166,-5.66433 -18.52778,-11.1933 -47.21305,-13.14616 -71.09684,-4.8402 -9.40864,3.272 -18.81775,8.68952 -18.81775,10.83477 0,0.78866 17.58682,1.23226 48.85417,1.23226 38.51778,0 48.74793,-0.33059 48.35208,-1.5625 z"
         id="path4173"
         inkscape:connector-curvature="0" />
      <path
         style="fill:#516f8c"
         d="m -571.80372,484.17751 c -21.56734,-3.91434 -39.823,-13.77258 -55.13775,-29.77494 -7.79551,-8.14551 -9.33065,-10.87965 -6.10859,-10.87965 0.93716,0 8.54637,-5.0625 16.90937,-11.25 8.59332,-6.35791 16.43316,-11.25 18.02872,-11.25 2.12945,0 5.18965,3.18145 12.4525,12.9459 13.71789,18.44283 21.54894,23.3041 37.5407,23.3041 7.76994,0 10.41103,-0.59741 16.83705,-3.80854 13.99234,-6.99205 20.83394,-18.06211 20.87689,-33.77985 0.0221,-8.10152 -0.51919,-10.52996 -3.7617,-16.875 -5.75636,-11.26422 -13.00023,-15.66658 -34.93111,-21.22892 -21.09915,-5.35139 -26.35652,-8.0346 -30.25605,-15.44179 -5.75552,-10.93266 -3.27582,-20.67981 7.45871,-29.31859 3.8972,-3.13633 6.12741,-3.89847 12.61704,-4.3117 11.81008,-0.75201 20.38428,4.90699 31.8398,21.01439 3.17814,4.46875 7.38867,9.91581 9.35669,12.10457 7.18501,7.99086 17.13987,9.98384 27.25294,5.45608 4.94959,-2.216 5.71408,-2.26533 8.34923,-0.53871 3.43255,2.24909 5.08351,1.41017 13.66281,-6.94255 6.17171,-6.00872 6.79494,-9.96059 2.28247,-14.47305 -2.79924,-2.79925 -3.67983,-2.97224 -11.5625,-2.27133 -10.78587,0.95904 -12.74919,1.92941 -11.98562,5.92381 0.50271,2.62975 -0.12693,3.39777 -4.17074,5.08738 -6.96532,2.91031 -11.01874,1.50678 -16.81094,-5.82091 -2.7171,-3.43738 -4.94017,-7.04302 -4.94017,-8.01254 0,-0.96951 -0.42188,-1.76384 -0.9375,-1.76517 -0.51563,-0.001 -2.90439,-2.88817 -5.30836,-6.4152 -16.02944,-23.51784 -42.45228,-27.85744 -61.18283,-10.04846 -9.80865,9.32605 -12.57131,15.65242 -12.57131,28.78776 0,14.05464 2.46142,21.45553 9.46509,28.4592 5.55391,5.55391 13.89114,8.80988 34.62406,13.52186 15.08556,3.4285 22.07916,8.55773 24.60793,18.04795 4.57038,17.15227 -13.86579,31.66785 -30.57208,24.07065 -3.74633,-1.70364 -7.50734,-5.59864 -15,-15.53441 -13.01048,-17.25277 -20.79281,-21.7201 -31.4445,-18.0503 -4.6159,1.59031 -26.7003,17.25841 -34.55216,24.51355 -4.06646,3.75741 -4.34404,3.51707 -8.48921,-7.35018 -7.40266,-19.40734 -8.15983,-45.71259 -1.85295,-64.375 10.92192,-32.31861 36.19062,-56.01872 69.46382,-65.15176 12.46013,-3.42014 38.78659,-3.15958 51.61436,0.51084 25.29078,7.23646 45.54734,22.60167 59.06103,44.79957 2.87664,4.72524 6.14667,8.77229 7.26672,8.99344 1.25532,0.24786 3.04692,-1.31047 4.67065,-4.0625 3.19268,-5.41117 4.63787,-5.71559 3.92019,-0.82577 -0.4039,2.75196 0.10587,3.9813 2.09149,5.04398 3.049,1.63178 3.58822,4.45408 0.63443,3.32061 -5.23316,-2.00816 -7.75946,-2.07425 -9.58302,-0.25069 -1.74471,1.74472 -1.68472,2.69958 0.61431,9.77791 3.6878,11.35408 4.47357,35.01326 1.59608,48.05747 -11.49116,52.0916 -61.62314,85.56095 -113.93599,76.06649 z m 66.756,-173.46709 c -0.27615,-0.85938 -3.5574,-3.40833 -7.29166,-5.66433 -18.52778,-11.1933 -47.21305,-13.14616 -71.09684,-4.8402 -9.40864,3.272 -18.81775,8.68952 -18.81775,10.83477 0,0.78866 17.58682,1.23226 48.85417,1.23226 38.51778,0 48.74793,-0.33059 48.35208,-1.5625 z"
         id="path4171"
         inkscape:connector-curvature="0" />
      <path
         style="fill:#516374"
         d="m -571.80372,484.26371 c -16.27506,-3.11102 -29.00357,-8.67785 -42.37133,-18.53118 -11.0065,-8.11285 -22.59004,-22.20961 -18.25001,-22.20961 0.59341,0 7.92137,-5.0625 16.28437,-11.25 8.59332,-6.35791 16.43316,-11.25 18.02872,-11.25 2.12945,0 5.18965,3.18145 12.4525,12.9459 13.71789,18.44283 21.54894,23.3041 37.5407,23.3041 7.76994,0 10.41103,-0.59741 16.83705,-3.80854 13.99234,-6.99205 20.83394,-18.06211 20.87689,-33.77985 0.0221,-8.10152 -0.51919,-10.52996 -3.7617,-16.875 -5.75636,-11.26422 -13.00023,-15.66658 -34.93111,-21.22892 -21.15088,-5.36451 -26.33325,-8.01992 -30.36279,-15.55769 -2.44575,-4.57511 -2.88745,-6.84828 -2.36647,-12.17896 1.02233,-10.4605 7.46894,-17.51493 18.76727,-20.53678 12.32133,-3.29545 21.65364,2.17994 35.91606,21.07244 4.82201,6.38741 10.73102,13.11128 13.13114,14.94194 5.81911,4.43845 14.46042,5.2788 22.93721,2.23059 4.91474,-1.76732 6.65985,-1.94063 7.82351,-0.77697 2.54645,2.54645 4.85575,1.70915 11.91164,-4.31889 8.21166,-7.01544 9.40945,-9.67031 6.81635,-15.1082 -2.43172,-5.09946 -4.60495,-5.76723 -15.28017,-4.69516 -8.73902,0.87763 -12.07187,2.79516 -10.76728,6.19486 1.93654,5.04655 -11.53042,7.70701 -16.33837,3.22773 -3.2214,-3.00119 -20.72892,-28.83478 -20.02112,-29.54258 0.28004,-0.28003 9.0406,-0.87842 19.46793,-1.32975 10.42731,-0.45133 18.95876,-1.22363 18.95876,-1.71623 0,-1.61418 -11.10557,-11.17522 -18.62771,-16.03701 -31.23833,-20.1903 -81.10308,-15.00098 -107.72427,11.21063 l -5.52302,5.43804 15.9824,0.79872 c 8.79033,0.4393 16.30482,1.12113 16.69887,1.51518 0.39405,0.39405 -0.40556,2.29572 -1.77691,4.22593 -4.85474,6.83312 -6.76064,13.27763 -6.95271,23.50947 -0.24659,13.13599 2.67493,21.69237 9.85998,28.87742 5.58533,5.58533 13.88311,8.83004 34.65252,13.55032 15.08556,3.4285 22.07916,8.55773 24.60793,18.04795 4.57038,17.15227 -13.86579,31.66785 -30.57208,24.07065 -3.74633,-1.70364 -7.50734,-5.59864 -15,-15.53441 -12.68704,-16.82387 -20.01441,-21.24407 -30.52482,-18.41391 -2.77623,0.74757 -11.7724,6.57003 -21.29981,13.78557 -9.07152,6.87027 -16.94341,12.49141 -17.49309,12.49141 -1.38409,0 -5.64845,-10.25616 -8.3157,-20 -3.12008,-11.39809 -3.14681,-37.59166 -0.0497,-48.67471 7.61202,-27.23951 26.25051,-49.68866 51.43309,-61.94864 16.71839,-8.13925 24.51401,-9.87957 44.375,-9.90646 13.76083,-0.0186 18.67411,0.49192 26.62397,2.76652 17.45925,4.99542 34.73079,15.29444 46.16474,27.52803 6.04837,6.47136 15.27359,19.84929 16.62587,24.10997 1.22108,3.84729 5.39859,2.83484 8.25105,-1.99971 3.06429,-5.19361 4.73331,-5.65989 3.85736,-1.07765 -0.47128,2.46532 0.11975,3.86313 2.34216,5.53951 3.7201,2.80607 2.60835,4.16149 -1.98189,2.41628 -3.87517,-1.47334 -7.58656,-0.73079 -8.52121,1.70487 -0.3404,0.88707 0.51941,4.94378 1.9107,9.01492 3.60873,10.55974 4.44044,31.89099 1.75935,45.12268 -4.2797,21.12119 -12.67042,36.20494 -29.4577,52.95518 -8.83117,8.8117 -12.7729,11.69777 -22.5744,16.52868 -6.53125,3.2191 -15.53125,6.72378 -20,7.78819 -11.66593,2.77869 -31.33627,3.42103 -42.04975,1.37313 z"
         id="path4169"
         inkscape:connector-curvature="0" />
      <path
         style="fill:#35648e"
         d="m -573.54751,482.90895 c -11.89281,-2.37181 -25.92144,-8.17356 -36.05807,-14.91238 -13.81301,-9.18286 -28.07028,-24.47365 -22.81948,-24.47365 0.59341,0 7.92137,-5.0625 16.28437,-11.25 8.59332,-6.35791 16.43316,-11.25 18.02872,-11.25 2.12945,0 5.18965,3.18145 12.4525,12.9459 13.71789,18.44283 21.54894,23.3041 37.5407,23.3041 7.76994,0 10.41103,-0.59741 16.83705,-3.80854 13.99234,-6.99205 20.83394,-18.06211 20.87689,-33.77985 0.0221,-8.10152 -0.51919,-10.52996 -3.7617,-16.875 -5.75636,-11.26422 -13.00023,-15.66658 -34.93111,-21.22892 -21.15088,-5.36451 -26.33325,-8.01992 -30.36279,-15.55769 -2.44575,-4.57511 -2.88745,-6.84828 -2.36647,-12.17896 1.02233,-10.4605 7.46894,-17.51493 18.76727,-20.53678 12.32133,-3.29545 21.65364,2.17994 35.91606,21.07244 4.82201,6.38741 10.73102,13.11128 13.13114,14.94194 5.81911,4.43845 14.46042,5.2788 22.93721,2.23059 4.91474,-1.76732 6.65985,-1.94063 7.82351,-0.77697 2.88158,2.88157 6.03953,1.43591 14.07575,-6.44366 l 8.0993,-7.9414 1.23619,3.8789 c 4.34172,13.62346 4.7593,37.43482 0.90101,51.3789 -4.81722,17.40972 -12.97543,31.6137 -25.15062,43.78889 -23.26529,23.26529 -57.63181,33.81916 -89.45743,27.47214 z m 15.66854,-44.21469 c -3.74633,-1.70364 -7.50734,-5.59864 -15,-15.53441 -12.68704,-16.82387 -20.01441,-21.24407 -30.52482,-18.41391 -2.77623,0.74757 -11.7724,6.57003 -21.29981,13.78557 -9.07152,6.87027 -16.94341,12.49141 -17.49309,12.49141 -1.42447,0 -5.73468,-10.49274 -8.14524,-19.82871 -11.27302,-43.6597 10.22539,-90.05776 50.97932,-110.02405 15.44277,-7.56576 28.45597,-10.66256 44.60864,-10.61568 16.2368,0.0471 29.31846,3.16518 44.96926,10.71853 11.69105,5.64231 14.37336,7.60844 25.0305,18.34722 7.68878,7.74769 13.37192,14.76049 15.97078,19.70743 2.219,4.22385 4.82247,7.9821 5.7855,8.35164 2.26029,0.86736 4.96812,-1.32173 7.46062,-6.03138 l 1.98463,-3.75 -0.28815,4.3009 c -0.23285,3.47575 0.31141,4.61332 2.83686,5.9293 2.87225,1.4967 2.66614,1.5677 -2.54847,0.87788 -4.35862,-0.57658 -6.06159,-0.28286 -7.34817,1.26737 -1.51532,1.82586 -1.96557,1.70402 -4.73137,-1.28033 -2.95406,-3.18749 -3.37763,-3.26913 -12.61686,-2.43189 -10.30823,0.9341 -13.26898,2.36179 -12.33161,5.94632 1.43233,5.47723 -11.2948,8.25822 -16.3291,3.56805 -3.2214,-3.00119 -20.72891,-28.83478 -20.02111,-29.54258 0.28004,-0.28003 9.0406,-0.87842 19.46793,-1.32975 13.90613,-0.6019 18.95876,-1.23741 18.95876,-2.3846 0,-2.22958 -11.45194,-12.22988 -19.79396,-17.2849 -30.40095,-18.42208 -75.32135,-14.49123 -103.63118,9.06846 -10.8907,9.06333 -10.37453,9.73503 8.02563,10.44386 8.4886,0.327 15.76872,0.92945 16.17803,1.33876 0.40931,0.40932 -0.37781,2.32347 -1.74916,4.25368 -4.85474,6.83312 -6.76064,13.27763 -6.95271,23.50947 -0.24659,13.13599 2.67493,21.69237 9.85998,28.87742 5.58533,5.58533 13.88311,8.83004 34.65252,13.55032 15.08556,3.4285 22.07916,8.55773 24.60793,18.04795 4.57038,17.15227 -13.86579,31.66785 -30.57208,24.07065 z"
         id="path4167"
         inkscape:connector-curvature="0" />
      <path
         style="fill:#285b89"
         d="m -573.50397,482.90289 c -10.70415,-2.15415 -23.62503,-7.11276 -32.33675,-12.40979 -7.81544,-4.75207 -21.23915,-16.45929 -25.11713,-21.90542 l -2.51258,-3.52858 16.27857,-12.01809 c 9.21872,-6.80596 17.49823,-12.01809 19.09086,-12.01809 2.11553,0 5.19802,3.20746 12.44153,12.9459 13.71789,18.44283 21.54894,23.3041 37.5407,23.3041 7.76994,0 10.41103,-0.59741 16.83705,-3.80854 13.99234,-6.99205 20.83394,-18.06211 20.87689,-33.77985 0.0221,-8.10152 -0.51919,-10.52996 -3.7617,-16.875 -5.73922,-11.23066 -13.01934,-15.67146 -34.71011,-21.17277 -9.48623,-2.40594 -19.46304,-5.50462 -22.17069,-6.88596 -6.34808,-3.23855 -10.31378,-10.69857 -10.31378,-19.40163 0,-13.15681 5.24676,-16.81691 24.10714,-16.81691 15.8117,0 18.3842,1.20993 27.15089,12.76985 9.96552,13.14075 17.88365,20.52229 23.95695,22.33349 4.959,1.47889 6.25305,1.36631 13.54417,-1.17831 6.24098,-2.17812 8.45698,-2.48507 9.81343,-1.35931 3.02382,2.50955 7.50198,0.20933 14.67408,-7.5374 l 6.93288,-7.48833 1.27314,4.03783 c 8.09025,25.65872 3.35414,56.31569 -12.37247,80.08714 -22.10831,33.41773 -62.56361,50.48568 -101.22307,42.70567 z m 15.625,-44.20863 c -3.74633,-1.70364 -7.50734,-5.59864 -15,-15.53441 -12.68704,-16.82387 -20.01441,-21.24407 -30.52482,-18.41391 -2.77623,0.74757 -11.7724,6.57003 -21.29981,13.78557 -9.07152,6.87027 -16.71999,12.49141 -16.99661,12.49141 -1.2278,0 -5.69434,-10.53739 -8.02596,-18.93467 -12.20775,-43.96597 8.98851,-90.6475 50.36356,-110.91809 15.44277,-7.56576 28.45597,-10.66256 44.60864,-10.61568 16.2368,0.0471 29.31846,3.16518 44.96926,10.71853 11.69105,5.64231 14.37336,7.60844 25.0305,18.34722 7.68878,7.74769 13.37192,14.76049 15.97078,19.70743 2.219,4.22385 4.82247,7.9821 5.7855,8.35164 2.26029,0.86736 4.96812,-1.32173 7.46062,-6.03138 l 1.98463,-3.75 -0.28815,4.3009 c -0.23285,3.47575 0.31141,4.61332 2.83686,5.9293 2.87225,1.4967 2.66614,1.5677 -2.54847,0.87788 -4.35862,-0.57658 -6.06159,-0.28286 -7.34817,1.26737 -1.51747,1.82845 -1.94738,1.72365 -4.57933,-1.11628 -2.52502,-2.72454 -3.96376,-3.13417 -11.00797,-3.13417 -11.00315,0 -14.51606,1.45647 -14.51606,6.01842 0,2.62359 -0.85076,3.96792 -3.18381,5.03094 -7.86039,3.58143 -13.92333,-0.0253 -20.36784,-12.11645 l -3.96844,-7.44555 5.94754,-0.70121 c 3.27115,-0.38567 10.1663,-1.03106 15.32255,-1.43421 5.15625,-0.40316 10.91409,-1.02775 12.7952,-1.38799 3.28311,-0.62874 3.34909,-0.78895 1.64574,-3.99697 -6.01828,-11.33458 -24.29405,-25.74288 -39.25006,-30.94407 -35.99753,-12.51871 -78.92977,-1.20626 -100.23711,26.41202 -4.18471,5.42416 -5.02584,7.24799 -3.71602,8.0575 0.93117,0.5755 7.64299,1.41316 14.91515,1.86147 14.64665,0.90294 16.84517,1.32894 15.7771,3.0571 -0.40064,0.64826 -1.06415,5.90848 -1.47445,11.68937 -0.90469,12.7464 1.3687,21.93045 7.37927,29.81083 5.3424,7.00436 12.01525,10.23307 30.91518,14.95851 22.73654,5.68469 28.41051,9.27328 31.19708,19.73098 4.57038,17.15227 -13.86579,31.66785 -30.57208,24.07065 z"
         id="path4165"
         inkscape:connector-curvature="0" />
      <path
         style="fill:#0155a2"
         d="m -569.4652,483.86691 c -2.54298,-0.31485 -3.76828,-1.02038 -3.24437,-1.86809 0.51973,-0.84094 0.25862,-1.0017 -0.68237,-0.42014 -2.19313,1.35543 -10.36117,-0.39137 -9.36523,-2.00283 0.53611,-0.86744 -0.14924,-1.01432 -1.9968,-0.42793 -2.04326,0.6485 -2.55636,0.47748 -1.875,-0.625 0.68136,-1.10248 0.16826,-1.2735 -1.875,-0.625 -1.76597,0.5605 -2.52484,0.42646 -2.03872,-0.3601 0.88032,-1.42439 -2.61124,-3.12878 -4.28737,-2.09287 -1.60046,0.98913 -8.23618,-2.72834 -9.15797,-5.13049 -0.46758,-1.2185 -1.5701,-1.75043 -2.7164,-1.31055 -1.1041,0.42368 -1.60272,0.21181 -1.16569,-0.4953 0.68734,-1.11214 -0.96491,-1.77553 -3.44635,-1.38371 -0.51563,0.0814 -0.79688,-0.33222 -0.625,-0.91918 0.17187,-0.58696 -2.80782,-3.61871 -6.62154,-6.73721 -8.01751,-6.55596 -14.46605,-14.48182 -12.89772,-15.85249 7.56111,-6.60816 31.13859,-22.5931 33.32437,-22.5931 2.1604,0 5.1716,3.1244 12.47689,12.9459 13.71789,18.44283 21.54894,23.3041 37.5407,23.3041 7.76994,0 10.41103,-0.59741 16.83705,-3.80854 13.99234,-6.99205 20.83394,-18.06211 20.87689,-33.77985 0.0221,-8.10152 -0.51919,-10.52996 -3.7617,-16.875 -5.60985,-10.97753 -13.07039,-15.62863 -33.71244,-21.01722 -19.31068,-5.04104 -22.8576,-6.34999 -26.53104,-9.791 -4.24887,-3.98002 -7.02943,-12.49946 -6.27221,-19.21755 1.04405,-9.26271 2.22976,-9.82443 21.73772,-10.29786 9.33754,-0.22661 18.26823,-0.088 19.84598,0.30797 1.65384,0.41508 5.41959,4.29498 8.89249,9.16201 15.5895,21.84768 24.96986,26.68558 39.59023,20.41856 5.0007,-2.14356 5.87554,-2.20229 8.23083,-0.55259 1.44946,1.01525 3.33752,1.42566 4.19569,0.91204 4.67209,-2.7963 12.64347,-10.31074 14.30794,-13.48774 1.65246,-3.15413 2.07211,-3.36775 3.07952,-1.56761 2.03966,3.64467 4.79785,20.75141 4.79785,29.75704 0,10.831 -2.9556,25.46976 -6.97941,34.56833 -7.6418,17.27946 -24.08513,36.84845 -37.70835,44.87622 -2.92203,1.72186 -5.00219,3.63319 -4.62259,4.2474 0.37961,0.61421 -0.27505,0.74635 -1.45479,0.29365 -1.44551,-0.5547 -1.85312,-0.3509 -1.25,0.625 0.60314,0.97589 0.19553,1.1797 -1.25,0.625 -1.44551,-0.5547 -1.85312,-0.3509 -1.25,0.625 0.60314,0.97589 0.19553,1.1797 -1.25,0.625 -1.57047,-0.60265 -1.87092,-0.37969 -1.12178,0.83245 0.6836,1.10609 0.54051,1.35725 -0.43113,0.75674 -1.87404,-1.15821 -6.684,0.34344 -5.78086,1.80476 0.7438,1.2035 -8.46964,4.16617 -19.2592,6.19298 -6.49173,1.21946 -22.64648,1.40582 -31.10312,0.3588 z m 11.58623,-45.17265 c -3.74633,-1.70364 -7.50734,-5.59864 -15,-15.53441 -9.97569,-13.22844 -14.82328,-17.28517 -22.62555,-18.93429 -6.21174,-1.31294 -12.55855,1.7658 -29.08587,14.10913 -8.50379,6.351 -16.09754,11.33642 -16.875,11.0787 -1.91048,-0.63328 -8.14428,-17.10211 -10.27168,-27.13633 -2.23915,-10.56131 -2.20335,-18.42387 0.14519,-31.89139 5.24328,-30.06721 24.55221,-55.65588 52.22927,-69.21551 15.44277,-7.56576 28.45597,-10.66256 44.60864,-10.61568 16.2368,0.0471 29.31846,3.16518 44.96926,10.71853 11.69105,5.64231 14.37336,7.60844 25.0305,18.34722 7.68878,7.74769 13.37192,14.76049 15.97078,19.70743 2.219,4.22385 4.82247,7.9821 5.7855,8.35164 2.26029,0.86736 4.96812,-1.32173 7.46062,-6.03138 l 1.98463,-3.75 -0.28815,4.3009 c -0.2325,3.47047 0.31525,4.62016 2.83686,5.95436 2.90241,1.53568 2.74433,1.596 -2.2194,0.84674 -4.11059,-0.62048 -5.89124,-0.31185 -7.71302,1.33684 -2.24433,2.03109 -2.43692,2.01594 -3.67033,-0.2887 -0.71594,-1.33774 -2.87524,-3.08404 -4.79844,-3.88066 -2.03554,-0.84315 -4.9059,-3.91826 -6.86894,-7.35894 -10.05087,-17.61642 -29.69157,-34.54881 -46.45998,-40.0535 -32.50097,-10.66931 -70.25743,-2.87035 -92.57784,19.12285 -9.45343,9.31484 -20.69205,24.98373 -20.69205,28.84885 0,4.35869 8.84414,5.03539 24.2001,1.85163 6.7788,-1.40545 12.82568,-2.55537 13.4375,-2.55537 0.61182,0 1.1124,4.11855 1.1124,9.15233 0,12.46377 2.77875,19.99547 10.06553,27.28225 6.18766,6.18766 13.81947,9.24226 35.27362,14.11816 15.08556,3.4285 22.07916,8.55773 24.60793,18.04795 4.57038,17.15227 -13.86579,31.66785 -30.57208,24.07065 z m 53.54249,-81.77813 c -4.54321,-2.54757 -10.07986,-10.89321 -7.22675,-10.89321 3.21447,0 18.8839,4.37412 19.60262,5.47208 1.7664,2.69843 0.92563,4.29417 -2.97989,5.65564 -4.8774,1.70027 -5.99532,1.67236 -9.39598,-0.23451 z"
         id="path4163"
         inkscape:connector-curvature="0" />
      <path
         style="fill:#31516f"
         d="m -569.4652,483.86691 c -2.54298,-0.31485 -3.76828,-1.02038 -3.24437,-1.86809 0.51973,-0.84094 0.25862,-1.0017 -0.68237,-0.42014 -2.19313,1.35543 -10.36117,-0.39137 -9.36523,-2.00283 0.53611,-0.86744 -0.14924,-1.01432 -1.9968,-0.42793 -2.04326,0.6485 -2.55636,0.47748 -1.875,-0.625 0.68136,-1.10248 0.16826,-1.2735 -1.875,-0.625 -1.76597,0.5605 -2.52484,0.42646 -2.03872,-0.3601 0.88032,-1.42439 -2.61124,-3.12878 -4.28737,-2.09287 -1.60046,0.98913 -8.23618,-2.72834 -9.15797,-5.13049 -0.46758,-1.2185 -1.5701,-1.75043 -2.7164,-1.31055 -1.1041,0.42368 -1.60272,0.21181 -1.16569,-0.4953 0.68734,-1.11214 -0.96491,-1.77553 -3.44635,-1.38371 -0.51563,0.0814 -0.79688,-0.33222 -0.625,-0.91918 0.17187,-0.58696 -2.80782,-3.61871 -6.62154,-6.73721 -3.81373,-3.11851 -8.46396,-7.67584 -10.33385,-10.12739 -3.28893,-4.312 -3.32026,-4.49996 -0.96064,-5.76279 3.69699,-1.97857 4.6672,-1.62657 6.28555,2.28048 2.00338,4.83658 8.4224,10.86174 14.09033,13.22576 5.82853,2.431 7.69671,2.42623 12.87905,-0.033 4.78051,-2.26846 8.0986,-9.0679 8.0986,-16.59561 0,-2.6215 0.37937,-5.14575 0.84305,-5.60943 0.46368,-0.46367 4.54181,3.03788 9.0625,7.78124 6.541,6.86316 9.75098,9.18743 15.71945,11.38204 14.23315,5.23353 30.84525,2.02902 43.14846,-8.32345 l 4.12986,-3.47504 -0.77983,9.3433 c -0.42892,5.13881 -1.14225,11.36944 -1.5852,13.84582 -1.02545,5.73302 1.03157,6.69792 7.80964,3.66329 3.72482,-1.66766 4.98541,-1.82711 4.98541,-0.6306 0,0.9087 -0.80966,1.29074 -1.87173,0.88319 -1.20821,-0.46364 -1.55446,-0.20491 -0.97675,0.72986 0.60314,0.97589 0.19553,1.1797 -1.25,0.625 -1.44551,-0.5547 -1.85312,-0.3509 -1.25,0.625 0.60314,0.97589 0.19553,1.1797 -1.25,0.625 -1.57047,-0.60265 -1.87092,-0.37969 -1.12178,0.83245 0.6836,1.10609 0.54051,1.35725 -0.43113,0.75674 -1.87404,-1.15821 -6.684,0.34344 -5.78086,1.80476 0.7438,1.2035 -8.46964,4.16617 -19.2592,6.19298 -6.49173,1.21946 -22.64648,1.40582 -31.10312,0.3588 z m 75.76573,-23.09809 4.17951,-4.48135 -2.54392,-5.44478 c -4.29962,-9.20246 -9.44664,-13.56977 -15.99246,-13.56977 l -3.99612,0 1.27504,-4.61779 c 1.83466,-6.64459 1.81433,-17.6164 -0.0447,-24.13221 -4.22042,-14.79223 -13.69665,-21.70424 -37.52104,-27.36801 -8.69543,-2.06716 -17.86186,-4.61585 -20.36985,-5.66376 -8.24565,-3.44525 -13.09442,-12.72434 -11.95082,-22.87029 1.02391,-9.08415 2.26396,-9.6628 21.71935,-10.13496 9.33754,-0.22661 18.26823,-0.088 19.84598,0.30797 1.65384,0.41508 5.41959,4.29498 8.89249,9.16201 15.5895,21.84768 24.96986,26.68558 39.59023,20.41856 5.0007,-2.14356 5.87554,-2.20229 8.23083,-0.55259 1.44946,1.01525 3.33752,1.42566 4.19569,0.91204 4.67209,-2.7963 12.64347,-10.31074 14.30794,-13.48773 1.65246,-3.15414 2.07211,-3.36776 3.07952,-1.56762 2.03966,3.64467 4.79785,20.75141 4.79785,29.75704 0,26.77509 -13.69579,54.8298 -35.41553,72.54583 -6.22878,5.0806 -6.31021,5.10872 -2.27997,0.78741 z m -64.93215,-23.85447 c -2.33604,-1.57223 -8.64959,-8.61562 -14.0301,-15.65199 -9.80699,-12.82512 -21.7492,-22.73944 -27.39059,-22.73944 -4.5533,0 -11.98828,5.0265 -21.69495,14.66711 -5.43494,5.39795 -12.05487,11.45276 -14.71095,13.45514 -4.49005,3.38499 -4.94086,3.48802 -6.41861,1.46708 -3.29345,-4.50405 -9.47395,-26.08447 -10.18515,-35.56341 -2.78266,-37.08742 19.18512,-74.46936 53.69936,-91.37868 15.44277,-7.56576 28.45597,-10.66256 44.60864,-10.61568 16.2368,0.0471 29.31846,3.16518 44.96926,10.71853 11.69105,5.64231 14.37336,7.60844 25.0305,18.34722 7.68878,7.74769 13.37192,14.76049 15.97078,19.70743 2.219,4.22385 4.82247,7.9821 5.7855,8.35164 2.26029,0.86736 4.96812,-1.32173 7.46062,-6.03138 l 1.98463,-3.75 -0.28815,4.3009 c -0.2325,3.47047 0.31525,4.62016 2.83686,5.95436 2.90241,1.53568 2.74433,1.596 -2.2194,0.84674 -4.11059,-0.62048 -5.89124,-0.31185 -7.71302,1.33684 -2.24433,2.03109 -2.43692,2.01594 -3.67033,-0.2887 -0.71594,-1.33774 -2.87524,-3.08404 -4.79844,-3.88066 -2.03554,-0.84315 -4.9059,-3.91826 -6.86894,-7.35894 -10.05087,-17.61642 -29.69157,-34.54881 -46.45998,-40.0535 -32.50097,-10.66931 -70.25743,-2.87035 -92.57784,19.12285 -9.45343,9.31484 -20.69205,24.98373 -20.69205,28.84885 0,4.35869 8.84414,5.03539 24.2001,1.85163 6.7788,-1.40545 12.82568,-2.55537 13.4375,-2.55537 0.61182,0 1.1124,4.14803 1.1124,9.21784 0,10.47429 1.97494,17.12676 7.44457,25.07659 4.82851,7.01801 12.24603,10.69332 31.93043,15.82122 16.75794,4.36554 23.44656,7.30534 26.20722,11.51864 3.24012,4.94504 4.71289,10.7757 3.86435,15.29882 -0.92833,4.94844 -6.84445,12.30348 -12.07004,15.00574 -5.35435,2.76885 -13.78333,2.29809 -18.75418,-1.04742 z m 54.29514,-79.99822 c -4.54321,-2.54757 -10.07986,-10.89321 -7.22675,-10.89321 3.21447,0 18.8839,4.37412 19.60262,5.47208 1.7664,2.69843 0.92563,4.29417 -2.97989,5.65564 -4.8774,1.70027 -5.99532,1.67236 -9.39598,-0.23451 z"
         id="path4161"
         inkscape:connector-curvature="0" />
      <path
         style="fill:#00519c"
         d="m -568.74988,482.25508 c -9.71612,-1.53585 -25.19607,-6.83852 -33.50409,-11.47686 -9.12699,-5.09558 -21.47322,-14.97413 -26.24578,-20.99998 -3.7147,-4.69018 -3.76438,-4.91192 -1.3857,-6.18496 3.72675,-1.99449 4.69249,-1.64795 6.31351,2.26553 2.00337,4.83658 8.42239,10.86174 14.09032,13.22576 5.82853,2.431 7.69671,2.42623 12.87905,-0.033 4.78051,-2.26846 8.0986,-9.0679 8.0986,-16.59561 0,-2.6215 0.37937,-5.14575 0.84305,-5.60943 0.46368,-0.46367 4.54181,3.03788 9.0625,7.78124 6.541,6.86316 9.75098,9.18743 15.71945,11.38204 14.23315,5.23353 30.84525,2.02902 43.14846,-8.32345 l 4.12986,-3.47504 -0.77983,9.3433 c -0.42892,5.13881 -1.14225,11.36944 -1.5852,13.84582 -1.03311,5.77587 1.03465,6.69654 8.01797,3.57002 2.85655,-1.27893 5.19374,-2.03629 5.19374,-1.68303 0,1.24285 -16.16268,7.95252 -25.1676,10.44791 -10.64706,2.95046 -28.69442,4.12163 -38.82831,2.51974 z m 75.05041,-21.48626 4.17951,-4.48135 -2.54392,-5.44478 c -4.29962,-9.20246 -9.44664,-13.56977 -15.99246,-13.56977 l -3.99612,0 1.27504,-4.61779 c 1.83466,-6.64459 1.81433,-17.6164 -0.0447,-24.13221 -4.22042,-14.79223 -13.69665,-21.70424 -37.52104,-27.36801 -8.69543,-2.06716 -17.86186,-4.61585 -20.36985,-5.66376 -8.24565,-3.44525 -13.09442,-12.72434 -11.95082,-22.87029 1.02391,-9.08415 2.26396,-9.6628 21.71935,-10.13496 9.33754,-0.22661 18.26823,-0.088 19.84598,0.30797 1.65384,0.41508 5.41959,4.29498 8.89249,9.16201 15.29814,21.43935 24.87853,26.58509 38.72506,20.79965 3.99724,-1.67016 5.54493,-1.75827 8.99172,-0.51188 4.65869,1.6846 4.64422,1.6926 15.45319,-8.53615 l 5.84292,-5.52927 1.65708,5.48485 c 1.07178,3.54751 1.63825,12.10761 1.60375,24.23484 -0.0489,17.17843 -0.3439,19.58818 -3.51992,28.75 -5.74412,16.56997 -16.8066,32.59165 -29.85638,43.24065 -6.21468,5.07136 -6.34411,5.11901 -2.39086,0.88025 z m -64.93215,-23.85447 c -2.33604,-1.57223 -8.64959,-8.61562 -14.0301,-15.65199 -9.80699,-12.82512 -21.7492,-22.73944 -27.39059,-22.73944 -4.5533,0 -11.98828,5.0265 -21.69495,14.66711 -5.43494,5.39795 -12.05487,11.45276 -14.71095,13.45514 -4.47113,3.37071 -4.94603,3.48095 -6.40437,1.48655 -4.05079,-5.53979 -8.43429,-22.89042 -9.07392,-35.9161 -2.3824,-48.51664 29.49792,-89.35901 77.44233,-99.21255 10.0557,-2.06665 25.55671,-2.48599 34.1152,-0.92289 3.37635,0.61664 -0.27688,0.96219 -11.25,1.0641 -24.9391,0.23162 -44.69601,6.8405 -61.25,20.48873 -12.55639,10.35235 -23.125,25.28197 -23.125,32.66727 0,2.91765 0.58751,3.31697 5.9375,4.03571 3.95492,0.53132 10.05294,-0.0556 18.2626,-1.7577 6.7788,-1.40545 12.82568,-2.55537 13.4375,-2.55537 0.61182,0 1.1124,4.14803 1.1124,9.21784 0,10.47429 1.97494,17.12676 7.44457,25.07659 4.82851,7.01801 12.24603,10.69332 31.93043,15.82122 16.75794,4.36554 23.44656,7.30534 26.20722,11.51864 3.24012,4.94504 4.71289,10.7757 3.86435,15.29882 -0.92833,4.94844 -6.84445,12.30348 -12.07004,15.00574 -5.35435,2.76885 -13.78333,2.29809 -18.75418,-1.04742 z m 54.29514,-79.99822 c -4.54321,-2.54757 -10.07986,-10.89321 -7.22675,-10.89321 0.37991,0 4.73928,0.91556 9.6875,2.03458 11.94207,2.70065 14.06361,5.50935 6.53691,8.6542 -5.1539,2.15344 -5.50754,2.16147 -8.99766,0.20443 z m 47.70751,-10.89321 c 0.4249,-0.6875 1.0206,-1.25 1.32378,-1.25 0.30317,0 0.55122,0.5625 0.55122,1.25 0,0.6875 -0.5957,1.25 -1.32378,1.25 -0.72807,0 -0.97612,-0.5625 -0.55122,-1.25 z m -14.50666,-0.82683 c -1.10368,-0.29526 -2.64473,-2.62063 -3.42458,-5.1675 -3.20204,-10.45745 -18.63549,-26.98616 -33.62737,-36.0138 -3.87438,-2.33303 -6.50598,-4.24187 -5.84801,-4.24187 2.33331,0 18.65287,10.22707 25.07597,15.71449 6.97366,5.95779 16.66286,18.10103 20.59862,25.81578 2.43084,4.76482 2.11917,5.2021 -2.77463,3.8929 z m -62.60272,-51.27706 c 0.90234,-0.36109 1.98047,-0.31668 2.39584,0.0987 0.41536,0.41537 -0.32292,0.71081 -1.64062,0.65653 -1.45619,-0.06 -1.75238,-0.35618 -0.75522,-0.75521 z"
         id="path4159"
         inkscape:connector-curvature="0" />
      <path
         style="fill:#004c94"
         d="m -568.74988,482.25631 c -9.71909,-1.538 -25.19823,-6.84095 -33.50409,-11.47809 -9.43242,-5.26609 -21.56881,-15.07275 -26.46269,-21.38284 -3.08662,-3.97985 -2.26917,-3.41734 3.38398,2.32859 12.28596,12.48762 27.7023,21.38873 45.57871,26.31629 10.15415,2.79895 38.52874,3.17083 48.50498,0.63572 3.64647,-0.92664 6.90112,-1.41362 7.23255,-1.08221 0.33141,0.33142 -3.07311,1.52589 -7.56561,2.65436 -10.14819,2.54915 -27.74211,3.49974 -37.16783,2.00818 z m 84.40891,-29.94903 c 1.14785,-1.69984 2.087,-3.86483 2.087,-4.81109 0,-4.0942 -4.98439,-11.54451 -14.04485,-20.99328 -8.9486,-9.3321 -9.83668,-10.73234 -11.08309,-17.47478 -1.61596,-8.74157 -3.44549,-12.51646 -8.19796,-16.91498 -5.51681,-5.10592 -8.29373,-6.1297 -28.80005,-10.61782 -24.18388,-5.29301 -30.0285,-7.9611 -33.89325,-15.47241 -2.25383,-4.38041 -2.78306,-7.09107 -2.3919,-12.25096 0.77912,-10.27745 1.78932,-10.80235 21.72057,-11.28606 9.33754,-0.22661 18.26823,-0.088 19.84598,0.30797 1.65384,0.41508 5.41959,4.29498 8.89249,9.16201 15.29814,21.43935 24.87853,26.58509 38.72506,20.79965 3.99724,-1.67016 5.54493,-1.75827 8.99172,-0.51188 4.65869,1.6846 4.64422,1.6926 15.45319,-8.53615 l 5.84292,-5.52927 1.65708,5.48484 c 1.0679,3.53467 1.64379,12.15156 1.61969,24.23485 -0.0353,17.69765 -0.25292,19.35797 -3.87743,29.58256 -3.94473,11.12799 -14.88227,29.09525 -21.17985,34.79244 l -3.45431,3.125 2.08699,-3.09064 z m -160.39997,-28.12896 c -9.82386,-22.91815 -9.88574,-51.22363 -0.1627,-74.42911 12.02417,-28.69746 38.75414,-50.24034 70.40947,-56.74614 10.0557,-2.06665 25.55671,-2.48599 34.1152,-0.92289 3.37635,0.61664 -0.27688,0.96219 -11.25,1.0641 -24.9391,0.23162 -44.69601,6.8405 -61.25,20.48873 -12.55639,10.35235 -23.125,25.28197 -23.125,32.66727 0,2.91765 0.58751,3.31697 5.9375,4.03571 3.95492,0.53132 10.05294,-0.0556 18.2626,-1.7577 6.7788,-1.40545 12.76971,-2.55537 13.31313,-2.55537 0.54341,0 1.18462,4.9912 1.4249,11.09155 0.38805,9.85218 0.94782,12.08698 5.0096,20 l 4.57272,8.90845 -4.68557,0 c -11.55348,0 -30.26934,14.5052 -37.57201,29.11912 -3.73912,7.48265 -9.3778,14.63088 -11.54116,14.63088 -0.5833,0 -2.13971,-2.51756 -3.45868,-5.5946 z m 140.40446,-67.26219 c -4.54321,-2.54757 -10.07986,-10.89321 -7.22675,-10.89321 0.37991,0 4.73928,0.91556 9.6875,2.03458 11.94207,2.70065 14.06361,5.50935 6.53691,8.6542 -5.1539,2.15344 -5.50754,2.16147 -8.99766,0.20443 z m 47.70751,-10.89321 c 0.4249,-0.6875 1.0206,-1.25 1.32378,-1.25 0.30317,0 0.55122,0.5625 0.55122,1.25 0,0.6875 -0.5957,1.25 -1.32378,1.25 -0.72807,0 -0.97612,-0.5625 -0.55122,-1.25 z m -14.50666,-0.82683 c -1.10368,-0.29526 -2.64473,-2.62063 -3.42458,-5.1675 -3.20204,-10.45745 -18.63549,-26.98616 -33.62737,-36.0138 -3.87438,-2.33303 -6.50598,-4.24187 -5.84801,-4.24187 2.33331,0 18.65287,10.22707 25.07597,15.71449 6.97366,5.95779 16.66286,18.10103 20.59862,25.81578 2.43084,4.76482 2.11917,5.2021 -2.77463,3.8929 z m -62.60272,-51.27706 c 0.90234,-0.36109 1.98047,-0.31668 2.39584,0.0987 0.41536,0.41537 -0.32292,0.71081 -1.64062,0.65653 -1.45619,-0.06 -1.75238,-0.35618 -0.75522,-0.75521 z"
         id="path4157"
         inkscape:connector-curvature="0" />
      <path
         style="fill:#004688"
         d="m -558.81647,482.61867 c 2.23437,-0.27728 5.89062,-0.27728 8.125,0 2.23437,0.27729 0.40625,0.50416 -4.0625,0.50416 -4.46875,0 -6.29688,-0.22687 -4.0625,-0.50416 z m -11.85121,-1.21199 c 1.21621,-0.31692 2.90371,-0.29609 3.75,0.0464 0.84629,0.34241 -0.14879,0.60171 -2.21129,0.57624 -2.0625,-0.0255 -2.75492,-0.30563 -1.53871,-0.62256 z m 28.75,0 c 1.21621,-0.31692 2.90371,-0.29609 3.75,0.0464 0.84629,0.34241 -0.14879,0.60171 -2.21129,0.57624 -2.0625,-0.0255 -2.75492,-0.30563 -1.53871,-0.62256 z m 65.94622,-40.13334 c -0.0414,-3.65206 -2.28334,-7.89757 -8.63374,-16.34887 -2.77863,-3.6979 -6.27633,-10.4479 -7.77264,-15 -3.96552,-12.06388 -6.9058,-17.3039 -13.79978,-24.59327 -12.29246,-12.99746 -28.04476,-17.38897 -55.45135,-15.45901 -10.27837,0.7238 -12.88042,0.54418 -14.64044,-1.01066 -3.18817,-2.81649 -5.10787,-9.91117 -4.39444,-16.24067 1.02391,-9.08415 2.26396,-9.6628 21.71935,-10.13496 9.33754,-0.22661 18.21662,-0.10097 19.73128,0.27918 1.60293,0.40231 6.60291,5.87553 11.96301,13.09527 10.81102,14.5618 16.58375,18.91257 25.09379,18.91257 3.21592,0 8.01987,-0.90783 10.67545,-2.01739 3.99724,-1.67016 5.54492,-1.75827 8.99172,-0.51188 4.65869,1.6846 4.64422,1.6926 15.45319,-8.53615 l 5.84291,-5.52927 1.65709,5.48484 c 1.04775,3.46799 1.65709,12.14968 1.65709,23.60985 0,16.47185 -0.31893,19.09777 -3.49662,28.79044 -3.84794,11.737 -14.53938,30.20327 -14.59587,25.20998 z m -168.76948,-17.09502 c -9.82386,-22.91815 -9.88574,-51.22363 -0.1627,-74.42911 12.02417,-28.69746 38.75414,-50.24034 70.40947,-56.74614 10.0557,-2.06665 25.55671,-2.48599 34.1152,-0.92289 3.37635,0.61664 -0.27688,0.96219 -11.25,1.0641 -24.9391,0.23162 -44.69601,6.8405 -61.25,20.48873 -12.55639,10.35235 -23.125,25.28197 -23.125,32.66727 0,2.91765 0.58751,3.31697 5.9375,4.03571 3.95492,0.53132 10.05294,-0.0556 18.2626,-1.7577 6.7788,-1.40545 12.75858,-2.55537 13.2884,-2.55537 0.52982,0 1.27536,5.20312 1.65676,11.5625 0.3814,6.35937 1.04058,12.96875 1.46484,14.6875 0.69774,2.82667 0.0193,3.51065 -7.10686,7.16474 -16.22903,8.32179 -31.27127,25.7239 -36.16652,41.84042 -1.41912,4.67216 -2.82668,8.49484 -3.12789,8.49484 -0.30122,0 -1.62683,-2.51756 -2.9458,-5.5946 z m 140.40446,-67.26219 c -4.54321,-2.54757 -10.07986,-10.89321 -7.22675,-10.89321 0.37991,0 4.73928,0.91556 9.6875,2.03458 11.94207,2.70065 14.06361,5.50935 6.53691,8.6542 -5.1539,2.15344 -5.50754,2.16147 -8.99766,0.20443 z m 47.70751,-10.89321 c 0.4249,-0.6875 1.0206,-1.25 1.32378,-1.25 0.30317,0 0.55122,0.5625 0.55122,1.25 0,0.6875 -0.5957,1.25 -1.32378,1.25 -0.72807,0 -0.97612,-0.5625 -0.55122,-1.25 z m -14.50666,-0.82683 c -1.10368,-0.29526 -2.64473,-2.62063 -3.42458,-5.1675 -3.20204,-10.45745 -18.63549,-26.98616 -33.62737,-36.0138 -3.87438,-2.33303 -6.50598,-4.24187 -5.84801,-4.24187 2.33331,0 18.65287,10.22707 25.07597,15.71449 6.97366,5.95779 16.66286,18.10103 20.59862,25.81578 2.43084,4.76482 2.11917,5.2021 -2.77463,3.8929 z m -62.60272,-51.27706 c 0.90234,-0.36109 1.98047,-0.31668 2.39584,0.0987 0.41536,0.41537 -0.32292,0.71081 -1.64062,0.65653 -1.45619,-0.06 -1.75238,-0.35618 -0.75522,-0.75521 z"
         id="path4155"
         inkscape:connector-curvature="0" />
      <path
         style="fill:#06437a"
         d="m -558.81647,482.61867 c 2.23437,-0.27728 5.89062,-0.27728 8.125,0 2.23437,0.27729 0.40625,0.50416 -4.0625,0.50416 -4.46875,0 -6.29688,-0.22687 -4.0625,-0.50416 z m 83.73431,-61.54771 c -3.27425,-6.55768 -7.07748,-14.91313 -8.45164,-18.56769 -2.35211,-6.25544 -7.76316,-15.32073 -13.72661,-22.99659 l -2.63469,-3.39124 4.75807,-2.07708 c 5.07835,-2.21689 10.65945,-2.68693 14.80613,-1.24698 2.00189,0.69515 4.33301,-0.75073 10.87494,-6.74523 l 8.32686,-7.63006 1.62507,5.36592 c 1.0357,3.41986 1.60571,12.16596 1.57172,24.11591 -0.0489,17.1873 -0.34262,19.58344 -3.52429,28.75 -1.90902,5.5 -4.41627,11.42786 -5.57166,13.17304 l -2.10071,3.17304 -5.95319,-11.92304 z m -173.33173,-6.92304 c -3.97771,-12.3602 -4.84352,-31.77724 -2.03698,-45.6823 7.76042,-38.44917 36.94624,-67.44512 75.9567,-75.46255 10.0557,-2.06665 25.55671,-2.48599 34.1152,-0.92289 3.37635,0.61664 -0.27688,0.96219 -11.25,1.0641 -24.9391,0.23162 -44.69601,6.8405 -61.25,20.48873 -12.64492,10.42533 -23.125,25.28306 -23.125,32.78456 0,2.74571 0.56779,3.35535 3.125,3.35535 4.11482,0 3.97183,1.96074 -0.3125,4.28503 -4.94101,2.68054 -2.03943,2.38253 5.79511,-0.5952 6.57973,-2.50081 25.47459,-7.41367 28.57989,-7.43107 1.12743,-0.006 1.55215,2.8627 1.52533,10.30374 l -0.0372,10.3125 -7.77532,4.34033 c -16.33161,9.1166 -36.36085,33.01852 -39.43253,47.05684 l -1.06182,4.85283 -2.8159,-8.75 z m 67.89351,-54.91776 c -1.24185,-3.2362 0.35642,-12.08258 2.58659,-14.31672 1.60716,-1.61002 5.42763,-2.09841 18.98929,-2.42754 9.33754,-0.22661 18.26823,-0.088 19.84598,0.30797 2.77948,0.6976 15.2364,16.50387 13.98944,17.75083 -0.33129,0.33129 -4.40488,-0.0598 -9.05241,-0.86917 -8.49138,-1.47871 -37.13395,-0.96293 -42.76479,0.77009 -2.00338,0.61658 -3.02345,0.27162 -3.5941,-1.21546 z m 76.1839,-2.31403 c -3.19082,-1.78922 -7.91749,-7.53657 -7.91749,-9.62719 0,-1.66716 4.49037,-0.94067 14.29209,2.31228 7.68044,2.54894 8.49588,4.65666 2.73315,7.06448 -5.27189,2.20274 -5.60951,2.21202 -9.10775,0.25043 z m 47.70751,-10.89321 c 0.4249,-0.6875 1.0206,-1.25 1.32378,-1.25 0.30317,0 0.55122,0.5625 0.55122,1.25 0,0.6875 -0.5957,1.25 -1.32378,1.25 -0.72807,0 -0.97612,-0.5625 -0.55122,-1.25 z m -14.50666,-0.82683 c -1.10368,-0.29526 -2.64473,-2.62063 -3.42458,-5.1675 -3.20204,-10.45745 -18.63549,-26.98616 -33.62737,-36.0138 -3.87438,-2.33303 -6.50598,-4.24187 -5.84801,-4.24187 2.33331,0 18.65287,10.22707 25.07597,15.71449 6.97366,5.95779 16.66286,18.10103 20.59862,25.81578 2.43084,4.76482 2.11917,5.2021 -2.77463,3.8929 z m -62.60272,-51.27706 c 0.90234,-0.36109 1.98047,-0.31668 2.39584,0.0987 0.41536,0.41537 -0.32292,0.71081 -1.64062,0.65653 -1.45619,-0.06 -1.75238,-0.35618 -0.75522,-0.75521 z"
         id="path4153"
         inkscape:connector-curvature="0" />
      <path
         style="fill:#00396e"
         d="m -468.76948,419.37388 c -1.0735,-2.25117 -3.50532,-7.97614 -5.40402,-12.72215 -3.63467,-9.08525 -9.44809,-19.5573 -14.92142,-26.87881 l -3.27061,-4.375 2.69426,-2.1875 c 3.01753,-2.44997 5.63433,-2.81115 6.7923,-0.9375 1.43054,2.31466 5.50945,1.27508 9.80903,-2.5 2.34904,-2.0625 4.75924,-3.75356 5.356,-3.7579 0.59673,-0.004 2.10751,-1.80393 3.35727,-3.99906 2.8492,-5.00443 3.90915,-3.60345 5.9612,7.87914 2.05235,11.48419 0.85331,32.12317 -2.4714,42.54056 -3.42723,10.73857 -5.30441,12.38669 -7.90261,6.93822 z m -181.01739,-13.03846 c -0.77022,-2.57813 -1.71178,-9.78981 -2.09236,-16.02598 -2.80932,-46.03422 30.26438,-87.62213 77.38506,-97.30637 10.0557,-2.06665 25.55671,-2.48599 34.1152,-0.92289 3.37635,0.61664 -0.27688,0.96219 -11.25,1.0641 -19.3959,0.18014 -30.91394,2.80018 -45.3584,10.31782 -18.07662,9.40801 -30.62674,22.26016 -39.72968,40.68582 -5.399,10.92834 -8.33885,20.2638 -6.03915,19.17722 0.61998,-0.29294 5.34598,-2.60933 10.50223,-5.14754 8.9511,-4.40626 26.21335,-9.65381 31.76245,-9.65546 2.35546,-7e-4 2.57041,0.60709 2.18438,6.17626 l -0.42817,6.17704 -8.94683,5.2627 c -12.44624,7.32113 -28.88335,24.15616 -34.97558,35.82228 -2.60291,4.98437 -4.95671,9.0625 -5.23066,9.0625 -0.27394,0 -1.12826,-2.10938 -1.89849,-4.6875 z m 142.441,-52.7121 c -2.17942,-2.17942 -3.6209,-4.30426 -3.20329,-4.72187 1.0022,-1.00221 16.86246,3.31454 17.80979,4.84735 1.09786,1.77637 -0.0315,2.41368 -5.60103,3.16071 -4.44462,0.59615 -5.51299,0.20629 -9.00547,-3.28619 z m -72.4081,-2.43257 c 0,-1.98645 0.71966,-4.20898 1.59924,-4.93897 2.10967,-1.75087 31.45231,-3.23394 37.51494,-1.89612 3.24888,0.71692 5.48897,2.23001 7.12357,4.81168 l 2.3844,3.7659 -18.99858,-0.0177 c -10.44921,-0.01 -21.3892,0.41086 -24.31107,0.93461 -5.24396,0.93999 -5.3125,0.90568 -5.3125,-2.65944 z m 123.125,-5.16783 c 0.4249,-0.6875 1.0206,-1.25 1.32378,-1.25 0.30317,0 0.55122,0.5625 0.55122,1.25 0,0.6875 -0.5957,1.25 -1.32378,1.25 -0.72807,0 -0.97612,-0.5625 -0.55122,-1.25 z m -14.59821,-1.78887 c -0.90849,-0.98387 -3.62054,-5.31697 -6.02679,-9.6291 -5.47269,-9.80734 -19.6314,-23.98751 -30.09893,-30.14453 -4.38304,-2.57813 -7.41056,-4.6875 -6.7278,-4.6875 2.37087,0 18.63835,10.17613 25.12108,15.71449 10.74,9.17547 25.56645,30.53551 21.19534,30.53551 -0.99612,0 -2.55443,-0.80499 -3.4629,-1.78887 z m -62.51117,-50.31502 c 0.90234,-0.36109 1.98047,-0.31668 2.39584,0.0987 0.41536,0.41537 -0.32292,0.71081 -1.64062,0.65653 -1.45619,-0.06 -1.75238,-0.35618 -0.75522,-0.75521 z"
         id="path4151"
         inkscape:connector-curvature="0" />
      <path
         style="fill:#062d51"
         d="m -461.00397,400.59284 c 0,-0.92403 -3.44187,-7.16907 -7.64861,-13.87784 l -7.64861,-12.19778 2.45973,-3.30965 c 1.35363,-1.82135 3.97188,-3.48963 5.8224,-3.70989 2.58826,-0.30806 3.53256,-1.24964 4.10034,-4.08851 1.09268,-5.46335 2.60355,-5.54692 4.17182,-0.23075 3.09239,10.48257 3.02138,39.0945 -0.097,39.0945 -0.63803,0 -1.16005,-0.75604 -1.16005,-1.68008 z m -190.46806,-8.65504 c -1.31061,-4.88958 -0.84173,-14.47867 1.19337,-24.40508 7.70962,-37.60466 37.19104,-66.59792 75.78449,-74.52965 10.0557,-2.06665 25.55671,-2.48599 34.1152,-0.92289 3.37635,0.61664 -0.27688,0.96219 -11.25,1.0641 -11.93831,0.11088 -18.78512,0.82187 -25.80441,2.6796 -28.1447,7.44881 -49.30888,25.66937 -62.99977,54.23747 -3.67026,7.65855 -5.64271,15.96157 -3.7918,15.96157 0.29096,0 4.65952,-2.22797 9.70792,-4.95104 8.36169,-4.51024 24.21121,-9.76748 25.51533,-8.46336 0.29461,0.29461 -2.82528,2.61014 -6.93309,5.14562 -9.84252,6.07515 -23.51684,19.48031 -29.76966,29.18366 -4.42159,6.86161 -5.10888,7.45743 -5.76758,5 z m 194.84306,-45.91488 c 0.4249,-0.6875 1.0206,-1.25 1.32378,-1.25 0.30317,0 0.55122,0.5625 0.55122,1.25 0,0.6875 -0.5957,1.25 -1.32378,1.25 -0.72807,0 -0.97612,-0.5625 -0.55122,-1.25 z m -15.37064,-3.9344 c -4.30356,-7.95165 -16.40154,-23.09131 -22.6832,-28.38623 -3.55325,-2.9951 -9.63038,-7.35447 -13.50477,-9.6875 -3.87438,-2.33303 -6.50598,-4.24187 -5.84801,-4.24187 2.33331,0 18.65287,10.22707 25.07597,15.71449 6.97366,5.95779 16.66286,18.10103 20.59862,25.81578 2.08843,4.09363 2.14803,4.71973 0.44929,4.71973 -1.0772,0 -2.91675,-1.77048 -4.0879,-3.9344 z m -61.73874,-48.16949 c 0.90234,-0.36109 1.98047,-0.31668 2.39584,0.0987 0.41536,0.41537 -0.32292,0.71081 -1.64062,0.65653 -1.45619,-0.06 -1.75238,-0.35618 -0.75522,-0.75521 z"
         id="path4149"
         inkscape:connector-curvature="0" />
    </g>
  </g>
</svg>
