<?xml version="1.0" encoding="UTF-8" standalone="no"?>
<!-- Created with Inkscape (http://www.inkscape.org/) -->

<svg
   xmlns:dc="http://purl.org/dc/elements/1.1/"
   xmlns:cc="http://creativecommons.org/ns#"
   xmlns:rdf="http://www.w3.org/1999/02/22-rdf-syntax-ns#"
   xmlns:svg="http://www.w3.org/2000/svg"
   xmlns="http://www.w3.org/2000/svg"
   xmlns:sodipodi="http://sodipodi.sourceforge.net/DTD/sodipodi-0.dtd"
   xmlns:inkscape="http://www.inkscape.org/namespaces/inkscape"
   width="128"
   height="128"
   viewBox="0 0 128 128"
   id="svg2"
   version="1.1"
   inkscape:version="0.91 r13725"
   sodipodi:docname="scrivener.svg">
  <defs
     id="defs4" />
  <sodipodi:namedview
     id="base"
     pagecolor="#ffffff"
     bordercolor="#666666"
     borderopacity="1.0"
     inkscape:pageopacity="0.0"
     inkscape:pageshadow="2"
     inkscape:zoom="2.8"
     inkscape:cx="135.0249"
     inkscape:cy="72.775497"
     inkscape:document-units="px"
     inkscape:current-layer="g4147"
     showgrid="false"
     units="px"
     inkscape:window-width="1366"
     inkscape:window-height="706"
     inkscape:window-x="-8"
     inkscape:window-y="-8"
     inkscape:window-maximized="1" />
  <metadata
     id="metadata7">
    <rdf:RDF>
      <cc:Work
         rdf:about="">
        <dc:format>image/svg+xml</dc:format>
        <dc:type
           rdf:resource="http://purl.org/dc/dcmitype/StillImage" />
        <dc:title></dc:title>
      </cc:Work>
    </rdf:RDF>
  </metadata>
  <g
     inkscape:label="Capa 1"
     inkscape:groupmode="layer"
     id="layer1"
     transform="translate(0,-924.36216)">
    <g
       id="g4147"
       transform="matrix(1.1133787,0,0,1.1133787,175.34662,398.92719)">
      <g
         id="g4183"
         transform="matrix(0.92055394,0,0,0.90802431,-124.90567,49.676996)">
        <path
           inkscape:connector-curvature="0"
           id="path4179"
           d="m -18.03999,588.3689 c -6.994166,-1.06602 -12.79514,-6.41939 -14.587885,-13.46229 -0.807654,-3.17291 -1.228113,-19.56794 -1.228113,-47.88799 l 0,-43.06326 3.00202,-5.8073 c 2.214453,-4.28378 4.147571,-6.38852 7.368594,-8.02277 4.15469,-2.10795 6.479057,-2.23029 47.901149,-2.52129 49.649939,-0.3488 52.687797,0.006 57.907568,6.77642 6.08707,7.89455 6.085247,7.87863 6.078665,53.15804 -0.0065,43.95072 -0.408122,48.36083 -4.84799,53.21873 -1.357055,1.48483 -2.744654,3.48581 -3.083544,4.44664 -0.338901,0.96082 -2.007434,2.11836 -3.707866,2.57232 -4.184488,1.11712 -87.926818,1.64071 -94.802598,0.59275 z m 92.529633,-92.90741 8.460238,-0.0147 -0.01644,-3.5096 c -0.03782,-8.0763 -5.760091,-17.0081 -10.896449,-17.0081 -1.131892,0 -2.361585,-0.48594 -2.732657,-1.07988 -0.371071,-0.59393 -2.405248,-1.07988 -4.520396,-1.07988 l -3.845723,0 0.362307,11.93146 c 0.343788,11.32158 0.473902,11.90189 2.545594,11.35347 1.200808,-0.31789 5.990395,-0.58462 10.643526,-0.59273 z M 45.833997,491.7407 c 0,-2.98016 -4.989627,-7.09274 -8.605352,-7.09274 -1.962312,0 -2.110375,0.32403 -1.110248,2.42973 1.049255,2.20913 6.904435,6.93918 8.896867,7.18725 0.450303,0.056 0.818733,-1.07985 0.818733,-2.52424 z m -30.566022,-4.93298 c 0,-0.59394 -0.736859,-1.07988 -1.637465,-1.07988 -0.900606,0 -1.637466,0.48594 -1.637466,1.07988 0,0.59393 0.73686,1.07988 1.637466,1.07988 0.900606,0 1.637465,-0.48595 1.637465,-1.07988 z m 7.345853,-3.89207 c -0.362745,-0.35883 -1.304287,-0.3972 -2.092318,-0.0853 -0.87084,0.34473 -0.612167,0.60062 0.659535,0.65243 1.150774,0.0469 1.795526,-0.20834 1.432783,-0.56717 z"
           style="fill:#f3f3f3" />
        <path
           inkscape:connector-curvature="0"
           id="path4177"
           d="m -20.210443,586.81786 c -4.606019,-1.98865 -11.102446,-9.46311 -12.475168,-14.3533 -1.6104,-5.7369 -1.564193,-83.67023 0.05302,-89.43286 1.631047,-5.81188 8.940472,-12.92756 14.914089,-14.51875 5.603818,-1.49269 83.629678,-0.53159 89.975215,1.10829 5.374314,1.38888 10.54721,5.84384 13.007818,11.20247 1.837269,4.00115 2.003974,7.95736 2.003974,47.55935 0,39.76915 -0.160352,43.53776 -2.021659,47.51467 -2.353081,5.02764 -7.00511,9.6371 -11.374097,11.27003 -4.796824,1.79284 -89.852946,1.47651 -94.083197,-0.3499 z m 52.398895,-62.75004 c 0,-1.47351 -1.726953,-3.08845 -5.458219,-5.1042 -3.00202,-1.6218 -5.826647,-2.96007 -6.27695,-2.97395 -0.450303,-0.0139 -0.818733,2.1259 -0.818733,4.75506 0,5.35699 0.835329,5.93323 8.187327,5.64798 3.578727,-0.13884 4.366575,-0.55832 4.366575,-2.32489 z M 79.67495,513.31841 c 0,-0.86139 0.69029,-1.95476 1.533977,-2.42973 1.100923,-0.61977 1.723564,-4.21709 2.205503,-12.74223 0.618973,-10.94905 0.477561,-12.25522 -1.806889,-16.69014 -3.049626,-5.92038 -10.022238,-9.90091 -16.62981,-9.49364 l -4.326604,0.26668 -0.03998,10.25885 c -0.02199,5.64237 -0.437392,10.86628 -0.923129,11.6087 -0.485736,0.74242 -2.590073,1.34985 -4.676301,1.34985 -3.160538,0 -4.160299,-0.61558 -5.994638,-3.69105 -2.726437,-4.57116 -5.532458,-6.43148 -13.017729,-8.63041 -7.421439,-2.18018 -16.62076,-2.19992 -20.83387,-0.0447 -3.642679,1.8634 -7.5286861,7.42095 -7.5349391,10.77605 -0.00589,3.18267 2.6184981,6.40099 8.3283751,10.21301 4.774626,3.18763 5.131948,3.26405 7.085285,1.51536 1.997742,-1.78845 1.961704,-1.89895 -1.249323,-3.83065 -4.392952,-2.64272 -5.950167,-6.77557 -4.441317,-11.78726 3.41405,-11.33987 19.926086,-7.3992 19.638463,4.6868 -0.05984,2.51484 -0.468004,5.78731 -0.907013,7.27214 -0.613958,2.07656 -0.0849,3.60797 2.292102,6.63467 1.699665,2.16424 3.0903,4.47248 3.0903,5.12943 0,0.82717 5.874073,1.19445 19.103764,1.19445 15.962461,0 19.103763,-0.25753 19.103763,-1.56616 z m -46.940677,-3.83323 c 0,-0.59394 -0.216627,-1.07988 -0.481396,-1.07988 -0.264768,0 -0.784999,0.48594 -1.156069,1.07988 -0.37107,0.59393 -0.154441,1.07987 0.481396,1.07987 0.635838,0 1.156069,-0.48594 1.156069,-1.07987 z"
           style="fill:#ebebeb" />
        <path
           inkscape:connector-curvature="0"
           id="path4175"
           d="m -19.118799,586.7068 c -5.699956,-1.97727 -11.959592,-8.95258 -13.513969,-15.05905 -1.572277,-6.17678 -1.671006,-81.58217 -0.114076,-87.12682 1.681171,-5.98711 5.573239,-10.93575 10.941184,-13.9114 4.61259,-2.55692 5.736123,-2.69593 21.24480254,-2.62844 15.00905646,0.0653 59.73273946,1.07832 62.16910546,1.40817 0.570383,0.0772 0.447574,0.72353 -0.272911,1.43625 -0.836927,0.82791 -1.309973,5.03944 -1.309973,11.66269 0,6.62325 -0.473045,10.83478 -1.309972,11.66269 -2.593351,2.56541 -5.998111,1.38087 -10.033496,-3.49072 -4.951949,-5.97807 -13.301951,-9.36686 -23.589128,-9.57346 -11.227784,-0.2255 -17.4662982,4.5584 -17.4662982,13.39374 0,4.42854 5.7858502,10.05902 16.0770002,15.64527 4.066336,2.20728 13.343274,7.311 20.615417,11.34161 l 13.222079,7.32837 7.519151,-1.62101 c 4.135534,-0.89154 9.729728,-1.96085 12.431546,-2.37623 4.51995,-0.69488 4.97605,-1.05636 5.709132,-4.52465 0.438197,-2.07318 1.217248,-10.81563 1.731216,-19.42767 0.839463,-14.0661 0.972654,-11.54064 1.309808,24.83722 0.424475,45.79902 0.390394,46.85683 -1.63252,50.67414 -2.416222,4.55949 -8.461679,9.52358 -13.121676,10.77457 -6.964613,1.86968 -85.0472,1.50319 -90.606422,-0.42527 z m 45.303211,-22.73616 c 0,-0.1965 -0.948448,-0.28662 -2.107661,-0.20024 -1.159213,0.0864 -1.880341,0.52091 -1.602505,0.96561 0.461147,0.73811 3.710166,0.0679 3.710166,-0.76537 z m 4.080667,-4.47679 c -1.014969,-1.00403 -2.211296,-1.46355 -2.658507,-1.02115 -0.44721,0.44238 -0.09048,1.25642 0.792741,1.80897 2.657685,1.66265 3.838784,1.16394 1.865766,-0.78782 z m 6.06649,-32.1845 c 1.895308,-1.31321 1.797853,-1.55949 -1.608611,-4.06501 -5.241257,-3.85502 -17.738396,-10.51953 -19.726011,-10.51953 -0.934273,0 -2.200743,1.42471 -2.814378,3.16601 -2.045531,5.80457 0.77342,11.17868 6.81737,12.9968 4.168029,1.2538 14.617582,0.30224 17.33163,-1.57827 z M 28.64061,473.13399 c -0.750505,-0.29957 -1.978604,-0.29957 -2.729109,0 -0.750505,0.29957 -0.136456,0.54467 1.364554,0.54467 1.50101,0 2.11506,-0.2451 1.364555,-0.54467 z m 20.468318,-1.44458 c 0,-0.59393 -1.257091,-1.07988 -2.793535,-1.07988 -1.584375,0 -2.501508,0.46742 -2.118861,1.07988 0.37107,0.59393 1.62816,1.07988 2.793534,1.07988 1.165375,0 2.118862,-0.48595 2.118862,-1.07988 z m -25.107804,35.85198 c 0,-1.06908 0.571233,-2.50886 1.269406,-3.19951 0.96478,-0.95437 0.527684,-1.53469 -1.821413,-2.41818 -4.239757,-1.59458 -5.922186,-4.12135 -5.963137,-8.95577 -0.06204,-7.32391 7.600551,-11.79087 14.217117,-8.28796 2.740246,1.45073 5.404036,6.62743 5.373776,10.44318 -0.03315,4.18012 -3.699975,11.78606 -6.361315,13.19502 -3.449352,1.82614 -6.714434,1.44841 -6.714434,-0.77678 z m 58.590392,-26.39576 c -1.524262,-3.60875 -5.612064,-7.22992 -9.895586,-8.76597 -1.136641,-0.4076 -1.766443,-1.03803 -1.399552,-1.40096 2.169368,-2.146 11.658044,5.3402 13.315214,10.50518 1.237716,3.85766 -0.360865,3.58999 -2.020076,-0.33825 z M 65.77727,469.86119 c 1.062133,-0.2738 2.535853,-0.25579 3.274928,0.0401 0.739076,0.29581 -0.129938,0.51982 -1.93115,0.49781 -1.801212,-0.022 -2.405913,-0.26403 -1.343778,-0.53782 z"
           style="fill:#e3e3e3" />
        <path
           inkscape:connector-curvature="0"
           id="path4173"
           d="m -17.606795,586.84124 c -6.254327,-2.2343 -10.42107,-5.72616 -12.915631,-10.8237 -2.257497,-4.61311 -2.304777,-5.78037 -2.004069,-49.47751 l 0.307972,-44.75295 2.630669,-3.79637 c 1.446867,-2.088 4.356103,-4.9674 6.464966,-6.39868 3.561583,-2.41722 5.00058,-2.62728 20.2319423,-2.95331 16.4841777,-0.35284 23.6171387,0.21845 23.6171387,1.89155 0,0.49651 -2.087768,1.44075 -4.639485,2.09832 -10.2594285,2.64381 -9.8658418,5.37274 0.496748,3.4442 6.406252,-1.19224 15.178823,-0.60588 24.338145,1.62677 1.200808,0.29272 -0.02729,-0.63101 -2.729109,-2.05273 -2.701818,-1.42171 -6.754545,-2.91576 -9.00606,-3.32011 -4.894965,-0.87908 -5.302141,-2.3629 -0.910254,-3.31713 4.228106,-0.91863 10.757949,0.30862 14.957561,2.81123 4.455151,2.65487 5.277166,2.56586 6.798054,-0.73615 1.086647,-2.35924 1.872501,-2.71543 5.360532,-2.42973 l 4.087218,0.33477 0.318025,11.33873 c 0.289296,10.31448 0.117088,11.5004 -1.90639,13.12845 -3.020666,2.43037 -6.093702,1.39554 -8.666791,-2.91853 -4.843586,-8.12079 -24.636196,-12.98058 -33.878812,-8.31846 -7.2125061,3.63812 -10.0051522,10.76317 -6.6495913,16.96552 1.8210363,3.36597 10.2921873,9.14701 26.2215773,17.89463 6.904646,3.79167 15.454689,8.7364 19.000097,10.98828 3.545407,2.25187 7.598134,4.0943 9.00606,4.0943 1.451752,0 2.559865,0.64667 2.559865,1.49388 0,0.82162 0.955314,1.74099 2.122921,2.04304 1.710112,0.44238 2.187728,-0.0807 2.456196,-2.69002 0.283544,-2.7558 1.041319,-3.47487 5.077759,-4.81842 2.609465,-0.86858 5.408941,-1.327 6.221069,-1.01872 0.83871,0.31838 1.770472,-0.35545 2.156881,-1.55982 0.374172,-1.16618 1.136172,-1.84162 1.693357,-1.50097 1.380657,0.84409 1.285542,44.29298 -0.107854,49.25549 -1.166934,4.15603 -7.59737,11.24825 -11.630109,12.827 -1.309209,0.51253 -21.450029,1.18501 -44.757388,1.49439 -33.2724426,0.44166 -43.224851,0.25962 -46.323232,-0.84724 z m 78.692189,-7.12175 c 0.883217,-0.55254 1.272834,-1.33405 0.865813,-1.7367 -0.998955,-0.98818 -4.10913,0.26873 -4.10913,1.66063 0,1.37156 1.130166,1.39807 3.243317,0.076 z M 30.73794,567.09133 c 3.984237,-3.56683 0.883104,-10.09148 -4.796426,-10.09148 -1.067214,0 -1.94039,-0.48595 -1.94039,-1.07988 0,-2.6786 -1.990267,-0.71665 -2.464796,2.42973 -1.223156,8.11017 4.176708,13.2401 9.201612,8.74163 z m 6.511271,-30.32771 c 2.121459,-1.23968 3.118077,-2.61653 2.931223,-4.04955 -0.155712,-1.19419 0.145061,-2.85217 0.668384,-3.68439 0.669566,-1.06481 0.05063,-2.18469 -2.088866,-3.77958 -4.373419,-3.26016 -27.016723,-15.76492 -28.546718,-15.76492 -0.7094373,0 -2.0726361,2.27248 -3.0293296,5.04996 -1.5329744,4.45055 -1.5502246,5.33564 -0.1453284,7.45667 1.3003572,1.96321 12.811313,9.33431 24.058232,15.40581 2.797671,1.51028 2.415474,1.54967 6.152403,-0.634 z M 25.376195,505.97557 c 0.504272,-3.10987 0.178874,-3.69411 -2.856896,-5.12943 -7.570836,-3.57951 -6.156066,-14.80277 2.125172,-16.85883 3.624146,-0.8998 8.571127,1.29435 10.355824,4.59315 3.021505,5.58489 0.588206,15.56498 -4.685972,19.21935 -3.999346,2.77105 -5.588099,2.18414 -4.938128,-1.82424 z"
           style="fill:#dadada" />
        <path
           inkscape:connector-curvature="0"
           id="path4171"
           d="m -20.210443,585.53825 c -4.940455,-2.54179 -8.255285,-5.92922 -10.490648,-10.7204 -1.851599,-3.96864 -2.015304,-7.78445 -2.015304,-46.97473 0,-39.19029 0.163705,-43.0061 2.015304,-46.97474 2.43901,-5.22767 5.894902,-8.51765 11.289217,-10.74724 6.687846,-2.76426 40.406469,-2.05198 36.831523,0.77802 -0.282815,0.22388 -2.833291,1.25697 -5.667725,2.29578 -2.8344328,1.0388 -6.7210564,3.33724 -8.6369401,5.10765 -3.22962548,2.98441 -3.35288514,3.34808 -1.691755,4.9913 1.6611301,1.64323 1.9722649,1.60896 4.2703658,-0.47022 9.1058463,-8.23847 24.0828553,-8.75445 40.0163313,-1.37863 7.402089,3.42652 8.784773,3.16787 8.85541,-1.65654 0.01739,-1.18786 0.306994,-3.37462 0.64356,-4.85945 0.533343,-2.35296 0.426275,-2.47964 -0.833639,-0.9863 -2.951508,3.49833 -5.570555,4.11539 -10.185728,2.39978 -2.397765,-0.89132 -6.653571,-2.42439 -9.457349,-3.40682 -6.853746,-2.40152 -7.589316,-3.41286 -2.452758,-3.37229 2.351582,0.0186 6.731802,1.23545 9.733822,2.70416 l 5.458219,2.67038 2.289365,-2.78488 c 1.781355,-2.16692 3.087955,-2.70706 5.888224,-2.43419 l 3.598857,0.3507 -0.225992,10.77027 c -0.124296,5.92365 -0.746378,11.39053 -1.382404,12.14864 -2.062169,2.45798 -5.169659,1.48001 -7.701817,-2.42387 -3.769692,-5.81183 -12.187199,-9.45307 -23.171097,-10.02336 -6.895212,-0.35801 -9.734823,-0.0537 -12.447428,1.33393 -4.3506627,2.22556 -7.7748628,7.58796 -7.7802643,12.18412 -0.00786,6.68939 5.8017453,11.25935 34.8307043,27.39854 14.803184,8.23011 20.923236,13.85529 24.040171,22.09625 4.492861,11.87886 2.044164,23.00949 -7.245687,32.9355 -3.17913,3.39684 -5.780236,6.47557 -5.780236,6.84164 0,1.103 14.436295,0.73619 18.860687,-0.47924 2.267934,-0.62301 5.912037,-2.68557 8.098009,-4.58346 2.697943,-2.34236 3.595088,-2.757 2.793222,-1.29094 -2.041778,3.73297 -7.390701,8.09996 -11.268939,9.20025 -2.149731,0.60988 -21.549231,1.05578 -45.766863,1.05195 -35.950439,-0.005 -42.509565,-0.25057 -45.310418,-1.69156 z m 52.5817,-19.48386 c 1.677304,-2.53231 1.704004,-3.11775 0.258376,-5.66557 -0.966751,-1.70382 -2.864059,-3.05912 -4.738965,-3.38517 -1.79232,-0.31168 -3.471144,-1.46547 -3.933736,-2.7035 -0.742732,-1.98776 -0.903508,-1.91766 -2.018869,0.88021 -2.835144,7.11194 -0.25092,13.69816 5.374727,13.69816 2.233236,0 3.748031,-0.84571 5.058467,-2.82413 z m 12.585644,-25.77925 c 5.26709,-3.54052 6.173793,-6.45301 2.870721,-9.2213 -3.992695,-3.34627 -15.869324,-10.95608 -26.009785,-16.66547 -5.103434,-2.8734 -11.369264,-6.635 -13.9240684,-8.35911 L 3.248671,502.8945 2.2339697,505.53461 c -1.93616211,5.03761 -2.4519681,10.19667 -1.24290618,12.43148 1.67847848,3.10246 12.62771248,10.59949 26.83081348,18.37125 6.604444,3.61388 12.262476,6.5827 12.573404,6.59738 0.31093,0.0147 2.363658,-1.18212 4.56162,-2.65958 z M 25.595714,505.35876 c 0.561778,-2.53019 0.216229,-3.25394 -2.038813,-4.27034 -9.489996,-4.27733 -6.406824,-16.96166 4.051417,-16.66775 8.958327,0.25176 11.596637,14.34404 4.077906,21.78175 -1.224785,1.21158 -3.248392,2.20288 -4.496905,2.20288 -1.922355,0 -2.166426,-0.4666 -1.593605,-3.04654 z"
           style="fill:#c7c7c7" />
        <path
           inkscape:connector-curvature="0"
           id="path4169"
           d="m -20.756265,584.81339 c -2.701818,-1.43121 -6.386115,-4.6712 -8.187327,-7.19999 l -3.274931,-4.5978 -0.342024,-42.29403 c -0.358255,-44.30111 -0.07575,-47.73077 4.450314,-54.02771 1.223389,-1.70206 4.729419,-4.24852 7.791176,-5.65882 4.963835,-2.28642 7.104037,-2.56352 19.75819954,-2.55818 17.34319146,0.008 19.67262646,0.9559 11.32042746,4.60983 -10.49435998,4.59108 -18.9792617,16.16547 -15.1747919,20.70018 1.0076362,1.20104 1.1746839,3.84592 0.615639,9.74747 -0.6849824,7.231 -0.5097627,8.51127 1.6346097,11.94355 1.32100778,2.1144 4.9241643,5.70803 8.0070139,7.98585 5.3372713,3.94355 39.5807103,23.8172 41.0383943,23.8172 0.381565,0 2.610344,-1.94161 4.95284,-4.31469 l 4.259085,-4.3147 -2.237549,-2.97448 C 51.232547,532.19115 35.263313,521.29724 19.697662,512.3757 4.9811848,503.94086 2.1682516,501.07789 2.1682516,494.53448 c 0,-6.64696 3.7134191,-12.09795 10.4340284,-15.31628 4.403108,-2.10854 6.204957,-2.34343 13.95842,-1.81959 10.980409,0.74185 17.680801,2.99404 23.456227,7.88432 l 4.437475,3.75737 0.602941,-3.54602 c 0.331618,-1.95031 0.725415,-6.21872 0.875106,-9.48535 0.149689,-3.26664 0.763402,-5.93934 1.363806,-5.93934 1.20341,0 2.11246,16.87191 1.120029,20.78767 -0.977972,3.85871 -5.222789,3.1437 -8.788112,-1.48031 -4.143122,-5.37337 -12.705217,-9.06502 -22.771253,-9.81812 -6.976935,-0.52197 -8.610833,-0.28343 -12.368441,1.8057 -5.2609087,2.92493 -7.9536518,7.1441 -7.9536518,12.46231 0,7.59059 5.7769308,12.53176 29.4743778,25.21027 20.582973,11.01223 25.883238,15.78402 29.44242,26.50682 1.914321,5.7673 0.941,17.34786 -1.92463,22.89918 -1.256048,2.43323 -5.036975,6.91326 -8.40206,9.95561 -6.114097,5.52772 -6.116318,5.53205 -3.20561,6.25472 1.602,0.39775 6.905851,0.43085 11.786335,0.0735 5.730623,-0.41951 8.249384,-0.29139 7.111225,0.36172 -0.969314,0.55622 -20.864518,1.3073 -44.211568,1.66907 l -42.449184,0.6578 -4.912397,-2.60218 z m 53.217628,-17.87013 c 1.510351,-1.90064 1.767633,-5.49522 0.529105,-7.39232 -0.441109,-0.67565 -2.644165,-1.98721 -4.89568,-2.91456 -2.546054,-1.04866 -4.108287,-2.42135 -4.132346,-3.63097 -0.03062,-1.53958 -0.363808,-1.38228 -1.598783,0.7548 -1.939945,3.35701 -2.096148,10.89377 -0.272911,13.16787 2.687266,3.3518 7.713323,3.35915 10.370615,0.0152 z M 26.563831,505.1788 c 0.563662,-2.78794 0.281987,-3.31845 -2.072299,-3.90297 -3.580903,-0.88907 -5.948626,-4.3794 -5.948626,-8.76906 0,-9.99982 14.50784,-10.73317 17.012854,-0.85996 1.05901,4.17395 -0.41865,9.85539 -3.507785,13.48706 -3.718754,4.37186 -6.363339,4.39353 -5.484144,0.0449 z M 50.26046,472.68609 c 1.67542,-2.32755 2.736289,-2.9821 3.5418,-2.18527 1.365284,1.35056 -1.949085,5.50811 -4.391036,5.50811 -1.145056,0 -0.926194,-0.85635 0.849236,-3.32284 z m -9.280154,1.25704 c -0.338783,-0.54225 -2.578352,-1.31389 -4.976822,-1.71473 -2.39847,-0.40086 -4.360854,-1.22473 -4.360854,-1.83086 0,-0.66053 1.202681,-0.80748 3.00202,-0.3668 3.433242,0.84084 10.21674,4.85262 8.251753,4.88011 -0.715072,0.01 -1.577315,-0.42546 -1.916097,-0.96772 z"
           style="fill:#bebec0" />
        <path
           inkscape:connector-curvature="0"
           id="path4167"
           d="m -17.623434,586.20069 c -5.007983,-1.51395 -9.61076,-5.68838 -12.419175,-11.2634 l -2.721736,-5.40295 0.0061,-40.5534 c 0.0039,-26.37322 0.429615,-42.06255 1.217315,-44.86936 1.581227,-5.63437 8.913277,-12.8874 14.609033,-14.45159 4.589268,-1.26032 27.514965,-1.67766 30.473137,-0.55474 2.781294,1.05578 2.014514,2.15702 -2.41628,3.4702 -5.5959993,1.65853 -12.6338979,7.82216 -15.4105895,13.49622 -1.7075468,3.48931 -2.2792559,6.74769 -2.2792559,12.99034 0,16.06245 4.6805575,21.44051 31.6576654,36.37527 5.703838,3.1577 13.563672,7.88877 17.466298,10.51352 l 7.095684,4.77224 4.093664,-4.55962 c 2.251515,-2.50781 4.093663,-4.99395 4.093663,-5.52476 0,-0.53083 -1.97193,-3.08136 -4.382065,-5.66788 C 48.959322,530.14071 36.846237,521.93136 18.47598,511.26121 6.0098384,504.02038 3.2673403,501.35322 2.5047071,495.72864 1.0099762,484.70468 12.861706,475.97125 27.27608,477.47482 c 10.111083,1.0547 17.295123,3.73294 22.331534,8.3253 2.561842,2.33598 4.971389,4.24723 5.354548,4.24723 0.383159,0 0.696653,-2.11892 0.696653,-4.70873 0,-6.33606 1.213845,-14.72909 2.130201,-14.72909 1.261786,0 1.322243,18.17182 0.06817,20.48982 -1.789045,3.30684 -5.001345,2.65804 -7.62405,-1.53985 -4.283729,-6.85652 -19.996819,-12.22871 -30.310704,-10.36301 -9.656263,1.74675 -15.989822,10.0702 -13.4516796,17.67796 2.0879584,6.25839 9.8066886,12.19536 28.9926526,22.3001 19.715481,10.38363 25.326322,15.18713 29.046221,24.86675 1.737551,4.52131 2.158683,7.52141 1.763904,12.56583 -0.795884,10.16966 -5.588727,17.68259 -16.780398,26.30377 -0.689305,0.53098 -1.444881,1.53403 -1.679057,2.22899 -0.505204,1.49928 -60.756181,2.476 -65.437487,1.0608 z M 31.64263,567.79864 c 4.006858,-3.96367 2.226624,-10.14341 -3.265852,-11.33675 -2.260583,-0.49117 -3.28401,-1.35985 -3.28401,-2.78748 0,-1.14068 -0.473956,-2.07396 -1.053235,-2.07396 -1.846714,0 -3.511713,4.39154 -3.589275,9.46694 -0.05908,3.8662 0.455295,5.34321 2.40461,6.90465 3.212239,2.57308 6.06833,2.51673 8.787762,-0.1734 z m -5.063747,-62.6943 c 0.595706,-2.94642 0.314785,-3.42253 -2.615698,-4.43309 -8.716845,-3.00597 -6.344613,-16.02329 2.920028,-16.02329 3.746302,0 7.49596,3.35782 8.580796,7.6841 1.04973,4.18628 -1.290168,11.32624 -4.540734,13.85558 -3.970614,3.08963 -5.129637,2.80062 -4.344392,-1.0833 z m 23.638405,-30.9852 c 0.0092,-0.44545 0.473723,-1.52476 1.032288,-2.39846 1.257719,-1.96731 2.733254,-0.73694 1.849225,1.54197 -0.652889,1.68307 -2.912435,2.35469 -2.881513,0.85649 z"
           style="fill:#b7b7b7" />
        <path
           inkscape:connector-curvature="0"
           id="path4165"
           d="m -18.572977,585.49672 c -4.580784,-1.94109 -9.353174,-6.24815 -11.832627,-10.67887 -1.577784,-2.81945 -1.859619,-8.42185 -2.172986,-43.19516 -0.401909,-44.59887 0.04778,-49.02238 5.621979,-55.30263 5.282804,-5.95193 8.470397,-6.79041 25.8148692,-6.79041 8.424941,0 15.3162318,0.36446 15.3139818,0.80991 -0.0023,0.44545 -2.210006,1.70729 -4.9061225,2.8041 -5.9567053,2.42324 -14.2472999,11.19815 -15.7979207,16.72081 -1.4112289,5.02618 -1.4385985,13.69294 -0.058272,18.45396 2.6714877,9.21455 10.5392483,15.75539 35.9875432,29.91814 6.899617,3.83986 13.67395,8.61627 17.159309,12.0986 3.660861,3.65769 6.268473,5.46789 7.157562,4.96877 10.72882,-6.02287 7.781962,-16.3058 -7.920864,-27.63949 -4.180541,-3.01735 -7.600983,-5.69786 -7.600983,-5.95668 0,-0.25882 2.925007,1.07163 6.500017,2.95656 14.733589,7.76828 20.791074,16.40269 20.791074,29.63582 0,12.03983 -3.102874,17.07589 -18.130709,29.4267 -2.455303,2.01793 -4.360955,2.44979 -11.243682,2.54802 -4.558023,0.0651 -17.866488,0.28088 -29.5743659,0.4796 -17.1047211,0.29031 -22.0377251,0.0432 -25.1078031,-1.25775 z m 50.402561,-17.32551 c 2.868043,-2.56758 2.628789,-8.45092 -0.429851,-10.57019 -1.334403,-0.92457 -3.266732,-1.68105 -4.294066,-1.68105 -1.226186,0 -1.986546,-1.0202 -2.213301,-2.96967 l -0.34542,-2.96966 -2.183287,3.19214 c -2.858332,4.17912 -2.910259,11.44472 -0.103717,14.51248 2.493192,2.72526 6.822696,2.94511 9.569644,0.48595 z M 7.4980412,503.13295 c -3.7032253,-3.66332 -4.2381459,-4.82385 -4.2381459,-9.19484 0,-4.24999 0.5818307,-5.60902 3.8685372,-9.03603 l 3.8685365,-4.0337 -2.7768929,4.20025 c -4.0261509,6.08982 -3.7234447,11.14576 1.0366489,17.31461 4.665016,6.04564 3.917205,6.36442 -1.7586838,0.74971 z m 19.3067738,1.58329 c 0.536252,-2.11359 0.222621,-2.93858 -1.323347,-3.48102 -6.877341,-2.41303 -8.973709,-9.27282 -4.259073,-13.93666 3.369853,-3.33353 7.26234,-3.37629 11.087123,-0.12181 2.421315,2.06028 2.971924,3.43521 2.971924,7.42119 0,5.92763 -3.285969,12.04273 -6.737318,12.53796 -2.127348,0.30525 -2.351539,-0.006 -1.739309,-2.41966 z m 23.945588,-15.42462 -1.956329,-3.02384 2.900994,2.6314 c 3.758339,3.40907 4.82799,2.23805 5.362836,-5.87104 0.402405,-6.10109 0.421833,-6.03806 0.332851,1.07988 -0.0853,6.82344 -0.317843,7.59071 -2.389261,7.8833 -1.536989,0.21711 -2.940779,-0.67439 -4.251091,-2.6997 z m 0.541812,-16.39487 c 0,-0.59394 0.49124,-1.38021 1.091644,-1.74728 0.600404,-0.36707 1.091644,-0.18145 1.091644,0.41248 0,0.59394 -0.49124,1.38021 -1.091644,1.74728 -0.600404,0.36707 -1.091644,0.18145 -1.091644,-0.41248 z"
           style="fill:#a6a6a7" />
        <path
           inkscape:connector-curvature="0"
           id="path4163"
           d="m -17.877316,585.69229 c -2.319204,-0.83857 -5.612408,-2.84741 -7.318231,-4.46407 -6.501065,-6.16129 -6.477154,-5.96445 -6.477154,-53.32136 0,-40.40255 0.140323,-43.61691 2.067125,-47.35147 4.672235,-9.05577 9.757856,-11.02574 28.4638342,-11.02574 13.3290918,0 17.6606378,1.00649 11.7702318,2.73496 -4.4311913,1.30028 -10.77460475,6.24334 -14.0434727,10.94328 -6.5797892,9.46033 -6.5004627,23.53755 0.1840773,32.66584 4.12083469,5.62733 10.2492173,10.01106 27.6179204,19.75551 7.717289,4.32967 15.962497,9.50366 18.322683,11.49776 7.723926,6.52587 10.704798,16.32529 6.945052,22.8314 -2.216127,3.83493 -2.00299,4.96697 0.924373,4.90963 6.044552,-0.11839 10.67995,-8.29337 11.392786,-20.09229 0.606531,-10.03935 -1.58817,-15.11025 -9.98445,-23.06924 -4.799404,-4.54944 -5.078837,-5.01637 -1.938745,-3.23963 8.647209,4.89279 15.434869,16.32165 15.434869,25.98877 0,6.32905 -4.260329,15.41882 -9.734608,20.76961 -10.910373,10.66425 -10.146926,10.3248 -24.106345,10.71839 -14.211343,0.4007 -36.4265862,0.57754 -38.4804384,0.30631 -0.750505,-0.0991 -2.5926536,0.078 -4.0936636,0.39341 -1.50101,0.31547 -4.62664,-0.1125 -6.945844,-0.95107 z M 24.274035,580.042 c -0.750505,-0.29956 -1.978604,-0.29956 -2.729109,0 -0.750505,0.29957 -0.136455,0.54468 1.364555,0.54468 1.50101,0 2.115059,-0.24511 1.364554,-0.54468 z M 7.322208,576.94731 c -2.2687575,-0.82386 -4.8889533,-1.20794 -5.822658,-0.8535 -2.7692968,1.05122 0.5376018,2.47978 5.581098,2.411 l 4.366575,-0.0595 -4.125015,-1.49795 z m -10.6121746,-3.68554 c 0,-0.55888 -0.4912396,-1.31648 -1.0916436,-1.68355 -0.600404,-0.36708 -1.0916436,0.0902 -1.0916436,1.01614 0,0.92595 0.4912396,1.68355 1.0916436,1.68355 0.600404,0 1.0916436,-0.45726 1.0916436,-1.01614 z m 34.4962616,-4.12981 c 5.390707,-3.56069 3.226775,-12.12804 -3.384418,-13.39946 -1.436061,-0.27618 -2.153622,-1.2399 -2.09661,-2.8159 0.105224,-2.90877 -0.802908,-3.03313 -3.179452,-0.43537 -3.630343,3.96825 -3.684081,12.2389 -0.102538,15.78183 1.780821,1.76163 6.676535,2.24706 8.763023,0.8689 z m -3.931342,-64.50337 c 0.934578,-2.43164 0.672192,-2.84741 -2.66826,-4.2281 -6.054639,-2.50252 -7.803978,-7.98799 -4.021148,-12.60924 2.897281,-3.53942 9.452091,-3.46613 12.4029,0.13869 3.013569,3.68149 2.2672,12.89134 -1.353701,16.70408 -3.435768,3.6178 -5.751238,3.61491 -4.359791,-0.005 z m -22.3495589,-4.8087 c -0.9160243,-1.75231 -1.630885,-4.30352 -1.5885794,-5.66936 0.057966,-1.87146 0.4608537,-1.44699 1.6350878,1.72267 0.8569938,2.31332 2.1106286,4.86453 2.785856,5.66937 0.8753268,1.04334 0.8840556,1.46333 0.030411,1.46333 -0.6585023,0 -1.946751,-1.4337 -2.8627754,-3.18601 z"
           style="fill:#9e9ea0" />
        <path
           inkscape:connector-curvature="0"
           id="path4161"
           d="m -3.5135341,586.68952 c -0.4231636,-0.4374 -4.1463605,-0.85773 -8.2737719,-0.93408 -6.421426,-0.11877 -8.08412,-0.57638 -11.521679,-3.17102 -2.209512,-1.66772 -5.011021,-4.9591 -6.225575,-7.31416 -2.125927,-4.12226 -2.196794,-5.92506 -1.900299,-48.34247 l 0.30798,-44.06052 2.929989,-4.37823 c 1.779255,-2.6587 4.835047,-5.29051 7.780631,-6.70107 4.343392,-2.07994 6.370532,-2.29124 19.3848322,-2.02061 l 14.5341918,0.30223 -6.4497541,3.77958 c -11.3310656,6.64003 -16.5843179,16.18365 -15.4978639,28.15502 1.1562526,12.74049 7.61012507,19.54849 31.085298,32.79098 22.84365,12.88625 27.617785,17.6085 27.755137,27.45347 0.122115,8.75293 -5.348802,14.55859 -15.403998,16.34652 -8.568621,1.5236 -17.416317,0.64608 -28.655509,-2.84207 -7.27646748,-2.25829 -8.7188912,-3.13534 -10.901375,-6.62841 -3.0208912,-4.83495 -3.7175192,-3.21293 -2.5591292,5.95859 0.5493925,4.34979 1.0701459,5.60076 1.9635798,4.71695 1.8235983,-1.80394 7.4090705,-1.45618 15.1462585,0.94304 3.8060179,1.1802 8.2709409,2.15209 9.9220519,2.15975 3.37452,0.0157 3.994512,1.54912 1.091643,2.70004 -2.777962,1.10138 -23.6051405,2.02451 -24.5126381,1.08647 z M 31.920057,568.60855 c 0.982499,-0.74242 2.086636,-2.58575 2.453638,-4.09628 0.816566,-3.3609 -2.712601,-8.28502 -6.300658,-8.79108 -1.907139,-0.26898 -2.389857,-0.98689 -2.228585,-3.31442 0.178034,-2.56943 -0.06469,-2.82783 -1.795553,-1.91148 -4.432501,2.34663 -5.893813,13.68007 -2.231062,17.30335 2.463464,2.43692 7.422893,2.83452 10.10222,0.80991 z m 4.90788,16.80364 c -3.802917,-0.98309 -1.791616,-2.49446 3.274931,-2.46091 4.796643,0.0317 5.026476,0.1532 3.066285,1.61982 -2.15537,1.61267 -2.949192,1.71797 -6.341216,0.84109 z M 25.63859,582.91694 c -0.371071,-0.59393 0.307806,-1.07987 1.508614,-1.07987 1.200808,0 2.48689,0.48594 2.85796,1.07987 0.371071,0.59394 -0.307806,1.07988 -1.508614,1.07988 -1.200808,0 -2.48689,-0.48594 -2.85796,-1.07988 z m 37.747887,-31.94641 c 0.05238,-1.25801 0.311054,-1.51388 0.659535,-0.65243 0.315345,0.77953 0.276562,1.71094 -0.08619,2.06977 -0.362744,0.35883 -0.620753,-0.27898 -0.573353,-1.41734 z m -5.240765,-13.67847 c -1.636573,-2.09328 -2.666058,-4.04955 -2.131076,-4.04955 0.266584,0 1.289379,1.21487 2.272879,2.6997 1.840329,2.77843 1.73784,3.75404 -0.141803,1.34985 z M 27.683309,504.78741 c 0.627611,-2.47366 0.243856,-3.01448 -3.127811,-4.40808 -7.022091,-2.9024 -7.434839,-12.11698 -0.647592,-14.45754 3.537722,-1.21996 9.207441,0.7362 10.300456,3.55386 1.477288,3.80826 0.677083,10.01812 -1.746999,13.55727 -3.220574,4.70204 -5.762744,5.63552 -4.778054,1.75449 z"
           style="fill:#949495" />
        <path
           inkscape:connector-curvature="0"
           id="path4159"
           d="m -19.118799,584.6482 c -4.613705,-2.08036 -10.21348,-8.22273 -11.480491,-12.59294 -0.621025,-2.14204 -1.063307,-20.99967 -1.049436,-44.74495 0.02666,-45.63502 0.156182,-46.54484 7.496092,-52.65441 4.792811,-3.98943 9.776973,-5.11322 22.7086183,-5.12022 11.6846327,-0.006 14.5080767,1.00556 9.0481734,3.24276 -4.8737685,1.99702 -11.8971046,9.24549 -14.476307,14.94034 -1.5530836,3.42919 -2.2849772,7.29912 -2.3014217,12.16888 -0.04801,14.217 5.9399824,20.7152 33.721243,36.59449 8.928014,5.1031 17.678137,10.94997 19.705504,13.16731 7.050973,7.71168 7.20324,16.74074 0.395879,23.47473 -6.231281,6.16412 -22.625902,7.00831 -37.8821727,1.95059 -5.76843927,-1.91233 -7.8220218,-3.20546 -9.8400845,-6.19626 -4.1753873,-6.18798 -5.1291607,-4.98316 -5.1291607,6.47927 l 0,10.25885 -3.8207531,0.25412 c -2.101414,0.13977 -5.294471,-0.41039 -7.095683,-1.22256 z m 51.160033,-15.84806 c 4.951859,-3.85316 3.036293,-11.79322 -3.219887,-13.3465 -2.354478,-0.58456 -2.778089,-1.2002 -2.350034,-3.41529 0.386978,-2.00253 0.09408,-2.61875 -1.131223,-2.37995 -3.13388,0.61077 -5.771446,5.58242 -5.883188,11.08945 -0.09097,4.48301 0.344421,5.68438 2.825039,7.79512 3.623401,3.08313 6.045508,3.14695 9.759293,0.25717 z m -37.1250549,15.72288 c -1.1775822,-3.03566 1.8704266,-5.12034 6.6633175,-4.55736 6.7371725,0.79134 17.0688814,4.06858 16.3671934,5.1917 -0.343354,0.54957 -5.5231,0.99922 -11.5105506,0.99922 -8.7103861,0 -11.01293,-0.32651 -11.5199603,-1.63356 z M 28.07998,503.65212 c 0.387884,-2.00721 -0.07815,-2.76836 -2.061756,-3.36736 -4.233992,-1.27858 -6.383674,-3.85262 -6.383674,-7.64384 0,-6.72748 8.735484,-9.45655 13.020492,-4.06775 2.802735,3.5247 2.832804,7.14608 0.108629,13.08288 -2.301988,5.01674 -5.533558,6.39394 -4.683691,1.99607 z"
           style="fill:#6e6e6f" />
        <path
           inkscape:connector-curvature="0"
           id="path4157"
           d="m -17.250552,584.93764 c -1.974484,-0.56329 -5.471511,-2.88543 -7.771171,-5.1603 -6.77884,-6.70579 -7.106746,-9.61009 -6.273516,-55.56524 0.696066,-38.39017 0.808849,-39.97664 3.132739,-44.06688 4.184518,-7.36511 8.133096,-8.94624 23.235068,-9.30398 11.7313909,-0.27791 12.8868302,-0.14313 11.0615922,1.2903 -11.0342345,8.66555 -14.9511894,14.58604 -15.6922768,23.71893 -1.4351154,17.68584 3.9843235,24.25344 34.0223406,41.23027 15.498208,8.75925 19.938627,12.4062 22.744019,18.67982 2.659945,5.94837 1.863527,10.77488 -2.609539,15.81451 -3.863196,4.35252 -8.663704,5.92807 -18.08765,5.93645 -13.953802,0.0124 -26.34809497,-4.2211 -29.9274897,-10.22235 -4.0452143,-6.78224 -5.331749,-5.12375 -5.331749,6.87321 0,12.61738 -0.3757962,13.09364 -8.5023673,10.77526 z m 49.798199,-15.78915 c 4.513837,-3.81061 3.179641,-11.01002 -2.537751,-13.69386 -3.255831,-1.52834 -3.73761,-2.2047 -3.168418,-4.44811 0.998125,-3.93399 -2.136712,-3.4154 -5.222217,0.8639 -3.625219,5.02783 -3.600276,14.18227 0.0466,17.10351 3.216598,2.57658 7.946619,2.65245 10.881784,0.17456 z m -36.2014944,16.28817 c -1.3896831,-1.37471 -0.7156838,-3.53 1.4649093,-4.68444 1.67349738,-0.88598 4.0069544,-0.62634 9.8550761,1.09653 4.214321,1.24156 7.374164,2.71873 7.021872,3.28261 -0.719448,1.15154 -17.2089354,1.42602 -18.3418574,0.3053 z M 28.65348,502.83319 c 0.202374,-1.81523 -0.536199,-2.54293 -3.330463,-3.28145 -6.802696,-1.79796 -7.284932,-10.00683 -0.760608,-12.94748 6.656972,-3.00044 11.822577,7.29402 7.657778,15.26105 -1.999952,3.82581 -3.944148,4.35338 -3.566707,0.96788 z"
           style="fill:#585858" />
        <path
           inkscape:connector-curvature="0"
           id="path4155"
           d="m -20.210443,583.05657 c -4.346981,-2.67071 -7.779183,-6.47294 -9.206254,-10.19881 -0.753304,-1.96676 -1.155897,-17.78788 -1.140386,-44.81497 0.02681,-46.72681 0.195188,-47.88108 7.763235,-53.22057 3.251166,-2.29381 5.076421,-2.63436 15.8249059,-2.95258 l 12.1498573,-0.3597 -6.2652387,6.37316 c -13.4015725,13.63245 -13.1020475,31.22724 0.7422216,43.59992 4.1509193,3.70969 11.0678099,8.08913 31.1342479,19.71274 12.473634,7.22541 16.240428,11.44575 16.976165,19.02019 1.304622,13.43114 -12.206914,20.03775 -32.343217,15.81456 -10.3981061,-2.18079 -15.46633782,-4.69969 -18.1692387,-9.03006 -1.4464453,-2.31739 -2.9201293,-3.41074 -4.3665746,-3.23964 -1.9915608,0.23558 -2.2107246,1.18285 -2.4957288,10.78707 l -0.3124415,10.52882 -3.5083114,-0.004 c -1.929571,-0.002 -4.98203,-0.90918 -6.783242,-2.01581 z m 53.763449,-14.86548 c 1.350909,-1.46995 2.456198,-3.8825 2.456198,-5.36121 0,-3.0519 -4.438971,-7.98979 -7.182518,-7.98979 -1.438641,0 -1.687079,-0.67497 -1.177021,-3.19777 0.811646,-4.01449 -0.921927,-5.18252 -3.82909,-2.57993 -7.265366,6.50421 -6.940863,19.00878 0.570265,21.97491 3.210474,1.26781 6.248709,0.32399 9.162166,-2.84621 z m -37.9346162,15.93795 c 0,-3.71214 6.6516183,-4.12018 14.1977567,-0.87092 l 3.8143635,1.6424 -9.0060602,0.0881 c -4.95333299,0.0484 -9.00606,-0.33838 -9.00606,-0.8596 z M 29.49406,502.31306 c -0.02413,-1.60731 -0.94846,-2.53953 -3.030631,-3.05649 -4.442817,-1.10305 -5.737236,-2.59297 -5.737236,-6.60375 0,-4.13017 2.690103,-6.18437 7.388146,-5.64171 5.674094,0.6554 7.431548,9.74738 3.003301,15.53721 -1.550191,2.02684 -1.589706,2.02112 -1.62358,-0.23526 z"
           style="fill:#454546" />
        <path
           inkscape:connector-curvature="0"
           id="path4153"
           d="m -19.118799,583.28234 c -5.145635,-2.68347 -7.992684,-5.72834 -9.846829,-10.53104 -1.472634,-3.81448 -1.66897,-10.30279 -1.392027,-46.00211 0.289805,-37.3572 0.517959,-41.91528 2.255513,-45.06073 1.063202,-1.92469 3.144566,-4.28466 4.625254,-5.2444 2.526504,-1.63759 2.941667,-1.59933 6.747041,0.6217 2.230185,1.30166 5.673063,2.44677 7.6508418,2.54469 1.9777788,0.0979 3.5981644,0.24082 3.6008564,0.31753 0.00273,0.0767 -1.2846091,2.92576 -2.8606696,6.33123 -6.2481176,13.50061 -2.6086716,27.55522 9.6412132,37.23193 3.4060177,2.69055 12.7219192,8.53651 20.7020032,12.99101 22.58814,12.60875 28.119421,19.02304 25.07432,29.07714 -2.628222,8.6777 -10.138449,11.70946 -26.226244,10.58714 -11.8944107,-0.82978 -19.87713342,-4.06142 -23.5335228,-9.52704 -1.8483678,-2.76298 -3.5899116,-4.22732 -4.7633019,-4.00513 -1.5699167,0.29728 -1.8967057,2.02235 -2.1607557,11.40635 l -0.3110999,11.05609 -2.9638307,-0.0432 c -1.630107,-0.0239 -4.43755,-0.81183 -6.238762,-1.75117 z m 50.683353,-12.74406 c 6.866777,-3.51268 5.57628,-13.82639 -2.028785,-16.21413 -1.748463,-0.54896 -2.05331,-1.31486 -1.53794,-3.86394 1.512252,-7.47978 -7.306859,-1.35169 -9.465076,6.57694 -1.553921,5.70863 0.370261,11.67751 4.417582,13.70349 3.487251,1.74564 4.869652,1.71316 8.614219,-0.20236 z m -34.6195486,12.64863 c 0.4847127,-2.31864 6.4144314,-2.25013 11.9450223,0.13802 3.6393893,1.57151 3.6281363,1.57582 -4.3456216,1.66369 -7.0621461,0.0779 -7.9483883,-0.13231 -7.5994007,-1.80171 z M 30.584182,501.15773 c -0.01826,-0.71952 -1.968528,-1.82373 -4.333936,-2.45381 -2.673893,-0.71224 -4.559937,-1.95344 -4.985958,-3.28126 -1.800625,-5.61212 3.991322,-10.17292 8.888225,-6.99893 2.45464,1.59102 3.122041,3.80974 2.599805,8.64284 -0.277098,2.56444 -2.1187,6.03945 -2.168136,4.09116 z"
           style="fill:#363636" />
        <path
           inkscape:connector-curvature="0"
           id="path4151"
           d="m -17.201436,583.8823 c -4.835817,-1.39785 -10.458901,-7.23074 -12.056834,-12.50668 -0.854017,-2.81974 -1.273404,-11.40283 -1.183434,-24.21997 0.147779,-21.05282 1.515742,-62.47196 1.847447,-55.93695 l 0.196487,3.87103 7.095683,1.049 c 4.920115,0.72738 7.119209,0.69933 7.17241,-0.0915 0.174152,-2.5886 1.959088,3.46805 2.029835,6.88765 0.201196,9.72486 10.0979986,20.39355 28.542852,30.769 26.893517,15.12793 30.470976,18.39661 30.47855,27.84784 0.01004,12.48642 -13.708531,17.89343 -33.618086,13.25018 -9.2414728,-2.15528 -13.04577886,-4.26283 -15.686408,-8.69014 -1.2178835,-2.04191 -3.0881387,-3.71257 -4.1561254,-3.71257 -3.6242166,0 -4.5408366,2.68945 -4.2984096,12.61193 0.255839,10.47144 0.06972,10.73088 -6.363967,8.87113 z m 50.529821,-14.23101 c 2.223227,-1.89173 2.899148,-3.45663 2.899148,-6.71211 0,-3.25547 -0.675921,-4.82037 -2.899148,-6.7121 -1.594531,-1.35677 -3.661171,-2.46687 -4.592533,-2.46687 -0.93136,0 -1.442334,-0.60743 -1.135495,-1.34985 2.141107,-5.18053 2.147647,-5.12942 -0.65629,-5.12942 -3.324294,0 -7.897004,4.9899 -8.959983,9.77746 -2.487821,11.20491 7.419693,19.33589 15.344301,12.59289 z m -36.0259111,14.42015 c -1.1004172,-1.76132 1.5971958,-2.47866 6.5553048,-1.74316 7.0651383,1.04807 7.1126453,2.74842 0.076786,2.74842 -3.30222203,0 -6.2866644,-0.45237 -6.6320943,-1.00526 z M 31.728812,494.81682 c 0.05238,-1.258 0.311054,-1.51388 0.659535,-0.65243 0.315344,0.77955 0.276561,1.71094 -0.08619,2.06977 -0.362745,0.35884 -0.620754,-0.27897 -0.573353,-1.41734 z"
           style="fill:#272727" />
        <path
           inkscape:connector-curvature="0"
           id="path4149"
           d="m -17.481334,583.21766 c -3.822735,-1.42095 -7.835653,-5.08273 -9.849506,-8.98767 -1.965109,-3.81042 -2.157076,-6.39127 -2.141857,-28.79582 0.0092,-13.53564 0.422853,-23.97684 0.919243,-23.20265 0.496391,0.77417 5.032835,2.11344 10.080989,2.97613 5.048152,0.86271 9.7329032,1.77072 10.4105584,2.01783 0.6776553,0.24711 3.1241487,0.0272 5.4366539,-0.48876 3.17849289,-0.70915 4.630392,-0.55684 5.9495407,0.6241 0.9597426,0.8592 2.0945913,1.56218 2.5218846,1.56218 1.408467,0 31.7443924,17.49396 34.4049784,19.84047 3.857423,3.40209 6.968386,10.93365 6.111095,14.7948 -0.900195,4.05439 -5.480655,9.50299 -9.14857,10.88249 -8.94326,3.36358 -32.9985915,-0.66757 -36.93249305,-6.18909 -5.05084075,-7.08921 -5.29408845,-7.28074 -8.29936595,-6.53459 -2.913194,0.72329 -2.913289,0.72366 -2.913289,11.50153 0,10.48275 -0.06733,10.77588 -2.456198,10.69296 -1.350909,-0.0469 -3.193058,-0.35915 -4.093664,-0.69391 z M 34.64465,569.3594 c 3.376455,-3.79556 3.278349,-9.48467 -0.22329,-12.94857 -1.473719,-1.45784 -3.407794,-2.65062 -4.297943,-2.65062 -1.239998,0 -1.473469,-0.8838 -0.998431,-3.77957 0.567639,-3.46025 0.393454,-3.77958 -2.061631,-3.77958 -2.728425,0 -6.167466,2.96082 -8.384034,7.21819 -1.821573,3.4987 -1.514886,12.41386 0.526212,15.29653 3.659719,5.16867 11.136441,5.48035 15.439117,0.64362 z m -36.1182667,13.48857 c 0.79061414,-0.78209 2.34140855,-0.81318 4.8578142,-0.0974 l 3.6964505,1.05145 -4.8578142,0.0974 c -3.4329627,0.0688 -4.5171733,-0.23957 -3.6964505,-1.05146 z"
           style="fill:#141414" />
      </g>
    </g>
  </g>
</svg>
