<?xml version="1.0" encoding="UTF-8" standalone="no"?>
<svg
   xmlns:dc="http://purl.org/dc/elements/1.1/"
   xmlns:cc="http://creativecommons.org/ns#"
   xmlns:rdf="http://www.w3.org/1999/02/22-rdf-syntax-ns#"
   xmlns:svg="http://www.w3.org/2000/svg"
   xmlns="http://www.w3.org/2000/svg"
   xmlns:sodipodi="http://sodipodi.sourceforge.net/DTD/sodipodi-0.dtd"
   xmlns:inkscape="http://www.inkscape.org/namespaces/inkscape"
   width="128"
   height="128"
   viewBox="0 0 128 128"
   version="1.1"
   preserveAspectRatio="xMidYMid"
   id="svg2"
   inkscape:version="0.91 r13725"
   sodipodi:docname="spring.svg">
  <metadata
     id="metadata18">
    <rdf:RDF>
      <cc:Work
         rdf:about="">
        <dc:format>image/svg+xml</dc:format>
        <dc:type
           rdf:resource="http://purl.org/dc/dcmitype/StillImage" />
        <dc:title></dc:title>
      </cc:Work>
    </rdf:RDF>
  </metadata>
  <defs
     id="defs16" />
  <sodipodi:namedview
     pagecolor="#ffffff"
     bordercolor="#666666"
     borderopacity="1"
     objecttolerance="10"
     gridtolerance="10"
     guidetolerance="10"
     inkscape:pageopacity="0"
     inkscape:pageshadow="2"
     inkscape:window-width="1366"
     inkscape:window-height="706"
     id="namedview14"
     showgrid="false"
     inkscape:zoom="2.6279874"
     inkscape:cx="102.15431"
     inkscape:cy="66.652325"
     inkscape:window-x="-8"
     inkscape:window-y="-8"
     inkscape:window-maximized="1"
     inkscape:current-layer="svg2" />
  <g
     id="g4"
     style="fill:#6db33f"
     transform="matrix(0.4935276,0,0,0.50233079,0.44753128,0.37187779)">
    <g
       id="g6">
      <path
         d="M 244.89637,54.566879 74.628483,1.6100827 C 66.396638,-0.94984007 57.549199,3.6382532 54.969276,11.806285 L 1.5987549,180.75427 c -2.57992221,8.16902 2.0440155,16.94689 10.2758601,19.50681 L 182.1435,253.21787 c 8.23185,2.55993 17.07829,-2.02817 19.65821,-10.1962 L 255.17223,74.0727 c 2.58092,-8.168032 -2.04401,-16.945898 -10.27586,-19.505821 l 0,0 0,0 z M 81.598257,180.53584 c 0,7.21819 -5.951751,13.1238 -13.226335,13.1238 l -0.04881,0 c -7.273588,0 -13.225339,-5.90561 -13.225339,-13.1238 l 0,-67.2469 c 0,-7.21819 5.951751,-13.12282 13.225339,-13.12282 l 0.04881,0 c 7.274584,0 13.226335,5.90463 13.226335,13.12282 l 0,67.2469 0,0 z M 68.348016,87.244936 c -7.348296,0 -13.305028,-5.910555 -13.305028,-13.200899 0,-7.291332 5.956732,-13.201888 13.305028,-13.201888 7.347299,0 13.304031,5.910556 13.304031,13.201888 0,7.290344 -5.956732,13.200899 -13.304031,13.200899 l 0,0 0,0 z M 152.61086,193.61615 c -33.11663,0 -59.916946,-27.19547 -59.916946,-60.05539 0,-32.86091 26.847126,-59.498932 59.964766,-59.498932 17.05537,0 32.44825,7.064991 43.3666,18.407722 l 6.40498,-11.24488 c 6.56834,17.583407 10.84563,38.12407 10.84563,52.22045 0,32.85992 -27.54739,60.17103 -60.66503,60.17103 l 0,0 0,0 z"
         id="path8"
         inkscape:connector-curvature="0" />
      <path
         d="m 129.95536,174.31888 c 6.43586,-2.00247 13.29706,-4.1107 19.03564,-5.9491 22.66049,-7.26069 42.14039,-25.53993 47.29028,-48.50016 -4.09899,10.80109 -20.83462,31.9002 -47.04424,40.30643 -8.40915,2.64591 -17.13208,4.32123 -25.74543,6.29504 -1.10668,0.25401 -2.62375,-0.0287 -3.59595,-0.62862 -5.52044,-3.40598 -8.49482,-9.49939 -8.96399,-15.64716 -1.26506,-16.54164 10.05772,-30.04103 26.88897,-33.53597 7.06839,-1.46875 14.34596,-1.08624 21.56675,-1.85323 19.07051,-1.9916 36.99649,-15.540409 42.41133,-26.866338 0,0 0.97221,2.207069 1.18139,2.857427 4.09301,12.722521 7.35626,25.614051 7.67402,39.060071 0.17133,7.26267 -0.63053,14.41168 -3.21842,21.27306 -5.20268,13.79096 -15.82419,20.7838 -30.01377,22.42947 -8.29559,0.9617 -16.73861,0.75018 -25.11788,0.9103 -6.80043,0.12948 -14.67069,-0.15122 -22.3487,-0.15122"
         id="path10"
         inkscape:connector-curvature="0" />
      <path
         d="m 121.5223,175.01273 c 0,2.80405 -2.29005,5.07635 -5.11601,5.07635 -2.82596,0 -5.11602,-2.2723 -5.11602,-5.07635 0,-2.80406 2.29006,-5.07636 5.11602,-5.07636 2.82596,0 5.11601,2.2723 5.11601,5.07636"
         id="path12"
         inkscape:connector-curvature="0" />
    </g>
  </g>
</svg>
