<?xml version="1.0" encoding="UTF-8" standalone="no"?>
<svg
   xmlns:dc="http://purl.org/dc/elements/1.1/"
   xmlns:cc="http://creativecommons.org/ns#"
   xmlns:rdf="http://www.w3.org/1999/02/22-rdf-syntax-ns#"
   xmlns:svg="http://www.w3.org/2000/svg"
   xmlns="http://www.w3.org/2000/svg"
   xmlns:sodipodi="http://sodipodi.sourceforge.net/DTD/sodipodi-0.dtd"
   xmlns:inkscape="http://www.inkscape.org/namespaces/inkscape"
   width="128"
   height="128"
   viewBox="0 0 128 128"
   version="1.1"
   preserveAspectRatio="xMidYMid"
   id="svg2"
   inkscape:version="0.91 r13725"
   sodipodi:docname="swift.svg">
  <metadata
     id="metadata24">
    <rdf:RDF>
      <cc:Work
         rdf:about="">
        <dc:format>image/svg+xml</dc:format>
        <dc:type
           rdf:resource="http://purl.org/dc/dcmitype/StillImage" />
        <dc:title></dc:title>
      </cc:Work>
    </rdf:RDF>
  </metadata>
  <defs
     id="defs22" />
  <sodipodi:namedview
     pagecolor="#ffffff"
     bordercolor="#666666"
     borderopacity="1"
     objecttolerance="10"
     gridtolerance="10"
     guidetolerance="10"
     inkscape:pageopacity="0"
     inkscape:pageshadow="2"
     inkscape:window-width="1366"
     inkscape:window-height="706"
     id="namedview20"
     showgrid="false"
     inkscape:zoom="2.6074563"
     inkscape:cx="80.899739"
     inkscape:cy="71.245981"
     inkscape:window-x="-8"
     inkscape:window-y="-8"
     inkscape:window-maximized="1"
     inkscape:current-layer="svg2" />
  <linearGradient
     id="SVGID_1_"
     gradientUnits="userSpaceOnUse"
     x1="-1845.5007"
     y1="1255.6392"
     x2="-1797.1339"
     y2="981.33789"
     gradientTransform="matrix(-1,0,0,-1,-1693.2107,1118.5044)">
    <stop
       offset="0"
       style="stop-color:#FAAE42"
       id="stop5" />
    <stop
       offset="1"
       style="stop-color:#EF3E31"
       id="stop7" />
  </linearGradient>
  <linearGradient
     id="SVGID_2_"
     gradientUnits="userSpaceOnUse"
     x1="130.61169"
     y1="4.1363001"
     x2="95.212997"
     y2="204.8927"
     gradientTransform="translate(0,-128)">
    <stop
       offset="0"
       style="stop-color:#E39F3A"
       id="stop12" />
    <stop
       offset="1"
       style="stop-color:#D33929"
       id="stop14" />
  </linearGradient>
  <g
     id="g4152"
     transform="matrix(0.50025528,0,0,0.50025528,0,63.967324)">
    <path
       style="fill:url(#SVGID_1_)"
       inkscape:connector-curvature="0"
       id="path9"
       d="m 56.9,-128 c 1.5,0 139.3,0 141.8,0 6.9,0 13.6,1.1 20.1,3.4 9.4,3.4 17.9,9.4 24.3,17.2 6.5,7.8 10.8,17.4 12.3,27.4 0.6,3.7 0.7,7.4 0.7,11.1 0,3.4 0,123.2 0,128.6 0,3.2 0,6.5 0,9.7 0,4.4 -0.2,8.9 -1.1,13.2 -2,9.9 -6.7,19.2 -13.5,26.7 -6.7,7.5 -15.5,13.1 -25,16.1 -5.8,1.8 -11.8,2.6 -17.9,2.6 -2.7,0 -142.1,0 -144.2,-0.1 C 44.2,127.4 34.1,124.1 25.6,118.4 17.3,112.8 10.5,105 6.1,96 2.3,88.3 0.4,79.7 0.4,71.1 c 0,-2 0,-140.2 0,-142.2 -0.2,-8.5 1.6,-16.9 5.3,-24.5 4.3,-9 11,-16.9 19.3,-22.5 8.5,-5.8 18.5,-9.2 28.7,-9.7 1,-0.2 2.1,-0.2 3.2,-0.2 z" />
    <path
       style="fill:url(#SVGID_2_)"
       inkscape:connector-curvature="0"
       id="path16"
       d="m 216,81.4 c -0.9,-1.4 -1.9,-2.8 -3,-4.1 -2.5,-3 -5.4,-5.6 -8.6,-7.8 -4,-2.7 -8.7,-4.4 -13.5,-4.6 -3.4,-0.2 -6.8,0.4 -10,1.6 -3.2,1.1 -6.3,2.7 -9.3,4.3 -3.5,1.8 -7,3.6 -10.7,5.1 -4.4,1.8 -9,3.2 -13.7,4.2 -5.9,1.1 -11.9,1.5 -17.8,1.4 C 118.7,81.3 108,79.7 97.8,76.7 88.8,74 80.2,70.3 72.1,65.6 65,61.5 58.4,56.8 52.2,51.5 47.1,47.1 42.4,42.4 38,37.4 c -3,-3.5 -5.9,-7.2 -8.6,-11 -1.1,-1.5 -2.1,-3.1 -3,-4.7 0,0 0,0 0,0 0,0 0,0 0,0 L 0,-6.8 0,-71.3 C 0,-102.6 25.3,-128 56.6,-128 l 50.5,0 37.4,38 c 0,0 0,0 0,0 84.4,57.4 57.1,120.7 57.1,120.7 0,0 24,27 14.4,50.7 z" />
    <path
       style="fill:#ffffff"
       inkscape:connector-curvature="0"
       id="path18"
       d="m 144.7,-90 c 84.4,57.4 57.1,120.7 57.1,120.7 0,0 24,27.1 14.3,50.8 0,0 -9.9,-16.6 -26.5,-16.6 -16,0 -25.4,16.6 -57.6,16.6 C 60.3,81.5 26.4,21.6 26.4,21.6 91,64.1 135.1,34 135.1,34 106,17.1 44.1,-63.7 44.1,-63.7 c 53.9,45.9 77.2,58 77.2,58 C 107.4,-17.2 68.4,-73.4 68.4,-73.4 99.6,-41.8 161.6,2.3 161.6,2.3 179.2,-46.5 144.7,-90 144.7,-90 Z" />
  </g>
</svg>
