<?xml version="1.0" encoding="UTF-8" standalone="no"?>
<!-- Created with Inkscape (http://www.inkscape.org/) -->

<svg
   xmlns:dc="http://purl.org/dc/elements/1.1/"
   xmlns:cc="http://creativecommons.org/ns#"
   xmlns:rdf="http://www.w3.org/1999/02/22-rdf-syntax-ns#"
   xmlns:svg="http://www.w3.org/2000/svg"
   xmlns="http://www.w3.org/2000/svg"
   xmlns:sodipodi="http://sodipodi.sourceforge.net/DTD/sodipodi-0.dtd"
   xmlns:inkscape="http://www.inkscape.org/namespaces/inkscape"
   width="128"
   height="128"
   viewBox="0 0 128 128"
   id="svg2"
   version="1.1"
   inkscape:version="0.91 r13725"
   sodipodi:docname="typescript.svg">
  <defs
     id="defs4" />
  <sodipodi:namedview
     id="base"
     pagecolor="#ffffff"
     bordercolor="#666666"
     borderopacity="1.0"
     inkscape:pageopacity="0.0"
     inkscape:pageshadow="2"
     inkscape:zoom="1.979899"
     inkscape:cx="231.74546"
     inkscape:cy="29.173238"
     inkscape:document-units="px"
     inkscape:current-layer="layer1"
     showgrid="false"
     units="px"
     inkscape:window-width="1366"
     inkscape:window-height="706"
     inkscape:window-x="-8"
     inkscape:window-y="-8"
     inkscape:window-maximized="1" />
  <metadata
     id="metadata7">
    <rdf:RDF>
      <cc:Work
         rdf:about="">
        <dc:format>image/svg+xml</dc:format>
        <dc:type
           rdf:resource="http://purl.org/dc/dcmitype/StillImage" />
        <dc:title></dc:title>
      </cc:Work>
    </rdf:RDF>
  </metadata>
  <g
     inkscape:label="Capa 1"
     inkscape:groupmode="layer"
     id="layer1"
     transform="translate(0,-924.36216)">
    <g
       id="g4147"
       transform="matrix(0.10738034,0,0,0.10738034,88.598058,934.36353)">
      <path
         style="fill:#fdfdfd"
         d="m -827.78571,509.50505 0,-593.499999 593.5,0 593.5,0 0,593.499999 0,593.50005 -593.5,0 -593.5,0 0,-593.50005 z"
         id="path4181"
         inkscape:connector-curvature="0" />
      <path
         style="fill:#e9f3f9"
         d="m -827.78571,509.50505 0,-593.499999 593.5,0 593.5,0 0,593.499999 0,593.50005 -593.5,0 -593.5,0 0,-593.50005 z M 102.75651,1003.036 c 52.46313,-2.9315 101.34588,-24.82775 128.36498,-57.49915 15.9722,-19.3135 24.639,-38.69817 29.1136,-65.1172 2.9142,-17.20591 2.4759,-46.87083 -0.9424,-63.78445 -8.4376,-41.74899 -28.5845,-70.72352 -66.9491,-96.28373 -19.4202,-12.93856 -47.89245,-27.58317 -89.15875,-45.85844 -44.22176,-19.58413 -57.1872,-26.79231 -67.34295,-37.43956 -6.53437,-6.8506 -12.03335,-17.48303 -13.73056,-26.54842 -2.27763,-12.16555 0.63902,-27.42682 7.19385,-37.64164 10.84281,-16.89705 35.43597,-25.05668 61.69332,-20.46888 21.22614,3.70872 33.76214,12.42437 50.14101,34.86052 3.51322,4.8125 6.75683,8.75 7.20802,8.75 1.60986,0 69.47066,-44.61851 78.23796,-51.44153 2.7874,-2.16922 1.6685,-4.69027 -7.5712,-17.05847 -10.8803,-14.5644 -30.9015,-34.55393 -41.8,-41.73401 -19.53083,-12.86712 -40.60323,-20.95724 -61.98905,-23.79884 -24.89534,-3.30791 -64.68246,-2.79765 -82.41912,1.05702 -57.9106,12.58557 -99.1812,51.19938 -112.73301,105.47583 -4.17627,16.72642 -3.46584,61.17002 1.26663,79.23806 5.67236,21.65644 20.17736,46.33958 37.50973,63.83028 21.89902,22.09906 46.93829,36.88837 107.97239,63.77331 58.82715,25.9128 75.26119,36.49705 83.94264,54.06276 6.9116,13.98468 7.03314,32.8092 0.30085,46.59559 -17.00443,34.82168 -80.34372,45.4681 -127.88648,21.49578 -13.16278,-6.63701 -36.25313,-28.436 -46.96458,-44.33801 -3.78218,-5.61496 -6.00943,-8.04683 -7.13107,-7.7862 -2.81135,0.65324 -84.86893,48.26717 -84.86893,49.24521 0,1.94429 11.35499,19.60834 19.85267,30.88322 12.6364,16.7662 24.77012,28.1602 42.64733,40.0473 34.25339,22.7762 72.55871,35.29685 114.33729,37.37265 22.21933,1.104 23.85497,1.1084 41.70493,0.111 z M -305.78571,778.11204 c 0,-198.67931 0.14607,-218.94906 1.58179,-219.5 0.86998,-0.33385 35.51998,-0.60699 77,-0.60699 l 75.41821,0 -0.003,-29.25 c -0.002,-16.0875 -0.29779,-37.01984 -0.65801,-46.51631 l -0.65496,-17.26631 -205.25876,0.26631 c -112.89231,0.14647 -205.63371,0.64126 -206.09198,1.09954 -0.45828,0.45828 -0.99384,21.27078 -1.19015,46.25 l -0.35698,45.41677 76.03549,0 c 67.78984,0 76.20591,0.17041 77.60692,1.57143 1.41896,1.41896 1.57143,22.71645 1.57143,219.5 l 0,217.92857 52.5,0 52.5,0 0,-218.89301 z"
         id="path4179"
         inkscape:connector-curvature="0" />
      <path
         style="fill:#d3e7f4"
         d="m -827.78571,509.50505 0,-593.499999 593.5,0 593.5,0 0,593.499999 0,593.50005 -593.5,0 -593.5,0 0,-593.50005 z m 953.31248,492.06685 c 22.07345,-4.14835 38.23802,-9.34775 56.18752,-18.07295 32.5376,-15.8164 54.3984,-36.98 68.0792,-65.9078 13.5451,-28.64084 17.0605,-67.69802 9.3987,-104.42398 -7.4071,-35.50528 -25.7487,-63.47348 -56.778,-86.57836 -19.079,-14.20644 -53.05659,-32.56018 -91.6999,-49.53367 C 62.87474,656.04233 49.4969,648.94277 38.68682,638.83047 27.66473,628.51985 22.21429,616.17905 22.21429,601.53365 c 0,-25.24527 13.96731,-42.60276 38.71164,-48.10786 9.0207,-2.00691 28.27988,-1.48803 37.28836,1.00462 15.48263,4.28406 27.88474,13.79339 41,31.4368 4.125,5.54918 8.04119,10.30302 8.70265,10.56408 1.32723,0.52382 25.82335,-14.88756 54.04975,-34.00457 22.8635,-15.48489 27.1598,-18.64553 27.2086,-20.01663 0.1393,-3.91053 -20.0345,-29.41479 -33.2931,-42.09013 -20.246,-19.35527 -47.14795,-33.24945 -73.16086,-37.78572 -24.3504,-4.24635 -69.94853,-4.62229 -88.00704,-0.72557 -31.63593,6.82648 -58.10836,20.68946 -78.55764,41.13874 -19.28788,19.28788 -31.82928,42.25835 -37.43572,68.56618 -3.5895,16.84348 -2.76389,56.42005 1.55414,74.49893 3.6306,15.20075 13.98062,36.3828 25.16041,51.49253 10.18623,13.76691 29.49185,30.61023 49.27881,42.99364 12.94777,8.10319 36.0952,19.58918 66.5,32.99798 60.94436,26.87702 78.04762,37.33005 87.70766,53.60441 7.7815,13.10958 8.52087,33.87924 1.7231,48.40397 -11.51379,24.60143 -50.02783,38.84334 -89.43076,33.07015 -12.60912,-1.84745 -29.10236,-6.90844 -38.04231,-11.67338 -13.38537,-7.13433 -35.61338,-28.29642 -46.38803,-44.16355 -3.26169,-4.80327 -6.31196,-8.73322 -6.77839,-8.73322 -1.1478,0 -83.9264,47.84419 -85.68036,49.52135 -1.18001,1.12834 -0.97013,2.05451 1.39449,6.15345 4.37738,7.58798 15.13377,23.0085 22.6914,32.5307 29.44754,37.1025 86.0803,65.543 140.85955,70.73875 15.57514,1.4772 65.90365,0.5682 76.25613,-1.3774 z M -305.78571,779.62749 c 0,-181.69572 0.2259,-218.56503 1.34484,-219.49367 0.95768,-0.79481 23.19677,-1.18991 77.25,-1.37244 l 75.90516,-0.25633 -0.35625,-46.5 c -0.19593,-25.575 -0.54947,-46.70354 -0.78563,-46.9523 -0.97588,-1.02795 -411.2718,-0.53265 -412.30285,0.49772 -0.69021,0.68975 -1.13272,16.67979 -1.30069,47 l -0.25458,45.95458 76.44487,0.2563 c 59.63207,0.19992 76.61858,0.52982 77.23469,1.5 0.4344,0.68403 0.79671,99.4562 0.80513,219.4937 l 0.0153,218.25 53,0 53,0 0,-218.37756 z"
         id="path4177"
         inkscape:connector-curvature="0" />
      <path
         style="fill:#c3def1"
         d="m -827.78571,509.50505 0,-593.499999 593.5,0 593.5,0 0,593.499999 0,593.50005 -593.5,0 -593.5,0 0,-593.50005 z m 945.26019,493.46365 c 20.70774,-2.4285 45.70949,-9.88745 65.23981,-19.46355 49.4329,-24.2379 77.1098,-65.1044 80.3086,-118.58058 3.2445,-54.24134 -13.1454,-98.20776 -47.9436,-128.60996 -21.9401,-19.16853 -57.20832,-39.10624 -109.365,-61.82593 -25.55494,-11.13185 -48.21532,-22.2164 -56.5,-27.63755 C 27.99727,632.96761 18.84828,612.55056 23.66345,589.83138 27.41429,572.134 39.0077,560.07486 57.757,554.36826 c 8.18028,-2.48978 29.26893,-2.51349 38.45729,-0.0432 18.53204,4.98227 28.84756,12.88476 44.35279,33.97768 3.15259,4.28871 6.38859,8.04961 7.1911,8.35757 0.81956,0.31449 6.17035,-2.41893 12.20761,-6.2362 16.2903,-10.3001 63.3005,-41.90971 67.0788,-45.10373 l 3.3304,-2.81529 -4.9117,-7.5 c -6.7999,-10.38321 -21.65,-28.31979 -29.3371,-35.43459 -22.8307,-21.13108 -51.10932,-34.64136 -80.74624,-38.57708 -23.8346,-3.16518 -64.06127,-2.9171 -80.66566,0.49747 -18.67318,3.84 -41.18054,12.91412 -56.04619,22.59572 -30.95668,20.16126 -49.40249,46.42915 -59.98248,85.41848 -1.14877,4.23346 -1.78607,12.18289 -2.16456,27 -0.91839,35.95291 2.23078,53.65841 13.55903,76.23257 14.54406,28.98242 35.48294,50.58571 68.1342,70.29617 12.65001,7.63638 39.31546,20.64173 66.5,32.43357 56.9801,24.71625 76.99128,37.55278 85.45058,54.81375 6.32997,12.91615 6.36384,31.99326 0.0802,45.15948 -3.65957,7.66795 -14.69918,18.56272 -23.5373,23.2285 -13.72334,7.24477 -29.33812,10.65619 -48.49346,10.59456 -19.64249,-0.0632 -38.05019,-4.25775 -54.12006,-12.33231 -12.93462,-6.49921 -34.09989,-26.30783 -46.51165,-43.53035 -3.92244,-5.44277 -7.56877,-9.8055 -8.10295,-9.69496 -0.80612,0.16682 -78.20136,44.74407 -84.32986,48.57139 -1.06451,0.6648 -1.93548,1.9117 -1.93548,2.77089 0,1.9625 12.02866,20.50645 21.03696,32.43164 28.16387,37.2831 78.24214,65.4847 131.50599,74.05761 19.86461,3.1972 60.57781,3.9103 81.71724,1.4311 z M -305.03345,779.06267 c 0.20005,-173.23174 0.5105,-218.60636 1.5,-219.23469 0.68626,-0.43577 35.40005,-0.7992 77.14176,-0.80762 l 75.89401,-0.0153 -0.50673,-46.56271 c -0.29807,-27.38968 -0.89848,-46.95447 -1.45812,-47.51411 -1.18842,-1.18842 -411.79409,-0.78582 -412.98472,0.40493 -0.45541,0.45546 -0.99293,21.71796 -1.19449,47.25 l -0.36648,46.42189 76.57607,0 c 74.68506,0 76.60164,0.0478 77.61126,1.93426 0.70448,1.31633 1.03518,71.4415 1.03518,219.50876 l 0,217.57448 53.25,-0.2587 53.25,-0.2588 0.25226,-218.44238 z"
         id="path4175"
         inkscape:connector-curvature="0" />
      <path
         style="fill:#b1d5ee"
         d="m -827.78571,509.50505 0,-593.499999 593.5,0 593.5,0 0,593.499999 0,593.50005 -593.5,0 -593.5,0 0,-593.50005 z m 936.70539,494.50535 c 34.64923,-2.6948 71.10431,-15.34475 96.79461,-33.58765 30.2391,-21.473 48.8631,-50.8021 55.4349,-87.29883 7.7844,-43.23082 -1.0022,-89.57722 -23.0972,-121.8299 -6.6295,-9.67729 -23.6784,-26.84182 -34.5159,-34.74994 -21.7656,-15.88247 -53.03666,-32.5868 -99.12961,-52.95294 -41.70518,-18.42741 -54.49519,-25.27598 -64.54165,-34.55965 -6.92121,-6.39571 -11.4288,-13.04764 -14.58709,-21.52644 -3.05308,-8.19635 -3.13104,-23.1313 -0.16987,-32.54242 6.51181,-20.69566 24.71138,-32.19738 51.10642,-32.29811 26.18635,-0.0999 43.82142,8.90317 60.22707,30.74728 7.59441,10.11196 10.78409,13.59325 12.45461,13.59325 2.49287,0 69.84272,-44.40281 77.80102,-51.29315 l 3.9827,-3.44823 -4.6503,-6.99342 c -29.3513,-44.14028 -67.0451,-69.04617 -113.15469,-74.76612 -17.55507,-2.17772 -46.23718,-2.92796 -60.79383,-1.59017 -48.94211,4.49788 -91.49815,29.31169 -116.0583,67.67191 -8.23741,12.86593 -16.66364,35.33929 -18.84579,50.26312 -1.87951,12.85405 -0.71358,54.98259 1.84474,66.65606 5.47083,24.96308 19.3218,48.99988 40.05122,69.50439 23.72838,23.47093 44.11192,35.58574 105.64155,62.7873 61.01171,26.9726 76.24161,36.78568 85.18413,54.88671 l 3.81587,7.7239 0,14.54885 c 0,14.33267 -0.0482,14.65057 -3.24224,21.39454 -6.73692,14.22439 -22.25442,25.65373 -42.38382,31.2176 -11.50386,3.17973 -32.57851,4.33205 -46.15473,2.52366 -19.29019,-2.56952 -38.90816,-10.46349 -51.7534,-20.82479 -10.91572,-8.8049 -26.55315,-25.43801 -33.39615,-35.52258 -3.26169,-4.80677 -6.18942,-8.73958 -6.50607,-8.73958 -0.64005,0 -81.43182,46.58947 -85.0754,49.05968 -1.8151,1.23056 -2.15946,2.1218 -1.63193,4.22365 0.92158,3.67184 15.30603,24.98667 24.97223,37.00377 30.5947,38.0356 89.39157,66.6206 145.17151,70.57725 16.87043,1.1967 40.84465,1.258 55.20539,0.141 z m -414.95765,-5.82825 c 0.9895,-0.6284 1.29995,-46.003 1.5,-219.23472 l 0.25226,-218.44238 76.5,-0.5 76.5,-0.5 0.27747,-45.5 c 0.15261,-25.025 0.0315,-46.5125 -0.26905,-47.75 l -0.54652,-2.25 -206.51234,0 c -195.73798,0 -206.54982,0.0913 -207.23094,1.75 -0.39524,0.9625 -0.71862,22.45 -0.71862,47.75 l 0,46 76.75,0.25621 76.75,0.25621 0,218.29379 c 0,168.45069 0.274,218.56779 1.2,219.49379 1.38837,1.3884 103.38132,1.7527 105.54774,0.3771 z"
         id="path4173"
         inkscape:connector-curvature="0" />
      <path
         style="fill:#94c6e8"
         d="m -827.78571,509.50505 0,-593.499999 593.5,0 593.5,0 0,593.499999 0,593.50005 -593.5,0 -593.5,0 0,-593.50005 z m 953.31248,493.06685 c 22.53621,-4.23535 38.4618,-9.39605 57.18752,-18.53195 17.5402,-8.5574 29.2022,-16.7516 42.0341,-29.5349 19.8708,-19.7955 31.6052,-42.80763 37.2242,-73 2.1402,-11.49981 2.3841,-46.40451 0.4017,-57.5 -6.6053,-36.97123 -18.5344,-60.57538 -42.0756,-83.25582 -22.5981,-21.77168 -54.01006,-40.17082 -113.0844,-66.23759 C 53.6203,650.8631 40.26113,642.80835 31.02994,628.57718 c -5.29027,-8.1557 -7.81565,-16.86935 -7.81565,-26.96737 0,-30.24845 20.09257,-48.60476 53.20212,-48.60476 17.32759,0 30.08772,3.74976 42.21955,12.40686 7.32803,5.22917 11.1492,9.32619 20.4745,21.95256 3.82919,5.18468 7.55653,9.64828 8.28299,9.91911 1.87563,0.69924 6.75342,-2.23494 38.32084,-23.05146 34.4091,-22.6904 44.5,-29.91862 44.5,-31.87572 0,-4.03632 -19.4681,-29.14528 -32.1588,-41.47679 -16.2793,-15.81854 -36.32402,-27.92115 -57.75098,-34.8689 -18.88898,-6.12481 -42.52731,-8.54739 -75.09022,-7.69565 -23.83209,0.62337 -32.07376,1.95515 -50.72768,8.19715 -24.58598,8.22698 -42.00407,18.89894 -59.32984,36.35105 -16.72957,16.85156 -26.83568,33.36218 -33.75217,55.14179 -4.9652,15.63514 -5.60347,20.70425 -5.60318,44.5 3.8e-4,31.24975 2.17204,44.62225 10.28377,63.32478 8.17553,18.84961 21.2712,37.62509 35.36169,50.6986 21.94254,20.35886 45.32542,33.91087 101.08736,58.58718 31.13882,13.77986 53.86934,24.97431 63.94346,31.49122 19.24215,12.44768 27.73659,26.40034 27.73659,45.5591 0,19.28382 -7.46944,33.12765 -23.35787,43.29135 -31.48513,20.14079 -86.62197,17.08149 -118.15374,-6.55583 -10.28847,-7.7126 -27.00876,-25.08699 -34.89594,-36.26106 -4.77142,-6.75986 -7.40001,-9.65434 -8.5,-9.35982 -2.62238,0.70215 -83.43567,47.69044 -85.48447,49.70431 -1.85466,1.82304 -1.8366,1.95515 0.91445,6.68997 8.54209,14.70171 22.06269,32.926 32.41637,43.6938 30.69795,31.9257 83.03823,55.9255 132.11755,60.58065 15.57514,1.4772 65.90365,0.5682 76.25613,-1.3774 z M -304.78009,779.50505 c 0.27809,-120.45 0.61559,-219.10971 0.75,-219.24379 0.13441,-0.13409 34.78188,-0.35909 76.99438,-0.5 l 76.75,-0.25621 -0.35827,-47 c -0.19705,-25.85 -0.66362,-47.33158 -1.03683,-47.73683 -0.993,-1.07827 -318.99631,-2.1882 -370.29274,-1.29244 -33.05418,0.5772 -43.80266,1.06212 -44.15958,1.99226 -0.78008,2.03284 -1.98956,89.05824 -1.27718,91.89657 l 0.65959,2.62803 76.7325,0.25621 76.73251,0.2562 0.24606,218 c 0.13534,119.9 0.46023,218.5664 0.72199,219.2588 0.37599,0.9945 11.6619,1.2044 53.75393,1 l 53.27802,-0.2588 0.50562,-219 z"
         id="path4171"
         inkscape:connector-curvature="0" />
      <path
         style="fill:#83bde4"
         d="m -827.78571,509.50505 0,-593.499999 593.5,0 593.5,0 0,593.499999 0,593.50005 -593.5,0 -593.5,0 0,-593.50005 z M 117.24052,1003.96 c 30.09705,-3.7118 62.42867,-15.37795 85.98147,-31.02435 12.6667,-8.4146 30.6555,-26.3988 38.7217,-38.7116 15.1601,-23.14142 22.2524,-49.45041 22.2647,-82.59066 0.015,-40.78089 -10.5715,-72.79819 -33.072,-100.02036 -9.7281,-11.7694 -20.9173,-21.40043 -38.4221,-33.07129 -23.15982,-15.44122 -40.68379,-24.42413 -93.57373,-47.9665 -44.33098,-19.73262 -58.23255,-28.1494 -66.53781,-40.28568 -7.00069,-10.22993 -8.78453,-16.04578 -8.82884,-28.78451 -0.0284,-8.15264 0.44204,-12.42368 1.81726,-16.5 8.27227,-24.52009 33.53976,-36.13779 66.24213,-30.45737 18.22825,3.16626 30.92446,11.90828 46.22896,31.8311 4.20862,5.47862 8.39115,10.41546 9.29451,10.97076 1.28626,0.79067 3.99726,-0.48052 12.5,-5.86127 17.50952,-11.08043 60.47792,-39.92993 66.15322,-44.41599 l 5.2237,-4.12906 -1.6158,-3.21909 c -3.582,-7.13632 -19.4717,-26.88775 -30.3521,-37.72863 -22.6679,-22.58561 -47.68183,-35.56171 -79.54575,-41.26482 -10.5946,-1.89626 -15.76703,-2.15334 -44.00575,-2.18723 -35.78634,-0.0429 -38.77747,0.32557 -60.59525,7.46556 -50.84041,16.63779 -85.73503,54.02301 -97.53452,104.49604 -1.55839,6.6661 -1.87023,12.08506 -1.87023,32.5 0,27.56768 1.12085,37.62611 5.73884,51.5 3.67244,11.03315 11.17759,26.17469 18.58748,37.5 6.51879,9.96335 25.91442,29.85433 37.40639,38.36173 18.37489,13.60276 44.87401,27.62703 86.26729,45.65571 58.35754,25.41738 77.13067,37.33047 85.44684,54.22301 6.3212,12.84019 6.48684,32.16226 0.38354,44.74172 -4.20803,8.67314 -15.05388,18.86931 -25.38436,23.86379 -34.46316,16.66192 -83.1138,11.53165 -113.61667,-11.98102 -8.36119,-6.4451 -27.38343,-26.76416 -33.32935,-35.60153 -3.025,-4.49604 -5.96166,-8.36678 -6.52592,-8.60164 -0.56426,-0.23487 -16.53926,8.54545 -35.5,19.51182 -51.84617,29.98638 -52.97408,30.68388 -52.97408,32.75969 0,2.49785 18.12533,29.55282 26.84246,40.06672 26.9083,32.4546 75.73327,58.8006 124.15754,66.99565 6.325,1.0704 13.525,2.1057 16,2.3006 10.86763,0.8558 60.33164,0.6077 68.02623,-0.3413 z m -421.78185,-5.20495 c 0.13441,-0.1375 0.47191,-98.8 0.75,-219.25 l 0.50562,-219 76.5,-0.5 76.5,-0.5 -0.17572,-47.34239 c -0.0967,-26.03831 -0.4716,-47.63831 -0.83322,-48 -0.36162,-0.36169 -93.52248,-0.65761 -207.02412,-0.65761 -165.8836,0 -206.61669,0.25004 -207.64138,1.27459 -0.99588,0.99577 -1.28031,11.49635 -1.30015,48 l -0.0254,46.72541 75.90516,0.25633 c 54.05323,0.18253 76.29232,0.57763 77.25,1.37244 1.11894,0.92864 1.34484,37.79795 1.34484,219.49367 l 0,218.37756 54,0 c 29.7,0 54.10997,-0.1125 54.24438,-0.25 z"
         id="path4169"
         inkscape:connector-curvature="0" />
      <path
         style="fill:#75b6e2"
         d="m -827.78571,509.50505 0,-593.499999 593.5,0 593.5,0 0,593.499999 0,593.50005 -593.5,0 -593.5,0 0,-593.50005 z m 933.5,495.53535 c 64.43847,-4.2432 119.3773,-35.94955 143.2283,-82.66005 24.6876,-48.34897 20.0354,-118.33717 -10.7933,-162.3753 -6.9916,-9.98735 -25.2955,-27.94776 -36.6884,-36 -21.9852,-15.53852 -51.06155,-30.95882 -95.01572,-50.39047 -46.2996,-20.46854 -59.62125,-27.86327 -69.58637,-38.62679 -10.56088,-11.407 -15.05279,-26.1227 -12.73878,-41.73274 2.9218,-19.71015 15.71824,-33.31775 36.09427,-38.38228 7.59112,-1.8868 26.69733,-1.60797 35.47237,0.51767 16.70288,4.04606 28.18735,12.51546 42.06312,31.02009 4.38048,5.84178 8.90768,10.87175 10.06045,11.17771 1.51776,0.40284 6.4831,-2.26462 18,-9.66989 36.61796,-23.54501 63.98116,-42.4429 64.91616,-44.83313 1.305,-3.33585 -19.0568,-29.60759 -34.1715,-44.08962 -23.4284,-22.44784 -51.70223,-35.59126 -84.8406,-39.43922 -29.23742,-3.39498 -59.98437,-2.86364 -79.39119,1.37196 -61.01182,13.31601 -105.82537,57.52196 -115.68431,114.11581 -1.34441,7.71738 -1.55105,13.88379 -1.12127,33.4609 0.28977,13.2 1.02986,26.925 1.64464,30.5 3.77039,21.92511 18.16821,50.07533 35.15748,68.73895 23.13893,25.41935 48.31161,40.7491 115.39465,70.27342 25.4305,11.19238 48.54646,22.65058 58,28.74966 17.48765,11.28238 25.55853,22.42516 27.53519,38.01551 3.08026,24.29468 -6.87874,42.66861 -29.03519,53.56865 -13.98082,6.87798 -22.43988,8.80532 -41.24322,9.39702 -22.63002,0.71211 -39.31516,-2.59152 -57.24468,-11.33433 -14.27349,-6.96006 -36.19279,-27.50156 -48.46335,-45.41706 -4.59853,-6.71403 -6.67025,-8.96731 -7.83414,-8.52068 -1.7506,0.67177 -77.01308,44.11401 -83.27795,48.06885 -2.24897,1.41971 -3.93666,3.27172 -3.93666,4.31996 0,3.93665 20.56617,33.87315 31.65308,46.07485 25.83854,28.4366 72.96727,52.9088 117.46606,60.99605 19.19873,3.4891 49.39813,4.7496 74.38086,3.1045 z M -304.03345,780.06267 c 0.20005,-173.23174 0.5105,-218.60636 1.5,-219.23469 0.68626,-0.43577 35.37311,-0.7992 77.0819,-0.80762 l 75.83417,-0.0153 -0.33417,-47.25 c -0.18379,-25.9875 -0.69822,-47.8125 -1.14318,-48.5 -0.64289,-0.99333 -43.05713,-1.25 -206.55887,-1.25 -176.07766,0 -206.02979,0.20461 -207.69098,1.41882 -1.87368,1.36951 -1.94113,3.04619 -1.94113,48.25 l 0,46.83118 76.5,0.5 76.5,0.5 0.50562,219 c 0.27809,120.45 0.61559,219.1164 0.75,219.2586 0.13441,0.1422 24.65688,0.1422 54.49438,0 l 54.25,-0.2586 0.25226,-218.44238 z"
         id="path4167"
         inkscape:connector-curvature="0" />
      <path
         style="fill:#64adde"
         d="m -827.78571,509.50505 0,-593.499999 593.5,0 593.5,0 0,593.499999 0,593.50005 -593.5,0 -593.5,0 0,-593.50005 z m 938.14276,495.50355 c 23.28251,-1.9296 50.34503,-9.31535 71.43264,-19.49505 38.9969,-18.8252 66.0504,-49.3153 76.758,-86.5085 7.7671,-26.97936 8.4803,-57.71206 2.0189,-87 -6.5924,-29.88228 -18.5956,-51.4704 -40.0877,-72.09904 -23.0834,-22.15605 -54.25579,-40.17963 -118.2646,-68.37957 -53.11757,-23.40165 -65.24422,-31.53058 -73.87552,-49.52139 -3.32031,-6.92077 -3.6274,-8.33981 -3.97621,-18.37396 -0.75812,-21.80865 6.77947,-35.52538 24.41171,-44.42385 11.50432,-5.80589 32.54761,-7.25761 47.7405,-3.29349 16.82668,4.39041 27.4741,12.31178 41.15639,30.61913 5.92857,7.93262 9.1896,11.47217 10.56946,11.47217 2.35374,0 9.7443,-4.5629 42.85087,-26.45597 29.0001,-19.17754 40.1228,-27.20506 40.1228,-28.95769 0,-3.81479 -20.119,-29.90516 -32.2135,-41.77447 -24.3604,-23.90695 -54.27919,-37.8771 -89.7865,-41.92459 -17.66904,-2.0141 -59.26863,-1.74968 -70.5,0.44812 -33.28134,6.51262 -60.42146,20.02097 -82.01875,40.82289 -20.88821,20.11895 -34.81444,45.6804 -40.04514,73.50244 -2.14459,11.40704 -2.16561,45.00084 -0.0382,61.01666 3.62308,27.2754 18.76022,56.49598 40.56126,78.29902 11.84403,11.84512 20.69672,18.84243 36.0408,28.48724 12.65685,7.9557 43.55138,23.32751 69.5,34.58026 59.236,25.68798 77.85308,37.60739 86.5829,55.43389 3.19562,6.52553 3.44008,7.73926 3.77173,18.72621 0.29345,9.72188 -0.002,12.92327 -1.71412,18.5593 -6.89971,22.71581 -32.25264,37.48071 -66.89167,38.95603 -27.14807,1.15626 -51.5357,-5.24342 -70.08912,-18.39245 -9.86101,-6.98861 -28.69917,-26.42113 -36.0134,-37.14965 -3.49452,-5.12577 -6.9186,-9.53636 -7.60906,-9.80131 -1.105,-0.42403 -78.35299,43.50842 -85.69529,48.7366 -1.56308,1.11301 -2.84197,2.82119 -2.84197,3.79595 0,4.68179 20.30718,33.93712 32.70497,47.11602 32.38025,34.4204 86.45303,58.99055 138.29503,62.83985 16.26148,1.2074 43.45376,1.2736 57.14276,0.1392 z m -415.72455,-5.61055 c 1.43572,-0.5509 1.58179,-20.8207 1.58179,-219.49999 l 0,-218.89301 75.41821,0 c 41.48002,0 76.13002,-0.27314 77,-0.60699 1.41147,-0.54163 1.58179,-5.68864 1.58179,-47.8 0,-35.37234 -0.30057,-47.49358 -1.2,-48.39301 -1.51741,-1.51741 -412.40118,-1.73715 -414.8,-0.22183 -1.29156,0.81587 -1.54238,7.50568 -1.805,48.14167 -0.24549,37.98474 -0.0503,47.35565 1,48.02184 0.71775,0.45523 35.3925,0.83459 77.055,0.84301 l 75.75,0.0153 0,218.45031 c 0,206.99299 0.0918,218.50379 1.75,219.46959 1.89496,1.10376 103.84651,1.55596 106.66821,0.4731 z"
         id="path4165"
         inkscape:connector-curvature="0" />
      <path
         style="fill:#57a6dc"
         d="m -827.78571,509.50505 0,-593.499999 593.5,0 593.5,0 0,593.499999 0,593.50005 -593.5,0 -593.5,0 0,-593.50005 z m 940.5,495.48125 c 41.34471,-3.9988 82.9349,-21.68965 109.2676,-46.47825 27.4012,-25.7943 41.2531,-58.06401 42.9266,-100.003 1.4308,-35.85422 -7.5531,-70.73067 -24.7289,-96 -21.9342,-32.27015 -57.9679,-56.12941 -137.4653,-91.02078 -54.16424,-23.77266 -68.34158,-33.55824 -75.56213,-52.15499 -3.12223,-8.04141 -3.83709,-23.70222 -1.45816,-31.94467 6.28661,-21.78168 23.75404,-33.37956 50.27255,-33.37956 18.25217,0 31.62785,4.06656 43.86493,13.3361 6.42177,4.86448 9.66016,8.46997 19.37079,21.56669 3.25146,4.38525 6.78704,8.44162 7.85684,9.01416 2.22597,1.1913 10.88544,-4.00332 48.15518,-28.88722 27.2969,-18.22536 36,-24.6523 36,-26.58492 0,-4.21918 -17.8993,-27.51551 -31.4592,-40.94481 -24.0571,-23.82541 -50.91289,-37.0766 -85.52625,-42.20034 -8.74815,-1.29496 -18.36174,-1.70614 -40.01455,-1.71143 -25.8749,-0.006 -29.46714,0.20174 -39,2.25898 -29.13374,6.2872 -52.74515,17.60336 -73.64427,35.29523 -22.78124,19.28515 -40.35826,50.09664 -45.27109,79.35756 -2.62262,15.62039 -2.10515,50.20275 1.00277,67.01505 2.6409,14.28591 11.33519,34.17572 22.076,50.50293 7.38385,11.22425 25.23067,29.56591 37.83659,38.88568 18.34012,13.55915 41.32416,25.73745 85.31258,45.20364 48.40609,21.42114 68.7554,32.61325 78.00799,42.90435 10.14813,11.28717 13.12207,19.99927 12.48735,36.58152 -0.40312,10.53148 -0.66886,11.74087 -4.10964,18.70281 -15.81416,31.99778 -68.76742,43.20182 -116.59523,24.66954 -17.52146,-6.78918 -38.63941,-25.39323 -54.82068,-48.29477 -3.0425,-4.30608 -6.12741,-8.05779 -6.85535,-8.33713 -0.72794,-0.27934 -17.88432,9.05298 -38.12528,20.73848 -47.30719,27.31136 -50.11953,29.01069 -50.75573,30.66861 -0.6834,1.78091 1.3215,5.6236 8.74159,16.75452 18.74544,28.12017 33.14261,42.95467 56.79128,58.51627 29.53719,19.4366 69.39573,33.20295 103.92112,35.89235 15.01201,1.1694 49.75767,1.2131 61.5,0.077 z m -416.5,-224.48125 0.5,-219 76.13272,-0.25622 c 59.51795,-0.2003 76.35959,-0.52958 77.17231,-1.50885 0.70828,-0.85343 0.82533,-16.38781 0.36728,-48.74378 l -0.67231,-47.49115 -110,-0.79803 c -60.5,-0.43892 -153.87069,-0.56557 -207.49043,-0.28144 -91.04033,0.48242 -97.5744,0.63144 -98.75966,2.25238 -0.99203,1.35668 -1.21252,12.01075 -1.00957,48.78143 l 0.25966,47.04566 76.75,0.25621 76.75,0.25621 0,218.29379 c 0,169.31219 0.27119,218.56499 1.20858,219.50239 0.92124,0.9212 13.93842,1.1471 54.75,0.95 l 53.54142,-0.2586 0.5,-219 z"
         id="path4163"
         inkscape:connector-curvature="0" />
      <path
         style="fill:#4aa0d9"
         d="m -827.78571,509.50505 0,-593.499999 593.5,0 593.5,0 0,593.499999 0,593.50005 -593.5,0 -593.5,0 0,-593.50005 z M 115.1373,1004.978 c 29.84708,-3.1434 63.85859,-15.16295 88.07699,-31.12605 11.5092,-7.586 31.5087,-27.1443 38.2713,-37.4271 10.3343,-15.7133 16.8122,-31.68447 20.8559,-51.4198 2.5798,-12.59029 3.5795,-40.27419 1.9361,-53.61219 -6.6478,-53.95428 -28.4512,-86.77485 -78.8399,-118.67706 -13.79827,-8.73603 -55.69651,-29.69525 -83.2234,-41.63179 -40.72579,-17.66 -60.35276,-29.07616 -67.78459,-39.42739 -1.80652,-2.51617 -4.68428,-7.56593 -6.39502,-11.22169 -5.67749,-12.13253 -4.84114,-31.27178 1.90844,-43.67298 5.55431,-10.2051 17.75558,-18.47672 31.60289,-21.42459 8.7738,-1.86779 27.27178,-1.29088 36.13376,1.12695 14.48175,3.95108 27.46235,13.61052 38.35379,28.54074 6.18002,8.47171 11.12096,14 12.51257,14 2.08909,0 67.16106,-42.78886 77.49806,-50.95977 2.8436,-2.24771 5.1701,-4.89614 5.1701,-5.88542 0,-2.24195 -7.8816,-13.79449 -17.5507,-25.72517 -14.8008,-18.26266 -31.641,-32.27553 -50.10649,-41.69413 -27.77677,-14.16793 -52.51342,-18.55393 -98.34281,-17.43691 -19.14435,0.46661 -24.06597,0.91644 -33,3.01614 -31.79639,7.47288 -57.49006,21.1099 -77.53474,41.15187 -18.68206,18.67955 -30.60914,39.9716 -37.23589,66.47302 -2.47566,9.90056 -2.64187,12.02865 -2.66023,34.06037 -0.0289,34.64758 2.19544,46.90178 12.48424,68.77807 8.18294,17.39877 16.59182,29.19321 30.8152,43.22193 24.19963,23.86845 43.98796,35.58172 108.00006,63.92828 45.89193,20.32239 66.33945,31.71522 75.10982,41.84926 2.24785,2.59735 5.67889,7.91048 7.62454,11.80694 3.06855,6.14526 3.60972,8.33274 4.08199,16.5 1.02084,17.65427 -3.14265,29.44211 -13.97325,39.56164 -28.81723,26.92526 -91.04468,26.82238 -126.33636,-0.20887 -10.16248,-7.78383 -27.85751,-26.43542 -34.80572,-36.68725 -3.26169,-4.8125 -6.63942,-8.75 -7.50607,-8.75 -1.57556,0 -81.56964,45.7475 -86.72665,49.59776 -2.62834,1.96234 -2.67793,2.16657 -1.32834,5.47034 2.23449,5.46996 18.11847,28.5579 26.81512,38.9767 30.23037,36.2169 87.03789,64.23155 139.67628,68.88135 13.19809,1.1659 55.51436,1.1957 66.42301,0.047 z M -303.78009,780.50505 c 0.27809,-120.45 0.61559,-219.1125 0.75,-219.25 0.13441,-0.1375 34.66081,-0.25 76.72533,-0.25 l 76.48095,0 0.64641,-2.57552 c 0.35553,-1.41653 0.2516,-23.35403 -0.23095,-48.75 l -0.87736,-46.17448 -64.5,-0.77628 c -35.475,-0.42695 -128.72151,-0.65195 -207.21446,-0.5 -127.78489,0.24738 -142.87781,0.43964 -144.27583,1.83782 -1.34987,1.35002 -1.64715,7.71904 -2.19465,47.01843 -0.47773,34.29092 -0.34074,46.00352 0.55767,47.68222 l 1.19096,2.22533 76.21815,0.25624 76.21816,0.25624 0.24606,218 c 0.13534,119.9 0.4602,218.5664 0.72193,219.2586 0.37604,0.9946 11.8617,1.2044 54.75394,1 l 54.27807,-0.2586 0.50562,-219 z"
         id="path4161"
         inkscape:connector-curvature="0" />
      <path
         style="fill:#449cd8"
         d="m -827.78571,509.50505 0,-593.499999 593.5,0 593.5,0 0,593.499999 0,593.50005 -593.5,0 -593.5,0 0,-593.50005 z m 959.5,493.15805 c 69.2646,-14.86545 114.6501,-53.04255 128.5227,-108.11027 4.2635,-16.92397 5.3308,-28.1858 4.6825,-49.40769 -0.6134,-20.08092 -2.8493,-33.5526 -8.2387,-49.64009 -11.7456,-35.06096 -34.596,-60.87184 -75.9261,-85.76296 -15.67654,-9.44125 -47.69605,-25.34403 -75.0404,-37.26951 -52.66344,-22.96771 -68.03533,-32.75001 -75.92299,-48.31555 -8.01563,-15.81809 -7.02781,-36.91571 2.36784,-50.57182 11.11865,-16.16041 35.3745,-23.09946 61.7318,-17.6601 17.06667,3.52206 29.79601,12.45022 42.71124,29.95699 3.49876,4.74262 7.57189,9.74122 9.05139,11.10799 l 2.69001,2.48505 4.18535,-2.39615 c 7.19156,-4.11722 49.50626,-31.94773 64.43536,-42.37938 11.3336,-7.91928 14.25,-10.42894 14.25,-12.26262 0,-4.96206 -18.7769,-29.1735 -33.8317,-43.62346 -16.3745,-15.71661 -34.65269,-26.68833 -56.1683,-33.71576 -19.99288,-6.53007 -39.44776,-8.56229 -74.7023,-7.80327 -26.45093,0.56949 -31.60331,1.31193 -50.2977,7.24773 -51.58731,16.37989 -87.65508,54.74034 -99.62977,105.96282 -1.57784,6.74929 -1.86248,11.98665 -1.82064,33.5 0.0699,35.9619 2.32821,46.95871 14.61988,71.19238 7.7096,15.19987 15.79063,26.44187 27.47361,38.22016 22.3133,22.49533 49.5791,38.71462 106.85692,63.56475 26.00952,11.28429 53.41392,24.8344 62.84997,31.07617 22.26921,14.73066 30.30016,33.05236 25.14808,57.37251 -4.75346,22.43845 -27.98346,38.15323 -61.60271,41.67336 -24.93144,2.61048 -53.91903,-3.92637 -72.70414,-16.39515 -10.17004,-6.75045 -30.20466,-26.83705 -38.60081,-38.70095 -3.6965,-5.22322 -7.25404,-9.79317 -7.90565,-10.15543 -0.65161,-0.36226 -19.299,9.81515 -41.43865,22.61647 -46.16004,26.6901 -48.24609,27.99473 -48.24609,30.17328 0,3.60422 17.80176,29.94245 29.78431,44.06685 20.86498,24.5945 59.93016,47.8639 98.69608,58.789 26.28545,7.40785 36.14756,8.43125 77.51961,8.04415 30.5096,-0.2855 33.23492,-0.4619 44.5,-2.8795 z m -435.53518,-4.59235 c 0.70448,-1.3163 1.03518,-71.4368 1.03518,-219.49375 l 0,-217.55953 76.75,-0.25621 76.75,-0.25621 -0.23024,-47.93024 c -0.15566,-32.40573 -0.57669,-48.27673 -1.29988,-49 -0.75269,-0.75277 -62.23378,-1.06976 -207.48388,-1.06976 -192.60598,0 -206.52751,0.11326 -208.10744,1.69304 -1.52577,1.52562 -1.74069,6.13716 -2.17333,46.63431 -0.26407,24.71769 -0.1854,46.11554 0.17482,47.55075 l 0.65494,2.60949 76.7325,0.25621 76.73251,0.2562 0.24606,218 c 0.13534,119.9 0.45871,218.5625 0.71862,219.25 0.37,0.9787 12.19049,1.25005 54.46875,1.25005 52.36101,0 54.02755,-0.059 55.03139,-1.93435 z"
         id="path4159"
         inkscape:connector-curvature="0" />
      <path
         style="fill:#3795d5"
         d="m -827.78571,509.50505 0,-593.499999 593.5,0 593.5,0 0,593.499999 0,593.50005 -593.5,0 -593.5,0 0,-593.50005 z m 931.24155,496.49965 c 47.90207,-2.7817 92.11625,-20.78475 121.18405,-49.34365 29.8869,-29.3637 43.4323,-68.63638 40.4581,-117.30182 -1.9366,-31.68835 -11.8699,-60.60461 -28.3303,-82.47057 -22.83,-30.32738 -58.3464,-52.82544 -138.99727,-88.04854 C 76.82,659.69033 57.41242,649.95515 49.08253,644.41746 30.59922,632.12978 22.04201,614.11511 25.01132,593.74268 c 3.85712,-26.4637 24.59426,-41.10842 55.70297,-39.33785 25.19045,1.43374 39.31468,9.57226 56.44195,32.52243 4.51013,6.04348 9.10423,11.27506 10.20912,11.62574 2.38771,0.75783 5.38003,-1.00789 37.84893,-22.33396 28.5659,-18.7625 45.6109,-30.75773 46.3156,-32.59392 0.6993,-1.82236 -1.245,-5.40715 -8.1095,-14.95196 -26.0496,-36.2212 -55.16725,-57.29886 -91.99016,-66.58975 -26.27349,-6.62914 -76.90995,-7.45489 -100.71594,-1.64243 -32.13823,7.84687 -55.23559,20.2872 -76.14921,41.0143 -18.21778,18.0553 -30.2628,39.05402 -37.03687,64.56834 -2.71008,10.20744 -2.78282,11.17417 -2.7828,36.98143 2e-5,29.25629 0.85961,37.17177 5.58315,51.41198 8.46102,25.50772 23.90167,48.75869 44.36291,66.80293 20.08368,17.71127 46.23012,32.54995 96.52282,54.7788 49.78411,22.00407 68.27846,32.19214 78.68854,43.34757 10.57219,11.32915 14.69167,24.76004 12.53793,40.87786 -3.11915,23.34255 -20.81826,38.80671 -51.83772,45.29192 -11.83413,2.47415 -33.10336,2.25286 -46.38875,-0.48263 -13.47221,-2.77396 -27.69417,-8.37078 -37.08543,-14.59437 -10.15403,-6.72908 -30.88603,-27.70017 -38.98448,-39.43406 -3.83278,-5.55334 -7.20424,-9.45116 -8.11544,-9.38243 -1.73378,0.13076 -84.2951,47.67394 -87.06465,50.13643 -2.69597,2.39707 -2.18523,4.24758 3.80633,13.79102 23.99623,38.22158 45.89579,58.30198 83.94367,76.97068 30.02414,14.7318 56.73895,21.73135 89.40512,23.42495 21.56991,1.1183 25.01325,1.123 43.33643,0.059 z m -406.99717,-6.24965 c 0.13441,-0.1375 0.47191,-98.8 0.75,-219.25 l 0.50562,-219 76.5,-0.5 76.5,-0.5 -0.0778,-48.33455 c -0.0654,-40.63986 -0.3042,-48.47784 -1.5,-49.23468 -1.59295,-1.0082 -406.11883,-1.28946 -412.18659,-0.28659 -2.95186,0.48788 -3.92296,1.18699 -4.49911,3.23899 -0.4041,1.43926 -0.73514,23.31683 -0.73563,48.61683 l -8.9e-4,46 76.44487,0.2563 c 59.63207,0.19992 76.61858,0.52982 77.23469,1.5 0.4344,0.68403 0.79671,99.1562 0.80513,218.82703 0.008,119.67084 0.31531,217.88337 0.68198,218.24997 0.60079,0.6008 108.99482,1.01305 109.57771,0.4167 z"
         id="path4157"
         inkscape:connector-curvature="0" />
      <path
         style="fill:#258cd2"
         d="m -827.78571,509.50505 0,-593.499999 593.5,0 593.5,0 0,593.499999 0,593.50005 -593.5,0 -593.5,0 0,-593.50005 z m 951,495.00245 c 60.4026,-9.99885 105.6386,-39.53295 127.704,-83.37685 23.9706,-47.6295 18.767,-118.50349 -11.8603,-161.53942 -21.9266,-30.81014 -56.7937,-53.685 -133.3437,-87.48127 C 61.5503,652.61187 48.65884,645.58003 38.55666,635.47786 21.3615,618.2827 20.02654,587.12304 35.75707,570.13218 45.8428,559.23839 58.29212,554.62319 77.21429,554.76319 c 25.96775,0.19213 42.61992,8.94657 58.47532,30.74186 7.65295,10.51997 10.48893,13.5 12.84744,13.5 2.23805,0 19.47267,-10.8082 51.55454,-32.33098 25.0267,-16.78963 32.1227,-22.09954 32.1227,-24.03724 0,-2.01176 -7.3623,-13.03338 -15.7857,-23.63178 -28.5362,-35.90457 -61.71318,-55.27078 -103.64869,-60.50231 -29.55251,-3.68673 -63.19388,-2.89057 -83.19903,1.96901 -54.16603,13.1578 -92.69208,46.73523 -109.03923,95.0333 -5.12857,15.15249 -6.32735,23.97974 -6.32735,46.59177 0,34.19684 2.48355,47.77012 12.60618,68.89628 8.62272,17.99582 16.97186,29.77664 30.83719,43.51195 23.02655,22.81063 48.1622,37.75982 105.05663,62.48145 28.48916,12.37904 53.89437,25.00489 64.1615,31.88691 10.91031,7.31314 17.13078,13.9319 21.56768,22.94864 3.239,6.58233 3.27082,6.78824 3.27082,21.165 0,14.33883 -0.04,14.59967 -3.23776,21.13533 -4.49802,9.19302 -14.48146,18.49711 -25.48852,23.75406 -12.07165,5.76541 -22.81028,8.23137 -38.59154,8.86196 -28.18931,1.12638 -52.61437,-5.55528 -71.12519,-19.45684 -10.59416,-7.95618 -25.29979,-23.18635 -33.55699,-34.75395 -3.85,-5.3935 -7.6949,-10.24429 -8.54421,-10.77954 -1.17847,-0.74268 -9.23137,3.46716 -34,17.77429 -57.40603,33.15948 -55.95579,32.25318 -55.95579,34.96878 0,6.49158 22.72388,38.14081 38.13454,53.11281 33.44018,32.4882 84.03931,54.45785 134.36546,58.33995 17.20919,1.3275 57.88149,0.4869 69.5,-1.4364 z m -427.93426,-4.53765 c 1.90328,-1.0186 1.93426,-4.5337 1.93426,-219.49998 l 0,-218.46482 74.75,-0.0136 c 41.1125,-0.008 75.7625,-0.285 77,-0.61664 l 2.25,-0.60297 0,-47.44911 c 0,-30.79553 -0.36333,-48.12799 -1.03518,-49.38337 -1.01834,-1.90282 -4.40125,-1.93431 -207.80887,-1.93431 -176.94986,0 -207.05367,0.20462 -208.71482,1.41865 -1.86624,1.36391 -1.95322,3.2435 -2.25452,48.71706 -0.29253,44.14915 -0.19658,47.38383 1.44112,48.58135 1.39088,1.01703 17.36346,1.28294 77.0634,1.28294 l 75.30887,0 0.0153,217.75 c 0.008,119.7625 0.34592,218.245 0.75,218.8501 0.40408,0.605 1.40969,1.357 2.23469,1.67105 2.83416,1.0789 105.0238,0.7865 107.06574,-0.30635 z"
         id="path4155"
         inkscape:connector-curvature="0" />
      <path
         style="fill:#1383ce"
         d="m -827.78571,509.50505 0,-593.499999 593.5,0 593.5,0 0,593.499999 0,593.50005 -593.5,0 -593.5,0 0,-593.50005 z m 953.44627,495.02935 c 63.40293,-11.80255 108.05163,-42.81725 128.40803,-89.19735 12.3121,-28.05205 15.4423,-67.13186 8.1675,-101.96883 -6.1674,-29.53362 -17.9658,-51.43699 -38.9792,-72.36317 -18.2058,-18.13036 -35.7981,-29.72928 -74.0426,-48.81774 -14.025,-7.0001 -35.175,-16.94356 -47,-22.09656 -51.02711,-22.23619 -63.72573,-30.652 -72.26561,-47.89288 l -4.23439,-8.54867 0.0463,-12.57207 c 0.0393,-10.65914 0.39266,-13.4473 2.32262,-18.32417 4.62353,-11.68328 13.82954,-20.10754 27.2445,-24.93098 5.63658,-2.02667 8.20676,-2.29375 21.88657,-2.27439 14.31456,0.0202 16.10344,0.23284 23.39015,2.77967 15.12985,5.28815 23.17325,11.79366 36.31606,29.37245 4.60334,6.15706 9.28021,11.48364 10.39304,11.83684 2.19445,0.69649 10.17828,-4.15444 45.90075,-27.88901 31.3796,-20.84909 39,-26.51743 39,-29.00957 0,-4.96623 -18.8196,-29.33267 -33.9322,-43.93333 -12.4513,-12.02958 -23.2575,-19.51564 -39.13849,-27.11341 -24.88394,-11.905 -42.57711,-15.01272 -85.42931,-15.00528 -26.08465,0.005 -30.00529,0.22461 -39,2.18922 -39.52948,8.63393 -72.79923,28.84714 -94.06057,57.14699 -11.0925,14.76463 -20.72824,36.22064 -25.07868,55.84297 -2.43576,10.9863 -2.41627,49.06446 0.0334,65.2132 4.12622,27.20111 19.32918,55.69597 41.59547,77.96226 21.9803,21.9803 46.44426,36.37983 108.0104,63.57508 58.72402,25.93983 74.12074,35.83793 82.6772,53.15074 3.23159,6.53868 3.67837,8.40278 4.09685,17.09329 0.82475,17.12775 -2.80191,27.58863 -13.04575,37.6296 -27.22468,26.68552 -88.89258,27.35479 -124.67467,1.35306 -9.1111,-6.62076 -28.15637,-26.5001 -35.43543,-36.98731 -4.41111,-6.35524 -7.40872,-9.75 -8.60936,-9.75 -1.0131,0 -6.71703,2.86143 -12.67542,6.35874 -5.95838,3.49731 -24.73198,14.37142 -41.71912,24.16469 -16.98713,9.79327 -32.03133,18.79138 -33.43156,19.99581 -2.41631,2.07842 -2.47503,2.36266 -1.15374,5.58531 1.95979,4.78 17.53404,27.80645 25.45522,37.63545 30.00822,37.2357 87.94003,66.15615 142.51578,71.14595 16.58719,1.5166 65.69284,0.6451 76.44627,-1.3566 z m -429.69853,-4.3522 c 0.9895,-0.62845 1.29995,-46.00305 1.5,-219.23477 l 0.25226,-218.44238 76.13272,-0.25622 c 62.45945,-0.2102 76.33394,-0.49868 77.25314,-1.60626 1.2514,-1.50783 0.36385,-95.61544 -0.92137,-97.69498 -1.10712,-1.79136 -415.37207,-1.93336 -417.16389,-0.143 -1.03187,1.03103 -1.3006,11.36195 -1.3006,50 l 0,48.70046 76.75,0.25621 76.75,0.25621 0,218.29379 c 0,168.45069 0.274,218.56779 1.2,219.49379 0.90384,0.90385 14.41594,1.19625 54.75,1.18475 29.4525,-0.01 54.11148,-0.3719 54.79774,-0.8076 z"
         id="path4153"
         inkscape:connector-curvature="0" />
      <path
         style="fill:#0d80cd"
         d="m -827.78571,509.50505 0,-593.499999 593.5,0 593.5,0 0,593.499999 0,593.50005 -593.5,0 -593.5,0 0,-593.50005 z m 949,495.84405 c 39.68656,-5.65935 76.8804,-22.41325 101.7676,-45.84105 22.5048,-21.185 35.742,-46.54833 41.242,-79.02189 2.9265,-17.27921 2.4938,-46.90409 -0.9329,-63.85968 -8.2722,-40.93213 -27.3255,-70.11516 -61.8563,-94.7424 -19.9529,-14.23038 -52.83798,-31.71908 -91.7204,-48.77809 -23.9154,-10.49248 -38.755,-17.43921 -49.10461,-22.9869 -23.4493,-12.56951 -33.74036,-25.94397 -35.06461,-45.57062 -0.60546,-8.97355 1.20111,-18.74536 4.75256,-25.70678 2.78477,-5.4586 10.30085,-13.39145 15.66806,-16.53684 10.19484,-5.97457 27.71894,-8.62891 42.2486,-6.3993 20.67332,3.17238 33.35884,11.35904 47.41499,30.5995 7.54301,10.32509 10.54128,13.5 12.74889,13.5 2.93887,0 72.14702,-45.33662 81.23062,-53.21227 l 3.8944,-3.37657 -1.8681,-3.95558 c -3.3861,-7.16973 -19.6729,-27.77195 -30.4006,-38.45558 -17.2464,-17.17567 -36.30425,-29.10837 -58.0202,-36.32823 -20.09519,-6.68101 -36.75431,-8.78094 -70,-8.82369 -24.05473,-0.0309 -35.40129,1.28145 -51.5,5.95669 -36.50083,10.60024 -63.3901,29.01001 -83.67546,57.28852 -9.82718,13.69943 -16.56494,28.65884 -21.57732,47.90671 -2.625,10.08019 -2.73458,11.49954 -2.74077,35.5 -0.007,28.21865 1.09931,38.46111 5.61772,51.99714 7.61354,22.80825 19.82027,42.54716 36.8264,59.55019 23.43187,23.4276 46.07052,36.98694 105.54943,63.21848 48.45441,21.36949 68.7647,32.60079 78.29934,43.29841 6.61328,7.41994 10.00292,14.69187 11.37685,24.40725 4.37461,30.93377 -15.15156,53.00807 -53.17619,60.11559 -10.60314,1.98193 -31.82046,1.47628 -44,-1.0486 -12.18359,-2.52572 -28.45325,-8.68239 -35.18525,-13.3146 -14.01384,-9.64276 -30.03019,-25.99358 -41.36011,-42.22386 -5.536,-7.93041 -6.35616,-8.69935 -8.45464,-7.92669 -1.92071,0.70721 -80.26313,45.9436 -85.25,49.22496 -5.68303,3.73943 -5.21761,5.56301 5.5376,21.69696 14.16513,21.24927 26.70833,35.71057 40.79128,47.02937 28.08214,22.5701 67.92352,39.9524 105.46407,46.01275 21.57671,3.4832 63.88683,3.8826 85.45705,0.8067 z m -424.03518,-6.27835 c 0.70448,-1.3163 1.03518,-71.4368 1.03518,-219.49375 l 0,-217.55953 76.75,-0.25621 76.75,-0.25621 -0.14164,-48.84164 c -0.10299,-35.51434 -0.45775,-49.15772 -1.3001,-50 -0.87045,-0.87037 -52.7263,-1.15836 -208.57273,-1.15836 -197.0417,0 -207.50272,0.0884 -209.18294,1.76875 -1.63043,1.63051 -1.7984,5.46279 -2.14914,49.03335 -0.32616,40.51741 -0.17229,47.43737 1.07788,48.47492 1.10682,0.91859 19.75491,1.27212 77.36351,1.46665 l 75.90516,0.25633 0.24606,218 c 0.13534,119.9 0.45871,218.5625 0.71862,219.25 0.37015,0.97915 12.39049,1.25005 55.46875,1.25005 53.34968,0 55.02719,-0.058 56.03139,-1.93435 z"
         id="path4151"
         inkscape:connector-curvature="0" />
      <path
         style="fill:#0079cb"
         d="m -827.78571,509.50505 0,-593.499999 593.5,0 593.5,0 0,593.499999 0,593.50005 -593.5,0 -593.5,0 0,-593.50005 z m 938.14276,497.50355 c 33.66756,-2.7902 72.68904,-16.57685 97.66934,-34.50745 23.1854,-16.6421 41.7254,-40.8514 50.1584,-65.4961 17.0731,-49.89442 8.6062,-112.5618 -20.4171,-151.11639 -21.9346,-29.13794 -58.2742,-52.563 -131.5534,-84.80137 -54.99358,-24.19382 -67.73681,-32.53352 -76.22359,-49.88393 -3.2093,-6.56111 -3.27641,-6.97482 -3.27641,-20.19831 0,-13.10744 0.0928,-13.69601 3.19313,-20.24075 8.01479,-16.91933 23.48609,-25.07856 47.30687,-24.94859 26.43619,0.14423 40.8469,7.98338 58.77586,31.97291 8.27598,11.07354 11.1267,13.55622 14.22414,12.38779 3.7134,-1.4008 62.6541,-40.26597 76.75,-50.6085 4.5331,-3.32607 6.25,-5.21908 6.25,-6.89112 0,-4.49388 -18.4353,-29.00698 -31.8769,-42.38619 -21.8254,-21.72413 -51.58319,-37.17651 -80.42038,-41.76003 -26.36629,-4.19078 -64.89218,-4.42224 -85.08129,-0.51115 -53.38705,10.34228 -95.66259,43.65499 -113.56184,89.48563 -8.25009,21.12417 -10.5515,38.7389 -9.01504,69 1.33236,26.24127 3.71932,36.52916 12.99295,56 21.07455,44.24796 52.32451,68.60013 134.46611,104.78547 30.3759,13.38131 53.87254,24.96882 64.68493,31.89976 9.35814,5.99874 18.28324,15.33896 22.31146,23.34919 2.9064,5.77946 3,6.40238 3,19.96558 0,13.6277 -0.0831,14.17285 -3.12574,20.5 -4.06363,8.45035 -8.86074,13.85048 -17.15254,19.30869 -13.26482,8.73178 -26.47018,12.54673 -46.33545,13.38605 -25.6296,1.08287 -48.29059,-4.5338 -66.16225,-16.39874 -10.17948,-6.75812 -29.91003,-26.72903 -38.32906,-38.796 -4.24755,-6.08801 -7.74329,-10.10733 -8.93594,-10.27435 -2.14308,-0.30014 -85.46116,47.48549 -89.28546,51.2081 -2.24592,2.18621 -2.2722,2.3944 -0.75931,6.01526 3.90656,9.34971 22.50625,35.25029 34.0126,47.36349 29.75083,31.3199 83.75911,56.65245 130.43233,61.17905 15.76459,1.5289 18.09738,1.6447 36.64082,1.818 9.35,0.087 22.23924,-0.2754 28.64276,-0.806 z m -414.07702,-6.0387 c 1.90328,-1.01865 1.93426,-4.53355 1.93426,-219.48175 l 0,-218.44654 76.41698,-0.26828 c 42.02933,-0.14755 76.6955,-0.54695 77.03593,-0.88755 1.02799,-1.0285 0.60793,-96.89853 -0.43308,-98.84368 -0.89616,-1.67449 -7.83726,-1.79343 -129.73332,-2.2231 -175.97265,-0.62028 -286.71148,0.0453 -289.02659,1.73721 -1.63036,1.19148 -1.78232,4.84224 -2.06417,49.59125 -0.28348,45.00755 -0.18511,48.39221 1.44113,49.58134 1.37887,1.00825 17.55931,1.27625 77.05425,1.27625 l 75.30887,0 0.0153,217.75 c 0.008,119.7625 0.34592,218.245 0.75,218.8501 0.40408,0.60505 1.40969,1.35705 2.23469,1.67105 2.83519,1.0793 107.02354,0.7867 109.06574,-0.3063 z"
         id="path4149"
         inkscape:connector-curvature="0" />
    </g>
  </g>
</svg>
