<?xml version="1.0" encoding="UTF-8" standalone="no"?>
<!-- Created with Inkscape (http://www.inkscape.org/) -->

<svg
   xmlns:dc="http://purl.org/dc/elements/1.1/"
   xmlns:cc="http://creativecommons.org/ns#"
   xmlns:rdf="http://www.w3.org/1999/02/22-rdf-syntax-ns#"
   xmlns:svg="http://www.w3.org/2000/svg"
   xmlns="http://www.w3.org/2000/svg"
   xmlns:sodipodi="http://sodipodi.sourceforge.net/DTD/sodipodi-0.dtd"
   xmlns:inkscape="http://www.inkscape.org/namespaces/inkscape"
   width="128"
   height="128"
   viewBox="0 0 128 128"
   id="svg4160"
   version="1.1"
   inkscape:version="0.91 r13725"
   sodipodi:docname="ubuntu1.svg">
  <defs
     id="defs4162" />
  <sodipodi:namedview
     id="base"
     pagecolor="#ffffff"
     bordercolor="#666666"
     borderopacity="1.0"
     inkscape:pageopacity="0.0"
     inkscape:pageshadow="2"
     inkscape:zoom="2.8"
     inkscape:cx="128.20158"
     inkscape:cy="79.436636"
     inkscape:document-units="px"
     inkscape:current-layer="layer1"
     showgrid="false"
     units="px"
     inkscape:window-width="1366"
     inkscape:window-height="706"
     inkscape:window-x="-8"
     inkscape:window-y="-8"
     inkscape:window-maximized="1" />
  <metadata
     id="metadata4165">
    <rdf:RDF>
      <cc:Work
         rdf:about="">
        <dc:format>image/svg+xml</dc:format>
        <dc:type
           rdf:resource="http://purl.org/dc/dcmitype/StillImage" />
        <dc:title></dc:title>
      </cc:Work>
    </rdf:RDF>
  </metadata>
  <g
     inkscape:label="Capa 1"
     inkscape:groupmode="layer"
     id="layer1"
     transform="translate(0,-924.36216)">
    <path
       inkscape:connector-curvature="0"
       style="fill:#dd4814"
       d="m 14.001571,976.902 c -6.517419,0 -11.797531,5.28063 -11.797531,11.79753 0,6.51379 5.280112,11.79387 11.797531,11.79387 6.513782,0 11.793894,-5.28008 11.793894,-11.79387 0,-6.5169 -5.280112,-11.79753 -11.793894,-11.79753 z m 84.215839,53.6083 c -5.641648,3.2584 -7.576047,10.4683 -4.317081,16.1068 3.254824,5.6416 10.464661,7.5755 16.106291,4.3171 5.64113,-3.2548 7.57553,-10.4646 4.31707,-16.1068 -3.25481,-5.638 -10.4688,-7.5719 -16.10628,-4.3171 z M 39.621928,988.69953 c 0,-11.65624 5.789682,-21.95414 14.648739,-28.19003 l -8.62323,-14.44303 c -10.319722,6.89817 -17.998089,17.43917 -21.189012,29.78471 3.723349,3.0382 6.106542,7.6633 6.106542,12.84783 0,5.18143 -2.383193,9.80652 -6.106542,12.84469 3.186767,12.3492 10.865135,22.8907 21.189012,29.7889 l 8.62323,-14.4467 C 45.41161,1010.6537 39.621928,1000.3563 39.621928,988.69953 Z M 74.07381,954.24402 c 17.998616,0 32.76526,13.79997 34.31528,31.39913 l 16.80701,-0.24778 c -0.82695,-12.99275 -6.50287,-24.65679 -15.22428,-33.23379 -4.48484,1.69441 -9.66523,1.43521 -14.142801,-1.14588 -4.485367,-2.58838 -7.297621,-6.9548 -8.066391,-11.69469 -4.359143,-1.20302 -8.946848,-1.86167 -13.689857,-1.86167 -8.153651,0 -15.862669,1.91518 -22.707335,5.30296 l 8.195731,14.68666 c 4.40901,-2.05179 9.327587,-3.20494 14.512643,-3.20494 z m 0,68.90748 c -5.185056,0 -10.103633,-1.1538 -14.512124,-3.2051 l -8.19573,14.6862 c 6.844666,3.3919 14.553683,5.3076 22.707854,5.3076 4.743008,0 9.330714,-0.6591 13.689337,-1.8658 0.768771,-4.7398 3.582063,-9.1022 8.066391,-11.6952 4.480692,-2.5853 9.657952,-2.8397 14.142802,-1.1454 8.72141,-8.5769 14.39733,-20.241 15.22428,-33.23375 l -16.81117,-0.24776 c -1.54638,17.60381 -16.312505,31.39921 -34.31164,31.39921 z m 24.139437,-76.27003 c 5.641643,3.25793 12.852003,1.32821 16.106813,-4.31344 3.25845,-5.64163 1.32873,-12.85199 -4.31344,-16.11096 -5.64163,-3.25481 -12.851467,-1.32093 -16.110965,4.32071 -3.254292,5.63852 -1.320412,12.84887 4.317592,16.10369 z"
       id="path5" />
  </g>
</svg>
