<?xml version="1.0" encoding="UTF-8" standalone="no"?>
<svg
   xmlns:dc="http://purl.org/dc/elements/1.1/"
   xmlns:cc="http://creativecommons.org/ns#"
   xmlns:rdf="http://www.w3.org/1999/02/22-rdf-syntax-ns#"
   xmlns:svg="http://www.w3.org/2000/svg"
   xmlns="http://www.w3.org/2000/svg"
   xmlns:sodipodi="http://sodipodi.sourceforge.net/DTD/sodipodi-0.dtd"
   xmlns:inkscape="http://www.inkscape.org/namespaces/inkscape"
   width="128"
   height="128"
   viewBox="0 0 128 128"
   version="1.1"
   preserveAspectRatio="xMidYMid"
   id="svg2"
   inkscape:version="0.91 r13725"
   sodipodi:docname="unity.svg">
  <metadata
     id="metadata12">
    <rdf:RDF>
      <cc:Work
         rdf:about="">
        <dc:format>image/svg+xml</dc:format>
        <dc:type
           rdf:resource="http://purl.org/dc/dcmitype/StillImage" />
        <dc:title></dc:title>
      </cc:Work>
    </rdf:RDF>
  </metadata>
  <defs
     id="defs10" />
  <sodipodi:namedview
     pagecolor="#ffffff"
     bordercolor="#666666"
     borderopacity="1"
     objecttolerance="10"
     gridtolerance="10"
     guidetolerance="10"
     inkscape:pageopacity="0"
     inkscape:pageshadow="2"
     inkscape:window-width="1366"
     inkscape:window-height="706"
     id="namedview8"
     showgrid="false"
     inkscape:zoom="3.5893536"
     inkscape:cx="112.49226"
     inkscape:cy="55.289893"
     inkscape:window-x="-8"
     inkscape:window-y="-8"
     inkscape:window-maximized="1"
     inkscape:current-layer="svg2" />
  <g
     id="g4"
     style="fill:#222c37"
     transform="matrix(0.48727112,0,0,0.48727112,1.6716102,-0.18214138)">
    <path
       d="m 166.87233,131.23686 45.90879,-79.274513 22.18445,79.274513 -22.18445,79.25638 -45.90879,-79.25638 0,0 z m -22.37641,12.87366 45.91626,79.26278 -79.96661,-20.48673 -57.77043,-58.77605 91.82078,0 0,0 z m 45.90559,-105.032494 -45.90559,79.274514 -91.82078,0 57.77043,-58.779251 79.95594,-20.495263 0,0 z M 255.94071,104.25891 227.93262,0.06035193 123.39281,27.985268 107.91819,55.192492 76.516786,54.96748 0,131.24432 l 76.516786,76.25872 0.0032,0 31.387534,-0.23248 15.49702,27.20723 104.52808,27.92065 28.00809,-104.17937 -15.90545,-26.98221 15.90545,-26.97795 0,0 z"
       id="path6"
       inkscape:connector-curvature="0" />
  </g>
</svg>
