<?xml version="1.0" encoding="UTF-8" standalone="no"?>
<svg
   xmlns:dc="http://purl.org/dc/elements/1.1/"
   xmlns:cc="http://creativecommons.org/ns#"
   xmlns:rdf="http://www.w3.org/1999/02/22-rdf-syntax-ns#"
   xmlns:svg="http://www.w3.org/2000/svg"
   xmlns="http://www.w3.org/2000/svg"
   xmlns:sodipodi="http://sodipodi.sourceforge.net/DTD/sodipodi-0.dtd"
   xmlns:inkscape="http://www.inkscape.org/namespaces/inkscape"
   width="128"
   height="128"
   viewBox="0 0 128 128"
   version="1.1"
   preserveAspectRatio="xMidYMid"
   id="svg2"
   inkscape:version="0.91 r13725"
   sodipodi:docname="xamarin.svg">
  <metadata
     id="metadata12">
    <rdf:RDF>
      <cc:Work
         rdf:about="">
        <dc:format>image/svg+xml</dc:format>
        <dc:type
           rdf:resource="http://purl.org/dc/dcmitype/StillImage" />
        <dc:title></dc:title>
      </cc:Work>
    </rdf:RDF>
  </metadata>
  <defs
     id="defs10" />
  <sodipodi:namedview
     pagecolor="#ffffff"
     bordercolor="#666666"
     borderopacity="1"
     objecttolerance="10"
     gridtolerance="10"
     guidetolerance="10"
     inkscape:pageopacity="0"
     inkscape:pageshadow="2"
     inkscape:window-width="1366"
     inkscape:window-height="706"
     id="namedview8"
     showgrid="false"
     inkscape:zoom="2.0701754"
     inkscape:cx="77.467809"
     inkscape:cy="85.015448"
     inkscape:window-x="-8"
     inkscape:window-y="-8"
     inkscape:window-maximized="1"
     inkscape:current-layer="svg2" />
  <g
     id="g4"
     transform="matrix(0.49951605,0,0,0.49951605,0.14148232,7.8203821)">
    <path
       d="M 73.866321,0 C 66.952309,0.01466174 60.184271,3.9393135 56.703713,9.9265042 L 2.5697685,103.96322 c -3.426358,6.00322 -3.426358,13.84987 0,19.85309 l 54.1339445,94.03671 c 3.480924,5.98724 10.248596,9.91294 17.162608,9.92651 l 108.267509,0 c 6.91401,-0.0147 13.68168,-3.93927 17.1626,-9.92651 l 54.13394,-94.03671 c 3.42635,-6.00322 3.426,-13.84987 0,-19.85309 L 199.29643,9.9265042 C 195.81551,3.9393135 189.04784,0.01356215 182.13383,0 l -108.267509,0 0,0 z m 0.982533,55.012619 c 0.148728,-0.01466 0.304722,-0.01466 0.453913,0 l 18.674517,0 c 0.826636,0.01711 1.628477,0.494833 2.041283,1.212378 l 31.679073,56.452373 c 0.15946,0.27911 0.2622,0.59009 0.30119,0.90928 0.039,-0.31926 0.14165,-0.63026 0.30118,-0.90928 l 31.60325,-56.452373 c 0.42591,-0.739293 1.26531,-1.219661 2.11676,-1.212378 l 18.67453,0 c 1.65364,0.01466 2.89202,2.097482 2.11711,3.561431 l -30.9226,55.31573 30.9226,55.23994 c 0.84826,1.47236 -0.42059,3.65175 -2.11711,3.63719 l -18.67453,0 c -0.86633,-0.007 -1.7107,-0.52093 -2.11676,-1.28816 l -31.60325,-56.45237 c -0.15945,-0.27911 -0.2622,-0.59011 -0.30118,-0.90927 -0.039,0.31923 -0.14166,0.63028 -0.30119,0.90927 l -31.679073,56.45237 c -0.394008,0.74553 -1.200115,1.25422 -2.041283,1.28816 l -18.674517,0 c -1.696526,0.0147 -2.965032,-2.16483 -2.116769,-3.63719 L 104.10858,113.88978 73.185998,58.57405 c -0.741252,-1.335683 0.163114,-3.276334 1.662856,-3.561431 l 0,0 0,0 z"
       id="path6"
       inkscape:connector-curvature="0"
       style="fill:#3498db" />
  </g>
</svg>
