<?xml version="1.0" encoding="UTF-8" standalone="no"?>
<!-- Created with Inkscape (http://www.inkscape.org/) -->

<svg
   xmlns:dc="http://purl.org/dc/elements/1.1/"
   xmlns:cc="http://creativecommons.org/ns#"
   xmlns:rdf="http://www.w3.org/1999/02/22-rdf-syntax-ns#"
   xmlns:svg="http://www.w3.org/2000/svg"
   xmlns="http://www.w3.org/2000/svg"
   xmlns:sodipodi="http://sodipodi.sourceforge.net/DTD/sodipodi-0.dtd"
   xmlns:inkscape="http://www.inkscape.org/namespaces/inkscape"
   width="128"
   height="128"
   viewBox="0 0 128 128"
   id="svg2"
   version="1.1"
   inkscape:version="0.91 r13725"
   sodipodi:docname="Xmind.svg">
  <defs
     id="defs4" />
  <sodipodi:namedview
     id="base"
     pagecolor="#ffffff"
     bordercolor="#666666"
     borderopacity="1.0"
     inkscape:pageopacity="0.0"
     inkscape:pageshadow="2"
     inkscape:zoom="1.979899"
     inkscape:cx="53.243943"
     inkscape:cy="35.738284"
     inkscape:document-units="px"
     inkscape:current-layer="layer1"
     showgrid="false"
     units="px"
     inkscape:window-width="1366"
     inkscape:window-height="706"
     inkscape:window-x="-8"
     inkscape:window-y="-8"
     inkscape:window-maximized="1" />
  <metadata
     id="metadata7">
    <rdf:RDF>
      <cc:Work
         rdf:about="">
        <dc:format>image/svg+xml</dc:format>
        <dc:type
           rdf:resource="http://purl.org/dc/dcmitype/StillImage" />
        <dc:title></dc:title>
      </cc:Work>
    </rdf:RDF>
  </metadata>
  <g
     inkscape:label="Capa 1"
     inkscape:groupmode="layer"
     id="layer1"
     transform="translate(0,-924.36216)">
    <g
       id="g4211"
       transform="matrix(0.55591394,0,0,0.55591394,-98.557342,772.36842)">
      <path
         style="fill:#fbe8eb"
         d="m 200.62857,503.30504 c -0.91915,-0.91915 -1.2,-27.6055 -1.2,-114.02475 l 0,-112.82475 2.5651,-0.97525 c 1.55428,-0.59094 24.33268,-0.97525 57.80365,-0.97525 l 55.23856,0 5.13729,2.56002 c 3.59945,1.79368 11.95064,9.18402 27.89791,24.6881 27.20359,26.44757 32.99687,32.79328 34.33429,37.60829 1.5552,5.59908 1.38613,162.38066 -0.1768,163.94359 -1.73941,1.73941 -179.86059,1.73941 -181.6,0 z m 49.8,-46.8 c 0,-0.55 -0.47656,-1 -1.05902,-1 -0.58246,0 -0.7809,0.45 -0.44098,1 0.33992,0.55 0.81648,1 1.05902,1 0.24254,0 0.44098,-0.45 0.44098,-1 z m 7.13953,-37.55008 c 12.12952,-2.24888 11.51287,-1.86715 12.18508,-7.54295 0.79286,-6.69448 3.80199,-11.30575 9.02882,-13.83602 7.88851,-3.81876 19.3269,-2.02949 28.74355,4.49626 4.11418,2.85113 9.33008,10.18631 10.44063,14.68279 0.5488,2.22201 1.24339,2.75 3.61774,2.75 3.13592,0 26.07681,-3.91992 26.73902,-4.56891 0.21691,-0.21258 -0.37804,-2.40903 -1.32209,-4.881 -2.60254,-6.81466 -9.4044,-12.78161 -21.7945,-19.1193 -9.23208,-4.72233 -10.85064,-5.90235 -10.58792,-7.71922 0.34495,-2.38547 2.56947,-3.75044 11.09197,-6.80608 3.65664,-1.31105 6.41336,-3.03685 7.5,-4.69527 1.76717,-2.69705 2.39277,-11.36895 0.92598,-12.83574 -0.4357,-0.43571 -6.0607,0.10322 -12.5,1.19762 l -11.70781,1.98981 0.29018,4.41494 c 0.38902,5.91872 -1.2898,9.55782 -5.28357,11.45299 -4.09413,1.94279 -13.45156,2.03783 -17.89382,0.18173 -5.03567,-2.10403 -10.50032,-8.17447 -13.62196,-15.13201 l -2.8032,-6.24779 -13.34381,2.35857 c -7.3391,1.29721 -13.68132,2.37006 -14.09382,2.38411 -2.74489,0.0935 1.78736,9.61163 6.45615,13.55849 1.81162,1.53149 6.66885,4.31386 10.79385,6.18304 13.38332,6.06445 14.49181,6.72676 14.79402,8.83919 0.38303,2.67735 -1.85244,4.47264 -9.79402,7.86549 -13.02384,5.56414 -19.146,11.17651 -20.53966,18.82934 -0.64026,3.51571 -0.52668,3.75 1.8179,3.75 1.37545,0 6.26304,-0.69753 10.86129,-1.55008 z m 102.86047,-97.35273 c 0,-1.18825 -23.14906,-23.28147 -23.75705,-22.67347 -0.25772,0.25771 -0.14481,5.42474 0.25091,11.48228 l 0.71949,11.01371 7.64332,0.3389 c 4.20383,0.1864 9.33083,0.42946 11.39333,0.54015 2.0625,0.11068 3.75,-0.20503 3.75,-0.70157 z"
         id="path4263"
         inkscape:connector-curvature="0" />
      <path
         style="fill:#fcdbe2"
         d="m 200.89176,502.26036 c -0.26297,-0.69042 -0.36226,-51.88032 -0.22066,-113.75532 l 0.25747,-112.5 56.5,-0.2943 c 37.9524,-0.19769 57.71313,0.0563 60.19545,0.7738 4.06982,1.1763 12.3723,8.30629 19.01577,16.33032 3.71717,4.48962 3.91069,4.93681 1.45202,3.3552 -1.56022,-1.00366 -3.0628,-1.59879 -3.33906,-1.32253 -0.27627,0.27626 -0.0122,3.66092 0.58676,7.52146 0.59898,3.86053 1.08906,9.74546 1.08906,13.0776 0,3.33215 0.1125,6.06911 0.25,6.08213 0.1375,0.013 5.425,0.438 11.75,0.94439 6.325,0.50639 13.03247,1.24098 14.90549,1.63242 2.60618,0.54466 3.22331,0.41694 2.62932,-0.54416 -1.36973,-2.21628 2.73272,0.4796 8.17263,5.37054 8.97569,8.06991 8.33795,0.72178 8.04846,92.73669 l -0.2559,81.33644 -90.27934,0.25532 c -71.69507,0.20277 -90.37777,-0.003 -90.75747,-1 z m 145.5215,-37.00532 c -0.012,-1.75671 -0.21673,-1.9316 -0.93402,-0.79775 -0.50529,0.79874 -0.69684,1.81124 -0.42567,2.25 0.86737,1.40343 1.37543,0.86078 1.35969,-1.45225 z m -68.07924,-2.60417 c -1.4779,-0.50795 -2.22865,0.5222 -1.38059,1.8944 0.53766,0.86994 0.94308,0.82251 1.56809,-0.18347 0.49513,-0.79692 0.41776,-1.5029 -0.1875,-1.71093 z m -27.6157,-6.14583 c -0.28766,-1.1 -0.92053,-2 -1.40638,-2 -0.48585,0 -0.88337,0.9 -0.88337,2 0,1.1 0.63287,2 1.40638,2 0.91405,0 1.22329,-0.70014 0.88337,-2 z m 59.37253,-2.25 c -0.27741,-0.6875 -0.50439,-0.125 -0.50439,1.25 0,1.375 0.22698,1.9375 0.50439,1.25 0.27741,-0.6875 0.27741,-1.8125 0,-2.5 z m 36.33772,0.05 c 0,-2.3261 -0.30022,-2.89978 -1.09934,-2.10066 -0.60463,0.60463 -0.79931,2.04463 -0.43261,3.2 0.95482,3.00838 1.53195,2.59423 1.53195,-1.09934 z m -76.22917,-7.9875 c -0.61807,-1.85422 -2.77083,-2.16176 -2.77083,-0.39583 0,0.87083 0.7125,1.58333 1.58333,1.58333 0.87084,0 1.40521,-0.53438 1.1875,-1.1875 z m 19.22917,-0.87152 c 0,-0.51754 -0.675,-0.94098 -1.5,-0.94098 -1.54641,0 -1.9867,1.17996 -0.86052,2.30615 0.79893,0.79893 2.36052,-0.10419 2.36052,-1.36517 z m -31.3332,-26.05681 c 12.40654,-2.31212 11.56878,-1.64336 12.70709,-10.14367 1.13534,-8.47814 7.28024,-12.7405 18.36752,-12.7405 12.50521,0 22.50844,6.82611 27.44024,18.72498 2.56203,6.18134 1.52659,6.02087 18.81835,2.9165 14.14796,-2.53997 14.81617,-3.16117 11.14378,-10.35966 -3.05563,-5.98951 -10.05297,-11.71619 -21.07303,-17.24631 -8.57606,-4.30367 -10.07075,-5.41134 -10.07075,-7.4631 0,-2.08651 0.90447,-2.70963 6.75,-4.65035 4.22514,-1.40274 7.96567,-3.45313 10,-5.48153 2.79736,-2.78921 3.25,-3.93377 3.25,-8.21809 0,-7.24082 -0.69575,-7.50509 -13.82744,-5.25205 -6.15148,1.05543 -11.58899,2.16894 -12.08335,2.47448 -0.49437,0.30553 -0.66107,2.32825 -0.37046,4.49492 0.86196,6.42641 -0.27897,8.95791 -5.00404,11.10294 -11.64114,5.28471 -25.71737,-1.82731 -30.50058,-15.41045 -0.94277,-2.67725 -2.27879,-5.08872 -2.96893,-5.35883 -1.63075,-0.63825 -26.39323,3.70339 -27.89065,4.89012 -1.94481,1.54129 0.71992,7.9385 5.13869,12.33643 4.18257,4.16285 5.86389,5.13955 18.83038,10.93879 6.78178,3.03314 7.78053,3.80286 7.5,5.78016 -0.25378,1.78878 -2.53037,3.36861 -10.54919,7.32055 -10.48573,5.16772 -15.38335,8.91305 -17.86371,13.66084 -1.70764,3.26869 -1.87688,9.79966 -0.25394,9.79966 0.63623,0 6.26574,-0.95212 12.51002,-2.11583 z"
         id="path4261"
         inkscape:connector-curvature="0" />
      <path
         style="fill:#f9ccd3"
         d="m 201.67857,502.84276 c -1.95002,-0.78685 -1.81989,-224.61986 0.13153,-226.2394 1.01177,-0.8397 16.62308,-1.0732 58.32935,-0.87244 l 56.94783,0.27412 4.88611,3.02143 c 2.68737,1.66179 6.30189,4.87763 8.03227,7.14631 3.33577,4.37349 4.72719,10.59266 6.22695,27.83226 l 0.69596,8 5.5,0.22727 c 10.2138,0.42205 23.47569,2.45267 27.53303,4.21578 4.43664,1.92793 9.03111,6.79361 11.11851,11.77483 1.09343,2.60929 1.34846,18.42848 1.34846,83.64301 0,72.41471 -0.15755,80.48559 -1.58179,81.03212 -1.89135,0.72578 -177.36671,0.67163 -179.16821,-0.0553 z m 132.92431,-35.65217 c -2.73026,-2.90623 -2.99878,-10.11703 -0.48038,-12.89984 1.48074,-1.6362 1.49226,-1.79439 0.0916,-1.25689 -4.32493,1.65963 -4.68779,12.02535 -0.52306,14.94244 3.10399,2.17412 3.42923,1.89388 0.91188,-0.78571 z m -90.35626,-1.18555 c 0.62649,-1.375 0.97547,-2.5 0.77552,-2.5 -0.19995,0 -1.10068,1.125 -2.00161,2.5 -0.90094,1.375 -1.24992,2.5 -0.77553,2.5 0.4744,0 1.37512,-1.125 2.00162,-2.5 z m 10.25534,-2.87173 c -1.69036,-2.95445 -3.07339,-6.32945 -3.07339,-7.5 0,-1.36105 -0.63147,-2.12827 -1.75172,-2.12827 -1.05681,0 -2.70254,-1.79232 -4.14856,-4.5181 -1.31827,-2.48496 -2.58451,-4.33044 -2.81388,-4.10108 -0.22936,0.22937 0.97147,2.87731 2.66852,5.88432 1.79206,3.17536 2.82273,6.15218 2.45861,7.10107 -0.45208,1.1781 -0.0658,1.63379 1.38502,1.63379 1.32719,0 2.90953,1.53157 4.64914,4.5 1.45045,2.475 2.87623,4.5 3.16841,4.5 0.29218,0 -0.85179,-2.41728 -2.54215,-5.37173 z m 11.63234,-0.87827 c -0.23835,-1.2375 -0.43337,-0.225 -0.43337,2.25 0,2.475 0.19502,3.4875 0.43337,2.25 0.23836,-1.2375 0.23836,-3.2625 0,-4.5 z m 24.02274,-4.5 c -0.21575,-2.0625 -0.39226,-0.375 -0.39226,3.75 0,4.125 0.17651,5.8125 0.39226,3.75 0.21574,-2.0625 0.21574,-5.4375 0,-7.5 z m 10.00374,-1.5 c -0.21054,-2.3375 -0.3828,-0.425 -0.3828,4.25 0,4.675 0.17226,6.5875 0.3828,4.25 0.21053,-2.3375 0.21053,-6.1625 0,-8.5 z m 10.13928,-3.2 c -0.50057,-0.54566 -0.80907,2.64646 -0.72484,7.5 l 0.14665,8.45 0.72484,-7.5 c 0.39866,-4.125 0.33267,-7.9275 -0.14665,-8.45 z m 12.73647,1.87074 c -0.27224,-0.70945 -1.49832,-1.82688 -2.72462,-2.48317 l -2.22963,-1.19327 2.17314,2.76271 c 1.62061,2.06026 2.22214,4.31754 2.36583,8.87785 l 0.19268,6.11514 0.35879,-6.39467 c 0.19734,-3.51707 0.13605,-6.97514 -0.13619,-7.68459 z m 23.21733,0.82926 c -0.0961,-7.0125 -0.3495,-10.725 -0.56313,-8.25 -0.21363,2.475 -0.78895,4.90644 -1.27849,5.4032 -0.52067,0.52835 -0.44449,1.73576 0.18356,2.90927 0.59515,1.11206 0.82376,4.11576 0.51297,6.73992 -0.49025,4.13942 -0.19035,5.94761 0.98647,5.94761 0.18333,0 0.25471,-5.7375 0.15862,-12.75 z m -67.02687,7.54643 c 0.17086,-0.88043 -0.61102,-1.77567 -1.82899,-2.09417 -1.60827,-0.42058 -1.98612,-0.18815 -1.54842,0.95249 0.31844,0.82985 0.57899,1.95952 0.57899,2.51037 0,1.56096 2.46375,0.35595 2.79842,-1.36869 z m -4.67635,-6.47143 c -1.17884,-2.02721 -1.46351,-1.37835 -0.49853,1.13634 0.34294,0.8937 0.83419,1.41426 1.09166,1.15679 0.25747,-0.25747 -0.009,-1.28938 -0.59313,-2.29313 z m -4.12207,-10.33464 c 0,-1.80774 -2.31503,-3.342 -3.40223,-2.25479 -0.32878,0.32877 -0.59777,1.60563 -0.59777,2.83748 0,1.74738 0.43964,2.12474 2,1.7167 1.1,-0.28766 2,-1.32238 2,-2.29939 z m -14,0.01 c 0.5887,-1.1 0.84537,-2 0.57037,-2 -0.275,0 -0.98167,0.9 -1.57037,2 -0.5887,1.1 -0.84537,2 -0.57037,2 0.275,0 0.98167,-0.9 1.57037,-2 z m 33,0.059 c 0,-2.7757 -1.7166,-3.45707 -2.94184,-1.1677 -0.7639,1.42737 -0.71055,2.08131 0.19983,2.44906 2.25274,0.91004 2.74201,0.6814 2.74201,-1.28134 z M 257.3047,419.88318 c 5.29313,-0.89202 10.35262,-2.0014 11.24331,-2.4653 1.05173,-0.54778 1.79153,-2.63452 2.11036,-5.95264 0.51874,-5.3986 2.59588,-8.996 7.15884,-12.39841 2.27461,-1.69608 4.21475,-2.05662 10.93821,-2.03264 6.88054,0.0245 8.98343,0.45198 13.2965,2.70267 6.21993,3.24574 12.76607,10.43595 14.65093,16.09241 0.8487,2.54697 2.10469,4.31401 3.21999,4.53018 3.37636,0.6544 28.68361,-4.15438 29.22003,-5.55228 0.94611,-2.46552 -4.72745,-12.179 -9.30413,-15.92925 -2.4495,-2.00718 -8.83136,-5.9497 -14.1819,-8.76115 -12.44009,-6.53666 -12.72475,-7.9328 -2.39481,-11.74584 4.0334,-1.48883 8.1978,-3.48919 9.25421,-4.44523 3.82253,-3.45934 4.73792,-14.78288 1.30165,-16.10151 -1.19441,-0.45833 -19.26792,2.08703 -23.6799,3.33493 -1.55179,0.43891 -1.7059,1.26252 -1.15565,6.17619 0.57071,5.09645 0.39783,5.89115 -1.70983,7.85956 -1.28961,1.2044 -4.54038,2.68188 -7.22395,3.28328 -10.45646,2.34334 -20.67641,-4.01917 -26.05881,-16.22311 -2.13542,-4.84182 -2.94023,-5.75 -5.09551,-5.75 -2.91328,0 -25.57159,3.94743 -26.71517,4.6542 -1.25128,0.77333 -0.85127,3.22998 1.16187,7.13564 3.57248,6.93091 10.48023,11.87895 23.28867,16.68173 5.86663,2.19981 8.62848,4.98981 7.1927,7.26601 -0.56221,0.89127 -4.49256,3.10141 -8.73413,4.91142 -13.43254,5.73208 -19.03311,10.6393 -20.73015,18.16377 -0.91472,4.05575 -0.29336,6.18723 1.80366,6.18723 0.83553,0 5.84989,-0.72983 11.14301,-1.62186 z"
         id="path4259"
         inkscape:connector-curvature="0" />
      <path
         style="fill:#fab7c5"
         d="m 202.17857,502.42494 c -1.65017,-0.96113 -1.75,-7.4024 -1.75,-112.91057 0,-83.07784 0.29538,-112.07385 1.14704,-112.60021 0.63087,-0.3899 25.99004,-0.92958 56.35371,-1.19929 l 55.20668,-0.49039 5.39628,2.53368 c 12.13243,5.69644 15.54744,12.56066 16.78385,33.73582 l 0.61244,10.48895 12.5,1.11466 c 16.45079,1.46698 22.51436,3.28004 27.13646,8.11407 6.69525,7.00224 6.25802,1.17025 6.68947,89.22635 0.3752,76.57453 0.3077,80.49615 -1.40704,81.75 -1.45811,1.06619 -18.47745,1.31124 -89.36002,1.28662 -57.61038,-0.02 -88.15744,-0.37904 -89.30887,-1.04969 z m 44.45349,-39.81039 c 0.93692,-1.71023 2.19301,-3.10951 2.7913,-3.10951 0.5983,0 2.4865,2.25 4.19599,5 1.70949,2.75 3.49091,5 3.9587,5 1.32944,0 1.08366,-0.5967 -2.64948,-6.43255 -1.925,-3.00926 -3.49807,-6.05549 -3.49572,-6.76941 0.002,-0.71392 1.35043,-3.32304 2.99572,-5.79804 3.0661,-4.61232 3.58165,-6 2.22911,-6 -0.42398,0 -1.87708,2.025 -3.22911,4.5 -1.35203,2.475 -2.98737,4.5 -3.63409,4.5 -0.64673,0 -2.36259,-2.025 -3.81304,-4.5 -1.45045,-2.475 -3.10491,-4.5 -3.67658,-4.5 -0.92572,0 2.11396,5.99597 4.28375,8.45 1.60434,1.81452 0.82327,5.50686 -2.16004,10.21105 -1.65,2.60178 -2.98503,5.20491 -2.96673,5.78473 0.0414,1.3114 2.89944,-2.19124 5.17022,-6.33627 z m 20.72239,-7.30049 c 0.074,-5.6801 1.20541,-7.97016 2.75502,-5.57628 0.45051,0.69595 2.1691,4.64079 3.8191,8.76631 1.65,4.12552 3.42407,7.50095 3.94237,7.50095 0.5183,0 2.3183,-3.37657 4,-7.50349 5.37647,-13.19396 6.11306,-13.1936 7.05763,0.003 0.39366,5.5 1.12773,10 1.63127,10 0.526,0 0.67361,-3.51008 0.34692,-8.25 -0.92736,-13.45533 -1.49826,-16.75 -2.90242,-16.75 -0.71593,0 -3.00003,4.05 -5.07577,9 -2.07574,4.95 -4.10731,9 -4.51459,9 -1.27203,0 -2.5187,-2.25592 -5.38486,-9.74419 -4.69226,-12.25926 -6.14416,-11.25521 -7.30709,5.05321 -0.84902,11.90634 -0.36784,16.55802 0.88242,8.53054 0.37173,-2.38676 0.70923,-6.9005 0.75,-10.03054 z m 34.07412,5.19098 c 0,-4.33508 -0.45,-8.16008 -1,-8.5 -0.63874,-0.39476 -1,2.67595 -1,8.5 0,5.82405 0.36126,8.89476 1,8.5 0.55,-0.33992 1,-4.16492 1,-8.5 z m 10.1034,-5.94061 c 0.21813,-0.79234 -0.3909,-1.61283 -1.3534,-1.82332 -1.55138,-0.33928 -1.75,0.51466 -1.75,7.52394 0,9.99642 1.30782,11.60135 2.1034,2.58124 0.33187,-3.76269 0.78187,-7.48952 1,-8.28186 z m 12.8966,8.84947 c 0,-2.7352 -0.65204,-6.53364 -1.44897,-8.44098 -1.17297,-2.8073 -1.98253,-3.46025 -4.25,-3.42784 l -2.80103,0.04 2.6175,1.42247 c 2.84124,1.54407 3.8825,4.81105 3.8825,12.18147 0,2.70136 0.39076,4.19251 1,3.81598 0.55,-0.33992 1,-2.85593 1,-5.59114 z m 12.31537,5.08416 c -2.8146,-1.13403 -4.31537,-3.99834 -4.31537,-8.23615 0,-3.62962 1.32283,-5.86436 4.5,-7.60214 1.95613,-1.06992 1.95223,-1.09458 -0.17742,-1.12432 -4.84532,-0.0677 -8.05792,8.8042 -5.17288,14.28533 1.44537,2.74596 2.81148,3.66659 5.3503,3.60556 1.87121,-0.045 1.85932,-0.10475 -0.18463,-0.92828 z m 10.68463,-12.434 c 0,-7.2153 -0.42004,-12.70058 -1,-13.05902 -0.60825,-0.37592 -1,1.08962 -1,3.74098 0,2.39746 -0.43891,4.79793 -0.97535,5.33437 -0.63379,0.63379 -0.57504,2.27966 0.16778,4.7 0.82202,2.67837 0.84621,4.69212 0.0861,7.16874 -1.10829,3.61119 -0.82045,4.55591 1.38814,4.55591 1.03966,0 1.33333,-2.74016 1.33333,-12.44098 z m -78.37652,-38.68918 c 0.61792,-0.4976 1.40745,-3.03438 1.75451,-5.63729 1.38591,-10.39396 8.69472,-15.95712 19.6582,-14.96298 11.48824,1.04171 20.07209,6.98075 24.99349,17.29261 1.66943,3.49798 3.40726,6.58983 3.86185,6.87078 1.18281,0.73102 28.31635,-4.24084 29.47672,-5.40121 0.62341,-0.62341 0.51959,-2.46275 -0.29188,-5.17119 -2.00428,-6.68967 -10.67638,-14.57627 -22.35747,-20.33236 -5.37961,-2.65091 -9.99357,-5.16361 -10.25325,-5.58378 -1.19193,-1.92859 1.13678,-3.74478 7.37956,-5.7554 8.495,-2.736 12.18872,-6.31044 12.88261,-12.46659 0.63464,-5.63055 -0.94471,-8.72243 -4.45547,-8.72243 -4.0731,0 -21.62555,3.20961 -22.90885,4.18908 -0.82068,0.62637 -0.85248,1.98636 -0.11445,4.89397 1.33459,5.25788 -0.15474,8.56177 -4.71917,10.46891 -7.88674,3.29529 -18.60748,0.68725 -24.17009,-5.87987 -1.47778,-1.74465 -3.96777,-5.98459 -5.53329,-9.42209 -1.56553,-3.4375 -3.22245,-6.25 -3.68204,-6.25 -1.99056,0 -27.21036,4.92269 -28.12923,5.49059 -3.42971,2.11968 2.19299,12.47174 9.34821,17.21116 2.55502,1.69237 8.22376,4.51945 12.59721,6.28239 13.12602,5.29111 12.97878,6.69238 -1.40973,13.41617 -10.13711,4.7371 -15.54449,8.95901 -17.93987,14.00691 -1.90957,4.02412 -2.11268,9.2589 -0.38163,9.83592 1.69485,0.56495 23.00624,-3.2557 24.39406,-4.3733 z"
         id="path4257"
         inkscape:connector-curvature="0" />
      <path
         style="fill:#faadb8"
         d="m 201.05886,500.25504 c -0.76071,-2.83855 -0.80214,-218.50822 -0.0425,-221.33737 0.55693,-2.07427 0.90681,-2.09152 55.73634,-2.74638 37.00664,-0.44199 56.40245,-0.31771 58.90064,0.37741 4.16808,1.15976 11.14473,6.15531 13.90476,9.95634 2.83306,3.90161 4.9646,13.51298 5.58135,25.167 l 0.56451,10.667 9.61232,0.6314 c 12.57958,0.8263 23.17287,3.10082 27.2555,5.8521 1.80537,1.21665 4.51735,4.00543 6.02661,6.19729 l 2.74411,3.98521 0.13044,80 c 0.0718,44 0.0911,80.7875 0.043,81.75 -0.0825,1.65304 -5.06751,1.75 -89.97076,1.75 l -89.88337,0 -0.60297,-2.25 z m 139.36971,-30.75 c 1.17426,-0.75887 0.91857,-0.9727 -1.17742,-0.98469 -3.28957,-0.0188 -6.82258,-4.16946 -6.82258,-8.01531 0,-3.48832 3.52127,-8 6.24384,-8 3.61623,0 5.75616,2.87029 5.75616,7.72073 0,2.42591 -0.46583,5.28117 -1.03518,6.34501 -0.62578,1.16928 -0.65813,1.93426 -0.0818,1.93426 0.52437,0 1.6652,0.27314 2.53518,0.60699 1.39492,0.53528 1.58179,-1.01039 1.58179,-13.08333 0,-10.5046 -0.29087,-13.59477 -1.25,-13.27969 -0.6875,0.22584 -1.39257,2.17584 -1.56683,4.33333 -0.39554,4.89727 -1.36658,5.93009 -4.16654,4.4316 -4.20938,-2.25279 -9.63765,1.77772 -10.08896,7.4911 -0.36793,4.65788 0.21073,6.72931 2.52688,9.04545 2.58751,2.58752 5.05598,3.06337 7.54545,1.45455 z m -94.69231,-5.00102 c 1.54422,-2.74944 3.19312,-4.99898 3.66422,-4.99898 0.4711,0 2.24098,2.25 3.93307,5 1.69209,2.75 3.53069,5 4.08578,5 1.56387,0 1.2724,-0.80517 -2.59775,-7.17613 l -3.60699,-5.93775 3.70849,-6.00823 c 3.483,-5.64291 4.04266,-7.94595 1.55773,-6.41018 -0.59445,0.36739 -1.99804,2.4659 -3.1191,4.66334 -2.56003,5.01807 -4.615,4.78135 -7.74469,-0.89217 -1.28606,-2.33138 -2.75458,-4.23888 -3.26337,-4.23888 -1.57939,0 -1.03783,1.7867 2.07492,6.84558 3.54654,5.76386 3.6304,6.70836 0.94601,10.65442 -3.90797,5.74471 -5.11454,8.50009 -3.72169,8.49898 0.70162,-5.6e-4 2.53914,-2.25056 4.08337,-5 z m 21.08532,3.41923 c 0.33385,-0.86998 0.60699,-4.65818 0.60699,-8.41821 0,-12.66625 1.53784,-13.04185 6.01221,-1.46843 1.8141,4.69237 3.79098,8.36777 4.39308,8.16756 0.60209,-0.20021 2.65198,-4.03942 4.55531,-8.53157 1.90333,-4.49216 3.97952,-8.16756 4.61374,-8.16756 0.75531,0 1.3251,3.28746 1.65156,9.52883 0.27413,5.24085 0.78545,9.81585 1.13626,10.16666 1.57494,1.57494 1.8084,-1.42769 1.00251,-12.89349 -0.78967,-11.23498 -1.03382,-12.302 -2.81485,-12.302 -1.50044,0 -2.69902,1.84487 -5.19744,8 -1.786,4.4 -3.87413,8.13167 -4.64028,8.2926 -0.92294,0.19386 -2.50747,-2.59008 -4.69563,-8.25 -2.43539,-6.29939 -3.77134,-8.5426 -5.08759,-8.5426 -1.41766,0 -1.89673,1.08034 -2.32808,5.25 -1.46049,14.11778 -1.71399,20.75 -0.79311,20.75 0.53808,0 1.25148,-0.7118 1.58532,-1.58179 z m 34.39592,-6.92426 c -0.36015,-10.60277 -2.17964,-11.71979 -2.5859,-1.58753 -0.31568,7.87332 0.0812,10.09358 1.80452,10.09358 0.69918,0 0.97013,-2.9495 0.78138,-8.50605 z m 9.21665,4.25605 c 0.003,-2.3375 0.4914,-5.99975 1.0852,-8.13833 0.85121,-3.06569 0.79713,-4.06739 -0.25558,-4.73468 -2.55657,-1.62057 -2.8352,-0.82229 -2.8352,8.12301 0,5.33333 0.40741,9 1,9 0.55,0 1.00251,-1.9125 1.00558,-4.25 z m 13.99442,-1.6849 c 0,-3.2642 -0.44096,-7.09473 -0.97992,-8.51229 -1.26362,-3.32356 -5.10823,-5.17738 -7.66092,-3.694 -1.79709,1.0443 -1.79502,1.08139 0.0621,1.11078 3.90323,0.0618 5.57874,2.92062 5.57874,9.51873 0,3.39809 0.3,6.47835 0.66667,6.84501 1.68398,1.68398 2.33333,0.21787 2.33333,-5.26823 z m -23.55279,-19.15051 c -0.32197,-0.52097 -1.01165,-0.68378 -1.53262,-0.3618 -0.52097,0.32197 -0.68378,1.01165 -0.3618,1.53262 0.32197,0.52097 1.01165,0.68378 1.53262,0.3618 0.52097,-0.32197 0.68378,-1.01165 0.3618,-1.53262 z m -39.44721,-24.75135 8.5,-1.66324 1.16642,-5.90957 c 0.64153,-3.25026 1.7383,-6.97814 2.43727,-8.28418 5.22834,-9.76924 25.4582,-8.71959 35.98279,1.86701 3.49281,3.51339 4.70033,5.50622 7.31767,12.07674 0.95654,2.40128 2.14155,3.74658 3.29482,3.74049 0.99057,-0.005 7.83302,-1.13023 15.20544,-2.5 7.37243,-1.36977 13.55993,-2.49049 13.75,-2.49049 1.09988,0 0.048,-5.66301 -1.68162,-9.05334 -3.09915,-6.07484 -8.852,-10.90932 -20.16588,-16.94666 -12.34364,-6.58684 -13.27484,-8.54926 -5.27309,-11.11253 11.09979,-3.55569 14.46618,-6.98954 14.46618,-14.75602 0,-6.1742 -0.69983,-7.13145 -5.21366,-7.13145 -4.75941,0 -21.94811,2.95832 -23.07715,3.97177 -0.43494,0.39041 -0.37747,2.54944 0.12771,4.79784 1.16695,5.19374 -0.19974,8.14609 -4.85081,10.47884 -10.42165,5.22697 -25.34473,-2.70035 -29.1798,-15.50066 -0.62149,-2.07434 -1.71837,-4.25986 -2.43752,-4.8567 -1.63851,-1.35984 -28.02945,2.91245 -29.96844,4.85143 -0.98496,0.98497 -1.03303,2.04417 -0.20519,4.52187 2.44479,7.3172 9.64119,13.73493 19.94103,17.78335 15.33877,6.029 15.58118,7.2689 2.61383,13.36952 -11.0562,5.20151 -15.48602,8.40475 -18.49394,13.37316 -2.14834,3.54858 -3.03038,10.10193 -1.55785,11.57446 0.77164,0.77164 4.5898,0.28578 17.30179,-2.20164 z"
         id="path4255"
         inkscape:connector-curvature="0" />
      <path
         style="fill:#f994a8"
         d="m 201.89176,501.26042 c -0.26299,-0.69046 -0.36229,-51.43038 -0.22068,-112.75538 l 0.25749,-111.5 57.03069,-0.25809 57.03069,-0.2581 5.43579,3.2581 c 2.98968,1.79195 6.4028,4.69726 7.58471,6.45625 2.96597,4.41412 5.22612,14.10458 6.03578,25.87849 0.37531,5.45784 1.17738,10.25396 1.78237,10.65804 0.60498,0.40408 4.32288,0.74158 8.262,0.75 8.75954,0.0187 21.38894,2.33662 26.24015,4.8159 1.9788,1.01129 5.06295,3.99967 6.85367,6.64084 l 3.25586,4.80213 -0.25586,81.12822 -0.25585,81.12822 -89.27932,0.25538 c -70.89498,0.20279 -89.37778,-0.003 -89.75749,-1 z m 44.7403,-37.64587 c 0.93692,-1.71023 2.19173,-3.10951 2.78848,-3.10951 0.59674,0 2.30517,2.00542 3.79651,4.45649 2.83905,4.66609 5.21152,6.49939 5.21152,4.02715 0,-0.79948 -1.35,-3.64762 -3,-6.32922 -1.65,-2.68159 -3,-5.59772 -3,-6.48029 0,-0.88257 1.35,-3.7334 3,-6.33518 3.31271,-5.22361 3.61695,-6.33895 1.72911,-6.33895 -0.69898,0 -2.37708,2.025 -3.72911,4.5 -1.35203,2.475 -3.02098,4.5 -3.70879,4.5 -0.68781,0 -2.15328,-1.76947 -3.2566,-3.93215 -2.1297,-4.17457 -3.73721,-5.69859 -4.84368,-4.59212 -0.3718,0.37181 0.81762,3.37227 2.64316,6.6677 l 3.31917,5.99169 -3.58386,6.01624 c -1.97112,3.30893 -3.2839,6.50158 -2.91728,7.09477 0.73665,1.19194 2.76474,-1.04996 5.55137,-6.13662 z m 98.07448,5.80943 2.77797,0.005 -0.27797,-13.46481 c -0.16326,-7.90855 -0.69062,-13.56678 -1.27797,-13.71194 -0.55,-0.13592 -1.13859,1.92552 -1.30798,4.58097 l -0.30798,4.8281 -3.97492,-0.67155 c -5.04543,-0.85242 -8.29514,1.12495 -9.91496,6.03304 -1.41808,4.29683 -0.62502,8.1478 2.32968,11.31256 1.77509,1.9013 2.81992,2.21553 5.67587,1.70701 1.92516,-0.34279 4.75038,-0.62103 6.27826,-0.61832 z m -8.58341,-2.03006 c -5.60926,-3.26317 -3.0796,-14.88888 3.2397,-14.88888 2.48649,0 5.06574,4.07325 5.06574,8 0,2.66667 -0.66667,4.66667 -2,6 -2.23358,2.23358 -3.65057,2.43333 -6.30544,0.88888 z m -68.94844,-2.46618 c 0.54178,-8.63522 1.44118,-14.4227 2.24135,-14.4227 0.46396,0 2.17043,3.4875 3.79215,7.75 1.65168,4.34125 3.61018,7.88105 4.45275,8.04795 1.04695,0.20739 2.49198,-2.15258 4.75391,-7.76391 1.78736,-4.43403 3.63345,-8.29902 4.10242,-8.58886 1.19324,-0.73746 1.8633,2.82502 2.15827,11.47483 0.16563,4.85716 0.68478,7.56277 1.50303,7.83333 0.92964,0.3074 1.22465,-1.4661 1.1511,-6.92001 -0.16782,-12.44456 -1.15988,-18.26649 -3.1782,-18.65146 -1.35464,-0.25838 -2.48998,1.28437 -4.77584,6.48959 -3.85118,8.7697 -4.47612,9.85903 -5.55605,9.68476 -0.49005,-0.0791 -2.30514,-3.67909 -4.03351,-8 -2.31763,-5.79403 -3.67316,-7.93715 -5.16411,-8.16452 -2.5962,-0.39592 -2.87695,0.7163 -3.7036,14.67219 -0.54956,9.27781 -0.42683,11.2829 0.66854,10.9227 0.75609,-0.24863 1.44909,-2.15327 1.58779,-4.36389 z m 34.25388,-4.4227 c 0,-7.33333 -0.27778,-9 -1.5,-9 -1.22222,0 -1.5,1.66667 -1.5,9 0,7.33333 0.27778,9 1.5,9 1.22222,0 1.5,-1.66667 1.5,-9 z m 10,2.2 c 0,-7.50681 0.95054,-9.2 5.16482,-9.2 3.65365,0 4.83518,2.42754 4.83518,9.93426 0,4.7251 0.33153,6.06574 1.5,6.06574 1.18767,0 1.5,-1.42946 1.5,-6.86514 0,-5.50574 -0.42476,-7.40514 -2.14511,-9.5922 -1.80407,-2.29351 -2.63873,-2.62098 -5.25,-2.05982 -1.70769,0.36698 -4.34239,0.69806 -5.85489,0.73572 l -2.75,0.0685 0,8.85648 c 0,7.20576 0.27958,8.85648 1.5,8.85648 1.18627,0 1.5,-1.42222 1.5,-6.8 z m -10,-17.7 c 0,-0.825 -0.675,-1.5 -1.5,-1.5 -1.56157,0 -1.98397,1.1827 -0.83333,2.33333 1.15063,1.15064 2.33333,0.72824 2.33333,-0.83333 z m -43.13043,-24.47515 c 5.70109,-1.08633 10.9877,-2.49143 11.74802,-3.12244 0.76033,-0.63102 1.38311,-2.7797 1.38396,-4.77485 0.002,-4.91571 2.79077,-10.11493 6.89633,-12.85763 2.61645,-1.7479 4.81776,-2.26993 9.57186,-2.26993 12.64757,0 22.53816,6.32988 27.70872,17.73331 2.49479,5.50214 3.17574,6.2617 5.5815,6.22577 4.54499,-0.0679 27.24595,-4.56499 28.28412,-5.60316 0.62271,-0.62271 0.36819,-2.72455 -0.71482,-5.90299 -2.49591,-7.3251 -9.70659,-13.95137 -22.07926,-20.28977 -5.6375,-2.88804 -10.25,-5.85163 -10.25,-6.58575 0,-0.73412 1.2375,-1.79069 2.75,-2.34792 1.5125,-0.55724 4.8747,-1.76916 7.47156,-2.69317 7.00833,-2.49368 9.77844,-6.31541 9.77844,-13.4906 0,-8.31588 -0.57888,-8.58937 -13.7039,-6.47443 -15.9345,2.56766 -15.39118,2.22562 -14.65922,9.22869 0.57217,5.47425 0.44087,5.9937 -2.00053,7.91411 -3.38958,2.66624 -10.42792,3.68839 -15.67277,2.2761 -6.05451,-1.63031 -12.24237,-7.82274 -15.5176,-15.52906 -2.35583,-5.54306 -3.10865,-6.46113 -5.29812,-6.46113 -5.12247,0 -26.68719,4.27567 -28.05539,5.56259 -1.20797,1.1362 -1.16231,1.96601 0.32206,5.85278 2.53543,6.63894 9.75957,12.65176 20.59802,17.14424 8.97387,3.71961 11.48618,5.4442 10.82414,7.43031 -0.19381,0.58143 -5.50155,3.63406 -11.79498,6.78362 -13.89193,6.95223 -17.13953,10.36085 -17.83245,18.71662 -0.54775,6.60513 -0.94755,6.50874 14.66031,3.53469 z"
         id="path4253"
         inkscape:connector-curvature="0" />
      <path
         style="fill:#f78693"
         d="m 202.67857,501.84276 c -0.98954,-0.39929 -1.25,-23.80199 -1.25,-112.31406 0,-101.03332 0.15245,-111.86818 1.58179,-112.41667 0.86998,-0.33385 26.40748,-0.59711 56.75,-0.58503 51.84492,0.0206 55.40917,0.13501 59.16821,1.89855 10.45459,4.90473 13.73279,11.74384 15.85565,33.07869 l 1.14435,11.5008 11.45737,0.71558 c 14.96765,0.93483 23.34189,3.45224 28.23453,8.4877 2.02896,2.0882 4.16582,5.06351 4.74856,6.61182 0.71369,1.89622 1.05954,28.87187 1.05954,82.64301 0,71.87012 -0.15768,79.88842 -1.58179,80.4349 -1.89133,0.72577 -175.3667,0.67163 -177.16821,-0.0553 z m 40.97442,-33.08772 c 0.84392,-0.9625 2.27522,-3.2125 3.18067,-5 0.90545,-1.7875 2.04612,-3.25 2.53482,-3.25 0.4887,0 2.27298,2.25 3.96507,5 1.69209,2.75 3.50413,5 4.02676,5 2.303,0 1.87092,-2.26966 -1.40783,-7.39516 -1.93815,-3.02982 -3.51239,-6.09288 -3.49831,-6.8068 0.0141,-0.71392 1.57388,-3.72809 3.46624,-6.69816 3.23737,-5.08109 3.6468,-7.09988 1.4399,-7.09988 -0.52262,0 -2.33467,2.25 -4.02676,5 -1.69209,2.75 -3.25655,5 -3.47657,5 -0.22002,0 -1.63971,-1.9125 -3.15486,-4.25 -3.20353,-4.94223 -4.42982,-5.99373 -5.61172,-4.81184 -0.47317,0.47318 0.63935,3.58009 2.49165,6.95836 l 3.34652,6.10348 -3.25,5.92923 c -1.7875,3.26108 -3.25,6.41108 -3.25,7 0,1.60651 1.49673,1.29122 3.22442,-0.67923 z m 24.18787,-8.07437 c 0.50177,-5.0466 1.24993,-9.17563 1.66258,-9.17563 0.41265,0 1.9414,3.11712 3.39721,6.92694 4.32793,11.32605 5.45368,11.30523 10.04637,-0.18585 1.48575,-3.7174 3.06564,-6.98405 3.51088,-7.25921 0.71864,-0.44415 1.46921,4.79229 2.22428,15.51812 0.16437,2.33494 0.7457,3.5 1.74639,3.5 1.2591,0 1.4414,-1.63718 1.13512,-10.19417 -0.48582,-13.57306 -1.19296,-16.80583 -3.67612,-16.80583 -1.50606,0 -2.7639,1.90895 -5.44021,8.25626 -1.91467,4.54095 -3.91645,8.11119 -4.44841,7.93387 -0.53197,-0.17733 -2.24526,-3.44264 -3.80732,-7.25627 -3.52447,-8.60466 -5.1432,-10.48229 -7.23422,-8.39127 -2.13817,2.13817 -3.498,27.443 -1.43854,26.76961 0.98154,-0.32095 1.68678,-3.24779 2.32199,-9.63657 z m 33.37392,0.31929 c -0.35383,-11.75082 -2.17202,-12.69197 -2.57934,-1.33515 -0.30947,8.6286 0.0573,10.84023 1.79796,10.84023 0.70199,0 0.96958,-3.25508 0.78138,-9.50508 z m 10.01749,2.44511 c 0.31405,-6.61926 2.02821,-9.95422 5.10129,-9.92472 3.47208,0.0333 4.45391,1.80655 5.0252,9.07568 0.35168,4.47477 1.04832,7.40823 1.81981,7.66295 0.93095,0.30738 1.25,-1.65049 1.25,-7.67061 0,-6.88126 -0.31265,-8.39598 -2.10243,-10.18576 -1.84258,-1.84258 -2.80041,-2.01562 -7.75,-1.40007 -3.10616,0.3863 -5.98507,0.90895 -6.39757,1.16145 -0.90349,0.55304 -1.00876,14.50315 -0.12679,16.80153 1.30753,3.40736 2.88699,0.66586 3.18049,-5.52045 z m 36.6963,-7.53559 c 0,-11.69284 -0.23859,-13.90444 -1.5,-13.90444 -1.03704,0 -1.65432,1.38889 -2,4.5 l -0.5,4.5 -4.59626,-0.32706 c -4.11861,-0.29307 -4.87205,6.9e-4 -7.25,2.82673 -3.04298,3.61636 -3.48497,8.49223 -1.17478,12.95964 1.89576,3.66601 2.69115,3.93946 10.52104,3.61715 l 6.5,-0.26757 0,-13.90445 z M 335,465.93361 c -2.18979,-2.18979 -2.03431,-8.69969 0.25731,-10.77358 3.90663,-3.53545 9.17126,-0.69326 9.17126,4.95124 0,6.13051 -5.63851,9.61241 -9.42857,5.82234 z m -33.57143,-20.92857 c 0,-0.825 -0.675,-1.5 -1.5,-1.5 -0.825,0 -1.5,0.675 -1.5,1.5 0,0.825 0.675,1.5 1.5,1.5 0.825,0 1.5,-0.675 1.5,-1.5 z m -41.66101,-24.37797 c 10.42108,-1.89798 11.62063,-2.687 11.6457,-7.66014 0.0238,-4.73148 4.02889,-11.55928 7.99971,-13.6379 7.84355,-4.10589 21.94041,-0.95181 29.49053,6.59831 2.28868,2.28868 5.21157,6.69536 6.49532,9.79263 1.28374,3.09726 3.05311,5.81293 3.93192,6.0348 2.44964,0.61847 28.87973,-4.58791 30.2219,-5.95331 1.86394,-1.89622 -1.72813,-9.95881 -6.90045,-15.48844 -3.10586,-3.32041 -7.7167,-6.42364 -15.33257,-10.31925 -5.99008,-3.064 -10.89105,-5.94732 -10.89105,-6.40738 0,-1.43241 2.33642,-2.84208 6.59896,-3.98145 9.26056,-2.47534 14.92945,-9.13713 14.03011,-16.48748 -0.84495,-6.90573 -1.99241,-7.32534 -14.38403,-5.26002 -16.90073,2.81687 -15.54669,2.07771 -14.79705,8.0776 0.35483,2.84003 0.34467,5.94675 -0.0226,6.90383 -1.08516,2.8279 -5.91615,4.66617 -12.26272,4.66617 -5.03354,0 -6.67642,-0.4944 -10.79966,-3.25 -3.88467,-2.59617 -5.60693,-4.73828 -8.56079,-10.64778 -2.03378,-4.06878 -4.07457,-7.77457 -4.53509,-8.2351 -0.78965,-0.78965 -25.63137,3.15844 -29.62396,4.70813 -1.48748,0.57736 -1.7441,1.41536 -1.29012,4.21291 1.34764,8.30456 8.22878,14.49494 23.27189,20.93576 5.48829,2.34985 8.87506,4.36778 8.87506,5.288 0,0.89226 -4.08674,3.49865 -10.20674,6.50955 -11.3953,5.6062 -15.66917,9.08584 -18.3974,14.97853 -1.87623,4.05247 -2.44667,8.61586 -1.22919,9.83333 1.07334,1.07335 6.15555,0.7041 16.67232,-1.2113 z"
         id="path4251"
         inkscape:connector-curvature="0" />
      <path
         style="fill:#f8718d"
         d="m 202.10058,500.84372 c -0.93153,-0.93153 -0.85073,-222.11019 0.0813,-222.68625 0.41435,-0.25608 25.59012,-0.7973 55.94617,-1.2027 l 55.1928,-0.73711 5.48544,2.68378 c 6.91428,3.38284 11.09519,8.11091 13.1222,14.83951 1.64868,5.47274 3.69142,24.10175 2.87589,26.22699 -0.90204,2.3507 2.22515,3.26958 13.15181,3.86445 13.22462,0.71999 22.92676,3.41499 26.63183,7.39764 6.15163,6.61251 5.72259,0.3115 6.04517,88.7803 l 0.29533,80.99471 -89.07799,0.25534 c -48.9929,0.14044 -89.38039,-0.0471 -89.75,-0.41666 z m 142.82799,-30.75715 3,-0.0815 0,-13.9863 c 0,-12.34476 -0.19866,-14.02457 -1.69267,-14.31229 -1.36922,-0.26369 -1.75139,0.59356 -2,4.48631 l -0.30733,4.81225 -3.72713,-0.32465 c -5.22105,-0.45477 -7.5612,0.51464 -9.28384,3.84586 -4.28224,8.28094 0.89514,18.17735 8.51097,16.26847 1.375,-0.34464 3.85,-0.6633 5.5,-0.70815 z m -9.9433,-4.80404 c -3.18675,-4.54973 -0.76678,-11.77749 3.9433,-11.77749 2.82797,0 5.5,3.40077 5.5,7 0,3.59923 -2.67203,7 -5.5,7 -1.33262,0 -3.07407,-0.98151 -3.9433,-2.22251 z m -89.13986,0.77419 c 1.43379,-2.44657 2.99103,-4.68572 3.46053,-4.97589 0.46951,-0.29017 2.24558,1.71157 3.94683,4.44831 1.70126,2.73675 3.78678,4.9759 4.6345,4.9759 2.32812,0 1.84236,-1.94708 -1.9843,-7.95366 -1.91092,-2.99952 -3.4744,-5.80328 -3.4744,-6.23058 0,-0.42731 1.61855,-3.30712 3.59677,-6.39958 2.56126,-4.0039 3.28781,-5.9316 2.52362,-6.69578 -1.38312,-1.38313 -4.47505,1.3074 -6.15034,5.35189 -1.67264,4.03812 -3.41193,3.66782 -6.1585,-1.31117 -2.36813,-4.29295 -5.81155,-6.27756 -5.81155,-3.34947 0,0.85707 1.35,3.75233 3,6.43393 1.65,2.68159 2.98984,5.50085 2.97741,6.26502 -0.0124,0.76417 -1.55385,3.84919 -3.42539,6.85561 -1.87154,3.00641 -3.18482,5.81891 -2.9184,6.25 1.15438,1.86782 3.36015,0.47014 5.78322,-3.66453 z m 21.71485,0.86582 c 0.34742,-1.60462 0.68492,-5.5425 0.75,-8.75083 0.15191,-7.48985 1.61141,-7.07187 4.78511,1.37036 1.33512,3.55149 2.8372,6.86697 3.33796,7.36773 1.56915,1.56915 3.75376,-1.23975 6.59342,-8.47757 1.49479,-3.80996 3.04893,-6.92719 3.45364,-6.92719 0.40472,0 1.05665,4.05312 1.44873,9.00693 0.68541,8.65998 1.66541,11.22711 3.56195,9.33057 1.32084,-1.32084 -0.12212,-24.04259 -1.65795,-26.107 -2.07022,-2.78273 -4.41102,-0.45161 -7.86742,7.8349 -1.70558,4.08903 -3.53483,7.36495 -4.06501,7.27983 -0.53018,-0.0851 -2.32912,-3.68513 -3.99766,-8 -2.39784,-6.20088 -3.50003,-7.91233 -5.25855,-8.16537 -1.22367,-0.17607 -2.44625,0.27393 -2.71686,1 -0.73592,1.97461 -2.31914,25.19482 -1.78113,26.12293 0.9123,1.57378 2.79235,-0.0152 3.41377,-2.88529 z m 34.26132,2.00071 c 0.33385,-0.86998 0.60699,-4.65818 0.60699,-8.41821 0,-7.72147 -0.59401,-10 -2.60699,-10 -1.09781,0 -1.39301,2.11913 -1.39301,10 0,7.88087 0.2952,10 1.39301,10 0.76616,0 1.66616,-0.7118 2,-1.58179 z m 9.60699,-4.6957 c 0,-7.21206 1.92415,-11.01928 5.32152,-10.52941 3.00389,0.43314 4.64658,4.35349 4.66374,11.13022 0.0127,5.00806 0.25974,5.77448 1.76474,5.47439 1.48945,-0.29698 1.74292,-1.49119 1.70248,-8.02085 -0.065,-10.4937 -1.35601,-11.91888 -10.36363,-11.44068 l -6.58885,0.34979 -0.29313,8.32343 c -0.3264,9.26812 0.0281,10.9906 2.26175,10.9906 1.21254,0 1.53138,-1.30699 1.53138,-6.27749 z m -10.12035,-20.36752 c -0.87143,-1.05001 -1.47465,-1.10607 -2.52466,-0.23464 -1.05001,0.87143 -1.10607,1.47465 -0.23464,2.52466 0.87143,1.05001 1.47465,1.10607 2.52466,0.23464 1.05001,-0.87143 1.10607,-1.47465 0.23464,-2.52466 z M 258.3609,421.0018 c 5.18779,-0.89186 10.19684,-2.03071 11.13123,-2.53078 1.12777,-0.60356 1.93342,-2.78623 2.3965,-6.49258 1.63463,-13.08316 13.53886,-17.83134 28.53327,-11.38092 6.20021,2.66726 13.43639,10.27207 15.11948,15.8897 0.7552,2.52063 2.10216,4.58656 3.32794,5.10431 1.35882,0.57395 6.98671,-0.0581 16.54594,-1.85835 16.31714,-3.07285 16.44932,-3.17948 13.50321,-10.89376 -2.58807,-6.77678 -9.85171,-13.30742 -21.39713,-19.2379 -5.55102,-2.85136 -10.09277,-5.80285 -10.09277,-6.55886 0,-0.79872 2.63833,-2.25254 6.29785,-3.47035 3.46382,-1.15268 7.33636,-2.82319 8.60564,-3.71222 4.33219,-3.03439 6.58623,-12.70296 4.06133,-17.42079 -0.78059,-1.45853 -2.07181,-1.92127 -5.25,-1.88144 -5.61445,0.0704 -22.56153,3.39389 -23.84366,4.67602 -0.689,0.689 -0.65134,2.37381 0.11686,5.22667 1.92266,7.14021 -2.17277,11.04449 -11.58524,11.04449 -9.0339,0 -15.76566,-5.16473 -20.50773,-15.73391 -1.55541,-3.46673 -3.40561,-6.52434 -4.11154,-6.7947 -1.36227,-0.52173 -28.1217,4.00156 -29.79654,5.03666 -1.5807,0.97693 -1.14461,5.26264 0.95412,9.37647 3.36601,6.59793 10.84647,11.93237 23.25995,16.58705 2.58557,0.96951 5.40943,2.54551 6.27523,3.50221 2.01978,2.23183 1.26976,2.85339 -8.3579,6.92635 -9.93918,4.20475 -16.49276,9.17608 -19.04395,14.44613 -3.48371,7.19639 -2.25844,13.39805 2.42211,12.25943 1.10191,-0.26806 6.24802,-1.21708 11.4358,-2.10893 z"
         id="path4249"
         inkscape:connector-curvature="0" />
      <path
         style="fill:#e1857b"
         d="m 202.42402,401.75504 c -0.003,-54.8625 -0.2567,-104.7 -0.56489,-110.75 -0.30819,-6.05 -0.19308,-11.52045 0.25581,-12.15656 0.58997,-0.83602 16.11307,-1.36085 56.01106,-1.89369 l 55.1949,-0.73713 5.48544,2.68378 c 6.91428,3.38284 11.09519,8.11091 13.1222,14.83951 1.64868,5.47274 3.69142,24.10175 2.87589,26.22699 -0.90204,2.3507 2.22515,3.26958 13.15181,3.86445 13.24396,0.72104 22.93839,3.41633 26.60792,7.39764 6.33009,6.86794 5.86441,-0.19915 5.86441,88.99752 l 0,81.27749 -89,0 -89,0 -0.005,-99.75 z m 43.50455,64.45754 c 1.65,-2.56889 3.29474,-4.679 3.65498,-4.68913 0.36024,-0.0101 1.81081,1.95387 3.22349,4.36443 2.79846,4.77521 4.91421,6.17436 6.48132,4.2861 0.70895,-0.85423 -0.001,-2.82989 -2.4043,-6.69056 -1.87568,-3.01311 -3.42048,-6.17778 -3.4329,-7.0326 -0.0124,-0.85482 1.32741,-3.68295 2.97741,-6.28473 3.48679,-5.49809 3.78102,-7.66105 1.04215,-7.66105 -1.26306,0 -2.89374,1.59699 -4.59514,4.50021 -1.45052,2.47512 -3.02324,4.26169 -3.49494,3.97017 -0.4717,-0.29153 -1.86175,-2.31663 -3.08899,-4.50022 -2.10951,-3.75335 -5.01125,-5.15747 -6.31129,-3.05396 -0.31143,0.50391 1.07019,3.66328 3.07027,7.02083 l 3.6365,6.10462 -3.71874,6.02485 c -5.71472,9.25858 -2.88418,12.74017 2.96018,3.64104 z m 79.5,-2.86419 c 0,-8.43468 -1.76891,-12.41405 -5.92397,-13.32665 -1.6273,-0.35742 -3.77741,-0.2117 -4.77802,0.32381 -1.00061,0.53551 -3.05201,0.73801 -4.55865,0.45 l -2.73936,-0.52366 0,10.18612 c 0,9.99141 0.043,10.18002 2.25,9.86658 2.04324,-0.29018 2.29595,-0.98931 2.75,-7.60781 0.4642,-6.76642 1.54128,-9.13691 4.17857,-9.19643 2.34191,-0.0529 3.82143,3.56951 3.82143,9.35612 0,6.3507 1.15741,8.88913 3.62186,7.94344 0.98774,-0.37904 1.37814,-2.49558 1.37814,-7.47152 z m 20.25,7.10575 2.75,0.0827 0,-14.45687 c 0,-8.96369 -0.39661,-14.70199 -1.0438,-15.10197 -1.90909,-1.17988 -3.9562,1.71089 -3.9562,5.58664 0,3.79712 -0.016,3.81209 -3.48063,3.24986 -4.46044,-0.72383 -8.17465,1.62129 -10.18386,6.43001 -1.93433,4.6295 -1.05116,9.27218 2.42511,12.74845 2.36674,2.36675 3.22307,2.62716 6.72571,2.04529 2.20752,-0.36671 5.25117,-0.62955 6.76367,-0.58408 z m -9.42185,-3.98547 c -3.45695,-2.01717 -3.09461,-9.75035 0.57155,-12.19832 3.28325,-2.19228 6.6003,0.94103 6.6003,6.23469 0,5.66464 -3.16871,8.29952 -7.17185,5.96363 z m -68.07075,-2.46363 c 0.5157,-12.02087 1.61199,-12.86004 4.82173,-3.69084 3.31348,9.46555 5.89189,9.48328 9.65953,0.0664 3.38642,-8.46405 4.75784,-8.66765 4.77499,-0.70888 0.0178,8.2402 0.76052,10.83333 3.10298,10.83333 1.68206,0 1.87088,-0.77495 1.76649,-7.25 -0.0643,-3.9875 -0.40179,-10.175 -0.75,-13.75 -0.6197,-6.36225 -0.69465,-6.5 -3.53674,-6.5 -2.666,0 -3.15703,0.60752 -6,7.42337 -1.70301,4.08286 -3.54638,7.30216 -4.09638,7.15399 -0.55,-0.14816 -2.125,-3.04369 -3.5,-6.43451 -3.27954,-8.08753 -3.69587,-8.64286 -6.47956,-8.64286 -2.87056,0 -3.1636,1.20819 -4.08311,16.8346 l -0.66697,11.3346 2.36482,-0.3346 c 2.15181,-0.30446 2.388,-0.87504 2.62222,-6.3346 z m 33.7426,-3.5137 c 0,-8.81963 -0.14055,-9.4863 -2,-9.4863 -1.81836,0 -2.02662,0.76438 -2.29313,8.41641 -0.33444,9.6024 0.0773,11.3681 2.54011,10.8938 1.52377,-0.29345 1.75302,-1.57815 1.75302,-9.82391 z m 0.31242,-15.25081 c 0.39799,-2.06658 -2.48881,-3.4591 -4.01242,-1.93549 -1.52361,1.52361 -0.13109,4.41041 1.93549,4.01242 0.95785,-0.18446 1.89247,-1.11908 2.07693,-2.07693 z m -44.28621,-23.74031 c 6.0016,-1.10264 11.55012,-2.64293 12.33004,-3.42286 0.77993,-0.77993 1.78705,-3.75232 2.23805,-6.60531 1.51523,-9.5853 6.16425,-13.34041 16.42379,-13.26586 11.52619,0.0837 21.73276,6.94635 25.95583,17.45194 1.14062,2.83749 2.77984,5.6044 3.64272,6.14869 1.09656,0.69169 6.05675,0.10502 16.47612,-1.94872 14.62668,-2.88304 14.91321,-2.98941 15.22427,-5.65196 0.47507,-4.06643 -3.69432,-11.43867 -9.18618,-16.2428 -2.68243,-2.34653 -9.09673,-6.34717 -14.254,-8.89031 -5.15727,-2.54314 -9.37685,-5.21509 -9.37685,-5.93765 0,-0.72257 1.9125,-1.88513 4.25,-2.58347 11.05972,-3.30412 15.73947,-8.01846 15.74626,-15.86261 0.005,-6.23213 -1.34406,-8.18426 -5.65758,-8.18426 -5.82475,0 -22.72907,3.10598 -24.13211,4.43401 -0.94937,0.89861 -1.05637,2.27931 -0.40225,5.19058 1.18764,5.28581 -0.0459,8.16056 -4.25641,9.91984 -7.10997,2.97073 -16.12145,0.82781 -21.74887,-5.17187 -1.48553,-1.58379 -4.07751,-5.91554 -5.75996,-9.6261 -2.38414,-5.2581 -3.52867,-6.74646 -5.18794,-6.74646 -4.85515,0 -26.52093,4.22849 -28.60114,5.58206 -2.71082,1.7639 -2.75273,2.71433 -0.35268,7.99876 3.48017,7.66262 9.70985,12.22264 26.35268,19.28972 2.6125,1.10935 4.75,2.61336 4.75,3.34226 0,0.72889 -4.24408,3.27206 -9.4313,5.65149 -14.74849,6.76529 -20.5687,12.95378 -20.5687,21.87017 0,6.19817 -0.21557,6.1529 15.52621,3.26072 z"
         id="path4247"
         inkscape:connector-curvature="0" />
      <path
         style="fill:#f97174"
         d="m 202.42402,401.75504 c -0.003,-54.8625 -0.2567,-104.7 -0.56489,-110.75 -0.30819,-6.05 -0.18334,-11.5362 0.27744,-12.19155 0.62705,-0.89183 15.06014,-1.26914 57.37908,-1.5 l 56.54129,-0.30845 4.91695,3.03112 c 2.70433,1.66711 5.90634,4.49927 7.1156,6.29369 2.86559,4.25224 5.25025,14.94797 6.02355,27.01686 0.34036,5.31208 1.1131,9.98894 1.71718,10.39302 0.60409,0.40407 4.24835,0.74498 8.09835,0.75755 16.28041,0.0532 28.9856,3.93451 33.56279,10.25314 l 2.93721,4.0547 0,81.34996 0,81.34996 -89,0 -89,0 -0.005,-99.75 z m 43.50455,64.45754 c 1.65,-2.56889 3.29474,-4.679 3.65498,-4.68913 0.36024,-0.0101 1.81081,1.95387 3.22349,4.36443 2.79846,4.77521 4.91421,6.17436 6.48132,4.2861 0.70895,-0.85423 -0.001,-2.82989 -2.4043,-6.69056 -1.87568,-3.01311 -3.42048,-6.17778 -3.4329,-7.0326 -0.0124,-0.85482 1.32741,-3.68295 2.97741,-6.28473 3.48679,-5.49809 3.78102,-7.66105 1.04215,-7.66105 -1.26306,0 -2.89374,1.59699 -4.59514,4.50021 -1.45052,2.47512 -3.02324,4.26169 -3.49494,3.97017 -0.4717,-0.29153 -1.86175,-2.31663 -3.08899,-4.50022 -2.10951,-3.75335 -5.01125,-5.15747 -6.31129,-3.05396 -0.31143,0.50391 1.07019,3.66328 3.07027,7.02083 l 3.6365,6.10462 -3.71874,6.02485 c -5.71472,9.25858 -2.88418,12.74017 2.96018,3.64104 z m 79.5,-2.86419 c 0,-8.43468 -1.76891,-12.41405 -5.92397,-13.32665 -1.6273,-0.35742 -3.77741,-0.2117 -4.77802,0.32381 -1.00061,0.53551 -3.05201,0.73801 -4.55865,0.45 l -2.73936,-0.52366 0,10.18612 c 0,9.99141 0.043,10.18002 2.25,9.86658 2.04324,-0.29018 2.29595,-0.98931 2.75,-7.60781 0.4642,-6.76642 1.54128,-9.13691 4.17857,-9.19643 2.34191,-0.0529 3.82143,3.56951 3.82143,9.35612 0,6.3507 1.15741,8.88913 3.62186,7.94344 0.98774,-0.37904 1.37814,-2.49558 1.37814,-7.47152 z m 20.25,7.10575 2.75,0.0827 0,-14.45687 c 0,-8.96369 -0.39661,-14.70199 -1.0438,-15.10197 -1.90909,-1.17988 -3.9562,1.71089 -3.9562,5.58664 0,3.79712 -0.016,3.81209 -3.48063,3.24986 -4.46044,-0.72383 -8.17465,1.62129 -10.18386,6.43001 -1.93433,4.6295 -1.05116,9.27218 2.42511,12.74845 2.36674,2.36675 3.22307,2.62716 6.72571,2.04529 2.20752,-0.36671 5.25117,-0.62955 6.76367,-0.58408 z m -9.42185,-3.98547 c -3.45695,-2.01717 -3.09461,-9.75035 0.57155,-12.19832 3.28325,-2.19228 6.6003,0.94103 6.6003,6.23469 0,5.66464 -3.16871,8.29952 -7.17185,5.96363 z m -68.07075,-2.46363 c 0.5157,-12.02087 1.61199,-12.86004 4.82173,-3.69084 3.31348,9.46555 5.89189,9.48328 9.65953,0.0664 3.38642,-8.46405 4.75784,-8.66765 4.77499,-0.70888 0.0178,8.2402 0.76052,10.83333 3.10298,10.83333 1.68206,0 1.87088,-0.77495 1.76649,-7.25 -0.0643,-3.9875 -0.40179,-10.175 -0.75,-13.75 -0.6197,-6.36225 -0.69465,-6.5 -3.53674,-6.5 -2.666,0 -3.15703,0.60752 -6,7.42337 -1.70301,4.08286 -3.54638,7.30216 -4.09638,7.15399 -0.55,-0.14816 -2.125,-3.04369 -3.5,-6.43451 -3.27954,-8.08753 -3.69587,-8.64286 -6.47956,-8.64286 -2.87056,0 -3.1636,1.20819 -4.08311,16.8346 l -0.66697,11.3346 2.36482,-0.3346 c 2.15181,-0.30446 2.388,-0.87504 2.62222,-6.3346 z m 33.7426,-3.5137 c 0,-8.81963 -0.14055,-9.4863 -2,-9.4863 -1.81836,0 -2.02662,0.76438 -2.29313,8.41641 -0.33444,9.6024 0.0773,11.3681 2.54011,10.8938 1.52377,-0.29345 1.75302,-1.57815 1.75302,-9.82391 z m 0.31242,-15.25081 c 0.39799,-2.06658 -2.48881,-3.4591 -4.01242,-1.93549 -1.52361,1.52361 -0.13109,4.41041 1.93549,4.01242 0.95785,-0.18446 1.89247,-1.11908 2.07693,-2.07693 z m -44.28621,-23.74031 c 6.0016,-1.10264 11.55012,-2.64293 12.33004,-3.42286 0.77993,-0.77993 1.78705,-3.75232 2.23805,-6.60531 1.45064,-9.1767 6.11408,-13.20912 15.37975,-13.29868 11.72976,-0.11337 21.85098,6.36098 26.71547,17.08937 1.57797,3.48015 3.53788,6.5842 4.35534,6.89789 1.6564,0.63562 25.67809,-3.21181 29.20514,-4.67763 2.93781,-1.22093 2.93917,-4.87898 0.004,-10.75608 -3.11899,-6.24517 -10.34833,-12.21538 -21.37715,-17.65389 -5.15727,-2.54314 -9.37685,-5.21509 -9.37685,-5.93765 0,-0.72257 1.9125,-1.88513 4.25,-2.58347 11.05972,-3.30412 15.73947,-8.01846 15.74626,-15.86261 0.005,-6.23213 -1.34406,-8.18426 -5.65758,-8.18426 -5.82475,0 -22.72907,3.10598 -24.13211,4.43401 -0.94937,0.89861 -1.05637,2.27931 -0.40225,5.19058 1.18764,5.28581 -0.0459,8.16056 -4.25641,9.91984 -7.10997,2.97073 -16.12145,0.82781 -21.74887,-5.17187 -1.48553,-1.58379 -4.07751,-5.91554 -5.75996,-9.6261 -2.38414,-5.2581 -3.52867,-6.74646 -5.18794,-6.74646 -4.85515,0 -26.52093,4.22849 -28.60114,5.58206 -2.71082,1.7639 -2.75273,2.71433 -0.35268,7.99876 3.48017,7.66262 9.70985,12.22264 26.35268,19.28972 2.6125,1.10935 4.75,2.61336 4.75,3.34226 0,0.72889 -4.24408,3.27206 -9.4313,5.65149 -14.74849,6.76529 -20.5687,12.95378 -20.5687,21.87017 0,6.19817 -0.21557,6.1529 15.52621,3.26072 z"
         id="path4245"
         inkscape:connector-curvature="0" />
      <path
         style="fill:#f84c6f"
         d="m 202.67424,389.75504 0.25433,-111.75 55,-0.29442 c 37.9581,-0.20319 56.18121,0.0474 58.81217,0.80877 2.09669,0.60675 5.56494,2.68671 7.70723,4.62214 5.5496,5.01373 7.92936,12.09564 9.29076,27.64833 1.29223,14.76242 -0.27387,13.30861 15.18984,14.10068 17.22788,0.88243 27.24859,5.4682 30.43867,13.9296 0.71611,1.89944 1.06133,28.81541 1.06133,82.75 l 0,79.9349 -89.00433,0 -89.00433,0 0.25433,-111.75 z m 43.25433,76.45754 c 1.65,-2.56889 3.29474,-4.679 3.65498,-4.68913 0.36024,-0.0101 1.81081,1.95387 3.22349,4.36443 2.79846,4.77521 4.91421,6.17436 6.48132,4.2861 0.70895,-0.85423 -0.001,-2.82989 -2.4043,-6.69056 -1.87568,-3.01311 -3.42048,-6.17778 -3.4329,-7.0326 -0.0124,-0.85482 1.32741,-3.68295 2.97741,-6.28473 3.48679,-5.49809 3.78102,-7.66105 1.04215,-7.66105 -1.26306,0 -2.89374,1.59699 -4.59514,4.50021 -1.45052,2.47512 -3.02324,4.26169 -3.49494,3.97017 -0.4717,-0.29153 -1.86175,-2.31663 -3.08899,-4.50022 -1.5971,-2.84165 -2.88964,-3.97016 -4.54722,-3.97016 -3.0767,0 -2.94769,0.79601 1.279,7.89137 l 3.59485,6.03471 -3.68845,6.07185 c -5.66559,9.32657 -2.84788,12.81224 2.99874,3.70961 z m 56.28476,-5.57787 c -0.26224,-8.86808 -0.44294,-9.62967 -2.28476,-9.62967 -1.82745,0 -2.02505,0.76346 -2.29038,8.84889 -0.29805,9.08278 0.61744,12.03844 3.39825,10.97134 1.17072,-0.44925 1.40497,-2.47758 1.17689,-10.19056 z m 10.23055,2.49789 c 0.0164,-6.55788 0.50359,-7.91171 3.20575,-8.90801 3.10859,-1.14616 4.77894,1.90498 4.77894,8.72943 0,6.50084 1.36876,9.17721 3.89497,7.61593 0.98201,-0.60691 1.23066,-2.96181 0.9546,-9.04075 -0.33063,-7.28052 -0.6534,-8.44689 -2.82388,-10.20444 -1.80042,-1.4579 -3.25646,-1.8136 -5.48813,-1.34073 -1.67066,0.354 -4.50006,0.61632 -6.28756,0.58292 l -3.25,-0.0607 0,9.91607 c 0,7.02668 0.36423,10.04691 1.25,10.36512 2.54374,0.91384 3.75003,-1.53853 3.76531,-7.65483 z m 30.73469,7.72446 5.25,-0.6306 0,-14.30169 c 0,-8.8559 -0.39746,-14.54734 -1.0438,-14.9468 -1.90909,-1.17988 -3.9562,1.71089 -3.9562,5.58664 0,3.79712 -0.016,3.81209 -3.48063,3.24986 -9.54336,-1.54867 -15.2043,12.44422 -7.80766,19.2992 2.80853,2.60285 3.27263,2.67615 11.03829,1.74339 z m -6.88839,-4.36966 c -4.45121,-2.59951 -2.21317,-12.90169 2.81696,-12.96705 2.33638,-0.0303 4.32143,3.17806 4.32143,6.98469 0,5.64324 -3.17002,8.29989 -7.13839,5.98236 z m -67.86161,-4.15293 c 0.275,-4.21881 0.77867,-7.94748 1.11927,-8.28594 0.3406,-0.33845 1.65167,1.98831 2.9135,5.17057 4.24583,10.70779 5.91827,10.9192 10.17319,1.28594 1.7005,-3.85 3.47483,-7 3.94293,-7 0.46811,0 0.85111,3.1132 0.85111,6.91821 0,8.21296 0.57593,10.08179 3.10699,10.08179 1.70384,0 1.88216,-0.77445 1.78448,-7.75 -0.0597,-4.2625 -0.3972,-10.45 -0.75,-13.75 -0.62099,-5.80847 -0.73416,-6 -3.54509,-6 -2.666,0 -3.15703,0.60752 -6,7.42337 -1.70301,4.08286 -3.54638,7.30216 -4.09638,7.15399 -0.55,-0.14816 -2.125,-3.04369 -3.5,-6.43451 -3.27954,-8.08752 -3.69587,-8.64285 -6.47956,-8.64285 -2.87056,0 -3.1636,1.20819 -4.08311,16.8346 l -0.66697,11.3346 2.36482,-0.3346 c 2.19956,-0.31122 2.39976,-0.87063 2.86482,-8.00517 z m 33.81242,-17.09394 c 0.39799,-2.06658 -2.48881,-3.4591 -4.01242,-1.93549 -1.52361,1.52361 -0.13109,4.41041 1.93549,4.01242 0.95785,-0.18446 1.89247,-1.11908 2.07693,-2.07693 z m -44.31044,-23.655 c 13.1453,-2.52374 13.34655,-2.6234 13.98904,-6.92704 1.14563,-7.6738 2.95415,-11.55118 6.50898,-13.95489 3.06865,-2.07497 4.42432,-2.32273 11,-2.01031 12.58179,0.59777 20.43964,5.96529 25.50685,17.42316 1.31672,2.97733 3.1389,5.69916 4.0493,6.04851 2.41426,0.92644 30.59853,-4.29216 31.55707,-5.84311 0.44196,-0.71511 0.53343,-2.42893 0.20327,-3.8085 -2.1252,-8.88011 -9.88731,-16.59193 -23.85224,-23.6977 -5.19985,-2.64583 -9.32508,-5.20494 -9.16717,-5.68689 0.15791,-0.48196 3.12688,-1.90454 6.5977,-3.16129 7.41363,-2.68441 11.76876,-6.48445 13.08222,-11.4148 1.07973,-4.05303 -0.12031,-10.86274 -2.15468,-12.22688 -1.52231,-1.02077 -7.71565,-0.39641 -19.82232,1.99832 l -8.5,1.68133 0.31947,6.18032 c 0.38843,7.51428 -1.27464,9.71057 -8.13168,10.73885 -10.00938,1.501 -19.42121,-4.71819 -23.43867,-15.48788 -1.10282,-2.95636 -2.72566,-5.8297 -3.60631,-6.3852 -1.12556,-0.70999 -5.68785,-0.31073 -15.35913,1.34413 -7.56687,1.29478 -14.3091,2.56564 -14.98274,2.82414 -2.51999,0.96701 -2.46161,4.43655 0.16497,9.80509 3.86275,7.89518 7.50911,10.43712 27.36065,19.07358 5.37771,2.33959 4.44081,3.30811 -9.23843,9.55023 -11.86892,5.41603 -17.58813,12.13334 -17.58813,20.65755 0,6.11413 0.3503,6.18824 15.50198,3.27928 z"
         id="path4243"
         inkscape:connector-curvature="0" />
      <path
         style="fill:#f83a63"
         d="m 203.10064,500.84377 c -0.36964,-0.36963 -0.67207,-50.48438 -0.67207,-111.36611 l 0,-110.69404 5.25,-0.6306 c 2.8875,-0.34683 28.10195,-0.63451 56.03212,-0.63929 55.92295,-0.01 54.90588,-0.11282 61.47031,6.24051 4.86242,4.70606 7.26849,12.30733 8.55773,27.03562 1.29223,14.76242 -0.27387,13.30861 15.18984,14.10068 13.66175,0.69977 22.18818,3.42007 26.83244,8.56072 1.955,2.16395 3.82062,5.4238 4.14582,7.24412 0.3252,1.82031 0.46313,38.63466 0.30651,81.80966 l -0.28477,78.5 -88.07793,0.2554 c -48.44287,0.14047 -88.38037,-0.047 -88.75,-0.41667 z m 141.78381,-29.53414 c 1.62573,0.081 3.30634,-0.40445 3.73469,-1.07869 1.05972,-1.66809 0.99291,-26.88806 -0.0757,-28.57429 -0.46998,-0.74162 -1.70059,-1.18774 -2.73469,-0.99138 -1.42536,0.27066 -1.95455,1.383 -2.18767,4.5984 -0.30681,4.23191 -0.31644,4.24137 -4.31574,4.24137 -5.04796,0 -7.45219,1.27829 -9.36641,4.97998 -4.3843,8.47831 1.55234,19.30533 9.48965,17.30686 1.375,-0.3462 3.83015,-0.56321 5.45588,-0.48225 z m -9.2129,-5.96161 c -1.6285,-1.6285 -1.59199,-6.98342 0.0631,-9.24682 3.41994,-4.67706 9.21782,1.14952 7.11861,7.15384 -1.06778,3.05413 -5.05771,4.21693 -7.18166,2.09298 z m -89.47564,1.65702 c 1.49495,-2.475 3.01611,-4.5 3.38036,-4.5 0.36424,0 1.84898,2.025 3.29943,4.5 1.99104,3.39744 3.23938,4.5 5.09502,4.5 3.41163,0 3.15123,-2.09695 -1.13701,-9.15615 l -3.59485,-5.91777 3.6432,-6.11587 c 3.60939,-6.05912 3.96829,-8.81021 1.14932,-8.81021 -1.84239,0 -4.2163,2.35188 -6.1518,6.09474 -1.8961,3.66665 -2.89509,3.66158 -4.42107,-0.0224 -1.58931,-3.83693 -4.5681,-6.46349 -6.49269,-5.72496 -2.26702,0.86994 -1.89262,3.04507 1.46275,8.49825 1.65,2.68159 3,5.44198 3,6.13421 0,0.69222 -1.6046,3.90004 -3.56577,7.12848 -3.67362,6.04738 -3.75556,7.89168 -0.35059,7.89168 1.26025,0 2.94098,-1.61481 4.6837,-4.5 z m 22.77308,-4.5 1.04042,-8.5 2.28454,5.98786 c 4.18922,10.98009 6.0229,11.199 10.57201,1.26214 l 3.31906,-7.25 0.61823,5.5 c 0.34002,3.025 0.73232,6.85 0.87177,8.5 0.19064,2.25563 0.81294,3.07943 2.50802,3.32014 1.23996,0.17607 2.48215,-0.27393 2.76042,-1 0.84345,-2.20078 -1.20651,-26.91176 -2.32535,-28.0306 -0.57371,-0.57371 -2.11074,-0.77515 -3.41562,-0.44765 -1.80082,0.45198 -3.08539,2.31396 -5.331,7.72727 -1.62717,3.92249 -3.35498,7.1117 -3.83959,7.08713 -0.4846,-0.0246 -2.00526,-2.88229 -3.37924,-6.35048 -2.96777,-7.49122 -3.89694,-8.80581 -6.22409,-8.80581 -0.96531,0 -2.2205,0.5625 -2.78932,1.25 -1.11634,1.34927 -3.25055,25.40344 -2.44463,27.55287 0.26868,0.71658 1.44373,1.16658 2.61123,1 1.8751,-0.26754 2.24409,-1.29441 3.16314,-8.80287 z m 33.4244,7.06574 c 0.56935,-1.06384 1.03518,-5.25283 1.03518,-9.30887 0,-7.9683 -1.49242,-11.54936 -4.35539,-10.45073 -1.37235,0.52662 -1.64461,2.26416 -1.64461,10.49581 0,5.42559 0.3,10.16472 0.66667,10.53138 1.25732,1.25733 3.2635,0.66567 4.29815,-1.26759 z m 10.03518,-5.56574 c 0.56018,-7.84255 1.26222,-9.5 4.02383,-9.5 2.76393,0 3.97617,3.03828 3.97617,9.96564 0,6.56236 1.52302,8.50503 4.63984,5.91831 1.32169,-1.09691 1.51311,-2.67859 1.05586,-8.7244 -0.77501,-10.24747 -2.70982,-12.2966 -11.18276,-11.84348 -3.37014,0.18023 -6.66424,0.6594 -7.32023,1.06483 -1.26737,0.78327 -1.72045,16.08026 -0.56543,19.09018 0.36998,0.96416 1.49797,1.51043 2.75,1.33179 1.87527,-0.26756 2.18101,-1.11889 2.62272,-7.30287 z m -9.64948,-17.97106 c 0.31048,-0.80908 -0.1044,-2.13996 -0.92195,-2.95751 -2.01118,-2.01118 -4.42857,-0.90005 -4.42857,2.03556 0,1.85735 0.53566,2.39301 2.39301,2.39301 1.31616,0 2.64704,-0.66198 2.95751,-1.47106 z m -44.35052,-24.1102 c 12.37598,-2.12814 13.54248,-2.90788 14.33276,-9.58061 1.38723,-11.71295 10.64754,-16.40889 24.33969,-12.34276 7.14111,2.12068 13.91745,8.40415 17.37567,16.11188 1.58606,3.53503 3.57294,6.4318 4.61786,6.7326 2.47218,0.71168 29.95362,-4.55945 31.42091,-6.02674 1.70448,-1.70448 0.37089,-7.1997 -3.06023,-12.61002 -3.4824,-5.49118 -11.83547,-11.85714 -21.85269,-16.65417 -3.96362,-1.89809 -7.05862,-3.89497 -6.87778,-4.4375 0.18085,-0.54253 2.92193,-1.85079 6.09131,-2.90725 10.02051,-3.34017 14.722,-10.27311 13.04144,-19.23127 -1.04805,-5.58659 -2.97962,-6.03567 -16.82616,-3.91198 -14.59752,2.23887 -15.85861,3.10859 -14.3114,9.86992 0.95676,4.18103 0.85453,4.86769 -1.00088,6.72311 -2.34443,2.34442 -9.20804,3.4593 -14.8178,2.40691 -5.42037,-1.01687 -11.73653,-7.35822 -15.01701,-15.07688 -1.50496,-3.54104 -3.46367,-6.66913 -4.35269,-6.95129 -2.21008,-0.70145 -29.03629,4.16706 -30.73659,5.57818 -3.31911,2.75462 -0.12283,11.16615 6.52527,17.1723 4.20496,3.79893 10.28019,7.17753 18.34413,10.20168 8.23904,3.08981 7.98327,3.77692 -3.44397,9.25186 -12.07749,5.78647 -15.88414,8.75678 -18.71393,14.60235 -3.62777,7.49398 -1.94847,14.32005 3.24442,13.18801 1.19772,-0.2611 6.45267,-1.20985 11.67767,-2.10833 z"
         id="path4241"
         inkscape:connector-curvature="0" />
      <path
         style="fill:#f84b50"
         d="m 203.20644,389.75504 c -0.27117,-60.9125 -0.29501,-110.975 -0.053,-111.25 0.24205,-0.275 25.04046,-0.64359 55.10759,-0.81909 38.52307,-0.22485 55.79332,0.014 58.47968,0.80877 2.09669,0.62032 5.56494,2.71138 7.70723,4.64681 5.5496,5.01373 7.92936,12.09564 9.29076,27.64833 1.29223,14.76242 -0.27387,13.30861 15.18984,14.10068 17.22788,0.88243 27.24859,5.4682 30.43867,13.9296 1.24161,3.29328 1.34689,32.06884 0.39673,108.4349 l -0.66256,53.25 -87.70095,0 -87.70096,0 -0.49306,-110.75 z m 145.50063,80.80017 c 0.42818,-0.38895 0.65318,-7.14854 0.5,-15.02132 -0.24425,-12.55378 -0.50092,-14.45032 -2.08707,-15.42149 -2.3881,-1.4622 -4.69143,1.49385 -4.69143,6.0209 0,3.11482 -0.13358,3.22432 -3.30532,2.70962 -2.60492,-0.42272 -3.97828,0.0299 -6.48112,2.13587 -6.71923,5.65386 -5.99219,17.61064 1.25172,20.5856 2.21378,0.90916 13.55171,0.13674 14.81322,-1.00918 z m -12.01344,-4.86519 c -2.35963,-1.49877 -2.58521,-6.57049 -0.41018,-9.22235 2.73783,-3.33805 5.5214,-1.72272 5.95965,3.45843 0.44373,5.24615 -2.13987,7.92959 -5.54947,5.76392 z m -90.26506,1.81502 c 1.12236,-2.2 2.4217,-4 2.88744,-4 0.46573,0 2.03797,1.8 3.49386,4 1.87985,2.84064 3.35046,4 5.07387,4 3.8852,0 3.90819,-1.64023 0.1106,-7.89173 -1.96117,-3.22844 -3.56577,-6.51043 -3.56577,-7.2933 0,-0.78287 1.35,-3.55214 3,-6.15392 3.76341,-5.93428 3.92529,-8.66105 0.51419,-8.66105 -1.79227,0 -3.22435,1.116 -5.13289,4 -1.45589,2.2 -2.92477,3.99653 -3.26419,3.9923 -0.33941,-0.004 -1.64305,-1.80424 -2.89697,-4 -1.70454,-2.98484 -2.91112,-3.9923 -4.78138,-3.9923 -3.87558,0 -3.84906,2.16788 0.10775,8.81021 l 3.6432,6.11587 -3.59485,5.91777 c -4.47379,7.36465 -4.59416,9.15615 -0.61518,9.15615 2.46951,0 3.32906,-0.68486 5.02032,-4 z m 22.36971,1.75 c 0.33164,-1.2375 0.60913,-4.6875 0.61664,-7.66667 0.0157,-6.22675 0.64123,-6.01098 3.54976,1.22447 1.71487,4.26603 2.52212,5.1922 4.52553,5.1922 2.00645,0 3.00474,-1.15136 5.63583,-6.5 l 3.19746,-6.5 0.17085,5 c 0.30317,8.87243 1.09828,10.96047 4.31378,11.32847 l 2.87006,0.32846 -0.72917,-13.82846 c -0.40104,-7.60566 -1.18731,-14.39097 -1.74725,-15.07847 -0.55995,-0.6875 -2.06143,-1.25 -3.33663,-1.25 -2.69251,0 -3.0674,0.48809 -6.52864,8.5 -1.42565,3.3 -2.92642,6 -3.33506,6 -0.40863,0 -1.9515,-3.15 -3.4286,-7 -2.37341,-6.18622 -3.01708,-7.03815 -5.53677,-7.32818 -1.56813,-0.1805 -3.26707,0.0877 -3.77542,0.5961 -1.07133,1.07133 -3.22601,25.76315 -2.42933,27.83924 0.89555,2.33378 5.28064,1.70386 5.96696,-0.85716 z m 34.41547,-8.51788 c 0.23902,-8.60571 0.0297,-10.36594 -1.29317,-10.87356 -1.41057,-0.54129 -1.39221,-0.81136 0.17278,-2.54065 2.04687,-2.26177 0.80279,-5.31791 -2.16479,-5.31791 -2.87136,0 -4.22003,3.04227 -2.30143,5.19146 1.3834,1.54967 1.41317,1.99311 0.20796,3.09797 -1.01532,0.93079 -1.40653,3.87439 -1.40653,10.58333 0,5.11165 0.32066,9.61457 0.71258,10.00648 0.39191,0.39192 1.85441,0.57942 3.25,0.41667 2.51126,-0.29286 2.54036,-0.40177 2.8226,-10.56379 z m 9.32574,9.51788 c 0.061,-0.6875 0.26886,-3.91678 0.46189,-7.17617 0.67157,-11.33981 6.41422,-11.51931 6.4425,-0.20139 0.018,7.19998 0.85252,8.92391 4.09778,8.46505 2.3077,-0.32629 2.38691,-0.62702 2.38691,-9.06197 0,-7.65704 -0.26925,-8.99345 -2.2007,-10.92292 -2.19913,-2.19688 -3.32463,-2.34164 -12.7993,-1.6462 l -4,0.2936 -0.28984,9.42498 c -0.15941,5.18374 -0.061,10.02124 0.21861,10.75 0.6454,1.68188 5.53384,1.74642 5.68215,0.075 z m -54.64062,-47.83427 c 6.03367,-1.14464 11.70105,-2.47225 12.59419,-2.95024 1.03867,-0.55588 2.02172,-3.26996 2.72784,-7.53124 1.20336,-7.26209 2.98978,-9.98318 7.92555,-12.07227 11.28792,-4.77766 28.74264,3.59927 33.02006,15.84711 2.79786,8.01132 3.45204,8.17736 20.3037,5.15334 7.9521,-1.427 15.02086,-2.7532 15.70836,-2.9471 1.9154,-0.54023 1.48761,-6.29304 -0.82287,-11.06586 -2.97247,-6.1403 -11.44249,-13.40332 -21.36018,-18.31631 -4.72148,-2.3389 -8.81504,-4.62556 -9.0968,-5.08146 -0.28176,-0.45589 2.26848,-1.84282 5.6672,-3.08205 10.46407,-3.81539 14.9787,-10.4037 13.29159,-19.39675 -1.04805,-5.58659 -2.97962,-6.03567 -16.82616,-3.91198 -14.09657,2.16204 -15.74513,3.19206 -14.65452,9.15614 0.39668,2.16926 0.37682,4.87514 -0.0441,6.01307 -1.01113,2.73334 -7.0099,4.63077 -12.6356,3.99667 -7.1963,-0.81113 -12.09069,-4.96726 -16.80034,-14.26621 -2.96412,-5.85252 -4.61169,-8.04423 -6.22162,-8.27642 -1.98101,-0.28572 -10.64176,1.07148 -24.99968,3.91761 -7.01139,1.38985 -7.99956,3.27783 -5.16471,9.86762 3.50364,8.14444 11.61637,14.43869 25.15363,19.51545 7.07403,2.65291 7.85641,4.17106 3.13655,6.08624 -20.09754,8.15496 -27.37239,14.8516 -27.37239,25.19679 0,4.0495 1.38436,6.23314 3.95,6.23057 0.8525,-8.5e-4 6.48664,-0.93808 12.5203,-2.08272 z"
         id="path4239"
         inkscape:connector-curvature="0" />
      <path
         style="fill:#fa2b54"
         d="m 203.18968,411.00504 c -0.13139,-49.225 -0.24389,-99.0625 -0.25,-110.75 l -0.0111,-21.25 55.40491,-0.82908 55.40491,-0.82908 5.56758,2.84736 c 9.4573,4.83664 12.91663,12.54393 13.82909,30.8108 0.30221,6.05 0.99698,11.5625 1.54393,12.25 0.63844,0.80249 3.72521,1.2527 8.62202,1.25755 16.6407,0.0165 28.97013,3.92361 33.52256,10.62312 l 2.605,3.8336 0,80.76786 0,80.76787 -88,0 -88,0 -0.23889,-89.5 z m 145.51739,59.55017 c 0.42818,-0.38895 0.65318,-7.14854 0.5,-15.02132 -0.24425,-12.55378 -0.50092,-14.45032 -2.08707,-15.42149 -2.3881,-1.4622 -4.69143,1.49385 -4.69143,6.0209 0,3.11482 -0.13358,3.22432 -3.30532,2.70962 -2.60492,-0.42272 -3.97828,0.0299 -6.48112,2.13587 -6.71923,5.65386 -5.99219,17.61064 1.25172,20.5856 2.21378,0.90916 13.55171,0.13674 14.81322,-1.00918 z m -12.01344,-4.86519 c -2.35963,-1.49877 -2.58521,-6.57049 -0.41018,-9.22235 2.73783,-3.33805 5.5214,-1.72272 5.95965,3.45843 0.44373,5.24615 -2.13987,7.92959 -5.54947,5.76392 z m -90.26506,1.81502 c 1.12236,-2.2 2.4217,-4 2.88744,-4 0.46573,0 2.03797,1.8 3.49386,4 1.87985,2.84064 3.35046,4 5.07387,4 3.8852,0 3.90819,-1.64023 0.1106,-7.89173 -1.96117,-3.22844 -3.56577,-6.51043 -3.56577,-7.2933 0,-0.78287 1.35,-3.55214 3,-6.15392 3.76341,-5.93428 3.92529,-8.66105 0.51419,-8.66105 -1.79227,0 -3.22435,1.116 -5.13289,4 -1.45589,2.2 -2.92477,3.99653 -3.26419,3.9923 -0.33941,-0.004 -1.64305,-1.80424 -2.89697,-4 -1.70454,-2.98484 -2.91112,-3.9923 -4.78138,-3.9923 -3.87558,0 -3.84906,2.16788 0.10775,8.81021 l 3.6432,6.11587 -3.59485,5.91777 c -4.47379,7.36465 -4.59416,9.15615 -0.61518,9.15615 2.46951,0 3.32906,-0.68486 5.02032,-4 z m 22.36971,1.75 c 0.33164,-1.2375 0.60913,-4.6875 0.61664,-7.66667 0.0157,-6.22675 0.64123,-6.01098 3.54976,1.22447 1.71487,4.26603 2.52212,5.1922 4.52553,5.1922 2.00645,0 3.00474,-1.15136 5.63583,-6.5 l 3.19746,-6.5 0.17085,5 c 0.30317,8.87243 1.09828,10.96047 4.31378,11.32847 l 2.87006,0.32846 -0.72917,-13.82846 c -0.40104,-7.60566 -1.18731,-14.39097 -1.74725,-15.07847 -0.55995,-0.6875 -2.06143,-1.25 -3.33663,-1.25 -2.69251,0 -3.0674,0.48809 -6.52864,8.5 -1.42565,3.3 -2.92642,6 -3.33506,6 -0.40863,0 -1.9515,-3.15 -3.4286,-7 -2.37341,-6.18622 -3.01708,-7.03815 -5.53677,-7.32818 -1.56813,-0.1805 -3.26707,0.0877 -3.77542,0.5961 -1.07133,1.07133 -3.22601,25.76315 -2.42933,27.83924 0.89555,2.33378 5.28064,1.70386 5.96696,-0.85716 z m 34.41547,-8.51788 c 0.23902,-8.60571 0.0297,-10.36594 -1.29317,-10.87356 -1.41057,-0.54129 -1.39221,-0.81136 0.17278,-2.54065 2.04687,-2.26177 0.80279,-5.31791 -2.16479,-5.31791 -2.87136,0 -4.22003,3.04227 -2.30143,5.19146 1.3834,1.54967 1.41317,1.99311 0.20796,3.09797 -1.01532,0.93079 -1.40653,3.87439 -1.40653,10.58333 0,5.11165 0.32066,9.61457 0.71258,10.00648 0.39191,0.39192 1.85441,0.57942 3.25,0.41667 2.51126,-0.29286 2.54036,-0.40177 2.8226,-10.56379 z m 9.32574,9.51788 c 0.061,-0.6875 0.26886,-3.91678 0.46189,-7.17617 0.67157,-11.33981 6.41422,-11.51931 6.4425,-0.20139 0.018,7.19998 0.85252,8.92391 4.09778,8.46505 2.3077,-0.32629 2.38691,-0.62702 2.38691,-9.06197 0,-7.65704 -0.26925,-8.99345 -2.2007,-10.92292 -2.19913,-2.19688 -3.32463,-2.34164 -12.7993,-1.6462 l -4,0.2936 -0.28984,9.42498 c -0.15941,5.18374 -0.061,10.02124 0.21861,10.75 0.6454,1.68188 5.53384,1.74642 5.68215,0.075 z m -54.64062,-47.83427 c 6.03367,-1.14464 11.70105,-2.47225 12.59419,-2.95024 1.03867,-0.55588 2.02172,-3.26996 2.72784,-7.53124 1.20336,-7.26209 2.98978,-9.98318 7.92555,-12.07227 11.28792,-4.77766 28.74264,3.59927 33.02006,15.84711 2.79786,8.01132 3.45204,8.17736 20.3037,5.15334 7.9521,-1.427 15.02086,-2.7532 15.70836,-2.9471 1.9154,-0.54023 1.48761,-6.29304 -0.82287,-11.06586 -2.97247,-6.1403 -11.44249,-13.40332 -21.36018,-18.31631 -4.72148,-2.3389 -8.80878,-4.61543 -9.08289,-5.05895 -0.2741,-0.44351 2.31735,-1.75966 5.75878,-2.92478 10.293,-3.48474 13.75716,-7.53401 13.75716,-16.08081 0,-10.06718 -1.93833,-10.78507 -20.22826,-7.4919 -12.48087,2.24724 -13.2944,2.83211 -12.05065,8.66368 0.52713,2.47153 0.61175,5.43082 0.18804,6.5762 -1.01632,2.74737 -7.00068,4.6459 -12.6406,4.0102 -7.1963,-0.81113 -12.09069,-4.96726 -16.80034,-14.26621 -2.96412,-5.85252 -4.61169,-8.04423 -6.22162,-8.27642 -1.98101,-0.28572 -10.64176,1.07148 -24.99968,3.91761 -7.01139,1.38985 -7.99956,3.27783 -5.16471,9.86762 3.50364,8.14444 11.61637,14.43869 25.15363,19.51545 7.07403,2.65291 7.85641,4.17106 3.13655,6.08624 -20.09751,8.15496 -27.37236,14.8516 -27.37236,25.19679 0,4.0495 1.38436,6.23314 3.95,6.23057 0.8525,-8.5e-4 6.48664,-0.93808 12.5203,-2.08272 z"
         id="path4237"
         inkscape:connector-curvature="0" />
      <path
         style="fill:#f34635"
         d="m 210.67857,499.7344 -7.25,-0.31698 0,-110.30369 0,-110.30369 55.16627,-0.72577 55.16627,-0.72578 5.55622,2.84156 c 9.44492,4.83031 12.90564,12.54558 13.81773,30.80499 0.30221,6.05 0.99698,11.5625 1.54393,12.25 0.63844,0.80249 3.72521,1.2527 8.62202,1.25755 16.6407,0.0165 28.97013,3.92361 33.52256,10.62312 l 2.605,3.8336 0,80.79504 0,80.79505 -80.75,-0.25401 c -44.4125,-0.1397 -84.0125,-0.39665 -88,-0.57099 z m 134.71189,-27.52907 c 4.38355,1.14632 5.03919,-0.9517 5.0228,-16.07273 -0.008,-7.77016 -0.39475,-14.72609 -0.85851,-15.45764 -0.47892,-0.75546 -2.09236,-1.18747 -3.73469,-1 -2.62491,0.29965 -2.91984,0.7219 -3.19899,4.58008 -0.30403,4.20204 -0.35046,4.25 -4.11514,4.25 -4.51136,0 -8.54674,2.8167 -10.53518,7.35357 -1.16296,2.65342 -1.39181,2.80262 -1.46061,0.95219 -0.0449,-1.20683 -1.15228,-3.43901 -2.46093,-4.96041 -2.13718,-2.48462 -3.06446,-2.77716 -9.11021,-2.87412 -9.06814,-0.14544 -9.51043,0.41159 -9.51043,11.97775 0,10.06647 0.87814,11.98974 5.19496,11.37778 2.07965,-0.29481 2.33021,-0.91344 2.56244,-6.32676 0.36796,-8.57703 0.96181,-10.5 3.2426,-10.5 2.28079,0 2.87464,1.92297 3.2426,10.5 0.25495,5.9428 0.286,6 3.2574,6 2.48758,0 3.1752,-0.54202 4.02574,-3.17331 l 1.02574,-3.17331 1.65035,2.87557 c 1.88691,3.28775 6.85675,5.04414 11.00474,3.88919 1.48861,-0.41449 3.62851,-0.51252 4.75532,-0.21785 z m -9.55125,-9.20029 c -1.05886,-4.21887 0.29268,-7.5 3.08936,-7.5 2.79668,0 4.14822,3.28113 3.08936,7.5 -0.45674,1.81977 -1.29733,2.5 -3.08936,2.5 -1.79203,0 -2.63262,-0.68023 -3.08936,-2.5 z m -89.28009,5.48151 c 1.24218,-2.21017 2.59394,-3.89767 3.0039,-3.75 0.40997,0.14767 1.80285,1.84349 3.0953,3.76849 2.30919,3.43934 2.47048,3.5 9.30587,3.5 l 6.95595,0 0.73691,-5.89936 c 0.4053,-3.24465 0.90473,-6.06718 1.10984,-6.2723 0.20512,-0.20511 1.14208,1.64104 2.08214,4.10255 2.89877,7.59032 7.82425,6.91772 10.58431,-1.44534 1.85933,-5.63383 2.99523,-4.94573 2.99523,1.81445 0,6.23586 1.10965,8.2 4.63261,8.2 3.2165,0 3.53179,-2.13204 2.44279,-16.51898 -1.08855,-14.38099 -2.07638,-16.57552 -6.72032,-14.92959 -1.99329,0.70647 -3.34855,2.53377 -5.31012,7.15964 -1.44857,3.41609 -2.87909,6.45639 -3.17893,6.75623 -0.29984,0.29984 -1.78274,-2.6092 -3.29533,-6.46453 -2.20002,-5.6075 -3.26327,-7.13849 -5.31521,-7.65349 -5.4307,-1.36302 -6.86947,2.64324 -7.14696,19.90072 -0.0597,3.7125 -0.44603,6.74113 -0.85853,6.73028 -0.4125,-0.0108 -2.21782,-2.53072 -4.01182,-5.59972 l -3.26183,-5.58001 3.58493,-5.90143 c 4.21397,-6.93694 4.20476,-9.39912 -0.0351,-9.39912 -2.25313,0 -3.49944,0.8236 -5.29639,3.5 -1.29245,1.925 -2.68553,3.62089 -3.09573,3.76863 -0.4102,0.14775 -1.49525,-1.30293 -2.41122,-3.22374 -1.01522,-2.12894 -2.63043,-3.73459 -4.13726,-4.11278 -5.42556,-1.36173 -6.04992,2.46677 -1.58554,9.72231 1.65,2.6816 3,5.28661 3,5.78893 0,0.50232 -1.62489,3.64102 -3.61086,6.97488 -4.03821,6.77897 -3.9075,9.08177 0.51549,9.08177 2.42289,0 3.38183,-0.73738 5.22592,-4.01849 z m 56.88765,1.47062 c 0.54943,-1.44512 0.6898,-6.31424 0.32433,-11.25 -0.35441,-4.78617 -0.68896,-10.50213 -0.74345,-12.70213 -0.093,-3.75576 -0.28226,-4 -3.09908,-4 l -3,0 -0.29907,13.90093 c -0.16449,7.64552 -0.0661,14.50802 0.21861,15.25 0.93752,2.44313 5.5313,1.60856 6.59866,-1.1988 z m -43.08695,-47.54148 c 5.18719,-1.01452 9.97442,-2.42194 10.63829,-3.12761 0.66387,-0.70567 1.69625,-4.16038 2.29416,-7.67713 1.19262,-7.01462 2.97414,-9.67843 7.85418,-11.74393 11.28792,-4.77766 28.74264,3.59927 33.02006,15.84711 2.78113,7.96343 3.66317,8.2113 18.82925,5.29158 7.11304,-1.36938 14.13999,-2.49223 15.61542,-2.49522 7.10024,-0.0144 3.01984,-13.25609 -6.72918,-21.83753 -2.518,-2.21643 -8.60011,-6.10712 -13.51581,-8.64598 -4.91569,-2.53885 -8.93762,-4.80257 -8.93762,-5.03047 0,-0.22791 1.9125,-0.92289 4.25,-1.54441 9.93344,-2.64118 14.74007,-8.05703 14.74626,-16.61527 0.005,-6.48397 -0.67364,-8.25863 -3.57893,-9.36322 -2.42872,-0.9234 -20.0918,1.21954 -26.27183,3.18737 l -3.3545,1.06814 0.67289,6.28335 c 0.62161,5.80453 0.49831,6.40564 -1.618,7.88796 -3.00873,2.1074 -12.01379,2.0933 -16.47944,-0.0258 -4.52081,-2.14526 -9.02709,-7.69992 -11.15232,-13.74687 -2.7512,-7.82806 -3.50423,-8.01923 -20.11253,-5.10598 -7.84862,1.37672 -15.13229,2.96449 -16.18592,3.52837 -2.49839,1.3371 -2.40461,3.3653 0.43717,9.45488 3.09815,6.63896 9.28698,12.02915 18.55046,16.15659 10.36145,4.61667 12.38071,5.70075 12.49692,6.70922 0.0549,0.47619 -3.72523,2.51438 -8.40023,4.52931 -15.81316,6.81548 -21.5297,12.33831 -22.66137,21.89349 -0.51435,4.34292 -0.31484,5.11464 1.68427,6.51488 1.46996,1.02959 3.35995,1.38845 5.37242,1.02006 1.70757,-0.31257 7.34874,-1.39838 12.53593,-2.4129 z"
         id="path4235"
         inkscape:connector-curvature="0" />
      <path
         style="fill:#fd194a"
         d="m 210.67857,499.7344 -7.25,-0.31698 0,-110.45619 0,-110.45619 55.53212,0 c 59.93633,0 58.64191,-0.1076 65.19687,5.41968 4.87599,4.11154 8.26634,15.724 8.28632,28.38194 0.008,5.33411 0.34592,10.19709 0.75,10.80663 0.42394,0.6395 4.32992,1.18756 9.23469,1.29575 17.79238,0.39247 28.52391,3.96278 34.0484,11.32768 l 2.4516,3.26832 0.26735,80.7772 0.26735,80.7772 -80.76735,-0.25403 c -44.42204,-0.13971 -84.02985,-0.39667 -88.01735,-0.57101 z m 134.71189,-27.52907 c 4.38355,1.14632 5.03919,-0.9517 5.0228,-16.07273 -0.008,-7.77016 -0.39475,-14.72609 -0.85851,-15.45764 -0.47892,-0.75546 -2.09236,-1.18747 -3.73469,-1 -2.62491,0.29965 -2.91984,0.7219 -3.19899,4.58008 -0.30403,4.20204 -0.35046,4.25 -4.11514,4.25 -4.51136,0 -8.54674,2.8167 -10.53518,7.35357 -1.16296,2.65342 -1.39181,2.80262 -1.46061,0.95219 -0.0449,-1.20683 -1.15228,-3.43901 -2.46093,-4.96041 -2.13718,-2.48462 -3.06446,-2.77716 -9.11021,-2.87412 -9.06814,-0.14544 -9.51043,0.41159 -9.51043,11.97775 0,10.06647 0.87814,11.98974 5.19496,11.37778 2.07965,-0.29481 2.33021,-0.91344 2.56244,-6.32676 0.36796,-8.57703 0.96181,-10.5 3.2426,-10.5 2.28079,0 2.87464,1.92297 3.2426,10.5 0.25495,5.9428 0.286,6 3.2574,6 2.48758,0 3.1752,-0.54202 4.02574,-3.17331 l 1.02574,-3.17331 1.65035,2.87557 c 1.88691,3.28775 6.85675,5.04414 11.00474,3.88919 1.48861,-0.41449 3.62851,-0.51252 4.75532,-0.21785 z m -9.55125,-9.20029 c -1.05886,-4.21887 0.29268,-7.5 3.08936,-7.5 2.79668,0 4.14822,3.28113 3.08936,7.5 -0.45674,1.81977 -1.29733,2.5 -3.08936,2.5 -1.79203,0 -2.63262,-0.68023 -3.08936,-2.5 z m -89.28009,5.48151 c 1.24218,-2.21017 2.59394,-3.89767 3.0039,-3.75 0.40997,0.14767 1.80285,1.84349 3.0953,3.76849 2.30919,3.43934 2.47048,3.5 9.30587,3.5 l 6.95595,0 0.73691,-5.89936 c 0.4053,-3.24465 0.90473,-6.06718 1.10984,-6.2723 0.20512,-0.20511 1.14208,1.64104 2.08214,4.10255 2.89877,7.59032 7.82425,6.91772 10.58431,-1.44534 1.85933,-5.63383 2.99523,-4.94573 2.99523,1.81445 0,6.23586 1.10965,8.2 4.63261,8.2 3.2165,0 3.53179,-2.13204 2.44279,-16.51898 -1.08855,-14.38099 -2.07638,-16.57552 -6.72032,-14.92959 -1.99329,0.70647 -3.34855,2.53377 -5.31012,7.15964 -1.44857,3.41609 -2.87909,6.45639 -3.17893,6.75623 -0.29984,0.29984 -1.78274,-2.6092 -3.29533,-6.46453 -2.20002,-5.6075 -3.26327,-7.13849 -5.31521,-7.65349 -5.4307,-1.36302 -6.86947,2.64324 -7.14696,19.90072 -0.0597,3.7125 -0.44603,6.74113 -0.85853,6.73028 -0.4125,-0.0108 -2.21782,-2.53072 -4.01182,-5.59972 l -3.26183,-5.58001 3.58493,-5.90143 c 4.21397,-6.93694 4.20476,-9.39912 -0.0351,-9.39912 -2.25313,0 -3.49944,0.8236 -5.29639,3.5 -1.29245,1.925 -2.68553,3.62089 -3.09573,3.76863 -0.4102,0.14775 -1.49525,-1.30293 -2.41122,-3.22374 -1.01522,-2.12894 -2.63043,-3.73459 -4.13726,-4.11278 -5.42556,-1.36173 -6.04992,2.46677 -1.58554,9.72231 1.65,2.6816 3,5.28661 3,5.78893 0,0.50232 -1.62489,3.64102 -3.61086,6.97488 -4.03821,6.77897 -3.9075,9.08177 0.51549,9.08177 2.42289,0 3.38183,-0.73738 5.22592,-4.01849 z m 56.88765,1.47062 c 0.54943,-1.44512 0.6898,-6.31424 0.32433,-11.25 -0.35441,-4.78617 -0.68896,-10.50213 -0.74345,-12.70213 -0.093,-3.75576 -0.28226,-4 -3.09908,-4 l -3,0 -0.29907,13.90093 c -0.16449,7.64552 -0.0661,14.50802 0.21861,15.25 0.93752,2.44313 5.5313,1.60856 6.59866,-1.1988 z m -43.08695,-47.54148 c 5.18719,-1.01452 9.97442,-2.42194 10.63829,-3.12761 0.66387,-0.70567 1.69625,-4.16038 2.29416,-7.67713 1.19262,-7.01462 2.97414,-9.67843 7.85418,-11.74393 11.28792,-4.77766 28.74264,3.59927 33.02006,15.84711 2.78113,7.96343 3.66317,8.2113 18.82925,5.29158 7.11304,-1.36938 14.13999,-2.49223 15.61542,-2.49522 7.10024,-0.0144 3.01984,-13.25609 -6.72918,-21.83753 -2.518,-2.21643 -8.60011,-6.10712 -13.51581,-8.64598 -4.91569,-2.53885 -8.93762,-4.80257 -8.93762,-5.03047 0,-0.22791 1.9125,-0.91527 4.25,-1.52747 8.71284,-2.28192 14.24576,-7.69322 14.8055,-14.48005 0.56659,-6.86988 -0.0295,-9.42078 -2.59389,-11.10106 -2.36869,-1.55203 -3.25453,-1.54932 -13.25,0.0404 -5.89139,0.93699 -12.22113,2.17549 -14.06611,2.7522 l -3.3545,1.04858 0.67289,6.28335 c 0.62161,5.80453 0.49831,6.40564 -1.618,7.88796 -3.00873,2.1074 -12.01379,2.0933 -16.47944,-0.0258 -4.52081,-2.14526 -9.02709,-7.69992 -11.15232,-13.74687 -2.7512,-7.82806 -3.50423,-8.01923 -20.11253,-5.10598 -7.84862,1.37672 -15.13229,2.96449 -16.18592,3.52837 -2.49839,1.3371 -2.40461,3.3653 0.43717,9.45488 3.09815,6.63896 9.28698,12.02915 18.55046,16.15659 10.36145,4.61667 12.38071,5.70075 12.49692,6.70922 0.0549,0.47619 -3.72523,2.51438 -8.40023,4.52931 -15.81316,6.81548 -21.5297,12.33831 -22.66137,21.89349 -0.51435,4.34292 -0.31484,5.11464 1.68427,6.51488 1.46996,1.02959 3.35995,1.38845 5.37242,1.02006 1.70757,-0.31257 7.34874,-1.39838 12.53593,-2.4129 z"
         id="path4233"
         inkscape:connector-curvature="0" />
      <path
         style="fill:#fd1b43"
         d="m 315,466.93361 c -1.57759,-1.57759 -2.09815,-6.89239 -0.96444,-9.84678 0.33384,-0.86999 1.4107,-1.58179 2.39301,-1.58179 2.11121,0 3,1.92572 3,6.5 0,6.18764 -1.50007,7.85707 -4.42857,4.92857 z m -11.07997,-11.92857 c -0.49235,-3.3 -0.91684,-7.575 -0.94332,-9.5 -0.0442,-3.21152 -0.2954,-3.5 -3.04814,-3.5 -2.747,0 -3.0066,0.29517 -3.07827,3.5 -0.1,4.47036 -1.41004,9.12526 -2.3966,8.51553 -0.41883,-0.25885 -1.07476,-2.83199 -1.45761,-5.71809 -1.07514,-8.1048 -3.73399,-9.81413 -8.92022,-5.73465 l -2.62241,2.0628 -14.59789,-9.72523 c -10.2946,-6.85834 -14.18343,-9.95716 -13.19195,-10.51202 0.77326,-0.43274 4.72795,-1.47946 8.7882,-2.32605 4.06025,-0.84659 7.91577,-2.10693 8.56781,-2.80077 0.65203,-0.69384 1.67473,-4.13886 2.27264,-7.65561 1.19262,-7.01462 2.97414,-9.67843 7.85418,-11.74393 11.28792,-4.77766 28.74264,3.59927 33.02006,15.84711 2.78113,7.96343 3.66317,8.2113 18.82925,5.29158 7.11304,-1.36938 14.13999,-2.49223 15.61542,-2.49522 7.10024,-0.0144 3.01984,-13.25609 -6.72918,-21.83753 -2.518,-2.21643 -8.60011,-6.10712 -13.51581,-8.64598 -4.91569,-2.53885 -8.93762,-4.80257 -8.93762,-5.03047 0,-0.22791 1.9125,-0.91527 4.25,-1.52747 8.71284,-2.28192 14.24576,-7.69322 14.8055,-14.48005 0.56659,-6.86988 -0.0295,-9.42078 -2.59389,-11.10106 -2.36869,-1.55203 -3.25453,-1.54932 -13.25,0.0404 -5.89139,0.93699 -12.22113,2.17549 -14.06611,2.7522 l -3.3545,1.04858 0.67289,6.28335 c 0.62161,5.80453 0.49831,6.40564 -1.618,7.88796 -3.00873,2.1074 -12.01379,2.0933 -16.47944,-0.0258 -4.52081,-2.14526 -9.02709,-7.69992 -11.15232,-13.74687 -2.53175,-7.20364 -3.92521,-7.79989 -14.55551,-6.22817 l -8.8286,1.30533 -4.16501,-3.44064 c -8.92074,-7.36926 -12.39869,-10.19005 -18.66501,-15.13825 -3.575,-2.82299 -11.10303,-8.84258 -16.72895,-13.37685 l -10.22895,-8.24414 -0.0211,-18.25 -0.0211,-18.25 55.53212,0 c 59.93633,0 58.64191,-0.1076 65.19687,5.41968 4.87599,4.11154 8.26634,15.724 8.28632,28.38194 0.008,5.33411 0.34592,10.19709 0.75,10.80663 0.42394,0.6395 4.32992,1.18756 9.23469,1.29575 17.79238,0.39247 28.52391,3.96278 34.0484,11.32768 l 2.4516,3.26832 0.2742,56.9258 c 0.1508,31.3092 -0.0946,57.29462 -0.54539,57.74539 -0.45076,0.45076 -7.94212,-4.87856 -16.64745,-11.84294 -12.74347,-10.19495 -16.14488,-12.46396 -17.45462,-11.64361 -0.89471,0.56041 -5.18392,6.7151 -9.53158,13.6771 l -7.90483,12.65818 -1.84563,-3.03489 c -1.01509,-1.66918 -2.93596,-3.44943 -4.26859,-3.95609 -2.61273,-0.99336 -13.25796,-0.68042 -14.36054,0.42216 -0.36939,0.36939 -0.93201,3.0065 -1.25028,5.86026 l -0.57865,5.18864 -0.89518,-6 z m -71.15662,-43.32679 c -14.26299,-9.43156 -18.52972,-12.51749 -18.99937,-13.74137 -0.2641,-0.68823 0.18252,-2.52944 0.99248,-4.09158 1.72055,-3.31837 22.39556,-31.34026 23.12335,-31.34026 0.27121,0 1.45658,2.23967 2.63417,4.97705 2.8634,6.65615 9.45181,12.50434 18.76126,16.65341 10.70726,4.77204 12.46344,5.73744 12.38475,6.80807 -0.038,0.51619 -3.89943,2.58922 -8.58108,4.60673 -11.82444,5.09561 -17.58263,9.46205 -20.69672,15.69434 l -2.55173,5.10682 -7.06711,-4.67321 z"
         id="path4231"
         inkscape:connector-curvature="0" />
      <path
         style="fill:#fe1e3c"
         d="m 315,466.93361 c -1.57759,-1.57759 -2.09815,-6.89239 -0.96444,-9.84678 0.33384,-0.86999 1.4107,-1.58179 2.39301,-1.58179 2.11121,0 3,1.92572 3,6.5 0,6.18764 -1.50007,7.85707 -4.42857,4.92857 z m -11.07997,-11.92857 c -0.49235,-3.3 -0.91684,-7.575 -0.94332,-9.5 -0.0442,-3.21152 -0.2954,-3.5 -3.04814,-3.5 -2.747,0 -3.0066,0.29517 -3.07827,3.5 -0.1,4.47036 -1.41004,9.12526 -2.3966,8.51553 -0.41883,-0.25885 -1.07476,-2.83199 -1.45761,-5.71809 -1.07514,-8.1048 -3.73399,-9.81413 -8.92022,-5.73465 l -2.62241,2.0628 -14.59789,-9.72523 c -10.2946,-6.85834 -14.18343,-9.95716 -13.19195,-10.51202 0.77326,-0.43274 4.72795,-1.47946 8.7882,-2.32605 4.06025,-0.84659 7.91577,-2.10693 8.56781,-2.80077 0.65203,-0.69384 1.67473,-4.13886 2.27264,-7.65561 1.19262,-7.01462 2.97414,-9.67843 7.85418,-11.74393 11.28792,-4.77766 28.74264,3.59927 33.02006,15.84711 2.79914,8.01498 3.48734,8.18973 20.03918,5.08821 7.80662,-1.46282 14.4855,-2.36801 14.84197,-2.01154 0.67704,0.67704 -3.19813,7.54584 -14.93842,26.47854 l -6.98506,11.26431 -1.84826,-3.03923 c -1.01655,-1.67158 -2.93861,-3.45378 -4.27124,-3.96044 -2.61273,-0.99336 -13.25796,-0.68042 -14.36054,0.42216 -0.36939,0.36939 -0.93201,3.0065 -1.25028,5.86026 l -0.57865,5.18864 -0.89518,-6 z m 60.75854,-27.62715 c -10.28381,-8.37398 -12.25,-10.41683 -12.25,-12.72759 0,-4.44656 -4.77906,-12.76128 -10.06794,-17.51643 -2.70113,-2.42856 -8.96586,-6.50973 -13.92161,-9.06927 -4.95575,-2.55955 -9.01045,-4.84019 -9.01045,-5.06809 0,-0.22791 1.9125,-0.91527 4.25,-1.52747 8.71284,-2.28192 14.24576,-7.69322 14.8055,-14.48005 0.56659,-6.86988 -0.0295,-9.42078 -2.59389,-11.10106 -2.36869,-1.55203 -3.25453,-1.54932 -13.25,0.0404 -5.89139,0.93699 -12.22113,2.17549 -14.06611,2.7522 l -3.3545,1.04858 0.67622,6.31439 c 0.60817,5.679 0.47435,6.42243 -1.32976,7.38797 -1.10329,0.59046 -2.87455,1.07356 -3.93614,1.07356 -1.8864,0 -23.91807,-16.97625 -25.50102,-19.64952 -0.43984,-0.74279 -2.09252,-2.01906 -3.67262,-2.83617 -1.5801,-0.8171 -4.86869,-3.17959 -7.30797,-5.24997 -2.43929,-2.07039 -6.86161,-5.69254 -9.82739,-8.04922 -13.32536,-10.58869 -25.79479,-20.54033 -30.39232,-24.25559 -2.75,-2.22228 -8.4875,-6.80018 -12.75,-10.17312 l -7.75,-6.13262 0,-9.82689 0,-9.8269 55.53212,0 c 59.93633,0 58.64191,-0.1076 65.19687,5.41968 4.87599,4.11154 8.26634,15.724 8.28632,28.38194 0.008,5.33411 0.34592,10.19709 0.75,10.80663 0.42394,0.6395 4.32992,1.18756 9.23469,1.29575 17.79238,0.39247 28.52391,3.96278 34.0484,11.32768 l 2.4516,3.26832 0,48.91635 c 0,31.7725 -0.35047,49.00662 -1,49.17394 -0.55,0.14167 -6.5125,-4.23117 -13.25,-9.71744 z M 232.76341,411.67825 c -14.26299,-9.43156 -18.52972,-12.51749 -18.99937,-13.74137 -0.2641,-0.68823 0.18252,-2.52944 0.99248,-4.09158 1.72055,-3.31837 22.39556,-31.34026 23.12335,-31.34026 0.27121,0 1.45658,2.23967 2.63417,4.97705 2.8634,6.65615 9.45181,12.50434 18.76126,16.65341 10.70726,4.77204 12.46344,5.73744 12.38475,6.80807 -0.038,0.51619 -3.89943,2.58922 -8.58108,4.60673 -11.82444,5.09561 -17.58263,9.46205 -20.69672,15.69434 l -2.55173,5.10682 -7.06711,-4.67321 z"
         id="path4229"
         inkscape:connector-curvature="0" />
      <path
         style="fill:#d52d50"
         d="m 315,466.93361 c -1.57759,-1.57759 -2.09815,-6.89239 -0.96444,-9.84678 0.33384,-0.86999 1.4107,-1.58179 2.39301,-1.58179 2.11121,0 3,1.92572 3,6.5 0,6.18764 -1.50007,7.85707 -4.42857,4.92857 z m -11.07997,-11.92857 c -0.49235,-3.3 -0.91684,-7.575 -0.94332,-9.5 -0.0442,-3.21152 -0.2954,-3.5 -3.04814,-3.5 -2.747,0 -3.0066,0.29517 -3.07827,3.5 -0.1,4.47036 -1.41004,9.12526 -2.3966,8.51553 -0.41883,-0.25885 -1.07476,-2.83199 -1.45761,-5.71809 -1.07514,-8.1048 -3.73399,-9.81413 -8.92022,-5.73465 l -2.62241,2.0628 -14.59789,-9.72523 c -10.2946,-6.85834 -14.18343,-9.95716 -13.19195,-10.51202 0.77326,-0.43274 4.72795,-1.47946 8.7882,-2.32605 4.06025,-0.84659 7.91577,-2.10693 8.56781,-2.80077 0.65203,-0.69384 1.67473,-4.13886 2.27264,-7.65561 1.19262,-7.01462 2.97414,-9.67843 7.85418,-11.74393 11.28792,-4.77766 28.74264,3.59927 33.02006,15.84711 2.79914,8.01498 3.48734,8.18973 20.03918,5.08821 7.80662,-1.46282 14.4855,-2.36801 14.84197,-2.01154 0.67704,0.67704 -3.19813,7.54584 -14.93842,26.47854 l -6.98506,11.26431 -1.84826,-3.03923 c -1.01655,-1.67158 -2.93861,-3.45378 -4.27124,-3.96044 -2.61273,-0.99336 -13.25796,-0.68042 -14.36054,0.42216 -0.36939,0.36939 -0.93201,3.0065 -1.25028,5.86026 l -0.57865,5.18864 -0.89518,-6 z m 69.50854,-37.96789 c -2.475,-1.88238 -6.75,-5.24799 -9.5,-7.47914 -13.30001,-10.79063 -19.90583,-16.06973 -27.40548,-21.90132 l -8.16422,-6.34835 3.496,-2.65165 c 5.35241,-4.0597 7.14727,-8.83174 6.7245,-17.8786 -0.10433,-2.2326 -0.9191,-3.73036 -2.64416,-4.86066 -2.32104,-1.5208 -3.44334,-1.4902 -16.23843,0.44277 -8.99434,1.35879 -14.11803,2.58655 -14.82415,3.55223 -0.90136,1.23268 -2.30333,0.49141 -8.51158,-4.50031 -4.08786,-3.28684 -9.85476,-7.87305 -12.81533,-10.19157 -2.96056,-2.31853 -7.01056,-5.60931 -9,-7.31284 -1.98943,-1.70353 -8.15088,-6.65353 -13.6921,-11 -5.54123,-4.34647 -19.49123,-15.44343 -31,-24.65991 -11.50878,-9.21647 -22.27505,-17.82703 -23.92505,-19.13457 -1.65,-1.30754 -2.62526,-2.76678 -2.16726,-3.24277 0.45801,-0.47598 25.46692,-1.0168 55.57535,-1.20182 59.51727,-0.36573 58.00878,-0.48805 64.8209,5.25608 4.87599,4.11154 8.26634,15.72399 8.28632,28.38194 0.008,5.33411 0.34592,10.19709 0.75,10.80663 0.42394,0.6395 4.32992,1.18756 9.23469,1.29575 17.79238,0.39247 28.52391,3.96278 34.0484,11.32768 l 2.4516,3.26832 0.28433,37.72787 c 0.15637,20.75033 -0.0686,39.07762 -0.5,40.72731 l -0.78433,2.99944 -4.5,-3.42251 z m -140.66516,-5.3589 c -14.26299,-9.43156 -18.52972,-12.51749 -18.99937,-13.74137 -0.2641,-0.68823 0.18252,-2.52944 0.99248,-4.09158 1.72055,-3.31837 22.39556,-31.34026 23.12335,-31.34026 0.27121,0 1.45658,2.23967 2.63417,4.97705 2.8634,6.65615 9.45181,12.50434 18.76126,16.65341 10.70726,4.77204 12.46344,5.73744 12.38475,6.80807 -0.038,0.51619 -3.89943,2.58922 -8.58108,4.60673 -11.82444,5.09561 -17.58263,9.46205 -20.69672,15.69434 l -2.55173,5.10682 -7.06711,-4.67321 z"
         id="path4227"
         inkscape:connector-curvature="0" />
      <path
         style="fill:#fd2134"
         d="m 315,466.93361 c -1.57759,-1.57759 -2.09815,-6.89239 -0.96444,-9.84678 0.33384,-0.86999 1.4107,-1.58179 2.39301,-1.58179 2.11121,0 3,1.92572 3,6.5 0,6.18764 -1.50007,7.85707 -4.42857,4.92857 z m -11.07997,-11.92857 c -0.49235,-3.3 -0.91684,-7.575 -0.94332,-9.5 -0.0442,-3.21152 -0.2954,-3.5 -3.04814,-3.5 -2.747,0 -3.0066,0.29517 -3.07827,3.5 -0.1,4.47036 -1.41004,9.12526 -2.3966,8.51553 -0.41883,-0.25885 -1.07476,-2.83199 -1.45761,-5.71809 -1.07514,-8.1048 -3.73399,-9.81413 -8.92022,-5.73465 l -2.62241,2.0628 -14.59789,-9.72523 c -10.2946,-6.85834 -14.18343,-9.95716 -13.19195,-10.51202 0.77326,-0.43274 4.72795,-1.47946 8.7882,-2.32605 4.06025,-0.84659 8.02775,-2.18472 8.81667,-2.97363 0.78891,-0.78892 1.80338,-3.76866 2.25438,-6.62165 0.451,-2.85299 1.54928,-6.30029 2.44063,-7.66066 4.90379,-7.48413 20.88933,-6.77083 30.38341,1.35575 2.8124,2.40731 5.31258,5.89496 7.13051,9.94677 1.53974,3.43179 3.639,6.68889 4.66502,7.238 1.33668,0.71537 6.03547,0.22162 16.57582,-1.74179 8.09067,-1.50709 14.71031,-2.47211 14.71031,-2.14448 0,0.50487 -3.71514,6.715 -20.28032,33.90007 l -2.04782,3.36066 -1.49512,-2.86066 c -2.4305,-4.65039 -4.04813,-5.34767 -11.48157,-4.94916 -3.74265,0.20065 -7.10776,0.66775 -7.47802,1.03801 -0.37026,0.37026 -0.93359,3.00808 -1.25186,5.86184 l -0.57865,5.18864 -0.89518,-6 z m 69.50854,-37.96789 c -2.475,-1.88238 -6.75,-5.24799 -9.5,-7.47914 -13.30001,-10.79063 -19.90583,-16.06973 -27.40548,-21.90132 l -8.16422,-6.34835 3.496,-2.65165 c 5.35241,-4.0597 7.14727,-8.83174 6.7245,-17.8786 -0.10433,-2.2326 -0.9191,-3.73036 -2.64416,-4.86066 -2.32104,-1.5208 -3.44334,-1.4902 -16.23843,0.44277 -8.99434,1.35879 -14.11803,2.58655 -14.82415,3.55223 -0.90136,1.23268 -2.30333,0.49141 -8.51158,-4.50031 -4.08786,-3.28684 -9.85476,-7.87305 -12.81533,-10.19157 -2.96056,-2.31853 -7.01056,-5.60931 -9,-7.31284 -1.98943,-1.70353 -8.15088,-6.65353 -13.6921,-11 -5.54123,-4.34647 -19.49123,-15.44343 -31,-24.65991 -11.50878,-9.21647 -22.27505,-17.82703 -23.92505,-19.13457 -1.65,-1.30754 -2.62526,-2.76678 -2.16726,-3.24277 0.45801,-0.47598 25.46692,-1.0168 55.57535,-1.20182 59.51727,-0.36573 58.00878,-0.48805 64.8209,5.25608 4.87599,4.11154 8.26634,15.72399 8.28632,28.38194 0.008,5.33411 0.34592,10.18394 0.75,10.77741 0.40408,0.59346 6.8924,1.56736 14.41849,2.16421 16.13209,1.27935 23.87254,4.02728 28.54411,10.13341 l 2.77209,3.62335 0.28433,37.72787 c 0.15637,20.75033 -0.0686,39.07762 -0.5,40.72731 l -0.78433,2.99944 -4.5,-3.42251 z m -140.6379,-5.34129 c -14.28514,-9.44537 -18.55668,-12.5343 -19.02663,-13.75898 -0.74812,-1.94956 1.63967,-5.8199 13.18689,-21.3745 l 10.72175,-14.44266 1.75886,4.63354 c 0.96737,2.54844 2.7429,5.89764 3.94563,7.44265 3.21512,4.13015 11.93335,9.70705 19.9838,12.7833 3.88718,1.48537 7.0676,3.12733 7.0676,3.64879 0,0.52146 -2.1375,1.86065 -4.75,2.97597 -14.14849,6.04023 -19.92818,10.44188 -23.45522,17.86285 l -2.33831,4.91985 -7.09437,-4.69081 z"
         id="path4225"
         inkscape:connector-curvature="0" />
      <path
         style="fill:#fd2527"
         d="m 315,466.93361 c -1.57759,-1.57759 -2.09815,-6.89239 -0.96444,-9.84678 0.33384,-0.86999 1.4107,-1.58179 2.39301,-1.58179 2.11121,0 3,1.92572 3,6.5 0,6.18764 -1.50007,7.85707 -4.42857,4.92857 z m -11.07997,-11.92857 c -0.49235,-3.3 -0.91684,-7.575 -0.94332,-9.5 -0.0442,-3.21152 -0.2954,-3.5 -3.04814,-3.5 -2.747,0 -3.0066,0.29517 -3.07827,3.5 -0.1,4.47036 -1.41004,9.12526 -2.3966,8.51553 -0.41883,-0.25885 -1.07476,-2.83199 -1.45761,-5.71809 -1.07514,-8.1048 -3.73399,-9.81413 -8.92022,-5.73465 l -2.62241,2.0628 -14.59789,-9.72523 c -10.2946,-6.85834 -14.18343,-9.95716 -13.19195,-10.51202 0.77326,-0.43274 4.72795,-1.47946 8.7882,-2.32605 4.06025,-0.84659 8.02775,-2.18472 8.81667,-2.97363 0.78891,-0.78892 1.80338,-3.76866 2.25438,-6.62165 0.451,-2.85299 1.54928,-6.30029 2.44063,-7.66066 4.90379,-7.48413 20.88933,-6.77083 30.38341,1.35575 2.8124,2.40731 5.31258,5.89496 7.13051,9.94677 1.53974,3.43179 3.639,6.68889 4.66502,7.238 1.33668,0.71537 6.03547,0.22162 16.57582,-1.74179 8.09067,-1.50709 14.71031,-2.47211 14.71031,-2.14448 0,0.50487 -3.71514,6.715 -20.28032,33.90007 l -2.04782,3.36066 -1.49512,-2.86066 c -2.4305,-4.65039 -4.04813,-5.34767 -11.48157,-4.94916 -3.74265,0.20065 -7.10776,0.66775 -7.47802,1.03801 -0.37026,0.37026 -0.93359,3.00808 -1.25186,5.86184 l -0.57865,5.18864 -0.89518,-6 z m -71.12936,-43.30918 c -14.28514,-9.44537 -18.55668,-12.5343 -19.02663,-13.75898 -0.74812,-1.94956 1.63967,-5.8199 13.18689,-21.3745 l 10.72175,-14.44266 1.75886,4.63354 c 0.96737,2.54844 2.7429,5.89764 3.94563,7.44265 3.21512,4.13015 11.93335,9.70705 19.9838,12.7833 3.88718,1.48537 7.0676,3.12733 7.0676,3.64879 0,0.52146 -2.1375,1.86065 -4.75,2.97597 -14.14849,6.04023 -19.92818,10.44188 -23.45522,17.86285 l -2.33831,4.91985 -7.09437,-4.69081 z m 138.1379,-23.29112 c -3.3,-2.73484 -8.475,-6.84506 -11.5,-9.13382 -13.71017,-10.37331 -19.81153,-16.07355 -20.41056,-19.0687 -0.88354,-4.41768 -2.38341,-5.69718 -6.67842,-5.69718 -3.32952,0 -5.20023,-1.10437 -13.97486,-8.25 -5.57192,-4.5375 -11.37614,-9.15 -12.89827,-10.25 -1.52214,-1.1 -7.16662,-5.6 -12.54329,-10 -5.37667,-4.4 -11.85001,-9.53969 -14.38518,-11.42154 -2.53518,-1.88185 -7.53442,-5.86513 -11.10942,-8.85173 -11.68631,-9.7629 -12.77813,-10.64481 -22.56509,-18.22673 l -9.68121,-7.5 5.87315,-0.64147 c 3.23023,-0.3528 21.0751,-0.6903 39.65527,-0.75 36.438,-0.11706 37.10629,-0.0354 43.44687,5.31115 4.87599,4.11154 8.26634,15.724 8.28632,28.38194 0.008,5.33411 0.34592,10.18394 0.75,10.77741 0.40408,0.59346 6.8924,1.56736 14.41849,2.16421 16.13209,1.27935 23.87254,4.02728 28.54411,10.13341 l 2.77209,3.62335 0.32725,20 c 0.3247,19.84422 -0.38572,34.55887 -1.66257,34.43608 -0.36557,-0.0352 -3.36468,-2.30153 -6.66468,-5.03638 z"
         id="path4223"
         inkscape:connector-curvature="0" />
      <path
         style="fill:#e71743"
         d="m 315,466.93361 c -1.57759,-1.57759 -2.09815,-6.89239 -0.96444,-9.84678 0.33384,-0.86999 1.4107,-1.58179 2.39301,-1.58179 2.11121,0 3,1.92572 3,6.5 0,6.18764 -1.50007,7.85707 -4.42857,4.92857 z m -11.07997,-11.92857 c -0.49235,-3.3 -0.91684,-7.575 -0.94332,-9.5 -0.0442,-3.21152 -0.2954,-3.5 -3.04814,-3.5 -2.747,0 -3.0066,0.29517 -3.07827,3.5 -0.1,4.47036 -1.41004,9.12526 -2.3966,8.51553 -0.41883,-0.25885 -1.07476,-2.83199 -1.45761,-5.71809 -1.07514,-8.1048 -3.73399,-9.81413 -8.92022,-5.73465 l -2.62241,2.0628 -14.59789,-9.72523 c -10.2946,-6.85834 -14.18343,-9.95716 -13.19195,-10.51202 0.77326,-0.43274 4.72795,-1.47946 8.7882,-2.32605 4.06025,-0.84659 8.02775,-2.18472 8.81667,-2.97363 0.78891,-0.78892 1.80338,-3.76866 2.25438,-6.62165 0.451,-2.85299 1.54928,-6.30029 2.44063,-7.66066 4.90379,-7.48413 20.88933,-6.77083 30.38341,1.35575 2.8124,2.40731 5.31258,5.89496 7.13051,9.94677 1.53974,3.43179 3.639,6.68889 4.66502,7.238 1.33668,0.71537 6.03547,0.22162 16.57582,-1.74179 8.09067,-1.50709 14.71031,-2.47211 14.71031,-2.14448 0,0.50487 -3.71514,6.715 -20.28032,33.90007 l -2.04782,3.36066 -1.49512,-2.86066 c -2.4305,-4.65039 -4.04813,-5.34767 -11.48157,-4.94916 -3.74265,0.20065 -7.10776,0.66775 -7.47802,1.03801 -0.37026,0.37026 -0.93359,3.00808 -1.25186,5.86184 l -0.57865,5.18864 -0.89518,-6 z m -71.12936,-43.30918 c -14.28514,-9.44537 -18.55668,-12.5343 -19.02663,-13.75898 -0.74812,-1.94956 1.63967,-5.8199 13.18689,-21.3745 l 10.72175,-14.44266 1.75886,4.63354 c 0.96737,2.54844 2.7429,5.89764 3.94563,7.44265 3.21512,4.13015 11.93335,9.70705 19.9838,12.7833 3.88718,1.48537 7.0676,3.12733 7.0676,3.64879 0,0.52146 -2.1375,1.86065 -4.75,2.97597 -14.14849,6.04023 -19.92818,10.44188 -23.45522,17.86285 l -2.33831,4.91985 -7.09437,-4.69081 z m 133.1379,-58.85339 c -6.6,-5.23351 -14.15768,-11.24254 -16.79485,-13.35342 -2.63716,-2.11087 -7.68623,-5.29088 -11.22014,-7.06667 -4.5068,-2.26467 -7.21902,-4.42811 -9.08358,-7.24565 -2.56518,-3.87625 -5.72786,-6.95789 -11.46548,-11.17169 -1.4978,-1.1 -9.35681,-7.4 -17.46448,-14 -8.10768,-6.6 -17.16483,-13.86079 -20.127,-16.13509 -4.098,-3.14636 -5.00261,-4.28212 -3.78333,-4.75 0.88134,-0.3382 9.90508,-0.61491 20.05277,-0.61491 19.86005,0 22.22938,0.45673 28.11508,5.41968 4.87599,4.11154 8.26634,15.724 8.28632,28.38194 0.008,5.33411 0.34592,10.18394 0.75,10.77741 0.40408,0.59346 6.8924,1.56736 14.41849,2.16421 15.74718,1.24882 23.90714,4.06507 28.24076,9.74674 3.3663,4.41345 3.69896,6.49375 2.82822,17.68646 l -0.75278,9.67645 -12,-9.51546 z"
         id="path4221"
         inkscape:connector-curvature="0" />
      <path
         style="fill:#fb291a"
         d="m 300.93683,432.94822 c -14.29545,-9.60888 -26.26239,-18.24225 -26.59319,-19.18528 -0.77282,-2.20316 0.49561,-7.84254 2.23601,-9.94115 1.96456,-2.36891 7.21474,-4.31675 11.6353,-4.31675 11.03146,0 20.64693,6.32171 25.26247,16.60887 1.53974,3.43179 3.63274,6.68554 4.65112,7.23056 1.31165,0.70197 5.74247,0.27389 15.19449,-1.46802 7.3386,-1.35242 13.75979,-2.31999 14.26931,-2.15015 1.47231,0.49077 -18.31658,30.85274 -20.03246,30.73567 -0.34722,-0.0237 -12.32759,-7.90488 -26.62305,-17.51375 z m -62.23309,-41.75961 c -6.72365,-4.50096 -12.23615,-8.70837 -12.25,-9.34979 -0.0275,-1.2736 9.53706,-15.94519 10.97361,-16.83302 0.4877,-0.30142 1.74983,1.37511 2.80473,3.72561 3.50955,7.81984 10.79526,13.53485 23.3903,18.34769 3.79628,1.45064 6.73722,3.13285 6.53542,3.73824 -0.30967,0.92903 -17.23922,8.69328 -18.72923,8.58963 -0.275,-0.0191 -6.00117,-3.71739 -12.72483,-8.21836 z m 127.22483,-38.34614 c -6.6,-5.23351 -14.15768,-11.24254 -16.79485,-13.35342 -2.63716,-2.11087 -7.68623,-5.29088 -11.22014,-7.06667 -4.5068,-2.26467 -7.21902,-4.42811 -9.08358,-7.24565 -2.56518,-3.87625 -5.72786,-6.95789 -11.46548,-11.17169 -1.4978,-1.1 -9.35681,-7.4 -17.46448,-14 -8.10768,-6.6 -17.16483,-13.86079 -20.127,-16.13509 -4.098,-3.14636 -5.00261,-4.28212 -3.78333,-4.75 0.88134,-0.3382 9.90508,-0.61491 20.05277,-0.61491 19.86005,0 22.22938,0.45673 28.11508,5.41968 4.87599,4.11154 8.26634,15.724 8.28632,28.38194 0.008,5.33411 0.34592,10.18394 0.75,10.77741 0.40408,0.59346 6.8924,1.56736 14.41849,2.16421 15.74718,1.24882 23.90714,4.06507 28.24076,9.74674 3.3663,4.41345 3.69896,6.49375 2.82822,17.68646 l -0.75278,9.67645 -12,-9.51546 z"
         id="path4219"
         inkscape:connector-curvature="0" />
      <path
         style="fill:#dc1640"
         d="m 300.93683,432.94822 c -14.29545,-9.60888 -26.26239,-18.24225 -26.59319,-19.18528 -0.77282,-2.20316 0.49561,-7.84254 2.23601,-9.94115 1.96456,-2.36891 7.21474,-4.31675 11.6353,-4.31675 11.03146,0 20.64693,6.32171 25.26247,16.60887 1.53974,3.43179 3.63274,6.68554 4.65112,7.23056 1.31165,0.70197 5.74247,0.27389 15.19449,-1.46802 7.3386,-1.35242 13.75979,-2.31999 14.26931,-2.15015 1.47231,0.49077 -18.31658,30.85274 -20.03246,30.73567 -0.34722,-0.0237 -12.32759,-7.90488 -26.62305,-17.51375 z m -62.23309,-41.75961 c -6.72365,-4.50096 -12.23615,-8.70837 -12.25,-9.34979 -0.0275,-1.2736 9.53706,-15.94519 10.97361,-16.83302 0.4877,-0.30142 1.74983,1.37511 2.80473,3.72561 3.50955,7.81984 10.79526,13.53485 23.3903,18.34769 3.79628,1.45064 6.73722,3.13285 6.53542,3.73824 -0.30967,0.92903 -17.23922,8.69328 -18.72923,8.58963 -0.275,-0.0191 -6.00117,-3.71739 -12.72483,-8.21836 z m 121.91823,-60.75065 c -2.36863,-0.46638 -8.81687,-1.25638 -14.32942,-1.75558 -6.99662,-0.63358 -10.51645,-1.40124 -11.65769,-2.54248 -1.51315,-1.51315 -1.3025,-1.63294 2.82942,-1.60906 15.06521,0.0871 34.27717,3.89253 30.79522,6.09985 -1.52165,0.96463 -1.79444,0.95775 -7.63753,-0.19273 z m -29.03551,-26.93292 c 0,-1.375 0.22698,-1.9375 0.50439,-1.25 0.27741,0.6875 0.27741,1.8125 0,2.5 -0.27741,0.6875 -0.50439,0.125 -0.50439,-1.25 z m -1.07894,-4.58333 c 0.048,-1.16495 0.28494,-1.4019 0.60416,-0.60417 0.28887,0.72188 0.25335,1.58438 -0.0789,1.91667 -0.3323,0.33229 -0.56864,-0.25834 -0.52522,-1.3125 z"
         id="path4217"
         inkscape:connector-curvature="0" />
      <path
         style="fill:#d5153d"
         d="m 305.42857,422.63058 c -14.575,-9.82133 -26.5,-18.4666 -26.5,-19.21172 0,-1.9869 4.40808,-3.88219 9.0685,-3.89908 11.52194,-0.0417 21.8128,6.84049 25.54856,17.08616 1.20121,3.29443 3.01273,6.43338 4.0256,6.97545 1.30423,0.698 5.8122,0.22765 15.44952,-1.61199 7.48437,-1.42867 13.86694,-2.33858 14.18349,-2.02202 0.83021,0.83021 -12.71566,20.55936 -14.10871,20.54891 -0.64183,-0.005 -13.09196,-8.04439 -27.66696,-17.86571 z m -57.5,-38.74325 c -7.7,-5.26253 -14.15359,-9.71749 -14.34131,-9.89991 -0.60567,-0.58855 0.82284,-3.91555 2.76035,-6.42887 l 1.88599,-2.44649 2.19383,4.66717 c 3.7372,7.95055 12.62574,14.2723 26.25114,18.67045 2.0625,0.66575 3.75,1.58154 3.75,2.03509 0,0.845 -5.42174,3.03997 -7.39922,2.99554 -0.60543,-0.0136 -7.40078,-4.33044 -15.10078,-9.59298 z m 112.6934,-53.44937 c -2.36863,-0.46638 -8.81687,-1.25638 -14.32942,-1.75558 -6.99662,-0.63358 -10.51645,-1.40124 -11.65769,-2.54248 -1.51315,-1.51315 -1.3025,-1.63294 2.82942,-1.60906 15.06521,0.0871 34.27717,3.89253 30.79522,6.09985 -1.52165,0.96463 -1.79444,0.95775 -7.63753,-0.19273 z m -29.03551,-26.93292 c 0,-1.375 0.22698,-1.9375 0.50439,-1.25 0.27741,0.6875 0.27741,1.8125 0,2.5 -0.27741,0.6875 -0.50439,0.125 -0.50439,-1.25 z m -1.07894,-4.58333 c 0.048,-1.16495 0.28494,-1.4019 0.60416,-0.60417 0.28887,0.72188 0.25335,1.58438 -0.0789,1.91667 -0.3323,0.33229 -0.56864,-0.25834 -0.52522,-1.3125 z"
         id="path4215"
         inkscape:connector-curvature="0" />
      <path
         style="fill:#b6281d"
         d="m 360.62197,330.43796 c -2.36863,-0.46638 -8.8098,-1.25574 -14.31371,-1.75415 -9.24479,-0.83717 -13.2372,-2.15459 -11.57294,-3.81885 0.37037,-0.37037 6.41925,-0.19269 13.44194,0.39485 12.97708,1.08571 22.72813,3.69357 20.08224,5.37088 -1.52165,0.96463 -1.79444,0.95775 -7.63753,-0.19273 z m -29.03551,-26.93292 c 0,-1.375 0.22698,-1.9375 0.50439,-1.25 0.27741,0.6875 0.27741,1.8125 0,2.5 -0.27741,0.6875 -0.50439,0.125 -0.50439,-1.25 z m -1.07894,-4.58333 c 0.048,-1.16495 0.28494,-1.4019 0.60416,-0.60417 0.28887,0.72188 0.25335,1.58438 -0.0789,1.91667 -0.3323,0.33229 -0.56864,-0.25834 -0.52522,-1.3125 z"
         id="path4213"
         inkscape:connector-curvature="0" />
    </g>
  </g>
</svg>
