<?xml version="1.0" encoding="UTF-8" standalone="no"?>
<!-- Created with Inkscape (http://www.inkscape.org/) -->

<svg
   xmlns:dc="http://purl.org/dc/elements/1.1/"
   xmlns:cc="http://creativecommons.org/ns#"
   xmlns:rdf="http://www.w3.org/1999/02/22-rdf-syntax-ns#"
   xmlns:svg="http://www.w3.org/2000/svg"
   xmlns="http://www.w3.org/2000/svg"
   xmlns:sodipodi="http://sodipodi.sourceforge.net/DTD/sodipodi-0.dtd"
   xmlns:inkscape="http://www.inkscape.org/namespaces/inkscape"
   width="128"
   height="128"
   viewBox="0 0 128 128"
   id="svg2"
   version="1.1"
   inkscape:version="0.91 r13725"
   sodipodi:docname="express.svg">
  <defs
     id="defs4" />
  <sodipodi:namedview
     id="base"
     pagecolor="#ffffff"
     bordercolor="#666666"
     borderopacity="1.0"
     inkscape:pageopacity="0.0"
     inkscape:pageshadow="2"
     inkscape:zoom="1.979899"
     inkscape:cx="69.185136"
     inkscape:cy="133.67911"
     inkscape:document-units="px"
     inkscape:current-layer="layer1"
     showgrid="false"
     units="px"
     inkscape:window-width="1920"
     inkscape:window-height="1017"
     inkscape:window-x="-8"
     inkscape:window-y="-8"
     inkscape:window-maximized="1" />
  <metadata
     id="metadata7">
    <rdf:RDF>
      <cc:Work
         rdf:about="">
        <dc:format>image/svg+xml</dc:format>
        <dc:type
           rdf:resource="http://purl.org/dc/dcmitype/StillImage" />
        <dc:title></dc:title>
      </cc:Work>
    </rdf:RDF>
  </metadata>
  <g
     inkscape:label="Capa 1"
     inkscape:groupmode="layer"
     id="layer1"
     transform="translate(0,-924.36216)">
    <g
       transform="matrix(1,0,0,1.7685468,-0.18840634,-762.84856)"
       id="layer1-1"
       inkscape:label="Capa 1">
      <g
         inkscape:label="Capa 1"
         id="layer1-0"
         transform="matrix(0.98809577,0,0,0.91556176,0.93688276,80.387908)">
        <g
           id="g4138"
           transform="matrix(0.33511645,0,0,0.42534874,-9.8801431,957.74464)">
          <path
             id="path4140"
             d="m 43.02,42.01 c 9.94,-7.66 25.65,-6.5 34.09,2.89 6.15,6.62 7.92,15.98 7.97,24.74 -17.24,0.01 -34.48,-0.02 -51.73,0.02 0.38,9.68 2.78,20.92 11.82,26.21 10.75,5.87 26.81,3.71 33.36,-7.41 2.31,-3.38 1.88,-8.37 5.69,-10.68 -0.45,6.03 -2.68,12.09 -7.13,16.31 -8.04,7.8 -20.91,8.98 -31.02,4.99 C 36.35,94.95 31.98,84.02 31.27,74.11 30.05,62.46 33.34,49.39 43.02,42.01 m -0.53,3.51 c -5.98,5.57 -8.4,13.79 -9.15,21.7 16.44,0.02 32.89,0.03 49.33,0 C 82.33,59.86 80.58,52.13 75.45,46.56 67.23,37.33 51.31,36.92 42.49,45.52 Z"
             inkscape:connector-curvature="0"
             style="opacity:1;fill:#3b4854" />
          <path
             id="path4142"
             d="m 159.76,41.73 c 10.78,-8.15 28.23,-5.75 35.56,5.92 8.1,12.81 7.87,30.63 -0.41,43.31 -8.28,12.66 -28.6,13.79 -38.72,2.83 -3.01,-3.12 -4.64,-7.21 -6.19,-11.18 0,12.84 0,25.68 0,38.52 -0.6,-0.02 -1.8,-0.04 -2.4,-0.05 -0.01,-27.55 0.01,-55.1 -0.02,-82.65 0.59,-0.07 1.77,-0.2 2.36,-0.26 0.1,5.89 0.05,11.78 0.06,17.67 2.05,-5.39 4.98,-10.68 9.76,-14.11 m 8.58,-1.46 c -20.1,6.37 -23.26,34.97 -11.96,50.33 8.7,11.24 28.45,11.35 36.42,-0.8 8.35,-12.7 8.27,-31.27 -1.36,-43.27 -5.51,-6.56 -15.06,-8.54 -23.1,-6.26 z"
             inkscape:connector-curvature="0"
             style="opacity:1;fill:#3b4854" />
          <path
             id="path4144"
             d="m 215.99,53.79 c 2.46,-11.08 13.59,-17.59 24.48,-17 0,0.6 0.01,1.8 0.01,2.4 -11.9,-1.08 -22.68,8.29 -23.91,20.03 -1.24,13.54 -0.26,27.19 -0.57,40.78 -0.6,0 -1.8,0 -2.4,0 -0.01,-20.53 0.01,-41.05 -0.02,-61.57 0.59,-0.07 1.77,-0.2 2.36,-0.26 0.09,5.2 0.06,10.41 0.05,15.62 z"
             inkscape:connector-curvature="0"
             style="opacity:1;fill:#3b4854" />
          <path
             id="path4146"
             d="m 255.02,42.01 c 9.94,-7.66 25.65,-6.5 34.09,2.89 6.15,6.62 7.92,15.98 7.97,24.74 -17.24,0.01 -34.48,-0.02 -51.73,0.02 0.38,9.67 2.78,20.92 11.81,26.2 10.75,5.88 26.82,3.73 33.36,-7.4 2.32,-3.39 1.89,-8.37 5.7,-10.68 -0.45,6.26 -2.89,12.56 -7.64,16.8 -7.89,7.21 -20.01,8.29 -29.8,4.8 -9.82,-3.74 -14.56,-14.47 -15.42,-24.32 -1.45,-11.93 1.71,-25.46 11.66,-33.05 m -0.53,3.51 c -5.98,5.57 -8.4,13.8 -9.15,21.7 16.44,0.02 32.89,0.03 49.33,0 -0.34,-7.36 -2.09,-15.09 -7.22,-20.66 -8.22,-9.23 -24.15,-9.64 -32.96,-1.04 z"
             inkscape:connector-curvature="0"
             style="opacity:1;fill:#3b4854" />
          <path
             id="path4148"
             d="m 314.01,41.04 c 7.79,-5.26 18.34,-5.17 26.9,-1.92 7.35,2.68 11.3,11.09 9.71,18.58 -3.19,-4.1 -2.18,-10.33 -6.62,-13.7 -7.21,-5.86 -18.08,-5.91 -26.36,-2.4 -7.92,3.13 -9.99,15.53 -2.6,20.29 10.22,5.46 22.71,5.11 32.55,11.44 8.36,5.93 6.22,20.17 -2.65,24.57 -9.13,4.73 -20.71,4.46 -29.91,0.09 -7.24,-3.67 -9.74,-12.38 -9.3,-19.97 3.28,1.7 2.29,5.88 3.48,8.84 1.81,7.04 9,11.04 15.82,11.78 7.58,0.83 16.43,0.23 22.06,-5.56 5.2,-5.22 4.24,-15.2 -2.44,-18.75 -9.96,-5.54 -22.33,-4.8 -32.03,-10.99 -6.87,-5.44 -5.83,-17.55 1.39,-22.3 z"
             inkscape:connector-curvature="0"
             style="opacity:1;fill:#3b4854" />
          <path
             id="path4150"
             d="m 372.01,41.04 c 7.79,-5.26 18.35,-5.17 26.91,-1.92 7.34,2.68 11.29,11.09 9.7,18.58 -3.19,-4.1 -2.18,-10.33 -6.62,-13.7 -7.22,-5.87 -18.09,-5.9 -26.37,-2.4 -7.91,3.15 -9.97,15.53 -2.59,20.29 10.21,5.46 22.71,5.11 32.55,11.44 8.37,5.93 6.21,20.17 -2.66,24.58 -9.12,4.71 -20.69,4.45 -29.89,0.08 -7.25,-3.67 -9.75,-12.38 -9.31,-19.97 3.28,1.7 2.29,5.88 3.48,8.84 1.81,7.04 8.99,11.04 15.82,11.78 7.58,0.83 16.43,0.23 22.06,-5.56 5.2,-5.21 4.24,-15.19 -2.44,-18.74 -9.96,-5.55 -22.34,-4.81 -32.03,-11 -6.87,-5.44 -5.83,-17.56 1.39,-22.3 z"
             inkscape:connector-curvature="0"
             style="opacity:1;fill:#3b4854" />
          <path
             id="path4152"
             d="m 90.48,38.32 c 0.79,0.01 2.37,0.02 3.17,0.03 6.86,9.32 13.79,18.61 20.71,27.9 7.07,-9.26 14.14,-18.53 21.13,-27.85 0.75,-0.03 2.25,-0.1 3,-0.13 -7.47,9.97 -15.06,19.85 -22.56,29.8 8.22,10.68 16.51,21.29 24.72,31.98 -0.8,-0.05 -2.4,-0.14 -3.2,-0.19 -7.6,-10.06 -15.41,-19.97 -23.08,-29.97 -7.21,9.3 -14.34,18.66 -21.51,28 -1.03,1.61 -2.94,2.06 -4.61,2.68 7.77,-11.16 16.5,-21.61 24.66,-32.49 C 105.44,58.16 97.95,48.25 90.48,38.32 Z"
             inkscape:connector-curvature="0"
             style="opacity:1;fill:#3b4854" />
        </g>
      </g>
    </g>
  </g>
</svg>
