<?xml version="1.0" encoding="UTF-8" standalone="no"?>
<!-- Created with Inkscape (http://www.inkscape.org/) -->

<svg
   xmlns:dc="http://purl.org/dc/elements/1.1/"
   xmlns:cc="http://creativecommons.org/ns#"
   xmlns:rdf="http://www.w3.org/1999/02/22-rdf-syntax-ns#"
   xmlns:svg="http://www.w3.org/2000/svg"
   xmlns="http://www.w3.org/2000/svg"
   xmlns:sodipodi="http://sodipodi.sourceforge.net/DTD/sodipodi-0.dtd"
   xmlns:inkscape="http://www.inkscape.org/namespaces/inkscape"
   width="128"
   height="128"
   viewBox="0 0 128 128"
   id="svg2"
   version="1.1"
   inkscape:version="0.91 r13725"
   sodipodi:docname="maven.svg">
  <defs
     id="defs4" />
  <sodipodi:namedview
     id="base"
     pagecolor="#ffffff"
     bordercolor="#666666"
     borderopacity="1.0"
     inkscape:pageopacity="0.0"
     inkscape:pageshadow="2"
     inkscape:zoom="1.4"
     inkscape:cx="-59.854463"
     inkscape:cy="228.61585"
     inkscape:document-units="px"
     inkscape:current-layer="layer1"
     showgrid="false"
     units="px"
     inkscape:window-width="1920"
     inkscape:window-height="1017"
     inkscape:window-x="-8"
     inkscape:window-y="-8"
     inkscape:window-maximized="1" />
  <metadata
     id="metadata7">
    <rdf:RDF>
      <cc:Work
         rdf:about="">
        <dc:format>image/svg+xml</dc:format>
        <dc:type
           rdf:resource="http://purl.org/dc/dcmitype/StillImage" />
        <dc:title></dc:title>
      </cc:Work>
    </rdf:RDF>
  </metadata>
  <g
     inkscape:label="Capa 1"
     inkscape:groupmode="layer"
     id="layer1"
     transform="translate(0,-924.36216)">
    <g
       id="g4154"
       transform="matrix(0.37369846,0,0,0.84163435,-34.04607,936.09221)">
      <path
         id="path4138"
         d="m 121.4,36.17 c 4.97,-5.59 11.68,-10.79 19.6,-10.12 6.63,0.03 11.88,5.26 13.57,11.4 6.07,-8.15 16.93,-14.31 27.1,-10.18 8.03,3.2 9.21,13.19 8.13,20.68 -2.14,13.71 -4.83,27.34 -7.19,41.02 -5.88,0.06 -11.76,0.03 -17.64,0.03 2.23,-12.7 4.58,-25.38 6.82,-38.07 0.41,-3.33 0.81,-8.27 -3.04,-9.72 -6.55,-1.94 -11.92,4.01 -13.85,9.64 -3.92,12.38 -4.94,25.47 -7.64,38.14 -5.86,0.02 -11.72,0.03 -17.58,-0.02 2.11,-14.31 5.95,-28.43 6.84,-42.88 0.44,-4.46 -4.65,-6.24 -8.21,-4.86 -6.25,2.03 -8.89,8.91 -10.34,14.74 -2.23,10.97 -3.92,22.04 -6.04,33.03 -5.87,0.01 -11.73,0.01 -17.59,-0.01 3.65,-20.5 7.29,-41 10.99,-61.49 5.87,-0.04 11.73,-0.02 17.59,-0.01 -0.49,2.89 -1.02,5.78 -1.52,8.68 z"
         inkscape:connector-curvature="0"
         style="opacity:1;fill:#000000" />
      <path
         id="path4140"
         d="m 337.61,39.58 c 9.27,-2.94 21.38,-3.46 28.5,4.31 5.86,6.48 4.74,15.93 2.81,23.75 -12.13,0.05 -24.27,-0.08 -36.41,0.06 -0.17,4.14 1.32,8.96 5.8,10.13 9.3,2.38 18.8,-1.21 27.23,-4.96 -0.73,3.99 -1.54,7.97 -2.38,11.94 -10.45,3.48 -21.93,5.79 -32.79,2.91 -6.26,-1.58 -11.66,-6.61 -12.85,-13.08 -2.45,-14.37 5.85,-30.46 20.09,-35.06 m -2.93,18.37 c 6.82,0.1 13.65,0.06 20.48,0.02 0.3,-3.64 -0.45,-8.28 -4.5,-9.49 -6.97,-2.24 -13.83,2.99 -15.98,9.47 z"
         inkscape:connector-curvature="0"
         style="opacity:1;fill:#000000" />
      <path
         id="path4142"
         d="m 400.36,46.09 c 6.49,-6.3 16.39,-10.55 25.2,-6.63 6.03,2.75 7.03,10.32 6.02,16.16 -1.94,10.82 -4.26,21.57 -6.41,32.36 -5.18,0.04 -10.36,0.04 -15.53,-0.01 1.84,-10.18 4.3,-20.25 5.89,-30.48 0.66,-2.94 -0.23,-6.82 -3.66,-7.44 -6.81,-1.55 -12.53,4.47 -14.18,10.55 -2.4,9.02 -3.73,18.29 -5.79,27.4 -5.15,0.01 -10.29,0.02 -15.43,-0.02 3.26,-16.27 6.51,-32.53 9.8,-48.79 5.15,-0.04 10.3,-0.04 15.45,0 -0.45,2.3 -0.92,4.6 -1.36,6.9 z"
         inkscape:connector-curvature="0"
         style="opacity:1;fill:#000000" />
      <path
         id="path4144"
         d="m 263.2,39.01 c 5.17,-0.03 10.34,-0.04 15.5,0.03 1.77,11.23 3.42,22.47 5.31,33.68 6.34,-11.19 12.47,-22.51 18.81,-33.7 5.15,-0.03 10.3,-0.04 15.45,0 -9.51,16.36 -19.26,32.58 -28.81,48.92 -5.7,0.11 -11.4,0.09 -17.1,0.02 -3.01,-16.33 -6.14,-32.63 -9.16,-48.95 z"
         inkscape:connector-curvature="0"
         style="opacity:1;fill:#000000" />
      <path
         id="path4146"
         d="m 209.63,40.16 c 8.93,-2.04 18.19,-3.17 27.33,-2.1 4.68,0.63 9.87,2.24 12.41,6.56 2.61,4.54 2.04,10.05 1.18,15 -1.86,9.38 -3.75,18.75 -5.66,28.12 -5.2,0 -10.4,0 -15.6,-0.01 0.47,-2.34 0.94,-4.69 1.42,-7.04 -6.92,8.09 -21.1,12.04 -29.43,4.01 -5.94,-7.33 -1.95,-19.22 5.65,-23.84 8.7,-5.08 19.16,-3.97 28.82,-4.18 0.37,-2.79 0.28,-6.45 -2.94,-7.51 -8.43,-2.66 -17.66,-0.6 -25.56,2.88 0.81,-3.96 1.6,-7.93 2.38,-11.89 m 8.16,27.59 c -3.98,2.01 -4.97,9.48 0.26,10.55 7.77,1.97 14.75,-4.89 15.73,-12.24 -5.31,0.13 -11.11,-0.96 -15.99,1.69 z"
         inkscape:connector-curvature="0"
         style="opacity:1;fill:#ff6804" />
    </g>
  </g>
</svg>
