<?xml version="1.0" encoding="UTF-8" standalone="no"?>
<svg
   xmlns:dc="http://purl.org/dc/elements/1.1/"
   xmlns:cc="http://creativecommons.org/ns#"
   xmlns:rdf="http://www.w3.org/1999/02/22-rdf-syntax-ns#"
   xmlns:svg="http://www.w3.org/2000/svg"
   xmlns="http://www.w3.org/2000/svg"
   xmlns:xlink="http://www.w3.org/1999/xlink"
   xmlns:sodipodi="http://sodipodi.sourceforge.net/DTD/sodipodi-0.dtd"
   xmlns:inkscape="http://www.inkscape.org/namespaces/inkscape"
   viewBox="3.5 0 128 128"
   id="svg4136"
   version="1.1"
   inkscape:version="0.91 r13725"
   sodipodi:docname="php.svg"
   width="128"
   height="128">
  <metadata
     id="metadata4149">
    <rdf:RDF>
      <cc:Work
         rdf:about="">
        <dc:format>image/svg+xml</dc:format>
        <dc:type
           rdf:resource="http://purl.org/dc/dcmitype/StillImage" />
        <dc:title></dc:title>
      </cc:Work>
    </rdf:RDF>
  </metadata>
  <defs
     id="defs4147" />
  <sodipodi:namedview
     pagecolor="#ffffff"
     bordercolor="#666666"
     borderopacity="1"
     objecttolerance="10"
     gridtolerance="10"
     guidetolerance="10"
     inkscape:pageopacity="0"
     inkscape:pageshadow="2"
     inkscape:window-width="1920"
     inkscape:window-height="1017"
     id="namedview4145"
     showgrid="false"
     inkscape:zoom="4.9658703"
     inkscape:cx="112.2656"
     inkscape:cy="78.587088"
     inkscape:window-x="-8"
     inkscape:window-y="-8"
     inkscape:window-maximized="1"
     inkscape:current-layer="svg4136" />
  <ellipse
     cx="67.839172"
     cy="60.08247"
     rx="63.43642"
     ry="41.363571"
     style="fill:#6c7eb7;stroke:url(#radialGradient3870);stroke-width:5.5"
     id="ellipse4138" />
  <path
     d="m 22.217087,84.574068 6.951937,-44.084866 16.076355,0 c 6.951937,0.544258 10.427905,4.898318 10.427905,12.517923 0,13.062182 -8.255424,20.681787 -15.641858,20.13753 l -7.820929,0 -1.737985,11.429413 -8.255425,0 z m 11.731394,-19.593276 2.172481,-16.327727 5.648448,0 c 3.041473,0 5.213953,1.632773 5.213953,4.898319 -0.434495,9.252377 -3.910464,10.885149 -7.820929,11.429408 l -5.213953,0 z"
     id="p"
     style="fill-rule:evenodd;stroke:#ffffff;stroke-width:0.9725796;stroke-linejoin:round"
     inkscape:connector-curvature="0" />
  <path
     d="m 53.066308,73.144655 6.951937,-44.084862 8.255426,0 -1.737985,11.429409 7.820929,0 c 6.951941,0.544258 9.558912,4.898318 8.689919,10.340894 l -3.041468,22.314559 -8.689923,0 3.041472,-20.13753 c 0.434496,-2.721287 0.434496,-4.35406 -2.606976,-4.35406 l -6.517442,0 -3.910463,24.49159 -8.255426,0 z"
     style="stroke:#ffffff;stroke-width:0.9725796;stroke-linejoin:round"
     id="path4141"
     inkscape:connector-curvature="0" />
  <use
     transform="translate(58.222472,-1.0996563e-7)"
     xlink:href="#p"
     id="use4143"
     x="0"
     y="0"
     width="100%"
     height="100%" />
</svg>
