<?xml version="1.0" encoding="UTF-8" standalone="no"?>
<!-- Created with Inkscape (http://www.inkscape.org/) -->

<svg
   xmlns:dc="http://purl.org/dc/elements/1.1/"
   xmlns:cc="http://creativecommons.org/ns#"
   xmlns:rdf="http://www.w3.org/1999/02/22-rdf-syntax-ns#"
   xmlns:svg="http://www.w3.org/2000/svg"
   xmlns="http://www.w3.org/2000/svg"
   xmlns:sodipodi="http://sodipodi.sourceforge.net/DTD/sodipodi-0.dtd"
   xmlns:inkscape="http://www.inkscape.org/namespaces/inkscape"
   width="128"
   height="128"
   viewBox="0 0 128 128"
   id="svg2"
   version="1.1"
   inkscape:version="0.91 r13725"
   sodipodi:docname="struts.svg">
  <defs
     id="defs4" />
  <sodipodi:namedview
     id="base"
     pagecolor="#ffffff"
     bordercolor="#666666"
     borderopacity="1.0"
     inkscape:pageopacity="0.0"
     inkscape:pageshadow="2"
     inkscape:zoom="1.4"
     inkscape:cx="-15.178571"
     inkscape:cy="236.68537"
     inkscape:document-units="px"
     inkscape:current-layer="layer1"
     showgrid="false"
     units="px"
     inkscape:window-width="1920"
     inkscape:window-height="1017"
     inkscape:window-x="-8"
     inkscape:window-y="-8"
     inkscape:window-maximized="1" />
  <metadata
     id="metadata7">
    <rdf:RDF>
      <cc:Work
         rdf:about="">
        <dc:format>image/svg+xml</dc:format>
        <dc:type
           rdf:resource="http://purl.org/dc/dcmitype/StillImage" />
        <dc:title></dc:title>
      </cc:Work>
    </rdf:RDF>
  </metadata>
  <g
     inkscape:label="Capa 1"
     inkscape:groupmode="layer"
     id="layer1"
     transform="translate(0,-924.36216)">
    <g
       id="g4214"
       transform="matrix(0.56300902,0,0,0.97941123,-5.1542503,945.01521)">
      <g
         id="g4138">
        <path
           id="path4140"
           d="m 21.75,24.88 c 2.25,-5.13 8.77,-5.81 13.61,-4.72 -5.05,0.35 -11.32,0.85 -13.19,6.53 -0.1,-0.45 -0.31,-1.36 -0.42,-1.81 z"
           inkscape:connector-curvature="0"
           style="opacity:1;fill:#fefefd" />
        <path
           id="path4142"
           d="m 211.93,43.19 c -0.86,-7.33 8.51,-6.9 13.31,-5.86 -4.96,0.49 -11.82,-0.37 -13.31,5.86 z"
           inkscape:connector-curvature="0"
           style="opacity:1;fill:#fefefd" />
        <path
           id="path4144"
           d="m 71.18,37.96 1.15,-0.37 c -0.3,8.75 0.29,18.19 -1.17,26.99 -0.25,-8.85 -0.3,-17.77 0.02,-26.62 z"
           inkscape:connector-curvature="0"
           style="opacity:1;fill:#fefefd" />
        <path
           id="path4146"
           d="m 185.14,37.96 1.02,-0.32 c 0.19,0.16 0.57,0.49 0.76,0.65 -1.91,8.65 0.24,17.69 -1.76,26.29 -0.28,-8.85 -0.25,-17.76 -0.02,-26.62 z"
           inkscape:connector-curvature="0"
           style="opacity:1;fill:#fefefd" />
        <path
           id="path4148"
           d="m 232.82,58.11 c 5.15,10.64 -8.34,23.04 -18.68,17.57 10.51,3.04 21.32,-6.82 18.68,-17.57 z"
           inkscape:connector-curvature="0"
           style="opacity:1;fill:#fefefd" />
      </g>
      <g
         id="g4150">
        <path
           id="path4152"
           d="m 17.55,14.53 c 8.86,-5.96 20.99,-4.35 29.76,0.99 -1.11,2.77 -2.32,5.51 -3.68,8.17 C 40.86,22.54 38.3,20.87 35.36,20.16 30.52,19.07 24,19.75 21.75,24.88 c -2.61,4.56 2.07,8.71 6.07,10.09 4.09,1.87 8.2,3.75 12.05,6.06 9.73,6.76 11.54,23.18 1.69,30.58 -9.06,6.58 -21.45,4.63 -30.4,-1.1 -0.2,-0.17 -0.59,-0.51 -0.79,-0.67 0.84,-2.69 1.94,-5.29 2.98,-7.9 6.47,2.84 14.19,5.68 21.04,2.44 2.48,-1.94 2.98,-5.44 2.82,-8.39 C 34.13,46.16 21.02,46.22 14.3,39.54 8.22,32.4 9.97,20 17.55,14.53 Z"
           inkscape:connector-curvature="0"
           style="opacity:1;fill:#023264" />
        <path
           id="path4154"
           d="m 59.81,16.97 c 3.57,-0.62 7.14,-1.36 10.76,-1.62 0.69,4.53 0.05,9.18 0.49,13.75 l 0.96,0.13 c 3.49,0.43 7.04,0.32 10.49,1.01 -0.21,0.99 -0.63,2.95 -0.84,3.93 -0.26,0.87 -0.56,1.73 -0.89,2.58 -2.81,0.32 -5.66,0.31 -8.45,0.84 l -1.15,0.37 c -0.32,8.85 -0.27,17.77 -0.02,26.62 l 0.11,0.6 c 1.44,0.14 2.93,0.35 4.38,0.11 1.95,-0.42 3.81,-1.15 5.68,-1.86 0.36,1.49 0.52,3.01 0.87,4.5 0.33,1.6 0.87,3.15 1.15,4.76 -6.24,3.03 -14.05,3.52 -20.18,-0.06 -2.62,-1.83 -2.96,-5.52 -3.32,-8.47 0.16,-8.72 0.1,-17.44 0.1,-26.15 l -0.03,-1 c -2.63,-0.08 -5.26,0.06 -7.89,-0.04 -0.09,-2.45 -0.07,-4.9 0.01,-7.35 2.55,-0.13 5.11,0.02 7.66,-0.05 0.16,-4.2 -0.11,-8.4 0.11,-12.6 z"
           inkscape:connector-curvature="0"
           style="opacity:1;fill:#023264" />
        <path
           id="path4156"
           d="m 173.81,16.97 c 3.57,-0.62 7.15,-1.36 10.78,-1.62 0.65,4.54 0.04,9.18 0.47,13.75 l 0.96,0.13 c 3.49,0.44 7.04,0.31 10.49,1.01 -0.21,0.98 -0.63,2.94 -0.84,3.92 -0.26,0.88 -0.56,1.74 -0.89,2.59 -2.87,0.31 -5.77,0.35 -8.62,0.89 l -1.02,0.32 c -0.23,8.86 -0.26,17.77 0.02,26.62 l 0.1,0.6 c 1.45,0.14 2.94,0.35 4.39,0.11 1.95,-0.42 3.81,-1.15 5.67,-1.86 0.38,1.52 0.51,3.1 0.89,4.62 0.34,1.56 0.85,3.07 1.14,4.64 -6.24,3.02 -14.05,3.53 -20.17,-0.05 -2.63,-1.84 -2.97,-5.53 -3.33,-8.48 0.16,-8.72 0.1,-17.44 0.1,-26.15 l -0.03,-1 c -2.64,-0.08 -5.29,0.07 -7.93,-0.06 -0.11,-2.44 -0.06,-4.88 0.04,-7.32 2.55,-0.15 5.11,0.01 7.67,-0.06 0.16,-4.19 -0.11,-8.4 0.11,-12.6 z"
           inkscape:connector-curvature="0"
           style="opacity:1;fill:#023264" />
        <path
           id="path4158"
           d="m 90.16,31.18 c 2.5,-1.08 4.94,-2.36 7.54,-3.19 1.61,2.02 2.2,4.56 2.82,7 3.94,-4.48 10.09,-9.34 16.24,-5.87 -0.78,3.33 -1.97,6.56 -3.01,9.82 -0.37,-0.15 -1.11,-0.45 -1.48,-0.59 -3.85,-1.24 -8.45,1.19 -10.22,4.73 -0.28,10.15 0.33,20.37 -0.54,30.48 -3.52,0.14 -7.04,0.47 -10.57,0.31 0.1,-14.23 0.44,-28.56 -0.78,-42.69 z"
           inkscape:connector-curvature="0"
           style="opacity:1;fill:#023264" />
        <path
           id="path4160"
           d="m 122.55,30.67 c 3.58,-0.91 7.15,-2.25 10.87,-2.34 1.35,11.06 0.19,22.81 0.58,34.14 0.01,0.4 0.02,1.21 0.03,1.62 1.31,1.19 3.01,1.89 4.75,2.17 2.75,-0.37 5.53,-0.99 7.94,-2.42 0.82,-11.07 -0.21,-22.32 0.68,-33.37 3.44,-1.17 7.04,-1.75 10.59,-2.5 0.04,12.52 -0.03,25.04 0.03,37.56 0.05,2.18 0.76,4.27 1.29,6.36 -2.89,1.53 -6.02,2.55 -9.23,3.12 -0.44,-1.69 -0.83,-3.39 -1.32,-5.07 -0.25,0.09 -0.77,0.27 -1.03,0.36 -6.58,4.2 -15.75,6.64 -22.6,1.64 -1.85,-2.57 -2.76,-5.71 -2.67,-8.87 0.06,-10.8 -0.12,-21.61 0.09,-32.4 z"
           inkscape:connector-curvature="0"
           style="opacity:1;fill:#023264" />
        <path
           id="path4162"
           d="m 209.4,30.38 c 6.94,-3.54 15.54,-2.52 22.31,0.94 0.57,1.4 -0.57,2.86 -0.77,4.25 -0.4,1 -0.77,2 -1.22,2.97 -1.52,-0.34 -2.98,-0.86 -4.48,-1.21 -4.8,-1.04 -14.17,-1.47 -13.31,5.86 1.22,1.89 3.52,2.33 5.53,2.88 4.68,1.49 10.09,2.97 13.11,7.1 0.74,1.65 1.49,3.3 2.25,4.94 2.64,10.75 -8.17,20.61 -18.68,17.57 -4.45,-1.67 -9.66,-2.5 -13.05,-6.08 1.01,-2.27 1.55,-4.82 2.99,-6.86 5.6,2.38 12.67,6.37 18.43,2.32 1.32,-1.76 1.87,-4.99 -0.43,-6.18 -4.92,-3.14 -11.1,-3.66 -15.8,-7.28 -6.46,-5.73 -4.26,-17.26 3.12,-21.22 z"
           inkscape:connector-curvature="0"
           style="opacity:1;fill:#023264" />
      </g>
      <g
         id="g4164">
        <path
           id="path4166"
           d="m 47.31,15.52 c 5.9,2.02 3.01,11.28 -2.3,11.99 -5.27,-1.44 -10.93,-4.7 -16.29,-1.65 -3.42,1.85 -1.72,6.18 -0.9,9.11 -4,-1.38 -8.68,-5.53 -6.07,-10.09 0.11,0.45 0.32,1.36 0.42,1.81 1.87,-5.68 8.14,-6.18 13.19,-6.53 2.94,0.71 5.5,2.38 8.27,3.53 1.36,-2.66 2.57,-5.4 3.68,-8.17 z"
           inkscape:connector-curvature="0"
           style="opacity:1;fill:#a3a5a8" />
        <path
           id="path4168"
           d="m 72.28,17.85 c 3.81,2.25 2.99,7.13 3.19,10.87 2.57,0.87 6.09,-0.75 7.96,1.67 l -0.92,-0.15 c -3.45,-0.69 -7,-0.58 -10.49,-1.01 -0.08,-3.8 -0.18,-7.61 0.26,-11.38 z"
           inkscape:connector-curvature="0"
           style="opacity:1;fill:#a3a5a8" />
        <path
           id="path4170"
           d="m 186.28,17.84 c 3.81,2.26 2.99,7.14 3.19,10.88 2.57,0.89 6.09,-0.75 7.96,1.67 l -0.92,-0.15 c -3.45,-0.7 -7,-0.57 -10.49,-1.01 -0.08,-3.8 -0.18,-7.61 0.26,-11.39 z"
           inkscape:connector-curvature="0"
           style="opacity:1;fill:#a3a5a8" />
        <path
           id="path4172"
           d="m 114.75,39.34 c 1.36,-2.59 1.03,-7.18 4.13,-8.16 3.42,2.87 0.89,8.51 -2.13,10.72 -3.56,1.02 -8.36,0.67 -10.09,4.74 -0.62,9.42 0.38,18.92 -0.46,28.32 -2.36,4.32 -10.07,4.78 -12.49,0.28 2.84,-0.47 5.73,-0.56 8.58,-0.99 1.59,-10.24 0.19,-20.74 0.8,-31.07 2.15,-2.95 5.71,-4.25 9.18,-4.83 0.37,0.14 1.11,0.44 1.48,0.59 0.25,0.1 0.75,0.3 1,0.4 z"
           inkscape:connector-curvature="0"
           style="opacity:1;fill:#a3a5a8" />
        <path
           id="path4174"
           d="m 135.38,30.9 c 1,0.52 2.28,1.04 2.09,2.43 0.8,10.97 -0.92,22.09 1.31,32.93 -1.74,-0.28 -3.44,-0.98 -4.75,-2.17 -0.01,-0.41 -0.02,-1.22 -0.03,-1.62 2.35,-10.33 0.02,-21.11 1.38,-31.57 z"
           inkscape:connector-curvature="0"
           style="opacity:1;fill:#a3a5a8" />
        <path
           id="path4176"
           d="m 83.48,32.02 c 2.04,0.13 2.4,2.44 2.94,3.99 -0.57,5.97 -6.26,5.92 -10.87,6.58 -0.29,7.56 -0.33,15.14 0.1,22.7 -1.45,0.24 -2.94,0.03 -4.38,-0.11 l -0.11,-0.6 c 1.46,-8.8 0.87,-18.24 1.17,-26.99 2.79,-0.53 5.64,-0.52 8.45,-0.84 0.33,-0.85 0.63,-1.71 0.89,-2.58 0.24,0.43 0.73,1.29 0.97,1.72 0.26,-1.29 0.53,-2.58 0.84,-3.87 z"
           inkscape:connector-curvature="0"
           style="opacity:1;fill:#a3a5a8" />
        <path
           id="path4178"
           d="m 197.47,32.02 c 2.03,0.13 2.44,2.42 2.95,3.98 -0.56,5.98 -6.26,5.95 -10.87,6.6 -0.29,7.55 -0.34,15.14 0.1,22.69 -1.45,0.24 -2.94,0.03 -4.39,-0.11 l -0.1,-0.6 c 2,-8.6 -0.15,-17.64 1.76,-26.29 -0.19,-0.16 -0.57,-0.49 -0.76,-0.65 2.85,-0.54 5.75,-0.58 8.62,-0.89 0.33,-0.85 0.63,-1.71 0.89,-2.59 0.24,0.44 0.73,1.32 0.97,1.76 0.25,-1.31 0.53,-2.61 0.83,-3.9 z"
           inkscape:connector-curvature="0"
           style="opacity:1;fill:#a3a5a8" />
        <path
           id="path4180"
           d="m 159.52,32.09 c 4.1,8.26 0.76,18.03 1.83,26.94 -0.15,5.23 1.41,10.53 0.39,15.71 -1.58,3.77 -6.6,3.67 -9.72,2.01 2.92,-1.36 5.97,-2.43 8.77,-4.06 -0.37,-0.2 -1.11,-0.6 -1.48,-0.8 -0.53,-2.09 -1.24,-4.18 -1.29,-6.36 2.45,-10.93 -0.21,-22.41 1.5,-33.44 z"
           inkscape:connector-curvature="0"
           style="opacity:1;fill:#a3a5a8" />
        <path
           id="path4182"
           d="m 230.94,35.57 c 1.13,-0.77 2.29,-1.48 3.49,-2.13 0.7,2.97 0.64,6.4 -2.35,8.06 -4.39,0.56 -8.86,-0.62 -13.23,0.19 -0.52,1.44 -0.91,2.93 -1.39,4.38 -2.01,-0.55 -4.31,-0.99 -5.53,-2.88 1.49,-6.23 8.35,-5.37 13.31,-5.86 1.5,0.35 2.96,0.87 4.48,1.21 0.45,-0.97 0.82,-1.97 1.22,-2.97 z"
           inkscape:connector-curvature="0"
           style="opacity:1;fill:#a3a5a8" />
        <path
           id="path4184"
           d="m 53.94,38.39 c 1.99,-0.27 4,-0.45 6.01,-0.38 0,8.71 0.06,17.43 -0.1,26.15 -1,-7.02 0.12,-14.13 -0.6,-21.16 -1.78,-1.54 -4.55,-2.13 -5.31,-4.61 z"
           inkscape:connector-curvature="0"
           style="opacity:1;fill:#a3a5a8" />
        <path
           id="path4186"
           d="m 167.94,38.39 c 1.99,-0.27 4,-0.45 6.01,-0.38 0,8.71 0.06,17.43 -0.1,26.15 -1,-7.02 0.12,-14.13 -0.6,-21.16 -1.78,-1.54 -4.54,-2.14 -5.31,-4.61 z"
           inkscape:connector-curvature="0"
           style="opacity:1;fill:#a3a5a8" />
        <path
           id="path4188"
           d="m 14.3,39.54 c 6.72,6.68 19.83,6.62 22.91,16.45 C 29.75,50.49 18.06,48.75 14.3,39.54 Z"
           inkscape:connector-curvature="0"
           style="opacity:1;fill:#a3a5a8" />
        <path
           id="path4190"
           d="m 49.33,51.68 c 3.89,6.59 2.17,16.09 -3.34,21.31 -5.28,5.68 -14.06,6.41 -21.17,4.54 7.9,-0.32 17.11,-1.65 21.75,-8.91 3.76,-4.95 1.83,-11.29 2.76,-16.94 z"
           inkscape:connector-curvature="0"
           style="opacity:1;fill:#a3a5a8" />
        <path
           id="path4192"
           d="m 206.28,51.6 c 4.7,3.62 10.88,4.14 15.8,7.28 2.3,1.19 1.75,4.42 0.43,6.18 -2.32,-7.37 -14.78,-4.93 -16.23,-13.46 z"
           inkscape:connector-curvature="0"
           style="opacity:1;fill:#a3a5a8" />
        <path
           id="path4194"
           d="m 230.57,53.17 c 3.72,0.66 5.03,4.91 6.44,7.92 2.69,8.56 -4.69,17.1 -12.95,18.37 -6.26,0.59 -12.63,-0.73 -18.27,-3.46 -3.33,-2.13 -5.64,2.29 -8.8,2.68 -6.76,1.77 -17.17,2.04 -19.81,-6.04 6.12,3.58 13.93,3.07 20.17,0.05 -0.29,-1.57 -0.8,-3.08 -1.14,-4.64 0.27,-0.43 0.82,-1.3 1.1,-1.74 1.83,0.25 2.65,2.07 3.78,3.29 3.39,3.58 8.6,4.41 13.05,6.08 10.34,5.47 23.83,-6.93 18.68,-17.57 -0.76,-1.64 -1.51,-3.29 -2.25,-4.94 z"
           inkscape:connector-curvature="0"
           style="opacity:1;fill:#a3a5a8" />
        <path
           id="path4196"
           d="m 82.2,67.93 c 0.45,-0.25 1.33,-0.75 1.77,-1 1.34,0.56 2.56,1.39 3.56,2.44 0.52,3.52 -0.17,8.1 -4.28,8.99 -6.72,2.29 -17.37,2.39 -20.08,-5.73 6.13,3.58 13.94,3.09 20.18,0.06 -0.28,-1.61 -0.82,-3.16 -1.15,-4.76 z"
           inkscape:connector-curvature="0"
           style="opacity:1;fill:#a3a5a8" />
      </g>
      <g
         id="g4198">
        <path
           id="path4200"
           d="m 159.18,30.05 c 3.58,0.1 4.18,4.12 4.12,6.93 -0.1,12.64 -0.04,25.29 0.41,37.9 -2.44,5.57 -10.02,5.3 -14.72,2.77 -7.79,3.03 -21.39,4.85 -23.86,-5.71 6.85,5 16.02,2.56 22.6,-1.64 -1.68,6.1 -11.52,5.28 -16.91,6.31 6.4,2.66 13.03,0.26 19.26,-1.6 3.21,-0.57 6.34,-1.59 9.23,-3.12 0.37,0.2 1.11,0.6 1.48,0.8 -2.8,1.63 -5.85,2.7 -8.77,4.06 3.12,1.66 8.14,1.76 9.72,-2.01 1.02,-5.18 -0.54,-10.48 -0.39,-15.71 -1.07,-8.91 2.27,-18.68 -1.83,-26.94 -0.09,-0.51 -0.26,-1.53 -0.34,-2.04 z"
           inkscape:connector-curvature="0"
           style="opacity:1;fill:#c4c6c8" />
        <path
           id="path4202"
           d="m 39.87,41.03 c 14.68,3.4 17.8,25.35 6.39,34.23 -7.84,6.68 -19.01,5.36 -28.16,2.61 -3.51,-0.96 -6.05,-3.9 -6.94,-7.36 8.95,5.73 21.34,7.68 30.4,1.1 9.85,-7.4 8.04,-23.82 -1.69,-30.58 m 9.46,10.65 c -0.93,5.65 1,11.99 -2.76,16.94 -4.64,7.26 -13.85,8.59 -21.75,8.91 7.11,1.87 15.89,1.14 21.17,-4.54 5.51,-5.22 7.23,-14.72 3.34,-21.31 z"
           inkscape:connector-curvature="0"
           style="opacity:1;fill:#c4c6c8" />
      </g>
      <g
         id="g4204">
        <path
           id="path4206"
           d="m 147.73,70.3 c 0.26,-0.09 0.78,-0.27 1.03,-0.36 0.49,1.68 0.88,3.38 1.32,5.07 -6.23,1.86 -12.86,4.26 -19.26,1.6 5.39,-1.03 15.23,-0.21 16.91,-6.31 z"
           inkscape:connector-curvature="0"
           style="opacity:1;fill:#878d93" />
      </g>
    </g>
  </g>
</svg>
